%TF.GenerationSoftware,KiCad,Pcbnew,(6.0.7)*%
%TF.CreationDate,2023-01-05T19:37:19-06:00*%
%TF.ProjectId,OpenRectangle,4f70656e-5265-4637-9461-6e676c652e6b,rev?*%
%TF.SameCoordinates,Original*%
%TF.FileFunction,Profile,NP*%
%FSLAX46Y46*%
G04 Gerber Fmt 4.6, Leading zero omitted, Abs format (unit mm)*
G04 Created by KiCad (PCBNEW (6.0.7)) date 2023-01-05 19:37:19*
%MOMM*%
%LPD*%
G01*
G04 APERTURE LIST*
%TA.AperFunction,Profile*%
%ADD10C,0.100000*%
%TD*%
G04 APERTURE END LIST*
D10*
X322953031Y-106793769D02*
X320102866Y-106791500D01*
X318592866Y-124331500D02*
G75*
G03*
X320102866Y-125841500I1510000J0D01*
G01*
X340522866Y-124331500D02*
X340522866Y-100781500D01*
X339012866Y-125841500D02*
G75*
G03*
X340522866Y-124331500I0J1510000D01*
G01*
X318592866Y-124331500D02*
X318592866Y-108301500D01*
X322953031Y-106793765D02*
G75*
G03*
X324463031Y-105283769I35J1509965D01*
G01*
X339012866Y-125841500D02*
X320102866Y-125841500D01*
X342032866Y-99271500D02*
G75*
G03*
X340522866Y-100781500I0J-1510000D01*
G01*
X320102866Y-106791500D02*
G75*
G03*
X318592866Y-108301500I0J-1510000D01*
G01*
X324462866Y-47131500D02*
X324463031Y-105283769D01*
X350772866Y-99271500D02*
X342032866Y-99271500D01*
X352282866Y-81721500D02*
X352282866Y-97761500D01*
X350772866Y-99271500D02*
G75*
G03*
X352282866Y-97761500I0J1510000D01*
G01*
X333252866Y-50361500D02*
G75*
G03*
X334762866Y-51871500I1510000J0D01*
G01*
X333252866Y-28091500D02*
X333252866Y-50361500D01*
X349562866Y-53371500D02*
X349562866Y-78691500D01*
X349562866Y-53371500D02*
G75*
G03*
X348062866Y-51871500I-1500000J0D01*
G01*
X349562826Y-78691499D02*
G75*
G03*
X350932866Y-80211500I1506240J-19801D01*
G01*
X334762866Y-51871500D02*
X348062866Y-51871500D01*
X352282938Y-81721500D02*
G75*
G03*
X350932866Y-80211500I-1519472J0D01*
G01*
X315722866Y-45640913D02*
X322972866Y-45641500D01*
X315722866Y-26581500D02*
G75*
G03*
X314212866Y-28091500I0J-1510000D01*
G01*
X314212866Y-28091500D02*
X314212866Y-44130913D01*
X324462866Y-47131500D02*
G75*
G03*
X322972866Y-45641500I-1505500J-15500D01*
G01*
X333252866Y-28091500D02*
G75*
G03*
X331742866Y-26581500I-1510000J0D01*
G01*
X331742866Y-26581500D02*
X315722866Y-26581500D01*
X314212853Y-44130913D02*
G75*
G03*
X315722866Y-45640913I1510013J13D01*
G01*
M02*
