%TF.GenerationSoftware,KiCad,Pcbnew,(6.0.7)*%
%TF.CreationDate,2023-01-05T19:36:49-06:00*%
%TF.ProjectId,OpenRectangle,4f70656e-5265-4637-9461-6e676c652e6b,rev?*%
%TF.SameCoordinates,Original*%
%TF.FileFunction,Profile,NP*%
%FSLAX46Y46*%
G04 Gerber Fmt 4.6, Leading zero omitted, Abs format (unit mm)*
G04 Created by KiCad (PCBNEW (6.0.7)) date 2023-01-05 19:36:49*
%MOMM*%
%LPD*%
G01*
G04 APERTURE LIST*
%TA.AperFunction,Profile*%
%ADD10C,0.100000*%
%TD*%
G04 APERTURE END LIST*
D10*
X307657831Y-53462869D02*
X307657936Y-27158390D01*
X288607831Y-95172869D02*
X288608659Y-75530038D01*
X323432369Y-72512869D02*
X323432369Y-56478331D01*
X307662369Y-95172869D02*
X307662447Y-75528644D01*
X321924709Y-74018668D02*
G75*
G03*
X323432369Y-72512869I1391J1506268D01*
G01*
X321922369Y-54968331D02*
X309167600Y-54968330D01*
X271692369Y-51328331D02*
X258937989Y-51328619D01*
X273197831Y-72512869D02*
X273198762Y-52840255D01*
X307657862Y-53462869D02*
G75*
G03*
X309167600Y-54968330I1504938J-531D01*
G01*
X307657923Y-27158390D02*
G75*
G03*
X306152369Y-25647869I-1505623J4890D01*
G01*
X257427831Y-27160138D02*
X257430100Y-49850600D01*
X273198759Y-52840255D02*
G75*
G03*
X271692369Y-51328331I-1506559J5355D01*
G01*
X273197840Y-72512869D02*
G75*
G03*
X274707574Y-74018355I1505960J469D01*
G01*
X287102369Y-74018331D02*
X274707574Y-74018355D01*
X309177831Y-74018331D02*
X321924709Y-74018718D01*
X306152369Y-25647869D02*
X258936776Y-25647791D01*
X323432369Y-56478331D02*
G75*
G03*
X321922369Y-54968331I-1509969J31D01*
G01*
X258936776Y-25647834D02*
G75*
G03*
X257427831Y-27160138I3224J-1512166D01*
G01*
X309177831Y-74018337D02*
G75*
G03*
X307662447Y-75528644I369J-1515763D01*
G01*
X257430126Y-49850600D02*
G75*
G03*
X258937989Y-51328619I1505074J27300D01*
G01*
X288608660Y-75530038D02*
G75*
G03*
X287102369Y-74018331I-1506560J5138D01*
G01*
X306152369Y-96682869D02*
G75*
G03*
X307662369Y-95172869I31J1509969D01*
G01*
X288607831Y-95172869D02*
G75*
G03*
X290117831Y-96682869I1509969J-31D01*
G01*
X306152369Y-96682869D02*
X290117831Y-96682869D01*
M02*
