%TF.GenerationSoftware,KiCad,Pcbnew,(6.0.7)*%
%TF.CreationDate,2023-01-05T19:36:49-06:00*%
%TF.ProjectId,OpenRectangle,4f70656e-5265-4637-9461-6e676c652e6b,rev?*%
%TF.SameCoordinates,Original*%
%TF.FileFunction,Legend,Bot*%
%TF.FilePolarity,Positive*%
%FSLAX46Y46*%
G04 Gerber Fmt 4.6, Leading zero omitted, Abs format (unit mm)*
G04 Created by KiCad (PCBNEW (6.0.7)) date 2023-01-05 19:36:49*
%MOMM*%
%LPD*%
G01*
G04 APERTURE LIST*
%ADD10C,0.300000*%
%ADD11C,0.150000*%
G04 APERTURE END LIST*
D10*
X288728671Y-42546552D02*
X288652480Y-42622742D01*
X288576290Y-42851314D01*
X288576290Y-43003695D01*
X288652480Y-43232266D01*
X288804861Y-43384647D01*
X288957242Y-43460838D01*
X289262004Y-43537028D01*
X289490576Y-43537028D01*
X289795338Y-43460838D01*
X289947719Y-43384647D01*
X290100100Y-43232266D01*
X290176290Y-43003695D01*
X290176290Y-42851314D01*
X290100100Y-42622742D01*
X290023909Y-42546552D01*
X288576290Y-39727504D02*
X289338195Y-40260838D01*
X288576290Y-40641790D02*
X290176290Y-40641790D01*
X290176290Y-40032266D01*
X290100100Y-39879885D01*
X290023909Y-39803695D01*
X289871528Y-39727504D01*
X289642957Y-39727504D01*
X289490576Y-39803695D01*
X289414385Y-39879885D01*
X289338195Y-40032266D01*
X289338195Y-40641790D01*
X288576290Y-39041790D02*
X290176290Y-39041790D01*
X290100100Y-37441790D02*
X290176290Y-37594171D01*
X290176290Y-37822742D01*
X290100100Y-38051314D01*
X289947719Y-38203695D01*
X289795338Y-38279885D01*
X289490576Y-38356076D01*
X289262004Y-38356076D01*
X288957242Y-38279885D01*
X288804861Y-38203695D01*
X288652480Y-38051314D01*
X288576290Y-37822742D01*
X288576290Y-37670361D01*
X288652480Y-37441790D01*
X288728671Y-37365600D01*
X289262004Y-37365600D01*
X289262004Y-37670361D01*
X288576290Y-36679885D02*
X290176290Y-36679885D01*
X289414385Y-36679885D02*
X289414385Y-35765600D01*
X288576290Y-35765600D02*
X290176290Y-35765600D01*
X290176290Y-35232266D02*
X290176290Y-34317980D01*
X288576290Y-34775123D02*
X290176290Y-34775123D01*
X286152671Y-42470361D02*
X286076480Y-42546552D01*
X286000290Y-42775123D01*
X286000290Y-42927504D01*
X286076480Y-43156076D01*
X286228861Y-43308457D01*
X286381242Y-43384647D01*
X286686004Y-43460838D01*
X286914576Y-43460838D01*
X287219338Y-43384647D01*
X287371719Y-43308457D01*
X287524100Y-43156076D01*
X287600290Y-42927504D01*
X287600290Y-42775123D01*
X287524100Y-42546552D01*
X287447909Y-42470361D01*
X286000290Y-40565600D02*
X287600290Y-40565600D01*
X287600290Y-40184647D01*
X287524100Y-39956076D01*
X287371719Y-39803695D01*
X287219338Y-39727504D01*
X286914576Y-39651314D01*
X286686004Y-39651314D01*
X286381242Y-39727504D01*
X286228861Y-39803695D01*
X286076480Y-39956076D01*
X286000290Y-40184647D01*
X286000290Y-40565600D01*
X287600290Y-38660838D02*
X287600290Y-38356076D01*
X287524100Y-38203695D01*
X287371719Y-38051314D01*
X287066957Y-37975123D01*
X286533623Y-37975123D01*
X286228861Y-38051314D01*
X286076480Y-38203695D01*
X286000290Y-38356076D01*
X286000290Y-38660838D01*
X286076480Y-38813219D01*
X286228861Y-38965600D01*
X286533623Y-39041790D01*
X287066957Y-39041790D01*
X287371719Y-38965600D01*
X287524100Y-38813219D01*
X287600290Y-38660838D01*
X287600290Y-37441790D02*
X286000290Y-37060838D01*
X287143147Y-36756076D01*
X286000290Y-36451314D01*
X287600290Y-36070361D01*
X286000290Y-35460838D02*
X287600290Y-35460838D01*
X286000290Y-34546552D01*
X287600290Y-34546552D01*
X283881433Y-35232266D02*
X283881433Y-34470361D01*
X283424290Y-35384647D02*
X285024290Y-34851314D01*
X283424290Y-34317980D01*
X281000671Y-41022742D02*
X280924480Y-41098933D01*
X280848290Y-41327504D01*
X280848290Y-41479885D01*
X280924480Y-41708457D01*
X281076861Y-41860838D01*
X281229242Y-41937028D01*
X281534004Y-42013219D01*
X281762576Y-42013219D01*
X282067338Y-41937028D01*
X282219719Y-41860838D01*
X282372100Y-41708457D01*
X282448290Y-41479885D01*
X282448290Y-41327504D01*
X282372100Y-41098933D01*
X282295909Y-41022742D01*
X280848290Y-38356076D02*
X280848290Y-39117980D01*
X282448290Y-39117980D01*
X281686385Y-37822742D02*
X281686385Y-37289409D01*
X280848290Y-37060838D02*
X280848290Y-37822742D01*
X282448290Y-37822742D01*
X282448290Y-37060838D01*
X281686385Y-35841790D02*
X281686385Y-36375123D01*
X280848290Y-36375123D02*
X282448290Y-36375123D01*
X282448290Y-35613219D01*
X282448290Y-35232266D02*
X282448290Y-34317980D01*
X280848290Y-34775123D02*
X282448290Y-34775123D01*
X278424671Y-38965600D02*
X278348480Y-39041790D01*
X278272290Y-39270361D01*
X278272290Y-39422742D01*
X278348480Y-39651314D01*
X278500861Y-39803695D01*
X278653242Y-39879885D01*
X278958004Y-39956076D01*
X279186576Y-39956076D01*
X279491338Y-39879885D01*
X279643719Y-39803695D01*
X279796100Y-39651314D01*
X279872290Y-39422742D01*
X279872290Y-39270361D01*
X279796100Y-39041790D01*
X279719909Y-38965600D01*
X279872290Y-37060838D02*
X278577052Y-37060838D01*
X278424671Y-36984647D01*
X278348480Y-36908457D01*
X278272290Y-36756076D01*
X278272290Y-36451314D01*
X278348480Y-36298933D01*
X278424671Y-36222742D01*
X278577052Y-36146552D01*
X279872290Y-36146552D01*
X278272290Y-35384647D02*
X279872290Y-35384647D01*
X279872290Y-34775123D01*
X279796100Y-34622742D01*
X279719909Y-34546552D01*
X279567528Y-34470361D01*
X279338957Y-34470361D01*
X279186576Y-34546552D01*
X279110385Y-34622742D01*
X279034195Y-34775123D01*
X279034195Y-35384647D01*
X277220100Y-37822742D02*
X277296290Y-37975123D01*
X277296290Y-38203695D01*
X277220100Y-38432266D01*
X277067719Y-38584647D01*
X276915338Y-38660838D01*
X276610576Y-38737028D01*
X276382004Y-38737028D01*
X276077242Y-38660838D01*
X275924861Y-38584647D01*
X275772480Y-38432266D01*
X275696290Y-38203695D01*
X275696290Y-38051314D01*
X275772480Y-37822742D01*
X275848671Y-37746552D01*
X276382004Y-37746552D01*
X276382004Y-38051314D01*
X275696290Y-37060838D02*
X277296290Y-37060838D01*
X275696290Y-36146552D01*
X277296290Y-36146552D01*
X275696290Y-35384647D02*
X277296290Y-35384647D01*
X277296290Y-35003695D01*
X277220100Y-34775123D01*
X277067719Y-34622742D01*
X276915338Y-34546552D01*
X276610576Y-34470361D01*
X276382004Y-34470361D01*
X276077242Y-34546552D01*
X275924861Y-34622742D01*
X275772480Y-34775123D01*
X275696290Y-35003695D01*
X275696290Y-35384647D01*
D11*
%TO.C,SW18*%
X269106995Y-44249576D02*
X269154614Y-44392433D01*
X269154614Y-44630528D01*
X269106995Y-44725766D01*
X269059376Y-44773385D01*
X268964138Y-44821004D01*
X268868900Y-44821004D01*
X268773662Y-44773385D01*
X268726043Y-44725766D01*
X268678424Y-44630528D01*
X268630805Y-44440052D01*
X268583186Y-44344814D01*
X268535567Y-44297195D01*
X268440329Y-44249576D01*
X268345091Y-44249576D01*
X268249853Y-44297195D01*
X268202234Y-44344814D01*
X268154614Y-44440052D01*
X268154614Y-44678147D01*
X268202234Y-44821004D01*
X268154614Y-45154338D02*
X269154614Y-45392433D01*
X268440329Y-45582909D01*
X269154614Y-45773385D01*
X268154614Y-46011480D01*
X269154614Y-46916242D02*
X269154614Y-46344814D01*
X269154614Y-46630528D02*
X268154614Y-46630528D01*
X268297472Y-46535290D01*
X268392710Y-46440052D01*
X268440329Y-46344814D01*
X268583186Y-47487671D02*
X268535567Y-47392433D01*
X268487948Y-47344814D01*
X268392710Y-47297195D01*
X268345091Y-47297195D01*
X268249853Y-47344814D01*
X268202234Y-47392433D01*
X268154614Y-47487671D01*
X268154614Y-47678147D01*
X268202234Y-47773385D01*
X268249853Y-47821004D01*
X268345091Y-47868623D01*
X268392710Y-47868623D01*
X268487948Y-47821004D01*
X268535567Y-47773385D01*
X268583186Y-47678147D01*
X268583186Y-47487671D01*
X268630805Y-47392433D01*
X268678424Y-47344814D01*
X268773662Y-47297195D01*
X268964138Y-47297195D01*
X269059376Y-47344814D01*
X269106995Y-47392433D01*
X269154614Y-47487671D01*
X269154614Y-47678147D01*
X269106995Y-47773385D01*
X269059376Y-47821004D01*
X268964138Y-47868623D01*
X268773662Y-47868623D01*
X268678424Y-47821004D01*
X268630805Y-47773385D01*
X268583186Y-47678147D01*
%TO.C,SW16*%
X300291995Y-44249576D02*
X300339614Y-44392433D01*
X300339614Y-44630528D01*
X300291995Y-44725766D01*
X300244376Y-44773385D01*
X300149138Y-44821004D01*
X300053900Y-44821004D01*
X299958662Y-44773385D01*
X299911043Y-44725766D01*
X299863424Y-44630528D01*
X299815805Y-44440052D01*
X299768186Y-44344814D01*
X299720567Y-44297195D01*
X299625329Y-44249576D01*
X299530091Y-44249576D01*
X299434853Y-44297195D01*
X299387234Y-44344814D01*
X299339614Y-44440052D01*
X299339614Y-44678147D01*
X299387234Y-44821004D01*
X299339614Y-45154338D02*
X300339614Y-45392433D01*
X299625329Y-45582909D01*
X300339614Y-45773385D01*
X299339614Y-46011480D01*
X300339614Y-46916242D02*
X300339614Y-46344814D01*
X300339614Y-46630528D02*
X299339614Y-46630528D01*
X299482472Y-46535290D01*
X299577710Y-46440052D01*
X299625329Y-46344814D01*
X299339614Y-47773385D02*
X299339614Y-47582909D01*
X299387234Y-47487671D01*
X299434853Y-47440052D01*
X299577710Y-47344814D01*
X299768186Y-47297195D01*
X300149138Y-47297195D01*
X300244376Y-47344814D01*
X300291995Y-47392433D01*
X300339614Y-47487671D01*
X300339614Y-47678147D01*
X300291995Y-47773385D01*
X300244376Y-47821004D01*
X300149138Y-47868623D01*
X299911043Y-47868623D01*
X299815805Y-47821004D01*
X299768186Y-47773385D01*
X299720567Y-47678147D01*
X299720567Y-47487671D01*
X299768186Y-47392433D01*
X299815805Y-47344814D01*
X299911043Y-47297195D01*
%TO.C,SW17*%
X316061995Y-66936576D02*
X316109614Y-67079433D01*
X316109614Y-67317528D01*
X316061995Y-67412766D01*
X316014376Y-67460385D01*
X315919138Y-67508004D01*
X315823900Y-67508004D01*
X315728662Y-67460385D01*
X315681043Y-67412766D01*
X315633424Y-67317528D01*
X315585805Y-67127052D01*
X315538186Y-67031814D01*
X315490567Y-66984195D01*
X315395329Y-66936576D01*
X315300091Y-66936576D01*
X315204853Y-66984195D01*
X315157234Y-67031814D01*
X315109614Y-67127052D01*
X315109614Y-67365147D01*
X315157234Y-67508004D01*
X315109614Y-67841338D02*
X316109614Y-68079433D01*
X315395329Y-68269909D01*
X316109614Y-68460385D01*
X315109614Y-68698480D01*
X316109614Y-69603242D02*
X316109614Y-69031814D01*
X316109614Y-69317528D02*
X315109614Y-69317528D01*
X315252472Y-69222290D01*
X315347710Y-69127052D01*
X315395329Y-69031814D01*
X315109614Y-69936576D02*
X315109614Y-70603242D01*
X316109614Y-70174671D01*
%TO.C,J4*%
X285084861Y-29887742D02*
X285132480Y-29935361D01*
X285275338Y-29982980D01*
X285370576Y-29982980D01*
X285513433Y-29935361D01*
X285608671Y-29840123D01*
X285656290Y-29744885D01*
X285703909Y-29554409D01*
X285703909Y-29411552D01*
X285656290Y-29221076D01*
X285608671Y-29125838D01*
X285513433Y-29030600D01*
X285370576Y-28982980D01*
X285275338Y-28982980D01*
X285132480Y-29030600D01*
X285084861Y-29078219D01*
X283942004Y-29935361D02*
X283799147Y-29982980D01*
X283561052Y-29982980D01*
X283465814Y-29935361D01*
X283418195Y-29887742D01*
X283370576Y-29792504D01*
X283370576Y-29697266D01*
X283418195Y-29602028D01*
X283465814Y-29554409D01*
X283561052Y-29506790D01*
X283751528Y-29459171D01*
X283846766Y-29411552D01*
X283894385Y-29363933D01*
X283942004Y-29268695D01*
X283942004Y-29173457D01*
X283894385Y-29078219D01*
X283846766Y-29030600D01*
X283751528Y-28982980D01*
X283513433Y-28982980D01*
X283370576Y-29030600D01*
X283084861Y-29316314D02*
X282703909Y-29316314D01*
X282942004Y-28982980D02*
X282942004Y-29840123D01*
X282894385Y-29935361D01*
X282799147Y-29982980D01*
X282703909Y-29982980D01*
X282370576Y-29982980D02*
X282370576Y-29316314D01*
X282370576Y-28982980D02*
X282418195Y-29030600D01*
X282370576Y-29078219D01*
X282322957Y-29030600D01*
X282370576Y-28982980D01*
X282370576Y-29078219D01*
X281465814Y-29935361D02*
X281561052Y-29982980D01*
X281751528Y-29982980D01*
X281846766Y-29935361D01*
X281894385Y-29887742D01*
X281942004Y-29792504D01*
X281942004Y-29506790D01*
X281894385Y-29411552D01*
X281846766Y-29363933D01*
X281751528Y-29316314D01*
X281561052Y-29316314D01*
X281465814Y-29363933D01*
X281037242Y-29982980D02*
X281037242Y-28982980D01*
X280942004Y-29602028D02*
X280656290Y-29982980D01*
X280656290Y-29316314D02*
X281037242Y-29697266D01*
%TO.C,SW19*%
X284876995Y-66936576D02*
X284924614Y-67079433D01*
X284924614Y-67317528D01*
X284876995Y-67412766D01*
X284829376Y-67460385D01*
X284734138Y-67508004D01*
X284638900Y-67508004D01*
X284543662Y-67460385D01*
X284496043Y-67412766D01*
X284448424Y-67317528D01*
X284400805Y-67127052D01*
X284353186Y-67031814D01*
X284305567Y-66984195D01*
X284210329Y-66936576D01*
X284115091Y-66936576D01*
X284019853Y-66984195D01*
X283972234Y-67031814D01*
X283924614Y-67127052D01*
X283924614Y-67365147D01*
X283972234Y-67508004D01*
X283924614Y-67841338D02*
X284924614Y-68079433D01*
X284210329Y-68269909D01*
X284924614Y-68460385D01*
X283924614Y-68698480D01*
X284924614Y-69603242D02*
X284924614Y-69031814D01*
X284924614Y-69317528D02*
X283924614Y-69317528D01*
X284067472Y-69222290D01*
X284162710Y-69127052D01*
X284210329Y-69031814D01*
X284924614Y-70079433D02*
X284924614Y-70269909D01*
X284876995Y-70365147D01*
X284829376Y-70412766D01*
X284686519Y-70508004D01*
X284496043Y-70555623D01*
X284115091Y-70555623D01*
X284019853Y-70508004D01*
X283972234Y-70460385D01*
X283924614Y-70365147D01*
X283924614Y-70174671D01*
X283972234Y-70079433D01*
X284019853Y-70031814D01*
X284115091Y-69984195D01*
X284353186Y-69984195D01*
X284448424Y-70031814D01*
X284496043Y-70079433D01*
X284543662Y-70174671D01*
X284543662Y-70365147D01*
X284496043Y-70460385D01*
X284448424Y-70508004D01*
X284353186Y-70555623D01*
%TO.C,SW20*%
X300291995Y-89593576D02*
X300339614Y-89736433D01*
X300339614Y-89974528D01*
X300291995Y-90069766D01*
X300244376Y-90117385D01*
X300149138Y-90165004D01*
X300053900Y-90165004D01*
X299958662Y-90117385D01*
X299911043Y-90069766D01*
X299863424Y-89974528D01*
X299815805Y-89784052D01*
X299768186Y-89688814D01*
X299720567Y-89641195D01*
X299625329Y-89593576D01*
X299530091Y-89593576D01*
X299434853Y-89641195D01*
X299387234Y-89688814D01*
X299339614Y-89784052D01*
X299339614Y-90022147D01*
X299387234Y-90165004D01*
X299339614Y-90498338D02*
X300339614Y-90736433D01*
X299625329Y-90926909D01*
X300339614Y-91117385D01*
X299339614Y-91355480D01*
X299434853Y-91688814D02*
X299387234Y-91736433D01*
X299339614Y-91831671D01*
X299339614Y-92069766D01*
X299387234Y-92165004D01*
X299434853Y-92212623D01*
X299530091Y-92260242D01*
X299625329Y-92260242D01*
X299768186Y-92212623D01*
X300339614Y-91641195D01*
X300339614Y-92260242D01*
X299339614Y-92879290D02*
X299339614Y-92974528D01*
X299387234Y-93069766D01*
X299434853Y-93117385D01*
X299530091Y-93165004D01*
X299720567Y-93212623D01*
X299958662Y-93212623D01*
X300149138Y-93165004D01*
X300244376Y-93117385D01*
X300291995Y-93069766D01*
X300339614Y-92974528D01*
X300339614Y-92879290D01*
X300291995Y-92784052D01*
X300244376Y-92736433D01*
X300149138Y-92688814D01*
X299958662Y-92641195D01*
X299720567Y-92641195D01*
X299530091Y-92688814D01*
X299434853Y-92736433D01*
X299387234Y-92784052D01*
X299339614Y-92879290D01*
%TO.C,SW18*%
X270902454Y-35723924D02*
X271702454Y-35723924D01*
X270622454Y-46673924D02*
X270152454Y-46673924D01*
X273702454Y-46673924D02*
X273472454Y-46673924D01*
X273702454Y-45123924D02*
X273702454Y-46673924D01*
X269652454Y-46173924D02*
X269652454Y-41609100D01*
X268052454Y-35723924D02*
X267812454Y-35723924D01*
X273702454Y-37723924D02*
X273702454Y-43623924D01*
X269652454Y-41609100D02*
G75*
G03*
X267812454Y-39314778I-2349332J866D01*
G01*
X269652454Y-46173924D02*
G75*
G03*
X270152454Y-46673924I500001J1D01*
G01*
X273702454Y-37723924D02*
G75*
G03*
X271702454Y-35723924I-2000004J-4D01*
G01*
%TO.C,SW16*%
X302087454Y-35723924D02*
X302887454Y-35723924D01*
X300837454Y-46173924D02*
X300837454Y-41609100D01*
X304887454Y-45123924D02*
X304887454Y-46673924D01*
X304887454Y-46673924D02*
X304657454Y-46673924D01*
X301807454Y-46673924D02*
X301337454Y-46673924D01*
X299237454Y-35723924D02*
X298997454Y-35723924D01*
X304887454Y-37723924D02*
X304887454Y-43623924D01*
X300837454Y-46173924D02*
G75*
G03*
X301337454Y-46673924I500001J1D01*
G01*
X304887454Y-37723924D02*
G75*
G03*
X302887454Y-35723924I-2000004J-4D01*
G01*
X300837454Y-41609100D02*
G75*
G03*
X298997454Y-39314778I-2349332J866D01*
G01*
%TO.C,SW17*%
X320657454Y-60410924D02*
X320657454Y-66310924D01*
X320657454Y-69360924D02*
X320427454Y-69360924D01*
X317857454Y-58410924D02*
X318657454Y-58410924D01*
X317577454Y-69360924D02*
X317107454Y-69360924D01*
X316607454Y-68860924D02*
X316607454Y-64296100D01*
X315007454Y-58410924D02*
X314767454Y-58410924D01*
X320657454Y-67810924D02*
X320657454Y-69360924D01*
X320657454Y-60410924D02*
G75*
G03*
X318657454Y-58410924I-2000004J-4D01*
G01*
X316607454Y-64296100D02*
G75*
G03*
X314767454Y-62001778I-2349332J866D01*
G01*
X316607454Y-68860924D02*
G75*
G03*
X317107454Y-69360924I500001J1D01*
G01*
%TO.C,SW19*%
X289472454Y-60410924D02*
X289472454Y-66310924D01*
X289472454Y-67810924D02*
X289472454Y-69360924D01*
X286392454Y-69360924D02*
X285922454Y-69360924D01*
X286672454Y-58410924D02*
X287472454Y-58410924D01*
X283822454Y-58410924D02*
X283582454Y-58410924D01*
X285422454Y-68860924D02*
X285422454Y-64296100D01*
X289472454Y-69360924D02*
X289242454Y-69360924D01*
X285422454Y-68860924D02*
G75*
G03*
X285922454Y-69360924I500001J1D01*
G01*
X289472454Y-60410924D02*
G75*
G03*
X287472454Y-58410924I-2000004J-4D01*
G01*
X285422454Y-64296100D02*
G75*
G03*
X283582454Y-62001778I-2349332J866D01*
G01*
%TO.C,SW20*%
X301807454Y-92017924D02*
X301337454Y-92017924D01*
X304887454Y-92017924D02*
X304657454Y-92017924D01*
X304887454Y-83067924D02*
X304887454Y-88967924D01*
X302087454Y-81067924D02*
X302887454Y-81067924D01*
X300837454Y-91517924D02*
X300837454Y-86953100D01*
X304887454Y-90467924D02*
X304887454Y-92017924D01*
X299237454Y-81067924D02*
X298997454Y-81067924D01*
X304887454Y-83067924D02*
G75*
G03*
X302887454Y-81067924I-2000004J-4D01*
G01*
X300837454Y-91517924D02*
G75*
G03*
X301337454Y-92017924I500001J1D01*
G01*
X300837454Y-86953100D02*
G75*
G03*
X298997454Y-84658778I-2349332J866D01*
G01*
%TD*%
M02*
