%TF.GenerationSoftware,KiCad,Pcbnew,(6.0.7)*%
%TF.CreationDate,2023-01-05T19:36:49-06:00*%
%TF.ProjectId,OpenRectangle,4f70656e-5265-4637-9461-6e676c652e6b,rev?*%
%TF.SameCoordinates,Original*%
%TF.FileFunction,Soldermask,Bot*%
%TF.FilePolarity,Negative*%
%FSLAX46Y46*%
G04 Gerber Fmt 4.6, Leading zero omitted, Abs format (unit mm)*
G04 Created by KiCad (PCBNEW (6.0.7)) date 2023-01-05 19:36:49*
%MOMM*%
%LPD*%
G01*
G04 APERTURE LIST*
G04 Aperture macros list*
%AMRoundRect*
0 Rectangle with rounded corners*
0 $1 Rounding radius*
0 $2 $3 $4 $5 $6 $7 $8 $9 X,Y pos of 4 corners*
0 Add a 4 corners polygon primitive as box body*
4,1,4,$2,$3,$4,$5,$6,$7,$8,$9,$2,$3,0*
0 Add four circle primitives for the rounded corners*
1,1,$1+$1,$2,$3*
1,1,$1+$1,$4,$5*
1,1,$1+$1,$6,$7*
1,1,$1+$1,$8,$9*
0 Add four rect primitives between the rounded corners*
20,1,$1+$1,$2,$3,$4,$5,0*
20,1,$1+$1,$4,$5,$6,$7,0*
20,1,$1+$1,$6,$7,$8,$9,0*
20,1,$1+$1,$8,$9,$2,$3,0*%
G04 Aperture macros list end*
%ADD10C,3.987800*%
%ADD11C,1.750000*%
%ADD12C,3.300000*%
%ADD13RoundRect,0.250000X1.000000X-1.025000X1.000000X1.025000X-1.000000X1.025000X-1.000000X-1.025000X0*%
%ADD14R,1.700000X1.700000*%
%ADD15O,1.700000X1.700000*%
%ADD16C,2.200000*%
G04 APERTURE END LIST*
D10*
%TO.C,SW18*%
X266952234Y-41809100D03*
D11*
X266952234Y-46889100D03*
X266952234Y-36729100D03*
D12*
X269492234Y-37999100D03*
D13*
X269492234Y-34449100D03*
D12*
X272032234Y-44349100D03*
D13*
X272032234Y-47899100D03*
%TD*%
D11*
%TO.C,SW16*%
X298137234Y-36729100D03*
X298137234Y-46889100D03*
D10*
X298137234Y-41809100D03*
D13*
X300677234Y-34449100D03*
D12*
X300677234Y-37999100D03*
X303217234Y-44349100D03*
D13*
X303217234Y-47899100D03*
%TD*%
D10*
%TO.C,SW17*%
X313907234Y-64496100D03*
D11*
X313907234Y-69576100D03*
X313907234Y-59416100D03*
D13*
X316447234Y-57136100D03*
D12*
X316447234Y-60686100D03*
D13*
X318987234Y-70586100D03*
D12*
X318987234Y-67036100D03*
%TD*%
D14*
%TO.C,J4*%
X276465100Y-32225600D03*
D15*
X279005100Y-32225600D03*
X281545100Y-32225600D03*
X284085100Y-32225600D03*
X286625100Y-32225600D03*
X289165100Y-32225600D03*
%TD*%
D11*
%TO.C,SW19*%
X282722234Y-59416100D03*
X282722234Y-69576100D03*
D10*
X282722234Y-64496100D03*
D12*
X285262234Y-60686100D03*
D13*
X285262234Y-57136100D03*
X287802234Y-70586100D03*
D12*
X287802234Y-67036100D03*
%TD*%
D16*
%TO.C,H7*%
X280250100Y-52390600D03*
%TD*%
%TO.C,H6*%
X301430100Y-69160600D03*
%TD*%
D11*
%TO.C,SW20*%
X298137234Y-82073100D03*
D10*
X298137234Y-87153100D03*
D11*
X298137234Y-92233100D03*
D12*
X300677234Y-83343100D03*
D13*
X300677234Y-79793100D03*
D12*
X303217234Y-89693100D03*
D13*
X303217234Y-93243100D03*
%TD*%
M02*
