%TF.GenerationSoftware,KiCad,Pcbnew,(6.0.7)*%
%TF.CreationDate,2023-01-05T19:36:49-06:00*%
%TF.ProjectId,OpenRectangle,4f70656e-5265-4637-9461-6e676c652e6b,rev?*%
%TF.SameCoordinates,Original*%
%TF.FileFunction,Legend,Top*%
%TF.FilePolarity,Positive*%
%FSLAX46Y46*%
G04 Gerber Fmt 4.6, Leading zero omitted, Abs format (unit mm)*
G04 Created by KiCad (PCBNEW (6.0.7)) date 2023-01-05 19:36:49*
%MOMM*%
%LPD*%
G01*
G04 APERTURE LIST*
%ADD10C,0.120000*%
%ADD11C,0.010000*%
G04 APERTURE END LIST*
D10*
%TO.C,J4*%
X277735100Y-30895600D02*
X290495100Y-30895600D01*
X277735100Y-33555600D02*
X290495100Y-33555600D01*
X276465100Y-33555600D02*
X275135100Y-33555600D01*
X277735100Y-33555600D02*
X277735100Y-30895600D01*
X290495100Y-33555600D02*
X290495100Y-30895600D01*
X275135100Y-33555600D02*
X275135100Y-32225600D01*
%TO.C,H19*%
G36*
X292067264Y-62616892D02*
G01*
X292085431Y-62618393D01*
X292094221Y-62619883D01*
X292129874Y-62629994D01*
X292163278Y-62644400D01*
X292194084Y-62662821D01*
X292221945Y-62684975D01*
X292246512Y-62710580D01*
X292267437Y-62739355D01*
X292284372Y-62771019D01*
X292286114Y-62774986D01*
X292292780Y-62791227D01*
X292297702Y-62805327D01*
X292301132Y-62818625D01*
X292303323Y-62832457D01*
X292304524Y-62848162D01*
X292304988Y-62867076D01*
X292305023Y-62875559D01*
X292304951Y-62892270D01*
X292304646Y-62905038D01*
X292304002Y-62915000D01*
X292302914Y-62923291D01*
X292301275Y-62931046D01*
X292299079Y-62939059D01*
X292286355Y-62973661D01*
X292269243Y-63006159D01*
X292248098Y-63036030D01*
X292223279Y-63062753D01*
X292202171Y-63080642D01*
X292187704Y-63090390D01*
X292169982Y-63100401D01*
X292150663Y-63109881D01*
X292131404Y-63118036D01*
X292113862Y-63124074D01*
X292108438Y-63125539D01*
X292074337Y-63131411D01*
X292040441Y-63132459D01*
X292007135Y-63128937D01*
X291974804Y-63121099D01*
X291943835Y-63109197D01*
X291914613Y-63093485D01*
X291887524Y-63074217D01*
X291862955Y-63051645D01*
X291841290Y-63026022D01*
X291822917Y-62997603D01*
X291808220Y-62966641D01*
X291797586Y-62933388D01*
X291794552Y-62919476D01*
X291792339Y-62902952D01*
X291791217Y-62883730D01*
X291791188Y-62863711D01*
X291792253Y-62844800D01*
X291794414Y-62828900D01*
X291794480Y-62828569D01*
X291803969Y-62793840D01*
X291817923Y-62761113D01*
X291835997Y-62730753D01*
X291857847Y-62703122D01*
X291883129Y-62678583D01*
X291911501Y-62657500D01*
X291942616Y-62640237D01*
X291976132Y-62627156D01*
X291988510Y-62623596D01*
X292005797Y-62620130D01*
X292025790Y-62617819D01*
X292046832Y-62616720D01*
X292067264Y-62616892D01*
G37*
D11*
X292067264Y-62616892D02*
X292085431Y-62618393D01*
X292094221Y-62619883D01*
X292129874Y-62629994D01*
X292163278Y-62644400D01*
X292194084Y-62662821D01*
X292221945Y-62684975D01*
X292246512Y-62710580D01*
X292267437Y-62739355D01*
X292284372Y-62771019D01*
X292286114Y-62774986D01*
X292292780Y-62791227D01*
X292297702Y-62805327D01*
X292301132Y-62818625D01*
X292303323Y-62832457D01*
X292304524Y-62848162D01*
X292304988Y-62867076D01*
X292305023Y-62875559D01*
X292304951Y-62892270D01*
X292304646Y-62905038D01*
X292304002Y-62915000D01*
X292302914Y-62923291D01*
X292301275Y-62931046D01*
X292299079Y-62939059D01*
X292286355Y-62973661D01*
X292269243Y-63006159D01*
X292248098Y-63036030D01*
X292223279Y-63062753D01*
X292202171Y-63080642D01*
X292187704Y-63090390D01*
X292169982Y-63100401D01*
X292150663Y-63109881D01*
X292131404Y-63118036D01*
X292113862Y-63124074D01*
X292108438Y-63125539D01*
X292074337Y-63131411D01*
X292040441Y-63132459D01*
X292007135Y-63128937D01*
X291974804Y-63121099D01*
X291943835Y-63109197D01*
X291914613Y-63093485D01*
X291887524Y-63074217D01*
X291862955Y-63051645D01*
X291841290Y-63026022D01*
X291822917Y-62997603D01*
X291808220Y-62966641D01*
X291797586Y-62933388D01*
X291794552Y-62919476D01*
X291792339Y-62902952D01*
X291791217Y-62883730D01*
X291791188Y-62863711D01*
X291792253Y-62844800D01*
X291794414Y-62828900D01*
X291794480Y-62828569D01*
X291803969Y-62793840D01*
X291817923Y-62761113D01*
X291835997Y-62730753D01*
X291857847Y-62703122D01*
X291883129Y-62678583D01*
X291911501Y-62657500D01*
X291942616Y-62640237D01*
X291976132Y-62627156D01*
X291988510Y-62623596D01*
X292005797Y-62620130D01*
X292025790Y-62617819D01*
X292046832Y-62616720D01*
X292067264Y-62616892D01*
G36*
X293374204Y-54645524D02*
G01*
X293400639Y-54646862D01*
X293415909Y-54648311D01*
X293467368Y-54656779D01*
X293517097Y-54669868D01*
X293564867Y-54687346D01*
X293610451Y-54708981D01*
X293653622Y-54734543D01*
X293694151Y-54763799D01*
X293731811Y-54796517D01*
X293766374Y-54832466D01*
X293797612Y-54871414D01*
X293825298Y-54913130D01*
X293849204Y-54957381D01*
X293869102Y-55003937D01*
X293884765Y-55052565D01*
X293895964Y-55103034D01*
X293901319Y-55142163D01*
X293903792Y-55191631D01*
X293901395Y-55241473D01*
X293894267Y-55291207D01*
X293882544Y-55340350D01*
X293866364Y-55388418D01*
X293845865Y-55434929D01*
X293821185Y-55479400D01*
X293793691Y-55519719D01*
X293787078Y-55528111D01*
X293778044Y-55539014D01*
X293767618Y-55551211D01*
X293756832Y-55563485D01*
X293753082Y-55567663D01*
X293730763Y-55594281D01*
X293707945Y-55625127D01*
X293685119Y-55659442D01*
X293662770Y-55696470D01*
X293641388Y-55735453D01*
X293628465Y-55761019D01*
X293598780Y-55827331D01*
X293574044Y-55894546D01*
X293554240Y-55962489D01*
X293539354Y-56030986D01*
X293529369Y-56099860D01*
X293524270Y-56168938D01*
X293524041Y-56238044D01*
X293528667Y-56307003D01*
X293538131Y-56375640D01*
X293552419Y-56443780D01*
X293571514Y-56511248D01*
X293595400Y-56577869D01*
X293624063Y-56643468D01*
X293657486Y-56707870D01*
X293695653Y-56770900D01*
X293722530Y-56810392D01*
X293736237Y-56829186D01*
X293752299Y-56850414D01*
X293769669Y-56872738D01*
X293787299Y-56894821D01*
X293804141Y-56915325D01*
X293812376Y-56925078D01*
X293833975Y-56951410D01*
X293852763Y-56976742D01*
X293870103Y-57002968D01*
X293879399Y-57018262D01*
X293905035Y-57066502D01*
X293926158Y-57116776D01*
X293942719Y-57168690D01*
X293954667Y-57221852D01*
X293961953Y-57275867D01*
X293964527Y-57330342D01*
X293962339Y-57384885D01*
X293955339Y-57439102D01*
X293943476Y-57492598D01*
X293940815Y-57502143D01*
X293923587Y-57552993D01*
X293901745Y-57602229D01*
X293875579Y-57649393D01*
X293845378Y-57694026D01*
X293811432Y-57735668D01*
X293774030Y-57773862D01*
X293763001Y-57783855D01*
X293720085Y-57818700D01*
X293675409Y-57848988D01*
X293628704Y-57874840D01*
X293579703Y-57896377D01*
X293528138Y-57913720D01*
X293473741Y-57926992D01*
X293430261Y-57934440D01*
X293417612Y-57935743D01*
X293401107Y-57936707D01*
X293381888Y-57937334D01*
X293361097Y-57937625D01*
X293339878Y-57937579D01*
X293319371Y-57937199D01*
X293300719Y-57936485D01*
X293285064Y-57935436D01*
X293275321Y-57934337D01*
X293218208Y-57923529D01*
X293163642Y-57908427D01*
X293111716Y-57889078D01*
X293062522Y-57865531D01*
X293016152Y-57837835D01*
X292972699Y-57806038D01*
X292932256Y-57770190D01*
X292901567Y-57737990D01*
X292866090Y-57694224D01*
X292835193Y-57648319D01*
X292808837Y-57600194D01*
X292786982Y-57549763D01*
X292769591Y-57496944D01*
X292756624Y-57441653D01*
X292752205Y-57415829D01*
X292750947Y-57405285D01*
X292749771Y-57391230D01*
X292748715Y-57374728D01*
X292747820Y-57356847D01*
X292747127Y-57338652D01*
X292746675Y-57321208D01*
X292746506Y-57305581D01*
X292746659Y-57292838D01*
X292747175Y-57284043D01*
X292747208Y-57283749D01*
X292747958Y-57277246D01*
X292749081Y-57267396D01*
X292750384Y-57255898D01*
X292750968Y-57250729D01*
X292758464Y-57204411D01*
X292770428Y-57157355D01*
X292786504Y-57110428D01*
X292806338Y-57064495D01*
X292829577Y-57020421D01*
X292855867Y-56979073D01*
X292869885Y-56959899D01*
X292876665Y-56951343D01*
X292885474Y-56940629D01*
X292894958Y-56929391D01*
X292900644Y-56922805D01*
X292936140Y-56881002D01*
X292967832Y-56841179D01*
X292996221Y-56802615D01*
X293021805Y-56764590D01*
X293045086Y-56726384D01*
X293066562Y-56687276D01*
X293073283Y-56674161D01*
X293098802Y-56619742D01*
X293120721Y-56564705D01*
X293139240Y-56508342D01*
X293154561Y-56449943D01*
X293166885Y-56388801D01*
X293176411Y-56324207D01*
X293179110Y-56300769D01*
X293183057Y-56245206D01*
X293183376Y-56187047D01*
X293180164Y-56127148D01*
X293173519Y-56066367D01*
X293163538Y-56005562D01*
X293150317Y-55945590D01*
X293133954Y-55887307D01*
X293131353Y-55879129D01*
X293117378Y-55839036D01*
X293101518Y-55799182D01*
X293084107Y-55760177D01*
X293065478Y-55722634D01*
X293045966Y-55687166D01*
X293025904Y-55654384D01*
X293005627Y-55624900D01*
X292985466Y-55599328D01*
X292969178Y-55581627D01*
X292932508Y-55541715D01*
X292900494Y-55499829D01*
X292873057Y-55455837D01*
X292850120Y-55409609D01*
X292831604Y-55361012D01*
X292824988Y-55339379D01*
X292813282Y-55289170D01*
X292806514Y-55238740D01*
X292804570Y-55188388D01*
X292807337Y-55138414D01*
X292814700Y-55089116D01*
X292826544Y-55040794D01*
X292842755Y-54993748D01*
X292863218Y-54948275D01*
X292887820Y-54904675D01*
X292916445Y-54863248D01*
X292948980Y-54824293D01*
X292985311Y-54788108D01*
X293025321Y-54754994D01*
X293056881Y-54732869D01*
X293100377Y-54707452D01*
X293146737Y-54685897D01*
X293195214Y-54668492D01*
X293245064Y-54655525D01*
X293268971Y-54651010D01*
X293291916Y-54648074D01*
X293318198Y-54646160D01*
X293346176Y-54645300D01*
X293374204Y-54645524D01*
G37*
X293374204Y-54645524D02*
X293400639Y-54646862D01*
X293415909Y-54648311D01*
X293467368Y-54656779D01*
X293517097Y-54669868D01*
X293564867Y-54687346D01*
X293610451Y-54708981D01*
X293653622Y-54734543D01*
X293694151Y-54763799D01*
X293731811Y-54796517D01*
X293766374Y-54832466D01*
X293797612Y-54871414D01*
X293825298Y-54913130D01*
X293849204Y-54957381D01*
X293869102Y-55003937D01*
X293884765Y-55052565D01*
X293895964Y-55103034D01*
X293901319Y-55142163D01*
X293903792Y-55191631D01*
X293901395Y-55241473D01*
X293894267Y-55291207D01*
X293882544Y-55340350D01*
X293866364Y-55388418D01*
X293845865Y-55434929D01*
X293821185Y-55479400D01*
X293793691Y-55519719D01*
X293787078Y-55528111D01*
X293778044Y-55539014D01*
X293767618Y-55551211D01*
X293756832Y-55563485D01*
X293753082Y-55567663D01*
X293730763Y-55594281D01*
X293707945Y-55625127D01*
X293685119Y-55659442D01*
X293662770Y-55696470D01*
X293641388Y-55735453D01*
X293628465Y-55761019D01*
X293598780Y-55827331D01*
X293574044Y-55894546D01*
X293554240Y-55962489D01*
X293539354Y-56030986D01*
X293529369Y-56099860D01*
X293524270Y-56168938D01*
X293524041Y-56238044D01*
X293528667Y-56307003D01*
X293538131Y-56375640D01*
X293552419Y-56443780D01*
X293571514Y-56511248D01*
X293595400Y-56577869D01*
X293624063Y-56643468D01*
X293657486Y-56707870D01*
X293695653Y-56770900D01*
X293722530Y-56810392D01*
X293736237Y-56829186D01*
X293752299Y-56850414D01*
X293769669Y-56872738D01*
X293787299Y-56894821D01*
X293804141Y-56915325D01*
X293812376Y-56925078D01*
X293833975Y-56951410D01*
X293852763Y-56976742D01*
X293870103Y-57002968D01*
X293879399Y-57018262D01*
X293905035Y-57066502D01*
X293926158Y-57116776D01*
X293942719Y-57168690D01*
X293954667Y-57221852D01*
X293961953Y-57275867D01*
X293964527Y-57330342D01*
X293962339Y-57384885D01*
X293955339Y-57439102D01*
X293943476Y-57492598D01*
X293940815Y-57502143D01*
X293923587Y-57552993D01*
X293901745Y-57602229D01*
X293875579Y-57649393D01*
X293845378Y-57694026D01*
X293811432Y-57735668D01*
X293774030Y-57773862D01*
X293763001Y-57783855D01*
X293720085Y-57818700D01*
X293675409Y-57848988D01*
X293628704Y-57874840D01*
X293579703Y-57896377D01*
X293528138Y-57913720D01*
X293473741Y-57926992D01*
X293430261Y-57934440D01*
X293417612Y-57935743D01*
X293401107Y-57936707D01*
X293381888Y-57937334D01*
X293361097Y-57937625D01*
X293339878Y-57937579D01*
X293319371Y-57937199D01*
X293300719Y-57936485D01*
X293285064Y-57935436D01*
X293275321Y-57934337D01*
X293218208Y-57923529D01*
X293163642Y-57908427D01*
X293111716Y-57889078D01*
X293062522Y-57865531D01*
X293016152Y-57837835D01*
X292972699Y-57806038D01*
X292932256Y-57770190D01*
X292901567Y-57737990D01*
X292866090Y-57694224D01*
X292835193Y-57648319D01*
X292808837Y-57600194D01*
X292786982Y-57549763D01*
X292769591Y-57496944D01*
X292756624Y-57441653D01*
X292752205Y-57415829D01*
X292750947Y-57405285D01*
X292749771Y-57391230D01*
X292748715Y-57374728D01*
X292747820Y-57356847D01*
X292747127Y-57338652D01*
X292746675Y-57321208D01*
X292746506Y-57305581D01*
X292746659Y-57292838D01*
X292747175Y-57284043D01*
X292747208Y-57283749D01*
X292747958Y-57277246D01*
X292749081Y-57267396D01*
X292750384Y-57255898D01*
X292750968Y-57250729D01*
X292758464Y-57204411D01*
X292770428Y-57157355D01*
X292786504Y-57110428D01*
X292806338Y-57064495D01*
X292829577Y-57020421D01*
X292855867Y-56979073D01*
X292869885Y-56959899D01*
X292876665Y-56951343D01*
X292885474Y-56940629D01*
X292894958Y-56929391D01*
X292900644Y-56922805D01*
X292936140Y-56881002D01*
X292967832Y-56841179D01*
X292996221Y-56802615D01*
X293021805Y-56764590D01*
X293045086Y-56726384D01*
X293066562Y-56687276D01*
X293073283Y-56674161D01*
X293098802Y-56619742D01*
X293120721Y-56564705D01*
X293139240Y-56508342D01*
X293154561Y-56449943D01*
X293166885Y-56388801D01*
X293176411Y-56324207D01*
X293179110Y-56300769D01*
X293183057Y-56245206D01*
X293183376Y-56187047D01*
X293180164Y-56127148D01*
X293173519Y-56066367D01*
X293163538Y-56005562D01*
X293150317Y-55945590D01*
X293133954Y-55887307D01*
X293131353Y-55879129D01*
X293117378Y-55839036D01*
X293101518Y-55799182D01*
X293084107Y-55760177D01*
X293065478Y-55722634D01*
X293045966Y-55687166D01*
X293025904Y-55654384D01*
X293005627Y-55624900D01*
X292985466Y-55599328D01*
X292969178Y-55581627D01*
X292932508Y-55541715D01*
X292900494Y-55499829D01*
X292873057Y-55455837D01*
X292850120Y-55409609D01*
X292831604Y-55361012D01*
X292824988Y-55339379D01*
X292813282Y-55289170D01*
X292806514Y-55238740D01*
X292804570Y-55188388D01*
X292807337Y-55138414D01*
X292814700Y-55089116D01*
X292826544Y-55040794D01*
X292842755Y-54993748D01*
X292863218Y-54948275D01*
X292887820Y-54904675D01*
X292916445Y-54863248D01*
X292948980Y-54824293D01*
X292985311Y-54788108D01*
X293025321Y-54754994D01*
X293056881Y-54732869D01*
X293100377Y-54707452D01*
X293146737Y-54685897D01*
X293195214Y-54668492D01*
X293245064Y-54655525D01*
X293268971Y-54651010D01*
X293291916Y-54648074D01*
X293318198Y-54646160D01*
X293346176Y-54645300D01*
X293374204Y-54645524D01*
G36*
X293405315Y-58895089D02*
G01*
X293455042Y-58902967D01*
X293504057Y-58915596D01*
X293552082Y-58932935D01*
X293598837Y-58954947D01*
X293644044Y-58981590D01*
X293672831Y-59001644D01*
X293687295Y-59013207D01*
X293703840Y-59027800D01*
X293721463Y-59044424D01*
X293739162Y-59062075D01*
X293755936Y-59079751D01*
X293770782Y-59096451D01*
X293782699Y-59111172D01*
X293783730Y-59112549D01*
X293814053Y-59157372D01*
X293839462Y-59203467D01*
X293859969Y-59250870D01*
X293875587Y-59299615D01*
X293886328Y-59349738D01*
X293892206Y-59401274D01*
X293892987Y-59416079D01*
X293892533Y-59467509D01*
X293887195Y-59518150D01*
X293877144Y-59567714D01*
X293862551Y-59615913D01*
X293843587Y-59662462D01*
X293820423Y-59707072D01*
X293793231Y-59749457D01*
X293762180Y-59789330D01*
X293727442Y-59826404D01*
X293689189Y-59860392D01*
X293647590Y-59891006D01*
X293602818Y-59917961D01*
X293589927Y-59924716D01*
X293542568Y-59946003D01*
X293493303Y-59962699D01*
X293441835Y-59974900D01*
X293425181Y-59977818D01*
X293404218Y-59980341D01*
X293379752Y-59981888D01*
X293353266Y-59982469D01*
X293326239Y-59982095D01*
X293300152Y-59980777D01*
X293276488Y-59978524D01*
X293263795Y-59976682D01*
X293212376Y-59965437D01*
X293162920Y-59949668D01*
X293115655Y-59929606D01*
X293070806Y-59905479D01*
X293028600Y-59877518D01*
X292989263Y-59845953D01*
X292953022Y-59811014D01*
X292920102Y-59772931D01*
X292890730Y-59731935D01*
X292865133Y-59688254D01*
X292843536Y-59642120D01*
X292826167Y-59593763D01*
X292813251Y-59543411D01*
X292807869Y-59513249D01*
X292805733Y-59495190D01*
X292804146Y-59473968D01*
X292803152Y-59451173D01*
X292802795Y-59428393D01*
X292803117Y-59407215D01*
X292804163Y-59389228D01*
X292804389Y-59386869D01*
X292812180Y-59335140D01*
X292824809Y-59284763D01*
X292842155Y-59235990D01*
X292864098Y-59189075D01*
X292890515Y-59144269D01*
X292921286Y-59101826D01*
X292956289Y-59061997D01*
X292964061Y-59054094D01*
X293001649Y-59019467D01*
X293040561Y-58989422D01*
X293081495Y-58963500D01*
X293125153Y-58941242D01*
X293155775Y-58928345D01*
X293204874Y-58911876D01*
X293254656Y-58900355D01*
X293304844Y-58893744D01*
X293355156Y-58892002D01*
X293405315Y-58895089D01*
G37*
X293405315Y-58895089D02*
X293455042Y-58902967D01*
X293504057Y-58915596D01*
X293552082Y-58932935D01*
X293598837Y-58954947D01*
X293644044Y-58981590D01*
X293672831Y-59001644D01*
X293687295Y-59013207D01*
X293703840Y-59027800D01*
X293721463Y-59044424D01*
X293739162Y-59062075D01*
X293755936Y-59079751D01*
X293770782Y-59096451D01*
X293782699Y-59111172D01*
X293783730Y-59112549D01*
X293814053Y-59157372D01*
X293839462Y-59203467D01*
X293859969Y-59250870D01*
X293875587Y-59299615D01*
X293886328Y-59349738D01*
X293892206Y-59401274D01*
X293892987Y-59416079D01*
X293892533Y-59467509D01*
X293887195Y-59518150D01*
X293877144Y-59567714D01*
X293862551Y-59615913D01*
X293843587Y-59662462D01*
X293820423Y-59707072D01*
X293793231Y-59749457D01*
X293762180Y-59789330D01*
X293727442Y-59826404D01*
X293689189Y-59860392D01*
X293647590Y-59891006D01*
X293602818Y-59917961D01*
X293589927Y-59924716D01*
X293542568Y-59946003D01*
X293493303Y-59962699D01*
X293441835Y-59974900D01*
X293425181Y-59977818D01*
X293404218Y-59980341D01*
X293379752Y-59981888D01*
X293353266Y-59982469D01*
X293326239Y-59982095D01*
X293300152Y-59980777D01*
X293276488Y-59978524D01*
X293263795Y-59976682D01*
X293212376Y-59965437D01*
X293162920Y-59949668D01*
X293115655Y-59929606D01*
X293070806Y-59905479D01*
X293028600Y-59877518D01*
X292989263Y-59845953D01*
X292953022Y-59811014D01*
X292920102Y-59772931D01*
X292890730Y-59731935D01*
X292865133Y-59688254D01*
X292843536Y-59642120D01*
X292826167Y-59593763D01*
X292813251Y-59543411D01*
X292807869Y-59513249D01*
X292805733Y-59495190D01*
X292804146Y-59473968D01*
X292803152Y-59451173D01*
X292802795Y-59428393D01*
X292803117Y-59407215D01*
X292804163Y-59389228D01*
X292804389Y-59386869D01*
X292812180Y-59335140D01*
X292824809Y-59284763D01*
X292842155Y-59235990D01*
X292864098Y-59189075D01*
X292890515Y-59144269D01*
X292921286Y-59101826D01*
X292956289Y-59061997D01*
X292964061Y-59054094D01*
X293001649Y-59019467D01*
X293040561Y-58989422D01*
X293081495Y-58963500D01*
X293125153Y-58941242D01*
X293155775Y-58928345D01*
X293204874Y-58911876D01*
X293254656Y-58900355D01*
X293304844Y-58893744D01*
X293355156Y-58892002D01*
X293405315Y-58895089D01*
G36*
X293402594Y-61156423D02*
G01*
X293423202Y-61157297D01*
X293441285Y-61158944D01*
X293458110Y-61161552D01*
X293474949Y-61165306D01*
X293493069Y-61170391D01*
X293508149Y-61175153D01*
X293550262Y-61191462D01*
X293589748Y-61211875D01*
X293626421Y-61236068D01*
X293660093Y-61263716D01*
X293690578Y-61294495D01*
X293717687Y-61328079D01*
X293741235Y-61364146D01*
X293761034Y-61402369D01*
X293776898Y-61442426D01*
X293788638Y-61483990D01*
X293796069Y-61526738D01*
X293799003Y-61570345D01*
X293797252Y-61614487D01*
X293790631Y-61658839D01*
X293789639Y-61663527D01*
X293777496Y-61707558D01*
X293760790Y-61749677D01*
X293739779Y-61789569D01*
X293714723Y-61826917D01*
X293685880Y-61861404D01*
X293653510Y-61892715D01*
X293617871Y-61920533D01*
X293579224Y-61944542D01*
X293545923Y-61960966D01*
X293504235Y-61976592D01*
X293460959Y-61987663D01*
X293416684Y-61994151D01*
X293371998Y-61996028D01*
X293327490Y-61993266D01*
X293283748Y-61985837D01*
X293246035Y-61975308D01*
X293203599Y-61958544D01*
X293163837Y-61937690D01*
X293126946Y-61913058D01*
X293093122Y-61884965D01*
X293062561Y-61853723D01*
X293035461Y-61819647D01*
X293012016Y-61783052D01*
X292992423Y-61744251D01*
X292976879Y-61703558D01*
X292965580Y-61661289D01*
X292958721Y-61617757D01*
X292956499Y-61573277D01*
X292959111Y-61528162D01*
X292960389Y-61517929D01*
X292969084Y-61472933D01*
X292982531Y-61429644D01*
X293000634Y-61388244D01*
X293023298Y-61348919D01*
X293050426Y-61311854D01*
X293081924Y-61277233D01*
X293087765Y-61271549D01*
X293123165Y-61241049D01*
X293160920Y-61215033D01*
X293201114Y-61193457D01*
X293243832Y-61176276D01*
X293289161Y-61163444D01*
X293295770Y-61161982D01*
X293305936Y-61159929D01*
X293315228Y-61158406D01*
X293324692Y-61157340D01*
X293335376Y-61156657D01*
X293348328Y-61156281D01*
X293364593Y-61156139D01*
X293378191Y-61156138D01*
X293402594Y-61156423D01*
G37*
X293402594Y-61156423D02*
X293423202Y-61157297D01*
X293441285Y-61158944D01*
X293458110Y-61161552D01*
X293474949Y-61165306D01*
X293493069Y-61170391D01*
X293508149Y-61175153D01*
X293550262Y-61191462D01*
X293589748Y-61211875D01*
X293626421Y-61236068D01*
X293660093Y-61263716D01*
X293690578Y-61294495D01*
X293717687Y-61328079D01*
X293741235Y-61364146D01*
X293761034Y-61402369D01*
X293776898Y-61442426D01*
X293788638Y-61483990D01*
X293796069Y-61526738D01*
X293799003Y-61570345D01*
X293797252Y-61614487D01*
X293790631Y-61658839D01*
X293789639Y-61663527D01*
X293777496Y-61707558D01*
X293760790Y-61749677D01*
X293739779Y-61789569D01*
X293714723Y-61826917D01*
X293685880Y-61861404D01*
X293653510Y-61892715D01*
X293617871Y-61920533D01*
X293579224Y-61944542D01*
X293545923Y-61960966D01*
X293504235Y-61976592D01*
X293460959Y-61987663D01*
X293416684Y-61994151D01*
X293371998Y-61996028D01*
X293327490Y-61993266D01*
X293283748Y-61985837D01*
X293246035Y-61975308D01*
X293203599Y-61958544D01*
X293163837Y-61937690D01*
X293126946Y-61913058D01*
X293093122Y-61884965D01*
X293062561Y-61853723D01*
X293035461Y-61819647D01*
X293012016Y-61783052D01*
X292992423Y-61744251D01*
X292976879Y-61703558D01*
X292965580Y-61661289D01*
X292958721Y-61617757D01*
X292956499Y-61573277D01*
X292959111Y-61528162D01*
X292960389Y-61517929D01*
X292969084Y-61472933D01*
X292982531Y-61429644D01*
X293000634Y-61388244D01*
X293023298Y-61348919D01*
X293050426Y-61311854D01*
X293081924Y-61277233D01*
X293087765Y-61271549D01*
X293123165Y-61241049D01*
X293160920Y-61215033D01*
X293201114Y-61193457D01*
X293243832Y-61176276D01*
X293289161Y-61163444D01*
X293295770Y-61161982D01*
X293305936Y-61159929D01*
X293315228Y-61158406D01*
X293324692Y-61157340D01*
X293335376Y-61156657D01*
X293348328Y-61156281D01*
X293364593Y-61156139D01*
X293378191Y-61156138D01*
X293402594Y-61156423D01*
G36*
X295471151Y-56617098D02*
G01*
X295495559Y-56617213D01*
X295515635Y-56617509D01*
X295532126Y-56618017D01*
X295545779Y-56618772D01*
X295557341Y-56619806D01*
X295567558Y-56621153D01*
X295569669Y-56621490D01*
X295630664Y-56633839D01*
X295688881Y-56650419D01*
X295744458Y-56671300D01*
X295797531Y-56696550D01*
X295848236Y-56726239D01*
X295896709Y-56760436D01*
X295943086Y-56799210D01*
X295970500Y-56825234D01*
X296011774Y-56869787D01*
X296048953Y-56917230D01*
X296081914Y-56967320D01*
X296110533Y-57019815D01*
X296134687Y-57074475D01*
X296154253Y-57131056D01*
X296169108Y-57189317D01*
X296176358Y-57229139D01*
X296177997Y-57243143D01*
X296179313Y-57261044D01*
X296180301Y-57281833D01*
X296180952Y-57304500D01*
X296181261Y-57328037D01*
X296181221Y-57351435D01*
X296180826Y-57373683D01*
X296180067Y-57393774D01*
X296178940Y-57410697D01*
X296177635Y-57422179D01*
X296165998Y-57483046D01*
X296149797Y-57541863D01*
X296129133Y-57598464D01*
X296104108Y-57652681D01*
X296074823Y-57704351D01*
X296041377Y-57753306D01*
X296003872Y-57799381D01*
X295962409Y-57842410D01*
X295917089Y-57882227D01*
X295881361Y-57909361D01*
X295865453Y-57920837D01*
X295852699Y-57930442D01*
X295842026Y-57939122D01*
X295832358Y-57947823D01*
X295822622Y-57957489D01*
X295811745Y-57969066D01*
X295804451Y-57977072D01*
X295767464Y-58020991D01*
X295735384Y-58065705D01*
X295708059Y-58111563D01*
X295685335Y-58158910D01*
X295667060Y-58208093D01*
X295653082Y-58259460D01*
X295643246Y-58313357D01*
X295638701Y-58353264D01*
X295637600Y-58368180D01*
X295637187Y-58381347D01*
X295637495Y-58394545D01*
X295638554Y-58409555D01*
X295639964Y-58424066D01*
X295648138Y-58480373D01*
X295660683Y-58534194D01*
X295677679Y-58585693D01*
X295699201Y-58635036D01*
X295725329Y-58682388D01*
X295756140Y-58727916D01*
X295791711Y-58771785D01*
X295815144Y-58797143D01*
X295831531Y-58813253D01*
X295847598Y-58827505D01*
X295862185Y-58838880D01*
X295865465Y-58841157D01*
X295905588Y-58870588D01*
X295944958Y-58904128D01*
X295982594Y-58940811D01*
X296017512Y-58979672D01*
X296048730Y-59019744D01*
X296052414Y-59024919D01*
X296060856Y-59035398D01*
X296072848Y-59048118D01*
X296087728Y-59062472D01*
X296104837Y-59077855D01*
X296123515Y-59093662D01*
X296143102Y-59109287D01*
X296150601Y-59115016D01*
X296200301Y-59149762D01*
X296251019Y-59179686D01*
X296303083Y-59204913D01*
X296356824Y-59225565D01*
X296412569Y-59241766D01*
X296470649Y-59253639D01*
X296531391Y-59261308D01*
X296543846Y-59262344D01*
X296586263Y-59263617D01*
X296631221Y-59261305D01*
X296677839Y-59255574D01*
X296725233Y-59246591D01*
X296772520Y-59234522D01*
X296818817Y-59219533D01*
X296861553Y-59202533D01*
X296894249Y-59186913D01*
X296927677Y-59168521D01*
X296961074Y-59147913D01*
X296993675Y-59125648D01*
X297024718Y-59102283D01*
X297053438Y-59078375D01*
X297079072Y-59054483D01*
X297100856Y-59031163D01*
X297107878Y-59022677D01*
X297129402Y-58997116D01*
X297153053Y-58971606D01*
X297177245Y-58947803D01*
X297194349Y-58932445D01*
X297241064Y-58895459D01*
X297289367Y-58863272D01*
X297339428Y-58835805D01*
X297391416Y-58812980D01*
X297445502Y-58794717D01*
X297501853Y-58780938D01*
X297531607Y-58775598D01*
X297548598Y-58773553D01*
X297569451Y-58772067D01*
X297592976Y-58771139D01*
X297617987Y-58770768D01*
X297643295Y-58770954D01*
X297667712Y-58771696D01*
X297690050Y-58772994D01*
X297709122Y-58774847D01*
X297715241Y-58775692D01*
X297773067Y-58787084D01*
X297829223Y-58803256D01*
X297883541Y-58824135D01*
X297935858Y-58849649D01*
X297986008Y-58879727D01*
X298033825Y-58914296D01*
X298034756Y-58915032D01*
X298053659Y-58930939D01*
X298074153Y-58949794D01*
X298094982Y-58970340D01*
X298114888Y-58991318D01*
X298132612Y-59011471D01*
X298139051Y-59019321D01*
X298159504Y-59042416D01*
X298184274Y-59066165D01*
X298212723Y-59090088D01*
X298244214Y-59113708D01*
X298278111Y-59136545D01*
X298313777Y-59158122D01*
X298349031Y-59177174D01*
X298396525Y-59199540D01*
X298444275Y-59218291D01*
X298493077Y-59233641D01*
X298543729Y-59245804D01*
X298597027Y-59254993D01*
X298653770Y-59261423D01*
X298667306Y-59262528D01*
X298690139Y-59263859D01*
X298710744Y-59264068D01*
X298731847Y-59263154D01*
X298740966Y-59262479D01*
X298796490Y-59256688D01*
X298848324Y-59248500D01*
X298897374Y-59237685D01*
X298944546Y-59224014D01*
X298990744Y-59207257D01*
X299036437Y-59187387D01*
X299060939Y-59175170D01*
X299086193Y-59161263D01*
X299111560Y-59146115D01*
X299136401Y-59130172D01*
X299160077Y-59113880D01*
X299181947Y-59097686D01*
X299201373Y-59082038D01*
X299217715Y-59067381D01*
X299230332Y-59054163D01*
X299234428Y-59049067D01*
X299242602Y-59039041D01*
X299253857Y-59026481D01*
X299267413Y-59012155D01*
X299282488Y-58996831D01*
X299298304Y-58981275D01*
X299314079Y-58966255D01*
X299329032Y-58952538D01*
X299342384Y-58940892D01*
X299353353Y-58932084D01*
X299353643Y-58931867D01*
X299401321Y-58899301D01*
X299450615Y-58871411D01*
X299501317Y-58848241D01*
X299553219Y-58829836D01*
X299606110Y-58816241D01*
X299659783Y-58807502D01*
X299714028Y-58803662D01*
X299768637Y-58804768D01*
X299823400Y-58810863D01*
X299871701Y-58820425D01*
X299924966Y-58835721D01*
X299976284Y-58855541D01*
X300025420Y-58879636D01*
X300072142Y-58907756D01*
X300116216Y-58939652D01*
X300157408Y-58975075D01*
X300195484Y-59013776D01*
X300230210Y-59055505D01*
X300261353Y-59100014D01*
X300288679Y-59147053D01*
X300311955Y-59196373D01*
X300330946Y-59247725D01*
X300345419Y-59300859D01*
X300351599Y-59332090D01*
X300358267Y-59385949D01*
X300359975Y-59439943D01*
X300356826Y-59493752D01*
X300348919Y-59547058D01*
X300336356Y-59599543D01*
X300319237Y-59650886D01*
X300297664Y-59700771D01*
X300271736Y-59748878D01*
X300241556Y-59794888D01*
X300207223Y-59838483D01*
X300182958Y-59865134D01*
X300140760Y-59905506D01*
X300096313Y-59941323D01*
X300049592Y-59972599D01*
X300000572Y-59999346D01*
X299949229Y-60021578D01*
X299895539Y-60039308D01*
X299839475Y-60052548D01*
X299816576Y-60056558D01*
X299799165Y-60058649D01*
X299777963Y-60060134D01*
X299754225Y-60061016D01*
X299729205Y-60061294D01*
X299704156Y-60060970D01*
X299680332Y-60060044D01*
X299658988Y-60058517D01*
X299641831Y-60056461D01*
X299585911Y-60045232D01*
X299531786Y-60029276D01*
X299479596Y-60008673D01*
X299429482Y-59983498D01*
X299381585Y-59953828D01*
X299336045Y-59919742D01*
X299293003Y-59881316D01*
X299259473Y-59846403D01*
X299228226Y-59814554D01*
X299192590Y-59783559D01*
X299153237Y-59753822D01*
X299110839Y-59725748D01*
X299066068Y-59699744D01*
X299019596Y-59676215D01*
X298972094Y-59655566D01*
X298924234Y-59638203D01*
X298904302Y-59632022D01*
X298865966Y-59621761D01*
X298828902Y-59614055D01*
X298791683Y-59608708D01*
X298752877Y-59605528D01*
X298711057Y-59604317D01*
X298700761Y-59604298D01*
X298667790Y-59604817D01*
X298638377Y-59606299D01*
X298611065Y-59608902D01*
X298584396Y-59612788D01*
X298556914Y-59618117D01*
X298539693Y-59622011D01*
X298480415Y-59638603D01*
X298422008Y-59660148D01*
X298364635Y-59686568D01*
X298308458Y-59717783D01*
X298253640Y-59753717D01*
X298231479Y-59769882D01*
X298203474Y-59791593D01*
X298178334Y-59812432D01*
X298156591Y-59831938D01*
X298138776Y-59849652D01*
X298136881Y-59851685D01*
X298100227Y-59889937D01*
X298064775Y-59923810D01*
X298029972Y-59953688D01*
X297995261Y-59979958D01*
X297960087Y-60003005D01*
X297923893Y-60023216D01*
X297886123Y-60040975D01*
X297846223Y-60056668D01*
X297836602Y-60060055D01*
X297800993Y-60071465D01*
X297767344Y-60080297D01*
X297734167Y-60086812D01*
X297699977Y-60091271D01*
X297663289Y-60093936D01*
X297639041Y-60094791D01*
X297597907Y-60094906D01*
X297560065Y-60093093D01*
X297524036Y-60089169D01*
X297488341Y-60082947D01*
X297451501Y-60074244D01*
X297432636Y-60069032D01*
X297381383Y-60051794D01*
X297331283Y-60030049D01*
X297282846Y-60004149D01*
X297236585Y-59974445D01*
X297193012Y-59941287D01*
X297152639Y-59905025D01*
X297115978Y-59866012D01*
X297091242Y-59835179D01*
X297081483Y-59823034D01*
X297070118Y-59810769D01*
X297056567Y-59797851D01*
X297040250Y-59783747D01*
X297020586Y-59767925D01*
X297004041Y-59755179D01*
X296952970Y-59719169D01*
X296900992Y-59688093D01*
X296847871Y-59661849D01*
X296793373Y-59640336D01*
X296737262Y-59623452D01*
X296679303Y-59611096D01*
X296664951Y-59608771D01*
X296649554Y-59606978D01*
X296630480Y-59605613D01*
X296608937Y-59604685D01*
X296586136Y-59604206D01*
X296563286Y-59604186D01*
X296541596Y-59604636D01*
X296522275Y-59605566D01*
X296506533Y-59606987D01*
X296503661Y-59607368D01*
X296444249Y-59618282D01*
X296386568Y-59633830D01*
X296330475Y-59654075D01*
X296275828Y-59679082D01*
X296222484Y-59708913D01*
X296170302Y-59743631D01*
X296132821Y-59772129D01*
X296112620Y-59789024D01*
X296091781Y-59807730D01*
X296071319Y-59827258D01*
X296052247Y-59846617D01*
X296035580Y-59864818D01*
X296025287Y-59877089D01*
X296012075Y-59892758D01*
X295995921Y-59910497D01*
X295977880Y-59929254D01*
X295959004Y-59947977D01*
X295940348Y-59965617D01*
X295922966Y-59981122D01*
X295911120Y-59990940D01*
X295862525Y-60026346D01*
X295811724Y-60057397D01*
X295759009Y-60084010D01*
X295704669Y-60106106D01*
X295648995Y-60123601D01*
X295592277Y-60136415D01*
X295534806Y-60144467D01*
X295476871Y-60147675D01*
X295418765Y-60145958D01*
X295374548Y-60141292D01*
X295315738Y-60130585D01*
X295258350Y-60115053D01*
X295202597Y-60094806D01*
X295148692Y-60069952D01*
X295096848Y-60040602D01*
X295047278Y-60006864D01*
X295000196Y-59968847D01*
X294955814Y-59926662D01*
X294955436Y-59926273D01*
X294916754Y-59882904D01*
X294881634Y-59836388D01*
X294850300Y-59787178D01*
X294822977Y-59735730D01*
X294799890Y-59682500D01*
X294781264Y-59627942D01*
X294767323Y-59572512D01*
X294760040Y-59530379D01*
X294754657Y-59473411D01*
X294754099Y-59415728D01*
X294758267Y-59357863D01*
X294767061Y-59300350D01*
X294780381Y-59243721D01*
X294798129Y-59188510D01*
X294820205Y-59135249D01*
X294841540Y-59093273D01*
X294869318Y-59047315D01*
X294900577Y-59003130D01*
X294934729Y-58961395D01*
X294971187Y-58922787D01*
X295009362Y-58887984D01*
X295041591Y-58862720D01*
X295072024Y-58838452D01*
X295102617Y-58809990D01*
X295132690Y-58778146D01*
X295161559Y-58743737D01*
X295188542Y-58707576D01*
X295212955Y-58670479D01*
X295234118Y-58633259D01*
X295234519Y-58632489D01*
X295257294Y-58583575D01*
X295275037Y-58534263D01*
X295287771Y-58484670D01*
X295295516Y-58434912D01*
X295298297Y-58385106D01*
X295296133Y-58335368D01*
X295289048Y-58285815D01*
X295277064Y-58236564D01*
X295260203Y-58187731D01*
X295238486Y-58139432D01*
X295211936Y-58091785D01*
X295180575Y-58044906D01*
X295144425Y-57998911D01*
X295106661Y-57957172D01*
X295094536Y-57945030D01*
X295081478Y-57932681D01*
X295068741Y-57921264D01*
X295057579Y-57911920D01*
X295053201Y-57908545D01*
X295018444Y-57881456D01*
X294986587Y-57853632D01*
X294955565Y-57823270D01*
X294955436Y-57823136D01*
X294915713Y-57778668D01*
X294880062Y-57731452D01*
X294848595Y-57681783D01*
X294821423Y-57629960D01*
X294798657Y-57576280D01*
X294780409Y-57521040D01*
X294766790Y-57464539D01*
X294757912Y-57407074D01*
X294753887Y-57348941D01*
X294754826Y-57290440D01*
X294754962Y-57288193D01*
X294761119Y-57229282D01*
X294772046Y-57171693D01*
X294787551Y-57115654D01*
X294807443Y-57061392D01*
X294831531Y-57009134D01*
X294859624Y-56959107D01*
X294891532Y-56911539D01*
X294927062Y-56866656D01*
X294966024Y-56824685D01*
X295008227Y-56785854D01*
X295053480Y-56750389D01*
X295101592Y-56718517D01*
X295152371Y-56690467D01*
X295205627Y-56666464D01*
X295261169Y-56646736D01*
X295304781Y-56634744D01*
X295326168Y-56629735D01*
X295344949Y-56625749D01*
X295362173Y-56622675D01*
X295378884Y-56620401D01*
X295396128Y-56618818D01*
X295414952Y-56617813D01*
X295436403Y-56617277D01*
X295461524Y-56617097D01*
X295471151Y-56617098D01*
G37*
X295471151Y-56617098D02*
X295495559Y-56617213D01*
X295515635Y-56617509D01*
X295532126Y-56618017D01*
X295545779Y-56618772D01*
X295557341Y-56619806D01*
X295567558Y-56621153D01*
X295569669Y-56621490D01*
X295630664Y-56633839D01*
X295688881Y-56650419D01*
X295744458Y-56671300D01*
X295797531Y-56696550D01*
X295848236Y-56726239D01*
X295896709Y-56760436D01*
X295943086Y-56799210D01*
X295970500Y-56825234D01*
X296011774Y-56869787D01*
X296048953Y-56917230D01*
X296081914Y-56967320D01*
X296110533Y-57019815D01*
X296134687Y-57074475D01*
X296154253Y-57131056D01*
X296169108Y-57189317D01*
X296176358Y-57229139D01*
X296177997Y-57243143D01*
X296179313Y-57261044D01*
X296180301Y-57281833D01*
X296180952Y-57304500D01*
X296181261Y-57328037D01*
X296181221Y-57351435D01*
X296180826Y-57373683D01*
X296180067Y-57393774D01*
X296178940Y-57410697D01*
X296177635Y-57422179D01*
X296165998Y-57483046D01*
X296149797Y-57541863D01*
X296129133Y-57598464D01*
X296104108Y-57652681D01*
X296074823Y-57704351D01*
X296041377Y-57753306D01*
X296003872Y-57799381D01*
X295962409Y-57842410D01*
X295917089Y-57882227D01*
X295881361Y-57909361D01*
X295865453Y-57920837D01*
X295852699Y-57930442D01*
X295842026Y-57939122D01*
X295832358Y-57947823D01*
X295822622Y-57957489D01*
X295811745Y-57969066D01*
X295804451Y-57977072D01*
X295767464Y-58020991D01*
X295735384Y-58065705D01*
X295708059Y-58111563D01*
X295685335Y-58158910D01*
X295667060Y-58208093D01*
X295653082Y-58259460D01*
X295643246Y-58313357D01*
X295638701Y-58353264D01*
X295637600Y-58368180D01*
X295637187Y-58381347D01*
X295637495Y-58394545D01*
X295638554Y-58409555D01*
X295639964Y-58424066D01*
X295648138Y-58480373D01*
X295660683Y-58534194D01*
X295677679Y-58585693D01*
X295699201Y-58635036D01*
X295725329Y-58682388D01*
X295756140Y-58727916D01*
X295791711Y-58771785D01*
X295815144Y-58797143D01*
X295831531Y-58813253D01*
X295847598Y-58827505D01*
X295862185Y-58838880D01*
X295865465Y-58841157D01*
X295905588Y-58870588D01*
X295944958Y-58904128D01*
X295982594Y-58940811D01*
X296017512Y-58979672D01*
X296048730Y-59019744D01*
X296052414Y-59024919D01*
X296060856Y-59035398D01*
X296072848Y-59048118D01*
X296087728Y-59062472D01*
X296104837Y-59077855D01*
X296123515Y-59093662D01*
X296143102Y-59109287D01*
X296150601Y-59115016D01*
X296200301Y-59149762D01*
X296251019Y-59179686D01*
X296303083Y-59204913D01*
X296356824Y-59225565D01*
X296412569Y-59241766D01*
X296470649Y-59253639D01*
X296531391Y-59261308D01*
X296543846Y-59262344D01*
X296586263Y-59263617D01*
X296631221Y-59261305D01*
X296677839Y-59255574D01*
X296725233Y-59246591D01*
X296772520Y-59234522D01*
X296818817Y-59219533D01*
X296861553Y-59202533D01*
X296894249Y-59186913D01*
X296927677Y-59168521D01*
X296961074Y-59147913D01*
X296993675Y-59125648D01*
X297024718Y-59102283D01*
X297053438Y-59078375D01*
X297079072Y-59054483D01*
X297100856Y-59031163D01*
X297107878Y-59022677D01*
X297129402Y-58997116D01*
X297153053Y-58971606D01*
X297177245Y-58947803D01*
X297194349Y-58932445D01*
X297241064Y-58895459D01*
X297289367Y-58863272D01*
X297339428Y-58835805D01*
X297391416Y-58812980D01*
X297445502Y-58794717D01*
X297501853Y-58780938D01*
X297531607Y-58775598D01*
X297548598Y-58773553D01*
X297569451Y-58772067D01*
X297592976Y-58771139D01*
X297617987Y-58770768D01*
X297643295Y-58770954D01*
X297667712Y-58771696D01*
X297690050Y-58772994D01*
X297709122Y-58774847D01*
X297715241Y-58775692D01*
X297773067Y-58787084D01*
X297829223Y-58803256D01*
X297883541Y-58824135D01*
X297935858Y-58849649D01*
X297986008Y-58879727D01*
X298033825Y-58914296D01*
X298034756Y-58915032D01*
X298053659Y-58930939D01*
X298074153Y-58949794D01*
X298094982Y-58970340D01*
X298114888Y-58991318D01*
X298132612Y-59011471D01*
X298139051Y-59019321D01*
X298159504Y-59042416D01*
X298184274Y-59066165D01*
X298212723Y-59090088D01*
X298244214Y-59113708D01*
X298278111Y-59136545D01*
X298313777Y-59158122D01*
X298349031Y-59177174D01*
X298396525Y-59199540D01*
X298444275Y-59218291D01*
X298493077Y-59233641D01*
X298543729Y-59245804D01*
X298597027Y-59254993D01*
X298653770Y-59261423D01*
X298667306Y-59262528D01*
X298690139Y-59263859D01*
X298710744Y-59264068D01*
X298731847Y-59263154D01*
X298740966Y-59262479D01*
X298796490Y-59256688D01*
X298848324Y-59248500D01*
X298897374Y-59237685D01*
X298944546Y-59224014D01*
X298990744Y-59207257D01*
X299036437Y-59187387D01*
X299060939Y-59175170D01*
X299086193Y-59161263D01*
X299111560Y-59146115D01*
X299136401Y-59130172D01*
X299160077Y-59113880D01*
X299181947Y-59097686D01*
X299201373Y-59082038D01*
X299217715Y-59067381D01*
X299230332Y-59054163D01*
X299234428Y-59049067D01*
X299242602Y-59039041D01*
X299253857Y-59026481D01*
X299267413Y-59012155D01*
X299282488Y-58996831D01*
X299298304Y-58981275D01*
X299314079Y-58966255D01*
X299329032Y-58952538D01*
X299342384Y-58940892D01*
X299353353Y-58932084D01*
X299353643Y-58931867D01*
X299401321Y-58899301D01*
X299450615Y-58871411D01*
X299501317Y-58848241D01*
X299553219Y-58829836D01*
X299606110Y-58816241D01*
X299659783Y-58807502D01*
X299714028Y-58803662D01*
X299768637Y-58804768D01*
X299823400Y-58810863D01*
X299871701Y-58820425D01*
X299924966Y-58835721D01*
X299976284Y-58855541D01*
X300025420Y-58879636D01*
X300072142Y-58907756D01*
X300116216Y-58939652D01*
X300157408Y-58975075D01*
X300195484Y-59013776D01*
X300230210Y-59055505D01*
X300261353Y-59100014D01*
X300288679Y-59147053D01*
X300311955Y-59196373D01*
X300330946Y-59247725D01*
X300345419Y-59300859D01*
X300351599Y-59332090D01*
X300358267Y-59385949D01*
X300359975Y-59439943D01*
X300356826Y-59493752D01*
X300348919Y-59547058D01*
X300336356Y-59599543D01*
X300319237Y-59650886D01*
X300297664Y-59700771D01*
X300271736Y-59748878D01*
X300241556Y-59794888D01*
X300207223Y-59838483D01*
X300182958Y-59865134D01*
X300140760Y-59905506D01*
X300096313Y-59941323D01*
X300049592Y-59972599D01*
X300000572Y-59999346D01*
X299949229Y-60021578D01*
X299895539Y-60039308D01*
X299839475Y-60052548D01*
X299816576Y-60056558D01*
X299799165Y-60058649D01*
X299777963Y-60060134D01*
X299754225Y-60061016D01*
X299729205Y-60061294D01*
X299704156Y-60060970D01*
X299680332Y-60060044D01*
X299658988Y-60058517D01*
X299641831Y-60056461D01*
X299585911Y-60045232D01*
X299531786Y-60029276D01*
X299479596Y-60008673D01*
X299429482Y-59983498D01*
X299381585Y-59953828D01*
X299336045Y-59919742D01*
X299293003Y-59881316D01*
X299259473Y-59846403D01*
X299228226Y-59814554D01*
X299192590Y-59783559D01*
X299153237Y-59753822D01*
X299110839Y-59725748D01*
X299066068Y-59699744D01*
X299019596Y-59676215D01*
X298972094Y-59655566D01*
X298924234Y-59638203D01*
X298904302Y-59632022D01*
X298865966Y-59621761D01*
X298828902Y-59614055D01*
X298791683Y-59608708D01*
X298752877Y-59605528D01*
X298711057Y-59604317D01*
X298700761Y-59604298D01*
X298667790Y-59604817D01*
X298638377Y-59606299D01*
X298611065Y-59608902D01*
X298584396Y-59612788D01*
X298556914Y-59618117D01*
X298539693Y-59622011D01*
X298480415Y-59638603D01*
X298422008Y-59660148D01*
X298364635Y-59686568D01*
X298308458Y-59717783D01*
X298253640Y-59753717D01*
X298231479Y-59769882D01*
X298203474Y-59791593D01*
X298178334Y-59812432D01*
X298156591Y-59831938D01*
X298138776Y-59849652D01*
X298136881Y-59851685D01*
X298100227Y-59889937D01*
X298064775Y-59923810D01*
X298029972Y-59953688D01*
X297995261Y-59979958D01*
X297960087Y-60003005D01*
X297923893Y-60023216D01*
X297886123Y-60040975D01*
X297846223Y-60056668D01*
X297836602Y-60060055D01*
X297800993Y-60071465D01*
X297767344Y-60080297D01*
X297734167Y-60086812D01*
X297699977Y-60091271D01*
X297663289Y-60093936D01*
X297639041Y-60094791D01*
X297597907Y-60094906D01*
X297560065Y-60093093D01*
X297524036Y-60089169D01*
X297488341Y-60082947D01*
X297451501Y-60074244D01*
X297432636Y-60069032D01*
X297381383Y-60051794D01*
X297331283Y-60030049D01*
X297282846Y-60004149D01*
X297236585Y-59974445D01*
X297193012Y-59941287D01*
X297152639Y-59905025D01*
X297115978Y-59866012D01*
X297091242Y-59835179D01*
X297081483Y-59823034D01*
X297070118Y-59810769D01*
X297056567Y-59797851D01*
X297040250Y-59783747D01*
X297020586Y-59767925D01*
X297004041Y-59755179D01*
X296952970Y-59719169D01*
X296900992Y-59688093D01*
X296847871Y-59661849D01*
X296793373Y-59640336D01*
X296737262Y-59623452D01*
X296679303Y-59611096D01*
X296664951Y-59608771D01*
X296649554Y-59606978D01*
X296630480Y-59605613D01*
X296608937Y-59604685D01*
X296586136Y-59604206D01*
X296563286Y-59604186D01*
X296541596Y-59604636D01*
X296522275Y-59605566D01*
X296506533Y-59606987D01*
X296503661Y-59607368D01*
X296444249Y-59618282D01*
X296386568Y-59633830D01*
X296330475Y-59654075D01*
X296275828Y-59679082D01*
X296222484Y-59708913D01*
X296170302Y-59743631D01*
X296132821Y-59772129D01*
X296112620Y-59789024D01*
X296091781Y-59807730D01*
X296071319Y-59827258D01*
X296052247Y-59846617D01*
X296035580Y-59864818D01*
X296025287Y-59877089D01*
X296012075Y-59892758D01*
X295995921Y-59910497D01*
X295977880Y-59929254D01*
X295959004Y-59947977D01*
X295940348Y-59965617D01*
X295922966Y-59981122D01*
X295911120Y-59990940D01*
X295862525Y-60026346D01*
X295811724Y-60057397D01*
X295759009Y-60084010D01*
X295704669Y-60106106D01*
X295648995Y-60123601D01*
X295592277Y-60136415D01*
X295534806Y-60144467D01*
X295476871Y-60147675D01*
X295418765Y-60145958D01*
X295374548Y-60141292D01*
X295315738Y-60130585D01*
X295258350Y-60115053D01*
X295202597Y-60094806D01*
X295148692Y-60069952D01*
X295096848Y-60040602D01*
X295047278Y-60006864D01*
X295000196Y-59968847D01*
X294955814Y-59926662D01*
X294955436Y-59926273D01*
X294916754Y-59882904D01*
X294881634Y-59836388D01*
X294850300Y-59787178D01*
X294822977Y-59735730D01*
X294799890Y-59682500D01*
X294781264Y-59627942D01*
X294767323Y-59572512D01*
X294760040Y-59530379D01*
X294754657Y-59473411D01*
X294754099Y-59415728D01*
X294758267Y-59357863D01*
X294767061Y-59300350D01*
X294780381Y-59243721D01*
X294798129Y-59188510D01*
X294820205Y-59135249D01*
X294841540Y-59093273D01*
X294869318Y-59047315D01*
X294900577Y-59003130D01*
X294934729Y-58961395D01*
X294971187Y-58922787D01*
X295009362Y-58887984D01*
X295041591Y-58862720D01*
X295072024Y-58838452D01*
X295102617Y-58809990D01*
X295132690Y-58778146D01*
X295161559Y-58743737D01*
X295188542Y-58707576D01*
X295212955Y-58670479D01*
X295234118Y-58633259D01*
X295234519Y-58632489D01*
X295257294Y-58583575D01*
X295275037Y-58534263D01*
X295287771Y-58484670D01*
X295295516Y-58434912D01*
X295298297Y-58385106D01*
X295296133Y-58335368D01*
X295289048Y-58285815D01*
X295277064Y-58236564D01*
X295260203Y-58187731D01*
X295238486Y-58139432D01*
X295211936Y-58091785D01*
X295180575Y-58044906D01*
X295144425Y-57998911D01*
X295106661Y-57957172D01*
X295094536Y-57945030D01*
X295081478Y-57932681D01*
X295068741Y-57921264D01*
X295057579Y-57911920D01*
X295053201Y-57908545D01*
X295018444Y-57881456D01*
X294986587Y-57853632D01*
X294955565Y-57823270D01*
X294955436Y-57823136D01*
X294915713Y-57778668D01*
X294880062Y-57731452D01*
X294848595Y-57681783D01*
X294821423Y-57629960D01*
X294798657Y-57576280D01*
X294780409Y-57521040D01*
X294766790Y-57464539D01*
X294757912Y-57407074D01*
X294753887Y-57348941D01*
X294754826Y-57290440D01*
X294754962Y-57288193D01*
X294761119Y-57229282D01*
X294772046Y-57171693D01*
X294787551Y-57115654D01*
X294807443Y-57061392D01*
X294831531Y-57009134D01*
X294859624Y-56959107D01*
X294891532Y-56911539D01*
X294927062Y-56866656D01*
X294966024Y-56824685D01*
X295008227Y-56785854D01*
X295053480Y-56750389D01*
X295101592Y-56718517D01*
X295152371Y-56690467D01*
X295205627Y-56666464D01*
X295261169Y-56646736D01*
X295304781Y-56634744D01*
X295326168Y-56629735D01*
X295344949Y-56625749D01*
X295362173Y-56622675D01*
X295378884Y-56620401D01*
X295396128Y-56618818D01*
X295414952Y-56617813D01*
X295436403Y-56617277D01*
X295461524Y-56617097D01*
X295471151Y-56617098D01*
G36*
X295496424Y-54560102D02*
G01*
X295519853Y-54560739D01*
X295541588Y-54561899D01*
X295560282Y-54563570D01*
X295566401Y-54564351D01*
X295622317Y-54574778D01*
X295676444Y-54589840D01*
X295728558Y-54609341D01*
X295778434Y-54633081D01*
X295825850Y-54660865D01*
X295870581Y-54692494D01*
X295912404Y-54727770D01*
X295951093Y-54766497D01*
X295986426Y-54808477D01*
X296018178Y-54853512D01*
X296046125Y-54901404D01*
X296070044Y-54951957D01*
X296089710Y-55004972D01*
X296098143Y-55033309D01*
X296109107Y-55082395D01*
X296115879Y-55133505D01*
X296118454Y-55185784D01*
X296116826Y-55238383D01*
X296110992Y-55290447D01*
X296100947Y-55341126D01*
X296099796Y-55345752D01*
X296083900Y-55398246D01*
X296063364Y-55449110D01*
X296038454Y-55498034D01*
X296009433Y-55544707D01*
X295976568Y-55588822D01*
X295940123Y-55630066D01*
X295900365Y-55668131D01*
X295857557Y-55702708D01*
X295811965Y-55733485D01*
X295763854Y-55760154D01*
X295732732Y-55774552D01*
X295680789Y-55794364D01*
X295628775Y-55809222D01*
X295576139Y-55819231D01*
X295522332Y-55824494D01*
X295466803Y-55825116D01*
X295465146Y-55825065D01*
X295408687Y-55820802D01*
X295353635Y-55811680D01*
X295300121Y-55797757D01*
X295248277Y-55779090D01*
X295198237Y-55755738D01*
X295150131Y-55727758D01*
X295104093Y-55695210D01*
X295060255Y-55658151D01*
X295039218Y-55637963D01*
X294999891Y-55595230D01*
X294965111Y-55550241D01*
X294934890Y-55503019D01*
X294909241Y-55453590D01*
X294888175Y-55401977D01*
X294871704Y-55348205D01*
X294859843Y-55292298D01*
X294857849Y-55279689D01*
X294856430Y-55267659D01*
X294855143Y-55252145D01*
X294854037Y-55234377D01*
X294853161Y-55215585D01*
X294852563Y-55196999D01*
X294852292Y-55179848D01*
X294852399Y-55165363D01*
X294852890Y-55155229D01*
X294858493Y-55106049D01*
X294866633Y-55060371D01*
X294877605Y-55017138D01*
X294891701Y-54975297D01*
X294909213Y-54933790D01*
X294921133Y-54909294D01*
X294949207Y-54859638D01*
X294981152Y-54813135D01*
X295016730Y-54769955D01*
X295055701Y-54730264D01*
X295097827Y-54694232D01*
X295142869Y-54662026D01*
X295190587Y-54633815D01*
X295240744Y-54609768D01*
X295293099Y-54590052D01*
X295347414Y-54574836D01*
X295403451Y-54564288D01*
X295412731Y-54563023D01*
X295429455Y-54561449D01*
X295449877Y-54560446D01*
X295472649Y-54560000D01*
X295496424Y-54560102D01*
G37*
X295496424Y-54560102D02*
X295519853Y-54560739D01*
X295541588Y-54561899D01*
X295560282Y-54563570D01*
X295566401Y-54564351D01*
X295622317Y-54574778D01*
X295676444Y-54589840D01*
X295728558Y-54609341D01*
X295778434Y-54633081D01*
X295825850Y-54660865D01*
X295870581Y-54692494D01*
X295912404Y-54727770D01*
X295951093Y-54766497D01*
X295986426Y-54808477D01*
X296018178Y-54853512D01*
X296046125Y-54901404D01*
X296070044Y-54951957D01*
X296089710Y-55004972D01*
X296098143Y-55033309D01*
X296109107Y-55082395D01*
X296115879Y-55133505D01*
X296118454Y-55185784D01*
X296116826Y-55238383D01*
X296110992Y-55290447D01*
X296100947Y-55341126D01*
X296099796Y-55345752D01*
X296083900Y-55398246D01*
X296063364Y-55449110D01*
X296038454Y-55498034D01*
X296009433Y-55544707D01*
X295976568Y-55588822D01*
X295940123Y-55630066D01*
X295900365Y-55668131D01*
X295857557Y-55702708D01*
X295811965Y-55733485D01*
X295763854Y-55760154D01*
X295732732Y-55774552D01*
X295680789Y-55794364D01*
X295628775Y-55809222D01*
X295576139Y-55819231D01*
X295522332Y-55824494D01*
X295466803Y-55825116D01*
X295465146Y-55825065D01*
X295408687Y-55820802D01*
X295353635Y-55811680D01*
X295300121Y-55797757D01*
X295248277Y-55779090D01*
X295198237Y-55755738D01*
X295150131Y-55727758D01*
X295104093Y-55695210D01*
X295060255Y-55658151D01*
X295039218Y-55637963D01*
X294999891Y-55595230D01*
X294965111Y-55550241D01*
X294934890Y-55503019D01*
X294909241Y-55453590D01*
X294888175Y-55401977D01*
X294871704Y-55348205D01*
X294859843Y-55292298D01*
X294857849Y-55279689D01*
X294856430Y-55267659D01*
X294855143Y-55252145D01*
X294854037Y-55234377D01*
X294853161Y-55215585D01*
X294852563Y-55196999D01*
X294852292Y-55179848D01*
X294852399Y-55165363D01*
X294852890Y-55155229D01*
X294858493Y-55106049D01*
X294866633Y-55060371D01*
X294877605Y-55017138D01*
X294891701Y-54975297D01*
X294909213Y-54933790D01*
X294921133Y-54909294D01*
X294949207Y-54859638D01*
X294981152Y-54813135D01*
X295016730Y-54769955D01*
X295055701Y-54730264D01*
X295097827Y-54694232D01*
X295142869Y-54662026D01*
X295190587Y-54633815D01*
X295240744Y-54609768D01*
X295293099Y-54590052D01*
X295347414Y-54574836D01*
X295403451Y-54564288D01*
X295412731Y-54563023D01*
X295429455Y-54561449D01*
X295449877Y-54560446D01*
X295472649Y-54560000D01*
X295496424Y-54560102D01*
G36*
X295521677Y-52619496D02*
G01*
X295568107Y-52625777D01*
X295614322Y-52636882D01*
X295627721Y-52641043D01*
X295670978Y-52657778D01*
X295711583Y-52678722D01*
X295749323Y-52703630D01*
X295783988Y-52732256D01*
X295815365Y-52764354D01*
X295843243Y-52799679D01*
X295867411Y-52837985D01*
X295887656Y-52879026D01*
X295903767Y-52922557D01*
X295915533Y-52968332D01*
X295917244Y-52977179D01*
X295918999Y-52988121D01*
X295920273Y-52999678D01*
X295921125Y-53012864D01*
X295921611Y-53028692D01*
X295921790Y-53048177D01*
X295921789Y-53057189D01*
X295921692Y-53076153D01*
X295921435Y-53091134D01*
X295920931Y-53103228D01*
X295920093Y-53113531D01*
X295918834Y-53123139D01*
X295917068Y-53133149D01*
X295914942Y-53143549D01*
X295907678Y-53174139D01*
X295899330Y-53201654D01*
X295889216Y-53228081D01*
X295876650Y-53255408D01*
X295876072Y-53256579D01*
X295853420Y-53296695D01*
X295826831Y-53333790D01*
X295796608Y-53367616D01*
X295763056Y-53397929D01*
X295726480Y-53424483D01*
X295687183Y-53447032D01*
X295645471Y-53465331D01*
X295601649Y-53479134D01*
X295599399Y-53479704D01*
X295579197Y-53484462D01*
X295561125Y-53487947D01*
X295543672Y-53490334D01*
X295525325Y-53491794D01*
X295504572Y-53492501D01*
X295486391Y-53492641D01*
X295444458Y-53491219D01*
X295405693Y-53486787D01*
X295369003Y-53479098D01*
X295333293Y-53467905D01*
X295297469Y-53452960D01*
X295285678Y-53447283D01*
X295244797Y-53424253D01*
X295207284Y-53397498D01*
X295173289Y-53367220D01*
X295142964Y-53333626D01*
X295116459Y-53296921D01*
X295093924Y-53257309D01*
X295075512Y-53214996D01*
X295061372Y-53170186D01*
X295052921Y-53130849D01*
X295051569Y-53120313D01*
X295050358Y-53105988D01*
X295049336Y-53089166D01*
X295048549Y-53071137D01*
X295048047Y-53053191D01*
X295047876Y-53036619D01*
X295048085Y-53022713D01*
X295048592Y-53014009D01*
X295055276Y-52968863D01*
X295066536Y-52924635D01*
X295082122Y-52881845D01*
X295101781Y-52841012D01*
X295125262Y-52802655D01*
X295152314Y-52767294D01*
X295182685Y-52735449D01*
X295184070Y-52734158D01*
X295219749Y-52704471D01*
X295257984Y-52679025D01*
X295298428Y-52657893D01*
X295340737Y-52641149D01*
X295384562Y-52628864D01*
X295429558Y-52621112D01*
X295475379Y-52617965D01*
X295521677Y-52619496D01*
G37*
X295521677Y-52619496D02*
X295568107Y-52625777D01*
X295614322Y-52636882D01*
X295627721Y-52641043D01*
X295670978Y-52657778D01*
X295711583Y-52678722D01*
X295749323Y-52703630D01*
X295783988Y-52732256D01*
X295815365Y-52764354D01*
X295843243Y-52799679D01*
X295867411Y-52837985D01*
X295887656Y-52879026D01*
X295903767Y-52922557D01*
X295915533Y-52968332D01*
X295917244Y-52977179D01*
X295918999Y-52988121D01*
X295920273Y-52999678D01*
X295921125Y-53012864D01*
X295921611Y-53028692D01*
X295921790Y-53048177D01*
X295921789Y-53057189D01*
X295921692Y-53076153D01*
X295921435Y-53091134D01*
X295920931Y-53103228D01*
X295920093Y-53113531D01*
X295918834Y-53123139D01*
X295917068Y-53133149D01*
X295914942Y-53143549D01*
X295907678Y-53174139D01*
X295899330Y-53201654D01*
X295889216Y-53228081D01*
X295876650Y-53255408D01*
X295876072Y-53256579D01*
X295853420Y-53296695D01*
X295826831Y-53333790D01*
X295796608Y-53367616D01*
X295763056Y-53397929D01*
X295726480Y-53424483D01*
X295687183Y-53447032D01*
X295645471Y-53465331D01*
X295601649Y-53479134D01*
X295599399Y-53479704D01*
X295579197Y-53484462D01*
X295561125Y-53487947D01*
X295543672Y-53490334D01*
X295525325Y-53491794D01*
X295504572Y-53492501D01*
X295486391Y-53492641D01*
X295444458Y-53491219D01*
X295405693Y-53486787D01*
X295369003Y-53479098D01*
X295333293Y-53467905D01*
X295297469Y-53452960D01*
X295285678Y-53447283D01*
X295244797Y-53424253D01*
X295207284Y-53397498D01*
X295173289Y-53367220D01*
X295142964Y-53333626D01*
X295116459Y-53296921D01*
X295093924Y-53257309D01*
X295075512Y-53214996D01*
X295061372Y-53170186D01*
X295052921Y-53130849D01*
X295051569Y-53120313D01*
X295050358Y-53105988D01*
X295049336Y-53089166D01*
X295048549Y-53071137D01*
X295048047Y-53053191D01*
X295047876Y-53036619D01*
X295048085Y-53022713D01*
X295048592Y-53014009D01*
X295055276Y-52968863D01*
X295066536Y-52924635D01*
X295082122Y-52881845D01*
X295101781Y-52841012D01*
X295125262Y-52802655D01*
X295152314Y-52767294D01*
X295182685Y-52735449D01*
X295184070Y-52734158D01*
X295219749Y-52704471D01*
X295257984Y-52679025D01*
X295298428Y-52657893D01*
X295340737Y-52641149D01*
X295384562Y-52628864D01*
X295429558Y-52621112D01*
X295475379Y-52617965D01*
X295521677Y-52619496D01*
G36*
X295516073Y-61141853D02*
G01*
X295557558Y-61146714D01*
X295596443Y-61154976D01*
X295634148Y-61167033D01*
X295672094Y-61183280D01*
X295681022Y-61187660D01*
X295721395Y-61210690D01*
X295758614Y-61237607D01*
X295792506Y-61268186D01*
X295822899Y-61302201D01*
X295849622Y-61339428D01*
X295872501Y-61379639D01*
X295891364Y-61422611D01*
X295906040Y-61468118D01*
X295911088Y-61488719D01*
X295912957Y-61497688D01*
X295914373Y-61506178D01*
X295915396Y-61515116D01*
X295916091Y-61525428D01*
X295916520Y-61538042D01*
X295916745Y-61553884D01*
X295916829Y-61573809D01*
X295916810Y-61593671D01*
X295916643Y-61609402D01*
X295916264Y-61621949D01*
X295915611Y-61632260D01*
X295914621Y-61641284D01*
X295913230Y-61649968D01*
X295911377Y-61659259D01*
X295911060Y-61660738D01*
X295899776Y-61703074D01*
X295884516Y-61744389D01*
X295865743Y-61783610D01*
X295843919Y-61819664D01*
X295840034Y-61825269D01*
X295828203Y-61840647D01*
X295813421Y-61857785D01*
X295796797Y-61875549D01*
X295779441Y-61892808D01*
X295762462Y-61908426D01*
X295746969Y-61921272D01*
X295743456Y-61923919D01*
X295704545Y-61949428D01*
X295663476Y-61970471D01*
X295620640Y-61986976D01*
X295576429Y-61998870D01*
X295531236Y-62006082D01*
X295485451Y-62008539D01*
X295439466Y-62006169D01*
X295393674Y-61998899D01*
X295369295Y-61992946D01*
X295325681Y-61978379D01*
X295284297Y-61959407D01*
X295245401Y-61936307D01*
X295209253Y-61909357D01*
X295176112Y-61878833D01*
X295146236Y-61845014D01*
X295119885Y-61808176D01*
X295097318Y-61768598D01*
X295078795Y-61726555D01*
X295064573Y-61682326D01*
X295059572Y-61661439D01*
X295057184Y-61646899D01*
X295055277Y-61628560D01*
X295053885Y-61607681D01*
X295053039Y-61585523D01*
X295052773Y-61563345D01*
X295053120Y-61542410D01*
X295054113Y-61523975D01*
X295055626Y-61510309D01*
X295065232Y-61464288D01*
X295079643Y-61419883D01*
X295098879Y-61377044D01*
X295122959Y-61335723D01*
X295125018Y-61332598D01*
X295138983Y-61313506D01*
X295156211Y-61293000D01*
X295175579Y-61272228D01*
X295195964Y-61252342D01*
X295216244Y-61234490D01*
X295234931Y-61220077D01*
X295273127Y-61196138D01*
X295313871Y-61176258D01*
X295356555Y-61160608D01*
X295400569Y-61149358D01*
X295445302Y-61142676D01*
X295490144Y-61140734D01*
X295516073Y-61141853D01*
G37*
X295516073Y-61141853D02*
X295557558Y-61146714D01*
X295596443Y-61154976D01*
X295634148Y-61167033D01*
X295672094Y-61183280D01*
X295681022Y-61187660D01*
X295721395Y-61210690D01*
X295758614Y-61237607D01*
X295792506Y-61268186D01*
X295822899Y-61302201D01*
X295849622Y-61339428D01*
X295872501Y-61379639D01*
X295891364Y-61422611D01*
X295906040Y-61468118D01*
X295911088Y-61488719D01*
X295912957Y-61497688D01*
X295914373Y-61506178D01*
X295915396Y-61515116D01*
X295916091Y-61525428D01*
X295916520Y-61538042D01*
X295916745Y-61553884D01*
X295916829Y-61573809D01*
X295916810Y-61593671D01*
X295916643Y-61609402D01*
X295916264Y-61621949D01*
X295915611Y-61632260D01*
X295914621Y-61641284D01*
X295913230Y-61649968D01*
X295911377Y-61659259D01*
X295911060Y-61660738D01*
X295899776Y-61703074D01*
X295884516Y-61744389D01*
X295865743Y-61783610D01*
X295843919Y-61819664D01*
X295840034Y-61825269D01*
X295828203Y-61840647D01*
X295813421Y-61857785D01*
X295796797Y-61875549D01*
X295779441Y-61892808D01*
X295762462Y-61908426D01*
X295746969Y-61921272D01*
X295743456Y-61923919D01*
X295704545Y-61949428D01*
X295663476Y-61970471D01*
X295620640Y-61986976D01*
X295576429Y-61998870D01*
X295531236Y-62006082D01*
X295485451Y-62008539D01*
X295439466Y-62006169D01*
X295393674Y-61998899D01*
X295369295Y-61992946D01*
X295325681Y-61978379D01*
X295284297Y-61959407D01*
X295245401Y-61936307D01*
X295209253Y-61909357D01*
X295176112Y-61878833D01*
X295146236Y-61845014D01*
X295119885Y-61808176D01*
X295097318Y-61768598D01*
X295078795Y-61726555D01*
X295064573Y-61682326D01*
X295059572Y-61661439D01*
X295057184Y-61646899D01*
X295055277Y-61628560D01*
X295053885Y-61607681D01*
X295053039Y-61585523D01*
X295052773Y-61563345D01*
X295053120Y-61542410D01*
X295054113Y-61523975D01*
X295055626Y-61510309D01*
X295065232Y-61464288D01*
X295079643Y-61419883D01*
X295098879Y-61377044D01*
X295122959Y-61335723D01*
X295125018Y-61332598D01*
X295138983Y-61313506D01*
X295156211Y-61293000D01*
X295175579Y-61272228D01*
X295195964Y-61252342D01*
X295216244Y-61234490D01*
X295234931Y-61220077D01*
X295273127Y-61196138D01*
X295313871Y-61176258D01*
X295356555Y-61160608D01*
X295400569Y-61149358D01*
X295445302Y-61142676D01*
X295490144Y-61140734D01*
X295516073Y-61141853D01*
G36*
X297656033Y-54528993D02*
G01*
X297713814Y-54534298D01*
X297745929Y-54539406D01*
X297801678Y-54552198D01*
X297855980Y-54569833D01*
X297908635Y-54592229D01*
X297959444Y-54619304D01*
X297992101Y-54639854D01*
X298035890Y-54671893D01*
X298077243Y-54707573D01*
X298115341Y-54746128D01*
X298149365Y-54786793D01*
X298149677Y-54787201D01*
X298159340Y-54799591D01*
X298167983Y-54809902D01*
X298176558Y-54819067D01*
X298186017Y-54828018D01*
X298197310Y-54837689D01*
X298211389Y-54849010D01*
X298218161Y-54854325D01*
X298247643Y-54876058D01*
X298279939Y-54897551D01*
X298313904Y-54918153D01*
X298348397Y-54937217D01*
X298382275Y-54954094D01*
X298414396Y-54968136D01*
X298427711Y-54973262D01*
X298466470Y-54986263D01*
X298507158Y-54997671D01*
X298548832Y-55007324D01*
X298590548Y-55015061D01*
X298631363Y-55020719D01*
X298670333Y-55024139D01*
X298706515Y-55025159D01*
X298727431Y-55024497D01*
X298793090Y-55018442D01*
X298856098Y-55008121D01*
X298916663Y-54993462D01*
X298974995Y-54974398D01*
X299031305Y-54950859D01*
X299085801Y-54922775D01*
X299138692Y-54890076D01*
X299143991Y-54886489D01*
X299165754Y-54871232D01*
X299183870Y-54857544D01*
X299199206Y-54844659D01*
X299212627Y-54831815D01*
X299225000Y-54818246D01*
X299234561Y-54806565D01*
X299271088Y-54764029D01*
X299310732Y-54725181D01*
X299353188Y-54690149D01*
X299398154Y-54659059D01*
X299445325Y-54632037D01*
X299494397Y-54609209D01*
X299545067Y-54590701D01*
X299597030Y-54576640D01*
X299649983Y-54567152D01*
X299703623Y-54562362D01*
X299757644Y-54562398D01*
X299810741Y-54567247D01*
X299866259Y-54577393D01*
X299920345Y-54592331D01*
X299972732Y-54611910D01*
X300023153Y-54635976D01*
X300071341Y-54664379D01*
X300117030Y-54696964D01*
X300159952Y-54733581D01*
X300199841Y-54774076D01*
X300224846Y-54803439D01*
X300249534Y-54836803D01*
X300273139Y-54873723D01*
X300294805Y-54912680D01*
X300313673Y-54952153D01*
X300326162Y-54983039D01*
X300341909Y-55032854D01*
X300353276Y-55084693D01*
X300360209Y-55137916D01*
X300362657Y-55191886D01*
X300360566Y-55245966D01*
X300353884Y-55299518D01*
X300352844Y-55305469D01*
X300341093Y-55356851D01*
X300324453Y-55407875D01*
X300303119Y-55458110D01*
X300277281Y-55507126D01*
X300247131Y-55554491D01*
X300233227Y-55573791D01*
X300221348Y-55588600D01*
X300206352Y-55605588D01*
X300189157Y-55623849D01*
X300170678Y-55642473D01*
X300151832Y-55660552D01*
X300133535Y-55677177D01*
X300116704Y-55691440D01*
X300106651Y-55699261D01*
X300058920Y-55731763D01*
X300009797Y-55759429D01*
X299958993Y-55782383D01*
X299906215Y-55800749D01*
X299851175Y-55814651D01*
X299823441Y-55819846D01*
X299807338Y-55821881D01*
X299787347Y-55823386D01*
X299764631Y-55824361D01*
X299740357Y-55824806D01*
X299715688Y-55824721D01*
X299691787Y-55824106D01*
X299669821Y-55822961D01*
X299650952Y-55821285D01*
X299640561Y-55819856D01*
X299583139Y-55807823D01*
X299527940Y-55791266D01*
X299475086Y-55770254D01*
X299424699Y-55744856D01*
X299376902Y-55715143D01*
X299331816Y-55681182D01*
X299289565Y-55643045D01*
X299250270Y-55600800D01*
X299245564Y-55595226D01*
X299227249Y-55575496D01*
X299204684Y-55554853D01*
X299178524Y-55533724D01*
X299149420Y-55512534D01*
X299118024Y-55491709D01*
X299084989Y-55471675D01*
X299050966Y-55452859D01*
X299016609Y-55435685D01*
X298982568Y-55420581D01*
X298971105Y-55415963D01*
X298912558Y-55395629D01*
X298853652Y-55380355D01*
X298794469Y-55370137D01*
X298735095Y-55364975D01*
X298675613Y-55364866D01*
X298616106Y-55369808D01*
X298556659Y-55379800D01*
X298497355Y-55394840D01*
X298438278Y-55414925D01*
X298405471Y-55428314D01*
X298359913Y-55450021D01*
X298313498Y-55475968D01*
X298267074Y-55505611D01*
X298221489Y-55538406D01*
X298177593Y-55573808D01*
X298174223Y-55576699D01*
X298166687Y-55583892D01*
X298157586Y-55593610D01*
X298148358Y-55604282D01*
X298143828Y-55609889D01*
X298132706Y-55623214D01*
X298118669Y-55638733D01*
X298102736Y-55655425D01*
X298085923Y-55672266D01*
X298069249Y-55688235D01*
X298053732Y-55702310D01*
X298041631Y-55712487D01*
X298008972Y-55736669D01*
X297973011Y-55759977D01*
X297935165Y-55781615D01*
X297896852Y-55800785D01*
X297859490Y-55816691D01*
X297849861Y-55820282D01*
X297796356Y-55836986D01*
X297741393Y-55849122D01*
X297685477Y-55856689D01*
X297629110Y-55859687D01*
X297572797Y-55858116D01*
X297517041Y-55851975D01*
X297462344Y-55841265D01*
X297409212Y-55825985D01*
X297393657Y-55820512D01*
X297340486Y-55798329D01*
X297289942Y-55771919D01*
X297242211Y-55741510D01*
X297197478Y-55707331D01*
X297155926Y-55669609D01*
X297117741Y-55628572D01*
X297083108Y-55584448D01*
X297052211Y-55537465D01*
X297025234Y-55487849D01*
X297002364Y-55435830D01*
X296983784Y-55381634D01*
X296969679Y-55325490D01*
X296963270Y-55289849D01*
X296962160Y-55280298D01*
X296961109Y-55267028D01*
X296960145Y-55250986D01*
X296959298Y-55233116D01*
X296958598Y-55214364D01*
X296958074Y-55195676D01*
X296957756Y-55177998D01*
X296957674Y-55162276D01*
X296957858Y-55149454D01*
X296958336Y-55140480D01*
X296958536Y-55138719D01*
X296959288Y-55132832D01*
X296960414Y-55123501D01*
X296961720Y-55112330D01*
X296962334Y-55106969D01*
X296970820Y-55054361D01*
X296984152Y-55002074D01*
X297002103Y-54950587D01*
X297024442Y-54900381D01*
X297050939Y-54851933D01*
X297081364Y-54805724D01*
X297115487Y-54762233D01*
X297141201Y-54733921D01*
X297183547Y-54693603D01*
X297228632Y-54657463D01*
X297276190Y-54625587D01*
X297325956Y-54598058D01*
X297377664Y-54574964D01*
X297431048Y-54556389D01*
X297485842Y-54542419D01*
X297541782Y-54533140D01*
X297598601Y-54528636D01*
X297656033Y-54528993D01*
G37*
X297656033Y-54528993D02*
X297713814Y-54534298D01*
X297745929Y-54539406D01*
X297801678Y-54552198D01*
X297855980Y-54569833D01*
X297908635Y-54592229D01*
X297959444Y-54619304D01*
X297992101Y-54639854D01*
X298035890Y-54671893D01*
X298077243Y-54707573D01*
X298115341Y-54746128D01*
X298149365Y-54786793D01*
X298149677Y-54787201D01*
X298159340Y-54799591D01*
X298167983Y-54809902D01*
X298176558Y-54819067D01*
X298186017Y-54828018D01*
X298197310Y-54837689D01*
X298211389Y-54849010D01*
X298218161Y-54854325D01*
X298247643Y-54876058D01*
X298279939Y-54897551D01*
X298313904Y-54918153D01*
X298348397Y-54937217D01*
X298382275Y-54954094D01*
X298414396Y-54968136D01*
X298427711Y-54973262D01*
X298466470Y-54986263D01*
X298507158Y-54997671D01*
X298548832Y-55007324D01*
X298590548Y-55015061D01*
X298631363Y-55020719D01*
X298670333Y-55024139D01*
X298706515Y-55025159D01*
X298727431Y-55024497D01*
X298793090Y-55018442D01*
X298856098Y-55008121D01*
X298916663Y-54993462D01*
X298974995Y-54974398D01*
X299031305Y-54950859D01*
X299085801Y-54922775D01*
X299138692Y-54890076D01*
X299143991Y-54886489D01*
X299165754Y-54871232D01*
X299183870Y-54857544D01*
X299199206Y-54844659D01*
X299212627Y-54831815D01*
X299225000Y-54818246D01*
X299234561Y-54806565D01*
X299271088Y-54764029D01*
X299310732Y-54725181D01*
X299353188Y-54690149D01*
X299398154Y-54659059D01*
X299445325Y-54632037D01*
X299494397Y-54609209D01*
X299545067Y-54590701D01*
X299597030Y-54576640D01*
X299649983Y-54567152D01*
X299703623Y-54562362D01*
X299757644Y-54562398D01*
X299810741Y-54567247D01*
X299866259Y-54577393D01*
X299920345Y-54592331D01*
X299972732Y-54611910D01*
X300023153Y-54635976D01*
X300071341Y-54664379D01*
X300117030Y-54696964D01*
X300159952Y-54733581D01*
X300199841Y-54774076D01*
X300224846Y-54803439D01*
X300249534Y-54836803D01*
X300273139Y-54873723D01*
X300294805Y-54912680D01*
X300313673Y-54952153D01*
X300326162Y-54983039D01*
X300341909Y-55032854D01*
X300353276Y-55084693D01*
X300360209Y-55137916D01*
X300362657Y-55191886D01*
X300360566Y-55245966D01*
X300353884Y-55299518D01*
X300352844Y-55305469D01*
X300341093Y-55356851D01*
X300324453Y-55407875D01*
X300303119Y-55458110D01*
X300277281Y-55507126D01*
X300247131Y-55554491D01*
X300233227Y-55573791D01*
X300221348Y-55588600D01*
X300206352Y-55605588D01*
X300189157Y-55623849D01*
X300170678Y-55642473D01*
X300151832Y-55660552D01*
X300133535Y-55677177D01*
X300116704Y-55691440D01*
X300106651Y-55699261D01*
X300058920Y-55731763D01*
X300009797Y-55759429D01*
X299958993Y-55782383D01*
X299906215Y-55800749D01*
X299851175Y-55814651D01*
X299823441Y-55819846D01*
X299807338Y-55821881D01*
X299787347Y-55823386D01*
X299764631Y-55824361D01*
X299740357Y-55824806D01*
X299715688Y-55824721D01*
X299691787Y-55824106D01*
X299669821Y-55822961D01*
X299650952Y-55821285D01*
X299640561Y-55819856D01*
X299583139Y-55807823D01*
X299527940Y-55791266D01*
X299475086Y-55770254D01*
X299424699Y-55744856D01*
X299376902Y-55715143D01*
X299331816Y-55681182D01*
X299289565Y-55643045D01*
X299250270Y-55600800D01*
X299245564Y-55595226D01*
X299227249Y-55575496D01*
X299204684Y-55554853D01*
X299178524Y-55533724D01*
X299149420Y-55512534D01*
X299118024Y-55491709D01*
X299084989Y-55471675D01*
X299050966Y-55452859D01*
X299016609Y-55435685D01*
X298982568Y-55420581D01*
X298971105Y-55415963D01*
X298912558Y-55395629D01*
X298853652Y-55380355D01*
X298794469Y-55370137D01*
X298735095Y-55364975D01*
X298675613Y-55364866D01*
X298616106Y-55369808D01*
X298556659Y-55379800D01*
X298497355Y-55394840D01*
X298438278Y-55414925D01*
X298405471Y-55428314D01*
X298359913Y-55450021D01*
X298313498Y-55475968D01*
X298267074Y-55505611D01*
X298221489Y-55538406D01*
X298177593Y-55573808D01*
X298174223Y-55576699D01*
X298166687Y-55583892D01*
X298157586Y-55593610D01*
X298148358Y-55604282D01*
X298143828Y-55609889D01*
X298132706Y-55623214D01*
X298118669Y-55638733D01*
X298102736Y-55655425D01*
X298085923Y-55672266D01*
X298069249Y-55688235D01*
X298053732Y-55702310D01*
X298041631Y-55712487D01*
X298008972Y-55736669D01*
X297973011Y-55759977D01*
X297935165Y-55781615D01*
X297896852Y-55800785D01*
X297859490Y-55816691D01*
X297849861Y-55820282D01*
X297796356Y-55836986D01*
X297741393Y-55849122D01*
X297685477Y-55856689D01*
X297629110Y-55859687D01*
X297572797Y-55858116D01*
X297517041Y-55851975D01*
X297462344Y-55841265D01*
X297409212Y-55825985D01*
X297393657Y-55820512D01*
X297340486Y-55798329D01*
X297289942Y-55771919D01*
X297242211Y-55741510D01*
X297197478Y-55707331D01*
X297155926Y-55669609D01*
X297117741Y-55628572D01*
X297083108Y-55584448D01*
X297052211Y-55537465D01*
X297025234Y-55487849D01*
X297002364Y-55435830D01*
X296983784Y-55381634D01*
X296969679Y-55325490D01*
X296963270Y-55289849D01*
X296962160Y-55280298D01*
X296961109Y-55267028D01*
X296960145Y-55250986D01*
X296959298Y-55233116D01*
X296958598Y-55214364D01*
X296958074Y-55195676D01*
X296957756Y-55177998D01*
X296957674Y-55162276D01*
X296957858Y-55149454D01*
X296958336Y-55140480D01*
X296958536Y-55138719D01*
X296959288Y-55132832D01*
X296960414Y-55123501D01*
X296961720Y-55112330D01*
X296962334Y-55106969D01*
X296970820Y-55054361D01*
X296984152Y-55002074D01*
X297002103Y-54950587D01*
X297024442Y-54900381D01*
X297050939Y-54851933D01*
X297081364Y-54805724D01*
X297115487Y-54762233D01*
X297141201Y-54733921D01*
X297183547Y-54693603D01*
X297228632Y-54657463D01*
X297276190Y-54625587D01*
X297325956Y-54598058D01*
X297377664Y-54574964D01*
X297431048Y-54556389D01*
X297485842Y-54542419D01*
X297541782Y-54533140D01*
X297598601Y-54528636D01*
X297656033Y-54528993D01*
G36*
X297689372Y-52597639D02*
G01*
X297735645Y-52606770D01*
X297780150Y-52620358D01*
X297822638Y-52638173D01*
X297862862Y-52659983D01*
X297900573Y-52685558D01*
X297935521Y-52714668D01*
X297967458Y-52747081D01*
X297996136Y-52782567D01*
X298021306Y-52820894D01*
X298042718Y-52861833D01*
X298060125Y-52905153D01*
X298073277Y-52950622D01*
X298081927Y-52998010D01*
X298082462Y-53002247D01*
X298083873Y-53019401D01*
X298084489Y-53039946D01*
X298084360Y-53062479D01*
X298083536Y-53085597D01*
X298082068Y-53107896D01*
X298080006Y-53127971D01*
X298077401Y-53144419D01*
X298077350Y-53144671D01*
X298068524Y-53180068D01*
X298056548Y-53216063D01*
X298042002Y-53251255D01*
X298025465Y-53284243D01*
X298007517Y-53313626D01*
X298007447Y-53313729D01*
X297978407Y-53352050D01*
X297945877Y-53387078D01*
X297910252Y-53418479D01*
X297871926Y-53445922D01*
X297831295Y-53469075D01*
X297811628Y-53478330D01*
X297765684Y-53495874D01*
X297718979Y-53508498D01*
X297671802Y-53516206D01*
X297624439Y-53519000D01*
X297577178Y-53516884D01*
X297530307Y-53509862D01*
X297484114Y-53497936D01*
X297438887Y-53481110D01*
X297422987Y-53473897D01*
X297380901Y-53451129D01*
X297341899Y-53424504D01*
X297306159Y-53394331D01*
X297273861Y-53360921D01*
X297245184Y-53324584D01*
X297220309Y-53285630D01*
X297199414Y-53244370D01*
X297182679Y-53201115D01*
X297170284Y-53156174D01*
X297162408Y-53109858D01*
X297159229Y-53062478D01*
X297160479Y-53019915D01*
X297166546Y-52972353D01*
X297177447Y-52925996D01*
X297193018Y-52881198D01*
X297213093Y-52838310D01*
X297237507Y-52797685D01*
X297266096Y-52759675D01*
X297298694Y-52724632D01*
X297299037Y-52724300D01*
X297335778Y-52692241D01*
X297375095Y-52664436D01*
X297416682Y-52641004D01*
X297460236Y-52622060D01*
X297505450Y-52607722D01*
X297552020Y-52598106D01*
X297599640Y-52593329D01*
X297641581Y-52593197D01*
X297689372Y-52597639D01*
G37*
X297689372Y-52597639D02*
X297735645Y-52606770D01*
X297780150Y-52620358D01*
X297822638Y-52638173D01*
X297862862Y-52659983D01*
X297900573Y-52685558D01*
X297935521Y-52714668D01*
X297967458Y-52747081D01*
X297996136Y-52782567D01*
X298021306Y-52820894D01*
X298042718Y-52861833D01*
X298060125Y-52905153D01*
X298073277Y-52950622D01*
X298081927Y-52998010D01*
X298082462Y-53002247D01*
X298083873Y-53019401D01*
X298084489Y-53039946D01*
X298084360Y-53062479D01*
X298083536Y-53085597D01*
X298082068Y-53107896D01*
X298080006Y-53127971D01*
X298077401Y-53144419D01*
X298077350Y-53144671D01*
X298068524Y-53180068D01*
X298056548Y-53216063D01*
X298042002Y-53251255D01*
X298025465Y-53284243D01*
X298007517Y-53313626D01*
X298007447Y-53313729D01*
X297978407Y-53352050D01*
X297945877Y-53387078D01*
X297910252Y-53418479D01*
X297871926Y-53445922D01*
X297831295Y-53469075D01*
X297811628Y-53478330D01*
X297765684Y-53495874D01*
X297718979Y-53508498D01*
X297671802Y-53516206D01*
X297624439Y-53519000D01*
X297577178Y-53516884D01*
X297530307Y-53509862D01*
X297484114Y-53497936D01*
X297438887Y-53481110D01*
X297422987Y-53473897D01*
X297380901Y-53451129D01*
X297341899Y-53424504D01*
X297306159Y-53394331D01*
X297273861Y-53360921D01*
X297245184Y-53324584D01*
X297220309Y-53285630D01*
X297199414Y-53244370D01*
X297182679Y-53201115D01*
X297170284Y-53156174D01*
X297162408Y-53109858D01*
X297159229Y-53062478D01*
X297160479Y-53019915D01*
X297166546Y-52972353D01*
X297177447Y-52925996D01*
X297193018Y-52881198D01*
X297213093Y-52838310D01*
X297237507Y-52797685D01*
X297266096Y-52759675D01*
X297298694Y-52724632D01*
X297299037Y-52724300D01*
X297335778Y-52692241D01*
X297375095Y-52664436D01*
X297416682Y-52641004D01*
X297460236Y-52622060D01*
X297505450Y-52607722D01*
X297552020Y-52598106D01*
X297599640Y-52593329D01*
X297641581Y-52593197D01*
X297689372Y-52597639D01*
G36*
X297688060Y-61120570D02*
G01*
X297734850Y-61129975D01*
X297760961Y-61137459D01*
X297778698Y-61143919D01*
X297799143Y-61152706D01*
X297820920Y-61163124D01*
X297842656Y-61174479D01*
X297862974Y-61186074D01*
X297880500Y-61197215D01*
X297884151Y-61199754D01*
X297898239Y-61210652D01*
X297914419Y-61224643D01*
X297931727Y-61240763D01*
X297949199Y-61258047D01*
X297965870Y-61275530D01*
X297980775Y-61292248D01*
X297992950Y-61307237D01*
X297996596Y-61312189D01*
X298006475Y-61327261D01*
X298017241Y-61345657D01*
X298028215Y-61366041D01*
X298038722Y-61387078D01*
X298048085Y-61407434D01*
X298055627Y-61425772D01*
X298059038Y-61435379D01*
X298071502Y-61481589D01*
X298078953Y-61528254D01*
X298081392Y-61575115D01*
X298078819Y-61621915D01*
X298071232Y-61668398D01*
X298059461Y-61711782D01*
X298042265Y-61756603D01*
X298020767Y-61798987D01*
X297995249Y-61838690D01*
X297965992Y-61875465D01*
X297933279Y-61909067D01*
X297897390Y-61939251D01*
X297858608Y-61965770D01*
X297817213Y-61988379D01*
X297773488Y-62006834D01*
X297727715Y-62020887D01*
X297697461Y-62027460D01*
X297681409Y-62029663D01*
X297661777Y-62031209D01*
X297639873Y-62032095D01*
X297617004Y-62032321D01*
X297594476Y-62031884D01*
X297573597Y-62030783D01*
X297555674Y-62029017D01*
X297547003Y-62027659D01*
X297499138Y-62016136D01*
X297453364Y-62000062D01*
X297409917Y-61979615D01*
X297369030Y-61954973D01*
X297330939Y-61926313D01*
X297295879Y-61893814D01*
X297264085Y-61857652D01*
X297235791Y-61818007D01*
X297211233Y-61775056D01*
X297209977Y-61772565D01*
X297193186Y-61734202D01*
X297179877Y-61693559D01*
X297170245Y-61651636D01*
X297164480Y-61609433D01*
X297162775Y-61567951D01*
X297164487Y-61535709D01*
X297171704Y-61488337D01*
X297183705Y-61442245D01*
X297200277Y-61397782D01*
X297221211Y-61355295D01*
X297246294Y-61315133D01*
X297275318Y-61277646D01*
X297308069Y-61243182D01*
X297344338Y-61212089D01*
X297372341Y-61192097D01*
X297414210Y-61167438D01*
X297457626Y-61147526D01*
X297502306Y-61132402D01*
X297547971Y-61122105D01*
X297594339Y-61116674D01*
X297641129Y-61116149D01*
X297688060Y-61120570D01*
G37*
X297688060Y-61120570D02*
X297734850Y-61129975D01*
X297760961Y-61137459D01*
X297778698Y-61143919D01*
X297799143Y-61152706D01*
X297820920Y-61163124D01*
X297842656Y-61174479D01*
X297862974Y-61186074D01*
X297880500Y-61197215D01*
X297884151Y-61199754D01*
X297898239Y-61210652D01*
X297914419Y-61224643D01*
X297931727Y-61240763D01*
X297949199Y-61258047D01*
X297965870Y-61275530D01*
X297980775Y-61292248D01*
X297992950Y-61307237D01*
X297996596Y-61312189D01*
X298006475Y-61327261D01*
X298017241Y-61345657D01*
X298028215Y-61366041D01*
X298038722Y-61387078D01*
X298048085Y-61407434D01*
X298055627Y-61425772D01*
X298059038Y-61435379D01*
X298071502Y-61481589D01*
X298078953Y-61528254D01*
X298081392Y-61575115D01*
X298078819Y-61621915D01*
X298071232Y-61668398D01*
X298059461Y-61711782D01*
X298042265Y-61756603D01*
X298020767Y-61798987D01*
X297995249Y-61838690D01*
X297965992Y-61875465D01*
X297933279Y-61909067D01*
X297897390Y-61939251D01*
X297858608Y-61965770D01*
X297817213Y-61988379D01*
X297773488Y-62006834D01*
X297727715Y-62020887D01*
X297697461Y-62027460D01*
X297681409Y-62029663D01*
X297661777Y-62031209D01*
X297639873Y-62032095D01*
X297617004Y-62032321D01*
X297594476Y-62031884D01*
X297573597Y-62030783D01*
X297555674Y-62029017D01*
X297547003Y-62027659D01*
X297499138Y-62016136D01*
X297453364Y-62000062D01*
X297409917Y-61979615D01*
X297369030Y-61954973D01*
X297330939Y-61926313D01*
X297295879Y-61893814D01*
X297264085Y-61857652D01*
X297235791Y-61818007D01*
X297211233Y-61775056D01*
X297209977Y-61772565D01*
X297193186Y-61734202D01*
X297179877Y-61693559D01*
X297170245Y-61651636D01*
X297164480Y-61609433D01*
X297162775Y-61567951D01*
X297164487Y-61535709D01*
X297171704Y-61488337D01*
X297183705Y-61442245D01*
X297200277Y-61397782D01*
X297221211Y-61355295D01*
X297246294Y-61315133D01*
X297275318Y-61277646D01*
X297308069Y-61243182D01*
X297344338Y-61212089D01*
X297372341Y-61192097D01*
X297414210Y-61167438D01*
X297457626Y-61147526D01*
X297502306Y-61132402D01*
X297547971Y-61122105D01*
X297594339Y-61116674D01*
X297641129Y-61116149D01*
X297688060Y-61120570D01*
G36*
X299762855Y-52621635D02*
G01*
X299810564Y-52627550D01*
X299820901Y-52629486D01*
X299852076Y-52637333D01*
X299884862Y-52648584D01*
X299917797Y-52662600D01*
X299949414Y-52678744D01*
X299978250Y-52696377D01*
X299984731Y-52700857D01*
X300001501Y-52713865D01*
X300019832Y-52729971D01*
X300038545Y-52747996D01*
X300056462Y-52766761D01*
X300072405Y-52785085D01*
X300084395Y-52800649D01*
X300107668Y-52837547D01*
X300127676Y-52877793D01*
X300144068Y-52920573D01*
X300156493Y-52965074D01*
X300157796Y-52970934D01*
X300159723Y-52980447D01*
X300161176Y-52989390D01*
X300162222Y-52998731D01*
X300162928Y-53009436D01*
X300163361Y-53022469D01*
X300163588Y-53038798D01*
X300163667Y-53055919D01*
X300163625Y-53077105D01*
X300163356Y-53094111D01*
X300162814Y-53107834D01*
X300161949Y-53119170D01*
X300160712Y-53129015D01*
X300159270Y-53137199D01*
X300147665Y-53183249D01*
X300131611Y-53227198D01*
X300111297Y-53268770D01*
X300086910Y-53307688D01*
X300058640Y-53343676D01*
X300026675Y-53376458D01*
X299991203Y-53405757D01*
X299963141Y-53424825D01*
X299922780Y-53447060D01*
X299880537Y-53464790D01*
X299836849Y-53477991D01*
X299792151Y-53486636D01*
X299746878Y-53490700D01*
X299701466Y-53490158D01*
X299656351Y-53484982D01*
X299611968Y-53475148D01*
X299568753Y-53460630D01*
X299543556Y-53449655D01*
X299501945Y-53427151D01*
X299463608Y-53400838D01*
X299428709Y-53370928D01*
X299397412Y-53337630D01*
X299369881Y-53301153D01*
X299346281Y-53261708D01*
X299326775Y-53219502D01*
X299311529Y-53174748D01*
X299303801Y-53143549D01*
X299301221Y-53127756D01*
X299299221Y-53108194D01*
X299297828Y-53086144D01*
X299297071Y-53062886D01*
X299296977Y-53039702D01*
X299297574Y-53017873D01*
X299298889Y-52998679D01*
X299300385Y-52986655D01*
X299310175Y-52941108D01*
X299324550Y-52897355D01*
X299343285Y-52855703D01*
X299366155Y-52816458D01*
X299392938Y-52779927D01*
X299423407Y-52746418D01*
X299457338Y-52716238D01*
X299494507Y-52689693D01*
X299533881Y-52667489D01*
X299578073Y-52648304D01*
X299623164Y-52634113D01*
X299669057Y-52624929D01*
X299715654Y-52620766D01*
X299762855Y-52621635D01*
G37*
X299762855Y-52621635D02*
X299810564Y-52627550D01*
X299820901Y-52629486D01*
X299852076Y-52637333D01*
X299884862Y-52648584D01*
X299917797Y-52662600D01*
X299949414Y-52678744D01*
X299978250Y-52696377D01*
X299984731Y-52700857D01*
X300001501Y-52713865D01*
X300019832Y-52729971D01*
X300038545Y-52747996D01*
X300056462Y-52766761D01*
X300072405Y-52785085D01*
X300084395Y-52800649D01*
X300107668Y-52837547D01*
X300127676Y-52877793D01*
X300144068Y-52920573D01*
X300156493Y-52965074D01*
X300157796Y-52970934D01*
X300159723Y-52980447D01*
X300161176Y-52989390D01*
X300162222Y-52998731D01*
X300162928Y-53009436D01*
X300163361Y-53022469D01*
X300163588Y-53038798D01*
X300163667Y-53055919D01*
X300163625Y-53077105D01*
X300163356Y-53094111D01*
X300162814Y-53107834D01*
X300161949Y-53119170D01*
X300160712Y-53129015D01*
X300159270Y-53137199D01*
X300147665Y-53183249D01*
X300131611Y-53227198D01*
X300111297Y-53268770D01*
X300086910Y-53307688D01*
X300058640Y-53343676D01*
X300026675Y-53376458D01*
X299991203Y-53405757D01*
X299963141Y-53424825D01*
X299922780Y-53447060D01*
X299880537Y-53464790D01*
X299836849Y-53477991D01*
X299792151Y-53486636D01*
X299746878Y-53490700D01*
X299701466Y-53490158D01*
X299656351Y-53484982D01*
X299611968Y-53475148D01*
X299568753Y-53460630D01*
X299543556Y-53449655D01*
X299501945Y-53427151D01*
X299463608Y-53400838D01*
X299428709Y-53370928D01*
X299397412Y-53337630D01*
X299369881Y-53301153D01*
X299346281Y-53261708D01*
X299326775Y-53219502D01*
X299311529Y-53174748D01*
X299303801Y-53143549D01*
X299301221Y-53127756D01*
X299299221Y-53108194D01*
X299297828Y-53086144D01*
X299297071Y-53062886D01*
X299296977Y-53039702D01*
X299297574Y-53017873D01*
X299298889Y-52998679D01*
X299300385Y-52986655D01*
X299310175Y-52941108D01*
X299324550Y-52897355D01*
X299343285Y-52855703D01*
X299366155Y-52816458D01*
X299392938Y-52779927D01*
X299423407Y-52746418D01*
X299457338Y-52716238D01*
X299494507Y-52689693D01*
X299533881Y-52667489D01*
X299578073Y-52648304D01*
X299623164Y-52634113D01*
X299669057Y-52624929D01*
X299715654Y-52620766D01*
X299762855Y-52621635D01*
G36*
X299772037Y-61147380D02*
G01*
X299816650Y-61154183D01*
X299860349Y-61165629D01*
X299902727Y-61181622D01*
X299943380Y-61202063D01*
X299981904Y-61226857D01*
X300003781Y-61243743D01*
X300038957Y-61275914D01*
X300069940Y-61310953D01*
X300096726Y-61348851D01*
X300119310Y-61389603D01*
X300137687Y-61433198D01*
X300151852Y-61479630D01*
X300154348Y-61489989D01*
X300156545Y-61499874D01*
X300158206Y-61508535D01*
X300159405Y-61516942D01*
X300160216Y-61526065D01*
X300160715Y-61536874D01*
X300160976Y-61550339D01*
X300161073Y-61567429D01*
X300161084Y-61577619D01*
X300161034Y-61597362D01*
X300160831Y-61612970D01*
X300160412Y-61625389D01*
X300159713Y-61635562D01*
X300158670Y-61644436D01*
X300157221Y-61652954D01*
X300155439Y-61661439D01*
X300142806Y-61707924D01*
X300126249Y-61751292D01*
X300105599Y-61791843D01*
X300080690Y-61829880D01*
X300051352Y-61865703D01*
X300028823Y-61888917D01*
X300006186Y-61909700D01*
X299984438Y-61927179D01*
X299961987Y-61942482D01*
X299937241Y-61956738D01*
X299922225Y-61964467D01*
X299879154Y-61983164D01*
X299835201Y-61996955D01*
X299790667Y-62005873D01*
X299745858Y-62009951D01*
X299701076Y-62009221D01*
X299656625Y-62003719D01*
X299612809Y-61993475D01*
X299569931Y-61978524D01*
X299528295Y-61958899D01*
X299488204Y-61934632D01*
X299460109Y-61914022D01*
X299452631Y-61907646D01*
X299442824Y-61898635D01*
X299431825Y-61888067D01*
X299420772Y-61877018D01*
X299417931Y-61874096D01*
X299387822Y-61839304D01*
X299361641Y-61801427D01*
X299339574Y-61760817D01*
X299321808Y-61717826D01*
X299308527Y-61672804D01*
X299306379Y-61663372D01*
X299304326Y-61652761D01*
X299302785Y-61641807D01*
X299301669Y-61629448D01*
X299300894Y-61614620D01*
X299300374Y-61596258D01*
X299300200Y-61586509D01*
X299300007Y-61570256D01*
X299299942Y-61555307D01*
X299300001Y-61542565D01*
X299300177Y-61532935D01*
X299300467Y-61527321D01*
X299300529Y-61526819D01*
X299307676Y-61487967D01*
X299317185Y-61452245D01*
X299329546Y-61418060D01*
X299343601Y-61387119D01*
X299357659Y-61360730D01*
X299372624Y-61336858D01*
X299389439Y-61314210D01*
X299409050Y-61291491D01*
X299427146Y-61272635D01*
X299462151Y-61240805D01*
X299499187Y-61213606D01*
X299538425Y-61190945D01*
X299580035Y-61172725D01*
X299624187Y-61158853D01*
X299636751Y-61155798D01*
X299681682Y-61148090D01*
X299726912Y-61145316D01*
X299772037Y-61147380D01*
G37*
X299772037Y-61147380D02*
X299816650Y-61154183D01*
X299860349Y-61165629D01*
X299902727Y-61181622D01*
X299943380Y-61202063D01*
X299981904Y-61226857D01*
X300003781Y-61243743D01*
X300038957Y-61275914D01*
X300069940Y-61310953D01*
X300096726Y-61348851D01*
X300119310Y-61389603D01*
X300137687Y-61433198D01*
X300151852Y-61479630D01*
X300154348Y-61489989D01*
X300156545Y-61499874D01*
X300158206Y-61508535D01*
X300159405Y-61516942D01*
X300160216Y-61526065D01*
X300160715Y-61536874D01*
X300160976Y-61550339D01*
X300161073Y-61567429D01*
X300161084Y-61577619D01*
X300161034Y-61597362D01*
X300160831Y-61612970D01*
X300160412Y-61625389D01*
X300159713Y-61635562D01*
X300158670Y-61644436D01*
X300157221Y-61652954D01*
X300155439Y-61661439D01*
X300142806Y-61707924D01*
X300126249Y-61751292D01*
X300105599Y-61791843D01*
X300080690Y-61829880D01*
X300051352Y-61865703D01*
X300028823Y-61888917D01*
X300006186Y-61909700D01*
X299984438Y-61927179D01*
X299961987Y-61942482D01*
X299937241Y-61956738D01*
X299922225Y-61964467D01*
X299879154Y-61983164D01*
X299835201Y-61996955D01*
X299790667Y-62005873D01*
X299745858Y-62009951D01*
X299701076Y-62009221D01*
X299656625Y-62003719D01*
X299612809Y-61993475D01*
X299569931Y-61978524D01*
X299528295Y-61958899D01*
X299488204Y-61934632D01*
X299460109Y-61914022D01*
X299452631Y-61907646D01*
X299442824Y-61898635D01*
X299431825Y-61888067D01*
X299420772Y-61877018D01*
X299417931Y-61874096D01*
X299387822Y-61839304D01*
X299361641Y-61801427D01*
X299339574Y-61760817D01*
X299321808Y-61717826D01*
X299308527Y-61672804D01*
X299306379Y-61663372D01*
X299304326Y-61652761D01*
X299302785Y-61641807D01*
X299301669Y-61629448D01*
X299300894Y-61614620D01*
X299300374Y-61596258D01*
X299300200Y-61586509D01*
X299300007Y-61570256D01*
X299299942Y-61555307D01*
X299300001Y-61542565D01*
X299300177Y-61532935D01*
X299300467Y-61527321D01*
X299300529Y-61526819D01*
X299307676Y-61487967D01*
X299317185Y-61452245D01*
X299329546Y-61418060D01*
X299343601Y-61387119D01*
X299357659Y-61360730D01*
X299372624Y-61336858D01*
X299389439Y-61314210D01*
X299409050Y-61291491D01*
X299427146Y-61272635D01*
X299462151Y-61240805D01*
X299499187Y-61213606D01*
X299538425Y-61190945D01*
X299580035Y-61172725D01*
X299624187Y-61158853D01*
X299636751Y-61155798D01*
X299681682Y-61148090D01*
X299726912Y-61145316D01*
X299772037Y-61147380D01*
G36*
X301907989Y-54650007D02*
G01*
X301958078Y-54656401D01*
X301970374Y-54658737D01*
X302020116Y-54671281D01*
X302067846Y-54688211D01*
X302113358Y-54709262D01*
X302156447Y-54734167D01*
X302196907Y-54762661D01*
X302234532Y-54794478D01*
X302269117Y-54829352D01*
X302300455Y-54867016D01*
X302328341Y-54907205D01*
X302352569Y-54949652D01*
X302372933Y-54994092D01*
X302389227Y-55040259D01*
X302401246Y-55087885D01*
X302408784Y-55136707D01*
X302411635Y-55186457D01*
X302410351Y-55227477D01*
X302404196Y-55279364D01*
X302393250Y-55329677D01*
X302377494Y-55378458D01*
X302356909Y-55425749D01*
X302331478Y-55471590D01*
X302301181Y-55516022D01*
X302266001Y-55559087D01*
X302257335Y-55568675D01*
X302243976Y-55584438D01*
X302229189Y-55604073D01*
X302213491Y-55626758D01*
X302197398Y-55651670D01*
X302181425Y-55677989D01*
X302166090Y-55704891D01*
X302151907Y-55731556D01*
X302140556Y-55754669D01*
X302113317Y-55818345D01*
X302090016Y-55884670D01*
X302070907Y-55952796D01*
X302056245Y-56021874D01*
X302051155Y-56053119D01*
X302045831Y-56093986D01*
X302041854Y-56134806D01*
X302039283Y-56174524D01*
X302038177Y-56212085D01*
X302038595Y-56246433D01*
X302039434Y-56262669D01*
X302045867Y-56333448D01*
X302055416Y-56400634D01*
X302068215Y-56464745D01*
X302084397Y-56526297D01*
X302104096Y-56585810D01*
X302127445Y-56643801D01*
X302149811Y-56691388D01*
X302175304Y-56739644D01*
X302201311Y-56783471D01*
X302228276Y-56823519D01*
X302256646Y-56860440D01*
X302286869Y-56894883D01*
X302296098Y-56904556D01*
X302333281Y-56945802D01*
X302365687Y-56988155D01*
X302393557Y-57031961D01*
X302414370Y-57071659D01*
X302436067Y-57123062D01*
X302452815Y-57175453D01*
X302464603Y-57228625D01*
X302471419Y-57282368D01*
X302473252Y-57336475D01*
X302470091Y-57390738D01*
X302461924Y-57444948D01*
X302448739Y-57498898D01*
X302439550Y-57527787D01*
X302432205Y-57547065D01*
X302422651Y-57569068D01*
X302411598Y-57592361D01*
X302399754Y-57615510D01*
X302387830Y-57637082D01*
X302376534Y-57655643D01*
X302375565Y-57657129D01*
X302343416Y-57701622D01*
X302307653Y-57742910D01*
X302268600Y-57780768D01*
X302226585Y-57814973D01*
X302181933Y-57845302D01*
X302134971Y-57871530D01*
X302086025Y-57893436D01*
X302035422Y-57910795D01*
X301988235Y-57922446D01*
X301965093Y-57926801D01*
X301944098Y-57929971D01*
X301923618Y-57932111D01*
X301902019Y-57933375D01*
X301877670Y-57933918D01*
X301866470Y-57933968D01*
X301830517Y-57933168D01*
X301797463Y-57930575D01*
X301765370Y-57925952D01*
X301732300Y-57919064D01*
X301720346Y-57916127D01*
X301667700Y-57900193D01*
X301617297Y-57879830D01*
X301569343Y-57855266D01*
X301524047Y-57826727D01*
X301481617Y-57794441D01*
X301442261Y-57758635D01*
X301406188Y-57719534D01*
X301373605Y-57677368D01*
X301344720Y-57632361D01*
X301319742Y-57584741D01*
X301298879Y-57534736D01*
X301282338Y-57482571D01*
X301270329Y-57428475D01*
X301269680Y-57424719D01*
X301267131Y-57405676D01*
X301265192Y-57382990D01*
X301263893Y-57358046D01*
X301263261Y-57332229D01*
X301263328Y-57306925D01*
X301264121Y-57283519D01*
X301265670Y-57263396D01*
X301266184Y-57259003D01*
X301275679Y-57204125D01*
X301289954Y-57150749D01*
X301308881Y-57099143D01*
X301332333Y-57049573D01*
X301360184Y-57002306D01*
X301392305Y-56957608D01*
X301428570Y-56915748D01*
X301431282Y-56912909D01*
X301455246Y-56886137D01*
X301479881Y-56855130D01*
X301504707Y-56820602D01*
X301529246Y-56783265D01*
X301553020Y-56743834D01*
X301575548Y-56703020D01*
X301586470Y-56681769D01*
X301616050Y-56617909D01*
X301640976Y-56553533D01*
X301661443Y-56487989D01*
X301677646Y-56420625D01*
X301689779Y-56350789D01*
X301693344Y-56323629D01*
X301695207Y-56303824D01*
X301696595Y-56280142D01*
X301697508Y-56253712D01*
X301697947Y-56225668D01*
X301697911Y-56197141D01*
X301697402Y-56169264D01*
X301696420Y-56143168D01*
X301694964Y-56119986D01*
X301693263Y-56102649D01*
X301681751Y-56028430D01*
X301665597Y-55956197D01*
X301644757Y-55885835D01*
X301619188Y-55817227D01*
X301588843Y-55750259D01*
X301553679Y-55684815D01*
X301513652Y-55620778D01*
X301500182Y-55601100D01*
X301490790Y-55587949D01*
X301480903Y-55574596D01*
X301471531Y-55562372D01*
X301463681Y-55552612D01*
X301461720Y-55550300D01*
X301436856Y-55519934D01*
X301415452Y-55490089D01*
X301396393Y-55459075D01*
X301378564Y-55425201D01*
X301376742Y-55421459D01*
X301356189Y-55373337D01*
X301340605Y-55324379D01*
X301329989Y-55274802D01*
X301324340Y-55224821D01*
X301323656Y-55174654D01*
X301327936Y-55124515D01*
X301337181Y-55074623D01*
X301351387Y-55025192D01*
X301370555Y-54976440D01*
X301379021Y-54958379D01*
X301404080Y-54912682D01*
X301432812Y-54870108D01*
X301464926Y-54830802D01*
X301500131Y-54794912D01*
X301538135Y-54762587D01*
X301578648Y-54733973D01*
X301621377Y-54709219D01*
X301666032Y-54688471D01*
X301712320Y-54671879D01*
X301759952Y-54659588D01*
X301808635Y-54651748D01*
X301858078Y-54648505D01*
X301907989Y-54650007D01*
G37*
X301907989Y-54650007D02*
X301958078Y-54656401D01*
X301970374Y-54658737D01*
X302020116Y-54671281D01*
X302067846Y-54688211D01*
X302113358Y-54709262D01*
X302156447Y-54734167D01*
X302196907Y-54762661D01*
X302234532Y-54794478D01*
X302269117Y-54829352D01*
X302300455Y-54867016D01*
X302328341Y-54907205D01*
X302352569Y-54949652D01*
X302372933Y-54994092D01*
X302389227Y-55040259D01*
X302401246Y-55087885D01*
X302408784Y-55136707D01*
X302411635Y-55186457D01*
X302410351Y-55227477D01*
X302404196Y-55279364D01*
X302393250Y-55329677D01*
X302377494Y-55378458D01*
X302356909Y-55425749D01*
X302331478Y-55471590D01*
X302301181Y-55516022D01*
X302266001Y-55559087D01*
X302257335Y-55568675D01*
X302243976Y-55584438D01*
X302229189Y-55604073D01*
X302213491Y-55626758D01*
X302197398Y-55651670D01*
X302181425Y-55677989D01*
X302166090Y-55704891D01*
X302151907Y-55731556D01*
X302140556Y-55754669D01*
X302113317Y-55818345D01*
X302090016Y-55884670D01*
X302070907Y-55952796D01*
X302056245Y-56021874D01*
X302051155Y-56053119D01*
X302045831Y-56093986D01*
X302041854Y-56134806D01*
X302039283Y-56174524D01*
X302038177Y-56212085D01*
X302038595Y-56246433D01*
X302039434Y-56262669D01*
X302045867Y-56333448D01*
X302055416Y-56400634D01*
X302068215Y-56464745D01*
X302084397Y-56526297D01*
X302104096Y-56585810D01*
X302127445Y-56643801D01*
X302149811Y-56691388D01*
X302175304Y-56739644D01*
X302201311Y-56783471D01*
X302228276Y-56823519D01*
X302256646Y-56860440D01*
X302286869Y-56894883D01*
X302296098Y-56904556D01*
X302333281Y-56945802D01*
X302365687Y-56988155D01*
X302393557Y-57031961D01*
X302414370Y-57071659D01*
X302436067Y-57123062D01*
X302452815Y-57175453D01*
X302464603Y-57228625D01*
X302471419Y-57282368D01*
X302473252Y-57336475D01*
X302470091Y-57390738D01*
X302461924Y-57444948D01*
X302448739Y-57498898D01*
X302439550Y-57527787D01*
X302432205Y-57547065D01*
X302422651Y-57569068D01*
X302411598Y-57592361D01*
X302399754Y-57615510D01*
X302387830Y-57637082D01*
X302376534Y-57655643D01*
X302375565Y-57657129D01*
X302343416Y-57701622D01*
X302307653Y-57742910D01*
X302268600Y-57780768D01*
X302226585Y-57814973D01*
X302181933Y-57845302D01*
X302134971Y-57871530D01*
X302086025Y-57893436D01*
X302035422Y-57910795D01*
X301988235Y-57922446D01*
X301965093Y-57926801D01*
X301944098Y-57929971D01*
X301923618Y-57932111D01*
X301902019Y-57933375D01*
X301877670Y-57933918D01*
X301866470Y-57933968D01*
X301830517Y-57933168D01*
X301797463Y-57930575D01*
X301765370Y-57925952D01*
X301732300Y-57919064D01*
X301720346Y-57916127D01*
X301667700Y-57900193D01*
X301617297Y-57879830D01*
X301569343Y-57855266D01*
X301524047Y-57826727D01*
X301481617Y-57794441D01*
X301442261Y-57758635D01*
X301406188Y-57719534D01*
X301373605Y-57677368D01*
X301344720Y-57632361D01*
X301319742Y-57584741D01*
X301298879Y-57534736D01*
X301282338Y-57482571D01*
X301270329Y-57428475D01*
X301269680Y-57424719D01*
X301267131Y-57405676D01*
X301265192Y-57382990D01*
X301263893Y-57358046D01*
X301263261Y-57332229D01*
X301263328Y-57306925D01*
X301264121Y-57283519D01*
X301265670Y-57263396D01*
X301266184Y-57259003D01*
X301275679Y-57204125D01*
X301289954Y-57150749D01*
X301308881Y-57099143D01*
X301332333Y-57049573D01*
X301360184Y-57002306D01*
X301392305Y-56957608D01*
X301428570Y-56915748D01*
X301431282Y-56912909D01*
X301455246Y-56886137D01*
X301479881Y-56855130D01*
X301504707Y-56820602D01*
X301529246Y-56783265D01*
X301553020Y-56743834D01*
X301575548Y-56703020D01*
X301586470Y-56681769D01*
X301616050Y-56617909D01*
X301640976Y-56553533D01*
X301661443Y-56487989D01*
X301677646Y-56420625D01*
X301689779Y-56350789D01*
X301693344Y-56323629D01*
X301695207Y-56303824D01*
X301696595Y-56280142D01*
X301697508Y-56253712D01*
X301697947Y-56225668D01*
X301697911Y-56197141D01*
X301697402Y-56169264D01*
X301696420Y-56143168D01*
X301694964Y-56119986D01*
X301693263Y-56102649D01*
X301681751Y-56028430D01*
X301665597Y-55956197D01*
X301644757Y-55885835D01*
X301619188Y-55817227D01*
X301588843Y-55750259D01*
X301553679Y-55684815D01*
X301513652Y-55620778D01*
X301500182Y-55601100D01*
X301490790Y-55587949D01*
X301480903Y-55574596D01*
X301471531Y-55562372D01*
X301463681Y-55552612D01*
X301461720Y-55550300D01*
X301436856Y-55519934D01*
X301415452Y-55490089D01*
X301396393Y-55459075D01*
X301378564Y-55425201D01*
X301376742Y-55421459D01*
X301356189Y-55373337D01*
X301340605Y-55324379D01*
X301329989Y-55274802D01*
X301324340Y-55224821D01*
X301323656Y-55174654D01*
X301327936Y-55124515D01*
X301337181Y-55074623D01*
X301351387Y-55025192D01*
X301370555Y-54976440D01*
X301379021Y-54958379D01*
X301404080Y-54912682D01*
X301432812Y-54870108D01*
X301464926Y-54830802D01*
X301500131Y-54794912D01*
X301538135Y-54762587D01*
X301578648Y-54733973D01*
X301621377Y-54709219D01*
X301666032Y-54688471D01*
X301712320Y-54671879D01*
X301759952Y-54659588D01*
X301808635Y-54651748D01*
X301858078Y-54648505D01*
X301907989Y-54650007D01*
G36*
X301903446Y-58901695D02*
G01*
X301943071Y-58905908D01*
X301993410Y-58915579D01*
X302041897Y-58929796D01*
X302088316Y-58948311D01*
X302132450Y-58970873D01*
X302174080Y-58997231D01*
X302212990Y-59027136D01*
X302248961Y-59060338D01*
X302281777Y-59096585D01*
X302311219Y-59135629D01*
X302337070Y-59177218D01*
X302359113Y-59221102D01*
X302377130Y-59267032D01*
X302390904Y-59314756D01*
X302400216Y-59364026D01*
X302404851Y-59414590D01*
X302405351Y-59437669D01*
X302403064Y-59488015D01*
X302396128Y-59536915D01*
X302384435Y-59584824D01*
X302367877Y-59632198D01*
X302349156Y-59673889D01*
X302332207Y-59705949D01*
X302314495Y-59734809D01*
X302295047Y-59761823D01*
X302272894Y-59788345D01*
X302248425Y-59814350D01*
X302216181Y-59844870D01*
X302183407Y-59871311D01*
X302148799Y-59894617D01*
X302111055Y-59915731D01*
X302101821Y-59920362D01*
X302054108Y-59941072D01*
X302005305Y-59956891D01*
X301955693Y-59967819D01*
X301905555Y-59973855D01*
X301855172Y-59975001D01*
X301804828Y-59971255D01*
X301754803Y-59962618D01*
X301705379Y-59949090D01*
X301656839Y-59930671D01*
X301634461Y-59920350D01*
X301588429Y-59895134D01*
X301545552Y-59866092D01*
X301506011Y-59833475D01*
X301469989Y-59797535D01*
X301437668Y-59758525D01*
X301409230Y-59716697D01*
X301384857Y-59672303D01*
X301364731Y-59625594D01*
X301349035Y-59576824D01*
X301337951Y-59526245D01*
X301334839Y-59505483D01*
X301332828Y-59484650D01*
X301331652Y-59460531D01*
X301331307Y-59434813D01*
X301331791Y-59409188D01*
X301333102Y-59385343D01*
X301335021Y-59366549D01*
X301344095Y-59317559D01*
X301357970Y-59269335D01*
X301376377Y-59222370D01*
X301399045Y-59177153D01*
X301425705Y-59134175D01*
X301456084Y-59093929D01*
X301489914Y-59056903D01*
X301521402Y-59028145D01*
X301563748Y-58995845D01*
X301608068Y-58968133D01*
X301654148Y-58945071D01*
X301701773Y-58926722D01*
X301750730Y-58913148D01*
X301800804Y-58904411D01*
X301851781Y-58900572D01*
X301903446Y-58901695D01*
G37*
X301903446Y-58901695D02*
X301943071Y-58905908D01*
X301993410Y-58915579D01*
X302041897Y-58929796D01*
X302088316Y-58948311D01*
X302132450Y-58970873D01*
X302174080Y-58997231D01*
X302212990Y-59027136D01*
X302248961Y-59060338D01*
X302281777Y-59096585D01*
X302311219Y-59135629D01*
X302337070Y-59177218D01*
X302359113Y-59221102D01*
X302377130Y-59267032D01*
X302390904Y-59314756D01*
X302400216Y-59364026D01*
X302404851Y-59414590D01*
X302405351Y-59437669D01*
X302403064Y-59488015D01*
X302396128Y-59536915D01*
X302384435Y-59584824D01*
X302367877Y-59632198D01*
X302349156Y-59673889D01*
X302332207Y-59705949D01*
X302314495Y-59734809D01*
X302295047Y-59761823D01*
X302272894Y-59788345D01*
X302248425Y-59814350D01*
X302216181Y-59844870D01*
X302183407Y-59871311D01*
X302148799Y-59894617D01*
X302111055Y-59915731D01*
X302101821Y-59920362D01*
X302054108Y-59941072D01*
X302005305Y-59956891D01*
X301955693Y-59967819D01*
X301905555Y-59973855D01*
X301855172Y-59975001D01*
X301804828Y-59971255D01*
X301754803Y-59962618D01*
X301705379Y-59949090D01*
X301656839Y-59930671D01*
X301634461Y-59920350D01*
X301588429Y-59895134D01*
X301545552Y-59866092D01*
X301506011Y-59833475D01*
X301469989Y-59797535D01*
X301437668Y-59758525D01*
X301409230Y-59716697D01*
X301384857Y-59672303D01*
X301364731Y-59625594D01*
X301349035Y-59576824D01*
X301337951Y-59526245D01*
X301334839Y-59505483D01*
X301332828Y-59484650D01*
X301331652Y-59460531D01*
X301331307Y-59434813D01*
X301331791Y-59409188D01*
X301333102Y-59385343D01*
X301335021Y-59366549D01*
X301344095Y-59317559D01*
X301357970Y-59269335D01*
X301376377Y-59222370D01*
X301399045Y-59177153D01*
X301425705Y-59134175D01*
X301456084Y-59093929D01*
X301489914Y-59056903D01*
X301521402Y-59028145D01*
X301563748Y-58995845D01*
X301608068Y-58968133D01*
X301654148Y-58945071D01*
X301701773Y-58926722D01*
X301750730Y-58913148D01*
X301800804Y-58904411D01*
X301851781Y-58900572D01*
X301903446Y-58901695D01*
G36*
X301892377Y-52722506D02*
G01*
X301912814Y-52723935D01*
X301926864Y-52725782D01*
X301967603Y-52735315D01*
X302006841Y-52749513D01*
X302044187Y-52768085D01*
X302079251Y-52790741D01*
X302111643Y-52817187D01*
X302140972Y-52847133D01*
X302166847Y-52880288D01*
X302188879Y-52916359D01*
X302193119Y-52924552D01*
X302209485Y-52962761D01*
X302221255Y-53002617D01*
X302228386Y-53043560D01*
X302230836Y-53085030D01*
X302228563Y-53126470D01*
X302221523Y-53167318D01*
X302213558Y-53195811D01*
X302197878Y-53235850D01*
X302178009Y-53273191D01*
X302154198Y-53307617D01*
X302126687Y-53338910D01*
X302095723Y-53366855D01*
X302061549Y-53391233D01*
X302024411Y-53411829D01*
X301984553Y-53428425D01*
X301942219Y-53440805D01*
X301935451Y-53442332D01*
X301918471Y-53445026D01*
X301897932Y-53446726D01*
X301875253Y-53447443D01*
X301851856Y-53447189D01*
X301829161Y-53445977D01*
X301808588Y-53443817D01*
X301793418Y-53441154D01*
X301751299Y-53429199D01*
X301711510Y-53412742D01*
X301674177Y-53391857D01*
X301639429Y-53366616D01*
X301607394Y-53337092D01*
X301602828Y-53332296D01*
X301575099Y-53299030D01*
X301551659Y-53263144D01*
X301532652Y-53224916D01*
X301518225Y-53184625D01*
X301511223Y-53156754D01*
X301508715Y-53141575D01*
X301506745Y-53123239D01*
X301505379Y-53103238D01*
X301504680Y-53083061D01*
X301504713Y-53064198D01*
X301505544Y-53048141D01*
X301506233Y-53041949D01*
X301514624Y-52999351D01*
X301527525Y-52958652D01*
X301544690Y-52920145D01*
X301565874Y-52884123D01*
X301590832Y-52850881D01*
X301619319Y-52820712D01*
X301651090Y-52793910D01*
X301685899Y-52770769D01*
X301723500Y-52751582D01*
X301760191Y-52737727D01*
X301774280Y-52733658D01*
X301790176Y-52729702D01*
X301804964Y-52726569D01*
X301808264Y-52725978D01*
X301826266Y-52723737D01*
X301847412Y-52722410D01*
X301870013Y-52721998D01*
X301892377Y-52722506D01*
G37*
X301892377Y-52722506D02*
X301912814Y-52723935D01*
X301926864Y-52725782D01*
X301967603Y-52735315D01*
X302006841Y-52749513D01*
X302044187Y-52768085D01*
X302079251Y-52790741D01*
X302111643Y-52817187D01*
X302140972Y-52847133D01*
X302166847Y-52880288D01*
X302188879Y-52916359D01*
X302193119Y-52924552D01*
X302209485Y-52962761D01*
X302221255Y-53002617D01*
X302228386Y-53043560D01*
X302230836Y-53085030D01*
X302228563Y-53126470D01*
X302221523Y-53167318D01*
X302213558Y-53195811D01*
X302197878Y-53235850D01*
X302178009Y-53273191D01*
X302154198Y-53307617D01*
X302126687Y-53338910D01*
X302095723Y-53366855D01*
X302061549Y-53391233D01*
X302024411Y-53411829D01*
X301984553Y-53428425D01*
X301942219Y-53440805D01*
X301935451Y-53442332D01*
X301918471Y-53445026D01*
X301897932Y-53446726D01*
X301875253Y-53447443D01*
X301851856Y-53447189D01*
X301829161Y-53445977D01*
X301808588Y-53443817D01*
X301793418Y-53441154D01*
X301751299Y-53429199D01*
X301711510Y-53412742D01*
X301674177Y-53391857D01*
X301639429Y-53366616D01*
X301607394Y-53337092D01*
X301602828Y-53332296D01*
X301575099Y-53299030D01*
X301551659Y-53263144D01*
X301532652Y-53224916D01*
X301518225Y-53184625D01*
X301511223Y-53156754D01*
X301508715Y-53141575D01*
X301506745Y-53123239D01*
X301505379Y-53103238D01*
X301504680Y-53083061D01*
X301504713Y-53064198D01*
X301505544Y-53048141D01*
X301506233Y-53041949D01*
X301514624Y-52999351D01*
X301527525Y-52958652D01*
X301544690Y-52920145D01*
X301565874Y-52884123D01*
X301590832Y-52850881D01*
X301619319Y-52820712D01*
X301651090Y-52793910D01*
X301685899Y-52770769D01*
X301723500Y-52751582D01*
X301760191Y-52737727D01*
X301774280Y-52733658D01*
X301790176Y-52729702D01*
X301804964Y-52726569D01*
X301808264Y-52725978D01*
X301826266Y-52723737D01*
X301847412Y-52722410D01*
X301870013Y-52721998D01*
X301892377Y-52722506D01*
G36*
X301888762Y-61227244D02*
G01*
X301906741Y-61227782D01*
X301921974Y-61228864D01*
X301935624Y-61230642D01*
X301948855Y-61233265D01*
X301962831Y-61236886D01*
X301978631Y-61241630D01*
X302017100Y-61256226D01*
X302053177Y-61275033D01*
X302086537Y-61297733D01*
X302116850Y-61324009D01*
X302143790Y-61353544D01*
X302167030Y-61386018D01*
X302186241Y-61421115D01*
X302200587Y-61456969D01*
X302206681Y-61476065D01*
X302211266Y-61492641D01*
X302214543Y-61508031D01*
X302216714Y-61523571D01*
X302217979Y-61540593D01*
X302218542Y-61560433D01*
X302218626Y-61576349D01*
X302218341Y-61600313D01*
X302217402Y-61620495D01*
X302215625Y-61638167D01*
X302212827Y-61654605D01*
X302208826Y-61671084D01*
X302203439Y-61688877D01*
X302201730Y-61694050D01*
X302186094Y-61732947D01*
X302166143Y-61769284D01*
X302142040Y-61802792D01*
X302123590Y-61823587D01*
X302093740Y-61851372D01*
X302061754Y-61874850D01*
X302027249Y-61894230D01*
X301989841Y-61909722D01*
X301949147Y-61921533D01*
X301940213Y-61923552D01*
X301930659Y-61925321D01*
X301920209Y-61926600D01*
X301907882Y-61927453D01*
X301892692Y-61927941D01*
X301873659Y-61928128D01*
X301868141Y-61928134D01*
X301845458Y-61927930D01*
X301826560Y-61927194D01*
X301810164Y-61925736D01*
X301794986Y-61923364D01*
X301779745Y-61919890D01*
X301763156Y-61915121D01*
X301748355Y-61910347D01*
X301710405Y-61895114D01*
X301675036Y-61875672D01*
X301642510Y-61852332D01*
X301613090Y-61825403D01*
X301587037Y-61795198D01*
X301564615Y-61762026D01*
X301546086Y-61726198D01*
X301531712Y-61688025D01*
X301521755Y-61647818D01*
X301520462Y-61640447D01*
X301516815Y-61610289D01*
X301515378Y-61578881D01*
X301516269Y-61548961D01*
X301516449Y-61546663D01*
X301522351Y-61504184D01*
X301532780Y-61463724D01*
X301547516Y-61425533D01*
X301566345Y-61389861D01*
X301589049Y-61356958D01*
X301615411Y-61327074D01*
X301645215Y-61300460D01*
X301678243Y-61277364D01*
X301714279Y-61258038D01*
X301753107Y-61242731D01*
X301788420Y-61233005D01*
X301798382Y-61230912D01*
X301807585Y-61229372D01*
X301817103Y-61228302D01*
X301828014Y-61227623D01*
X301841393Y-61227252D01*
X301858316Y-61227110D01*
X301866871Y-61227099D01*
X301888762Y-61227244D01*
G37*
X301888762Y-61227244D02*
X301906741Y-61227782D01*
X301921974Y-61228864D01*
X301935624Y-61230642D01*
X301948855Y-61233265D01*
X301962831Y-61236886D01*
X301978631Y-61241630D01*
X302017100Y-61256226D01*
X302053177Y-61275033D01*
X302086537Y-61297733D01*
X302116850Y-61324009D01*
X302143790Y-61353544D01*
X302167030Y-61386018D01*
X302186241Y-61421115D01*
X302200587Y-61456969D01*
X302206681Y-61476065D01*
X302211266Y-61492641D01*
X302214543Y-61508031D01*
X302216714Y-61523571D01*
X302217979Y-61540593D01*
X302218542Y-61560433D01*
X302218626Y-61576349D01*
X302218341Y-61600313D01*
X302217402Y-61620495D01*
X302215625Y-61638167D01*
X302212827Y-61654605D01*
X302208826Y-61671084D01*
X302203439Y-61688877D01*
X302201730Y-61694050D01*
X302186094Y-61732947D01*
X302166143Y-61769284D01*
X302142040Y-61802792D01*
X302123590Y-61823587D01*
X302093740Y-61851372D01*
X302061754Y-61874850D01*
X302027249Y-61894230D01*
X301989841Y-61909722D01*
X301949147Y-61921533D01*
X301940213Y-61923552D01*
X301930659Y-61925321D01*
X301920209Y-61926600D01*
X301907882Y-61927453D01*
X301892692Y-61927941D01*
X301873659Y-61928128D01*
X301868141Y-61928134D01*
X301845458Y-61927930D01*
X301826560Y-61927194D01*
X301810164Y-61925736D01*
X301794986Y-61923364D01*
X301779745Y-61919890D01*
X301763156Y-61915121D01*
X301748355Y-61910347D01*
X301710405Y-61895114D01*
X301675036Y-61875672D01*
X301642510Y-61852332D01*
X301613090Y-61825403D01*
X301587037Y-61795198D01*
X301564615Y-61762026D01*
X301546086Y-61726198D01*
X301531712Y-61688025D01*
X301521755Y-61647818D01*
X301520462Y-61640447D01*
X301516815Y-61610289D01*
X301515378Y-61578881D01*
X301516269Y-61548961D01*
X301516449Y-61546663D01*
X301522351Y-61504184D01*
X301532780Y-61463724D01*
X301547516Y-61425533D01*
X301566345Y-61389861D01*
X301589049Y-61356958D01*
X301615411Y-61327074D01*
X301645215Y-61300460D01*
X301678243Y-61277364D01*
X301714279Y-61258038D01*
X301753107Y-61242731D01*
X301788420Y-61233005D01*
X301798382Y-61230912D01*
X301807585Y-61229372D01*
X301817103Y-61228302D01*
X301828014Y-61227623D01*
X301841393Y-61227252D01*
X301858316Y-61227110D01*
X301866871Y-61227099D01*
X301888762Y-61227244D01*
G36*
X303986501Y-56857821D02*
G01*
X304017844Y-56859386D01*
X304045842Y-56862285D01*
X304072120Y-56866794D01*
X304098304Y-56873190D01*
X304124719Y-56881315D01*
X304170216Y-56899074D01*
X304213005Y-56921016D01*
X304252877Y-56946899D01*
X304289622Y-56976483D01*
X304323030Y-57009525D01*
X304352893Y-57045787D01*
X304379000Y-57085025D01*
X304401142Y-57127000D01*
X304419109Y-57171469D01*
X304432692Y-57218194D01*
X304437532Y-57241027D01*
X304440885Y-57263854D01*
X304443191Y-57289999D01*
X304444409Y-57317802D01*
X304444494Y-57345600D01*
X304443405Y-57371732D01*
X304441420Y-57392194D01*
X304432592Y-57441196D01*
X304419333Y-57487728D01*
X304401593Y-57531892D01*
X304379322Y-57573792D01*
X304352468Y-57613531D01*
X304320981Y-57651213D01*
X304307281Y-57665528D01*
X304295805Y-57677288D01*
X304286205Y-57687748D01*
X304277969Y-57697704D01*
X304270583Y-57707956D01*
X304263531Y-57719299D01*
X304256299Y-57732532D01*
X304248374Y-57748452D01*
X304239240Y-57767858D01*
X304234091Y-57779049D01*
X304204441Y-57848021D01*
X304178614Y-57917310D01*
X304156424Y-57987607D01*
X304137685Y-58059606D01*
X304122213Y-58133997D01*
X304109821Y-58211472D01*
X304102870Y-58267999D01*
X304101651Y-58282363D01*
X304100608Y-58300925D01*
X304099745Y-58322894D01*
X304099066Y-58347476D01*
X304098575Y-58373881D01*
X304098275Y-58401314D01*
X304098171Y-58428985D01*
X304098266Y-58456101D01*
X304098564Y-58481870D01*
X304099068Y-58505499D01*
X304099783Y-58526196D01*
X304100713Y-58543170D01*
X304101500Y-58552479D01*
X304109833Y-58622341D01*
X304119961Y-58688242D01*
X304132092Y-58751047D01*
X304146437Y-58811621D01*
X304163206Y-58870830D01*
X304182610Y-58929539D01*
X304204859Y-58988614D01*
X304211323Y-59004599D01*
X304216879Y-59017514D01*
X304224126Y-59033394D01*
X304232706Y-59051538D01*
X304242266Y-59071245D01*
X304252449Y-59091817D01*
X304262900Y-59112552D01*
X304273264Y-59132750D01*
X304283185Y-59151711D01*
X304292308Y-59168736D01*
X304300278Y-59183123D01*
X304306738Y-59194174D01*
X304310608Y-59200179D01*
X304332225Y-59235253D01*
X304350303Y-59273395D01*
X304364644Y-59313846D01*
X304375052Y-59355847D01*
X304381329Y-59398642D01*
X304383278Y-59441470D01*
X304381726Y-59473774D01*
X304375260Y-59520565D01*
X304364578Y-59564572D01*
X304349612Y-59605944D01*
X304330295Y-59644828D01*
X304306559Y-59681373D01*
X304278336Y-59715726D01*
X304264772Y-59729894D01*
X304230990Y-59760144D01*
X304194521Y-59786142D01*
X304155598Y-59807793D01*
X304114451Y-59825004D01*
X304071312Y-59837681D01*
X304026411Y-59845730D01*
X303979981Y-59849058D01*
X303970823Y-59849149D01*
X303925048Y-59846751D01*
X303880701Y-59839692D01*
X303838060Y-59828168D01*
X303797406Y-59812378D01*
X303759017Y-59792519D01*
X303723172Y-59768788D01*
X303690150Y-59741384D01*
X303660231Y-59710505D01*
X303633693Y-59676347D01*
X303610816Y-59639110D01*
X303591878Y-59598990D01*
X303582684Y-59574102D01*
X303576382Y-59554380D01*
X303571509Y-59536882D01*
X303567890Y-59520431D01*
X303565355Y-59503847D01*
X303563730Y-59485956D01*
X303562843Y-59465578D01*
X303562522Y-59441536D01*
X303562511Y-59436399D01*
X303562548Y-59416645D01*
X303562742Y-59401017D01*
X303563155Y-59388560D01*
X303563852Y-59378319D01*
X303564897Y-59369341D01*
X303566352Y-59360671D01*
X303568153Y-59351946D01*
X303577172Y-59317540D01*
X303588904Y-59283650D01*
X303602859Y-59251415D01*
X303618545Y-59221977D01*
X303634604Y-59197639D01*
X303643565Y-59185292D01*
X303651526Y-59173664D01*
X303659073Y-59161776D01*
X303666793Y-59148652D01*
X303675275Y-59133314D01*
X303685104Y-59114783D01*
X303689849Y-59105673D01*
X303719043Y-59046019D01*
X303744934Y-58985806D01*
X303767673Y-58924487D01*
X303787411Y-58861516D01*
X303804298Y-58796347D01*
X303818485Y-58728433D01*
X303830123Y-58657229D01*
X303839362Y-58582188D01*
X303842166Y-58553749D01*
X303843530Y-58535501D01*
X303844656Y-58513413D01*
X303845540Y-58488387D01*
X303846178Y-58461323D01*
X303846564Y-58433124D01*
X303846694Y-58404691D01*
X303846564Y-58376924D01*
X303846169Y-58350726D01*
X303845504Y-58326998D01*
X303844565Y-58306641D01*
X303843498Y-58292129D01*
X303837231Y-58231732D01*
X303830043Y-58175591D01*
X303821781Y-58122941D01*
X303812293Y-58073017D01*
X303801425Y-58025052D01*
X303789026Y-57978282D01*
X303774942Y-57931941D01*
X303766824Y-57907531D01*
X303755253Y-57874849D01*
X303743634Y-57844572D01*
X303731259Y-57814997D01*
X303717417Y-57784416D01*
X303703262Y-57754919D01*
X303678355Y-57704119D01*
X303658053Y-57686042D01*
X303622661Y-57651224D01*
X303591470Y-57613606D01*
X303564581Y-57573385D01*
X303542091Y-57530755D01*
X303524100Y-57485915D01*
X303510709Y-57439061D01*
X303502015Y-57390388D01*
X303500190Y-57373919D01*
X303498622Y-57353531D01*
X303498020Y-57334568D01*
X303498387Y-57315074D01*
X303499724Y-57293094D01*
X303500267Y-57286289D01*
X303506719Y-57238849D01*
X303517976Y-57192574D01*
X303533828Y-57147819D01*
X303554064Y-57104941D01*
X303578475Y-57064295D01*
X303606849Y-57026236D01*
X303638978Y-56991122D01*
X303674650Y-56959308D01*
X303707757Y-56935022D01*
X303749106Y-56910430D01*
X303792460Y-56890492D01*
X303837730Y-56875232D01*
X303884832Y-56864673D01*
X303933680Y-56858841D01*
X303984186Y-56857758D01*
X303986501Y-56857821D01*
G37*
X303986501Y-56857821D02*
X304017844Y-56859386D01*
X304045842Y-56862285D01*
X304072120Y-56866794D01*
X304098304Y-56873190D01*
X304124719Y-56881315D01*
X304170216Y-56899074D01*
X304213005Y-56921016D01*
X304252877Y-56946899D01*
X304289622Y-56976483D01*
X304323030Y-57009525D01*
X304352893Y-57045787D01*
X304379000Y-57085025D01*
X304401142Y-57127000D01*
X304419109Y-57171469D01*
X304432692Y-57218194D01*
X304437532Y-57241027D01*
X304440885Y-57263854D01*
X304443191Y-57289999D01*
X304444409Y-57317802D01*
X304444494Y-57345600D01*
X304443405Y-57371732D01*
X304441420Y-57392194D01*
X304432592Y-57441196D01*
X304419333Y-57487728D01*
X304401593Y-57531892D01*
X304379322Y-57573792D01*
X304352468Y-57613531D01*
X304320981Y-57651213D01*
X304307281Y-57665528D01*
X304295805Y-57677288D01*
X304286205Y-57687748D01*
X304277969Y-57697704D01*
X304270583Y-57707956D01*
X304263531Y-57719299D01*
X304256299Y-57732532D01*
X304248374Y-57748452D01*
X304239240Y-57767858D01*
X304234091Y-57779049D01*
X304204441Y-57848021D01*
X304178614Y-57917310D01*
X304156424Y-57987607D01*
X304137685Y-58059606D01*
X304122213Y-58133997D01*
X304109821Y-58211472D01*
X304102870Y-58267999D01*
X304101651Y-58282363D01*
X304100608Y-58300925D01*
X304099745Y-58322894D01*
X304099066Y-58347476D01*
X304098575Y-58373881D01*
X304098275Y-58401314D01*
X304098171Y-58428985D01*
X304098266Y-58456101D01*
X304098564Y-58481870D01*
X304099068Y-58505499D01*
X304099783Y-58526196D01*
X304100713Y-58543170D01*
X304101500Y-58552479D01*
X304109833Y-58622341D01*
X304119961Y-58688242D01*
X304132092Y-58751047D01*
X304146437Y-58811621D01*
X304163206Y-58870830D01*
X304182610Y-58929539D01*
X304204859Y-58988614D01*
X304211323Y-59004599D01*
X304216879Y-59017514D01*
X304224126Y-59033394D01*
X304232706Y-59051538D01*
X304242266Y-59071245D01*
X304252449Y-59091817D01*
X304262900Y-59112552D01*
X304273264Y-59132750D01*
X304283185Y-59151711D01*
X304292308Y-59168736D01*
X304300278Y-59183123D01*
X304306738Y-59194174D01*
X304310608Y-59200179D01*
X304332225Y-59235253D01*
X304350303Y-59273395D01*
X304364644Y-59313846D01*
X304375052Y-59355847D01*
X304381329Y-59398642D01*
X304383278Y-59441470D01*
X304381726Y-59473774D01*
X304375260Y-59520565D01*
X304364578Y-59564572D01*
X304349612Y-59605944D01*
X304330295Y-59644828D01*
X304306559Y-59681373D01*
X304278336Y-59715726D01*
X304264772Y-59729894D01*
X304230990Y-59760144D01*
X304194521Y-59786142D01*
X304155598Y-59807793D01*
X304114451Y-59825004D01*
X304071312Y-59837681D01*
X304026411Y-59845730D01*
X303979981Y-59849058D01*
X303970823Y-59849149D01*
X303925048Y-59846751D01*
X303880701Y-59839692D01*
X303838060Y-59828168D01*
X303797406Y-59812378D01*
X303759017Y-59792519D01*
X303723172Y-59768788D01*
X303690150Y-59741384D01*
X303660231Y-59710505D01*
X303633693Y-59676347D01*
X303610816Y-59639110D01*
X303591878Y-59598990D01*
X303582684Y-59574102D01*
X303576382Y-59554380D01*
X303571509Y-59536882D01*
X303567890Y-59520431D01*
X303565355Y-59503847D01*
X303563730Y-59485956D01*
X303562843Y-59465578D01*
X303562522Y-59441536D01*
X303562511Y-59436399D01*
X303562548Y-59416645D01*
X303562742Y-59401017D01*
X303563155Y-59388560D01*
X303563852Y-59378319D01*
X303564897Y-59369341D01*
X303566352Y-59360671D01*
X303568153Y-59351946D01*
X303577172Y-59317540D01*
X303588904Y-59283650D01*
X303602859Y-59251415D01*
X303618545Y-59221977D01*
X303634604Y-59197639D01*
X303643565Y-59185292D01*
X303651526Y-59173664D01*
X303659073Y-59161776D01*
X303666793Y-59148652D01*
X303675275Y-59133314D01*
X303685104Y-59114783D01*
X303689849Y-59105673D01*
X303719043Y-59046019D01*
X303744934Y-58985806D01*
X303767673Y-58924487D01*
X303787411Y-58861516D01*
X303804298Y-58796347D01*
X303818485Y-58728433D01*
X303830123Y-58657229D01*
X303839362Y-58582188D01*
X303842166Y-58553749D01*
X303843530Y-58535501D01*
X303844656Y-58513413D01*
X303845540Y-58488387D01*
X303846178Y-58461323D01*
X303846564Y-58433124D01*
X303846694Y-58404691D01*
X303846564Y-58376924D01*
X303846169Y-58350726D01*
X303845504Y-58326998D01*
X303844565Y-58306641D01*
X303843498Y-58292129D01*
X303837231Y-58231732D01*
X303830043Y-58175591D01*
X303821781Y-58122941D01*
X303812293Y-58073017D01*
X303801425Y-58025052D01*
X303789026Y-57978282D01*
X303774942Y-57931941D01*
X303766824Y-57907531D01*
X303755253Y-57874849D01*
X303743634Y-57844572D01*
X303731259Y-57814997D01*
X303717417Y-57784416D01*
X303703262Y-57754919D01*
X303678355Y-57704119D01*
X303658053Y-57686042D01*
X303622661Y-57651224D01*
X303591470Y-57613606D01*
X303564581Y-57573385D01*
X303542091Y-57530755D01*
X303524100Y-57485915D01*
X303510709Y-57439061D01*
X303502015Y-57390388D01*
X303500190Y-57373919D01*
X303498622Y-57353531D01*
X303498020Y-57334568D01*
X303498387Y-57315074D01*
X303499724Y-57293094D01*
X303500267Y-57286289D01*
X303506719Y-57238849D01*
X303517976Y-57192574D01*
X303533828Y-57147819D01*
X303554064Y-57104941D01*
X303578475Y-57064295D01*
X303606849Y-57026236D01*
X303638978Y-56991122D01*
X303674650Y-56959308D01*
X303707757Y-56935022D01*
X303749106Y-56910430D01*
X303792460Y-56890492D01*
X303837730Y-56875232D01*
X303884832Y-56864673D01*
X303933680Y-56858841D01*
X303984186Y-56857758D01*
X303986501Y-56857821D01*
G36*
X303988167Y-54779954D02*
G01*
X304011680Y-54781074D01*
X304033881Y-54782943D01*
X304053228Y-54785504D01*
X304060161Y-54786778D01*
X304105197Y-54798447D01*
X304147713Y-54814438D01*
X304187512Y-54834557D01*
X304224400Y-54858608D01*
X304258180Y-54886396D01*
X304288657Y-54917728D01*
X304315635Y-54952407D01*
X304338919Y-54990239D01*
X304358311Y-55031029D01*
X304373617Y-55074583D01*
X304381873Y-55106969D01*
X304383807Y-55116448D01*
X304385265Y-55125291D01*
X304386311Y-55134462D01*
X304387013Y-55144926D01*
X304387437Y-55157648D01*
X304387648Y-55173592D01*
X304387712Y-55192059D01*
X304387678Y-55211740D01*
X304387490Y-55227321D01*
X304387082Y-55239778D01*
X304386386Y-55250091D01*
X304385336Y-55259238D01*
X304383865Y-55268196D01*
X304381905Y-55277944D01*
X304381804Y-55278419D01*
X304369704Y-55323756D01*
X304353381Y-55366494D01*
X304332981Y-55406444D01*
X304308650Y-55443419D01*
X304280536Y-55477229D01*
X304248785Y-55507688D01*
X304213543Y-55534606D01*
X304174958Y-55557795D01*
X304157224Y-55566644D01*
X304115390Y-55583567D01*
X304072198Y-55595809D01*
X304028093Y-55603409D01*
X303983519Y-55606405D01*
X303938924Y-55604834D01*
X303894752Y-55598736D01*
X303851449Y-55588146D01*
X303809460Y-55573105D01*
X303769231Y-55553649D01*
X303731936Y-55530332D01*
X303716336Y-55518278D01*
X303699113Y-55503171D01*
X303681449Y-55486192D01*
X303664527Y-55468523D01*
X303649528Y-55451346D01*
X303638068Y-55436464D01*
X303617396Y-55403514D01*
X303599373Y-55367540D01*
X303584568Y-55329917D01*
X303573549Y-55292014D01*
X303568930Y-55269352D01*
X303566795Y-55254322D01*
X303564958Y-55236920D01*
X303563504Y-55218512D01*
X303562517Y-55200465D01*
X303562083Y-55184144D01*
X303562285Y-55170914D01*
X303562575Y-55166659D01*
X303568849Y-55119123D01*
X303578669Y-55075031D01*
X303592191Y-55034040D01*
X303609571Y-54995808D01*
X303630968Y-54959994D01*
X303656538Y-54926255D01*
X303686437Y-54894250D01*
X303688507Y-54892248D01*
X303722897Y-54862588D01*
X303759769Y-54837358D01*
X303799105Y-54816568D01*
X303840886Y-54800225D01*
X303885092Y-54788339D01*
X303925150Y-54781675D01*
X303943361Y-54780196D01*
X303964880Y-54779642D01*
X303988167Y-54779954D01*
G37*
X303988167Y-54779954D02*
X304011680Y-54781074D01*
X304033881Y-54782943D01*
X304053228Y-54785504D01*
X304060161Y-54786778D01*
X304105197Y-54798447D01*
X304147713Y-54814438D01*
X304187512Y-54834557D01*
X304224400Y-54858608D01*
X304258180Y-54886396D01*
X304288657Y-54917728D01*
X304315635Y-54952407D01*
X304338919Y-54990239D01*
X304358311Y-55031029D01*
X304373617Y-55074583D01*
X304381873Y-55106969D01*
X304383807Y-55116448D01*
X304385265Y-55125291D01*
X304386311Y-55134462D01*
X304387013Y-55144926D01*
X304387437Y-55157648D01*
X304387648Y-55173592D01*
X304387712Y-55192059D01*
X304387678Y-55211740D01*
X304387490Y-55227321D01*
X304387082Y-55239778D01*
X304386386Y-55250091D01*
X304385336Y-55259238D01*
X304383865Y-55268196D01*
X304381905Y-55277944D01*
X304381804Y-55278419D01*
X304369704Y-55323756D01*
X304353381Y-55366494D01*
X304332981Y-55406444D01*
X304308650Y-55443419D01*
X304280536Y-55477229D01*
X304248785Y-55507688D01*
X304213543Y-55534606D01*
X304174958Y-55557795D01*
X304157224Y-55566644D01*
X304115390Y-55583567D01*
X304072198Y-55595809D01*
X304028093Y-55603409D01*
X303983519Y-55606405D01*
X303938924Y-55604834D01*
X303894752Y-55598736D01*
X303851449Y-55588146D01*
X303809460Y-55573105D01*
X303769231Y-55553649D01*
X303731936Y-55530332D01*
X303716336Y-55518278D01*
X303699113Y-55503171D01*
X303681449Y-55486192D01*
X303664527Y-55468523D01*
X303649528Y-55451346D01*
X303638068Y-55436464D01*
X303617396Y-55403514D01*
X303599373Y-55367540D01*
X303584568Y-55329917D01*
X303573549Y-55292014D01*
X303568930Y-55269352D01*
X303566795Y-55254322D01*
X303564958Y-55236920D01*
X303563504Y-55218512D01*
X303562517Y-55200465D01*
X303562083Y-55184144D01*
X303562285Y-55170914D01*
X303562575Y-55166659D01*
X303568849Y-55119123D01*
X303578669Y-55075031D01*
X303592191Y-55034040D01*
X303609571Y-54995808D01*
X303630968Y-54959994D01*
X303656538Y-54926255D01*
X303686437Y-54894250D01*
X303688507Y-54892248D01*
X303722897Y-54862588D01*
X303759769Y-54837358D01*
X303799105Y-54816568D01*
X303840886Y-54800225D01*
X303885092Y-54788339D01*
X303925150Y-54781675D01*
X303943361Y-54780196D01*
X303964880Y-54779642D01*
X303988167Y-54779954D01*
%TD*%
M02*
