%TF.GenerationSoftware,KiCad,Pcbnew,(6.0.7)*%
%TF.CreationDate,2023-01-05T19:36:49-06:00*%
%TF.ProjectId,OpenRectangle,4f70656e-5265-4637-9461-6e676c652e6b,rev?*%
%TF.SameCoordinates,Original*%
%TF.FileFunction,Copper,L2,Bot*%
%TF.FilePolarity,Positive*%
%FSLAX46Y46*%
G04 Gerber Fmt 4.6, Leading zero omitted, Abs format (unit mm)*
G04 Created by KiCad (PCBNEW (6.0.7)) date 2023-01-05 19:36:49*
%MOMM*%
%LPD*%
G01*
G04 APERTURE LIST*
G04 Aperture macros list*
%AMRoundRect*
0 Rectangle with rounded corners*
0 $1 Rounding radius*
0 $2 $3 $4 $5 $6 $7 $8 $9 X,Y pos of 4 corners*
0 Add a 4 corners polygon primitive as box body*
4,1,4,$2,$3,$4,$5,$6,$7,$8,$9,$2,$3,0*
0 Add four circle primitives for the rounded corners*
1,1,$1+$1,$2,$3*
1,1,$1+$1,$4,$5*
1,1,$1+$1,$6,$7*
1,1,$1+$1,$8,$9*
0 Add four rect primitives between the rounded corners*
20,1,$1+$1,$2,$3,$4,$5,0*
20,1,$1+$1,$4,$5,$6,$7,0*
20,1,$1+$1,$6,$7,$8,$9,0*
20,1,$1+$1,$8,$9,$2,$3,0*%
G04 Aperture macros list end*
%TA.AperFunction,ComponentPad*%
%ADD10C,3.300000*%
%TD*%
%TA.AperFunction,SMDPad,CuDef*%
%ADD11RoundRect,0.250000X1.000000X-1.025000X1.000000X1.025000X-1.000000X1.025000X-1.000000X-1.025000X0*%
%TD*%
%TA.AperFunction,SMDPad,CuDef*%
%ADD12R,2.500000X1.650000*%
%TD*%
%TA.AperFunction,ComponentPad*%
%ADD13R,1.700000X1.700000*%
%TD*%
%TA.AperFunction,ComponentPad*%
%ADD14O,1.700000X1.700000*%
%TD*%
%TA.AperFunction,Conductor*%
%ADD15C,1.000000*%
%TD*%
G04 APERTURE END LIST*
D10*
%TO.P,SW18,1,1*%
%TO.N,GND*%
X269492234Y-37999100D03*
D11*
X269492234Y-34449100D03*
D12*
X269492234Y-36174100D03*
%TO.P,SW18,2,2*%
%TO.N,C_DN*%
X272032234Y-46149100D03*
D10*
X272032234Y-44349100D03*
D11*
X272032234Y-47899100D03*
%TD*%
D12*
%TO.P,SW16,1,1*%
%TO.N,GND*%
X300677234Y-36174100D03*
D11*
X300677234Y-34449100D03*
D10*
X300677234Y-37999100D03*
D12*
%TO.P,SW16,2,2*%
%TO.N,C_LT*%
X303217234Y-46149100D03*
D10*
X303217234Y-44349100D03*
D11*
X303217234Y-47899100D03*
%TD*%
%TO.P,SW17,1,1*%
%TO.N,GND*%
X316447234Y-57136100D03*
D12*
X316447234Y-58861100D03*
D10*
X316447234Y-60686100D03*
D12*
%TO.P,SW17,2,2*%
%TO.N,C_UP*%
X318987234Y-68836100D03*
D11*
X318987234Y-70586100D03*
D10*
X318987234Y-67036100D03*
%TD*%
D13*
%TO.P,J4,1,Pin_1*%
%TO.N,GND*%
X276465100Y-32225600D03*
D14*
%TO.P,J4,2,Pin_2*%
%TO.N,C_UP*%
X279005100Y-32225600D03*
%TO.P,J4,3,Pin_3*%
%TO.N,C_LT*%
X281545100Y-32225600D03*
%TO.P,J4,4,Pin_4*%
%TO.N,A*%
X284085100Y-32225600D03*
%TO.P,J4,5,Pin_5*%
%TO.N,C_DN*%
X286625100Y-32225600D03*
%TO.P,J4,6,Pin_6*%
%TO.N,C_RT*%
X289165100Y-32225600D03*
%TD*%
D12*
%TO.P,SW19,1,1*%
%TO.N,GND*%
X285262234Y-58861100D03*
D10*
X285262234Y-60686100D03*
D11*
X285262234Y-57136100D03*
%TO.P,SW19,2,2*%
%TO.N,A*%
X287802234Y-70586100D03*
D12*
X287802234Y-68836100D03*
D10*
X287802234Y-67036100D03*
%TD*%
%TO.P,SW20,1,1*%
%TO.N,GND*%
X300677234Y-83343100D03*
D11*
X300677234Y-79793100D03*
D12*
X300677234Y-81518100D03*
D10*
%TO.P,SW20,2,2*%
%TO.N,C_RT*%
X303217234Y-89693100D03*
D12*
X303217234Y-91493100D03*
D11*
X303217234Y-93243100D03*
%TD*%
D15*
%TO.N,C_UP*%
X300910266Y-27090600D02*
X283191696Y-27090600D01*
X279005100Y-31277196D02*
X279005100Y-32225600D01*
%TO.N,A*%
X261450100Y-30400600D02*
X268055282Y-30400600D01*
X271240100Y-50270600D02*
X261450100Y-50270600D01*
%TO.N,C_DN*%
X272032234Y-47899100D02*
X283625100Y-47899100D01*
X286625100Y-44899100D02*
X286625100Y-32225600D01*
%TO.N,A*%
X258450100Y-47270600D02*
X258450100Y-33400600D01*
%TO.N,C_UP*%
X306350100Y-69050600D02*
X306350100Y-32530434D01*
%TO.N,C_LT*%
X303217234Y-44349100D02*
X303217234Y-31290600D01*
%TO.N,C_UP*%
X317522733Y-72050600D02*
X309350100Y-72050600D01*
%TO.N,C_LT*%
X300217234Y-28290600D02*
X284545100Y-28290600D01*
X281545100Y-31290600D02*
X281545100Y-32225600D01*
%TO.N,A*%
X284085100Y-32412307D02*
X284085100Y-32225600D01*
X285377733Y-73010600D02*
X277240100Y-73010600D01*
X274240100Y-70010600D02*
X274240100Y-53270600D01*
X272092279Y-32072779D02*
X272940191Y-32920691D01*
X276609577Y-34440600D02*
X282056807Y-34440600D01*
%TO.N,C_RT*%
X289165100Y-32225600D02*
X289165100Y-61169400D01*
X291297875Y-66318375D02*
X301542678Y-76563178D01*
%TO.N,C_DN*%
X283625100Y-47899100D02*
G75*
G03*
X286625100Y-44899100I0J3000000D01*
G01*
%TO.N,C_UP*%
X317522733Y-72050634D02*
G75*
G03*
X318987234Y-70586100I-33J1464534D01*
G01*
%TO.N,C_RT*%
X301542694Y-76563162D02*
G75*
G02*
X303217234Y-80605914I-4042794J-4042738D01*
G01*
%TO.N,A*%
X274240100Y-70010600D02*
G75*
G03*
X277240100Y-73010600I3000000J0D01*
G01*
%TO.N,C_RT*%
X291297886Y-66318364D02*
G75*
G02*
X289165100Y-61169400I5148914J5148964D01*
G01*
%TO.N,C_LT*%
X281545100Y-31290600D02*
G75*
G02*
X284545100Y-28290600I3000000J0D01*
G01*
%TO.N,A*%
X258450100Y-47270600D02*
G75*
G03*
X261450100Y-50270600I3000000J0D01*
G01*
X268055282Y-30400620D02*
G75*
G02*
X272092279Y-32072779I18J-5709180D01*
G01*
X285377733Y-73010634D02*
G75*
G03*
X287802234Y-70586100I-33J2424534D01*
G01*
X272940202Y-32920680D02*
G75*
G03*
X276609577Y-34440600I3669398J3669380D01*
G01*
%TO.N,C_UP*%
X279005100Y-31277196D02*
G75*
G02*
X283191696Y-27090600I4186600J-4D01*
G01*
X309350100Y-72050600D02*
G75*
G02*
X306350100Y-69050600I0J3000000D01*
G01*
%TO.N,A*%
X284085100Y-32412307D02*
G75*
G02*
X282056807Y-34440600I-2028300J7D01*
G01*
%TO.N,C_UP*%
X300910266Y-27090600D02*
G75*
G02*
X306350100Y-32530434I34J-5439800D01*
G01*
%TO.N,A*%
X271240100Y-50270600D02*
G75*
G02*
X274240100Y-53270600I0J-3000000D01*
G01*
X261450100Y-30400600D02*
G75*
G03*
X258450100Y-33400600I0J-3000000D01*
G01*
%TO.N,C_LT*%
X300217234Y-28290566D02*
G75*
G02*
X303217234Y-31290600I-34J-3000034D01*
G01*
%TO.N,C_RT*%
X303217234Y-80605914D02*
X303217234Y-89693100D01*
%TD*%
%TA.AperFunction,Conductor*%
%TO.N,GND*%
G36*
X300167452Y-29299885D02*
G01*
X300203074Y-29303881D01*
X300232098Y-29301444D01*
X300250879Y-29301272D01*
X300318442Y-29305701D01*
X300468925Y-29315567D01*
X300485264Y-29317718D01*
X300677536Y-29355965D01*
X300724569Y-29365321D01*
X300740479Y-29369584D01*
X300845408Y-29405203D01*
X300971521Y-29448014D01*
X300986747Y-29454321D01*
X301078142Y-29499392D01*
X301205581Y-29562239D01*
X301219837Y-29570470D01*
X301422725Y-29706037D01*
X301435788Y-29716063D01*
X301619232Y-29876941D01*
X301630874Y-29888583D01*
X301791754Y-30072033D01*
X301801778Y-30085095D01*
X301889418Y-30216259D01*
X301937337Y-30287976D01*
X301945575Y-30302245D01*
X302021495Y-30456196D01*
X302053488Y-30521072D01*
X302059794Y-30536297D01*
X302125542Y-30729985D01*
X302138220Y-30767335D01*
X302142486Y-30783255D01*
X302190085Y-31022557D01*
X302192236Y-31038897D01*
X302205653Y-31243600D01*
X302205138Y-31265883D01*
X302203953Y-31276451D01*
X302205203Y-31291341D01*
X302208292Y-31328124D01*
X302208734Y-31338667D01*
X302208734Y-32635574D01*
X302188732Y-32703695D01*
X302135076Y-32750188D01*
X302064802Y-32760292D01*
X302016618Y-32742834D01*
X302005991Y-32736284D01*
X301992810Y-32730137D01*
X301838524Y-32678962D01*
X301825148Y-32676095D01*
X301730796Y-32666428D01*
X301724379Y-32666100D01*
X300949349Y-32666100D01*
X300934110Y-32670575D01*
X300932905Y-32671965D01*
X300931234Y-32679648D01*
X300931234Y-36302100D01*
X300911232Y-36370221D01*
X300857576Y-36416714D01*
X300805234Y-36428100D01*
X300549234Y-36428100D01*
X300481113Y-36408098D01*
X300434620Y-36354442D01*
X300423234Y-36302100D01*
X300423234Y-34721215D01*
X300418759Y-34705976D01*
X300417369Y-34704771D01*
X300409686Y-34703100D01*
X298937350Y-34703100D01*
X298922111Y-34707575D01*
X298920906Y-34708965D01*
X298919235Y-34716648D01*
X298919235Y-35300995D01*
X298919234Y-35301027D01*
X298919234Y-35365555D01*
X298899232Y-35433676D01*
X298845576Y-35480169D01*
X298775302Y-35490273D01*
X298730901Y-35475056D01*
X298724293Y-35471295D01*
X298724290Y-35471293D01*
X298719644Y-35468649D01*
X298498945Y-35388539D01*
X298493696Y-35387590D01*
X298493693Y-35387589D01*
X298412619Y-35372929D01*
X298267904Y-35346760D01*
X298263765Y-35346565D01*
X298263758Y-35346564D01*
X298244794Y-35345670D01*
X298244785Y-35345670D01*
X298243305Y-35345600D01*
X298078284Y-35345600D01*
X297996935Y-35352503D01*
X297908597Y-35359998D01*
X297908593Y-35359999D01*
X297903286Y-35360449D01*
X297898131Y-35361787D01*
X297898125Y-35361788D01*
X297720411Y-35407914D01*
X297676028Y-35419433D01*
X297671162Y-35421625D01*
X297671159Y-35421626D01*
X297466817Y-35513676D01*
X297466814Y-35513677D01*
X297461956Y-35515866D01*
X297267193Y-35646988D01*
X297097307Y-35809051D01*
X296957156Y-35997421D01*
X296850747Y-36206712D01*
X296781123Y-36430940D01*
X296750273Y-36663693D01*
X296759082Y-36898316D01*
X296807296Y-37128101D01*
X296893536Y-37346477D01*
X297015338Y-37547200D01*
X297169219Y-37724532D01*
X297173351Y-37727920D01*
X297346650Y-37870017D01*
X297346656Y-37870021D01*
X297350778Y-37873401D01*
X297355414Y-37876040D01*
X297355417Y-37876042D01*
X297415082Y-37910005D01*
X297554824Y-37989551D01*
X297775523Y-38069661D01*
X297780772Y-38070610D01*
X297780775Y-38070611D01*
X297861849Y-38085271D01*
X298006564Y-38111440D01*
X298010703Y-38111635D01*
X298010710Y-38111636D01*
X298029674Y-38112530D01*
X298029683Y-38112530D01*
X298031163Y-38112600D01*
X298196184Y-38112600D01*
X298277533Y-38105697D01*
X298365871Y-38098202D01*
X298365875Y-38098201D01*
X298371182Y-38097751D01*
X298376341Y-38096412D01*
X298380903Y-38095632D01*
X298451420Y-38103869D01*
X298506289Y-38148924D01*
X298527925Y-38212578D01*
X298531000Y-38265913D01*
X298532073Y-38274413D01*
X298587071Y-38554736D01*
X298589282Y-38562988D01*
X298681815Y-38833257D01*
X298685130Y-38841142D01*
X298813485Y-39096347D01*
X298817841Y-39103713D01*
X298871825Y-39182259D01*
X298893925Y-39249728D01*
X298876040Y-39318435D01*
X298823848Y-39366565D01*
X298753920Y-39378839D01*
X298744375Y-39377394D01*
X298455388Y-39322267D01*
X298451488Y-39321523D01*
X298357934Y-39315637D01*
X298217876Y-39306825D01*
X298217860Y-39306824D01*
X298215881Y-39306700D01*
X298058587Y-39306700D01*
X298056608Y-39306824D01*
X298056592Y-39306825D01*
X297916534Y-39315637D01*
X297822980Y-39321523D01*
X297513682Y-39380525D01*
X297214218Y-39477827D01*
X297210632Y-39479514D01*
X297210628Y-39479516D01*
X296932896Y-39610206D01*
X296932889Y-39610210D01*
X296929310Y-39611894D01*
X296663452Y-39780613D01*
X296420836Y-39981322D01*
X296205289Y-40210856D01*
X296202962Y-40214058D01*
X296202961Y-40214060D01*
X296132883Y-40310515D01*
X296020210Y-40465596D01*
X295868518Y-40741523D01*
X295752604Y-41034287D01*
X295674298Y-41339270D01*
X295634834Y-41651662D01*
X295634834Y-41966538D01*
X295674298Y-42278930D01*
X295752604Y-42583913D01*
X295754057Y-42587582D01*
X295754057Y-42587583D01*
X295776630Y-42644596D01*
X295868518Y-42876677D01*
X295870420Y-42880136D01*
X295870421Y-42880139D01*
X295927738Y-42984397D01*
X296020210Y-43152604D01*
X296205289Y-43407344D01*
X296420836Y-43636878D01*
X296663452Y-43837587D01*
X296929310Y-44006306D01*
X296932889Y-44007990D01*
X296932896Y-44007994D01*
X297210628Y-44138684D01*
X297210632Y-44138686D01*
X297214218Y-44140373D01*
X297513682Y-44237675D01*
X297822980Y-44296677D01*
X297916534Y-44302563D01*
X298056592Y-44311375D01*
X298056608Y-44311376D01*
X298058587Y-44311500D01*
X298215881Y-44311500D01*
X298217860Y-44311376D01*
X298217876Y-44311375D01*
X298357934Y-44302563D01*
X298451488Y-44296677D01*
X298760786Y-44237675D01*
X299060250Y-44140373D01*
X299063836Y-44138686D01*
X299063840Y-44138684D01*
X299341572Y-44007994D01*
X299341579Y-44007990D01*
X299345158Y-44006306D01*
X299611016Y-43837587D01*
X299853632Y-43636878D01*
X300069179Y-43407344D01*
X300254258Y-43152604D01*
X300346731Y-42984397D01*
X300404047Y-42880139D01*
X300404048Y-42880136D01*
X300405950Y-42876677D01*
X300497838Y-42644596D01*
X300520411Y-42587583D01*
X300520411Y-42587582D01*
X300521864Y-42583913D01*
X300600170Y-42278930D01*
X300639634Y-41966538D01*
X300639634Y-41651662D01*
X300600170Y-41339270D01*
X300521864Y-41034287D01*
X300405950Y-40741523D01*
X300254258Y-40465596D01*
X300147223Y-40318275D01*
X300123366Y-40251409D01*
X300139446Y-40182258D01*
X300190360Y-40132778D01*
X300259942Y-40118678D01*
X300268219Y-40119666D01*
X300491993Y-40153908D01*
X300500527Y-40154624D01*
X300786148Y-40159112D01*
X300794699Y-40158663D01*
X301078290Y-40124345D01*
X301086691Y-40122743D01*
X301363014Y-40050251D01*
X301371116Y-40047524D01*
X301635039Y-39938203D01*
X301642701Y-39934400D01*
X301889347Y-39790272D01*
X301896412Y-39785471D01*
X302004987Y-39700337D01*
X302070936Y-39674045D01*
X302140630Y-39687580D01*
X302191943Y-39736647D01*
X302208734Y-39799491D01*
X302208734Y-42365660D01*
X302188732Y-42433781D01*
X302147441Y-42473775D01*
X302068695Y-42520903D01*
X301986152Y-42570304D01*
X301986148Y-42570307D01*
X301982470Y-42572508D01*
X301752783Y-42756522D01*
X301749839Y-42759624D01*
X301749835Y-42759628D01*
X301553145Y-42966896D01*
X301550195Y-42970005D01*
X301378454Y-43209008D01*
X301240738Y-43469107D01*
X301139596Y-43745490D01*
X301076900Y-44033043D01*
X301053809Y-44326444D01*
X301070750Y-44620264D01*
X301071575Y-44624471D01*
X301071576Y-44624476D01*
X301094695Y-44742310D01*
X301127411Y-44909066D01*
X301128798Y-44913116D01*
X301128799Y-44913121D01*
X301215770Y-45167141D01*
X301222743Y-45187507D01*
X301354981Y-45450434D01*
X301357407Y-45453963D01*
X301357410Y-45453969D01*
X301436574Y-45569152D01*
X301458734Y-45640519D01*
X301458734Y-48974500D01*
X301469708Y-49080266D01*
X301471889Y-49086802D01*
X301471889Y-49086804D01*
X301506847Y-49191586D01*
X301525684Y-49248046D01*
X301618756Y-49398448D01*
X301743931Y-49523405D01*
X301750161Y-49527245D01*
X301750162Y-49527246D01*
X301887324Y-49611794D01*
X301894496Y-49616215D01*
X301909143Y-49621073D01*
X302055845Y-49669732D01*
X302055847Y-49669732D01*
X302062373Y-49671897D01*
X302069209Y-49672597D01*
X302069212Y-49672598D01*
X302112265Y-49677009D01*
X302166834Y-49682600D01*
X304267634Y-49682600D01*
X304270880Y-49682263D01*
X304270884Y-49682263D01*
X304366542Y-49672338D01*
X304366546Y-49672337D01*
X304373400Y-49671626D01*
X304379936Y-49669445D01*
X304379938Y-49669445D01*
X304524925Y-49621073D01*
X304541180Y-49615650D01*
X304691582Y-49522578D01*
X304816539Y-49397403D01*
X304820380Y-49391172D01*
X304905509Y-49253068D01*
X304905510Y-49253066D01*
X304909349Y-49246838D01*
X304935798Y-49167095D01*
X304962866Y-49085489D01*
X304962866Y-49085487D01*
X304965031Y-49078961D01*
X304975734Y-48974500D01*
X304975734Y-45642589D01*
X304995736Y-45574468D01*
X305000187Y-45567995D01*
X305041437Y-45511840D01*
X305043975Y-45508385D01*
X305046021Y-45504617D01*
X305104869Y-45396232D01*
X305154952Y-45345911D01*
X305224290Y-45330654D01*
X305290869Y-45355306D01*
X305333551Y-45412041D01*
X305341600Y-45456354D01*
X305341600Y-68986781D01*
X305340815Y-69000825D01*
X305336819Y-69036451D01*
X305337429Y-69043713D01*
X305337281Y-69046462D01*
X305337249Y-69048751D01*
X305337158Y-69048750D01*
X305337058Y-69050612D01*
X305337318Y-69050600D01*
X305354296Y-69417816D01*
X305354436Y-69420853D01*
X305354836Y-69423720D01*
X305398953Y-69739984D01*
X305405643Y-69787947D01*
X305490503Y-70148750D01*
X305608292Y-70500184D01*
X305758005Y-70839251D01*
X305759427Y-70841804D01*
X305759429Y-70841808D01*
X305870114Y-71040525D01*
X305938364Y-71163058D01*
X306147831Y-71468841D01*
X306384618Y-71753994D01*
X306646706Y-72016082D01*
X306931859Y-72252869D01*
X307237642Y-72462336D01*
X307240195Y-72463758D01*
X307529801Y-72625067D01*
X307561449Y-72642695D01*
X307900516Y-72792408D01*
X308251950Y-72910197D01*
X308254783Y-72910863D01*
X308254789Y-72910865D01*
X308415036Y-72948554D01*
X308612753Y-72995057D01*
X308615638Y-72995459D01*
X308615641Y-72995460D01*
X308797228Y-73020790D01*
X308979847Y-73046264D01*
X308982731Y-73046397D01*
X308982738Y-73046398D01*
X309297939Y-73060971D01*
X309307908Y-73061830D01*
X309318316Y-73063145D01*
X309318328Y-73063146D01*
X309321805Y-73063585D01*
X309328138Y-73063673D01*
X309346577Y-73063931D01*
X309346580Y-73063931D01*
X309350100Y-73063980D01*
X309393739Y-73059701D01*
X309406036Y-73059100D01*
X317451017Y-73059100D01*
X317466806Y-73060093D01*
X317494461Y-73063586D01*
X317497968Y-73063635D01*
X317497970Y-73063635D01*
X317506825Y-73063758D01*
X317522756Y-73063980D01*
X317526243Y-73063638D01*
X317526245Y-73063638D01*
X317528169Y-73063449D01*
X317529102Y-73063358D01*
X317533772Y-73062988D01*
X317821387Y-73045584D01*
X317825115Y-73044901D01*
X317825121Y-73044900D01*
X318111916Y-72992336D01*
X318111920Y-72992335D01*
X318115663Y-72991649D01*
X318401293Y-72902638D01*
X318486942Y-72864089D01*
X318644141Y-72793336D01*
X318674111Y-72779847D01*
X318677375Y-72777874D01*
X318926881Y-72627037D01*
X318926886Y-72627034D01*
X318930139Y-72625067D01*
X319165645Y-72440556D01*
X319199694Y-72406506D01*
X319262006Y-72372480D01*
X319288791Y-72369600D01*
X320037634Y-72369600D01*
X320040880Y-72369263D01*
X320040884Y-72369263D01*
X320136542Y-72359338D01*
X320136546Y-72359337D01*
X320143400Y-72358626D01*
X320149936Y-72356445D01*
X320149938Y-72356445D01*
X320304232Y-72304968D01*
X320311180Y-72302650D01*
X320461582Y-72209578D01*
X320586539Y-72084403D01*
X320590380Y-72078172D01*
X320675509Y-71940068D01*
X320675510Y-71940066D01*
X320679349Y-71933838D01*
X320735031Y-71765961D01*
X320745734Y-71661500D01*
X320745734Y-68329589D01*
X320765736Y-68261468D01*
X320770187Y-68254995D01*
X320811437Y-68198840D01*
X320813975Y-68195385D01*
X320909363Y-68019702D01*
X320952356Y-67940518D01*
X320952357Y-67940516D01*
X320954406Y-67936742D01*
X321058437Y-67661433D01*
X321124141Y-67374553D01*
X321129771Y-67311476D01*
X321150083Y-67083876D01*
X321150083Y-67083874D01*
X321150303Y-67081410D01*
X321150778Y-67036100D01*
X321149489Y-67017186D01*
X321131053Y-66746750D01*
X321131052Y-66746744D01*
X321130761Y-66742473D01*
X321071079Y-66454280D01*
X320972837Y-66176853D01*
X320837852Y-65915326D01*
X320821823Y-65892518D01*
X320671090Y-65678048D01*
X320671089Y-65678047D01*
X320668623Y-65674538D01*
X320468282Y-65458944D01*
X320446170Y-65440845D01*
X320250618Y-65280789D01*
X320240534Y-65272535D01*
X319989595Y-65118760D01*
X319970940Y-65110571D01*
X319724036Y-65002187D01*
X319724032Y-65002186D01*
X319720108Y-65000463D01*
X319437060Y-64919835D01*
X319432818Y-64919231D01*
X319432812Y-64919230D01*
X319149939Y-64878971D01*
X319145688Y-64878366D01*
X318990540Y-64877554D01*
X318855670Y-64876847D01*
X318855664Y-64876847D01*
X318851384Y-64876825D01*
X318847140Y-64877384D01*
X318847136Y-64877384D01*
X318718575Y-64894310D01*
X318559594Y-64915240D01*
X318555454Y-64916373D01*
X318555452Y-64916373D01*
X318360284Y-64969765D01*
X318275717Y-64992900D01*
X318271767Y-64994585D01*
X318008948Y-65106686D01*
X318008941Y-65106690D01*
X318005006Y-65108368D01*
X317907175Y-65166919D01*
X317756152Y-65257304D01*
X317756148Y-65257307D01*
X317752470Y-65259508D01*
X317522783Y-65443522D01*
X317519839Y-65446624D01*
X317519835Y-65446628D01*
X317336428Y-65639899D01*
X317320195Y-65657005D01*
X317148454Y-65896008D01*
X317010738Y-66156107D01*
X316909596Y-66432490D01*
X316846900Y-66720043D01*
X316823809Y-67013444D01*
X316840750Y-67307264D01*
X316841575Y-67311471D01*
X316841576Y-67311476D01*
X316868384Y-67448114D01*
X316897411Y-67596066D01*
X316898798Y-67600116D01*
X316898799Y-67600121D01*
X316991354Y-67870451D01*
X316992743Y-67874507D01*
X317124981Y-68137434D01*
X317127407Y-68140963D01*
X317127410Y-68140969D01*
X317206574Y-68256152D01*
X317228734Y-68327519D01*
X317228734Y-70916100D01*
X317208732Y-70984221D01*
X317155076Y-71030714D01*
X317102734Y-71042100D01*
X314607882Y-71042100D01*
X314539761Y-71022098D01*
X314493268Y-70968442D01*
X314483164Y-70898168D01*
X314512658Y-70833588D01*
X314556131Y-70801218D01*
X314577650Y-70791524D01*
X314582512Y-70789334D01*
X314777275Y-70658212D01*
X314811965Y-70625120D01*
X314872372Y-70567494D01*
X314947161Y-70496149D01*
X315087312Y-70307779D01*
X315090506Y-70301498D01*
X315191303Y-70103244D01*
X315191303Y-70103243D01*
X315193721Y-70098488D01*
X315263345Y-69874260D01*
X315272539Y-69804892D01*
X315293495Y-69646790D01*
X315293495Y-69646787D01*
X315294195Y-69641507D01*
X315291362Y-69566038D01*
X315289484Y-69516023D01*
X315285386Y-69406884D01*
X315263442Y-69302301D01*
X315238269Y-69182326D01*
X315238268Y-69182323D01*
X315237172Y-69177099D01*
X315150932Y-68958723D01*
X315029130Y-68758000D01*
X314875249Y-68580668D01*
X314865172Y-68572406D01*
X314697818Y-68435183D01*
X314697812Y-68435179D01*
X314693690Y-68431799D01*
X314689054Y-68429160D01*
X314689051Y-68429158D01*
X314494287Y-68318292D01*
X314489644Y-68315649D01*
X314268945Y-68235539D01*
X314263696Y-68234590D01*
X314263693Y-68234589D01*
X314163315Y-68216438D01*
X314037904Y-68193760D01*
X314033765Y-68193565D01*
X314033758Y-68193564D01*
X314014794Y-68192670D01*
X314014785Y-68192670D01*
X314013305Y-68192600D01*
X313848284Y-68192600D01*
X313774745Y-68198840D01*
X313678597Y-68206998D01*
X313678593Y-68206999D01*
X313673286Y-68207449D01*
X313668131Y-68208787D01*
X313668125Y-68208788D01*
X313490411Y-68254914D01*
X313446028Y-68266433D01*
X313441162Y-68268625D01*
X313441159Y-68268626D01*
X313236817Y-68360676D01*
X313236814Y-68360677D01*
X313231956Y-68362866D01*
X313037193Y-68493988D01*
X312867307Y-68656051D01*
X312727156Y-68844421D01*
X312724740Y-68849172D01*
X312724738Y-68849176D01*
X312647633Y-69000831D01*
X312620747Y-69053712D01*
X312551123Y-69277940D01*
X312550422Y-69283229D01*
X312533326Y-69412216D01*
X312520273Y-69510693D01*
X312529082Y-69745316D01*
X312541582Y-69804892D01*
X312555028Y-69868971D01*
X312577296Y-69975101D01*
X312663536Y-70193477D01*
X312666305Y-70198040D01*
X312731032Y-70304706D01*
X312785338Y-70394200D01*
X312939219Y-70571532D01*
X312943351Y-70574920D01*
X313116650Y-70717017D01*
X313116656Y-70717021D01*
X313120778Y-70720401D01*
X313125414Y-70723040D01*
X313125417Y-70723042D01*
X313272204Y-70806598D01*
X313321511Y-70857681D01*
X313335372Y-70927311D01*
X313309389Y-70993382D01*
X313251809Y-71034916D01*
X313209872Y-71042100D01*
X309413919Y-71042100D01*
X309399874Y-71041315D01*
X309387340Y-71039909D01*
X309364249Y-71037319D01*
X309335454Y-71039737D01*
X309316672Y-71039909D01*
X309240496Y-71034916D01*
X309098399Y-71025602D01*
X309082059Y-71023451D01*
X308958843Y-70998942D01*
X308842757Y-70975851D01*
X308826843Y-70971587D01*
X308667835Y-70917611D01*
X308595808Y-70893161D01*
X308580581Y-70886854D01*
X308361758Y-70778943D01*
X308347484Y-70770702D01*
X308144622Y-70635153D01*
X308131547Y-70625120D01*
X307948107Y-70464248D01*
X307936452Y-70452593D01*
X307775580Y-70269153D01*
X307765547Y-70256078D01*
X307629998Y-70053216D01*
X307621757Y-70038942D01*
X307513846Y-69820119D01*
X307507539Y-69804892D01*
X307456447Y-69654379D01*
X307429113Y-69573857D01*
X307424848Y-69557940D01*
X307377249Y-69318641D01*
X307375098Y-69302301D01*
X307362143Y-69104655D01*
X307362707Y-69085915D01*
X307362398Y-69085893D01*
X307362643Y-69082397D01*
X307363085Y-69078895D01*
X307363283Y-69064747D01*
X307363431Y-69054123D01*
X307363431Y-69054120D01*
X307363480Y-69050600D01*
X307359201Y-69006960D01*
X307358600Y-68994664D01*
X307358600Y-64653538D01*
X311404834Y-64653538D01*
X311444298Y-64965930D01*
X311522604Y-65270913D01*
X311524057Y-65274582D01*
X311524057Y-65274583D01*
X311525209Y-65277493D01*
X311638518Y-65563677D01*
X311640420Y-65567136D01*
X311640421Y-65567139D01*
X311715170Y-65703106D01*
X311790210Y-65839604D01*
X311975289Y-66094344D01*
X312190836Y-66323878D01*
X312433452Y-66524587D01*
X312699310Y-66693306D01*
X312702889Y-66694990D01*
X312702896Y-66694994D01*
X312980628Y-66825684D01*
X312980632Y-66825686D01*
X312984218Y-66827373D01*
X313283682Y-66924675D01*
X313592980Y-66983677D01*
X313686534Y-66989563D01*
X313826592Y-66998375D01*
X313826608Y-66998376D01*
X313828587Y-66998500D01*
X313985881Y-66998500D01*
X313987860Y-66998376D01*
X313987876Y-66998375D01*
X314127934Y-66989563D01*
X314221488Y-66983677D01*
X314530786Y-66924675D01*
X314830250Y-66827373D01*
X314833836Y-66825686D01*
X314833840Y-66825684D01*
X315111572Y-66694994D01*
X315111579Y-66694990D01*
X315115158Y-66693306D01*
X315381016Y-66524587D01*
X315623632Y-66323878D01*
X315839179Y-66094344D01*
X316024258Y-65839604D01*
X316099299Y-65703106D01*
X316174047Y-65567139D01*
X316174048Y-65567136D01*
X316175950Y-65563677D01*
X316289259Y-65277493D01*
X316290411Y-65274583D01*
X316290411Y-65274582D01*
X316291864Y-65270913D01*
X316370170Y-64965930D01*
X316409634Y-64653538D01*
X316409634Y-64338662D01*
X316370170Y-64026270D01*
X316291864Y-63721287D01*
X316175950Y-63428523D01*
X316141483Y-63365828D01*
X316026167Y-63156068D01*
X316026165Y-63156065D01*
X316024258Y-63152596D01*
X315917223Y-63005275D01*
X315893366Y-62938409D01*
X315909446Y-62869258D01*
X315960360Y-62819778D01*
X316029942Y-62805678D01*
X316038219Y-62806666D01*
X316261993Y-62840908D01*
X316270527Y-62841624D01*
X316556148Y-62846112D01*
X316564699Y-62845663D01*
X316848290Y-62811345D01*
X316856691Y-62809743D01*
X317133014Y-62737251D01*
X317141116Y-62734524D01*
X317405039Y-62625203D01*
X317412701Y-62621400D01*
X317659337Y-62477277D01*
X317666424Y-62472461D01*
X317768731Y-62392243D01*
X317777202Y-62380383D01*
X317770686Y-62368762D01*
X316177119Y-60775195D01*
X316143093Y-60712883D01*
X316148158Y-60642068D01*
X316177119Y-60597005D01*
X316358139Y-60415985D01*
X316420451Y-60381959D01*
X316491266Y-60387024D01*
X316536329Y-60415985D01*
X318130267Y-62009923D01*
X318142476Y-62016590D01*
X318153976Y-62007900D01*
X318271011Y-61848575D01*
X318275598Y-61841347D01*
X318411901Y-61590309D01*
X318415469Y-61582515D01*
X318516439Y-61315306D01*
X318518916Y-61307100D01*
X318582688Y-61028658D01*
X318584028Y-61020197D01*
X318609583Y-60733864D01*
X318609829Y-60728925D01*
X318610251Y-60688585D01*
X318610108Y-60683619D01*
X318590556Y-60396818D01*
X318589395Y-60388344D01*
X318531465Y-60108612D01*
X318529166Y-60100377D01*
X318433808Y-59831093D01*
X318430411Y-59823243D01*
X318299389Y-59569392D01*
X318294961Y-59562080D01*
X318228147Y-59467014D01*
X318205234Y-59394563D01*
X318205234Y-59133215D01*
X318200759Y-59117976D01*
X318199369Y-59116771D01*
X318191686Y-59115100D01*
X316319234Y-59115100D01*
X316251113Y-59095098D01*
X316204620Y-59041442D01*
X316193234Y-58989100D01*
X316193234Y-58588985D01*
X316701234Y-58588985D01*
X316705709Y-58604224D01*
X316707099Y-58605429D01*
X316714782Y-58607100D01*
X318187118Y-58607100D01*
X318202357Y-58602625D01*
X318203562Y-58601235D01*
X318205233Y-58593552D01*
X318205233Y-58211481D01*
X318205234Y-58211445D01*
X318205234Y-57408215D01*
X318200759Y-57392976D01*
X318199369Y-57391771D01*
X318191686Y-57390100D01*
X316719349Y-57390100D01*
X316704110Y-57394575D01*
X316702905Y-57395965D01*
X316701234Y-57403648D01*
X316701234Y-58588985D01*
X316193234Y-58588985D01*
X316193234Y-57408215D01*
X316188759Y-57392976D01*
X316187369Y-57391771D01*
X316179686Y-57390100D01*
X314707350Y-57390100D01*
X314692111Y-57394575D01*
X314690906Y-57395965D01*
X314689235Y-57403648D01*
X314689235Y-57987995D01*
X314689234Y-57988027D01*
X314689234Y-58052555D01*
X314669232Y-58120676D01*
X314615576Y-58167169D01*
X314545302Y-58177273D01*
X314500901Y-58162056D01*
X314494293Y-58158295D01*
X314494290Y-58158293D01*
X314489644Y-58155649D01*
X314268945Y-58075539D01*
X314263696Y-58074590D01*
X314263693Y-58074589D01*
X314182619Y-58059929D01*
X314037904Y-58033760D01*
X314033765Y-58033565D01*
X314033758Y-58033564D01*
X314014794Y-58032670D01*
X314014785Y-58032670D01*
X314013305Y-58032600D01*
X313848284Y-58032600D01*
X313766935Y-58039503D01*
X313678597Y-58046998D01*
X313678593Y-58046999D01*
X313673286Y-58047449D01*
X313668131Y-58048787D01*
X313668125Y-58048788D01*
X313490411Y-58094914D01*
X313446028Y-58106433D01*
X313441162Y-58108625D01*
X313441159Y-58108626D01*
X313236817Y-58200676D01*
X313236814Y-58200677D01*
X313231956Y-58202866D01*
X313037193Y-58333988D01*
X312867307Y-58496051D01*
X312727156Y-58684421D01*
X312620747Y-58893712D01*
X312551123Y-59117940D01*
X312520273Y-59350693D01*
X312529082Y-59585316D01*
X312577296Y-59815101D01*
X312663536Y-60033477D01*
X312785338Y-60234200D01*
X312939219Y-60411532D01*
X312943351Y-60414920D01*
X313116650Y-60557017D01*
X313116656Y-60557021D01*
X313120778Y-60560401D01*
X313125414Y-60563040D01*
X313125417Y-60563042D01*
X313185082Y-60597005D01*
X313324824Y-60676551D01*
X313545523Y-60756661D01*
X313550772Y-60757610D01*
X313550775Y-60757611D01*
X313631849Y-60772271D01*
X313776564Y-60798440D01*
X313780703Y-60798635D01*
X313780710Y-60798636D01*
X313799674Y-60799530D01*
X313799683Y-60799530D01*
X313801163Y-60799600D01*
X313966184Y-60799600D01*
X314047533Y-60792697D01*
X314135871Y-60785202D01*
X314135875Y-60785201D01*
X314141182Y-60784751D01*
X314146341Y-60783412D01*
X314150903Y-60782632D01*
X314221420Y-60790869D01*
X314276289Y-60835924D01*
X314297925Y-60899578D01*
X314301000Y-60952913D01*
X314302073Y-60961413D01*
X314357071Y-61241736D01*
X314359282Y-61249988D01*
X314451815Y-61520257D01*
X314455130Y-61528142D01*
X314583485Y-61783347D01*
X314587841Y-61790713D01*
X314641825Y-61869259D01*
X314663925Y-61936728D01*
X314646040Y-62005435D01*
X314593848Y-62053565D01*
X314523920Y-62065839D01*
X314514375Y-62064394D01*
X314225388Y-62009267D01*
X314221488Y-62008523D01*
X314127934Y-62002637D01*
X313987876Y-61993825D01*
X313987860Y-61993824D01*
X313985881Y-61993700D01*
X313828587Y-61993700D01*
X313826608Y-61993824D01*
X313826592Y-61993825D01*
X313686534Y-62002637D01*
X313592980Y-62008523D01*
X313283682Y-62067525D01*
X312984218Y-62164827D01*
X312980632Y-62166514D01*
X312980628Y-62166516D01*
X312702896Y-62297206D01*
X312702889Y-62297210D01*
X312699310Y-62298894D01*
X312433452Y-62467613D01*
X312190836Y-62668322D01*
X311975289Y-62897856D01*
X311972962Y-62901058D01*
X311972961Y-62901060D01*
X311943910Y-62941045D01*
X311790210Y-63152596D01*
X311788303Y-63156065D01*
X311788301Y-63156068D01*
X311672985Y-63365828D01*
X311638518Y-63428523D01*
X311522604Y-63721287D01*
X311444298Y-64026270D01*
X311404834Y-64338662D01*
X311404834Y-64653538D01*
X307358600Y-64653538D01*
X307358600Y-54794800D01*
X307378602Y-54726679D01*
X307432258Y-54680186D01*
X307502532Y-54670082D01*
X307567112Y-54699576D01*
X307579220Y-54711596D01*
X307738032Y-54892210D01*
X307937196Y-55066310D01*
X308047309Y-55139585D01*
X308153980Y-55210571D01*
X308153986Y-55210574D01*
X308157422Y-55212861D01*
X308161128Y-55214679D01*
X308161134Y-55214682D01*
X308391222Y-55327527D01*
X308394927Y-55329344D01*
X308398833Y-55330659D01*
X308398835Y-55330660D01*
X308641717Y-55412440D01*
X308641720Y-55412441D01*
X308645629Y-55413757D01*
X308649676Y-55414550D01*
X308649682Y-55414552D01*
X308875948Y-55458910D01*
X308905219Y-55464649D01*
X308909342Y-55464907D01*
X308909345Y-55464907D01*
X308972317Y-55468842D01*
X309134912Y-55479002D01*
X309147548Y-55480436D01*
X309156686Y-55481943D01*
X309161553Y-55481987D01*
X309161555Y-55481987D01*
X309162891Y-55481999D01*
X309169238Y-55482056D01*
X309174049Y-55481351D01*
X309174054Y-55481351D01*
X309195839Y-55478160D01*
X309214098Y-55476830D01*
X314722057Y-55476830D01*
X314790177Y-55496832D01*
X314836670Y-55550488D01*
X314846774Y-55620762D01*
X314829316Y-55668946D01*
X314759418Y-55782343D01*
X314753271Y-55795524D01*
X314702096Y-55949810D01*
X314699229Y-55963186D01*
X314689562Y-56057538D01*
X314689234Y-56063955D01*
X314689234Y-56863985D01*
X314693709Y-56879224D01*
X314695099Y-56880429D01*
X314702782Y-56882100D01*
X318187118Y-56882100D01*
X318202357Y-56877625D01*
X318203562Y-56876235D01*
X318205233Y-56868552D01*
X318205233Y-56064005D01*
X318204896Y-56057486D01*
X318194977Y-55961894D01*
X318192085Y-55948500D01*
X318140646Y-55794316D01*
X318134473Y-55781138D01*
X318065162Y-55669134D01*
X318046324Y-55600682D01*
X318067485Y-55532913D01*
X318121926Y-55487341D01*
X318172306Y-55476831D01*
X321873013Y-55476831D01*
X321892396Y-55478331D01*
X321916104Y-55482022D01*
X321925011Y-55480857D01*
X321928777Y-55480365D01*
X321956096Y-55479780D01*
X322085310Y-55491083D01*
X322106939Y-55494897D01*
X322254263Y-55534370D01*
X322274903Y-55541882D01*
X322413140Y-55606341D01*
X322432154Y-55617319D01*
X322557107Y-55704811D01*
X322573925Y-55718924D01*
X322681776Y-55826775D01*
X322695889Y-55843593D01*
X322783381Y-55968546D01*
X322794359Y-55987560D01*
X322858818Y-56125797D01*
X322866330Y-56146437D01*
X322905803Y-56293761D01*
X322909617Y-56315390D01*
X322920317Y-56437712D01*
X322919762Y-56454194D01*
X322920169Y-56454199D01*
X322920059Y-56463173D01*
X322918678Y-56472044D01*
X322919842Y-56480946D01*
X322922806Y-56503619D01*
X322923869Y-56519953D01*
X322923869Y-72463404D01*
X322922363Y-72482828D01*
X322918680Y-72506433D01*
X322919841Y-72515332D01*
X322919841Y-72515333D01*
X322920333Y-72519103D01*
X322920908Y-72546423D01*
X322909610Y-72675061D01*
X322905787Y-72696694D01*
X322879849Y-72793336D01*
X322866400Y-72843448D01*
X322858877Y-72864089D01*
X322841610Y-72901075D01*
X322797545Y-72995460D01*
X322794600Y-73001767D01*
X322783606Y-73020788D01*
X322753329Y-73063980D01*
X322696387Y-73145211D01*
X322682255Y-73162034D01*
X322574750Y-73269413D01*
X322557911Y-73283525D01*
X322433385Y-73370600D01*
X322414351Y-73381572D01*
X322276599Y-73445687D01*
X322255956Y-73453185D01*
X322112029Y-73491632D01*
X322109149Y-73492401D01*
X322087509Y-73496199D01*
X321965959Y-73506732D01*
X321949276Y-73506156D01*
X321949271Y-73506538D01*
X321940289Y-73506421D01*
X321931425Y-73505033D01*
X321899597Y-73509167D01*
X321883371Y-73510217D01*
X316356479Y-73510049D01*
X309231006Y-73509832D01*
X309210139Y-73508091D01*
X309195063Y-73505559D01*
X309195061Y-73505559D01*
X309190258Y-73504752D01*
X309184256Y-73504680D01*
X309182578Y-73504660D01*
X309182575Y-73504660D01*
X309177706Y-73504602D01*
X309171024Y-73505561D01*
X309161401Y-73506565D01*
X308917665Y-73522561D01*
X308917663Y-73522561D01*
X308913568Y-73522830D01*
X308784858Y-73548400D01*
X308657971Y-73573608D01*
X308657965Y-73573609D01*
X308653936Y-73574410D01*
X308403231Y-73659357D01*
X308399540Y-73661173D01*
X308399538Y-73661174D01*
X308169415Y-73774407D01*
X308169411Y-73774409D01*
X308165721Y-73776225D01*
X307945450Y-73923024D01*
X307746169Y-74097255D01*
X307743457Y-74100336D01*
X307743451Y-74100342D01*
X307600710Y-74262504D01*
X307571270Y-74295950D01*
X307568984Y-74299356D01*
X307568982Y-74299358D01*
X307492125Y-74413848D01*
X307423733Y-74515727D01*
X307306068Y-74752844D01*
X307304732Y-74756743D01*
X307304731Y-74756746D01*
X307260731Y-74885186D01*
X307220280Y-75003263D01*
X307219466Y-75007289D01*
X307219465Y-75007293D01*
X307194054Y-75132992D01*
X307167829Y-75262720D01*
X307167546Y-75266826D01*
X307151956Y-75492765D01*
X307150433Y-75505440D01*
X307149745Y-75509440D01*
X307149744Y-75509450D01*
X307148920Y-75514243D01*
X307148721Y-75526795D01*
X307149394Y-75531616D01*
X307149394Y-75531620D01*
X307152738Y-75555581D01*
X307153947Y-75572995D01*
X307153916Y-83220042D01*
X307153869Y-95123513D01*
X307152369Y-95142893D01*
X307148678Y-95166604D01*
X307149843Y-95175511D01*
X307150335Y-95179277D01*
X307150920Y-95206596D01*
X307139617Y-95335810D01*
X307135803Y-95357439D01*
X307096330Y-95504763D01*
X307088818Y-95525403D01*
X307024359Y-95663640D01*
X307013381Y-95682654D01*
X306925889Y-95807607D01*
X306911776Y-95824425D01*
X306803925Y-95932276D01*
X306787107Y-95946389D01*
X306662154Y-96033881D01*
X306643140Y-96044859D01*
X306504903Y-96109318D01*
X306484263Y-96116830D01*
X306336939Y-96156303D01*
X306315310Y-96160117D01*
X306274493Y-96163687D01*
X306192984Y-96170817D01*
X306176506Y-96170262D01*
X306176501Y-96170669D01*
X306167527Y-96170559D01*
X306158656Y-96169178D01*
X306141508Y-96171420D01*
X306127081Y-96173306D01*
X306110747Y-96174369D01*
X290167187Y-96174369D01*
X290147804Y-96172869D01*
X290124096Y-96169178D01*
X290115189Y-96170343D01*
X290111423Y-96170835D01*
X290084104Y-96171420D01*
X289954890Y-96160117D01*
X289933261Y-96156303D01*
X289785937Y-96116830D01*
X289765297Y-96109318D01*
X289627060Y-96044859D01*
X289608046Y-96033881D01*
X289483093Y-95946389D01*
X289466275Y-95932276D01*
X289358424Y-95824425D01*
X289344311Y-95807607D01*
X289256819Y-95682654D01*
X289245841Y-95663640D01*
X289181382Y-95525403D01*
X289173870Y-95504763D01*
X289134397Y-95357439D01*
X289130583Y-95335810D01*
X289119883Y-95213488D01*
X289120438Y-95197006D01*
X289120031Y-95197001D01*
X289120141Y-95188027D01*
X289121522Y-95179156D01*
X289117395Y-95147587D01*
X289116332Y-95131253D01*
X289116333Y-95123513D01*
X289116458Y-92167693D01*
X296750273Y-92167693D01*
X296759082Y-92402316D01*
X296760177Y-92407534D01*
X296785028Y-92525971D01*
X296807296Y-92632101D01*
X296893536Y-92850477D01*
X297015338Y-93051200D01*
X297169219Y-93228532D01*
X297173351Y-93231920D01*
X297346650Y-93374017D01*
X297346656Y-93374021D01*
X297350778Y-93377401D01*
X297355414Y-93380040D01*
X297355417Y-93380042D01*
X297466642Y-93443355D01*
X297554824Y-93493551D01*
X297775523Y-93573661D01*
X297780772Y-93574610D01*
X297780775Y-93574611D01*
X297861849Y-93589271D01*
X298006564Y-93615440D01*
X298010703Y-93615635D01*
X298010710Y-93615636D01*
X298029674Y-93616530D01*
X298029683Y-93616530D01*
X298031163Y-93616600D01*
X298196184Y-93616600D01*
X298277533Y-93609697D01*
X298365871Y-93602202D01*
X298365875Y-93602201D01*
X298371182Y-93601751D01*
X298376337Y-93600413D01*
X298376343Y-93600412D01*
X298593269Y-93544109D01*
X298593268Y-93544109D01*
X298598440Y-93542767D01*
X298603306Y-93540575D01*
X298603309Y-93540574D01*
X298807651Y-93448524D01*
X298807654Y-93448523D01*
X298812512Y-93446334D01*
X299007275Y-93315212D01*
X299177161Y-93153149D01*
X299317312Y-92964779D01*
X299377953Y-92845508D01*
X299421303Y-92760244D01*
X299421303Y-92760243D01*
X299423721Y-92755488D01*
X299493345Y-92531260D01*
X299510436Y-92402316D01*
X299523495Y-92303790D01*
X299523495Y-92303787D01*
X299524195Y-92298507D01*
X299515386Y-92063884D01*
X299497592Y-91979078D01*
X299468269Y-91839326D01*
X299468268Y-91839323D01*
X299467172Y-91834099D01*
X299380932Y-91615723D01*
X299259130Y-91415000D01*
X299105249Y-91237668D01*
X299095172Y-91229406D01*
X298927818Y-91092183D01*
X298927812Y-91092179D01*
X298923690Y-91088799D01*
X298919054Y-91086160D01*
X298919051Y-91086158D01*
X298724287Y-90975292D01*
X298719644Y-90972649D01*
X298498945Y-90892539D01*
X298493696Y-90891590D01*
X298493693Y-90891589D01*
X298412619Y-90876929D01*
X298267904Y-90850760D01*
X298263765Y-90850565D01*
X298263758Y-90850564D01*
X298244794Y-90849670D01*
X298244785Y-90849670D01*
X298243305Y-90849600D01*
X298078284Y-90849600D01*
X298004745Y-90855840D01*
X297908597Y-90863998D01*
X297908593Y-90863999D01*
X297903286Y-90864449D01*
X297898131Y-90865787D01*
X297898125Y-90865788D01*
X297720411Y-90911914D01*
X297676028Y-90923433D01*
X297671162Y-90925625D01*
X297671159Y-90925626D01*
X297466817Y-91017676D01*
X297466814Y-91017677D01*
X297461956Y-91019866D01*
X297267193Y-91150988D01*
X297097307Y-91313051D01*
X296957156Y-91501421D01*
X296954740Y-91506172D01*
X296954738Y-91506176D01*
X296853165Y-91705956D01*
X296850747Y-91710712D01*
X296781123Y-91934940D01*
X296780422Y-91940229D01*
X296763326Y-92069216D01*
X296750273Y-92167693D01*
X289116458Y-92167693D01*
X289116735Y-85595409D01*
X289116992Y-79520985D01*
X298919234Y-79520985D01*
X298923709Y-79536224D01*
X298925099Y-79537429D01*
X298932782Y-79539100D01*
X300405119Y-79539100D01*
X300420358Y-79534625D01*
X300421563Y-79533235D01*
X300423234Y-79525552D01*
X300423234Y-78028216D01*
X300418759Y-78012977D01*
X300417369Y-78011772D01*
X300409686Y-78010101D01*
X299630139Y-78010101D01*
X299623620Y-78010438D01*
X299528028Y-78020357D01*
X299514634Y-78023249D01*
X299360450Y-78074688D01*
X299347272Y-78080861D01*
X299209427Y-78166163D01*
X299198026Y-78175199D01*
X299083495Y-78289929D01*
X299074483Y-78301340D01*
X298989418Y-78439343D01*
X298983271Y-78452524D01*
X298932096Y-78606810D01*
X298929229Y-78620186D01*
X298919562Y-78714538D01*
X298919234Y-78720955D01*
X298919234Y-79520985D01*
X289116992Y-79520985D01*
X289117158Y-75584374D01*
X289118976Y-75563055D01*
X289121365Y-75549144D01*
X289121366Y-75549133D01*
X289122189Y-75544341D01*
X289122385Y-75531790D01*
X289121688Y-75526795D01*
X289121424Y-75524911D01*
X289120455Y-75515305D01*
X289105291Y-75271720D01*
X289105035Y-75267606D01*
X289104079Y-75262720D01*
X289089071Y-75186067D01*
X289054177Y-75007846D01*
X289052636Y-75003263D01*
X288971098Y-74760885D01*
X288969781Y-74756970D01*
X288853297Y-74519287D01*
X288850135Y-74514531D01*
X288709011Y-74302316D01*
X288709011Y-74302315D01*
X288706726Y-74298880D01*
X288532587Y-74099538D01*
X288529489Y-74096812D01*
X288529485Y-74096808D01*
X288336970Y-73927411D01*
X288336962Y-73927405D01*
X288333871Y-73924685D01*
X288113992Y-73777324D01*
X288108094Y-73774407D01*
X287880435Y-73661820D01*
X287880432Y-73661819D01*
X287876728Y-73659987D01*
X287626156Y-73574691D01*
X287622118Y-73573885D01*
X287622113Y-73573884D01*
X287562895Y-73562069D01*
X287498811Y-73549283D01*
X287435921Y-73516340D01*
X287400825Y-73454624D01*
X287404667Y-73383732D01*
X287448406Y-73324516D01*
X287555745Y-73244907D01*
X287555765Y-73244891D01*
X287558240Y-73243055D01*
X287593597Y-73211009D01*
X287805873Y-73018612D01*
X287805881Y-73018604D01*
X287808166Y-73016533D01*
X287821311Y-73002030D01*
X288032612Y-72768890D01*
X288034684Y-72766604D01*
X288235615Y-72495677D01*
X288247148Y-72476435D01*
X288274487Y-72430823D01*
X288326665Y-72382677D01*
X288382561Y-72369600D01*
X288852634Y-72369600D01*
X288855880Y-72369263D01*
X288855884Y-72369263D01*
X288951542Y-72359338D01*
X288951546Y-72359337D01*
X288958400Y-72358626D01*
X288964936Y-72356445D01*
X288964938Y-72356445D01*
X289119232Y-72304968D01*
X289126180Y-72302650D01*
X289276582Y-72209578D01*
X289401539Y-72084403D01*
X289405380Y-72078172D01*
X289490509Y-71940068D01*
X289490510Y-71940066D01*
X289494349Y-71933838D01*
X289550031Y-71765961D01*
X289560734Y-71661500D01*
X289560734Y-68329589D01*
X289580736Y-68261468D01*
X289585187Y-68254995D01*
X289626437Y-68198840D01*
X289628975Y-68195385D01*
X289724363Y-68019702D01*
X289767356Y-67940518D01*
X289767357Y-67940516D01*
X289769406Y-67936742D01*
X289873437Y-67661433D01*
X289939141Y-67374553D01*
X289944771Y-67311476D01*
X289965083Y-67083876D01*
X289965083Y-67083874D01*
X289965303Y-67081410D01*
X289965778Y-67036100D01*
X289964489Y-67017186D01*
X289946053Y-66746750D01*
X289946052Y-66746744D01*
X289945761Y-66742473D01*
X289931306Y-66672673D01*
X289937078Y-66601912D01*
X289980191Y-66545504D01*
X290046956Y-66521359D01*
X290116176Y-66537143D01*
X290152087Y-66567188D01*
X290209274Y-66636871D01*
X290209287Y-66636886D01*
X290210583Y-66638465D01*
X290439394Y-66882761D01*
X290551063Y-67001987D01*
X290558659Y-67010892D01*
X290559417Y-67011870D01*
X290559426Y-67011881D01*
X290561582Y-67014660D01*
X290581311Y-67034946D01*
X290584025Y-67037176D01*
X290584028Y-67037178D01*
X290615190Y-67062775D01*
X290624310Y-67071045D01*
X300784427Y-77231161D01*
X300793803Y-77241647D01*
X300816170Y-77269666D01*
X300820870Y-77273638D01*
X300820875Y-77273643D01*
X300843574Y-77292825D01*
X300854767Y-77303531D01*
X300927788Y-77382526D01*
X301077186Y-77544146D01*
X301083596Y-77551651D01*
X301284183Y-77806097D01*
X301310646Y-77871975D01*
X301297292Y-77941704D01*
X301248360Y-77993145D01*
X301185231Y-78010100D01*
X300949349Y-78010100D01*
X300934110Y-78014575D01*
X300932905Y-78015965D01*
X300931234Y-78023648D01*
X300931234Y-81646100D01*
X300911232Y-81714221D01*
X300857576Y-81760714D01*
X300805234Y-81772100D01*
X300549234Y-81772100D01*
X300481113Y-81752098D01*
X300434620Y-81698442D01*
X300423234Y-81646100D01*
X300423234Y-80065215D01*
X300418759Y-80049976D01*
X300417369Y-80048771D01*
X300409686Y-80047100D01*
X298937350Y-80047100D01*
X298922111Y-80051575D01*
X298920906Y-80052965D01*
X298919235Y-80060648D01*
X298919235Y-80644995D01*
X298919234Y-80645027D01*
X298919234Y-80709555D01*
X298899232Y-80777676D01*
X298845576Y-80824169D01*
X298775302Y-80834273D01*
X298730901Y-80819056D01*
X298724293Y-80815295D01*
X298724290Y-80815293D01*
X298719644Y-80812649D01*
X298498945Y-80732539D01*
X298493696Y-80731590D01*
X298493693Y-80731589D01*
X298412619Y-80716929D01*
X298267904Y-80690760D01*
X298263765Y-80690565D01*
X298263758Y-80690564D01*
X298244794Y-80689670D01*
X298244785Y-80689670D01*
X298243305Y-80689600D01*
X298078284Y-80689600D01*
X297996935Y-80696503D01*
X297908597Y-80703998D01*
X297908593Y-80703999D01*
X297903286Y-80704449D01*
X297898131Y-80705787D01*
X297898125Y-80705788D01*
X297720411Y-80751914D01*
X297676028Y-80763433D01*
X297671162Y-80765625D01*
X297671159Y-80765626D01*
X297466817Y-80857676D01*
X297466814Y-80857677D01*
X297461956Y-80859866D01*
X297267193Y-80990988D01*
X297097307Y-81153051D01*
X296957156Y-81341421D01*
X296850747Y-81550712D01*
X296781123Y-81774940D01*
X296750273Y-82007693D01*
X296759082Y-82242316D01*
X296807296Y-82472101D01*
X296893536Y-82690477D01*
X297015338Y-82891200D01*
X297169219Y-83068532D01*
X297173351Y-83071920D01*
X297346650Y-83214017D01*
X297346656Y-83214021D01*
X297350778Y-83217401D01*
X297355414Y-83220040D01*
X297355417Y-83220042D01*
X297471876Y-83286334D01*
X297554824Y-83333551D01*
X297775523Y-83413661D01*
X297780772Y-83414610D01*
X297780775Y-83414611D01*
X297861849Y-83429271D01*
X298006564Y-83455440D01*
X298010703Y-83455635D01*
X298010710Y-83455636D01*
X298029674Y-83456530D01*
X298029683Y-83456530D01*
X298031163Y-83456600D01*
X298196184Y-83456600D01*
X298277533Y-83449697D01*
X298365871Y-83442202D01*
X298365875Y-83442201D01*
X298371182Y-83441751D01*
X298376341Y-83440412D01*
X298380903Y-83439632D01*
X298451420Y-83447869D01*
X298506289Y-83492924D01*
X298527925Y-83556578D01*
X298531000Y-83609913D01*
X298532073Y-83618413D01*
X298587071Y-83898736D01*
X298589282Y-83906988D01*
X298681815Y-84177257D01*
X298685130Y-84185142D01*
X298813485Y-84440347D01*
X298817841Y-84447713D01*
X298871825Y-84526259D01*
X298893925Y-84593728D01*
X298876040Y-84662435D01*
X298823848Y-84710565D01*
X298753920Y-84722839D01*
X298744375Y-84721394D01*
X298455388Y-84666267D01*
X298451488Y-84665523D01*
X298357934Y-84659637D01*
X298217876Y-84650825D01*
X298217860Y-84650824D01*
X298215881Y-84650700D01*
X298058587Y-84650700D01*
X298056608Y-84650824D01*
X298056592Y-84650825D01*
X297916534Y-84659637D01*
X297822980Y-84665523D01*
X297513682Y-84724525D01*
X297214218Y-84821827D01*
X297210632Y-84823514D01*
X297210628Y-84823516D01*
X296932896Y-84954206D01*
X296932889Y-84954210D01*
X296929310Y-84955894D01*
X296663452Y-85124613D01*
X296420836Y-85325322D01*
X296205289Y-85554856D01*
X296202962Y-85558058D01*
X296202961Y-85558060D01*
X296132883Y-85654515D01*
X296020210Y-85809596D01*
X295868518Y-86085523D01*
X295752604Y-86378287D01*
X295674298Y-86683270D01*
X295634834Y-86995662D01*
X295634834Y-87310538D01*
X295674298Y-87622930D01*
X295752604Y-87927913D01*
X295754057Y-87931582D01*
X295754057Y-87931583D01*
X295776630Y-87988596D01*
X295868518Y-88220677D01*
X295870420Y-88224136D01*
X295870421Y-88224139D01*
X295927738Y-88328397D01*
X296020210Y-88496604D01*
X296205289Y-88751344D01*
X296420836Y-88980878D01*
X296663452Y-89181587D01*
X296929310Y-89350306D01*
X296932889Y-89351990D01*
X296932896Y-89351994D01*
X297210628Y-89482684D01*
X297210632Y-89482686D01*
X297214218Y-89484373D01*
X297513682Y-89581675D01*
X297822980Y-89640677D01*
X297916534Y-89646563D01*
X298056592Y-89655375D01*
X298056608Y-89655376D01*
X298058587Y-89655500D01*
X298215881Y-89655500D01*
X298217860Y-89655376D01*
X298217876Y-89655375D01*
X298357934Y-89646563D01*
X298451488Y-89640677D01*
X298760786Y-89581675D01*
X299060250Y-89484373D01*
X299063836Y-89482686D01*
X299063840Y-89482684D01*
X299341572Y-89351994D01*
X299341579Y-89351990D01*
X299345158Y-89350306D01*
X299611016Y-89181587D01*
X299853632Y-88980878D01*
X300069179Y-88751344D01*
X300254258Y-88496604D01*
X300346731Y-88328397D01*
X300404047Y-88224139D01*
X300404048Y-88224136D01*
X300405950Y-88220677D01*
X300497838Y-87988596D01*
X300520411Y-87931583D01*
X300520411Y-87931582D01*
X300521864Y-87927913D01*
X300600170Y-87622930D01*
X300639634Y-87310538D01*
X300639634Y-86995662D01*
X300600170Y-86683270D01*
X300521864Y-86378287D01*
X300405950Y-86085523D01*
X300254258Y-85809596D01*
X300147223Y-85662275D01*
X300123366Y-85595409D01*
X300139446Y-85526258D01*
X300190360Y-85476778D01*
X300259942Y-85462678D01*
X300268219Y-85463666D01*
X300491993Y-85497908D01*
X300500527Y-85498624D01*
X300786148Y-85503112D01*
X300794699Y-85502663D01*
X301078290Y-85468345D01*
X301086691Y-85466743D01*
X301363014Y-85394251D01*
X301371116Y-85391524D01*
X301635039Y-85282203D01*
X301642701Y-85278400D01*
X301889347Y-85134272D01*
X301896412Y-85129471D01*
X302004987Y-85044337D01*
X302070936Y-85018045D01*
X302140630Y-85031580D01*
X302191943Y-85080647D01*
X302208734Y-85143491D01*
X302208734Y-87709660D01*
X302188732Y-87777781D01*
X302147441Y-87817775D01*
X302068695Y-87864903D01*
X301986152Y-87914304D01*
X301986148Y-87914307D01*
X301982470Y-87916508D01*
X301752783Y-88100522D01*
X301749839Y-88103624D01*
X301749835Y-88103628D01*
X301553145Y-88310896D01*
X301550195Y-88314005D01*
X301378454Y-88553008D01*
X301240738Y-88813107D01*
X301139596Y-89089490D01*
X301076900Y-89377043D01*
X301053809Y-89670444D01*
X301070750Y-89964264D01*
X301071575Y-89968471D01*
X301071576Y-89968476D01*
X301098384Y-90105114D01*
X301127411Y-90253066D01*
X301222743Y-90531507D01*
X301354981Y-90794434D01*
X301357407Y-90797963D01*
X301357410Y-90797969D01*
X301436574Y-90913152D01*
X301458734Y-90984519D01*
X301458734Y-94318500D01*
X301469708Y-94424266D01*
X301525684Y-94592046D01*
X301618756Y-94742448D01*
X301743931Y-94867405D01*
X301750161Y-94871245D01*
X301750162Y-94871246D01*
X301887324Y-94955794D01*
X301894496Y-94960215D01*
X301974239Y-94986664D01*
X302055845Y-95013732D01*
X302055847Y-95013732D01*
X302062373Y-95015897D01*
X302069209Y-95016597D01*
X302069212Y-95016598D01*
X302112265Y-95021009D01*
X302166834Y-95026600D01*
X304267634Y-95026600D01*
X304270880Y-95026263D01*
X304270884Y-95026263D01*
X304366542Y-95016338D01*
X304366546Y-95016337D01*
X304373400Y-95015626D01*
X304379936Y-95013445D01*
X304379938Y-95013445D01*
X304512040Y-94969372D01*
X304541180Y-94959650D01*
X304691582Y-94866578D01*
X304816539Y-94741403D01*
X304909349Y-94590838D01*
X304965031Y-94422961D01*
X304975734Y-94318500D01*
X304975734Y-90986589D01*
X304995736Y-90918468D01*
X305000187Y-90911995D01*
X305041437Y-90855840D01*
X305043975Y-90852385D01*
X305184406Y-90593742D01*
X305288437Y-90318433D01*
X305354141Y-90031553D01*
X305359771Y-89968476D01*
X305380083Y-89740876D01*
X305380083Y-89740874D01*
X305380303Y-89738410D01*
X305380778Y-89693100D01*
X305379234Y-89670444D01*
X305361053Y-89403750D01*
X305361052Y-89403744D01*
X305360761Y-89399473D01*
X305301079Y-89111280D01*
X305202837Y-88833853D01*
X305067852Y-88572326D01*
X305051823Y-88549518D01*
X304901090Y-88335048D01*
X304901089Y-88335047D01*
X304898623Y-88331538D01*
X304698282Y-88115944D01*
X304676170Y-88097845D01*
X304473852Y-87932251D01*
X304470534Y-87929535D01*
X304285899Y-87816391D01*
X304238268Y-87763743D01*
X304225734Y-87708958D01*
X304225734Y-80677637D01*
X304226728Y-80661844D01*
X304229777Y-80637712D01*
X304229777Y-80637707D01*
X304230219Y-80634211D01*
X304230614Y-80605916D01*
X304230273Y-80602434D01*
X304230272Y-80602419D01*
X304230064Y-80600300D01*
X304229544Y-80592514D01*
X304212956Y-80128050D01*
X304212876Y-80125798D01*
X304205046Y-80052965D01*
X304161762Y-79650355D01*
X304161761Y-79650345D01*
X304161522Y-79648126D01*
X304141551Y-79537429D01*
X304076622Y-79177543D01*
X304076619Y-79177531D01*
X304076223Y-79175334D01*
X303957413Y-78709832D01*
X303956702Y-78707695D01*
X303806412Y-78256139D01*
X303806408Y-78256129D01*
X303805697Y-78253992D01*
X303621848Y-77810136D01*
X303406804Y-77380527D01*
X303161660Y-76967354D01*
X302887665Y-76572721D01*
X302586216Y-76198641D01*
X302290927Y-75881473D01*
X302283590Y-75872846D01*
X302281136Y-75869683D01*
X302278979Y-75866902D01*
X302259251Y-75846615D01*
X302225361Y-75818777D01*
X302216243Y-75810508D01*
X295566334Y-69160600D01*
X299816626Y-69160600D01*
X299836491Y-69413003D01*
X299837645Y-69417810D01*
X299837646Y-69417816D01*
X299858676Y-69505410D01*
X299895595Y-69659191D01*
X299897488Y-69663762D01*
X299897489Y-69663764D01*
X299986790Y-69879355D01*
X299992484Y-69893102D01*
X300124772Y-70108976D01*
X300289202Y-70301498D01*
X300481724Y-70465928D01*
X300697598Y-70598216D01*
X300702168Y-70600109D01*
X300702172Y-70600111D01*
X300926936Y-70693211D01*
X300931509Y-70695105D01*
X301016132Y-70715421D01*
X301172884Y-70753054D01*
X301172890Y-70753055D01*
X301177697Y-70754209D01*
X301277516Y-70762065D01*
X301364445Y-70768907D01*
X301364452Y-70768907D01*
X301366901Y-70769100D01*
X301493299Y-70769100D01*
X301495748Y-70768907D01*
X301495755Y-70768907D01*
X301582684Y-70762065D01*
X301682503Y-70754209D01*
X301687310Y-70753055D01*
X301687316Y-70753054D01*
X301844068Y-70715421D01*
X301928691Y-70695105D01*
X301933264Y-70693211D01*
X302158028Y-70600111D01*
X302158032Y-70600109D01*
X302162602Y-70598216D01*
X302378476Y-70465928D01*
X302570998Y-70301498D01*
X302735428Y-70108976D01*
X302867716Y-69893102D01*
X302873411Y-69879355D01*
X302962711Y-69663764D01*
X302962712Y-69663762D01*
X302964605Y-69659191D01*
X303001524Y-69505410D01*
X303022554Y-69417816D01*
X303022555Y-69417810D01*
X303023709Y-69413003D01*
X303043574Y-69160600D01*
X303023709Y-68908197D01*
X303009540Y-68849176D01*
X302965760Y-68666821D01*
X302964605Y-68662009D01*
X302932585Y-68584706D01*
X302869611Y-68432672D01*
X302869609Y-68432668D01*
X302867716Y-68428098D01*
X302735428Y-68212224D01*
X302570998Y-68019702D01*
X302378476Y-67855272D01*
X302162602Y-67722984D01*
X302158032Y-67721091D01*
X302158028Y-67721089D01*
X301933264Y-67627989D01*
X301933262Y-67627988D01*
X301928691Y-67626095D01*
X301820501Y-67600121D01*
X301687316Y-67568146D01*
X301687310Y-67568145D01*
X301682503Y-67566991D01*
X301582684Y-67559135D01*
X301495755Y-67552293D01*
X301495748Y-67552293D01*
X301493299Y-67552100D01*
X301366901Y-67552100D01*
X301364452Y-67552293D01*
X301364445Y-67552293D01*
X301277516Y-67559135D01*
X301177697Y-67566991D01*
X301172890Y-67568145D01*
X301172884Y-67568146D01*
X301039699Y-67600121D01*
X300931509Y-67626095D01*
X300926938Y-67627988D01*
X300926936Y-67627989D01*
X300702172Y-67721089D01*
X300702168Y-67721091D01*
X300697598Y-67722984D01*
X300481724Y-67855272D01*
X300289202Y-68019702D01*
X300124772Y-68212224D01*
X299992484Y-68428098D01*
X299990591Y-68432668D01*
X299990589Y-68432672D01*
X299927615Y-68584706D01*
X299895595Y-68662009D01*
X299894440Y-68666821D01*
X299850661Y-68849176D01*
X299836491Y-68908197D01*
X299816626Y-69160600D01*
X295566334Y-69160600D01*
X292056119Y-65650385D01*
X292046743Y-65639899D01*
X292028219Y-65616694D01*
X292028217Y-65616692D01*
X292024374Y-65611878D01*
X291996360Y-65588204D01*
X291985488Y-65577844D01*
X291708909Y-65280778D01*
X291703029Y-65273992D01*
X291427686Y-64932316D01*
X291422295Y-64925115D01*
X291389821Y-64878344D01*
X291172023Y-64564659D01*
X291167163Y-64557096D01*
X290943246Y-64179707D01*
X290938936Y-64171813D01*
X290742520Y-63779426D01*
X290738783Y-63771244D01*
X290598344Y-63432196D01*
X290570849Y-63365816D01*
X290567710Y-63357401D01*
X290498477Y-63149388D01*
X290429132Y-62941040D01*
X290426599Y-62932415D01*
X290395698Y-62811345D01*
X290318076Y-62507232D01*
X290316165Y-62498445D01*
X290311058Y-62470136D01*
X290238252Y-62066603D01*
X290236972Y-62057700D01*
X290190066Y-61621407D01*
X290189424Y-61612436D01*
X290175740Y-61229316D01*
X290176653Y-61209028D01*
X290178085Y-61197695D01*
X290178480Y-61169400D01*
X290174201Y-61125760D01*
X290173600Y-61113464D01*
X290173600Y-46823693D01*
X296750273Y-46823693D01*
X296759082Y-47058316D01*
X296760177Y-47063534D01*
X296785028Y-47181971D01*
X296807296Y-47288101D01*
X296893536Y-47506477D01*
X297015338Y-47707200D01*
X297169219Y-47884532D01*
X297173351Y-47887920D01*
X297346650Y-48030017D01*
X297346656Y-48030021D01*
X297350778Y-48033401D01*
X297355414Y-48036040D01*
X297355417Y-48036042D01*
X297466642Y-48099355D01*
X297554824Y-48149551D01*
X297775523Y-48229661D01*
X297780772Y-48230610D01*
X297780775Y-48230611D01*
X297861849Y-48245271D01*
X298006564Y-48271440D01*
X298010703Y-48271635D01*
X298010710Y-48271636D01*
X298029674Y-48272530D01*
X298029683Y-48272530D01*
X298031163Y-48272600D01*
X298196184Y-48272600D01*
X298277533Y-48265697D01*
X298365871Y-48258202D01*
X298365875Y-48258201D01*
X298371182Y-48257751D01*
X298376337Y-48256413D01*
X298376343Y-48256412D01*
X298593269Y-48200109D01*
X298593268Y-48200109D01*
X298598440Y-48198767D01*
X298603306Y-48196575D01*
X298603309Y-48196574D01*
X298807651Y-48104524D01*
X298807654Y-48104523D01*
X298812512Y-48102334D01*
X299007275Y-47971212D01*
X299177161Y-47809149D01*
X299317312Y-47620779D01*
X299363191Y-47530543D01*
X299421303Y-47416244D01*
X299421303Y-47416243D01*
X299423721Y-47411488D01*
X299493345Y-47187260D01*
X299510436Y-47058316D01*
X299523495Y-46959790D01*
X299523495Y-46959787D01*
X299524195Y-46954507D01*
X299515386Y-46719884D01*
X299494261Y-46619202D01*
X299468269Y-46495326D01*
X299468268Y-46495323D01*
X299467172Y-46490099D01*
X299380932Y-46271723D01*
X299259130Y-46071000D01*
X299105249Y-45893668D01*
X299095172Y-45885406D01*
X298927818Y-45748183D01*
X298927812Y-45748179D01*
X298923690Y-45744799D01*
X298919054Y-45742160D01*
X298919051Y-45742158D01*
X298740497Y-45640519D01*
X298719644Y-45628649D01*
X298498945Y-45548539D01*
X298493696Y-45547590D01*
X298493693Y-45547589D01*
X298412619Y-45532929D01*
X298267904Y-45506760D01*
X298263765Y-45506565D01*
X298263758Y-45506564D01*
X298244794Y-45505670D01*
X298244785Y-45505670D01*
X298243305Y-45505600D01*
X298078284Y-45505600D01*
X298004745Y-45511840D01*
X297908597Y-45519998D01*
X297908593Y-45519999D01*
X297903286Y-45520449D01*
X297898131Y-45521787D01*
X297898125Y-45521788D01*
X297720411Y-45567914D01*
X297676028Y-45579433D01*
X297671162Y-45581625D01*
X297671159Y-45581626D01*
X297466817Y-45673676D01*
X297466814Y-45673677D01*
X297461956Y-45675866D01*
X297267193Y-45806988D01*
X297097307Y-45969051D01*
X296957156Y-46157421D01*
X296954740Y-46162172D01*
X296954738Y-46162176D01*
X296884109Y-46301093D01*
X296850747Y-46366712D01*
X296781123Y-46590940D01*
X296780422Y-46596229D01*
X296763326Y-46725216D01*
X296750273Y-46823693D01*
X290173600Y-46823693D01*
X290173600Y-34176985D01*
X298919234Y-34176985D01*
X298923709Y-34192224D01*
X298925099Y-34193429D01*
X298932782Y-34195100D01*
X300405119Y-34195100D01*
X300420358Y-34190625D01*
X300421563Y-34189235D01*
X300423234Y-34181552D01*
X300423234Y-32684216D01*
X300418759Y-32668977D01*
X300417369Y-32667772D01*
X300409686Y-32666101D01*
X299630139Y-32666101D01*
X299623620Y-32666438D01*
X299528028Y-32676357D01*
X299514634Y-32679249D01*
X299360450Y-32730688D01*
X299347272Y-32736861D01*
X299209427Y-32822163D01*
X299198026Y-32831199D01*
X299083495Y-32945929D01*
X299074483Y-32957340D01*
X298989418Y-33095343D01*
X298983271Y-33108524D01*
X298932096Y-33262810D01*
X298929229Y-33276186D01*
X298919562Y-33370538D01*
X298919234Y-33376955D01*
X298919234Y-34176985D01*
X290173600Y-34176985D01*
X290173600Y-33189570D01*
X290193602Y-33121449D01*
X290201560Y-33110720D01*
X290203196Y-33109089D01*
X290333553Y-32927677D01*
X290354420Y-32885457D01*
X290430236Y-32732053D01*
X290430237Y-32732051D01*
X290432530Y-32727411D01*
X290497470Y-32513669D01*
X290526629Y-32292190D01*
X290526711Y-32288840D01*
X290528174Y-32228965D01*
X290528174Y-32228961D01*
X290528256Y-32225600D01*
X290509952Y-32002961D01*
X290455531Y-31786302D01*
X290366454Y-31581440D01*
X290258055Y-31413881D01*
X290247922Y-31398217D01*
X290247920Y-31398214D01*
X290245114Y-31393877D01*
X290094770Y-31228651D01*
X290090719Y-31225452D01*
X290090715Y-31225448D01*
X289923514Y-31093400D01*
X289923510Y-31093398D01*
X289919459Y-31090198D01*
X289723889Y-30982238D01*
X289719020Y-30980514D01*
X289719016Y-30980512D01*
X289518187Y-30909395D01*
X289518183Y-30909394D01*
X289513312Y-30907669D01*
X289508219Y-30906762D01*
X289508216Y-30906761D01*
X289298473Y-30869400D01*
X289298467Y-30869399D01*
X289293384Y-30868494D01*
X289219552Y-30867592D01*
X289075181Y-30865828D01*
X289075179Y-30865828D01*
X289070011Y-30865765D01*
X288849191Y-30899555D01*
X288636856Y-30968957D01*
X288563171Y-31007315D01*
X288520253Y-31029657D01*
X288438707Y-31072107D01*
X288434574Y-31075210D01*
X288434571Y-31075212D01*
X288320403Y-31160932D01*
X288260065Y-31206235D01*
X288256493Y-31209973D01*
X288110905Y-31362322D01*
X288105729Y-31367738D01*
X287998301Y-31525221D01*
X287943393Y-31570221D01*
X287872868Y-31578392D01*
X287809121Y-31547138D01*
X287788424Y-31522654D01*
X287707922Y-31398217D01*
X287707920Y-31398214D01*
X287705114Y-31393877D01*
X287554770Y-31228651D01*
X287550719Y-31225452D01*
X287550715Y-31225448D01*
X287383514Y-31093400D01*
X287383510Y-31093398D01*
X287379459Y-31090198D01*
X287183889Y-30982238D01*
X287179020Y-30980514D01*
X287179016Y-30980512D01*
X286978187Y-30909395D01*
X286978183Y-30909394D01*
X286973312Y-30907669D01*
X286968219Y-30906762D01*
X286968216Y-30906761D01*
X286758473Y-30869400D01*
X286758467Y-30869399D01*
X286753384Y-30868494D01*
X286679552Y-30867592D01*
X286535181Y-30865828D01*
X286535179Y-30865828D01*
X286530011Y-30865765D01*
X286309191Y-30899555D01*
X286096856Y-30968957D01*
X286023171Y-31007315D01*
X285980253Y-31029657D01*
X285898707Y-31072107D01*
X285894574Y-31075210D01*
X285894571Y-31075212D01*
X285780403Y-31160932D01*
X285720065Y-31206235D01*
X285716493Y-31209973D01*
X285570905Y-31362322D01*
X285565729Y-31367738D01*
X285458301Y-31525221D01*
X285403393Y-31570221D01*
X285332868Y-31578392D01*
X285269121Y-31547138D01*
X285248424Y-31522654D01*
X285167922Y-31398217D01*
X285167920Y-31398214D01*
X285165114Y-31393877D01*
X285014770Y-31228651D01*
X285010719Y-31225452D01*
X285010715Y-31225448D01*
X284843514Y-31093400D01*
X284843510Y-31093398D01*
X284839459Y-31090198D01*
X284643889Y-30982238D01*
X284639020Y-30980514D01*
X284639016Y-30980512D01*
X284438187Y-30909395D01*
X284438183Y-30909394D01*
X284433312Y-30907669D01*
X284428219Y-30906762D01*
X284428216Y-30906761D01*
X284218473Y-30869400D01*
X284218467Y-30869399D01*
X284213384Y-30868494D01*
X284139552Y-30867592D01*
X283995181Y-30865828D01*
X283995179Y-30865828D01*
X283990011Y-30865765D01*
X283769191Y-30899555D01*
X283556856Y-30968957D01*
X283483171Y-31007315D01*
X283440253Y-31029657D01*
X283358707Y-31072107D01*
X283354574Y-31075210D01*
X283354571Y-31075212D01*
X283240403Y-31160932D01*
X283180065Y-31206235D01*
X283176493Y-31209973D01*
X283030905Y-31362322D01*
X283025729Y-31367738D01*
X282918301Y-31525221D01*
X282863393Y-31570221D01*
X282792868Y-31578392D01*
X282729121Y-31547138D01*
X282708424Y-31522654D01*
X282627925Y-31398221D01*
X282627920Y-31398215D01*
X282625114Y-31393877D01*
X282589909Y-31355187D01*
X282558857Y-31291341D01*
X282557705Y-31282689D01*
X282556561Y-31271027D01*
X282556229Y-31250485D01*
X282558885Y-31209973D01*
X282566038Y-31100842D01*
X282570098Y-31038899D01*
X282572249Y-31022559D01*
X282619848Y-30783260D01*
X282624114Y-30767340D01*
X282702539Y-30536308D01*
X282708846Y-30521081D01*
X282816757Y-30302258D01*
X282824998Y-30287984D01*
X282960547Y-30085122D01*
X282970580Y-30072047D01*
X283131452Y-29888607D01*
X283143107Y-29876952D01*
X283326547Y-29716080D01*
X283339622Y-29706047D01*
X283542484Y-29570498D01*
X283556758Y-29562257D01*
X283775581Y-29454346D01*
X283790808Y-29448039D01*
X283916607Y-29405336D01*
X284021843Y-29369613D01*
X284037757Y-29365349D01*
X284157410Y-29341548D01*
X284277059Y-29317749D01*
X284293399Y-29315598D01*
X284498100Y-29302181D01*
X284520384Y-29302696D01*
X284524824Y-29303194D01*
X284524826Y-29303194D01*
X284530951Y-29303881D01*
X284582624Y-29299542D01*
X284593167Y-29299100D01*
X300153406Y-29299100D01*
X300167452Y-29299885D01*
G37*
%TD.AperFunction*%
%TA.AperFunction,Conductor*%
G36*
X287977126Y-32900744D02*
G01*
X288004975Y-32932594D01*
X288065087Y-33030688D01*
X288120050Y-33094138D01*
X288125837Y-33100819D01*
X288155320Y-33165404D01*
X288156600Y-33183317D01*
X288156600Y-61105581D01*
X288155815Y-61119625D01*
X288151819Y-61155251D01*
X288152335Y-61161395D01*
X288152249Y-61167551D01*
X288151868Y-61167546D01*
X288151762Y-61169413D01*
X288152159Y-61169400D01*
X288166957Y-61621407D01*
X288169919Y-61711899D01*
X288170120Y-61713937D01*
X288170120Y-61713941D01*
X288199929Y-62016590D01*
X288223122Y-62252075D01*
X288223459Y-62254115D01*
X288223460Y-62254124D01*
X288259124Y-62470136D01*
X288311540Y-62787614D01*
X288434796Y-63316224D01*
X288435390Y-63318183D01*
X288435394Y-63318197D01*
X288469976Y-63432196D01*
X288592360Y-63835641D01*
X288783559Y-64343640D01*
X289007573Y-64838047D01*
X289008542Y-64839861D01*
X289008549Y-64839874D01*
X289110772Y-65031117D01*
X289125244Y-65100623D01*
X289099841Y-65166919D01*
X289042628Y-65208957D01*
X288971769Y-65213390D01*
X288933815Y-65197946D01*
X288808257Y-65121004D01*
X288808256Y-65121004D01*
X288804595Y-65118760D01*
X288785940Y-65110571D01*
X288539036Y-65002187D01*
X288539032Y-65002186D01*
X288535108Y-65000463D01*
X288252060Y-64919835D01*
X288247818Y-64919231D01*
X288247812Y-64919230D01*
X287964939Y-64878971D01*
X287960688Y-64878366D01*
X287805540Y-64877554D01*
X287670670Y-64876847D01*
X287670664Y-64876847D01*
X287666384Y-64876825D01*
X287662140Y-64877384D01*
X287662136Y-64877384D01*
X287533575Y-64894310D01*
X287374594Y-64915240D01*
X287370454Y-64916373D01*
X287370452Y-64916373D01*
X287175284Y-64969765D01*
X287090717Y-64992900D01*
X287086767Y-64994585D01*
X286823948Y-65106686D01*
X286823941Y-65106690D01*
X286820006Y-65108368D01*
X286722175Y-65166919D01*
X286571152Y-65257304D01*
X286571148Y-65257307D01*
X286567470Y-65259508D01*
X286337783Y-65443522D01*
X286334839Y-65446624D01*
X286334835Y-65446628D01*
X286151428Y-65639899D01*
X286135195Y-65657005D01*
X285963454Y-65896008D01*
X285825738Y-66156107D01*
X285724596Y-66432490D01*
X285661900Y-66720043D01*
X285638809Y-67013444D01*
X285655750Y-67307264D01*
X285656575Y-67311471D01*
X285656576Y-67311476D01*
X285683384Y-67448114D01*
X285712411Y-67596066D01*
X285713798Y-67600116D01*
X285713799Y-67600121D01*
X285806354Y-67870451D01*
X285807743Y-67874507D01*
X285939981Y-68137434D01*
X285942407Y-68140963D01*
X285942410Y-68140969D01*
X286021574Y-68256152D01*
X286043734Y-68327519D01*
X286043734Y-71661500D01*
X286044071Y-71664744D01*
X286044071Y-71664752D01*
X286051615Y-71737461D01*
X286038750Y-71807282D01*
X285990179Y-71859064D01*
X285974508Y-71866872D01*
X285824454Y-71929029D01*
X285805650Y-71935139D01*
X285608875Y-71982383D01*
X285589346Y-71985476D01*
X285423248Y-71998550D01*
X285399325Y-71998155D01*
X285397997Y-71998006D01*
X285397993Y-71998006D01*
X285391868Y-71997319D01*
X285344565Y-72001292D01*
X285340201Y-72001658D01*
X285329657Y-72002100D01*
X277303919Y-72002100D01*
X277289874Y-72001315D01*
X277277340Y-71999909D01*
X277254249Y-71997319D01*
X277225454Y-71999737D01*
X277206672Y-71999909D01*
X277160236Y-71996865D01*
X276988399Y-71985602D01*
X276972059Y-71983451D01*
X276852410Y-71959652D01*
X276732757Y-71935851D01*
X276716843Y-71931587D01*
X276526199Y-71866872D01*
X276485808Y-71853161D01*
X276470581Y-71846854D01*
X276251758Y-71738943D01*
X276237484Y-71730702D01*
X276034622Y-71595153D01*
X276021547Y-71585120D01*
X275838107Y-71424248D01*
X275826452Y-71412593D01*
X275665580Y-71229153D01*
X275655547Y-71216078D01*
X275519998Y-71013216D01*
X275511757Y-70998942D01*
X275403846Y-70780119D01*
X275397539Y-70764892D01*
X275319114Y-70533860D01*
X275314848Y-70517940D01*
X275311246Y-70499828D01*
X275289328Y-70389639D01*
X275267249Y-70278641D01*
X275265098Y-70262301D01*
X275252143Y-70064655D01*
X275252707Y-70045915D01*
X275252398Y-70045893D01*
X275252643Y-70042397D01*
X275253085Y-70038895D01*
X275253480Y-70010600D01*
X275249201Y-69966960D01*
X275248600Y-69954664D01*
X275248600Y-69510693D01*
X281335273Y-69510693D01*
X281344082Y-69745316D01*
X281356582Y-69804892D01*
X281370028Y-69868971D01*
X281392296Y-69975101D01*
X281478536Y-70193477D01*
X281481305Y-70198040D01*
X281546032Y-70304706D01*
X281600338Y-70394200D01*
X281754219Y-70571532D01*
X281758351Y-70574920D01*
X281931650Y-70717017D01*
X281931656Y-70717021D01*
X281935778Y-70720401D01*
X281940414Y-70723040D01*
X281940417Y-70723042D01*
X282032204Y-70775290D01*
X282139824Y-70836551D01*
X282360523Y-70916661D01*
X282365772Y-70917610D01*
X282365775Y-70917611D01*
X282419418Y-70927311D01*
X282591564Y-70958440D01*
X282595703Y-70958635D01*
X282595710Y-70958636D01*
X282614674Y-70959530D01*
X282614683Y-70959530D01*
X282616163Y-70959600D01*
X282781184Y-70959600D01*
X282862533Y-70952697D01*
X282950871Y-70945202D01*
X282950875Y-70945201D01*
X282956182Y-70944751D01*
X282961337Y-70943413D01*
X282961343Y-70943412D01*
X283178269Y-70887109D01*
X283178268Y-70887109D01*
X283183440Y-70885767D01*
X283188306Y-70883575D01*
X283188309Y-70883574D01*
X283392651Y-70791524D01*
X283392654Y-70791523D01*
X283397512Y-70789334D01*
X283592275Y-70658212D01*
X283626965Y-70625120D01*
X283687372Y-70567494D01*
X283762161Y-70496149D01*
X283902312Y-70307779D01*
X283905506Y-70301498D01*
X284006303Y-70103244D01*
X284006303Y-70103243D01*
X284008721Y-70098488D01*
X284078345Y-69874260D01*
X284087539Y-69804892D01*
X284108495Y-69646790D01*
X284108495Y-69646787D01*
X284109195Y-69641507D01*
X284106362Y-69566038D01*
X284104484Y-69516023D01*
X284100386Y-69406884D01*
X284078442Y-69302301D01*
X284053269Y-69182326D01*
X284053268Y-69182323D01*
X284052172Y-69177099D01*
X283965932Y-68958723D01*
X283844130Y-68758000D01*
X283690249Y-68580668D01*
X283680172Y-68572406D01*
X283512818Y-68435183D01*
X283512812Y-68435179D01*
X283508690Y-68431799D01*
X283504054Y-68429160D01*
X283504051Y-68429158D01*
X283309287Y-68318292D01*
X283304644Y-68315649D01*
X283083945Y-68235539D01*
X283078696Y-68234590D01*
X283078693Y-68234589D01*
X282978315Y-68216438D01*
X282852904Y-68193760D01*
X282848765Y-68193565D01*
X282848758Y-68193564D01*
X282829794Y-68192670D01*
X282829785Y-68192670D01*
X282828305Y-68192600D01*
X282663284Y-68192600D01*
X282589745Y-68198840D01*
X282493597Y-68206998D01*
X282493593Y-68206999D01*
X282488286Y-68207449D01*
X282483131Y-68208787D01*
X282483125Y-68208788D01*
X282305411Y-68254914D01*
X282261028Y-68266433D01*
X282256162Y-68268625D01*
X282256159Y-68268626D01*
X282051817Y-68360676D01*
X282051814Y-68360677D01*
X282046956Y-68362866D01*
X281852193Y-68493988D01*
X281682307Y-68656051D01*
X281542156Y-68844421D01*
X281539740Y-68849172D01*
X281539738Y-68849176D01*
X281462633Y-69000831D01*
X281435747Y-69053712D01*
X281366123Y-69277940D01*
X281365422Y-69283229D01*
X281348326Y-69412216D01*
X281335273Y-69510693D01*
X275248600Y-69510693D01*
X275248600Y-64653538D01*
X280219834Y-64653538D01*
X280259298Y-64965930D01*
X280337604Y-65270913D01*
X280339057Y-65274582D01*
X280339057Y-65274583D01*
X280340209Y-65277493D01*
X280453518Y-65563677D01*
X280455420Y-65567136D01*
X280455421Y-65567139D01*
X280530170Y-65703106D01*
X280605210Y-65839604D01*
X280790289Y-66094344D01*
X281005836Y-66323878D01*
X281248452Y-66524587D01*
X281514310Y-66693306D01*
X281517889Y-66694990D01*
X281517896Y-66694994D01*
X281795628Y-66825684D01*
X281795632Y-66825686D01*
X281799218Y-66827373D01*
X282098682Y-66924675D01*
X282407980Y-66983677D01*
X282501534Y-66989563D01*
X282641592Y-66998375D01*
X282641608Y-66998376D01*
X282643587Y-66998500D01*
X282800881Y-66998500D01*
X282802860Y-66998376D01*
X282802876Y-66998375D01*
X282942934Y-66989563D01*
X283036488Y-66983677D01*
X283345786Y-66924675D01*
X283645250Y-66827373D01*
X283648836Y-66825686D01*
X283648840Y-66825684D01*
X283926572Y-66694994D01*
X283926579Y-66694990D01*
X283930158Y-66693306D01*
X284196016Y-66524587D01*
X284438632Y-66323878D01*
X284654179Y-66094344D01*
X284839258Y-65839604D01*
X284914299Y-65703106D01*
X284989047Y-65567139D01*
X284989048Y-65567136D01*
X284990950Y-65563677D01*
X285104259Y-65277493D01*
X285105411Y-65274583D01*
X285105411Y-65274582D01*
X285106864Y-65270913D01*
X285185170Y-64965930D01*
X285224634Y-64653538D01*
X285224634Y-64338662D01*
X285185170Y-64026270D01*
X285106864Y-63721287D01*
X284990950Y-63428523D01*
X284956483Y-63365828D01*
X284841167Y-63156068D01*
X284841165Y-63156065D01*
X284839258Y-63152596D01*
X284732223Y-63005275D01*
X284708366Y-62938409D01*
X284724446Y-62869258D01*
X284775360Y-62819778D01*
X284844942Y-62805678D01*
X284853219Y-62806666D01*
X285076993Y-62840908D01*
X285085527Y-62841624D01*
X285371148Y-62846112D01*
X285379699Y-62845663D01*
X285663290Y-62811345D01*
X285671691Y-62809743D01*
X285948014Y-62737251D01*
X285956116Y-62734524D01*
X286220039Y-62625203D01*
X286227701Y-62621400D01*
X286474337Y-62477277D01*
X286481424Y-62472461D01*
X286583731Y-62392243D01*
X286592202Y-62380383D01*
X286585686Y-62368762D01*
X284992119Y-60775195D01*
X284958093Y-60712883D01*
X284963158Y-60642068D01*
X284992119Y-60597005D01*
X285173139Y-60415985D01*
X285235451Y-60381959D01*
X285306266Y-60387024D01*
X285351329Y-60415985D01*
X286945267Y-62009923D01*
X286957476Y-62016590D01*
X286968976Y-62007900D01*
X287086011Y-61848575D01*
X287090598Y-61841347D01*
X287226901Y-61590309D01*
X287230469Y-61582515D01*
X287331439Y-61315306D01*
X287333916Y-61307100D01*
X287397688Y-61028658D01*
X287399028Y-61020197D01*
X287424583Y-60733864D01*
X287424829Y-60728925D01*
X287425251Y-60688585D01*
X287425108Y-60683619D01*
X287405556Y-60396818D01*
X287404395Y-60388344D01*
X287346465Y-60108612D01*
X287344166Y-60100377D01*
X287248808Y-59831093D01*
X287245411Y-59823243D01*
X287114389Y-59569392D01*
X287109961Y-59562080D01*
X287043147Y-59467014D01*
X287020234Y-59394563D01*
X287020234Y-59133215D01*
X287015759Y-59117976D01*
X287014369Y-59116771D01*
X287006686Y-59115100D01*
X285134234Y-59115100D01*
X285066113Y-59095098D01*
X285019620Y-59041442D01*
X285008234Y-58989100D01*
X285008234Y-58588985D01*
X285516234Y-58588985D01*
X285520709Y-58604224D01*
X285522099Y-58605429D01*
X285529782Y-58607100D01*
X287002118Y-58607100D01*
X287017357Y-58602625D01*
X287018562Y-58601235D01*
X287020233Y-58593552D01*
X287020233Y-58211481D01*
X287020234Y-58211445D01*
X287020234Y-57408215D01*
X287015759Y-57392976D01*
X287014369Y-57391771D01*
X287006686Y-57390100D01*
X285534349Y-57390100D01*
X285519110Y-57394575D01*
X285517905Y-57395965D01*
X285516234Y-57403648D01*
X285516234Y-58588985D01*
X285008234Y-58588985D01*
X285008234Y-57408215D01*
X285003759Y-57392976D01*
X285002369Y-57391771D01*
X284994686Y-57390100D01*
X283522350Y-57390100D01*
X283507111Y-57394575D01*
X283505906Y-57395965D01*
X283504235Y-57403648D01*
X283504235Y-57987995D01*
X283504234Y-57988027D01*
X283504234Y-58052555D01*
X283484232Y-58120676D01*
X283430576Y-58167169D01*
X283360302Y-58177273D01*
X283315901Y-58162056D01*
X283309293Y-58158295D01*
X283309290Y-58158293D01*
X283304644Y-58155649D01*
X283083945Y-58075539D01*
X283078696Y-58074590D01*
X283078693Y-58074589D01*
X282997619Y-58059929D01*
X282852904Y-58033760D01*
X282848765Y-58033565D01*
X282848758Y-58033564D01*
X282829794Y-58032670D01*
X282829785Y-58032670D01*
X282828305Y-58032600D01*
X282663284Y-58032600D01*
X282581935Y-58039503D01*
X282493597Y-58046998D01*
X282493593Y-58046999D01*
X282488286Y-58047449D01*
X282483131Y-58048787D01*
X282483125Y-58048788D01*
X282305411Y-58094914D01*
X282261028Y-58106433D01*
X282256162Y-58108625D01*
X282256159Y-58108626D01*
X282051817Y-58200676D01*
X282051814Y-58200677D01*
X282046956Y-58202866D01*
X281852193Y-58333988D01*
X281682307Y-58496051D01*
X281542156Y-58684421D01*
X281435747Y-58893712D01*
X281366123Y-59117940D01*
X281335273Y-59350693D01*
X281344082Y-59585316D01*
X281392296Y-59815101D01*
X281478536Y-60033477D01*
X281600338Y-60234200D01*
X281754219Y-60411532D01*
X281758351Y-60414920D01*
X281931650Y-60557017D01*
X281931656Y-60557021D01*
X281935778Y-60560401D01*
X281940414Y-60563040D01*
X281940417Y-60563042D01*
X282000082Y-60597005D01*
X282139824Y-60676551D01*
X282360523Y-60756661D01*
X282365772Y-60757610D01*
X282365775Y-60757611D01*
X282446849Y-60772271D01*
X282591564Y-60798440D01*
X282595703Y-60798635D01*
X282595710Y-60798636D01*
X282614674Y-60799530D01*
X282614683Y-60799530D01*
X282616163Y-60799600D01*
X282781184Y-60799600D01*
X282862533Y-60792697D01*
X282950871Y-60785202D01*
X282950875Y-60785201D01*
X282956182Y-60784751D01*
X282961341Y-60783412D01*
X282965903Y-60782632D01*
X283036420Y-60790869D01*
X283091289Y-60835924D01*
X283112925Y-60899578D01*
X283116000Y-60952913D01*
X283117073Y-60961413D01*
X283172071Y-61241736D01*
X283174282Y-61249988D01*
X283266815Y-61520257D01*
X283270130Y-61528142D01*
X283398485Y-61783347D01*
X283402841Y-61790713D01*
X283456825Y-61869259D01*
X283478925Y-61936728D01*
X283461040Y-62005435D01*
X283408848Y-62053565D01*
X283338920Y-62065839D01*
X283329375Y-62064394D01*
X283040388Y-62009267D01*
X283036488Y-62008523D01*
X282942934Y-62002637D01*
X282802876Y-61993825D01*
X282802860Y-61993824D01*
X282800881Y-61993700D01*
X282643587Y-61993700D01*
X282641608Y-61993824D01*
X282641592Y-61993825D01*
X282501534Y-62002637D01*
X282407980Y-62008523D01*
X282098682Y-62067525D01*
X281799218Y-62164827D01*
X281795632Y-62166514D01*
X281795628Y-62166516D01*
X281517896Y-62297206D01*
X281517889Y-62297210D01*
X281514310Y-62298894D01*
X281248452Y-62467613D01*
X281005836Y-62668322D01*
X280790289Y-62897856D01*
X280787962Y-62901058D01*
X280787961Y-62901060D01*
X280758910Y-62941045D01*
X280605210Y-63152596D01*
X280603303Y-63156065D01*
X280603301Y-63156068D01*
X280487985Y-63365828D01*
X280453518Y-63428523D01*
X280337604Y-63721287D01*
X280259298Y-64026270D01*
X280219834Y-64338662D01*
X280219834Y-64653538D01*
X275248600Y-64653538D01*
X275248600Y-56863985D01*
X283504234Y-56863985D01*
X283508709Y-56879224D01*
X283510099Y-56880429D01*
X283517782Y-56882100D01*
X284990119Y-56882100D01*
X285005358Y-56877625D01*
X285006563Y-56876235D01*
X285008234Y-56868552D01*
X285008234Y-56863985D01*
X285516234Y-56863985D01*
X285520709Y-56879224D01*
X285522099Y-56880429D01*
X285529782Y-56882100D01*
X287002118Y-56882100D01*
X287017357Y-56877625D01*
X287018562Y-56876235D01*
X287020233Y-56868552D01*
X287020233Y-56064005D01*
X287019896Y-56057486D01*
X287009977Y-55961894D01*
X287007085Y-55948500D01*
X286955646Y-55794316D01*
X286949473Y-55781138D01*
X286864171Y-55643293D01*
X286855135Y-55631892D01*
X286740405Y-55517361D01*
X286728994Y-55508349D01*
X286590991Y-55423284D01*
X286577810Y-55417137D01*
X286423524Y-55365962D01*
X286410148Y-55363095D01*
X286315796Y-55353428D01*
X286309379Y-55353100D01*
X285534349Y-55353100D01*
X285519110Y-55357575D01*
X285517905Y-55358965D01*
X285516234Y-55366648D01*
X285516234Y-56863985D01*
X285008234Y-56863985D01*
X285008234Y-55371216D01*
X285003759Y-55355977D01*
X285002369Y-55354772D01*
X284994686Y-55353101D01*
X284215139Y-55353101D01*
X284208620Y-55353438D01*
X284113028Y-55363357D01*
X284099634Y-55366249D01*
X283945450Y-55417688D01*
X283932272Y-55423861D01*
X283794427Y-55509163D01*
X283783026Y-55518199D01*
X283668495Y-55632929D01*
X283659483Y-55644340D01*
X283574418Y-55782343D01*
X283568271Y-55795524D01*
X283517096Y-55949810D01*
X283514229Y-55963186D01*
X283504562Y-56057538D01*
X283504234Y-56063955D01*
X283504234Y-56863985D01*
X275248600Y-56863985D01*
X275248600Y-53342322D01*
X275249592Y-53326544D01*
X275253085Y-53298895D01*
X275253480Y-53270600D01*
X275252663Y-53262273D01*
X275252198Y-53255824D01*
X275235898Y-52903238D01*
X275235897Y-52903231D01*
X275235764Y-52900347D01*
X275184557Y-52533253D01*
X275151005Y-52390600D01*
X278636626Y-52390600D01*
X278656491Y-52643003D01*
X278715595Y-52889191D01*
X278812484Y-53123102D01*
X278944772Y-53338976D01*
X279109202Y-53531498D01*
X279301724Y-53695928D01*
X279517598Y-53828216D01*
X279522168Y-53830109D01*
X279522172Y-53830111D01*
X279746936Y-53923211D01*
X279751509Y-53925105D01*
X279836132Y-53945421D01*
X279992884Y-53983054D01*
X279992890Y-53983055D01*
X279997697Y-53984209D01*
X280097516Y-53992065D01*
X280184445Y-53998907D01*
X280184452Y-53998907D01*
X280186901Y-53999100D01*
X280313299Y-53999100D01*
X280315748Y-53998907D01*
X280315755Y-53998907D01*
X280402684Y-53992065D01*
X280502503Y-53984209D01*
X280507310Y-53983055D01*
X280507316Y-53983054D01*
X280664068Y-53945421D01*
X280748691Y-53925105D01*
X280753264Y-53923211D01*
X280978028Y-53830111D01*
X280978032Y-53830109D01*
X280982602Y-53828216D01*
X281198476Y-53695928D01*
X281390998Y-53531498D01*
X281555428Y-53338976D01*
X281687716Y-53123102D01*
X281784605Y-52889191D01*
X281843709Y-52643003D01*
X281863574Y-52390600D01*
X281843709Y-52138197D01*
X281784605Y-51892009D01*
X281768066Y-51852080D01*
X281689611Y-51662672D01*
X281689609Y-51662668D01*
X281687716Y-51658098D01*
X281555428Y-51442224D01*
X281390998Y-51249702D01*
X281198476Y-51085272D01*
X280982602Y-50952984D01*
X280978032Y-50951091D01*
X280978028Y-50951089D01*
X280753264Y-50857989D01*
X280753262Y-50857988D01*
X280748691Y-50856095D01*
X280664068Y-50835779D01*
X280507316Y-50798146D01*
X280507310Y-50798145D01*
X280502503Y-50796991D01*
X280402684Y-50789135D01*
X280315755Y-50782293D01*
X280315748Y-50782293D01*
X280313299Y-50782100D01*
X280186901Y-50782100D01*
X280184452Y-50782293D01*
X280184445Y-50782293D01*
X280097516Y-50789135D01*
X279997697Y-50796991D01*
X279992890Y-50798145D01*
X279992884Y-50798146D01*
X279836132Y-50835779D01*
X279751509Y-50856095D01*
X279746938Y-50857988D01*
X279746936Y-50857989D01*
X279522172Y-50951089D01*
X279522168Y-50951091D01*
X279517598Y-50952984D01*
X279301724Y-51085272D01*
X279109202Y-51249702D01*
X278944772Y-51442224D01*
X278812484Y-51658098D01*
X278810591Y-51662668D01*
X278810589Y-51662672D01*
X278732134Y-51852080D01*
X278715595Y-51892009D01*
X278656491Y-52138197D01*
X278636626Y-52390600D01*
X275151005Y-52390600D01*
X275099697Y-52172450D01*
X274981908Y-51821016D01*
X274832195Y-51481949D01*
X274810069Y-51442224D01*
X274653258Y-51160695D01*
X274651836Y-51158142D01*
X274442369Y-50852359D01*
X274205582Y-50567206D01*
X273943494Y-50305118D01*
X273658341Y-50068331D01*
X273352558Y-49858864D01*
X273330597Y-49846632D01*
X273280820Y-49796012D01*
X273266312Y-49726513D01*
X273291680Y-49660204D01*
X273343553Y-49623099D01*
X273342604Y-49621073D01*
X273349232Y-49617968D01*
X273356180Y-49615650D01*
X273506582Y-49522578D01*
X273631539Y-49397403D01*
X273635380Y-49391172D01*
X273720509Y-49253068D01*
X273720510Y-49253066D01*
X273724349Y-49246838D01*
X273750798Y-49167095D01*
X273777866Y-49085489D01*
X273777866Y-49085487D01*
X273780031Y-49078961D01*
X273785995Y-49020756D01*
X273812837Y-48955029D01*
X273870952Y-48914248D01*
X273911339Y-48907600D01*
X283553378Y-48907600D01*
X283569156Y-48908592D01*
X283596805Y-48912085D01*
X283616871Y-48912365D01*
X283621586Y-48912431D01*
X283621587Y-48912431D01*
X283625100Y-48912480D01*
X283633427Y-48911663D01*
X283639861Y-48911199D01*
X283828126Y-48902495D01*
X283992462Y-48894898D01*
X283992469Y-48894897D01*
X283995353Y-48894764D01*
X284120463Y-48877312D01*
X284359559Y-48843960D01*
X284359562Y-48843959D01*
X284362447Y-48843557D01*
X284560164Y-48797054D01*
X284720411Y-48759365D01*
X284720417Y-48759363D01*
X284723250Y-48758697D01*
X285074684Y-48640908D01*
X285413751Y-48491195D01*
X285417418Y-48489153D01*
X285735005Y-48312258D01*
X285737558Y-48310836D01*
X286043341Y-48101369D01*
X286328494Y-47864582D01*
X286590582Y-47602494D01*
X286827369Y-47317341D01*
X287036836Y-47011558D01*
X287104455Y-46890158D01*
X287215771Y-46690308D01*
X287215773Y-46690304D01*
X287217195Y-46687751D01*
X287366908Y-46348684D01*
X287484697Y-45997250D01*
X287491330Y-45969051D01*
X287559585Y-45678845D01*
X287569557Y-45636447D01*
X287587800Y-45505670D01*
X287620364Y-45272220D01*
X287620764Y-45269353D01*
X287621857Y-45245724D01*
X287635471Y-44951261D01*
X287636330Y-44941292D01*
X287637645Y-44930884D01*
X287637646Y-44930872D01*
X287638085Y-44927395D01*
X287638480Y-44899100D01*
X287634201Y-44855460D01*
X287633600Y-44843164D01*
X287633600Y-33189570D01*
X287653602Y-33121449D01*
X287661560Y-33110720D01*
X287663196Y-33109089D01*
X287793553Y-32927677D01*
X287794876Y-32928628D01*
X287841745Y-32885457D01*
X287911680Y-32873225D01*
X287977126Y-32900744D01*
G37*
%TD.AperFunction*%
%TA.AperFunction,Conductor*%
G36*
X268005509Y-31409885D02*
G01*
X268035010Y-31413194D01*
X268035011Y-31413194D01*
X268041136Y-31413881D01*
X268047281Y-31413365D01*
X268076536Y-31410909D01*
X268092024Y-31410564D01*
X268419144Y-31423415D01*
X268429007Y-31424191D01*
X268785721Y-31466410D01*
X268795493Y-31467958D01*
X268840746Y-31476959D01*
X269147792Y-31538033D01*
X269157399Y-31540339D01*
X269385883Y-31604778D01*
X269503106Y-31637838D01*
X269512515Y-31640895D01*
X269849512Y-31765218D01*
X269858641Y-31768999D01*
X270184856Y-31919384D01*
X270193651Y-31923865D01*
X270440461Y-32062084D01*
X270507071Y-32099387D01*
X270515497Y-32104551D01*
X270796321Y-32292190D01*
X270814155Y-32304106D01*
X270822158Y-32309921D01*
X271104234Y-32532289D01*
X271111758Y-32538714D01*
X271341272Y-32750873D01*
X271354213Y-32764787D01*
X271365780Y-32779276D01*
X271370480Y-32783248D01*
X271370487Y-32783255D01*
X271405382Y-32812743D01*
X271413150Y-32819885D01*
X272176353Y-33583087D01*
X272186818Y-33594957D01*
X272203893Y-33616970D01*
X272223621Y-33637257D01*
X272232353Y-33644429D01*
X272238230Y-33649570D01*
X272546659Y-33936730D01*
X272546668Y-33936738D01*
X272548304Y-33938261D01*
X272893015Y-34216048D01*
X272894847Y-34217320D01*
X272894851Y-34217323D01*
X273254816Y-34467253D01*
X273256664Y-34468536D01*
X273258599Y-34469684D01*
X273635465Y-34693291D01*
X273635476Y-34693297D01*
X273637399Y-34694438D01*
X273838496Y-34795100D01*
X273993108Y-34872494D01*
X274033280Y-34892603D01*
X274442289Y-35062022D01*
X274444417Y-35062730D01*
X274444427Y-35062734D01*
X274860213Y-35201123D01*
X274860228Y-35201128D01*
X274862342Y-35201831D01*
X275291299Y-35311317D01*
X275293494Y-35311713D01*
X275293503Y-35311715D01*
X275724750Y-35389523D01*
X275724757Y-35389524D01*
X275726974Y-35389924D01*
X275729214Y-35390165D01*
X275729222Y-35390166D01*
X276164900Y-35437008D01*
X276164913Y-35437009D01*
X276167146Y-35437249D01*
X276472446Y-35448154D01*
X276558584Y-35451231D01*
X276569863Y-35452143D01*
X276581278Y-35453585D01*
X276609573Y-35453980D01*
X276653216Y-35449701D01*
X276665510Y-35449100D01*
X281985081Y-35449100D01*
X282000872Y-35450093D01*
X282028515Y-35453585D01*
X282032024Y-35453634D01*
X282053296Y-35453931D01*
X282053297Y-35453931D01*
X282056810Y-35453980D01*
X282060338Y-35453634D01*
X282060837Y-35453585D01*
X282069576Y-35452728D01*
X282075260Y-35452301D01*
X282374677Y-35436608D01*
X282689060Y-35386814D01*
X282996517Y-35304430D01*
X282999599Y-35303247D01*
X282999605Y-35303245D01*
X283182868Y-35232897D01*
X283293678Y-35190361D01*
X283296618Y-35188863D01*
X283574348Y-35047352D01*
X283574355Y-35047348D01*
X283577287Y-35045854D01*
X283844238Y-34872494D01*
X284036691Y-34716648D01*
X284089043Y-34674254D01*
X284089047Y-34674251D01*
X284091605Y-34672179D01*
X284316679Y-34447105D01*
X284516994Y-34199738D01*
X284690354Y-33932787D01*
X284834861Y-33649178D01*
X284948930Y-33352017D01*
X284965484Y-33290239D01*
X284998250Y-33233600D01*
X285119535Y-33112737D01*
X285123196Y-33109089D01*
X285133074Y-33095343D01*
X285253553Y-32927677D01*
X285254876Y-32928628D01*
X285301745Y-32885457D01*
X285371680Y-32873225D01*
X285437126Y-32900744D01*
X285464975Y-32932594D01*
X285525087Y-33030688D01*
X285580050Y-33094138D01*
X285585837Y-33100819D01*
X285615320Y-33165404D01*
X285616600Y-33183317D01*
X285616600Y-44835281D01*
X285615815Y-44849325D01*
X285611819Y-44884951D01*
X285612335Y-44891094D01*
X285614237Y-44913744D01*
X285614409Y-44932529D01*
X285600102Y-45150801D01*
X285597951Y-45167141D01*
X285550352Y-45406440D01*
X285546087Y-45422357D01*
X285517436Y-45506760D01*
X285467661Y-45653392D01*
X285461354Y-45668619D01*
X285353443Y-45887442D01*
X285345202Y-45901716D01*
X285209653Y-46104578D01*
X285199620Y-46117653D01*
X285038748Y-46301093D01*
X285027093Y-46312748D01*
X284843653Y-46473620D01*
X284830578Y-46483653D01*
X284627716Y-46619202D01*
X284613442Y-46627443D01*
X284394619Y-46735354D01*
X284379392Y-46741661D01*
X284311816Y-46764600D01*
X284148357Y-46820087D01*
X284132443Y-46824351D01*
X284012790Y-46848152D01*
X283893141Y-46871951D01*
X283876801Y-46874102D01*
X283672100Y-46887519D01*
X283649816Y-46887004D01*
X283645376Y-46886506D01*
X283645374Y-46886506D01*
X283639249Y-46885819D01*
X283587576Y-46890158D01*
X283577033Y-46890600D01*
X273916734Y-46890600D01*
X273848613Y-46870598D01*
X273802120Y-46816942D01*
X273790734Y-46764600D01*
X273790734Y-45642589D01*
X273810736Y-45574468D01*
X273815187Y-45567995D01*
X273856437Y-45511840D01*
X273858975Y-45508385D01*
X273861021Y-45504617D01*
X273997356Y-45253518D01*
X273997357Y-45253516D01*
X273999406Y-45249742D01*
X274103437Y-44974433D01*
X274132090Y-44849326D01*
X274168183Y-44691737D01*
X274168184Y-44691733D01*
X274169141Y-44687553D01*
X274174771Y-44624476D01*
X274195083Y-44396876D01*
X274195083Y-44396874D01*
X274195303Y-44394410D01*
X274195778Y-44349100D01*
X274194234Y-44326444D01*
X274176053Y-44059750D01*
X274176052Y-44059744D01*
X274175761Y-44055473D01*
X274116079Y-43767280D01*
X274017837Y-43489853D01*
X273882852Y-43228326D01*
X273866823Y-43205518D01*
X273716090Y-42991048D01*
X273716089Y-42991047D01*
X273713623Y-42987538D01*
X273513282Y-42771944D01*
X273491170Y-42753845D01*
X273288852Y-42588251D01*
X273285534Y-42585535D01*
X273034595Y-42431760D01*
X273015940Y-42423571D01*
X272769036Y-42315187D01*
X272769032Y-42315186D01*
X272765108Y-42313463D01*
X272482060Y-42232835D01*
X272477818Y-42232231D01*
X272477812Y-42232230D01*
X272194939Y-42191971D01*
X272190688Y-42191366D01*
X272035540Y-42190554D01*
X271900670Y-42189847D01*
X271900664Y-42189847D01*
X271896384Y-42189825D01*
X271892140Y-42190384D01*
X271892136Y-42190384D01*
X271763575Y-42207310D01*
X271604594Y-42228240D01*
X271600454Y-42229373D01*
X271600452Y-42229373D01*
X271405284Y-42282765D01*
X271320717Y-42305900D01*
X271316767Y-42307585D01*
X271053948Y-42419686D01*
X271053941Y-42419690D01*
X271050006Y-42421368D01*
X270964753Y-42472391D01*
X270801152Y-42570304D01*
X270801148Y-42570307D01*
X270797470Y-42572508D01*
X270567783Y-42756522D01*
X270564839Y-42759624D01*
X270564835Y-42759628D01*
X270368145Y-42966896D01*
X270365195Y-42970005D01*
X270193454Y-43209008D01*
X270055738Y-43469107D01*
X269954596Y-43745490D01*
X269891900Y-44033043D01*
X269868809Y-44326444D01*
X269885750Y-44620264D01*
X269886575Y-44624471D01*
X269886576Y-44624476D01*
X269909695Y-44742310D01*
X269942411Y-44909066D01*
X269943798Y-44913116D01*
X269943799Y-44913121D01*
X270030770Y-45167141D01*
X270037743Y-45187507D01*
X270169981Y-45450434D01*
X270172407Y-45453963D01*
X270172410Y-45453969D01*
X270251574Y-45569152D01*
X270273734Y-45640519D01*
X270273734Y-48974500D01*
X270284708Y-49080266D01*
X270286889Y-49086802D01*
X270286889Y-49086804D01*
X270290032Y-49096224D01*
X270292616Y-49167173D01*
X270256433Y-49228257D01*
X270192968Y-49260082D01*
X270170508Y-49262100D01*
X261513919Y-49262100D01*
X261499874Y-49261315D01*
X261487340Y-49259909D01*
X261464249Y-49257319D01*
X261435454Y-49259737D01*
X261416672Y-49259909D01*
X261370236Y-49256865D01*
X261198399Y-49245602D01*
X261182059Y-49243451D01*
X260982874Y-49203831D01*
X260942757Y-49195851D01*
X260926843Y-49191587D01*
X260811324Y-49152374D01*
X260695808Y-49113161D01*
X260680581Y-49106854D01*
X260461758Y-48998943D01*
X260447484Y-48990702D01*
X260244622Y-48855153D01*
X260231547Y-48845120D01*
X260048107Y-48684248D01*
X260036452Y-48672593D01*
X259875580Y-48489153D01*
X259865547Y-48476078D01*
X259729998Y-48273216D01*
X259721757Y-48258942D01*
X259613846Y-48040119D01*
X259607539Y-48024892D01*
X259529114Y-47793860D01*
X259524848Y-47777940D01*
X259511580Y-47711234D01*
X259492641Y-47616024D01*
X259477249Y-47538641D01*
X259475098Y-47522301D01*
X259462143Y-47324655D01*
X259462707Y-47305915D01*
X259462398Y-47305893D01*
X259462643Y-47302397D01*
X259463085Y-47298895D01*
X259463480Y-47270600D01*
X259459201Y-47226960D01*
X259458600Y-47214664D01*
X259458600Y-46823693D01*
X265565273Y-46823693D01*
X265574082Y-47058316D01*
X265575177Y-47063534D01*
X265600028Y-47181971D01*
X265622296Y-47288101D01*
X265708536Y-47506477D01*
X265830338Y-47707200D01*
X265984219Y-47884532D01*
X265988351Y-47887920D01*
X266161650Y-48030017D01*
X266161656Y-48030021D01*
X266165778Y-48033401D01*
X266170414Y-48036040D01*
X266170417Y-48036042D01*
X266281642Y-48099355D01*
X266369824Y-48149551D01*
X266590523Y-48229661D01*
X266595772Y-48230610D01*
X266595775Y-48230611D01*
X266676849Y-48245271D01*
X266821564Y-48271440D01*
X266825703Y-48271635D01*
X266825710Y-48271636D01*
X266844674Y-48272530D01*
X266844683Y-48272530D01*
X266846163Y-48272600D01*
X267011184Y-48272600D01*
X267092533Y-48265697D01*
X267180871Y-48258202D01*
X267180875Y-48258201D01*
X267186182Y-48257751D01*
X267191337Y-48256413D01*
X267191343Y-48256412D01*
X267408269Y-48200109D01*
X267408268Y-48200109D01*
X267413440Y-48198767D01*
X267418306Y-48196575D01*
X267418309Y-48196574D01*
X267622651Y-48104524D01*
X267622654Y-48104523D01*
X267627512Y-48102334D01*
X267822275Y-47971212D01*
X267992161Y-47809149D01*
X268132312Y-47620779D01*
X268178191Y-47530543D01*
X268236303Y-47416244D01*
X268236303Y-47416243D01*
X268238721Y-47411488D01*
X268308345Y-47187260D01*
X268325436Y-47058316D01*
X268338495Y-46959790D01*
X268338495Y-46959787D01*
X268339195Y-46954507D01*
X268330386Y-46719884D01*
X268309261Y-46619202D01*
X268283269Y-46495326D01*
X268283268Y-46495323D01*
X268282172Y-46490099D01*
X268195932Y-46271723D01*
X268074130Y-46071000D01*
X267920249Y-45893668D01*
X267910172Y-45885406D01*
X267742818Y-45748183D01*
X267742812Y-45748179D01*
X267738690Y-45744799D01*
X267734054Y-45742160D01*
X267734051Y-45742158D01*
X267555497Y-45640519D01*
X267534644Y-45628649D01*
X267313945Y-45548539D01*
X267308696Y-45547590D01*
X267308693Y-45547589D01*
X267227619Y-45532929D01*
X267082904Y-45506760D01*
X267078765Y-45506565D01*
X267078758Y-45506564D01*
X267059794Y-45505670D01*
X267059785Y-45505670D01*
X267058305Y-45505600D01*
X266893284Y-45505600D01*
X266819745Y-45511840D01*
X266723597Y-45519998D01*
X266723593Y-45519999D01*
X266718286Y-45520449D01*
X266713131Y-45521787D01*
X266713125Y-45521788D01*
X266535411Y-45567914D01*
X266491028Y-45579433D01*
X266486162Y-45581625D01*
X266486159Y-45581626D01*
X266281817Y-45673676D01*
X266281814Y-45673677D01*
X266276956Y-45675866D01*
X266082193Y-45806988D01*
X265912307Y-45969051D01*
X265772156Y-46157421D01*
X265769740Y-46162172D01*
X265769738Y-46162176D01*
X265699109Y-46301093D01*
X265665747Y-46366712D01*
X265596123Y-46590940D01*
X265595422Y-46596229D01*
X265578326Y-46725216D01*
X265565273Y-46823693D01*
X259458600Y-46823693D01*
X259458600Y-41966538D01*
X264449834Y-41966538D01*
X264489298Y-42278930D01*
X264567604Y-42583913D01*
X264569057Y-42587582D01*
X264569057Y-42587583D01*
X264591630Y-42644596D01*
X264683518Y-42876677D01*
X264685420Y-42880136D01*
X264685421Y-42880139D01*
X264742738Y-42984397D01*
X264835210Y-43152604D01*
X265020289Y-43407344D01*
X265235836Y-43636878D01*
X265478452Y-43837587D01*
X265744310Y-44006306D01*
X265747889Y-44007990D01*
X265747896Y-44007994D01*
X266025628Y-44138684D01*
X266025632Y-44138686D01*
X266029218Y-44140373D01*
X266328682Y-44237675D01*
X266637980Y-44296677D01*
X266731534Y-44302563D01*
X266871592Y-44311375D01*
X266871608Y-44311376D01*
X266873587Y-44311500D01*
X267030881Y-44311500D01*
X267032860Y-44311376D01*
X267032876Y-44311375D01*
X267172934Y-44302563D01*
X267266488Y-44296677D01*
X267575786Y-44237675D01*
X267875250Y-44140373D01*
X267878836Y-44138686D01*
X267878840Y-44138684D01*
X268156572Y-44007994D01*
X268156579Y-44007990D01*
X268160158Y-44006306D01*
X268426016Y-43837587D01*
X268668632Y-43636878D01*
X268884179Y-43407344D01*
X269069258Y-43152604D01*
X269161731Y-42984397D01*
X269219047Y-42880139D01*
X269219048Y-42880136D01*
X269220950Y-42876677D01*
X269312838Y-42644596D01*
X269335411Y-42587583D01*
X269335411Y-42587582D01*
X269336864Y-42583913D01*
X269415170Y-42278930D01*
X269454634Y-41966538D01*
X269454634Y-41651662D01*
X269415170Y-41339270D01*
X269336864Y-41034287D01*
X269220950Y-40741523D01*
X269069258Y-40465596D01*
X268962223Y-40318275D01*
X268938366Y-40251409D01*
X268954446Y-40182258D01*
X269005360Y-40132778D01*
X269074942Y-40118678D01*
X269083219Y-40119666D01*
X269306993Y-40153908D01*
X269315527Y-40154624D01*
X269601148Y-40159112D01*
X269609699Y-40158663D01*
X269893290Y-40124345D01*
X269901691Y-40122743D01*
X270178014Y-40050251D01*
X270186116Y-40047524D01*
X270450039Y-39938203D01*
X270457701Y-39934400D01*
X270704337Y-39790277D01*
X270711424Y-39785461D01*
X270813731Y-39705243D01*
X270822202Y-39693383D01*
X270815686Y-39681762D01*
X269222119Y-38088195D01*
X269188093Y-38025883D01*
X269193158Y-37955068D01*
X269222119Y-37910005D01*
X269403139Y-37728985D01*
X269465451Y-37694959D01*
X269536266Y-37700024D01*
X269581329Y-37728985D01*
X271175267Y-39322923D01*
X271187476Y-39329590D01*
X271198976Y-39320900D01*
X271316011Y-39161575D01*
X271320598Y-39154347D01*
X271456901Y-38903309D01*
X271460469Y-38895515D01*
X271561439Y-38628306D01*
X271563916Y-38620100D01*
X271627688Y-38341658D01*
X271629028Y-38333197D01*
X271654583Y-38046864D01*
X271654829Y-38041925D01*
X271655251Y-38001585D01*
X271655108Y-37996619D01*
X271635556Y-37709818D01*
X271634395Y-37701344D01*
X271576465Y-37421612D01*
X271574166Y-37413377D01*
X271478808Y-37144093D01*
X271475411Y-37136243D01*
X271344389Y-36882392D01*
X271339961Y-36875080D01*
X271273147Y-36780014D01*
X271250234Y-36707563D01*
X271250234Y-36446215D01*
X271245759Y-36430976D01*
X271244369Y-36429771D01*
X271236686Y-36428100D01*
X269364234Y-36428100D01*
X269296113Y-36408098D01*
X269249620Y-36354442D01*
X269238234Y-36302100D01*
X269238234Y-35901985D01*
X269746234Y-35901985D01*
X269750709Y-35917224D01*
X269752099Y-35918429D01*
X269759782Y-35920100D01*
X271232118Y-35920100D01*
X271247357Y-35915625D01*
X271248562Y-35914235D01*
X271250233Y-35906552D01*
X271250233Y-35524481D01*
X271250234Y-35524445D01*
X271250234Y-34721215D01*
X271245759Y-34705976D01*
X271244369Y-34704771D01*
X271236686Y-34703100D01*
X269764349Y-34703100D01*
X269749110Y-34707575D01*
X269747905Y-34708965D01*
X269746234Y-34716648D01*
X269746234Y-35901985D01*
X269238234Y-35901985D01*
X269238234Y-34721215D01*
X269233759Y-34705976D01*
X269232369Y-34704771D01*
X269224686Y-34703100D01*
X267752350Y-34703100D01*
X267737111Y-34707575D01*
X267735906Y-34708965D01*
X267734235Y-34716648D01*
X267734235Y-35300995D01*
X267734234Y-35301027D01*
X267734234Y-35365555D01*
X267714232Y-35433676D01*
X267660576Y-35480169D01*
X267590302Y-35490273D01*
X267545901Y-35475056D01*
X267539293Y-35471295D01*
X267539290Y-35471293D01*
X267534644Y-35468649D01*
X267313945Y-35388539D01*
X267308696Y-35387590D01*
X267308693Y-35387589D01*
X267227619Y-35372929D01*
X267082904Y-35346760D01*
X267078765Y-35346565D01*
X267078758Y-35346564D01*
X267059794Y-35345670D01*
X267059785Y-35345670D01*
X267058305Y-35345600D01*
X266893284Y-35345600D01*
X266811935Y-35352503D01*
X266723597Y-35359998D01*
X266723593Y-35359999D01*
X266718286Y-35360449D01*
X266713131Y-35361787D01*
X266713125Y-35361788D01*
X266535411Y-35407914D01*
X266491028Y-35419433D01*
X266486162Y-35421625D01*
X266486159Y-35421626D01*
X266281817Y-35513676D01*
X266281814Y-35513677D01*
X266276956Y-35515866D01*
X266082193Y-35646988D01*
X265912307Y-35809051D01*
X265772156Y-35997421D01*
X265665747Y-36206712D01*
X265596123Y-36430940D01*
X265565273Y-36663693D01*
X265574082Y-36898316D01*
X265622296Y-37128101D01*
X265708536Y-37346477D01*
X265830338Y-37547200D01*
X265984219Y-37724532D01*
X265988351Y-37727920D01*
X266161650Y-37870017D01*
X266161656Y-37870021D01*
X266165778Y-37873401D01*
X266170414Y-37876040D01*
X266170417Y-37876042D01*
X266230082Y-37910005D01*
X266369824Y-37989551D01*
X266590523Y-38069661D01*
X266595772Y-38070610D01*
X266595775Y-38070611D01*
X266676849Y-38085271D01*
X266821564Y-38111440D01*
X266825703Y-38111635D01*
X266825710Y-38111636D01*
X266844674Y-38112530D01*
X266844683Y-38112530D01*
X266846163Y-38112600D01*
X267011184Y-38112600D01*
X267092533Y-38105697D01*
X267180871Y-38098202D01*
X267180875Y-38098201D01*
X267186182Y-38097751D01*
X267191341Y-38096412D01*
X267195903Y-38095632D01*
X267266420Y-38103869D01*
X267321289Y-38148924D01*
X267342925Y-38212578D01*
X267346000Y-38265913D01*
X267347073Y-38274413D01*
X267402071Y-38554736D01*
X267404282Y-38562988D01*
X267496815Y-38833257D01*
X267500130Y-38841142D01*
X267628485Y-39096347D01*
X267632841Y-39103713D01*
X267686825Y-39182259D01*
X267708925Y-39249728D01*
X267691040Y-39318435D01*
X267638848Y-39366565D01*
X267568920Y-39378839D01*
X267559375Y-39377394D01*
X267270388Y-39322267D01*
X267266488Y-39321523D01*
X267172934Y-39315637D01*
X267032876Y-39306825D01*
X267032860Y-39306824D01*
X267030881Y-39306700D01*
X266873587Y-39306700D01*
X266871608Y-39306824D01*
X266871592Y-39306825D01*
X266731534Y-39315637D01*
X266637980Y-39321523D01*
X266328682Y-39380525D01*
X266029218Y-39477827D01*
X266025632Y-39479514D01*
X266025628Y-39479516D01*
X265747896Y-39610206D01*
X265747889Y-39610210D01*
X265744310Y-39611894D01*
X265478452Y-39780613D01*
X265235836Y-39981322D01*
X265020289Y-40210856D01*
X265017962Y-40214058D01*
X265017961Y-40214060D01*
X264947883Y-40310515D01*
X264835210Y-40465596D01*
X264683518Y-40741523D01*
X264567604Y-41034287D01*
X264489298Y-41339270D01*
X264449834Y-41651662D01*
X264449834Y-41966538D01*
X259458600Y-41966538D01*
X259458600Y-34176985D01*
X267734234Y-34176985D01*
X267738709Y-34192224D01*
X267740099Y-34193429D01*
X267747782Y-34195100D01*
X269220119Y-34195100D01*
X269235358Y-34190625D01*
X269236563Y-34189235D01*
X269238234Y-34181552D01*
X269238234Y-34176985D01*
X269746234Y-34176985D01*
X269750709Y-34192224D01*
X269752099Y-34193429D01*
X269759782Y-34195100D01*
X271232118Y-34195100D01*
X271247357Y-34190625D01*
X271248562Y-34189235D01*
X271250233Y-34181552D01*
X271250233Y-33377005D01*
X271249896Y-33370486D01*
X271239977Y-33274894D01*
X271237085Y-33261500D01*
X271185646Y-33107316D01*
X271179473Y-33094138D01*
X271094171Y-32956293D01*
X271085135Y-32944892D01*
X270970405Y-32830361D01*
X270958994Y-32821349D01*
X270820991Y-32736284D01*
X270807810Y-32730137D01*
X270653524Y-32678962D01*
X270640148Y-32676095D01*
X270545796Y-32666428D01*
X270539379Y-32666100D01*
X269764349Y-32666100D01*
X269749110Y-32670575D01*
X269747905Y-32671965D01*
X269746234Y-32679648D01*
X269746234Y-34176985D01*
X269238234Y-34176985D01*
X269238234Y-32684216D01*
X269233759Y-32668977D01*
X269232369Y-32667772D01*
X269224686Y-32666101D01*
X268445139Y-32666101D01*
X268438620Y-32666438D01*
X268343028Y-32676357D01*
X268329634Y-32679249D01*
X268175450Y-32730688D01*
X268162272Y-32736861D01*
X268024427Y-32822163D01*
X268013026Y-32831199D01*
X267898495Y-32945929D01*
X267889483Y-32957340D01*
X267804418Y-33095343D01*
X267798271Y-33108524D01*
X267747096Y-33262810D01*
X267744229Y-33276186D01*
X267734562Y-33370538D01*
X267734234Y-33376955D01*
X267734234Y-34176985D01*
X259458600Y-34176985D01*
X259458600Y-33472322D01*
X259459592Y-33456544D01*
X259463085Y-33428895D01*
X259463288Y-33414353D01*
X259463431Y-33404123D01*
X259463431Y-33404120D01*
X259463480Y-33400600D01*
X259463137Y-33397100D01*
X259463136Y-33397081D01*
X259461561Y-33381024D01*
X259461229Y-33360485D01*
X259462426Y-33342232D01*
X259475098Y-33148899D01*
X259477249Y-33132559D01*
X259518925Y-32923038D01*
X259524849Y-32893257D01*
X259529114Y-32877340D01*
X259548121Y-32821349D01*
X259594671Y-32684216D01*
X259607539Y-32646308D01*
X259613846Y-32631081D01*
X259721757Y-32412258D01*
X259729998Y-32397984D01*
X259865547Y-32195122D01*
X259875580Y-32182047D01*
X260036452Y-31998607D01*
X260048107Y-31986952D01*
X260231547Y-31826080D01*
X260244622Y-31816047D01*
X260447484Y-31680498D01*
X260461758Y-31672257D01*
X260680581Y-31564346D01*
X260695808Y-31558039D01*
X260811324Y-31518827D01*
X260926843Y-31479613D01*
X260942757Y-31475349D01*
X261062409Y-31451549D01*
X261182059Y-31427749D01*
X261198399Y-31425598D01*
X261403100Y-31412181D01*
X261425384Y-31412696D01*
X261429824Y-31413194D01*
X261429826Y-31413194D01*
X261435951Y-31413881D01*
X261487624Y-31409542D01*
X261498167Y-31409100D01*
X267991465Y-31409100D01*
X268005509Y-31409885D01*
G37*
%TD.AperFunction*%
%TA.AperFunction,Conductor*%
G36*
X281354266Y-26156328D02*
G01*
X281422386Y-26176330D01*
X281468879Y-26229986D01*
X281478982Y-26300260D01*
X281449489Y-26364841D01*
X281400067Y-26399708D01*
X281105500Y-26514649D01*
X281105495Y-26514651D01*
X281103066Y-26515599D01*
X281086620Y-26523639D01*
X280855289Y-26636730D01*
X280716990Y-26704340D01*
X280714755Y-26705672D01*
X280714749Y-26705675D01*
X280527554Y-26817219D01*
X280347819Y-26924318D01*
X279998075Y-27174031D01*
X279670146Y-27451773D01*
X279366273Y-27755646D01*
X279088531Y-28083575D01*
X278838818Y-28433319D01*
X278618840Y-28802490D01*
X278430099Y-29188566D01*
X278429151Y-29190995D01*
X278429149Y-29191000D01*
X278345515Y-29405336D01*
X278273884Y-29588909D01*
X278273143Y-29591399D01*
X278273142Y-29591401D01*
X278198829Y-29841014D01*
X278151263Y-30000785D01*
X278130115Y-30101646D01*
X278089550Y-30295111D01*
X278063074Y-30421380D01*
X278062752Y-30423962D01*
X278062752Y-30423963D01*
X278024606Y-30729985D01*
X278009917Y-30847821D01*
X278008855Y-30873495D01*
X278000545Y-31074406D01*
X277977745Y-31141642D01*
X277922214Y-31185878D01*
X277851582Y-31193069D01*
X277788276Y-31160932D01*
X277764133Y-31129707D01*
X277759890Y-31121956D01*
X277683385Y-31019876D01*
X277670824Y-31007315D01*
X277568749Y-30930814D01*
X277553154Y-30922276D01*
X277432706Y-30877122D01*
X277417451Y-30873495D01*
X277366586Y-30867969D01*
X277359772Y-30867600D01*
X276737215Y-30867600D01*
X276721976Y-30872075D01*
X276720771Y-30873465D01*
X276719100Y-30881148D01*
X276719100Y-32353600D01*
X276699098Y-32421721D01*
X276645442Y-32468214D01*
X276593100Y-32479600D01*
X275125216Y-32479600D01*
X275109977Y-32484075D01*
X275108772Y-32485465D01*
X275107101Y-32493148D01*
X275107101Y-32961330D01*
X275087099Y-33029451D01*
X275033443Y-33075944D01*
X274963169Y-33086048D01*
X274932883Y-33077739D01*
X274847787Y-33042491D01*
X274837824Y-33037845D01*
X274524067Y-32874512D01*
X274514548Y-32869016D01*
X274216219Y-32678958D01*
X274207215Y-32672653D01*
X274011433Y-32522423D01*
X273926594Y-32457323D01*
X273918177Y-32450261D01*
X273690631Y-32241753D01*
X273677288Y-32227469D01*
X273666695Y-32214200D01*
X273627082Y-32180724D01*
X273619316Y-32173582D01*
X273399219Y-31953485D01*
X275107100Y-31953485D01*
X275111575Y-31968724D01*
X275112965Y-31969929D01*
X275120648Y-31971600D01*
X276192985Y-31971600D01*
X276208224Y-31967125D01*
X276209429Y-31965735D01*
X276211100Y-31958052D01*
X276211100Y-30885716D01*
X276206625Y-30870477D01*
X276205235Y-30869272D01*
X276197552Y-30867601D01*
X275570431Y-30867601D01*
X275563610Y-30867971D01*
X275512748Y-30873495D01*
X275497496Y-30877121D01*
X275377046Y-30922276D01*
X275361451Y-30930814D01*
X275259376Y-31007315D01*
X275246815Y-31019876D01*
X275170314Y-31121951D01*
X275161776Y-31137546D01*
X275116622Y-31257994D01*
X275112995Y-31273249D01*
X275107469Y-31324114D01*
X275107100Y-31330928D01*
X275107100Y-31953485D01*
X273399219Y-31953485D01*
X272856119Y-31410385D01*
X272845655Y-31398517D01*
X272830730Y-31379276D01*
X272828572Y-31376494D01*
X272826124Y-31373977D01*
X272826119Y-31373971D01*
X272818707Y-31366350D01*
X272808843Y-31356207D01*
X272804419Y-31352573D01*
X272798534Y-31347425D01*
X272767891Y-31318895D01*
X272573106Y-31137546D01*
X272458870Y-31031189D01*
X272458863Y-31031183D01*
X272457224Y-31029657D01*
X272448416Y-31022559D01*
X272085350Y-30729985D01*
X272085342Y-30729979D01*
X272083596Y-30728572D01*
X271988791Y-30662748D01*
X271835246Y-30556141D01*
X271689441Y-30454908D01*
X271276768Y-30210060D01*
X270847678Y-29995275D01*
X270404360Y-29811649D01*
X270402223Y-29810938D01*
X270402213Y-29810934D01*
X269951207Y-29660827D01*
X269949071Y-29660116D01*
X269946899Y-29659562D01*
X269946890Y-29659559D01*
X269679842Y-29591401D01*
X269484132Y-29541450D01*
X269481935Y-29541054D01*
X269481923Y-29541051D01*
X269014120Y-29456652D01*
X269014110Y-29456651D01*
X269011912Y-29456254D01*
X269009693Y-29456015D01*
X269009683Y-29456014D01*
X268537062Y-29405203D01*
X268537052Y-29405202D01*
X268534817Y-29404962D01*
X268305896Y-29396787D01*
X268102842Y-29389535D01*
X268091554Y-29388622D01*
X268087071Y-29388056D01*
X268087058Y-29388055D01*
X268083574Y-29387615D01*
X268078561Y-29387545D01*
X268058802Y-29387269D01*
X268058799Y-29387269D01*
X268055279Y-29387220D01*
X268015639Y-29391107D01*
X268011641Y-29391499D01*
X267999345Y-29392100D01*
X261521822Y-29392100D01*
X261506044Y-29391108D01*
X261478395Y-29387615D01*
X261458329Y-29387335D01*
X261453614Y-29387269D01*
X261453613Y-29387269D01*
X261450100Y-29387220D01*
X261441773Y-29388037D01*
X261435339Y-29388501D01*
X261247074Y-29397205D01*
X261082738Y-29404802D01*
X261082731Y-29404803D01*
X261079847Y-29404936D01*
X261049573Y-29409159D01*
X260715641Y-29455740D01*
X260715638Y-29455741D01*
X260712753Y-29456143D01*
X260528869Y-29499392D01*
X260354789Y-29540335D01*
X260354783Y-29540337D01*
X260351950Y-29541003D01*
X260000516Y-29658792D01*
X259661449Y-29808505D01*
X259658896Y-29809927D01*
X259658892Y-29809929D01*
X259598109Y-29843785D01*
X259337642Y-29988864D01*
X259031859Y-30198331D01*
X259029620Y-30200190D01*
X259029619Y-30200191D01*
X259010269Y-30216259D01*
X258746706Y-30435118D01*
X258484618Y-30697206D01*
X258247831Y-30982359D01*
X258187989Y-31069718D01*
X258166668Y-31100842D01*
X258111668Y-31145738D01*
X258041128Y-31153771D01*
X257977442Y-31122393D01*
X257940831Y-31061564D01*
X257936718Y-31029648D01*
X257936336Y-27209461D01*
X257937834Y-27190075D01*
X257940143Y-27175237D01*
X257940143Y-27175236D01*
X257941523Y-27166367D01*
X257939862Y-27153673D01*
X257939274Y-27126371D01*
X257950567Y-26996984D01*
X257954369Y-26975383D01*
X257993829Y-26827855D01*
X258001319Y-26807240D01*
X258065766Y-26668788D01*
X258076718Y-26649783D01*
X258164203Y-26524599D01*
X258178278Y-26507790D01*
X258286153Y-26399667D01*
X258302921Y-26385562D01*
X258427906Y-26297790D01*
X258446883Y-26286795D01*
X258585192Y-26222029D01*
X258605790Y-26214492D01*
X258753229Y-26174694D01*
X258774821Y-26170843D01*
X258879159Y-26161495D01*
X258897052Y-26159892D01*
X258913776Y-26160418D01*
X258913780Y-26160043D01*
X258922753Y-26160133D01*
X258931629Y-26161495D01*
X258962484Y-26157391D01*
X258979097Y-26156291D01*
X281354266Y-26156328D01*
G37*
%TD.AperFunction*%
%TD*%
M02*
