%TF.GenerationSoftware,KiCad,Pcbnew,(6.0.7)*%
%TF.CreationDate,2023-01-05T19:49:15-06:00*%
%TF.ProjectId,OpenRectangle,4f70656e-5265-4637-9461-6e676c652e6b,rev?*%
%TF.SameCoordinates,Original*%
%TF.FileFunction,Legend,Top*%
%TF.FilePolarity,Positive*%
%FSLAX46Y46*%
G04 Gerber Fmt 4.6, Leading zero omitted, Abs format (unit mm)*
G04 Created by KiCad (PCBNEW (6.0.7)) date 2023-01-05 19:49:15*
%MOMM*%
%LPD*%
G01*
G04 APERTURE LIST*
%ADD10C,0.200000*%
%ADD11C,0.150000*%
%ADD12C,0.120000*%
%ADD13C,0.127000*%
%ADD14C,0.010000*%
G04 APERTURE END LIST*
D10*
X194997619Y-90187904D02*
X194730952Y-89806952D01*
X194540476Y-90187904D02*
X194540476Y-89387904D01*
X194845238Y-89387904D01*
X194921428Y-89426000D01*
X194959523Y-89464095D01*
X194997619Y-89540285D01*
X194997619Y-89654571D01*
X194959523Y-89730761D01*
X194921428Y-89768857D01*
X194845238Y-89806952D01*
X194540476Y-89806952D01*
X194807142Y-92344857D02*
X194921428Y-92382952D01*
X194959523Y-92421047D01*
X194997619Y-92497238D01*
X194997619Y-92611523D01*
X194959523Y-92687714D01*
X194921428Y-92725809D01*
X194845238Y-92763904D01*
X194540476Y-92763904D01*
X194540476Y-91963904D01*
X194807142Y-91963904D01*
X194883333Y-92002000D01*
X194921428Y-92040095D01*
X194959523Y-92116285D01*
X194959523Y-92192476D01*
X194921428Y-92268666D01*
X194883333Y-92306761D01*
X194807142Y-92344857D01*
X194540476Y-92344857D01*
X194692857Y-94958952D02*
X194692857Y-95339904D01*
X194426190Y-94539904D02*
X194692857Y-94958952D01*
X194959523Y-94539904D01*
X194464285Y-97115904D02*
X194997619Y-97915904D01*
X194997619Y-97115904D02*
X194464285Y-97915904D01*
X194921428Y-100491904D02*
X194540476Y-100491904D01*
X194540476Y-99691904D01*
X195150000Y-100453809D02*
X195264285Y-100491904D01*
X195454761Y-100491904D01*
X195530952Y-100453809D01*
X195569047Y-100415714D01*
X195607142Y-100339523D01*
X195607142Y-100263333D01*
X195569047Y-100187142D01*
X195530952Y-100149047D01*
X195454761Y-100110952D01*
X195302380Y-100072857D01*
X195226190Y-100034761D01*
X195188095Y-99996666D01*
X195150000Y-99920476D01*
X195150000Y-99844285D01*
X195188095Y-99768095D01*
X195226190Y-99730000D01*
X195302380Y-99691904D01*
X195492857Y-99691904D01*
X195607142Y-99730000D01*
X194464285Y-102267904D02*
X194997619Y-102267904D01*
X194464285Y-103067904D01*
X194997619Y-103067904D01*
X194540476Y-105643904D02*
X194540476Y-104843904D01*
X194807142Y-105415333D01*
X195073809Y-104843904D01*
X195073809Y-105643904D01*
X195416666Y-105605809D02*
X195530952Y-105643904D01*
X195721428Y-105643904D01*
X195797619Y-105605809D01*
X195835714Y-105567714D01*
X195873809Y-105491523D01*
X195873809Y-105415333D01*
X195835714Y-105339142D01*
X195797619Y-105301047D01*
X195721428Y-105262952D01*
X195569047Y-105224857D01*
X195492857Y-105186761D01*
X195454761Y-105148666D01*
X195416666Y-105072476D01*
X195416666Y-104996285D01*
X195454761Y-104920095D01*
X195492857Y-104882000D01*
X195569047Y-104843904D01*
X195759523Y-104843904D01*
X195873809Y-104882000D01*
X194540476Y-107419904D02*
X194540476Y-108067523D01*
X194578571Y-108143714D01*
X194616666Y-108181809D01*
X194692857Y-108219904D01*
X194845238Y-108219904D01*
X194921428Y-108181809D01*
X194959523Y-108143714D01*
X194997619Y-108067523D01*
X194997619Y-107419904D01*
X195378571Y-108219904D02*
X195378571Y-107419904D01*
X195683333Y-107419904D01*
X195759523Y-107458000D01*
X195797619Y-107496095D01*
X195835714Y-107572285D01*
X195835714Y-107686571D01*
X195797619Y-107762761D01*
X195759523Y-107800857D01*
X195683333Y-107838952D01*
X195378571Y-107838952D01*
X194959523Y-110034000D02*
X194883333Y-109995904D01*
X194769047Y-109995904D01*
X194654761Y-110034000D01*
X194578571Y-110110190D01*
X194540476Y-110186380D01*
X194502380Y-110338761D01*
X194502380Y-110453047D01*
X194540476Y-110605428D01*
X194578571Y-110681619D01*
X194654761Y-110757809D01*
X194769047Y-110795904D01*
X194845238Y-110795904D01*
X194959523Y-110757809D01*
X194997619Y-110719714D01*
X194997619Y-110453047D01*
X194845238Y-110453047D01*
X195340476Y-110795904D02*
X195340476Y-109995904D01*
X195797619Y-110795904D01*
X195797619Y-109995904D01*
X196178571Y-110795904D02*
X196178571Y-109995904D01*
X196369047Y-109995904D01*
X196483333Y-110034000D01*
X196559523Y-110110190D01*
X196597619Y-110186380D01*
X196635714Y-110338761D01*
X196635714Y-110453047D01*
X196597619Y-110605428D01*
X196559523Y-110681619D01*
X196483333Y-110757809D01*
X196369047Y-110795904D01*
X196178571Y-110795904D01*
X157431428Y-70378000D02*
X157355238Y-70339904D01*
X157240952Y-70339904D01*
X157126666Y-70378000D01*
X157050476Y-70454190D01*
X157012380Y-70530380D01*
X156974285Y-70682761D01*
X156974285Y-70797047D01*
X157012380Y-70949428D01*
X157050476Y-71025619D01*
X157126666Y-71101809D01*
X157240952Y-71139904D01*
X157317142Y-71139904D01*
X157431428Y-71101809D01*
X157469523Y-71063714D01*
X157469523Y-70797047D01*
X157317142Y-70797047D01*
X157812380Y-71139904D02*
X157812380Y-70339904D01*
X158269523Y-71139904D01*
X158269523Y-70339904D01*
X158650476Y-71139904D02*
X158650476Y-70339904D01*
X158840952Y-70339904D01*
X158955238Y-70378000D01*
X159031428Y-70454190D01*
X159069523Y-70530380D01*
X159107619Y-70682761D01*
X159107619Y-70797047D01*
X159069523Y-70949428D01*
X159031428Y-71025619D01*
X158955238Y-71101809D01*
X158840952Y-71139904D01*
X158650476Y-71139904D01*
X156479047Y-73715904D02*
X156212380Y-73334952D01*
X156021904Y-73715904D02*
X156021904Y-72915904D01*
X156326666Y-72915904D01*
X156402857Y-72954000D01*
X156440952Y-72992095D01*
X156479047Y-73068285D01*
X156479047Y-73182571D01*
X156440952Y-73258761D01*
X156402857Y-73296857D01*
X156326666Y-73334952D01*
X156021904Y-73334952D01*
X156821904Y-73715904D02*
X156821904Y-72915904D01*
X157621904Y-72954000D02*
X157545714Y-72915904D01*
X157431428Y-72915904D01*
X157317142Y-72954000D01*
X157240952Y-73030190D01*
X157202857Y-73106380D01*
X157164761Y-73258761D01*
X157164761Y-73373047D01*
X157202857Y-73525428D01*
X157240952Y-73601619D01*
X157317142Y-73677809D01*
X157431428Y-73715904D01*
X157507619Y-73715904D01*
X157621904Y-73677809D01*
X157660000Y-73639714D01*
X157660000Y-73373047D01*
X157507619Y-73373047D01*
X158002857Y-73715904D02*
X158002857Y-72915904D01*
X158002857Y-73296857D02*
X158460000Y-73296857D01*
X158460000Y-73715904D02*
X158460000Y-72915904D01*
X158726666Y-72915904D02*
X159183809Y-72915904D01*
X158955238Y-73715904D02*
X158955238Y-72915904D01*
X156060000Y-76291904D02*
X156060000Y-75491904D01*
X156250476Y-75491904D01*
X156364761Y-75530000D01*
X156440952Y-75606190D01*
X156479047Y-75682380D01*
X156517142Y-75834761D01*
X156517142Y-75949047D01*
X156479047Y-76101428D01*
X156440952Y-76177619D01*
X156364761Y-76253809D01*
X156250476Y-76291904D01*
X156060000Y-76291904D01*
X157012380Y-75491904D02*
X157164761Y-75491904D01*
X157240952Y-75530000D01*
X157317142Y-75606190D01*
X157355238Y-75758571D01*
X157355238Y-76025238D01*
X157317142Y-76177619D01*
X157240952Y-76253809D01*
X157164761Y-76291904D01*
X157012380Y-76291904D01*
X156936190Y-76253809D01*
X156860000Y-76177619D01*
X156821904Y-76025238D01*
X156821904Y-75758571D01*
X156860000Y-75606190D01*
X156936190Y-75530000D01*
X157012380Y-75491904D01*
X157621904Y-75491904D02*
X157812380Y-76291904D01*
X157964761Y-75720476D01*
X158117142Y-76291904D01*
X158307619Y-75491904D01*
X158612380Y-76291904D02*
X158612380Y-75491904D01*
X159069523Y-76291904D01*
X159069523Y-75491904D01*
X157164761Y-78867904D02*
X156783809Y-78867904D01*
X156783809Y-78067904D01*
X157431428Y-78448857D02*
X157698095Y-78448857D01*
X157812380Y-78867904D02*
X157431428Y-78867904D01*
X157431428Y-78067904D01*
X157812380Y-78067904D01*
X158421904Y-78448857D02*
X158155238Y-78448857D01*
X158155238Y-78867904D02*
X158155238Y-78067904D01*
X158536190Y-78067904D01*
X158726666Y-78067904D02*
X159183809Y-78067904D01*
X158955238Y-78867904D02*
X158955238Y-78067904D01*
X159183809Y-81443904D02*
X158802857Y-81443904D01*
X158802857Y-80643904D01*
X170200000Y-125818571D02*
X170161904Y-125894761D01*
X170161904Y-126009047D01*
X170200000Y-126123333D01*
X170276190Y-126199523D01*
X170352380Y-126237619D01*
X170504761Y-126275714D01*
X170619047Y-126275714D01*
X170771428Y-126237619D01*
X170847619Y-126199523D01*
X170923809Y-126123333D01*
X170961904Y-126009047D01*
X170961904Y-125932857D01*
X170923809Y-125818571D01*
X170885714Y-125780476D01*
X170619047Y-125780476D01*
X170619047Y-125932857D01*
X170961904Y-125437619D02*
X170161904Y-125437619D01*
X170961904Y-124980476D01*
X170161904Y-124980476D01*
X170961904Y-124599523D02*
X170161904Y-124599523D01*
X170161904Y-124409047D01*
X170200000Y-124294761D01*
X170276190Y-124218571D01*
X170352380Y-124180476D01*
X170504761Y-124142380D01*
X170619047Y-124142380D01*
X170771428Y-124180476D01*
X170847619Y-124218571D01*
X170923809Y-124294761D01*
X170961904Y-124409047D01*
X170961904Y-124599523D01*
X173461714Y-125780476D02*
X173499809Y-125818571D01*
X173537904Y-125932857D01*
X173537904Y-126009047D01*
X173499809Y-126123333D01*
X173423619Y-126199523D01*
X173347428Y-126237619D01*
X173195047Y-126275714D01*
X173080761Y-126275714D01*
X172928380Y-126237619D01*
X172852190Y-126199523D01*
X172776000Y-126123333D01*
X172737904Y-126009047D01*
X172737904Y-125932857D01*
X172776000Y-125818571D01*
X172814095Y-125780476D01*
X172737904Y-125437619D02*
X173385523Y-125437619D01*
X173461714Y-125399523D01*
X173499809Y-125361428D01*
X173537904Y-125285238D01*
X173537904Y-125132857D01*
X173499809Y-125056666D01*
X173461714Y-125018571D01*
X173385523Y-124980476D01*
X172737904Y-124980476D01*
X173537904Y-124599523D02*
X172737904Y-124599523D01*
X172737904Y-124294761D01*
X172776000Y-124218571D01*
X172814095Y-124180476D01*
X172890285Y-124142380D01*
X173004571Y-124142380D01*
X173080761Y-124180476D01*
X173118857Y-124218571D01*
X173156952Y-124294761D01*
X173156952Y-124599523D01*
X176037714Y-126809047D02*
X176075809Y-126847142D01*
X176113904Y-126961428D01*
X176113904Y-127037619D01*
X176075809Y-127151904D01*
X175999619Y-127228095D01*
X175923428Y-127266190D01*
X175771047Y-127304285D01*
X175656761Y-127304285D01*
X175504380Y-127266190D01*
X175428190Y-127228095D01*
X175352000Y-127151904D01*
X175313904Y-127037619D01*
X175313904Y-126961428D01*
X175352000Y-126847142D01*
X175390095Y-126809047D01*
X176113904Y-126085238D02*
X176113904Y-126466190D01*
X175313904Y-126466190D01*
X175694857Y-125818571D02*
X175694857Y-125551904D01*
X176113904Y-125437619D02*
X176113904Y-125818571D01*
X175313904Y-125818571D01*
X175313904Y-125437619D01*
X175694857Y-124828095D02*
X175694857Y-125094761D01*
X176113904Y-125094761D02*
X175313904Y-125094761D01*
X175313904Y-124713809D01*
X175313904Y-124523333D02*
X175313904Y-124066190D01*
X176113904Y-124294761D02*
X175313904Y-124294761D01*
X178461333Y-124523333D02*
X178461333Y-124142380D01*
X178689904Y-124599523D02*
X177889904Y-124332857D01*
X178689904Y-124066190D01*
X181189714Y-127532857D02*
X181227809Y-127570952D01*
X181265904Y-127685238D01*
X181265904Y-127761428D01*
X181227809Y-127875714D01*
X181151619Y-127951904D01*
X181075428Y-127990000D01*
X180923047Y-128028095D01*
X180808761Y-128028095D01*
X180656380Y-127990000D01*
X180580190Y-127951904D01*
X180504000Y-127875714D01*
X180465904Y-127761428D01*
X180465904Y-127685238D01*
X180504000Y-127570952D01*
X180542095Y-127532857D01*
X181265904Y-127190000D02*
X180465904Y-127190000D01*
X180465904Y-126999523D01*
X180504000Y-126885238D01*
X180580190Y-126809047D01*
X180656380Y-126770952D01*
X180808761Y-126732857D01*
X180923047Y-126732857D01*
X181075428Y-126770952D01*
X181151619Y-126809047D01*
X181227809Y-126885238D01*
X181265904Y-126999523D01*
X181265904Y-127190000D01*
X180465904Y-126237619D02*
X180465904Y-126085238D01*
X180504000Y-126009047D01*
X180580190Y-125932857D01*
X180732571Y-125894761D01*
X180999238Y-125894761D01*
X181151619Y-125932857D01*
X181227809Y-126009047D01*
X181265904Y-126085238D01*
X181265904Y-126237619D01*
X181227809Y-126313809D01*
X181151619Y-126390000D01*
X180999238Y-126428095D01*
X180732571Y-126428095D01*
X180580190Y-126390000D01*
X180504000Y-126313809D01*
X180465904Y-126237619D01*
X180465904Y-125628095D02*
X181265904Y-125437619D01*
X180694476Y-125285238D01*
X181265904Y-125132857D01*
X180465904Y-124942380D01*
X181265904Y-124637619D02*
X180465904Y-124637619D01*
X181265904Y-124180476D01*
X180465904Y-124180476D01*
X183765714Y-127570952D02*
X183803809Y-127609047D01*
X183841904Y-127723333D01*
X183841904Y-127799523D01*
X183803809Y-127913809D01*
X183727619Y-127990000D01*
X183651428Y-128028095D01*
X183499047Y-128066190D01*
X183384761Y-128066190D01*
X183232380Y-128028095D01*
X183156190Y-127990000D01*
X183080000Y-127913809D01*
X183041904Y-127799523D01*
X183041904Y-127723333D01*
X183080000Y-127609047D01*
X183118095Y-127570952D01*
X183841904Y-126770952D02*
X183460952Y-127037619D01*
X183841904Y-127228095D02*
X183041904Y-127228095D01*
X183041904Y-126923333D01*
X183080000Y-126847142D01*
X183118095Y-126809047D01*
X183194285Y-126770952D01*
X183308571Y-126770952D01*
X183384761Y-126809047D01*
X183422857Y-126847142D01*
X183460952Y-126923333D01*
X183460952Y-127228095D01*
X183841904Y-126428095D02*
X183041904Y-126428095D01*
X183080000Y-125628095D02*
X183041904Y-125704285D01*
X183041904Y-125818571D01*
X183080000Y-125932857D01*
X183156190Y-126009047D01*
X183232380Y-126047142D01*
X183384761Y-126085238D01*
X183499047Y-126085238D01*
X183651428Y-126047142D01*
X183727619Y-126009047D01*
X183803809Y-125932857D01*
X183841904Y-125818571D01*
X183841904Y-125742380D01*
X183803809Y-125628095D01*
X183765714Y-125590000D01*
X183499047Y-125590000D01*
X183499047Y-125742380D01*
X183841904Y-125247142D02*
X183041904Y-125247142D01*
X183422857Y-125247142D02*
X183422857Y-124790000D01*
X183841904Y-124790000D02*
X183041904Y-124790000D01*
X183041904Y-124523333D02*
X183041904Y-124066190D01*
X183841904Y-124294761D02*
X183041904Y-124294761D01*
X157431428Y-86154000D02*
X157355238Y-86115904D01*
X157240952Y-86115904D01*
X157126666Y-86154000D01*
X157050476Y-86230190D01*
X157012380Y-86306380D01*
X156974285Y-86458761D01*
X156974285Y-86573047D01*
X157012380Y-86725428D01*
X157050476Y-86801619D01*
X157126666Y-86877809D01*
X157240952Y-86915904D01*
X157317142Y-86915904D01*
X157431428Y-86877809D01*
X157469523Y-86839714D01*
X157469523Y-86573047D01*
X157317142Y-86573047D01*
X157812380Y-86915904D02*
X157812380Y-86115904D01*
X158269523Y-86915904D01*
X158269523Y-86115904D01*
X158650476Y-86915904D02*
X158650476Y-86115904D01*
X158840952Y-86115904D01*
X158955238Y-86154000D01*
X159031428Y-86230190D01*
X159069523Y-86306380D01*
X159107619Y-86458761D01*
X159107619Y-86573047D01*
X159069523Y-86725428D01*
X159031428Y-86801619D01*
X158955238Y-86877809D01*
X158840952Y-86915904D01*
X158650476Y-86915904D01*
X157774285Y-89491904D02*
X157774285Y-88691904D01*
X158040952Y-89263333D01*
X158307619Y-88691904D01*
X158307619Y-89491904D01*
X159107619Y-89491904D02*
X158650476Y-89491904D01*
X158879047Y-89491904D02*
X158879047Y-88691904D01*
X158802857Y-88806190D01*
X158726666Y-88882380D01*
X158650476Y-88920476D01*
X157774285Y-92067904D02*
X157774285Y-91267904D01*
X158040952Y-91839333D01*
X158307619Y-91267904D01*
X158307619Y-92067904D01*
X158650476Y-91344095D02*
X158688571Y-91306000D01*
X158764761Y-91267904D01*
X158955238Y-91267904D01*
X159031428Y-91306000D01*
X159069523Y-91344095D01*
X159107619Y-91420285D01*
X159107619Y-91496476D01*
X159069523Y-91610761D01*
X158612380Y-92067904D01*
X159107619Y-92067904D01*
D11*
%TO.C,J8*%
X176582916Y-88998273D02*
X176582916Y-89905416D01*
X176522440Y-90086845D01*
X176401488Y-90207797D01*
X176220059Y-90268273D01*
X176099107Y-90268273D01*
X177369107Y-89542559D02*
X177248154Y-89482083D01*
X177187678Y-89421607D01*
X177127202Y-89300654D01*
X177127202Y-89240178D01*
X177187678Y-89119226D01*
X177248154Y-89058750D01*
X177369107Y-88998273D01*
X177611011Y-88998273D01*
X177731964Y-89058750D01*
X177792440Y-89119226D01*
X177852916Y-89240178D01*
X177852916Y-89300654D01*
X177792440Y-89421607D01*
X177731964Y-89482083D01*
X177611011Y-89542559D01*
X177369107Y-89542559D01*
X177248154Y-89603035D01*
X177187678Y-89663511D01*
X177127202Y-89784464D01*
X177127202Y-90026369D01*
X177187678Y-90147321D01*
X177248154Y-90207797D01*
X177369107Y-90268273D01*
X177611011Y-90268273D01*
X177731964Y-90207797D01*
X177792440Y-90147321D01*
X177852916Y-90026369D01*
X177852916Y-89784464D01*
X177792440Y-89663511D01*
X177731964Y-89603035D01*
X177611011Y-89542559D01*
%TO.C,D1*%
X198016904Y-49576130D02*
X198016904Y-48576130D01*
X198255000Y-48576130D01*
X198397857Y-48623750D01*
X198493095Y-48718988D01*
X198540714Y-48814226D01*
X198588333Y-49004702D01*
X198588333Y-49147559D01*
X198540714Y-49338035D01*
X198493095Y-49433273D01*
X198397857Y-49528511D01*
X198255000Y-49576130D01*
X198016904Y-49576130D01*
X199540714Y-49576130D02*
X198969285Y-49576130D01*
X199255000Y-49576130D02*
X199255000Y-48576130D01*
X199159761Y-48718988D01*
X199064523Y-48814226D01*
X198969285Y-48861845D01*
X193413095Y-49946130D02*
X193413095Y-48946130D01*
X193984523Y-49946130D02*
X193555952Y-49374702D01*
X193984523Y-48946130D02*
X193413095Y-49517559D01*
%TO.C,J6*%
X182588630Y-53843333D02*
X183302916Y-53843333D01*
X183445773Y-53890952D01*
X183541011Y-53986190D01*
X183588630Y-54129047D01*
X183588630Y-54224285D01*
X182588630Y-52938571D02*
X182588630Y-53129047D01*
X182636250Y-53224285D01*
X182683869Y-53271904D01*
X182826726Y-53367142D01*
X183017202Y-53414761D01*
X183398154Y-53414761D01*
X183493392Y-53367142D01*
X183541011Y-53319523D01*
X183588630Y-53224285D01*
X183588630Y-53033809D01*
X183541011Y-52938571D01*
X183493392Y-52890952D01*
X183398154Y-52843333D01*
X183160059Y-52843333D01*
X183064821Y-52890952D01*
X183017202Y-52938571D01*
X182969583Y-53033809D01*
X182969583Y-53224285D01*
X183017202Y-53319523D01*
X183064821Y-53367142D01*
X183160059Y-53414761D01*
%TO.C,J5*%
X178955714Y-32260000D02*
X178860476Y-32212380D01*
X178717619Y-32212380D01*
X178574761Y-32260000D01*
X178479523Y-32355238D01*
X178431904Y-32450476D01*
X178384285Y-32640952D01*
X178384285Y-32783809D01*
X178431904Y-32974285D01*
X178479523Y-33069523D01*
X178574761Y-33164761D01*
X178717619Y-33212380D01*
X178812857Y-33212380D01*
X178955714Y-33164761D01*
X179003333Y-33117142D01*
X179003333Y-32783809D01*
X178812857Y-32783809D01*
X180003333Y-33117142D02*
X179955714Y-33164761D01*
X179812857Y-33212380D01*
X179717619Y-33212380D01*
X179574761Y-33164761D01*
X179479523Y-33069523D01*
X179431904Y-32974285D01*
X179384285Y-32783809D01*
X179384285Y-32640952D01*
X179431904Y-32450476D01*
X179479523Y-32355238D01*
X179574761Y-32260000D01*
X179717619Y-32212380D01*
X179812857Y-32212380D01*
X179955714Y-32260000D01*
X180003333Y-32307619D01*
X181003333Y-33117142D02*
X180955714Y-33164761D01*
X180812857Y-33212380D01*
X180717619Y-33212380D01*
X180574761Y-33164761D01*
X180479523Y-33069523D01*
X180431904Y-32974285D01*
X180384285Y-32783809D01*
X180384285Y-32640952D01*
X180431904Y-32450476D01*
X180479523Y-32355238D01*
X180574761Y-32260000D01*
X180717619Y-32212380D01*
X180812857Y-32212380D01*
X180955714Y-32260000D01*
X181003333Y-32307619D01*
X182765238Y-33117142D02*
X182717619Y-33164761D01*
X182574761Y-33212380D01*
X182479523Y-33212380D01*
X182336666Y-33164761D01*
X182241428Y-33069523D01*
X182193809Y-32974285D01*
X182146190Y-32783809D01*
X182146190Y-32640952D01*
X182193809Y-32450476D01*
X182241428Y-32355238D01*
X182336666Y-32260000D01*
X182479523Y-32212380D01*
X182574761Y-32212380D01*
X182717619Y-32260000D01*
X182765238Y-32307619D01*
X183622380Y-33212380D02*
X183622380Y-32688571D01*
X183574761Y-32593333D01*
X183479523Y-32545714D01*
X183289047Y-32545714D01*
X183193809Y-32593333D01*
X183622380Y-33164761D02*
X183527142Y-33212380D01*
X183289047Y-33212380D01*
X183193809Y-33164761D01*
X183146190Y-33069523D01*
X183146190Y-32974285D01*
X183193809Y-32879047D01*
X183289047Y-32831428D01*
X183527142Y-32831428D01*
X183622380Y-32783809D01*
X184098571Y-33212380D02*
X184098571Y-32212380D01*
X184098571Y-32593333D02*
X184193809Y-32545714D01*
X184384285Y-32545714D01*
X184479523Y-32593333D01*
X184527142Y-32640952D01*
X184574761Y-32736190D01*
X184574761Y-33021904D01*
X184527142Y-33117142D01*
X184479523Y-33164761D01*
X184384285Y-33212380D01*
X184193809Y-33212380D01*
X184098571Y-33164761D01*
X185146190Y-33212380D02*
X185050952Y-33164761D01*
X185003333Y-33069523D01*
X185003333Y-32212380D01*
X185908095Y-33164761D02*
X185812857Y-33212380D01*
X185622380Y-33212380D01*
X185527142Y-33164761D01*
X185479523Y-33069523D01*
X185479523Y-32688571D01*
X185527142Y-32593333D01*
X185622380Y-32545714D01*
X185812857Y-32545714D01*
X185908095Y-32593333D01*
X185955714Y-32688571D01*
X185955714Y-32783809D01*
X185479523Y-32879047D01*
%TO.C,J7*%
X198245166Y-35181130D02*
X198245166Y-35895416D01*
X198197547Y-36038273D01*
X198102309Y-36133511D01*
X197959452Y-36181130D01*
X197864214Y-36181130D01*
X198626119Y-35181130D02*
X199292785Y-35181130D01*
X198864214Y-36181130D01*
D12*
%TO.C,J9*%
X162940000Y-71940000D02*
X162940000Y-82160000D01*
X160280000Y-70670000D02*
X160280000Y-69340000D01*
X160280000Y-71940000D02*
X162940000Y-71940000D01*
X160280000Y-82160000D02*
X162940000Y-82160000D01*
X160280000Y-69340000D02*
X161610000Y-69340000D01*
X160280000Y-71940000D02*
X160280000Y-82160000D01*
D13*
%TO.C,J8*%
X180906250Y-64193750D02*
X187506250Y-64193750D01*
X187506250Y-115193750D02*
X166506250Y-115193750D01*
X173006250Y-64193750D02*
X180906250Y-64193750D01*
X173006250Y-64193750D02*
X173006250Y-68693750D01*
X166506250Y-115193750D02*
X166506250Y-64193750D01*
X173006250Y-64193750D02*
X173006250Y-62693750D01*
X181006250Y-62693750D02*
X180906250Y-64193750D01*
X181006250Y-68693750D02*
X180906250Y-64193750D01*
X173006250Y-62693750D02*
X181006250Y-62693750D01*
X173006250Y-68693750D02*
X181006250Y-68693750D01*
X166506250Y-64193750D02*
X173006250Y-64193750D01*
X187506250Y-64193750D02*
X187506250Y-115193750D01*
D12*
%TO.C,D2*%
X197546250Y-50633750D02*
X197546250Y-52553750D01*
X197546250Y-52553750D02*
X200231250Y-52553750D01*
X200231250Y-50633750D02*
X197546250Y-50633750D01*
%TO.C,D1*%
X201475000Y-53063750D02*
X201475000Y-50123750D01*
X196035000Y-50123750D02*
X196035000Y-53063750D01*
X201475000Y-50123750D02*
X196035000Y-50123750D01*
X196935000Y-50123750D02*
X196935000Y-53063750D01*
X195015000Y-51593750D02*
X196035000Y-51593750D01*
X196815000Y-50123750D02*
X196815000Y-53063750D01*
X196035000Y-53063750D02*
X201475000Y-53063750D01*
X202495000Y-51593750D02*
X201475000Y-51593750D01*
X197055000Y-50123750D02*
X197055000Y-53063750D01*
%TO.C,J6*%
X180806250Y-52180000D02*
X182136250Y-52180000D01*
X179536250Y-52180000D02*
X171856250Y-52180000D01*
X182136250Y-52180000D02*
X182136250Y-53510000D01*
X179536250Y-52180000D02*
X179536250Y-54840000D01*
X179536250Y-54840000D02*
X171856250Y-54840000D01*
X171856250Y-52180000D02*
X171856250Y-54840000D01*
%TO.C,J12*%
X193720000Y-108920000D02*
X191060000Y-108920000D01*
X193720000Y-108920000D02*
X193720000Y-88540000D01*
X193720000Y-111520000D02*
X192390000Y-111520000D01*
X193720000Y-88540000D02*
X191060000Y-88540000D01*
X193720000Y-110190000D02*
X193720000Y-111520000D01*
X191060000Y-108920000D02*
X191060000Y-88540000D01*
%TO.C,J11*%
X171870000Y-120900000D02*
X184630000Y-120900000D01*
X171870000Y-123560000D02*
X171870000Y-120900000D01*
X171870000Y-123560000D02*
X184630000Y-123560000D01*
X184630000Y-123560000D02*
X184630000Y-120900000D01*
X169270000Y-123560000D02*
X169270000Y-122230000D01*
X170600000Y-123560000D02*
X169270000Y-123560000D01*
%TO.C,J5*%
X176212500Y-31492500D02*
X174882500Y-31492500D01*
X177482500Y-31492500D02*
X190242500Y-31492500D01*
X174882500Y-31492500D02*
X174882500Y-30162500D01*
X177482500Y-31492500D02*
X177482500Y-28832500D01*
X190242500Y-31492500D02*
X190242500Y-28832500D01*
X177482500Y-28832500D02*
X190242500Y-28832500D01*
%TO.C,H18*%
G36*
X159818871Y-33280153D02*
G01*
X159834452Y-33280341D01*
X159846909Y-33280749D01*
X159857222Y-33281445D01*
X159866369Y-33282495D01*
X159875327Y-33283966D01*
X159885075Y-33285926D01*
X159885550Y-33286027D01*
X159930887Y-33298127D01*
X159973625Y-33314450D01*
X160013575Y-33334850D01*
X160050550Y-33359181D01*
X160084360Y-33387295D01*
X160114819Y-33419046D01*
X160141737Y-33454288D01*
X160164926Y-33492873D01*
X160173775Y-33510607D01*
X160190698Y-33552441D01*
X160202940Y-33595633D01*
X160210540Y-33639738D01*
X160213536Y-33684312D01*
X160211965Y-33728907D01*
X160205867Y-33773079D01*
X160195277Y-33816382D01*
X160180236Y-33858371D01*
X160160780Y-33898600D01*
X160137463Y-33935895D01*
X160125409Y-33951495D01*
X160110302Y-33968718D01*
X160093323Y-33986382D01*
X160075654Y-34003304D01*
X160058477Y-34018303D01*
X160043595Y-34029763D01*
X160010645Y-34050435D01*
X159974671Y-34068458D01*
X159937048Y-34083263D01*
X159899145Y-34094282D01*
X159876483Y-34098901D01*
X159861453Y-34101036D01*
X159844051Y-34102873D01*
X159825643Y-34104327D01*
X159807596Y-34105314D01*
X159791275Y-34105748D01*
X159778045Y-34105546D01*
X159773790Y-34105256D01*
X159726254Y-34098982D01*
X159682162Y-34089162D01*
X159641171Y-34075640D01*
X159602939Y-34058260D01*
X159567125Y-34036863D01*
X159533386Y-34011293D01*
X159501381Y-33981394D01*
X159499379Y-33979324D01*
X159469719Y-33944934D01*
X159444489Y-33908062D01*
X159423699Y-33868726D01*
X159407356Y-33826945D01*
X159395470Y-33782739D01*
X159388806Y-33742681D01*
X159387327Y-33724470D01*
X159386773Y-33702951D01*
X159387085Y-33679664D01*
X159388205Y-33656151D01*
X159390074Y-33633950D01*
X159392635Y-33614603D01*
X159393909Y-33607670D01*
X159405578Y-33562634D01*
X159421569Y-33520118D01*
X159441688Y-33480319D01*
X159465739Y-33443431D01*
X159493527Y-33409651D01*
X159524859Y-33379174D01*
X159559538Y-33352196D01*
X159597370Y-33328912D01*
X159638160Y-33309520D01*
X159681714Y-33294214D01*
X159714100Y-33285958D01*
X159723579Y-33284024D01*
X159732422Y-33282566D01*
X159741593Y-33281520D01*
X159752057Y-33280818D01*
X159764779Y-33280394D01*
X159780723Y-33280183D01*
X159799190Y-33280119D01*
X159818871Y-33280153D01*
G37*
D14*
X159818871Y-33280153D02*
X159834452Y-33280341D01*
X159846909Y-33280749D01*
X159857222Y-33281445D01*
X159866369Y-33282495D01*
X159875327Y-33283966D01*
X159885075Y-33285926D01*
X159885550Y-33286027D01*
X159930887Y-33298127D01*
X159973625Y-33314450D01*
X160013575Y-33334850D01*
X160050550Y-33359181D01*
X160084360Y-33387295D01*
X160114819Y-33419046D01*
X160141737Y-33454288D01*
X160164926Y-33492873D01*
X160173775Y-33510607D01*
X160190698Y-33552441D01*
X160202940Y-33595633D01*
X160210540Y-33639738D01*
X160213536Y-33684312D01*
X160211965Y-33728907D01*
X160205867Y-33773079D01*
X160195277Y-33816382D01*
X160180236Y-33858371D01*
X160160780Y-33898600D01*
X160137463Y-33935895D01*
X160125409Y-33951495D01*
X160110302Y-33968718D01*
X160093323Y-33986382D01*
X160075654Y-34003304D01*
X160058477Y-34018303D01*
X160043595Y-34029763D01*
X160010645Y-34050435D01*
X159974671Y-34068458D01*
X159937048Y-34083263D01*
X159899145Y-34094282D01*
X159876483Y-34098901D01*
X159861453Y-34101036D01*
X159844051Y-34102873D01*
X159825643Y-34104327D01*
X159807596Y-34105314D01*
X159791275Y-34105748D01*
X159778045Y-34105546D01*
X159773790Y-34105256D01*
X159726254Y-34098982D01*
X159682162Y-34089162D01*
X159641171Y-34075640D01*
X159602939Y-34058260D01*
X159567125Y-34036863D01*
X159533386Y-34011293D01*
X159501381Y-33981394D01*
X159499379Y-33979324D01*
X159469719Y-33944934D01*
X159444489Y-33908062D01*
X159423699Y-33868726D01*
X159407356Y-33826945D01*
X159395470Y-33782739D01*
X159388806Y-33742681D01*
X159387327Y-33724470D01*
X159386773Y-33702951D01*
X159387085Y-33679664D01*
X159388205Y-33656151D01*
X159390074Y-33633950D01*
X159392635Y-33614603D01*
X159393909Y-33607670D01*
X159405578Y-33562634D01*
X159421569Y-33520118D01*
X159441688Y-33480319D01*
X159465739Y-33443431D01*
X159493527Y-33409651D01*
X159524859Y-33379174D01*
X159559538Y-33352196D01*
X159597370Y-33328912D01*
X159638160Y-33309520D01*
X159681714Y-33294214D01*
X159714100Y-33285958D01*
X159723579Y-33284024D01*
X159732422Y-33282566D01*
X159741593Y-33281520D01*
X159752057Y-33280818D01*
X159764779Y-33280394D01*
X159780723Y-33280183D01*
X159799190Y-33280119D01*
X159818871Y-33280153D01*
G36*
X166221618Y-43870579D02*
G01*
X166265970Y-43877200D01*
X166270658Y-43878192D01*
X166314689Y-43890335D01*
X166356808Y-43907041D01*
X166396700Y-43928052D01*
X166434048Y-43953108D01*
X166468535Y-43981951D01*
X166499846Y-44014321D01*
X166527664Y-44049960D01*
X166551673Y-44088607D01*
X166568097Y-44121908D01*
X166583723Y-44163596D01*
X166594794Y-44206872D01*
X166601282Y-44251147D01*
X166603159Y-44295833D01*
X166600397Y-44340341D01*
X166592968Y-44384083D01*
X166582439Y-44421796D01*
X166565675Y-44464232D01*
X166544821Y-44503994D01*
X166520189Y-44540885D01*
X166492096Y-44574709D01*
X166460854Y-44605270D01*
X166426778Y-44632370D01*
X166390183Y-44655815D01*
X166351382Y-44675408D01*
X166310689Y-44690952D01*
X166268420Y-44702251D01*
X166224888Y-44709110D01*
X166180408Y-44711332D01*
X166135293Y-44708720D01*
X166125060Y-44707442D01*
X166080064Y-44698747D01*
X166036775Y-44685300D01*
X165995375Y-44667197D01*
X165956050Y-44644533D01*
X165918985Y-44617405D01*
X165884364Y-44585907D01*
X165878680Y-44580066D01*
X165848180Y-44544666D01*
X165822164Y-44506911D01*
X165800588Y-44466717D01*
X165783407Y-44423999D01*
X165770575Y-44378670D01*
X165769113Y-44372061D01*
X165767060Y-44361895D01*
X165765537Y-44352603D01*
X165764471Y-44343139D01*
X165763788Y-44332455D01*
X165763412Y-44319503D01*
X165763270Y-44303238D01*
X165763269Y-44289640D01*
X165763554Y-44265237D01*
X165764428Y-44244629D01*
X165766075Y-44226546D01*
X165768683Y-44209721D01*
X165772437Y-44192882D01*
X165777522Y-44174762D01*
X165782284Y-44159682D01*
X165798593Y-44117569D01*
X165819006Y-44078083D01*
X165843199Y-44041410D01*
X165870847Y-44007738D01*
X165901626Y-43977253D01*
X165935210Y-43950144D01*
X165971277Y-43926596D01*
X166009500Y-43906797D01*
X166049557Y-43890933D01*
X166091121Y-43879193D01*
X166133869Y-43871762D01*
X166177476Y-43868828D01*
X166221618Y-43870579D01*
G37*
X166221618Y-43870579D02*
X166265970Y-43877200D01*
X166270658Y-43878192D01*
X166314689Y-43890335D01*
X166356808Y-43907041D01*
X166396700Y-43928052D01*
X166434048Y-43953108D01*
X166468535Y-43981951D01*
X166499846Y-44014321D01*
X166527664Y-44049960D01*
X166551673Y-44088607D01*
X166568097Y-44121908D01*
X166583723Y-44163596D01*
X166594794Y-44206872D01*
X166601282Y-44251147D01*
X166603159Y-44295833D01*
X166600397Y-44340341D01*
X166592968Y-44384083D01*
X166582439Y-44421796D01*
X166565675Y-44464232D01*
X166544821Y-44503994D01*
X166520189Y-44540885D01*
X166492096Y-44574709D01*
X166460854Y-44605270D01*
X166426778Y-44632370D01*
X166390183Y-44655815D01*
X166351382Y-44675408D01*
X166310689Y-44690952D01*
X166268420Y-44702251D01*
X166224888Y-44709110D01*
X166180408Y-44711332D01*
X166135293Y-44708720D01*
X166125060Y-44707442D01*
X166080064Y-44698747D01*
X166036775Y-44685300D01*
X165995375Y-44667197D01*
X165956050Y-44644533D01*
X165918985Y-44617405D01*
X165884364Y-44585907D01*
X165878680Y-44580066D01*
X165848180Y-44544666D01*
X165822164Y-44506911D01*
X165800588Y-44466717D01*
X165783407Y-44423999D01*
X165770575Y-44378670D01*
X165769113Y-44372061D01*
X165767060Y-44361895D01*
X165765537Y-44352603D01*
X165764471Y-44343139D01*
X165763788Y-44332455D01*
X165763412Y-44319503D01*
X165763270Y-44303238D01*
X165763269Y-44289640D01*
X165763554Y-44265237D01*
X165764428Y-44244629D01*
X165766075Y-44226546D01*
X165768683Y-44209721D01*
X165772437Y-44192882D01*
X165777522Y-44174762D01*
X165782284Y-44159682D01*
X165798593Y-44117569D01*
X165819006Y-44078083D01*
X165843199Y-44041410D01*
X165870847Y-44007738D01*
X165901626Y-43977253D01*
X165935210Y-43950144D01*
X165971277Y-43926596D01*
X166009500Y-43906797D01*
X166049557Y-43890933D01*
X166091121Y-43879193D01*
X166133869Y-43871762D01*
X166177476Y-43868828D01*
X166221618Y-43870579D01*
G36*
X161997869Y-35197740D02*
G01*
X162052079Y-35205907D01*
X162106029Y-35219092D01*
X162134918Y-35228281D01*
X162154196Y-35235626D01*
X162176199Y-35245180D01*
X162199492Y-35256233D01*
X162222641Y-35268077D01*
X162244213Y-35280001D01*
X162262774Y-35291297D01*
X162264260Y-35292266D01*
X162308753Y-35324415D01*
X162350041Y-35360178D01*
X162387899Y-35399231D01*
X162422104Y-35441246D01*
X162452433Y-35485898D01*
X162478661Y-35532860D01*
X162500567Y-35581806D01*
X162517926Y-35632409D01*
X162529577Y-35679596D01*
X162533932Y-35702738D01*
X162537102Y-35723733D01*
X162539242Y-35744213D01*
X162540506Y-35765812D01*
X162541049Y-35790161D01*
X162541099Y-35801361D01*
X162540299Y-35837314D01*
X162537706Y-35870368D01*
X162533083Y-35902461D01*
X162526195Y-35935531D01*
X162523258Y-35947485D01*
X162507324Y-36000131D01*
X162486961Y-36050534D01*
X162462397Y-36098488D01*
X162433858Y-36143784D01*
X162401572Y-36186214D01*
X162365766Y-36225570D01*
X162326665Y-36261643D01*
X162284499Y-36294226D01*
X162239492Y-36323111D01*
X162191872Y-36348089D01*
X162141867Y-36368952D01*
X162089702Y-36385493D01*
X162035606Y-36397502D01*
X162031850Y-36398151D01*
X162012807Y-36400700D01*
X161990121Y-36402639D01*
X161965177Y-36403938D01*
X161939360Y-36404570D01*
X161914056Y-36404503D01*
X161890650Y-36403710D01*
X161870527Y-36402161D01*
X161866134Y-36401647D01*
X161811256Y-36392152D01*
X161757880Y-36377877D01*
X161706274Y-36358950D01*
X161656704Y-36335498D01*
X161609437Y-36307647D01*
X161564739Y-36275526D01*
X161522879Y-36239261D01*
X161520040Y-36236549D01*
X161493268Y-36212585D01*
X161462261Y-36187950D01*
X161427733Y-36163124D01*
X161390396Y-36138585D01*
X161350965Y-36114811D01*
X161310151Y-36092283D01*
X161288900Y-36081361D01*
X161225040Y-36051781D01*
X161160664Y-36026855D01*
X161095120Y-36006388D01*
X161027756Y-35990185D01*
X160957920Y-35978052D01*
X160930760Y-35974487D01*
X160910955Y-35972624D01*
X160887273Y-35971236D01*
X160860843Y-35970323D01*
X160832799Y-35969884D01*
X160804272Y-35969920D01*
X160776395Y-35970429D01*
X160750299Y-35971411D01*
X160727117Y-35972867D01*
X160709780Y-35974568D01*
X160635561Y-35986080D01*
X160563328Y-36002234D01*
X160492966Y-36023074D01*
X160424358Y-36048643D01*
X160357390Y-36078988D01*
X160291946Y-36114152D01*
X160227909Y-36154179D01*
X160208231Y-36167649D01*
X160195080Y-36177041D01*
X160181727Y-36186928D01*
X160169503Y-36196300D01*
X160159743Y-36204150D01*
X160157431Y-36206111D01*
X160127065Y-36230975D01*
X160097220Y-36252379D01*
X160066206Y-36271438D01*
X160032332Y-36289267D01*
X160028590Y-36291089D01*
X159980468Y-36311642D01*
X159931510Y-36327226D01*
X159881933Y-36337842D01*
X159831952Y-36343491D01*
X159781785Y-36344175D01*
X159731646Y-36339895D01*
X159681754Y-36330650D01*
X159632323Y-36316444D01*
X159583571Y-36297276D01*
X159565510Y-36288810D01*
X159519813Y-36263751D01*
X159477239Y-36235019D01*
X159437933Y-36202905D01*
X159402043Y-36167700D01*
X159369718Y-36129696D01*
X159341104Y-36089183D01*
X159316350Y-36046454D01*
X159295602Y-36001799D01*
X159279010Y-35955511D01*
X159266719Y-35907879D01*
X159258879Y-35859196D01*
X159255636Y-35809753D01*
X159257138Y-35759842D01*
X159263532Y-35709753D01*
X159265868Y-35697457D01*
X159278412Y-35647715D01*
X159295342Y-35599985D01*
X159316393Y-35554473D01*
X159341298Y-35511384D01*
X159369792Y-35470924D01*
X159401609Y-35433299D01*
X159436483Y-35398714D01*
X159474147Y-35367376D01*
X159514336Y-35339490D01*
X159556783Y-35315262D01*
X159601223Y-35294898D01*
X159647390Y-35278604D01*
X159695016Y-35266585D01*
X159743838Y-35259047D01*
X159793588Y-35256196D01*
X159834608Y-35257480D01*
X159886495Y-35263635D01*
X159936808Y-35274581D01*
X159985589Y-35290337D01*
X160032880Y-35310922D01*
X160078721Y-35336353D01*
X160123153Y-35366650D01*
X160166218Y-35401830D01*
X160175806Y-35410496D01*
X160191569Y-35423855D01*
X160211204Y-35438642D01*
X160233889Y-35454340D01*
X160258801Y-35470433D01*
X160285120Y-35486406D01*
X160312022Y-35501741D01*
X160338687Y-35515924D01*
X160361800Y-35527275D01*
X160425476Y-35554514D01*
X160491801Y-35577815D01*
X160559927Y-35596924D01*
X160629005Y-35611586D01*
X160660250Y-35616676D01*
X160701117Y-35622000D01*
X160741937Y-35625977D01*
X160781655Y-35628548D01*
X160819216Y-35629654D01*
X160853564Y-35629236D01*
X160869800Y-35628397D01*
X160940579Y-35621964D01*
X161007765Y-35612415D01*
X161071876Y-35599616D01*
X161133428Y-35583434D01*
X161192941Y-35563735D01*
X161250932Y-35540386D01*
X161298519Y-35518020D01*
X161346775Y-35492527D01*
X161390602Y-35466520D01*
X161430650Y-35439555D01*
X161467571Y-35411185D01*
X161502014Y-35380962D01*
X161511687Y-35371733D01*
X161552933Y-35334550D01*
X161595286Y-35302144D01*
X161639092Y-35274274D01*
X161678790Y-35253461D01*
X161730193Y-35231764D01*
X161782584Y-35215016D01*
X161835756Y-35203228D01*
X161889499Y-35196412D01*
X161943606Y-35194579D01*
X161997869Y-35197740D01*
G37*
X161997869Y-35197740D02*
X162052079Y-35205907D01*
X162106029Y-35219092D01*
X162134918Y-35228281D01*
X162154196Y-35235626D01*
X162176199Y-35245180D01*
X162199492Y-35256233D01*
X162222641Y-35268077D01*
X162244213Y-35280001D01*
X162262774Y-35291297D01*
X162264260Y-35292266D01*
X162308753Y-35324415D01*
X162350041Y-35360178D01*
X162387899Y-35399231D01*
X162422104Y-35441246D01*
X162452433Y-35485898D01*
X162478661Y-35532860D01*
X162500567Y-35581806D01*
X162517926Y-35632409D01*
X162529577Y-35679596D01*
X162533932Y-35702738D01*
X162537102Y-35723733D01*
X162539242Y-35744213D01*
X162540506Y-35765812D01*
X162541049Y-35790161D01*
X162541099Y-35801361D01*
X162540299Y-35837314D01*
X162537706Y-35870368D01*
X162533083Y-35902461D01*
X162526195Y-35935531D01*
X162523258Y-35947485D01*
X162507324Y-36000131D01*
X162486961Y-36050534D01*
X162462397Y-36098488D01*
X162433858Y-36143784D01*
X162401572Y-36186214D01*
X162365766Y-36225570D01*
X162326665Y-36261643D01*
X162284499Y-36294226D01*
X162239492Y-36323111D01*
X162191872Y-36348089D01*
X162141867Y-36368952D01*
X162089702Y-36385493D01*
X162035606Y-36397502D01*
X162031850Y-36398151D01*
X162012807Y-36400700D01*
X161990121Y-36402639D01*
X161965177Y-36403938D01*
X161939360Y-36404570D01*
X161914056Y-36404503D01*
X161890650Y-36403710D01*
X161870527Y-36402161D01*
X161866134Y-36401647D01*
X161811256Y-36392152D01*
X161757880Y-36377877D01*
X161706274Y-36358950D01*
X161656704Y-36335498D01*
X161609437Y-36307647D01*
X161564739Y-36275526D01*
X161522879Y-36239261D01*
X161520040Y-36236549D01*
X161493268Y-36212585D01*
X161462261Y-36187950D01*
X161427733Y-36163124D01*
X161390396Y-36138585D01*
X161350965Y-36114811D01*
X161310151Y-36092283D01*
X161288900Y-36081361D01*
X161225040Y-36051781D01*
X161160664Y-36026855D01*
X161095120Y-36006388D01*
X161027756Y-35990185D01*
X160957920Y-35978052D01*
X160930760Y-35974487D01*
X160910955Y-35972624D01*
X160887273Y-35971236D01*
X160860843Y-35970323D01*
X160832799Y-35969884D01*
X160804272Y-35969920D01*
X160776395Y-35970429D01*
X160750299Y-35971411D01*
X160727117Y-35972867D01*
X160709780Y-35974568D01*
X160635561Y-35986080D01*
X160563328Y-36002234D01*
X160492966Y-36023074D01*
X160424358Y-36048643D01*
X160357390Y-36078988D01*
X160291946Y-36114152D01*
X160227909Y-36154179D01*
X160208231Y-36167649D01*
X160195080Y-36177041D01*
X160181727Y-36186928D01*
X160169503Y-36196300D01*
X160159743Y-36204150D01*
X160157431Y-36206111D01*
X160127065Y-36230975D01*
X160097220Y-36252379D01*
X160066206Y-36271438D01*
X160032332Y-36289267D01*
X160028590Y-36291089D01*
X159980468Y-36311642D01*
X159931510Y-36327226D01*
X159881933Y-36337842D01*
X159831952Y-36343491D01*
X159781785Y-36344175D01*
X159731646Y-36339895D01*
X159681754Y-36330650D01*
X159632323Y-36316444D01*
X159583571Y-36297276D01*
X159565510Y-36288810D01*
X159519813Y-36263751D01*
X159477239Y-36235019D01*
X159437933Y-36202905D01*
X159402043Y-36167700D01*
X159369718Y-36129696D01*
X159341104Y-36089183D01*
X159316350Y-36046454D01*
X159295602Y-36001799D01*
X159279010Y-35955511D01*
X159266719Y-35907879D01*
X159258879Y-35859196D01*
X159255636Y-35809753D01*
X159257138Y-35759842D01*
X159263532Y-35709753D01*
X159265868Y-35697457D01*
X159278412Y-35647715D01*
X159295342Y-35599985D01*
X159316393Y-35554473D01*
X159341298Y-35511384D01*
X159369792Y-35470924D01*
X159401609Y-35433299D01*
X159436483Y-35398714D01*
X159474147Y-35367376D01*
X159514336Y-35339490D01*
X159556783Y-35315262D01*
X159601223Y-35294898D01*
X159647390Y-35278604D01*
X159695016Y-35266585D01*
X159743838Y-35259047D01*
X159793588Y-35256196D01*
X159834608Y-35257480D01*
X159886495Y-35263635D01*
X159936808Y-35274581D01*
X159985589Y-35290337D01*
X160032880Y-35310922D01*
X160078721Y-35336353D01*
X160123153Y-35366650D01*
X160166218Y-35401830D01*
X160175806Y-35410496D01*
X160191569Y-35423855D01*
X160211204Y-35438642D01*
X160233889Y-35454340D01*
X160258801Y-35470433D01*
X160285120Y-35486406D01*
X160312022Y-35501741D01*
X160338687Y-35515924D01*
X160361800Y-35527275D01*
X160425476Y-35554514D01*
X160491801Y-35577815D01*
X160559927Y-35596924D01*
X160629005Y-35611586D01*
X160660250Y-35616676D01*
X160701117Y-35622000D01*
X160741937Y-35625977D01*
X160781655Y-35628548D01*
X160819216Y-35629654D01*
X160853564Y-35629236D01*
X160869800Y-35628397D01*
X160940579Y-35621964D01*
X161007765Y-35612415D01*
X161071876Y-35599616D01*
X161133428Y-35583434D01*
X161192941Y-35563735D01*
X161250932Y-35540386D01*
X161298519Y-35518020D01*
X161346775Y-35492527D01*
X161390602Y-35466520D01*
X161430650Y-35439555D01*
X161467571Y-35411185D01*
X161502014Y-35380962D01*
X161511687Y-35371733D01*
X161552933Y-35334550D01*
X161595286Y-35302144D01*
X161639092Y-35274274D01*
X161678790Y-35253461D01*
X161730193Y-35231764D01*
X161782584Y-35215016D01*
X161835756Y-35203228D01*
X161889499Y-35196412D01*
X161943606Y-35194579D01*
X161997869Y-35197740D01*
G36*
X159853097Y-37307265D02*
G01*
X159906649Y-37313947D01*
X159912600Y-37314987D01*
X159963982Y-37326738D01*
X160015006Y-37343378D01*
X160065241Y-37364712D01*
X160114257Y-37390550D01*
X160161622Y-37420700D01*
X160180922Y-37434604D01*
X160195731Y-37446483D01*
X160212719Y-37461479D01*
X160230980Y-37478674D01*
X160249604Y-37497153D01*
X160267683Y-37515999D01*
X160284308Y-37534296D01*
X160298571Y-37551127D01*
X160306392Y-37561180D01*
X160338894Y-37608911D01*
X160366560Y-37658034D01*
X160389514Y-37708838D01*
X160407880Y-37761616D01*
X160421782Y-37816656D01*
X160426977Y-37844390D01*
X160429012Y-37860493D01*
X160430517Y-37880484D01*
X160431492Y-37903200D01*
X160431937Y-37927474D01*
X160431852Y-37952143D01*
X160431237Y-37976044D01*
X160430092Y-37998010D01*
X160428416Y-38016879D01*
X160426987Y-38027270D01*
X160414954Y-38084692D01*
X160398397Y-38139891D01*
X160377385Y-38192745D01*
X160351987Y-38243132D01*
X160322274Y-38290929D01*
X160288313Y-38336015D01*
X160250176Y-38378266D01*
X160207931Y-38417561D01*
X160202357Y-38422267D01*
X160182627Y-38440582D01*
X160161984Y-38463147D01*
X160140855Y-38489307D01*
X160119665Y-38518411D01*
X160098840Y-38549807D01*
X160078806Y-38582842D01*
X160059990Y-38616865D01*
X160042816Y-38651222D01*
X160027712Y-38685263D01*
X160023094Y-38696726D01*
X160002760Y-38755273D01*
X159987486Y-38814179D01*
X159977268Y-38873362D01*
X159972106Y-38932736D01*
X159971997Y-38992218D01*
X159976939Y-39051725D01*
X159986931Y-39111172D01*
X160001971Y-39170476D01*
X160022056Y-39229553D01*
X160035445Y-39262360D01*
X160057152Y-39307918D01*
X160083099Y-39354333D01*
X160112742Y-39400757D01*
X160145537Y-39446342D01*
X160180939Y-39490238D01*
X160183830Y-39493608D01*
X160191023Y-39501144D01*
X160200741Y-39510245D01*
X160211413Y-39519473D01*
X160217020Y-39524003D01*
X160230345Y-39535125D01*
X160245864Y-39549162D01*
X160262556Y-39565095D01*
X160279397Y-39581908D01*
X160295366Y-39598582D01*
X160309441Y-39614099D01*
X160319618Y-39626200D01*
X160343800Y-39658859D01*
X160367108Y-39694820D01*
X160388746Y-39732666D01*
X160407916Y-39770979D01*
X160423822Y-39808341D01*
X160427413Y-39817970D01*
X160444117Y-39871475D01*
X160456253Y-39926438D01*
X160463820Y-39982354D01*
X160466818Y-40038721D01*
X160465247Y-40095034D01*
X160459106Y-40150790D01*
X160448396Y-40205487D01*
X160433116Y-40258619D01*
X160427643Y-40274174D01*
X160405460Y-40327345D01*
X160379050Y-40377889D01*
X160348641Y-40425620D01*
X160314462Y-40470353D01*
X160276740Y-40511905D01*
X160235703Y-40550090D01*
X160191579Y-40584723D01*
X160144596Y-40615620D01*
X160094980Y-40642597D01*
X160042961Y-40665467D01*
X159988765Y-40684047D01*
X159932621Y-40698152D01*
X159896980Y-40704561D01*
X159887429Y-40705671D01*
X159874159Y-40706722D01*
X159858117Y-40707686D01*
X159840247Y-40708533D01*
X159821495Y-40709233D01*
X159802807Y-40709757D01*
X159785129Y-40710075D01*
X159769407Y-40710157D01*
X159756585Y-40709973D01*
X159747611Y-40709495D01*
X159745850Y-40709295D01*
X159739963Y-40708543D01*
X159730632Y-40707417D01*
X159719461Y-40706111D01*
X159714100Y-40705497D01*
X159661492Y-40697011D01*
X159609205Y-40683679D01*
X159557718Y-40665728D01*
X159507512Y-40643389D01*
X159459064Y-40616892D01*
X159412855Y-40586467D01*
X159369364Y-40552344D01*
X159341052Y-40526630D01*
X159300734Y-40484284D01*
X159264594Y-40439199D01*
X159232718Y-40391641D01*
X159205189Y-40341875D01*
X159182095Y-40290167D01*
X159163520Y-40236783D01*
X159149550Y-40181989D01*
X159140271Y-40126049D01*
X159135767Y-40069230D01*
X159136124Y-40011798D01*
X159141429Y-39954017D01*
X159146537Y-39921902D01*
X159159329Y-39866153D01*
X159176964Y-39811851D01*
X159199360Y-39759196D01*
X159226435Y-39708387D01*
X159246985Y-39675730D01*
X159279024Y-39631941D01*
X159314704Y-39590588D01*
X159353259Y-39552490D01*
X159393924Y-39518466D01*
X159394332Y-39518154D01*
X159406722Y-39508491D01*
X159417033Y-39499848D01*
X159426198Y-39491273D01*
X159435149Y-39481814D01*
X159444820Y-39470521D01*
X159456141Y-39456442D01*
X159461456Y-39449670D01*
X159483189Y-39420188D01*
X159504682Y-39387892D01*
X159525284Y-39353927D01*
X159544348Y-39319434D01*
X159561225Y-39285556D01*
X159575267Y-39253435D01*
X159580393Y-39240120D01*
X159593394Y-39201361D01*
X159604802Y-39160673D01*
X159614455Y-39118999D01*
X159622192Y-39077283D01*
X159627850Y-39036468D01*
X159631270Y-38997498D01*
X159632290Y-38961316D01*
X159631628Y-38940400D01*
X159625573Y-38874741D01*
X159615252Y-38811733D01*
X159600593Y-38751168D01*
X159581529Y-38692836D01*
X159557990Y-38636526D01*
X159529906Y-38582030D01*
X159497207Y-38529139D01*
X159493620Y-38523840D01*
X159478363Y-38502077D01*
X159464675Y-38483961D01*
X159451790Y-38468625D01*
X159438946Y-38455204D01*
X159425377Y-38442831D01*
X159413696Y-38433270D01*
X159371160Y-38396743D01*
X159332312Y-38357099D01*
X159297280Y-38314643D01*
X159266190Y-38269677D01*
X159239168Y-38222506D01*
X159216340Y-38173434D01*
X159197832Y-38122764D01*
X159183771Y-38070801D01*
X159174283Y-38017848D01*
X159169493Y-37964208D01*
X159169529Y-37910187D01*
X159174378Y-37857090D01*
X159184524Y-37801572D01*
X159199462Y-37747486D01*
X159219041Y-37695099D01*
X159243107Y-37644678D01*
X159271510Y-37596490D01*
X159304095Y-37550801D01*
X159340712Y-37507879D01*
X159381207Y-37467990D01*
X159410570Y-37442985D01*
X159443934Y-37418297D01*
X159480854Y-37394692D01*
X159519811Y-37373026D01*
X159559284Y-37354158D01*
X159590170Y-37341669D01*
X159639985Y-37325922D01*
X159691824Y-37314555D01*
X159745047Y-37307622D01*
X159799017Y-37305174D01*
X159853097Y-37307265D01*
G37*
X159853097Y-37307265D02*
X159906649Y-37313947D01*
X159912600Y-37314987D01*
X159963982Y-37326738D01*
X160015006Y-37343378D01*
X160065241Y-37364712D01*
X160114257Y-37390550D01*
X160161622Y-37420700D01*
X160180922Y-37434604D01*
X160195731Y-37446483D01*
X160212719Y-37461479D01*
X160230980Y-37478674D01*
X160249604Y-37497153D01*
X160267683Y-37515999D01*
X160284308Y-37534296D01*
X160298571Y-37551127D01*
X160306392Y-37561180D01*
X160338894Y-37608911D01*
X160366560Y-37658034D01*
X160389514Y-37708838D01*
X160407880Y-37761616D01*
X160421782Y-37816656D01*
X160426977Y-37844390D01*
X160429012Y-37860493D01*
X160430517Y-37880484D01*
X160431492Y-37903200D01*
X160431937Y-37927474D01*
X160431852Y-37952143D01*
X160431237Y-37976044D01*
X160430092Y-37998010D01*
X160428416Y-38016879D01*
X160426987Y-38027270D01*
X160414954Y-38084692D01*
X160398397Y-38139891D01*
X160377385Y-38192745D01*
X160351987Y-38243132D01*
X160322274Y-38290929D01*
X160288313Y-38336015D01*
X160250176Y-38378266D01*
X160207931Y-38417561D01*
X160202357Y-38422267D01*
X160182627Y-38440582D01*
X160161984Y-38463147D01*
X160140855Y-38489307D01*
X160119665Y-38518411D01*
X160098840Y-38549807D01*
X160078806Y-38582842D01*
X160059990Y-38616865D01*
X160042816Y-38651222D01*
X160027712Y-38685263D01*
X160023094Y-38696726D01*
X160002760Y-38755273D01*
X159987486Y-38814179D01*
X159977268Y-38873362D01*
X159972106Y-38932736D01*
X159971997Y-38992218D01*
X159976939Y-39051725D01*
X159986931Y-39111172D01*
X160001971Y-39170476D01*
X160022056Y-39229553D01*
X160035445Y-39262360D01*
X160057152Y-39307918D01*
X160083099Y-39354333D01*
X160112742Y-39400757D01*
X160145537Y-39446342D01*
X160180939Y-39490238D01*
X160183830Y-39493608D01*
X160191023Y-39501144D01*
X160200741Y-39510245D01*
X160211413Y-39519473D01*
X160217020Y-39524003D01*
X160230345Y-39535125D01*
X160245864Y-39549162D01*
X160262556Y-39565095D01*
X160279397Y-39581908D01*
X160295366Y-39598582D01*
X160309441Y-39614099D01*
X160319618Y-39626200D01*
X160343800Y-39658859D01*
X160367108Y-39694820D01*
X160388746Y-39732666D01*
X160407916Y-39770979D01*
X160423822Y-39808341D01*
X160427413Y-39817970D01*
X160444117Y-39871475D01*
X160456253Y-39926438D01*
X160463820Y-39982354D01*
X160466818Y-40038721D01*
X160465247Y-40095034D01*
X160459106Y-40150790D01*
X160448396Y-40205487D01*
X160433116Y-40258619D01*
X160427643Y-40274174D01*
X160405460Y-40327345D01*
X160379050Y-40377889D01*
X160348641Y-40425620D01*
X160314462Y-40470353D01*
X160276740Y-40511905D01*
X160235703Y-40550090D01*
X160191579Y-40584723D01*
X160144596Y-40615620D01*
X160094980Y-40642597D01*
X160042961Y-40665467D01*
X159988765Y-40684047D01*
X159932621Y-40698152D01*
X159896980Y-40704561D01*
X159887429Y-40705671D01*
X159874159Y-40706722D01*
X159858117Y-40707686D01*
X159840247Y-40708533D01*
X159821495Y-40709233D01*
X159802807Y-40709757D01*
X159785129Y-40710075D01*
X159769407Y-40710157D01*
X159756585Y-40709973D01*
X159747611Y-40709495D01*
X159745850Y-40709295D01*
X159739963Y-40708543D01*
X159730632Y-40707417D01*
X159719461Y-40706111D01*
X159714100Y-40705497D01*
X159661492Y-40697011D01*
X159609205Y-40683679D01*
X159557718Y-40665728D01*
X159507512Y-40643389D01*
X159459064Y-40616892D01*
X159412855Y-40586467D01*
X159369364Y-40552344D01*
X159341052Y-40526630D01*
X159300734Y-40484284D01*
X159264594Y-40439199D01*
X159232718Y-40391641D01*
X159205189Y-40341875D01*
X159182095Y-40290167D01*
X159163520Y-40236783D01*
X159149550Y-40181989D01*
X159140271Y-40126049D01*
X159135767Y-40069230D01*
X159136124Y-40011798D01*
X159141429Y-39954017D01*
X159146537Y-39921902D01*
X159159329Y-39866153D01*
X159176964Y-39811851D01*
X159199360Y-39759196D01*
X159226435Y-39708387D01*
X159246985Y-39675730D01*
X159279024Y-39631941D01*
X159314704Y-39590588D01*
X159353259Y-39552490D01*
X159393924Y-39518466D01*
X159394332Y-39518154D01*
X159406722Y-39508491D01*
X159417033Y-39499848D01*
X159426198Y-39491273D01*
X159435149Y-39481814D01*
X159444820Y-39470521D01*
X159456141Y-39456442D01*
X159461456Y-39449670D01*
X159483189Y-39420188D01*
X159504682Y-39387892D01*
X159525284Y-39353927D01*
X159544348Y-39319434D01*
X159561225Y-39285556D01*
X159575267Y-39253435D01*
X159580393Y-39240120D01*
X159593394Y-39201361D01*
X159604802Y-39160673D01*
X159614455Y-39118999D01*
X159622192Y-39077283D01*
X159627850Y-39036468D01*
X159631270Y-38997498D01*
X159632290Y-38961316D01*
X159631628Y-38940400D01*
X159625573Y-38874741D01*
X159615252Y-38811733D01*
X159600593Y-38751168D01*
X159581529Y-38692836D01*
X159557990Y-38636526D01*
X159529906Y-38582030D01*
X159497207Y-38529139D01*
X159493620Y-38523840D01*
X159478363Y-38502077D01*
X159464675Y-38483961D01*
X159451790Y-38468625D01*
X159438946Y-38455204D01*
X159425377Y-38442831D01*
X159413696Y-38433270D01*
X159371160Y-38396743D01*
X159332312Y-38357099D01*
X159297280Y-38314643D01*
X159266190Y-38269677D01*
X159239168Y-38222506D01*
X159216340Y-38173434D01*
X159197832Y-38122764D01*
X159183771Y-38070801D01*
X159174283Y-38017848D01*
X159169493Y-37964208D01*
X159169529Y-37910187D01*
X159174378Y-37857090D01*
X159184524Y-37801572D01*
X159199462Y-37747486D01*
X159219041Y-37695099D01*
X159243107Y-37644678D01*
X159271510Y-37596490D01*
X159304095Y-37550801D01*
X159340712Y-37507879D01*
X159381207Y-37467990D01*
X159410570Y-37442985D01*
X159443934Y-37418297D01*
X159480854Y-37394692D01*
X159519811Y-37373026D01*
X159559284Y-37354158D01*
X159590170Y-37341669D01*
X159639985Y-37325922D01*
X159691824Y-37314555D01*
X159745047Y-37307622D01*
X159799017Y-37305174D01*
X159853097Y-37307265D01*
G36*
X167499401Y-45362880D02*
G01*
X167512169Y-45363185D01*
X167522131Y-45363829D01*
X167530422Y-45364917D01*
X167538177Y-45366556D01*
X167546190Y-45368752D01*
X167580792Y-45381476D01*
X167613290Y-45398588D01*
X167643161Y-45419733D01*
X167669884Y-45444552D01*
X167687773Y-45465660D01*
X167697521Y-45480127D01*
X167707532Y-45497849D01*
X167717012Y-45517168D01*
X167725167Y-45536427D01*
X167731205Y-45553969D01*
X167732670Y-45559393D01*
X167738542Y-45593494D01*
X167739590Y-45627390D01*
X167736068Y-45660696D01*
X167728230Y-45693027D01*
X167716328Y-45723996D01*
X167700616Y-45753218D01*
X167681348Y-45780307D01*
X167658776Y-45804876D01*
X167633153Y-45826541D01*
X167604734Y-45844914D01*
X167573772Y-45859611D01*
X167540519Y-45870245D01*
X167526607Y-45873279D01*
X167510083Y-45875492D01*
X167490861Y-45876614D01*
X167470842Y-45876643D01*
X167451931Y-45875578D01*
X167436031Y-45873417D01*
X167435700Y-45873351D01*
X167400971Y-45863862D01*
X167368244Y-45849908D01*
X167337884Y-45831834D01*
X167310253Y-45809984D01*
X167285714Y-45784702D01*
X167264631Y-45756330D01*
X167247368Y-45725215D01*
X167234287Y-45691699D01*
X167230727Y-45679321D01*
X167227261Y-45662034D01*
X167224950Y-45642041D01*
X167223851Y-45620999D01*
X167224023Y-45600567D01*
X167225524Y-45582400D01*
X167227014Y-45573610D01*
X167237125Y-45537957D01*
X167251531Y-45504553D01*
X167269952Y-45473747D01*
X167292106Y-45445886D01*
X167317711Y-45421319D01*
X167346486Y-45400394D01*
X167378150Y-45383459D01*
X167382117Y-45381717D01*
X167398358Y-45375051D01*
X167412458Y-45370129D01*
X167425756Y-45366699D01*
X167439588Y-45364508D01*
X167455293Y-45363307D01*
X167474207Y-45362843D01*
X167482690Y-45362808D01*
X167499401Y-45362880D01*
G37*
X167499401Y-45362880D02*
X167512169Y-45363185D01*
X167522131Y-45363829D01*
X167530422Y-45364917D01*
X167538177Y-45366556D01*
X167546190Y-45368752D01*
X167580792Y-45381476D01*
X167613290Y-45398588D01*
X167643161Y-45419733D01*
X167669884Y-45444552D01*
X167687773Y-45465660D01*
X167697521Y-45480127D01*
X167707532Y-45497849D01*
X167717012Y-45517168D01*
X167725167Y-45536427D01*
X167731205Y-45553969D01*
X167732670Y-45559393D01*
X167738542Y-45593494D01*
X167739590Y-45627390D01*
X167736068Y-45660696D01*
X167728230Y-45693027D01*
X167716328Y-45723996D01*
X167700616Y-45753218D01*
X167681348Y-45780307D01*
X167658776Y-45804876D01*
X167633153Y-45826541D01*
X167604734Y-45844914D01*
X167573772Y-45859611D01*
X167540519Y-45870245D01*
X167526607Y-45873279D01*
X167510083Y-45875492D01*
X167490861Y-45876614D01*
X167470842Y-45876643D01*
X167451931Y-45875578D01*
X167436031Y-45873417D01*
X167435700Y-45873351D01*
X167400971Y-45863862D01*
X167368244Y-45849908D01*
X167337884Y-45831834D01*
X167310253Y-45809984D01*
X167285714Y-45784702D01*
X167264631Y-45756330D01*
X167247368Y-45725215D01*
X167234287Y-45691699D01*
X167230727Y-45679321D01*
X167227261Y-45662034D01*
X167224950Y-45642041D01*
X167223851Y-45620999D01*
X167224023Y-45600567D01*
X167225524Y-45582400D01*
X167227014Y-45573610D01*
X167237125Y-45537957D01*
X167251531Y-45504553D01*
X167269952Y-45473747D01*
X167292106Y-45445886D01*
X167317711Y-45421319D01*
X167346486Y-45400394D01*
X167378150Y-45383459D01*
X167382117Y-45381717D01*
X167398358Y-45375051D01*
X167412458Y-45370129D01*
X167425756Y-45366699D01*
X167439588Y-45364508D01*
X167455293Y-45363307D01*
X167474207Y-45362843D01*
X167482690Y-45362808D01*
X167499401Y-45362880D01*
G36*
X166207444Y-35449490D02*
G01*
X166227626Y-35450429D01*
X166245298Y-35452206D01*
X166261736Y-35455004D01*
X166278215Y-35459005D01*
X166296008Y-35464392D01*
X166301181Y-35466101D01*
X166340078Y-35481737D01*
X166376415Y-35501688D01*
X166409923Y-35525791D01*
X166430718Y-35544241D01*
X166458503Y-35574091D01*
X166481981Y-35606077D01*
X166501361Y-35640582D01*
X166516853Y-35677990D01*
X166528664Y-35718684D01*
X166530683Y-35727618D01*
X166532452Y-35737172D01*
X166533731Y-35747622D01*
X166534584Y-35759949D01*
X166535072Y-35775139D01*
X166535259Y-35794172D01*
X166535265Y-35799690D01*
X166535061Y-35822373D01*
X166534325Y-35841271D01*
X166532867Y-35857667D01*
X166530495Y-35872845D01*
X166527021Y-35888086D01*
X166522252Y-35904675D01*
X166517478Y-35919476D01*
X166502245Y-35957426D01*
X166482803Y-35992795D01*
X166459463Y-36025321D01*
X166432534Y-36054741D01*
X166402329Y-36080794D01*
X166369157Y-36103216D01*
X166333329Y-36121745D01*
X166295156Y-36136119D01*
X166254949Y-36146076D01*
X166247578Y-36147369D01*
X166217420Y-36151016D01*
X166186012Y-36152453D01*
X166156092Y-36151562D01*
X166153794Y-36151382D01*
X166111315Y-36145480D01*
X166070855Y-36135051D01*
X166032664Y-36120315D01*
X165996992Y-36101486D01*
X165964089Y-36078782D01*
X165934205Y-36052420D01*
X165907591Y-36022616D01*
X165884495Y-35989588D01*
X165865169Y-35953552D01*
X165849862Y-35914724D01*
X165840136Y-35879411D01*
X165838043Y-35869449D01*
X165836503Y-35860246D01*
X165835433Y-35850728D01*
X165834754Y-35839817D01*
X165834383Y-35826438D01*
X165834241Y-35809515D01*
X165834230Y-35800960D01*
X165834375Y-35779069D01*
X165834913Y-35761090D01*
X165835995Y-35745857D01*
X165837773Y-35732207D01*
X165840396Y-35718976D01*
X165844017Y-35705000D01*
X165848761Y-35689200D01*
X165863357Y-35650731D01*
X165882164Y-35614654D01*
X165904864Y-35581294D01*
X165931140Y-35550981D01*
X165960675Y-35524041D01*
X165993149Y-35500801D01*
X166028246Y-35481590D01*
X166064100Y-35467244D01*
X166083196Y-35461150D01*
X166099772Y-35456565D01*
X166115162Y-35453288D01*
X166130702Y-35451117D01*
X166147724Y-35449852D01*
X166167564Y-35449289D01*
X166183480Y-35449205D01*
X166207444Y-35449490D01*
G37*
X166207444Y-35449490D02*
X166227626Y-35450429D01*
X166245298Y-35452206D01*
X166261736Y-35455004D01*
X166278215Y-35459005D01*
X166296008Y-35464392D01*
X166301181Y-35466101D01*
X166340078Y-35481737D01*
X166376415Y-35501688D01*
X166409923Y-35525791D01*
X166430718Y-35544241D01*
X166458503Y-35574091D01*
X166481981Y-35606077D01*
X166501361Y-35640582D01*
X166516853Y-35677990D01*
X166528664Y-35718684D01*
X166530683Y-35727618D01*
X166532452Y-35737172D01*
X166533731Y-35747622D01*
X166534584Y-35759949D01*
X166535072Y-35775139D01*
X166535259Y-35794172D01*
X166535265Y-35799690D01*
X166535061Y-35822373D01*
X166534325Y-35841271D01*
X166532867Y-35857667D01*
X166530495Y-35872845D01*
X166527021Y-35888086D01*
X166522252Y-35904675D01*
X166517478Y-35919476D01*
X166502245Y-35957426D01*
X166482803Y-35992795D01*
X166459463Y-36025321D01*
X166432534Y-36054741D01*
X166402329Y-36080794D01*
X166369157Y-36103216D01*
X166333329Y-36121745D01*
X166295156Y-36136119D01*
X166254949Y-36146076D01*
X166247578Y-36147369D01*
X166217420Y-36151016D01*
X166186012Y-36152453D01*
X166156092Y-36151562D01*
X166153794Y-36151382D01*
X166111315Y-36145480D01*
X166070855Y-36135051D01*
X166032664Y-36120315D01*
X165996992Y-36101486D01*
X165964089Y-36078782D01*
X165934205Y-36052420D01*
X165907591Y-36022616D01*
X165884495Y-35989588D01*
X165865169Y-35953552D01*
X165849862Y-35914724D01*
X165840136Y-35879411D01*
X165838043Y-35869449D01*
X165836503Y-35860246D01*
X165835433Y-35850728D01*
X165834754Y-35839817D01*
X165834383Y-35826438D01*
X165834241Y-35809515D01*
X165834230Y-35800960D01*
X165834375Y-35779069D01*
X165834913Y-35761090D01*
X165835995Y-35745857D01*
X165837773Y-35732207D01*
X165840396Y-35718976D01*
X165844017Y-35705000D01*
X165848761Y-35689200D01*
X165863357Y-35650731D01*
X165882164Y-35614654D01*
X165904864Y-35581294D01*
X165931140Y-35550981D01*
X165960675Y-35524041D01*
X165993149Y-35500801D01*
X166028246Y-35481590D01*
X166064100Y-35467244D01*
X166083196Y-35461150D01*
X166099772Y-35456565D01*
X166115162Y-35453288D01*
X166130702Y-35451117D01*
X166147724Y-35449852D01*
X166167564Y-35449289D01*
X166183480Y-35449205D01*
X166207444Y-35449490D01*
G36*
X157684236Y-37504206D02*
G01*
X157701242Y-37504475D01*
X157714965Y-37505017D01*
X157726301Y-37505882D01*
X157736146Y-37507119D01*
X157744330Y-37508561D01*
X157790380Y-37520166D01*
X157834329Y-37536220D01*
X157875901Y-37556534D01*
X157914819Y-37580921D01*
X157950807Y-37609191D01*
X157983589Y-37641156D01*
X158012888Y-37676628D01*
X158031956Y-37704690D01*
X158054191Y-37745051D01*
X158071921Y-37787294D01*
X158085122Y-37830982D01*
X158093767Y-37875680D01*
X158097831Y-37920953D01*
X158097289Y-37966365D01*
X158092113Y-38011480D01*
X158082279Y-38055863D01*
X158067761Y-38099078D01*
X158056786Y-38124275D01*
X158034282Y-38165886D01*
X158007969Y-38204223D01*
X157978059Y-38239122D01*
X157944761Y-38270419D01*
X157908284Y-38297950D01*
X157868839Y-38321550D01*
X157826633Y-38341056D01*
X157781879Y-38356302D01*
X157750680Y-38364030D01*
X157734887Y-38366610D01*
X157715325Y-38368610D01*
X157693275Y-38370003D01*
X157670017Y-38370760D01*
X157646833Y-38370854D01*
X157625004Y-38370257D01*
X157605810Y-38368942D01*
X157593786Y-38367446D01*
X157548239Y-38357656D01*
X157504486Y-38343281D01*
X157462834Y-38324546D01*
X157423589Y-38301676D01*
X157387058Y-38274893D01*
X157353549Y-38244424D01*
X157323369Y-38210493D01*
X157296824Y-38173324D01*
X157274620Y-38133950D01*
X157255435Y-38089758D01*
X157241244Y-38044667D01*
X157232060Y-37998774D01*
X157227897Y-37952177D01*
X157228766Y-37904976D01*
X157234681Y-37857267D01*
X157236617Y-37846930D01*
X157244464Y-37815755D01*
X157255715Y-37782969D01*
X157269731Y-37750034D01*
X157285875Y-37718417D01*
X157303508Y-37689581D01*
X157307988Y-37683100D01*
X157320996Y-37666330D01*
X157337102Y-37647999D01*
X157355127Y-37629286D01*
X157373892Y-37611369D01*
X157392216Y-37595426D01*
X157407780Y-37583436D01*
X157444678Y-37560163D01*
X157484924Y-37540155D01*
X157527704Y-37523763D01*
X157572205Y-37511338D01*
X157578065Y-37510035D01*
X157587578Y-37508108D01*
X157596521Y-37506655D01*
X157605862Y-37505609D01*
X157616567Y-37504903D01*
X157629600Y-37504470D01*
X157645929Y-37504243D01*
X157663050Y-37504164D01*
X157684236Y-37504206D01*
G37*
X157684236Y-37504206D02*
X157701242Y-37504475D01*
X157714965Y-37505017D01*
X157726301Y-37505882D01*
X157736146Y-37507119D01*
X157744330Y-37508561D01*
X157790380Y-37520166D01*
X157834329Y-37536220D01*
X157875901Y-37556534D01*
X157914819Y-37580921D01*
X157950807Y-37609191D01*
X157983589Y-37641156D01*
X158012888Y-37676628D01*
X158031956Y-37704690D01*
X158054191Y-37745051D01*
X158071921Y-37787294D01*
X158085122Y-37830982D01*
X158093767Y-37875680D01*
X158097831Y-37920953D01*
X158097289Y-37966365D01*
X158092113Y-38011480D01*
X158082279Y-38055863D01*
X158067761Y-38099078D01*
X158056786Y-38124275D01*
X158034282Y-38165886D01*
X158007969Y-38204223D01*
X157978059Y-38239122D01*
X157944761Y-38270419D01*
X157908284Y-38297950D01*
X157868839Y-38321550D01*
X157826633Y-38341056D01*
X157781879Y-38356302D01*
X157750680Y-38364030D01*
X157734887Y-38366610D01*
X157715325Y-38368610D01*
X157693275Y-38370003D01*
X157670017Y-38370760D01*
X157646833Y-38370854D01*
X157625004Y-38370257D01*
X157605810Y-38368942D01*
X157593786Y-38367446D01*
X157548239Y-38357656D01*
X157504486Y-38343281D01*
X157462834Y-38324546D01*
X157423589Y-38301676D01*
X157387058Y-38274893D01*
X157353549Y-38244424D01*
X157323369Y-38210493D01*
X157296824Y-38173324D01*
X157274620Y-38133950D01*
X157255435Y-38089758D01*
X157241244Y-38044667D01*
X157232060Y-37998774D01*
X157227897Y-37952177D01*
X157228766Y-37904976D01*
X157234681Y-37857267D01*
X157236617Y-37846930D01*
X157244464Y-37815755D01*
X157255715Y-37782969D01*
X157269731Y-37750034D01*
X157285875Y-37718417D01*
X157303508Y-37689581D01*
X157307988Y-37683100D01*
X157320996Y-37666330D01*
X157337102Y-37647999D01*
X157355127Y-37629286D01*
X157373892Y-37611369D01*
X157392216Y-37595426D01*
X157407780Y-37583436D01*
X157444678Y-37560163D01*
X157484924Y-37540155D01*
X157527704Y-37523763D01*
X157572205Y-37511338D01*
X157578065Y-37510035D01*
X157587578Y-37508108D01*
X157596521Y-37506655D01*
X157605862Y-37505609D01*
X157616567Y-37504903D01*
X157629600Y-37504470D01*
X157645929Y-37504243D01*
X157663050Y-37504164D01*
X157684236Y-37504206D01*
G36*
X161992016Y-43705492D02*
G01*
X162046233Y-43712492D01*
X162099729Y-43724355D01*
X162109274Y-43727016D01*
X162160124Y-43744244D01*
X162209360Y-43766086D01*
X162256524Y-43792252D01*
X162301157Y-43822453D01*
X162342799Y-43856399D01*
X162380993Y-43893801D01*
X162390986Y-43904830D01*
X162425831Y-43947746D01*
X162456119Y-43992422D01*
X162481971Y-44039127D01*
X162503508Y-44088128D01*
X162520851Y-44139693D01*
X162534123Y-44194090D01*
X162541571Y-44237570D01*
X162542874Y-44250219D01*
X162543838Y-44266724D01*
X162544465Y-44285943D01*
X162544756Y-44306734D01*
X162544710Y-44327953D01*
X162544330Y-44348460D01*
X162543616Y-44367112D01*
X162542567Y-44382767D01*
X162541468Y-44392510D01*
X162530660Y-44449623D01*
X162515558Y-44504189D01*
X162496209Y-44556115D01*
X162472662Y-44605309D01*
X162444966Y-44651679D01*
X162413169Y-44695132D01*
X162377321Y-44735575D01*
X162345121Y-44766264D01*
X162301355Y-44801741D01*
X162255450Y-44832638D01*
X162207325Y-44858994D01*
X162156894Y-44880849D01*
X162104075Y-44898240D01*
X162048784Y-44911207D01*
X162022960Y-44915626D01*
X162012416Y-44916884D01*
X161998361Y-44918060D01*
X161981859Y-44919116D01*
X161963978Y-44920011D01*
X161945783Y-44920704D01*
X161928339Y-44921156D01*
X161912712Y-44921325D01*
X161899969Y-44921172D01*
X161891174Y-44920656D01*
X161890880Y-44920623D01*
X161884377Y-44919873D01*
X161874527Y-44918750D01*
X161863029Y-44917447D01*
X161857860Y-44916863D01*
X161811542Y-44909367D01*
X161764486Y-44897403D01*
X161717559Y-44881327D01*
X161671626Y-44861493D01*
X161627552Y-44838254D01*
X161586204Y-44811964D01*
X161567030Y-44797946D01*
X161558474Y-44791166D01*
X161547760Y-44782357D01*
X161536522Y-44772873D01*
X161529936Y-44767187D01*
X161488133Y-44731691D01*
X161448310Y-44699999D01*
X161409746Y-44671610D01*
X161371721Y-44646026D01*
X161333515Y-44622745D01*
X161294407Y-44601269D01*
X161281292Y-44594548D01*
X161226873Y-44569029D01*
X161171836Y-44547110D01*
X161115473Y-44528591D01*
X161057074Y-44513270D01*
X160995932Y-44500946D01*
X160931338Y-44491420D01*
X160907900Y-44488721D01*
X160852337Y-44484774D01*
X160794178Y-44484455D01*
X160734279Y-44487667D01*
X160673498Y-44494312D01*
X160612693Y-44504293D01*
X160552721Y-44517514D01*
X160494438Y-44533877D01*
X160486260Y-44536478D01*
X160446167Y-44550453D01*
X160406313Y-44566313D01*
X160367308Y-44583724D01*
X160329765Y-44602353D01*
X160294297Y-44621865D01*
X160261515Y-44641927D01*
X160232031Y-44662204D01*
X160206459Y-44682365D01*
X160188758Y-44698653D01*
X160148846Y-44735323D01*
X160106960Y-44767337D01*
X160062968Y-44794774D01*
X160016740Y-44817711D01*
X159968143Y-44836227D01*
X159946510Y-44842843D01*
X159896301Y-44854549D01*
X159845871Y-44861317D01*
X159795519Y-44863261D01*
X159745545Y-44860494D01*
X159696247Y-44853131D01*
X159647925Y-44841287D01*
X159600879Y-44825076D01*
X159555406Y-44804613D01*
X159511806Y-44780011D01*
X159470379Y-44751386D01*
X159431424Y-44718851D01*
X159395239Y-44682520D01*
X159362125Y-44642510D01*
X159340000Y-44610950D01*
X159314583Y-44567454D01*
X159293028Y-44521094D01*
X159275623Y-44472617D01*
X159262656Y-44422767D01*
X159258141Y-44398860D01*
X159255205Y-44375915D01*
X159253291Y-44349633D01*
X159252431Y-44321655D01*
X159252655Y-44293627D01*
X159253993Y-44267192D01*
X159255442Y-44251922D01*
X159263910Y-44200463D01*
X159276999Y-44150734D01*
X159294477Y-44102964D01*
X159316112Y-44057380D01*
X159341674Y-44014209D01*
X159370930Y-43973680D01*
X159403648Y-43936020D01*
X159439597Y-43901457D01*
X159478545Y-43870219D01*
X159520261Y-43842533D01*
X159564512Y-43818627D01*
X159611068Y-43798729D01*
X159659696Y-43783066D01*
X159710165Y-43771867D01*
X159749294Y-43766512D01*
X159798762Y-43764039D01*
X159848604Y-43766436D01*
X159898338Y-43773564D01*
X159947481Y-43785287D01*
X159995549Y-43801467D01*
X160042060Y-43821966D01*
X160086531Y-43846646D01*
X160126850Y-43874140D01*
X160135242Y-43880753D01*
X160146145Y-43889787D01*
X160158342Y-43900213D01*
X160170616Y-43910999D01*
X160174794Y-43914749D01*
X160201412Y-43937068D01*
X160232258Y-43959886D01*
X160266573Y-43982712D01*
X160303601Y-44005061D01*
X160342584Y-44026443D01*
X160368150Y-44039366D01*
X160434462Y-44069051D01*
X160501677Y-44093787D01*
X160569620Y-44113591D01*
X160638117Y-44128477D01*
X160706991Y-44138462D01*
X160776069Y-44143561D01*
X160845175Y-44143790D01*
X160914134Y-44139164D01*
X160982771Y-44129700D01*
X161050911Y-44115412D01*
X161118379Y-44096317D01*
X161185000Y-44072431D01*
X161250599Y-44043768D01*
X161315001Y-44010345D01*
X161378031Y-43972178D01*
X161417523Y-43945301D01*
X161436317Y-43931594D01*
X161457545Y-43915532D01*
X161479869Y-43898162D01*
X161501952Y-43880532D01*
X161522456Y-43863690D01*
X161532209Y-43855455D01*
X161558541Y-43833856D01*
X161583873Y-43815068D01*
X161610099Y-43797728D01*
X161625393Y-43788432D01*
X161673633Y-43762796D01*
X161723907Y-43741673D01*
X161775821Y-43725112D01*
X161828983Y-43713164D01*
X161882998Y-43705878D01*
X161937473Y-43703304D01*
X161992016Y-43705492D01*
G37*
X161992016Y-43705492D02*
X162046233Y-43712492D01*
X162099729Y-43724355D01*
X162109274Y-43727016D01*
X162160124Y-43744244D01*
X162209360Y-43766086D01*
X162256524Y-43792252D01*
X162301157Y-43822453D01*
X162342799Y-43856399D01*
X162380993Y-43893801D01*
X162390986Y-43904830D01*
X162425831Y-43947746D01*
X162456119Y-43992422D01*
X162481971Y-44039127D01*
X162503508Y-44088128D01*
X162520851Y-44139693D01*
X162534123Y-44194090D01*
X162541571Y-44237570D01*
X162542874Y-44250219D01*
X162543838Y-44266724D01*
X162544465Y-44285943D01*
X162544756Y-44306734D01*
X162544710Y-44327953D01*
X162544330Y-44348460D01*
X162543616Y-44367112D01*
X162542567Y-44382767D01*
X162541468Y-44392510D01*
X162530660Y-44449623D01*
X162515558Y-44504189D01*
X162496209Y-44556115D01*
X162472662Y-44605309D01*
X162444966Y-44651679D01*
X162413169Y-44695132D01*
X162377321Y-44735575D01*
X162345121Y-44766264D01*
X162301355Y-44801741D01*
X162255450Y-44832638D01*
X162207325Y-44858994D01*
X162156894Y-44880849D01*
X162104075Y-44898240D01*
X162048784Y-44911207D01*
X162022960Y-44915626D01*
X162012416Y-44916884D01*
X161998361Y-44918060D01*
X161981859Y-44919116D01*
X161963978Y-44920011D01*
X161945783Y-44920704D01*
X161928339Y-44921156D01*
X161912712Y-44921325D01*
X161899969Y-44921172D01*
X161891174Y-44920656D01*
X161890880Y-44920623D01*
X161884377Y-44919873D01*
X161874527Y-44918750D01*
X161863029Y-44917447D01*
X161857860Y-44916863D01*
X161811542Y-44909367D01*
X161764486Y-44897403D01*
X161717559Y-44881327D01*
X161671626Y-44861493D01*
X161627552Y-44838254D01*
X161586204Y-44811964D01*
X161567030Y-44797946D01*
X161558474Y-44791166D01*
X161547760Y-44782357D01*
X161536522Y-44772873D01*
X161529936Y-44767187D01*
X161488133Y-44731691D01*
X161448310Y-44699999D01*
X161409746Y-44671610D01*
X161371721Y-44646026D01*
X161333515Y-44622745D01*
X161294407Y-44601269D01*
X161281292Y-44594548D01*
X161226873Y-44569029D01*
X161171836Y-44547110D01*
X161115473Y-44528591D01*
X161057074Y-44513270D01*
X160995932Y-44500946D01*
X160931338Y-44491420D01*
X160907900Y-44488721D01*
X160852337Y-44484774D01*
X160794178Y-44484455D01*
X160734279Y-44487667D01*
X160673498Y-44494312D01*
X160612693Y-44504293D01*
X160552721Y-44517514D01*
X160494438Y-44533877D01*
X160486260Y-44536478D01*
X160446167Y-44550453D01*
X160406313Y-44566313D01*
X160367308Y-44583724D01*
X160329765Y-44602353D01*
X160294297Y-44621865D01*
X160261515Y-44641927D01*
X160232031Y-44662204D01*
X160206459Y-44682365D01*
X160188758Y-44698653D01*
X160148846Y-44735323D01*
X160106960Y-44767337D01*
X160062968Y-44794774D01*
X160016740Y-44817711D01*
X159968143Y-44836227D01*
X159946510Y-44842843D01*
X159896301Y-44854549D01*
X159845871Y-44861317D01*
X159795519Y-44863261D01*
X159745545Y-44860494D01*
X159696247Y-44853131D01*
X159647925Y-44841287D01*
X159600879Y-44825076D01*
X159555406Y-44804613D01*
X159511806Y-44780011D01*
X159470379Y-44751386D01*
X159431424Y-44718851D01*
X159395239Y-44682520D01*
X159362125Y-44642510D01*
X159340000Y-44610950D01*
X159314583Y-44567454D01*
X159293028Y-44521094D01*
X159275623Y-44472617D01*
X159262656Y-44422767D01*
X159258141Y-44398860D01*
X159255205Y-44375915D01*
X159253291Y-44349633D01*
X159252431Y-44321655D01*
X159252655Y-44293627D01*
X159253993Y-44267192D01*
X159255442Y-44251922D01*
X159263910Y-44200463D01*
X159276999Y-44150734D01*
X159294477Y-44102964D01*
X159316112Y-44057380D01*
X159341674Y-44014209D01*
X159370930Y-43973680D01*
X159403648Y-43936020D01*
X159439597Y-43901457D01*
X159478545Y-43870219D01*
X159520261Y-43842533D01*
X159564512Y-43818627D01*
X159611068Y-43798729D01*
X159659696Y-43783066D01*
X159710165Y-43771867D01*
X159749294Y-43766512D01*
X159798762Y-43764039D01*
X159848604Y-43766436D01*
X159898338Y-43773564D01*
X159947481Y-43785287D01*
X159995549Y-43801467D01*
X160042060Y-43821966D01*
X160086531Y-43846646D01*
X160126850Y-43874140D01*
X160135242Y-43880753D01*
X160146145Y-43889787D01*
X160158342Y-43900213D01*
X160170616Y-43910999D01*
X160174794Y-43914749D01*
X160201412Y-43937068D01*
X160232258Y-43959886D01*
X160266573Y-43982712D01*
X160303601Y-44005061D01*
X160342584Y-44026443D01*
X160368150Y-44039366D01*
X160434462Y-44069051D01*
X160501677Y-44093787D01*
X160569620Y-44113591D01*
X160638117Y-44128477D01*
X160706991Y-44138462D01*
X160776069Y-44143561D01*
X160845175Y-44143790D01*
X160914134Y-44139164D01*
X160982771Y-44129700D01*
X161050911Y-44115412D01*
X161118379Y-44096317D01*
X161185000Y-44072431D01*
X161250599Y-44043768D01*
X161315001Y-44010345D01*
X161378031Y-43972178D01*
X161417523Y-43945301D01*
X161436317Y-43931594D01*
X161457545Y-43915532D01*
X161479869Y-43898162D01*
X161501952Y-43880532D01*
X161522456Y-43863690D01*
X161532209Y-43855455D01*
X161558541Y-43833856D01*
X161583873Y-43815068D01*
X161610099Y-43797728D01*
X161625393Y-43788432D01*
X161673633Y-43762796D01*
X161723907Y-43741673D01*
X161775821Y-43725112D01*
X161828983Y-43713164D01*
X161882998Y-43705878D01*
X161937473Y-43703304D01*
X161992016Y-43705492D01*
G36*
X166229046Y-39589012D02*
G01*
X166275529Y-39596599D01*
X166318913Y-39608370D01*
X166363734Y-39625566D01*
X166406118Y-39647064D01*
X166445821Y-39672582D01*
X166482596Y-39701839D01*
X166516198Y-39734552D01*
X166546382Y-39770441D01*
X166572901Y-39809223D01*
X166595510Y-39850618D01*
X166613965Y-39894343D01*
X166628018Y-39940116D01*
X166634591Y-39970370D01*
X166636794Y-39986422D01*
X166638340Y-40006054D01*
X166639226Y-40027958D01*
X166639452Y-40050827D01*
X166639015Y-40073355D01*
X166637914Y-40094234D01*
X166636148Y-40112157D01*
X166634790Y-40120828D01*
X166623267Y-40168693D01*
X166607193Y-40214467D01*
X166586746Y-40257914D01*
X166562104Y-40298801D01*
X166533444Y-40336892D01*
X166500945Y-40371952D01*
X166464783Y-40403746D01*
X166425138Y-40432040D01*
X166382187Y-40456598D01*
X166379696Y-40457854D01*
X166341333Y-40474645D01*
X166300690Y-40487954D01*
X166258767Y-40497586D01*
X166216564Y-40503351D01*
X166175082Y-40505056D01*
X166142840Y-40503344D01*
X166095468Y-40496127D01*
X166049376Y-40484126D01*
X166004913Y-40467554D01*
X165962426Y-40446620D01*
X165922264Y-40421537D01*
X165884777Y-40392513D01*
X165850313Y-40359762D01*
X165819220Y-40323493D01*
X165799228Y-40295490D01*
X165774569Y-40253621D01*
X165754657Y-40210205D01*
X165739533Y-40165525D01*
X165729236Y-40119860D01*
X165723805Y-40073492D01*
X165723280Y-40026702D01*
X165727701Y-39979771D01*
X165737106Y-39932981D01*
X165744590Y-39906870D01*
X165751050Y-39889133D01*
X165759837Y-39868688D01*
X165770255Y-39846911D01*
X165781610Y-39825175D01*
X165793205Y-39804857D01*
X165804346Y-39787331D01*
X165806885Y-39783680D01*
X165817783Y-39769592D01*
X165831774Y-39753412D01*
X165847894Y-39736104D01*
X165865178Y-39718632D01*
X165882661Y-39701961D01*
X165899379Y-39687056D01*
X165914368Y-39674881D01*
X165919320Y-39671235D01*
X165934392Y-39661356D01*
X165952788Y-39650590D01*
X165973172Y-39639616D01*
X165994209Y-39629109D01*
X166014565Y-39619746D01*
X166032903Y-39612204D01*
X166042510Y-39608793D01*
X166088720Y-39596329D01*
X166135385Y-39588878D01*
X166182246Y-39586439D01*
X166229046Y-39589012D01*
G37*
X166229046Y-39589012D02*
X166275529Y-39596599D01*
X166318913Y-39608370D01*
X166363734Y-39625566D01*
X166406118Y-39647064D01*
X166445821Y-39672582D01*
X166482596Y-39701839D01*
X166516198Y-39734552D01*
X166546382Y-39770441D01*
X166572901Y-39809223D01*
X166595510Y-39850618D01*
X166613965Y-39894343D01*
X166628018Y-39940116D01*
X166634591Y-39970370D01*
X166636794Y-39986422D01*
X166638340Y-40006054D01*
X166639226Y-40027958D01*
X166639452Y-40050827D01*
X166639015Y-40073355D01*
X166637914Y-40094234D01*
X166636148Y-40112157D01*
X166634790Y-40120828D01*
X166623267Y-40168693D01*
X166607193Y-40214467D01*
X166586746Y-40257914D01*
X166562104Y-40298801D01*
X166533444Y-40336892D01*
X166500945Y-40371952D01*
X166464783Y-40403746D01*
X166425138Y-40432040D01*
X166382187Y-40456598D01*
X166379696Y-40457854D01*
X166341333Y-40474645D01*
X166300690Y-40487954D01*
X166258767Y-40497586D01*
X166216564Y-40503351D01*
X166175082Y-40505056D01*
X166142840Y-40503344D01*
X166095468Y-40496127D01*
X166049376Y-40484126D01*
X166004913Y-40467554D01*
X165962426Y-40446620D01*
X165922264Y-40421537D01*
X165884777Y-40392513D01*
X165850313Y-40359762D01*
X165819220Y-40323493D01*
X165799228Y-40295490D01*
X165774569Y-40253621D01*
X165754657Y-40210205D01*
X165739533Y-40165525D01*
X165729236Y-40119860D01*
X165723805Y-40073492D01*
X165723280Y-40026702D01*
X165727701Y-39979771D01*
X165737106Y-39932981D01*
X165744590Y-39906870D01*
X165751050Y-39889133D01*
X165759837Y-39868688D01*
X165770255Y-39846911D01*
X165781610Y-39825175D01*
X165793205Y-39804857D01*
X165804346Y-39787331D01*
X165806885Y-39783680D01*
X165817783Y-39769592D01*
X165831774Y-39753412D01*
X165847894Y-39736104D01*
X165865178Y-39718632D01*
X165882661Y-39701961D01*
X165899379Y-39687056D01*
X165914368Y-39674881D01*
X165919320Y-39671235D01*
X165934392Y-39661356D01*
X165952788Y-39650590D01*
X165973172Y-39639616D01*
X165994209Y-39629109D01*
X166014565Y-39619746D01*
X166032903Y-39612204D01*
X166042510Y-39608793D01*
X166088720Y-39596329D01*
X166135385Y-39588878D01*
X166182246Y-39586439D01*
X166229046Y-39589012D01*
G36*
X164095146Y-35264767D02*
G01*
X164144046Y-35271703D01*
X164191955Y-35283396D01*
X164239329Y-35299954D01*
X164281020Y-35318675D01*
X164313080Y-35335624D01*
X164341940Y-35353336D01*
X164368954Y-35372784D01*
X164395476Y-35394937D01*
X164421481Y-35419406D01*
X164452001Y-35451650D01*
X164478442Y-35484424D01*
X164501748Y-35519032D01*
X164522862Y-35556776D01*
X164527493Y-35566010D01*
X164548203Y-35613723D01*
X164564022Y-35662526D01*
X164574950Y-35712138D01*
X164580986Y-35762276D01*
X164582132Y-35812659D01*
X164578386Y-35863003D01*
X164569749Y-35913028D01*
X164556221Y-35962452D01*
X164537802Y-36010992D01*
X164527481Y-36033370D01*
X164502265Y-36079402D01*
X164473223Y-36122279D01*
X164440606Y-36161820D01*
X164404666Y-36197842D01*
X164365656Y-36230163D01*
X164323828Y-36258601D01*
X164279434Y-36282974D01*
X164232725Y-36303100D01*
X164183955Y-36318796D01*
X164133376Y-36329880D01*
X164112614Y-36332992D01*
X164091781Y-36335003D01*
X164067662Y-36336179D01*
X164041944Y-36336524D01*
X164016319Y-36336040D01*
X163992474Y-36334729D01*
X163973680Y-36332810D01*
X163924690Y-36323736D01*
X163876466Y-36309861D01*
X163829501Y-36291454D01*
X163784284Y-36268786D01*
X163741306Y-36242126D01*
X163701060Y-36211747D01*
X163664034Y-36177917D01*
X163635276Y-36146429D01*
X163602976Y-36104083D01*
X163575264Y-36059763D01*
X163552202Y-36013683D01*
X163533853Y-35966058D01*
X163520279Y-35917101D01*
X163511542Y-35867027D01*
X163507703Y-35816050D01*
X163508826Y-35764385D01*
X163513039Y-35724760D01*
X163522710Y-35674421D01*
X163536927Y-35625934D01*
X163555442Y-35579515D01*
X163578004Y-35535381D01*
X163604362Y-35493751D01*
X163634267Y-35454841D01*
X163667469Y-35418870D01*
X163703716Y-35386054D01*
X163742760Y-35356612D01*
X163784349Y-35330761D01*
X163828233Y-35308718D01*
X163874163Y-35290701D01*
X163921887Y-35276927D01*
X163971157Y-35267615D01*
X164021721Y-35262980D01*
X164044800Y-35262480D01*
X164095146Y-35264767D01*
G37*
X164095146Y-35264767D02*
X164144046Y-35271703D01*
X164191955Y-35283396D01*
X164239329Y-35299954D01*
X164281020Y-35318675D01*
X164313080Y-35335624D01*
X164341940Y-35353336D01*
X164368954Y-35372784D01*
X164395476Y-35394937D01*
X164421481Y-35419406D01*
X164452001Y-35451650D01*
X164478442Y-35484424D01*
X164501748Y-35519032D01*
X164522862Y-35556776D01*
X164527493Y-35566010D01*
X164548203Y-35613723D01*
X164564022Y-35662526D01*
X164574950Y-35712138D01*
X164580986Y-35762276D01*
X164582132Y-35812659D01*
X164578386Y-35863003D01*
X164569749Y-35913028D01*
X164556221Y-35962452D01*
X164537802Y-36010992D01*
X164527481Y-36033370D01*
X164502265Y-36079402D01*
X164473223Y-36122279D01*
X164440606Y-36161820D01*
X164404666Y-36197842D01*
X164365656Y-36230163D01*
X164323828Y-36258601D01*
X164279434Y-36282974D01*
X164232725Y-36303100D01*
X164183955Y-36318796D01*
X164133376Y-36329880D01*
X164112614Y-36332992D01*
X164091781Y-36335003D01*
X164067662Y-36336179D01*
X164041944Y-36336524D01*
X164016319Y-36336040D01*
X163992474Y-36334729D01*
X163973680Y-36332810D01*
X163924690Y-36323736D01*
X163876466Y-36309861D01*
X163829501Y-36291454D01*
X163784284Y-36268786D01*
X163741306Y-36242126D01*
X163701060Y-36211747D01*
X163664034Y-36177917D01*
X163635276Y-36146429D01*
X163602976Y-36104083D01*
X163575264Y-36059763D01*
X163552202Y-36013683D01*
X163533853Y-35966058D01*
X163520279Y-35917101D01*
X163511542Y-35867027D01*
X163507703Y-35816050D01*
X163508826Y-35764385D01*
X163513039Y-35724760D01*
X163522710Y-35674421D01*
X163536927Y-35625934D01*
X163555442Y-35579515D01*
X163578004Y-35535381D01*
X163604362Y-35493751D01*
X163634267Y-35454841D01*
X163667469Y-35418870D01*
X163703716Y-35386054D01*
X163742760Y-35356612D01*
X163784349Y-35330761D01*
X163828233Y-35308718D01*
X163874163Y-35290701D01*
X163921887Y-35276927D01*
X163971157Y-35267615D01*
X164021721Y-35262980D01*
X164044800Y-35262480D01*
X164095146Y-35264767D01*
G36*
X159845514Y-41551005D02*
G01*
X159897578Y-41556839D01*
X159948257Y-41566884D01*
X159952883Y-41568035D01*
X160005377Y-41583931D01*
X160056241Y-41604467D01*
X160105165Y-41629377D01*
X160151838Y-41658398D01*
X160195953Y-41691263D01*
X160237197Y-41727708D01*
X160275262Y-41767466D01*
X160309839Y-41810274D01*
X160340616Y-41855866D01*
X160367285Y-41903977D01*
X160381683Y-41935099D01*
X160401495Y-41987042D01*
X160416353Y-42039056D01*
X160426362Y-42091692D01*
X160431625Y-42145499D01*
X160432247Y-42201028D01*
X160432196Y-42202685D01*
X160427933Y-42259144D01*
X160418811Y-42314196D01*
X160404888Y-42367710D01*
X160386221Y-42419554D01*
X160362869Y-42469594D01*
X160334889Y-42517700D01*
X160302341Y-42563738D01*
X160265282Y-42607576D01*
X160245094Y-42628613D01*
X160202361Y-42667940D01*
X160157372Y-42702720D01*
X160110150Y-42732941D01*
X160060721Y-42758590D01*
X160009108Y-42779656D01*
X159955336Y-42796127D01*
X159899429Y-42807988D01*
X159886820Y-42809982D01*
X159874790Y-42811401D01*
X159859276Y-42812688D01*
X159841508Y-42813794D01*
X159822716Y-42814670D01*
X159804130Y-42815268D01*
X159786979Y-42815539D01*
X159772494Y-42815432D01*
X159762360Y-42814941D01*
X159713180Y-42809338D01*
X159667502Y-42801198D01*
X159624269Y-42790226D01*
X159582428Y-42776130D01*
X159540921Y-42758618D01*
X159516425Y-42746698D01*
X159466769Y-42718624D01*
X159420266Y-42686679D01*
X159377086Y-42651101D01*
X159337395Y-42612130D01*
X159301363Y-42570004D01*
X159269157Y-42524962D01*
X159240946Y-42477244D01*
X159216899Y-42427087D01*
X159197183Y-42374732D01*
X159181967Y-42320417D01*
X159171419Y-42264380D01*
X159170154Y-42255100D01*
X159168580Y-42238376D01*
X159167577Y-42217954D01*
X159167131Y-42195182D01*
X159167233Y-42171407D01*
X159167870Y-42147978D01*
X159169030Y-42126243D01*
X159170701Y-42107549D01*
X159171482Y-42101430D01*
X159181909Y-42045514D01*
X159196971Y-41991387D01*
X159216472Y-41939273D01*
X159240212Y-41889397D01*
X159267996Y-41841981D01*
X159299625Y-41797250D01*
X159334901Y-41755427D01*
X159373628Y-41716738D01*
X159415608Y-41681405D01*
X159460643Y-41649653D01*
X159508535Y-41621706D01*
X159559088Y-41597787D01*
X159612103Y-41578121D01*
X159640440Y-41569688D01*
X159689526Y-41558724D01*
X159740636Y-41551952D01*
X159792915Y-41549377D01*
X159845514Y-41551005D01*
G37*
X159845514Y-41551005D02*
X159897578Y-41556839D01*
X159948257Y-41566884D01*
X159952883Y-41568035D01*
X160005377Y-41583931D01*
X160056241Y-41604467D01*
X160105165Y-41629377D01*
X160151838Y-41658398D01*
X160195953Y-41691263D01*
X160237197Y-41727708D01*
X160275262Y-41767466D01*
X160309839Y-41810274D01*
X160340616Y-41855866D01*
X160367285Y-41903977D01*
X160381683Y-41935099D01*
X160401495Y-41987042D01*
X160416353Y-42039056D01*
X160426362Y-42091692D01*
X160431625Y-42145499D01*
X160432247Y-42201028D01*
X160432196Y-42202685D01*
X160427933Y-42259144D01*
X160418811Y-42314196D01*
X160404888Y-42367710D01*
X160386221Y-42419554D01*
X160362869Y-42469594D01*
X160334889Y-42517700D01*
X160302341Y-42563738D01*
X160265282Y-42607576D01*
X160245094Y-42628613D01*
X160202361Y-42667940D01*
X160157372Y-42702720D01*
X160110150Y-42732941D01*
X160060721Y-42758590D01*
X160009108Y-42779656D01*
X159955336Y-42796127D01*
X159899429Y-42807988D01*
X159886820Y-42809982D01*
X159874790Y-42811401D01*
X159859276Y-42812688D01*
X159841508Y-42813794D01*
X159822716Y-42814670D01*
X159804130Y-42815268D01*
X159786979Y-42815539D01*
X159772494Y-42815432D01*
X159762360Y-42814941D01*
X159713180Y-42809338D01*
X159667502Y-42801198D01*
X159624269Y-42790226D01*
X159582428Y-42776130D01*
X159540921Y-42758618D01*
X159516425Y-42746698D01*
X159466769Y-42718624D01*
X159420266Y-42686679D01*
X159377086Y-42651101D01*
X159337395Y-42612130D01*
X159301363Y-42570004D01*
X159269157Y-42524962D01*
X159240946Y-42477244D01*
X159216899Y-42427087D01*
X159197183Y-42374732D01*
X159181967Y-42320417D01*
X159171419Y-42264380D01*
X159170154Y-42255100D01*
X159168580Y-42238376D01*
X159167577Y-42217954D01*
X159167131Y-42195182D01*
X159167233Y-42171407D01*
X159167870Y-42147978D01*
X159169030Y-42126243D01*
X159170701Y-42107549D01*
X159171482Y-42101430D01*
X159181909Y-42045514D01*
X159196971Y-41991387D01*
X159216472Y-41939273D01*
X159240212Y-41889397D01*
X159267996Y-41841981D01*
X159299625Y-41797250D01*
X159334901Y-41755427D01*
X159373628Y-41716738D01*
X159415608Y-41681405D01*
X159460643Y-41649653D01*
X159508535Y-41621706D01*
X159559088Y-41597787D01*
X159612103Y-41578121D01*
X159640440Y-41569688D01*
X159689526Y-41558724D01*
X159740636Y-41551952D01*
X159792915Y-41549377D01*
X159845514Y-41551005D01*
G36*
X157733601Y-35439268D02*
G01*
X157774449Y-35446308D01*
X157802942Y-35454273D01*
X157842981Y-35469953D01*
X157880322Y-35489822D01*
X157914748Y-35513633D01*
X157946041Y-35541144D01*
X157973986Y-35572108D01*
X157998364Y-35606282D01*
X158018960Y-35643420D01*
X158035556Y-35683278D01*
X158047936Y-35725612D01*
X158049463Y-35732380D01*
X158052157Y-35749360D01*
X158053857Y-35769899D01*
X158054574Y-35792578D01*
X158054320Y-35815975D01*
X158053108Y-35838670D01*
X158050948Y-35859243D01*
X158048285Y-35874413D01*
X158036330Y-35916532D01*
X158019873Y-35956321D01*
X157998988Y-35993654D01*
X157973747Y-36028402D01*
X157944223Y-36060437D01*
X157939427Y-36065003D01*
X157906161Y-36092732D01*
X157870275Y-36116172D01*
X157832047Y-36135179D01*
X157791756Y-36149606D01*
X157763885Y-36156608D01*
X157748706Y-36159116D01*
X157730370Y-36161086D01*
X157710369Y-36162452D01*
X157690192Y-36163151D01*
X157671329Y-36163118D01*
X157655272Y-36162287D01*
X157649080Y-36161598D01*
X157606482Y-36153207D01*
X157565783Y-36140306D01*
X157527276Y-36123141D01*
X157491254Y-36101957D01*
X157458012Y-36076999D01*
X157427843Y-36048512D01*
X157401041Y-36016741D01*
X157377900Y-35981932D01*
X157358713Y-35944331D01*
X157344858Y-35907640D01*
X157340789Y-35893551D01*
X157336833Y-35877655D01*
X157333700Y-35862867D01*
X157333109Y-35859567D01*
X157330868Y-35841565D01*
X157329541Y-35820419D01*
X157329129Y-35797818D01*
X157329637Y-35775454D01*
X157331066Y-35755017D01*
X157332913Y-35740967D01*
X157342446Y-35700228D01*
X157356644Y-35660990D01*
X157375216Y-35623644D01*
X157397872Y-35588580D01*
X157424318Y-35556188D01*
X157454264Y-35526859D01*
X157487419Y-35500984D01*
X157523490Y-35478952D01*
X157531683Y-35474712D01*
X157569892Y-35458346D01*
X157609748Y-35446576D01*
X157650691Y-35439445D01*
X157692161Y-35436995D01*
X157733601Y-35439268D01*
G37*
X157733601Y-35439268D02*
X157774449Y-35446308D01*
X157802942Y-35454273D01*
X157842981Y-35469953D01*
X157880322Y-35489822D01*
X157914748Y-35513633D01*
X157946041Y-35541144D01*
X157973986Y-35572108D01*
X157998364Y-35606282D01*
X158018960Y-35643420D01*
X158035556Y-35683278D01*
X158047936Y-35725612D01*
X158049463Y-35732380D01*
X158052157Y-35749360D01*
X158053857Y-35769899D01*
X158054574Y-35792578D01*
X158054320Y-35815975D01*
X158053108Y-35838670D01*
X158050948Y-35859243D01*
X158048285Y-35874413D01*
X158036330Y-35916532D01*
X158019873Y-35956321D01*
X157998988Y-35993654D01*
X157973747Y-36028402D01*
X157944223Y-36060437D01*
X157939427Y-36065003D01*
X157906161Y-36092732D01*
X157870275Y-36116172D01*
X157832047Y-36135179D01*
X157791756Y-36149606D01*
X157763885Y-36156608D01*
X157748706Y-36159116D01*
X157730370Y-36161086D01*
X157710369Y-36162452D01*
X157690192Y-36163151D01*
X157671329Y-36163118D01*
X157655272Y-36162287D01*
X157649080Y-36161598D01*
X157606482Y-36153207D01*
X157565783Y-36140306D01*
X157527276Y-36123141D01*
X157491254Y-36101957D01*
X157458012Y-36076999D01*
X157427843Y-36048512D01*
X157401041Y-36016741D01*
X157377900Y-35981932D01*
X157358713Y-35944331D01*
X157344858Y-35907640D01*
X157340789Y-35893551D01*
X157336833Y-35877655D01*
X157333700Y-35862867D01*
X157333109Y-35859567D01*
X157330868Y-35841565D01*
X157329541Y-35820419D01*
X157329129Y-35797818D01*
X157329637Y-35775454D01*
X157331066Y-35755017D01*
X157332913Y-35740967D01*
X157342446Y-35700228D01*
X157356644Y-35660990D01*
X157375216Y-35623644D01*
X157397872Y-35588580D01*
X157424318Y-35556188D01*
X157454264Y-35526859D01*
X157487419Y-35500984D01*
X157523490Y-35478952D01*
X157531683Y-35474712D01*
X157569892Y-35458346D01*
X157609748Y-35446576D01*
X157650691Y-35439445D01*
X157692161Y-35436995D01*
X157733601Y-35439268D01*
G36*
X157664320Y-41746042D02*
G01*
X157683284Y-41746139D01*
X157698265Y-41746396D01*
X157710359Y-41746900D01*
X157720662Y-41747738D01*
X157730270Y-41748997D01*
X157740280Y-41750763D01*
X157750680Y-41752889D01*
X157781270Y-41760153D01*
X157808785Y-41768501D01*
X157835212Y-41778615D01*
X157862539Y-41791181D01*
X157863710Y-41791759D01*
X157903826Y-41814411D01*
X157940921Y-41841000D01*
X157974747Y-41871223D01*
X158005060Y-41904775D01*
X158031614Y-41941351D01*
X158054163Y-41980648D01*
X158072462Y-42022360D01*
X158086265Y-42066182D01*
X158086835Y-42068432D01*
X158091593Y-42088634D01*
X158095078Y-42106706D01*
X158097465Y-42124159D01*
X158098925Y-42142506D01*
X158099632Y-42163259D01*
X158099772Y-42181440D01*
X158098350Y-42223373D01*
X158093918Y-42262138D01*
X158086229Y-42298828D01*
X158075036Y-42334538D01*
X158060091Y-42370362D01*
X158054414Y-42382153D01*
X158031384Y-42423034D01*
X158004629Y-42460547D01*
X157974351Y-42494542D01*
X157940757Y-42524867D01*
X157904052Y-42551372D01*
X157864440Y-42573907D01*
X157822127Y-42592319D01*
X157777317Y-42606459D01*
X157737980Y-42614910D01*
X157727444Y-42616262D01*
X157713119Y-42617473D01*
X157696297Y-42618495D01*
X157678268Y-42619282D01*
X157660322Y-42619784D01*
X157643750Y-42619955D01*
X157629844Y-42619746D01*
X157621140Y-42619239D01*
X157575994Y-42612555D01*
X157531766Y-42601295D01*
X157488976Y-42585709D01*
X157448143Y-42566050D01*
X157409786Y-42542569D01*
X157374425Y-42515517D01*
X157342580Y-42485146D01*
X157341289Y-42483761D01*
X157311602Y-42448082D01*
X157286156Y-42409847D01*
X157265024Y-42369403D01*
X157248280Y-42327094D01*
X157235995Y-42283269D01*
X157228243Y-42238273D01*
X157225096Y-42192452D01*
X157226627Y-42146154D01*
X157232908Y-42099724D01*
X157244013Y-42053509D01*
X157248174Y-42040110D01*
X157264909Y-41996853D01*
X157285853Y-41956248D01*
X157310761Y-41918508D01*
X157339387Y-41883843D01*
X157371485Y-41852466D01*
X157406810Y-41824588D01*
X157445116Y-41800420D01*
X157486157Y-41780175D01*
X157529688Y-41764064D01*
X157575463Y-41752298D01*
X157584310Y-41750587D01*
X157595252Y-41748832D01*
X157606809Y-41747558D01*
X157619995Y-41746706D01*
X157635823Y-41746220D01*
X157655308Y-41746041D01*
X157664320Y-41746042D01*
G37*
X157664320Y-41746042D02*
X157683284Y-41746139D01*
X157698265Y-41746396D01*
X157710359Y-41746900D01*
X157720662Y-41747738D01*
X157730270Y-41748997D01*
X157740280Y-41750763D01*
X157750680Y-41752889D01*
X157781270Y-41760153D01*
X157808785Y-41768501D01*
X157835212Y-41778615D01*
X157862539Y-41791181D01*
X157863710Y-41791759D01*
X157903826Y-41814411D01*
X157940921Y-41841000D01*
X157974747Y-41871223D01*
X158005060Y-41904775D01*
X158031614Y-41941351D01*
X158054163Y-41980648D01*
X158072462Y-42022360D01*
X158086265Y-42066182D01*
X158086835Y-42068432D01*
X158091593Y-42088634D01*
X158095078Y-42106706D01*
X158097465Y-42124159D01*
X158098925Y-42142506D01*
X158099632Y-42163259D01*
X158099772Y-42181440D01*
X158098350Y-42223373D01*
X158093918Y-42262138D01*
X158086229Y-42298828D01*
X158075036Y-42334538D01*
X158060091Y-42370362D01*
X158054414Y-42382153D01*
X158031384Y-42423034D01*
X158004629Y-42460547D01*
X157974351Y-42494542D01*
X157940757Y-42524867D01*
X157904052Y-42551372D01*
X157864440Y-42573907D01*
X157822127Y-42592319D01*
X157777317Y-42606459D01*
X157737980Y-42614910D01*
X157727444Y-42616262D01*
X157713119Y-42617473D01*
X157696297Y-42618495D01*
X157678268Y-42619282D01*
X157660322Y-42619784D01*
X157643750Y-42619955D01*
X157629844Y-42619746D01*
X157621140Y-42619239D01*
X157575994Y-42612555D01*
X157531766Y-42601295D01*
X157488976Y-42585709D01*
X157448143Y-42566050D01*
X157409786Y-42542569D01*
X157374425Y-42515517D01*
X157342580Y-42485146D01*
X157341289Y-42483761D01*
X157311602Y-42448082D01*
X157286156Y-42409847D01*
X157265024Y-42369403D01*
X157248280Y-42327094D01*
X157235995Y-42283269D01*
X157228243Y-42238273D01*
X157225096Y-42192452D01*
X157226627Y-42146154D01*
X157232908Y-42099724D01*
X157244013Y-42053509D01*
X157248174Y-42040110D01*
X157264909Y-41996853D01*
X157285853Y-41956248D01*
X157310761Y-41918508D01*
X157339387Y-41883843D01*
X157371485Y-41852466D01*
X157406810Y-41824588D01*
X157445116Y-41800420D01*
X157486157Y-41780175D01*
X157529688Y-41764064D01*
X157575463Y-41752298D01*
X157584310Y-41750587D01*
X157595252Y-41748832D01*
X157606809Y-41747558D01*
X157619995Y-41746706D01*
X157635823Y-41746220D01*
X157655308Y-41746041D01*
X157664320Y-41746042D01*
G36*
X164100883Y-37311005D02*
G01*
X164154189Y-37318912D01*
X164206674Y-37331475D01*
X164258017Y-37348594D01*
X164307902Y-37370167D01*
X164356009Y-37396095D01*
X164402019Y-37426275D01*
X164445614Y-37460608D01*
X164472265Y-37484873D01*
X164512637Y-37527071D01*
X164548454Y-37571518D01*
X164579730Y-37618239D01*
X164606477Y-37667259D01*
X164628709Y-37718602D01*
X164646439Y-37772292D01*
X164659679Y-37828356D01*
X164663689Y-37851255D01*
X164665780Y-37868666D01*
X164667265Y-37889868D01*
X164668147Y-37913606D01*
X164668425Y-37938626D01*
X164668101Y-37963675D01*
X164667175Y-37987499D01*
X164665648Y-38008843D01*
X164663592Y-38026000D01*
X164652363Y-38081920D01*
X164636407Y-38136045D01*
X164615804Y-38188235D01*
X164590629Y-38238349D01*
X164560959Y-38286246D01*
X164526873Y-38331786D01*
X164488447Y-38374828D01*
X164453534Y-38408358D01*
X164421685Y-38439605D01*
X164390690Y-38475241D01*
X164360953Y-38514594D01*
X164332879Y-38556992D01*
X164306875Y-38601763D01*
X164283346Y-38648235D01*
X164262697Y-38695737D01*
X164245334Y-38743597D01*
X164239153Y-38763529D01*
X164228892Y-38801865D01*
X164221186Y-38838929D01*
X164215839Y-38876148D01*
X164212659Y-38914954D01*
X164211448Y-38956774D01*
X164211429Y-38967070D01*
X164211948Y-39000041D01*
X164213430Y-39029454D01*
X164216033Y-39056766D01*
X164219919Y-39083435D01*
X164225248Y-39110917D01*
X164229142Y-39128138D01*
X164245734Y-39187416D01*
X164267279Y-39245823D01*
X164293699Y-39303196D01*
X164324914Y-39359373D01*
X164360848Y-39414191D01*
X164377013Y-39436352D01*
X164398724Y-39464357D01*
X164419563Y-39489497D01*
X164439069Y-39511240D01*
X164456783Y-39529055D01*
X164458816Y-39530950D01*
X164497068Y-39567604D01*
X164530941Y-39603056D01*
X164560819Y-39637859D01*
X164587089Y-39672570D01*
X164610136Y-39707744D01*
X164630347Y-39743938D01*
X164648106Y-39781708D01*
X164663799Y-39821608D01*
X164667186Y-39831229D01*
X164678596Y-39866838D01*
X164687428Y-39900487D01*
X164693943Y-39933664D01*
X164698402Y-39967854D01*
X164701067Y-40004542D01*
X164701922Y-40028790D01*
X164702037Y-40069924D01*
X164700224Y-40107766D01*
X164696300Y-40143795D01*
X164690078Y-40179490D01*
X164681375Y-40216330D01*
X164676163Y-40235195D01*
X164658925Y-40286448D01*
X164637180Y-40336548D01*
X164611280Y-40384985D01*
X164581576Y-40431246D01*
X164548418Y-40474819D01*
X164512156Y-40515192D01*
X164473143Y-40551853D01*
X164442310Y-40576589D01*
X164430165Y-40586348D01*
X164417900Y-40597713D01*
X164404982Y-40611264D01*
X164390878Y-40627581D01*
X164375056Y-40647245D01*
X164362310Y-40663790D01*
X164326300Y-40714861D01*
X164295224Y-40766839D01*
X164268980Y-40819960D01*
X164247467Y-40874458D01*
X164230583Y-40930569D01*
X164218227Y-40988528D01*
X164215902Y-41002880D01*
X164214109Y-41018277D01*
X164212744Y-41037351D01*
X164211816Y-41058894D01*
X164211337Y-41081695D01*
X164211317Y-41104545D01*
X164211767Y-41126235D01*
X164212697Y-41145556D01*
X164214118Y-41161298D01*
X164214499Y-41164170D01*
X164225413Y-41223582D01*
X164240961Y-41281263D01*
X164261206Y-41337356D01*
X164286213Y-41392003D01*
X164316044Y-41445347D01*
X164350762Y-41497529D01*
X164379260Y-41535010D01*
X164396155Y-41555211D01*
X164414861Y-41576050D01*
X164434389Y-41596512D01*
X164453748Y-41615584D01*
X164471949Y-41632251D01*
X164484220Y-41642544D01*
X164499889Y-41655756D01*
X164517628Y-41671910D01*
X164536385Y-41689951D01*
X164555108Y-41708827D01*
X164572748Y-41727483D01*
X164588253Y-41744865D01*
X164598071Y-41756711D01*
X164633477Y-41805306D01*
X164664528Y-41856107D01*
X164691141Y-41908822D01*
X164713237Y-41963162D01*
X164730732Y-42018836D01*
X164743546Y-42075554D01*
X164751598Y-42133025D01*
X164754806Y-42190960D01*
X164753089Y-42249066D01*
X164748423Y-42293283D01*
X164737716Y-42352093D01*
X164722184Y-42409481D01*
X164701937Y-42465234D01*
X164677083Y-42519139D01*
X164647733Y-42570983D01*
X164613995Y-42620553D01*
X164575978Y-42667635D01*
X164533793Y-42712017D01*
X164533404Y-42712395D01*
X164490035Y-42751077D01*
X164443519Y-42786197D01*
X164394309Y-42817531D01*
X164342861Y-42844854D01*
X164289631Y-42867941D01*
X164235073Y-42886567D01*
X164179643Y-42900508D01*
X164137510Y-42907791D01*
X164080542Y-42913174D01*
X164022859Y-42913732D01*
X163964994Y-42909564D01*
X163907481Y-42900770D01*
X163850852Y-42887450D01*
X163795641Y-42869702D01*
X163742380Y-42847626D01*
X163700404Y-42826291D01*
X163654446Y-42798513D01*
X163610261Y-42767254D01*
X163568526Y-42733102D01*
X163529918Y-42696644D01*
X163495115Y-42658469D01*
X163469851Y-42626240D01*
X163445583Y-42595807D01*
X163417121Y-42565214D01*
X163385277Y-42535141D01*
X163350868Y-42506272D01*
X163314707Y-42479289D01*
X163277610Y-42454876D01*
X163240390Y-42433713D01*
X163239620Y-42433312D01*
X163190706Y-42410537D01*
X163141394Y-42392794D01*
X163091801Y-42380060D01*
X163042043Y-42372315D01*
X162992237Y-42369534D01*
X162942499Y-42371698D01*
X162892946Y-42378783D01*
X162843695Y-42390767D01*
X162794862Y-42407628D01*
X162746563Y-42429345D01*
X162698916Y-42455895D01*
X162652037Y-42487256D01*
X162606042Y-42523406D01*
X162564303Y-42561170D01*
X162552161Y-42573295D01*
X162539812Y-42586353D01*
X162528395Y-42599090D01*
X162519051Y-42610252D01*
X162515676Y-42614630D01*
X162488587Y-42649387D01*
X162460763Y-42681244D01*
X162430401Y-42712266D01*
X162430267Y-42712395D01*
X162385799Y-42752118D01*
X162338583Y-42787769D01*
X162288914Y-42819236D01*
X162237091Y-42846408D01*
X162183411Y-42869174D01*
X162128171Y-42887422D01*
X162071670Y-42901041D01*
X162014205Y-42909919D01*
X161956072Y-42913944D01*
X161897571Y-42913005D01*
X161895324Y-42912869D01*
X161836413Y-42906712D01*
X161778824Y-42895785D01*
X161722785Y-42880280D01*
X161668523Y-42860388D01*
X161616265Y-42836300D01*
X161566238Y-42808207D01*
X161518670Y-42776299D01*
X161473787Y-42740769D01*
X161431816Y-42701807D01*
X161392985Y-42659604D01*
X161357520Y-42614351D01*
X161325648Y-42566239D01*
X161297598Y-42515460D01*
X161273595Y-42462204D01*
X161253867Y-42406662D01*
X161241875Y-42363050D01*
X161236866Y-42341663D01*
X161232880Y-42322882D01*
X161229806Y-42305658D01*
X161227532Y-42288947D01*
X161225949Y-42271703D01*
X161224944Y-42252879D01*
X161224408Y-42231428D01*
X161224228Y-42206307D01*
X161224229Y-42196680D01*
X161224344Y-42172272D01*
X161224640Y-42152196D01*
X161225148Y-42135705D01*
X161225903Y-42122052D01*
X161226937Y-42110490D01*
X161228284Y-42100273D01*
X161228621Y-42098162D01*
X161240970Y-42037167D01*
X161257550Y-41978950D01*
X161278431Y-41923373D01*
X161303681Y-41870300D01*
X161333370Y-41819595D01*
X161367567Y-41771122D01*
X161406341Y-41724745D01*
X161432365Y-41697331D01*
X161476918Y-41656057D01*
X161524361Y-41618878D01*
X161574451Y-41585917D01*
X161626946Y-41557298D01*
X161681606Y-41533144D01*
X161738187Y-41513578D01*
X161796448Y-41498723D01*
X161836270Y-41491473D01*
X161850274Y-41489834D01*
X161868175Y-41488518D01*
X161888964Y-41487530D01*
X161911631Y-41486879D01*
X161935168Y-41486570D01*
X161958566Y-41486610D01*
X161980814Y-41487005D01*
X162000905Y-41487764D01*
X162017828Y-41488891D01*
X162029310Y-41490196D01*
X162090177Y-41501833D01*
X162148994Y-41518034D01*
X162205595Y-41538698D01*
X162259812Y-41563723D01*
X162311482Y-41593008D01*
X162360437Y-41626454D01*
X162406512Y-41663959D01*
X162449541Y-41705422D01*
X162489358Y-41750742D01*
X162516492Y-41786470D01*
X162527968Y-41802378D01*
X162537573Y-41815132D01*
X162546253Y-41825805D01*
X162554954Y-41835473D01*
X162564620Y-41845209D01*
X162576197Y-41856086D01*
X162584203Y-41863380D01*
X162628122Y-41900367D01*
X162672836Y-41932447D01*
X162718694Y-41959772D01*
X162766041Y-41982496D01*
X162815224Y-42000771D01*
X162866591Y-42014749D01*
X162920488Y-42024585D01*
X162960395Y-42029130D01*
X162975311Y-42030231D01*
X162988478Y-42030644D01*
X163001676Y-42030336D01*
X163016686Y-42029277D01*
X163031197Y-42027867D01*
X163087504Y-42019693D01*
X163141325Y-42007148D01*
X163192824Y-41990152D01*
X163242167Y-41968630D01*
X163289519Y-41942502D01*
X163335047Y-41911691D01*
X163378916Y-41876120D01*
X163404274Y-41852687D01*
X163420384Y-41836300D01*
X163434636Y-41820233D01*
X163446011Y-41805646D01*
X163448288Y-41802366D01*
X163477719Y-41762243D01*
X163511259Y-41722873D01*
X163547942Y-41685237D01*
X163586803Y-41650319D01*
X163626875Y-41619101D01*
X163632050Y-41615417D01*
X163642529Y-41606975D01*
X163655249Y-41594983D01*
X163669603Y-41580103D01*
X163684986Y-41562994D01*
X163700793Y-41544316D01*
X163716418Y-41524729D01*
X163722147Y-41517230D01*
X163756893Y-41467530D01*
X163786817Y-41416812D01*
X163812044Y-41364748D01*
X163832696Y-41311007D01*
X163848897Y-41255262D01*
X163860770Y-41197182D01*
X163868439Y-41136440D01*
X163869475Y-41123985D01*
X163870748Y-41081568D01*
X163868436Y-41036610D01*
X163862705Y-40989992D01*
X163853722Y-40942598D01*
X163841653Y-40895311D01*
X163826664Y-40849014D01*
X163809664Y-40806278D01*
X163794044Y-40773582D01*
X163775652Y-40740154D01*
X163755044Y-40706757D01*
X163732779Y-40674156D01*
X163709414Y-40643113D01*
X163685506Y-40614393D01*
X163661614Y-40588759D01*
X163638294Y-40566975D01*
X163629808Y-40559953D01*
X163604247Y-40538429D01*
X163578737Y-40514778D01*
X163554934Y-40490586D01*
X163539576Y-40473482D01*
X163502590Y-40426767D01*
X163470403Y-40378464D01*
X163442936Y-40328403D01*
X163420111Y-40276415D01*
X163401848Y-40222329D01*
X163388069Y-40165978D01*
X163382729Y-40136224D01*
X163380684Y-40119233D01*
X163379198Y-40098380D01*
X163378270Y-40074855D01*
X163377899Y-40049844D01*
X163378085Y-40024536D01*
X163378827Y-40000119D01*
X163380125Y-39977781D01*
X163381978Y-39958709D01*
X163382823Y-39952590D01*
X163394215Y-39894764D01*
X163410387Y-39838608D01*
X163431266Y-39784290D01*
X163456780Y-39731973D01*
X163486858Y-39681823D01*
X163521427Y-39634006D01*
X163522163Y-39633075D01*
X163538070Y-39614172D01*
X163556925Y-39593678D01*
X163577471Y-39572849D01*
X163598449Y-39552943D01*
X163618602Y-39535219D01*
X163626452Y-39528780D01*
X163649547Y-39508327D01*
X163673296Y-39483557D01*
X163697219Y-39455108D01*
X163720839Y-39423617D01*
X163743676Y-39389720D01*
X163765253Y-39354054D01*
X163784305Y-39318800D01*
X163806671Y-39271306D01*
X163825422Y-39223556D01*
X163840772Y-39174754D01*
X163852935Y-39124102D01*
X163862124Y-39070804D01*
X163868554Y-39014061D01*
X163869659Y-39000525D01*
X163870990Y-38977692D01*
X163871199Y-38957087D01*
X163870285Y-38935984D01*
X163869610Y-38926865D01*
X163863819Y-38871341D01*
X163855631Y-38819507D01*
X163844816Y-38770457D01*
X163831145Y-38723285D01*
X163814388Y-38677087D01*
X163794518Y-38631394D01*
X163782301Y-38606892D01*
X163768394Y-38581638D01*
X163753246Y-38556271D01*
X163737303Y-38531430D01*
X163721011Y-38507754D01*
X163704817Y-38485884D01*
X163689169Y-38466458D01*
X163674512Y-38450116D01*
X163661294Y-38437499D01*
X163656198Y-38433403D01*
X163646172Y-38425229D01*
X163633612Y-38413974D01*
X163619286Y-38400418D01*
X163603962Y-38385343D01*
X163588406Y-38369527D01*
X163573386Y-38353752D01*
X163559669Y-38338799D01*
X163548023Y-38325447D01*
X163539215Y-38314478D01*
X163538998Y-38314188D01*
X163506432Y-38266510D01*
X163478542Y-38217216D01*
X163455372Y-38166514D01*
X163436967Y-38114612D01*
X163423372Y-38061721D01*
X163414633Y-38008048D01*
X163410793Y-37953803D01*
X163411899Y-37899194D01*
X163417994Y-37844431D01*
X163427556Y-37796130D01*
X163442852Y-37742865D01*
X163462672Y-37691547D01*
X163486767Y-37642411D01*
X163514887Y-37595689D01*
X163546783Y-37551615D01*
X163582206Y-37510423D01*
X163620907Y-37472347D01*
X163662636Y-37437621D01*
X163707145Y-37406478D01*
X163754184Y-37379152D01*
X163803504Y-37355876D01*
X163854856Y-37336885D01*
X163907990Y-37322412D01*
X163939221Y-37316232D01*
X163993080Y-37309564D01*
X164047074Y-37307856D01*
X164100883Y-37311005D01*
G37*
X164100883Y-37311005D02*
X164154189Y-37318912D01*
X164206674Y-37331475D01*
X164258017Y-37348594D01*
X164307902Y-37370167D01*
X164356009Y-37396095D01*
X164402019Y-37426275D01*
X164445614Y-37460608D01*
X164472265Y-37484873D01*
X164512637Y-37527071D01*
X164548454Y-37571518D01*
X164579730Y-37618239D01*
X164606477Y-37667259D01*
X164628709Y-37718602D01*
X164646439Y-37772292D01*
X164659679Y-37828356D01*
X164663689Y-37851255D01*
X164665780Y-37868666D01*
X164667265Y-37889868D01*
X164668147Y-37913606D01*
X164668425Y-37938626D01*
X164668101Y-37963675D01*
X164667175Y-37987499D01*
X164665648Y-38008843D01*
X164663592Y-38026000D01*
X164652363Y-38081920D01*
X164636407Y-38136045D01*
X164615804Y-38188235D01*
X164590629Y-38238349D01*
X164560959Y-38286246D01*
X164526873Y-38331786D01*
X164488447Y-38374828D01*
X164453534Y-38408358D01*
X164421685Y-38439605D01*
X164390690Y-38475241D01*
X164360953Y-38514594D01*
X164332879Y-38556992D01*
X164306875Y-38601763D01*
X164283346Y-38648235D01*
X164262697Y-38695737D01*
X164245334Y-38743597D01*
X164239153Y-38763529D01*
X164228892Y-38801865D01*
X164221186Y-38838929D01*
X164215839Y-38876148D01*
X164212659Y-38914954D01*
X164211448Y-38956774D01*
X164211429Y-38967070D01*
X164211948Y-39000041D01*
X164213430Y-39029454D01*
X164216033Y-39056766D01*
X164219919Y-39083435D01*
X164225248Y-39110917D01*
X164229142Y-39128138D01*
X164245734Y-39187416D01*
X164267279Y-39245823D01*
X164293699Y-39303196D01*
X164324914Y-39359373D01*
X164360848Y-39414191D01*
X164377013Y-39436352D01*
X164398724Y-39464357D01*
X164419563Y-39489497D01*
X164439069Y-39511240D01*
X164456783Y-39529055D01*
X164458816Y-39530950D01*
X164497068Y-39567604D01*
X164530941Y-39603056D01*
X164560819Y-39637859D01*
X164587089Y-39672570D01*
X164610136Y-39707744D01*
X164630347Y-39743938D01*
X164648106Y-39781708D01*
X164663799Y-39821608D01*
X164667186Y-39831229D01*
X164678596Y-39866838D01*
X164687428Y-39900487D01*
X164693943Y-39933664D01*
X164698402Y-39967854D01*
X164701067Y-40004542D01*
X164701922Y-40028790D01*
X164702037Y-40069924D01*
X164700224Y-40107766D01*
X164696300Y-40143795D01*
X164690078Y-40179490D01*
X164681375Y-40216330D01*
X164676163Y-40235195D01*
X164658925Y-40286448D01*
X164637180Y-40336548D01*
X164611280Y-40384985D01*
X164581576Y-40431246D01*
X164548418Y-40474819D01*
X164512156Y-40515192D01*
X164473143Y-40551853D01*
X164442310Y-40576589D01*
X164430165Y-40586348D01*
X164417900Y-40597713D01*
X164404982Y-40611264D01*
X164390878Y-40627581D01*
X164375056Y-40647245D01*
X164362310Y-40663790D01*
X164326300Y-40714861D01*
X164295224Y-40766839D01*
X164268980Y-40819960D01*
X164247467Y-40874458D01*
X164230583Y-40930569D01*
X164218227Y-40988528D01*
X164215902Y-41002880D01*
X164214109Y-41018277D01*
X164212744Y-41037351D01*
X164211816Y-41058894D01*
X164211337Y-41081695D01*
X164211317Y-41104545D01*
X164211767Y-41126235D01*
X164212697Y-41145556D01*
X164214118Y-41161298D01*
X164214499Y-41164170D01*
X164225413Y-41223582D01*
X164240961Y-41281263D01*
X164261206Y-41337356D01*
X164286213Y-41392003D01*
X164316044Y-41445347D01*
X164350762Y-41497529D01*
X164379260Y-41535010D01*
X164396155Y-41555211D01*
X164414861Y-41576050D01*
X164434389Y-41596512D01*
X164453748Y-41615584D01*
X164471949Y-41632251D01*
X164484220Y-41642544D01*
X164499889Y-41655756D01*
X164517628Y-41671910D01*
X164536385Y-41689951D01*
X164555108Y-41708827D01*
X164572748Y-41727483D01*
X164588253Y-41744865D01*
X164598071Y-41756711D01*
X164633477Y-41805306D01*
X164664528Y-41856107D01*
X164691141Y-41908822D01*
X164713237Y-41963162D01*
X164730732Y-42018836D01*
X164743546Y-42075554D01*
X164751598Y-42133025D01*
X164754806Y-42190960D01*
X164753089Y-42249066D01*
X164748423Y-42293283D01*
X164737716Y-42352093D01*
X164722184Y-42409481D01*
X164701937Y-42465234D01*
X164677083Y-42519139D01*
X164647733Y-42570983D01*
X164613995Y-42620553D01*
X164575978Y-42667635D01*
X164533793Y-42712017D01*
X164533404Y-42712395D01*
X164490035Y-42751077D01*
X164443519Y-42786197D01*
X164394309Y-42817531D01*
X164342861Y-42844854D01*
X164289631Y-42867941D01*
X164235073Y-42886567D01*
X164179643Y-42900508D01*
X164137510Y-42907791D01*
X164080542Y-42913174D01*
X164022859Y-42913732D01*
X163964994Y-42909564D01*
X163907481Y-42900770D01*
X163850852Y-42887450D01*
X163795641Y-42869702D01*
X163742380Y-42847626D01*
X163700404Y-42826291D01*
X163654446Y-42798513D01*
X163610261Y-42767254D01*
X163568526Y-42733102D01*
X163529918Y-42696644D01*
X163495115Y-42658469D01*
X163469851Y-42626240D01*
X163445583Y-42595807D01*
X163417121Y-42565214D01*
X163385277Y-42535141D01*
X163350868Y-42506272D01*
X163314707Y-42479289D01*
X163277610Y-42454876D01*
X163240390Y-42433713D01*
X163239620Y-42433312D01*
X163190706Y-42410537D01*
X163141394Y-42392794D01*
X163091801Y-42380060D01*
X163042043Y-42372315D01*
X162992237Y-42369534D01*
X162942499Y-42371698D01*
X162892946Y-42378783D01*
X162843695Y-42390767D01*
X162794862Y-42407628D01*
X162746563Y-42429345D01*
X162698916Y-42455895D01*
X162652037Y-42487256D01*
X162606042Y-42523406D01*
X162564303Y-42561170D01*
X162552161Y-42573295D01*
X162539812Y-42586353D01*
X162528395Y-42599090D01*
X162519051Y-42610252D01*
X162515676Y-42614630D01*
X162488587Y-42649387D01*
X162460763Y-42681244D01*
X162430401Y-42712266D01*
X162430267Y-42712395D01*
X162385799Y-42752118D01*
X162338583Y-42787769D01*
X162288914Y-42819236D01*
X162237091Y-42846408D01*
X162183411Y-42869174D01*
X162128171Y-42887422D01*
X162071670Y-42901041D01*
X162014205Y-42909919D01*
X161956072Y-42913944D01*
X161897571Y-42913005D01*
X161895324Y-42912869D01*
X161836413Y-42906712D01*
X161778824Y-42895785D01*
X161722785Y-42880280D01*
X161668523Y-42860388D01*
X161616265Y-42836300D01*
X161566238Y-42808207D01*
X161518670Y-42776299D01*
X161473787Y-42740769D01*
X161431816Y-42701807D01*
X161392985Y-42659604D01*
X161357520Y-42614351D01*
X161325648Y-42566239D01*
X161297598Y-42515460D01*
X161273595Y-42462204D01*
X161253867Y-42406662D01*
X161241875Y-42363050D01*
X161236866Y-42341663D01*
X161232880Y-42322882D01*
X161229806Y-42305658D01*
X161227532Y-42288947D01*
X161225949Y-42271703D01*
X161224944Y-42252879D01*
X161224408Y-42231428D01*
X161224228Y-42206307D01*
X161224229Y-42196680D01*
X161224344Y-42172272D01*
X161224640Y-42152196D01*
X161225148Y-42135705D01*
X161225903Y-42122052D01*
X161226937Y-42110490D01*
X161228284Y-42100273D01*
X161228621Y-42098162D01*
X161240970Y-42037167D01*
X161257550Y-41978950D01*
X161278431Y-41923373D01*
X161303681Y-41870300D01*
X161333370Y-41819595D01*
X161367567Y-41771122D01*
X161406341Y-41724745D01*
X161432365Y-41697331D01*
X161476918Y-41656057D01*
X161524361Y-41618878D01*
X161574451Y-41585917D01*
X161626946Y-41557298D01*
X161681606Y-41533144D01*
X161738187Y-41513578D01*
X161796448Y-41498723D01*
X161836270Y-41491473D01*
X161850274Y-41489834D01*
X161868175Y-41488518D01*
X161888964Y-41487530D01*
X161911631Y-41486879D01*
X161935168Y-41486570D01*
X161958566Y-41486610D01*
X161980814Y-41487005D01*
X162000905Y-41487764D01*
X162017828Y-41488891D01*
X162029310Y-41490196D01*
X162090177Y-41501833D01*
X162148994Y-41518034D01*
X162205595Y-41538698D01*
X162259812Y-41563723D01*
X162311482Y-41593008D01*
X162360437Y-41626454D01*
X162406512Y-41663959D01*
X162449541Y-41705422D01*
X162489358Y-41750742D01*
X162516492Y-41786470D01*
X162527968Y-41802378D01*
X162537573Y-41815132D01*
X162546253Y-41825805D01*
X162554954Y-41835473D01*
X162564620Y-41845209D01*
X162576197Y-41856086D01*
X162584203Y-41863380D01*
X162628122Y-41900367D01*
X162672836Y-41932447D01*
X162718694Y-41959772D01*
X162766041Y-41982496D01*
X162815224Y-42000771D01*
X162866591Y-42014749D01*
X162920488Y-42024585D01*
X162960395Y-42029130D01*
X162975311Y-42030231D01*
X162988478Y-42030644D01*
X163001676Y-42030336D01*
X163016686Y-42029277D01*
X163031197Y-42027867D01*
X163087504Y-42019693D01*
X163141325Y-42007148D01*
X163192824Y-41990152D01*
X163242167Y-41968630D01*
X163289519Y-41942502D01*
X163335047Y-41911691D01*
X163378916Y-41876120D01*
X163404274Y-41852687D01*
X163420384Y-41836300D01*
X163434636Y-41820233D01*
X163446011Y-41805646D01*
X163448288Y-41802366D01*
X163477719Y-41762243D01*
X163511259Y-41722873D01*
X163547942Y-41685237D01*
X163586803Y-41650319D01*
X163626875Y-41619101D01*
X163632050Y-41615417D01*
X163642529Y-41606975D01*
X163655249Y-41594983D01*
X163669603Y-41580103D01*
X163684986Y-41562994D01*
X163700793Y-41544316D01*
X163716418Y-41524729D01*
X163722147Y-41517230D01*
X163756893Y-41467530D01*
X163786817Y-41416812D01*
X163812044Y-41364748D01*
X163832696Y-41311007D01*
X163848897Y-41255262D01*
X163860770Y-41197182D01*
X163868439Y-41136440D01*
X163869475Y-41123985D01*
X163870748Y-41081568D01*
X163868436Y-41036610D01*
X163862705Y-40989992D01*
X163853722Y-40942598D01*
X163841653Y-40895311D01*
X163826664Y-40849014D01*
X163809664Y-40806278D01*
X163794044Y-40773582D01*
X163775652Y-40740154D01*
X163755044Y-40706757D01*
X163732779Y-40674156D01*
X163709414Y-40643113D01*
X163685506Y-40614393D01*
X163661614Y-40588759D01*
X163638294Y-40566975D01*
X163629808Y-40559953D01*
X163604247Y-40538429D01*
X163578737Y-40514778D01*
X163554934Y-40490586D01*
X163539576Y-40473482D01*
X163502590Y-40426767D01*
X163470403Y-40378464D01*
X163442936Y-40328403D01*
X163420111Y-40276415D01*
X163401848Y-40222329D01*
X163388069Y-40165978D01*
X163382729Y-40136224D01*
X163380684Y-40119233D01*
X163379198Y-40098380D01*
X163378270Y-40074855D01*
X163377899Y-40049844D01*
X163378085Y-40024536D01*
X163378827Y-40000119D01*
X163380125Y-39977781D01*
X163381978Y-39958709D01*
X163382823Y-39952590D01*
X163394215Y-39894764D01*
X163410387Y-39838608D01*
X163431266Y-39784290D01*
X163456780Y-39731973D01*
X163486858Y-39681823D01*
X163521427Y-39634006D01*
X163522163Y-39633075D01*
X163538070Y-39614172D01*
X163556925Y-39593678D01*
X163577471Y-39572849D01*
X163598449Y-39552943D01*
X163618602Y-39535219D01*
X163626452Y-39528780D01*
X163649547Y-39508327D01*
X163673296Y-39483557D01*
X163697219Y-39455108D01*
X163720839Y-39423617D01*
X163743676Y-39389720D01*
X163765253Y-39354054D01*
X163784305Y-39318800D01*
X163806671Y-39271306D01*
X163825422Y-39223556D01*
X163840772Y-39174754D01*
X163852935Y-39124102D01*
X163862124Y-39070804D01*
X163868554Y-39014061D01*
X163869659Y-39000525D01*
X163870990Y-38977692D01*
X163871199Y-38957087D01*
X163870285Y-38935984D01*
X163869610Y-38926865D01*
X163863819Y-38871341D01*
X163855631Y-38819507D01*
X163844816Y-38770457D01*
X163831145Y-38723285D01*
X163814388Y-38677087D01*
X163794518Y-38631394D01*
X163782301Y-38606892D01*
X163768394Y-38581638D01*
X163753246Y-38556271D01*
X163737303Y-38531430D01*
X163721011Y-38507754D01*
X163704817Y-38485884D01*
X163689169Y-38466458D01*
X163674512Y-38450116D01*
X163661294Y-38437499D01*
X163656198Y-38433403D01*
X163646172Y-38425229D01*
X163633612Y-38413974D01*
X163619286Y-38400418D01*
X163603962Y-38385343D01*
X163588406Y-38369527D01*
X163573386Y-38353752D01*
X163559669Y-38338799D01*
X163548023Y-38325447D01*
X163539215Y-38314478D01*
X163538998Y-38314188D01*
X163506432Y-38266510D01*
X163478542Y-38217216D01*
X163455372Y-38166514D01*
X163436967Y-38114612D01*
X163423372Y-38061721D01*
X163414633Y-38008048D01*
X163410793Y-37953803D01*
X163411899Y-37899194D01*
X163417994Y-37844431D01*
X163427556Y-37796130D01*
X163442852Y-37742865D01*
X163462672Y-37691547D01*
X163486767Y-37642411D01*
X163514887Y-37595689D01*
X163546783Y-37551615D01*
X163582206Y-37510423D01*
X163620907Y-37472347D01*
X163662636Y-37437621D01*
X163707145Y-37406478D01*
X163754184Y-37379152D01*
X163803504Y-37355876D01*
X163854856Y-37336885D01*
X163907990Y-37322412D01*
X163939221Y-37316232D01*
X163993080Y-37309564D01*
X164047074Y-37307856D01*
X164100883Y-37311005D01*
G36*
X166200802Y-41751021D02*
G01*
X166216533Y-41751188D01*
X166229080Y-41751567D01*
X166239391Y-41752220D01*
X166248415Y-41753210D01*
X166257099Y-41754601D01*
X166266390Y-41756454D01*
X166267869Y-41756771D01*
X166310205Y-41768055D01*
X166351520Y-41783315D01*
X166390741Y-41802088D01*
X166426795Y-41823912D01*
X166432400Y-41827797D01*
X166447778Y-41839628D01*
X166464916Y-41854410D01*
X166482680Y-41871034D01*
X166499939Y-41888390D01*
X166515557Y-41905369D01*
X166528403Y-41920862D01*
X166531050Y-41924375D01*
X166556559Y-41963286D01*
X166577602Y-42004355D01*
X166594107Y-42047191D01*
X166606001Y-42091402D01*
X166613213Y-42136595D01*
X166615670Y-42182380D01*
X166613300Y-42228365D01*
X166606030Y-42274157D01*
X166600077Y-42298536D01*
X166585510Y-42342150D01*
X166566538Y-42383534D01*
X166543438Y-42422430D01*
X166516488Y-42458578D01*
X166485964Y-42491719D01*
X166452145Y-42521595D01*
X166415307Y-42547946D01*
X166375729Y-42570513D01*
X166333686Y-42589036D01*
X166289457Y-42603258D01*
X166268570Y-42608259D01*
X166254030Y-42610647D01*
X166235691Y-42612554D01*
X166214812Y-42613946D01*
X166192654Y-42614792D01*
X166170476Y-42615058D01*
X166149541Y-42614711D01*
X166131106Y-42613718D01*
X166117440Y-42612205D01*
X166071419Y-42602599D01*
X166027014Y-42588188D01*
X165984175Y-42568952D01*
X165942854Y-42544872D01*
X165939729Y-42542813D01*
X165920637Y-42528848D01*
X165900131Y-42511620D01*
X165879359Y-42492252D01*
X165859473Y-42471867D01*
X165841621Y-42451587D01*
X165827208Y-42432900D01*
X165803269Y-42394704D01*
X165783389Y-42353960D01*
X165767739Y-42311276D01*
X165756489Y-42267262D01*
X165749807Y-42222529D01*
X165747865Y-42177687D01*
X165748984Y-42151758D01*
X165753845Y-42110273D01*
X165762107Y-42071388D01*
X165774164Y-42033683D01*
X165790411Y-41995737D01*
X165794791Y-41986809D01*
X165817821Y-41946436D01*
X165844738Y-41909217D01*
X165875317Y-41875325D01*
X165909332Y-41844932D01*
X165946559Y-41818209D01*
X165986770Y-41795330D01*
X166029742Y-41776467D01*
X166075249Y-41761791D01*
X166095850Y-41756743D01*
X166104819Y-41754874D01*
X166113309Y-41753458D01*
X166122247Y-41752435D01*
X166132559Y-41751740D01*
X166145173Y-41751311D01*
X166161015Y-41751086D01*
X166180940Y-41751002D01*
X166200802Y-41751021D01*
G37*
X166200802Y-41751021D02*
X166216533Y-41751188D01*
X166229080Y-41751567D01*
X166239391Y-41752220D01*
X166248415Y-41753210D01*
X166257099Y-41754601D01*
X166266390Y-41756454D01*
X166267869Y-41756771D01*
X166310205Y-41768055D01*
X166351520Y-41783315D01*
X166390741Y-41802088D01*
X166426795Y-41823912D01*
X166432400Y-41827797D01*
X166447778Y-41839628D01*
X166464916Y-41854410D01*
X166482680Y-41871034D01*
X166499939Y-41888390D01*
X166515557Y-41905369D01*
X166528403Y-41920862D01*
X166531050Y-41924375D01*
X166556559Y-41963286D01*
X166577602Y-42004355D01*
X166594107Y-42047191D01*
X166606001Y-42091402D01*
X166613213Y-42136595D01*
X166615670Y-42182380D01*
X166613300Y-42228365D01*
X166606030Y-42274157D01*
X166600077Y-42298536D01*
X166585510Y-42342150D01*
X166566538Y-42383534D01*
X166543438Y-42422430D01*
X166516488Y-42458578D01*
X166485964Y-42491719D01*
X166452145Y-42521595D01*
X166415307Y-42547946D01*
X166375729Y-42570513D01*
X166333686Y-42589036D01*
X166289457Y-42603258D01*
X166268570Y-42608259D01*
X166254030Y-42610647D01*
X166235691Y-42612554D01*
X166214812Y-42613946D01*
X166192654Y-42614792D01*
X166170476Y-42615058D01*
X166149541Y-42614711D01*
X166131106Y-42613718D01*
X166117440Y-42612205D01*
X166071419Y-42602599D01*
X166027014Y-42588188D01*
X165984175Y-42568952D01*
X165942854Y-42544872D01*
X165939729Y-42542813D01*
X165920637Y-42528848D01*
X165900131Y-42511620D01*
X165879359Y-42492252D01*
X165859473Y-42471867D01*
X165841621Y-42451587D01*
X165827208Y-42432900D01*
X165803269Y-42394704D01*
X165783389Y-42353960D01*
X165767739Y-42311276D01*
X165756489Y-42267262D01*
X165749807Y-42222529D01*
X165747865Y-42177687D01*
X165748984Y-42151758D01*
X165753845Y-42110273D01*
X165762107Y-42071388D01*
X165774164Y-42033683D01*
X165790411Y-41995737D01*
X165794791Y-41986809D01*
X165817821Y-41946436D01*
X165844738Y-41909217D01*
X165875317Y-41875325D01*
X165909332Y-41844932D01*
X165946559Y-41818209D01*
X165986770Y-41795330D01*
X166029742Y-41776467D01*
X166075249Y-41761791D01*
X166095850Y-41756743D01*
X166104819Y-41754874D01*
X166113309Y-41753458D01*
X166122247Y-41752435D01*
X166132559Y-41751740D01*
X166145173Y-41751311D01*
X166161015Y-41751086D01*
X166180940Y-41751002D01*
X166200802Y-41751021D01*
G36*
X166204493Y-37506797D02*
G01*
X166220101Y-37507000D01*
X166232520Y-37507419D01*
X166242693Y-37508118D01*
X166251567Y-37509161D01*
X166260085Y-37510610D01*
X166268570Y-37512392D01*
X166315055Y-37525025D01*
X166358423Y-37541582D01*
X166398974Y-37562232D01*
X166437011Y-37587141D01*
X166472834Y-37616479D01*
X166496048Y-37639008D01*
X166516831Y-37661645D01*
X166534310Y-37683393D01*
X166549613Y-37705844D01*
X166563869Y-37730590D01*
X166571598Y-37745606D01*
X166590295Y-37788677D01*
X166604086Y-37832630D01*
X166613004Y-37877164D01*
X166617082Y-37921973D01*
X166616352Y-37966755D01*
X166610850Y-38011206D01*
X166600606Y-38055022D01*
X166585655Y-38097900D01*
X166566030Y-38139536D01*
X166541763Y-38179627D01*
X166521153Y-38207722D01*
X166514777Y-38215200D01*
X166505766Y-38225007D01*
X166495198Y-38236006D01*
X166484149Y-38247059D01*
X166481227Y-38249900D01*
X166446435Y-38280009D01*
X166408558Y-38306190D01*
X166367948Y-38328257D01*
X166324957Y-38346023D01*
X166279935Y-38359304D01*
X166270503Y-38361452D01*
X166259892Y-38363505D01*
X166248938Y-38365046D01*
X166236579Y-38366162D01*
X166221751Y-38366937D01*
X166203389Y-38367457D01*
X166193640Y-38367631D01*
X166177387Y-38367824D01*
X166162438Y-38367889D01*
X166149696Y-38367830D01*
X166140066Y-38367654D01*
X166134452Y-38367364D01*
X166133950Y-38367302D01*
X166095098Y-38360155D01*
X166059376Y-38350646D01*
X166025191Y-38338285D01*
X165994250Y-38324230D01*
X165967861Y-38310172D01*
X165943989Y-38295207D01*
X165921341Y-38278392D01*
X165898622Y-38258781D01*
X165879766Y-38240685D01*
X165847936Y-38205680D01*
X165820737Y-38168644D01*
X165798076Y-38129406D01*
X165779856Y-38087796D01*
X165765984Y-38043644D01*
X165762929Y-38031080D01*
X165755221Y-37986149D01*
X165752447Y-37940919D01*
X165754511Y-37895794D01*
X165761314Y-37851181D01*
X165772760Y-37807482D01*
X165788753Y-37765104D01*
X165809194Y-37724451D01*
X165833988Y-37685927D01*
X165850874Y-37664050D01*
X165883045Y-37628874D01*
X165918084Y-37597891D01*
X165955982Y-37571105D01*
X165996734Y-37548521D01*
X166040329Y-37530144D01*
X166086761Y-37515979D01*
X166097120Y-37513483D01*
X166107005Y-37511286D01*
X166115666Y-37509625D01*
X166124073Y-37508426D01*
X166133196Y-37507615D01*
X166144005Y-37507116D01*
X166157470Y-37506855D01*
X166174560Y-37506758D01*
X166184750Y-37506747D01*
X166204493Y-37506797D01*
G37*
X166204493Y-37506797D02*
X166220101Y-37507000D01*
X166232520Y-37507419D01*
X166242693Y-37508118D01*
X166251567Y-37509161D01*
X166260085Y-37510610D01*
X166268570Y-37512392D01*
X166315055Y-37525025D01*
X166358423Y-37541582D01*
X166398974Y-37562232D01*
X166437011Y-37587141D01*
X166472834Y-37616479D01*
X166496048Y-37639008D01*
X166516831Y-37661645D01*
X166534310Y-37683393D01*
X166549613Y-37705844D01*
X166563869Y-37730590D01*
X166571598Y-37745606D01*
X166590295Y-37788677D01*
X166604086Y-37832630D01*
X166613004Y-37877164D01*
X166617082Y-37921973D01*
X166616352Y-37966755D01*
X166610850Y-38011206D01*
X166600606Y-38055022D01*
X166585655Y-38097900D01*
X166566030Y-38139536D01*
X166541763Y-38179627D01*
X166521153Y-38207722D01*
X166514777Y-38215200D01*
X166505766Y-38225007D01*
X166495198Y-38236006D01*
X166484149Y-38247059D01*
X166481227Y-38249900D01*
X166446435Y-38280009D01*
X166408558Y-38306190D01*
X166367948Y-38328257D01*
X166324957Y-38346023D01*
X166279935Y-38359304D01*
X166270503Y-38361452D01*
X166259892Y-38363505D01*
X166248938Y-38365046D01*
X166236579Y-38366162D01*
X166221751Y-38366937D01*
X166203389Y-38367457D01*
X166193640Y-38367631D01*
X166177387Y-38367824D01*
X166162438Y-38367889D01*
X166149696Y-38367830D01*
X166140066Y-38367654D01*
X166134452Y-38367364D01*
X166133950Y-38367302D01*
X166095098Y-38360155D01*
X166059376Y-38350646D01*
X166025191Y-38338285D01*
X165994250Y-38324230D01*
X165967861Y-38310172D01*
X165943989Y-38295207D01*
X165921341Y-38278392D01*
X165898622Y-38258781D01*
X165879766Y-38240685D01*
X165847936Y-38205680D01*
X165820737Y-38168644D01*
X165798076Y-38129406D01*
X165779856Y-38087796D01*
X165765984Y-38043644D01*
X165762929Y-38031080D01*
X165755221Y-37986149D01*
X165752447Y-37940919D01*
X165754511Y-37895794D01*
X165761314Y-37851181D01*
X165772760Y-37807482D01*
X165788753Y-37765104D01*
X165809194Y-37724451D01*
X165833988Y-37685927D01*
X165850874Y-37664050D01*
X165883045Y-37628874D01*
X165918084Y-37597891D01*
X165955982Y-37571105D01*
X165996734Y-37548521D01*
X166040329Y-37530144D01*
X166086761Y-37515979D01*
X166097120Y-37513483D01*
X166107005Y-37511286D01*
X166115666Y-37509625D01*
X166124073Y-37508426D01*
X166133196Y-37507615D01*
X166144005Y-37507116D01*
X166157470Y-37506855D01*
X166174560Y-37506758D01*
X166184750Y-37506747D01*
X166204493Y-37506797D01*
G36*
X157669610Y-39583471D02*
G01*
X157692728Y-39584295D01*
X157715027Y-39585763D01*
X157735102Y-39587825D01*
X157751550Y-39590430D01*
X157751802Y-39590481D01*
X157787199Y-39599307D01*
X157823194Y-39611283D01*
X157858386Y-39625829D01*
X157891374Y-39642366D01*
X157920757Y-39660314D01*
X157920860Y-39660384D01*
X157959181Y-39689424D01*
X157994209Y-39721954D01*
X158025610Y-39757579D01*
X158053053Y-39795905D01*
X158076206Y-39836536D01*
X158085461Y-39856203D01*
X158103005Y-39902147D01*
X158115629Y-39948852D01*
X158123337Y-39996029D01*
X158126131Y-40043392D01*
X158124015Y-40090653D01*
X158116993Y-40137524D01*
X158105067Y-40183717D01*
X158088241Y-40228944D01*
X158081028Y-40244844D01*
X158058260Y-40286930D01*
X158031635Y-40325932D01*
X158001462Y-40361672D01*
X157968052Y-40393970D01*
X157931715Y-40422647D01*
X157892761Y-40447522D01*
X157851501Y-40468417D01*
X157808246Y-40485152D01*
X157763305Y-40497547D01*
X157716989Y-40505423D01*
X157669609Y-40508602D01*
X157627046Y-40507352D01*
X157579484Y-40501285D01*
X157533127Y-40490384D01*
X157488329Y-40474813D01*
X157445441Y-40454738D01*
X157404816Y-40430324D01*
X157366806Y-40401735D01*
X157331763Y-40369137D01*
X157331431Y-40368794D01*
X157299372Y-40332053D01*
X157271567Y-40292736D01*
X157248135Y-40251149D01*
X157229191Y-40207595D01*
X157214853Y-40162381D01*
X157205237Y-40115811D01*
X157200460Y-40068191D01*
X157200328Y-40026250D01*
X157204770Y-39978459D01*
X157213901Y-39932186D01*
X157227489Y-39887681D01*
X157245304Y-39845193D01*
X157267114Y-39804969D01*
X157292689Y-39767258D01*
X157321799Y-39732310D01*
X157354212Y-39700373D01*
X157389698Y-39671695D01*
X157428025Y-39646525D01*
X157468964Y-39625113D01*
X157512284Y-39607706D01*
X157557753Y-39594554D01*
X157605141Y-39585904D01*
X157609378Y-39585369D01*
X157626532Y-39583958D01*
X157647077Y-39583342D01*
X157669610Y-39583471D01*
G37*
X157669610Y-39583471D02*
X157692728Y-39584295D01*
X157715027Y-39585763D01*
X157735102Y-39587825D01*
X157751550Y-39590430D01*
X157751802Y-39590481D01*
X157787199Y-39599307D01*
X157823194Y-39611283D01*
X157858386Y-39625829D01*
X157891374Y-39642366D01*
X157920757Y-39660314D01*
X157920860Y-39660384D01*
X157959181Y-39689424D01*
X157994209Y-39721954D01*
X158025610Y-39757579D01*
X158053053Y-39795905D01*
X158076206Y-39836536D01*
X158085461Y-39856203D01*
X158103005Y-39902147D01*
X158115629Y-39948852D01*
X158123337Y-39996029D01*
X158126131Y-40043392D01*
X158124015Y-40090653D01*
X158116993Y-40137524D01*
X158105067Y-40183717D01*
X158088241Y-40228944D01*
X158081028Y-40244844D01*
X158058260Y-40286930D01*
X158031635Y-40325932D01*
X158001462Y-40361672D01*
X157968052Y-40393970D01*
X157931715Y-40422647D01*
X157892761Y-40447522D01*
X157851501Y-40468417D01*
X157808246Y-40485152D01*
X157763305Y-40497547D01*
X157716989Y-40505423D01*
X157669609Y-40508602D01*
X157627046Y-40507352D01*
X157579484Y-40501285D01*
X157533127Y-40490384D01*
X157488329Y-40474813D01*
X157445441Y-40454738D01*
X157404816Y-40430324D01*
X157366806Y-40401735D01*
X157331763Y-40369137D01*
X157331431Y-40368794D01*
X157299372Y-40332053D01*
X157271567Y-40292736D01*
X157248135Y-40251149D01*
X157229191Y-40207595D01*
X157214853Y-40162381D01*
X157205237Y-40115811D01*
X157200460Y-40068191D01*
X157200328Y-40026250D01*
X157204770Y-39978459D01*
X157213901Y-39932186D01*
X157227489Y-39887681D01*
X157245304Y-39845193D01*
X157267114Y-39804969D01*
X157292689Y-39767258D01*
X157321799Y-39732310D01*
X157354212Y-39700373D01*
X157389698Y-39671695D01*
X157428025Y-39646525D01*
X157468964Y-39625113D01*
X157512284Y-39607706D01*
X157557753Y-39594554D01*
X157605141Y-39585904D01*
X157609378Y-39585369D01*
X157626532Y-39583958D01*
X157647077Y-39583342D01*
X157669610Y-39583471D01*
G36*
X164074640Y-43775298D02*
G01*
X164125281Y-43780636D01*
X164174845Y-43790687D01*
X164223044Y-43805280D01*
X164269593Y-43824244D01*
X164314203Y-43847408D01*
X164356588Y-43874600D01*
X164396461Y-43905651D01*
X164433535Y-43940389D01*
X164467523Y-43978642D01*
X164498137Y-44020241D01*
X164525092Y-44065013D01*
X164531847Y-44077904D01*
X164553134Y-44125263D01*
X164569830Y-44174528D01*
X164582031Y-44225996D01*
X164584949Y-44242650D01*
X164587472Y-44263613D01*
X164589019Y-44288079D01*
X164589600Y-44314565D01*
X164589226Y-44341592D01*
X164587908Y-44367679D01*
X164585655Y-44391343D01*
X164583813Y-44404036D01*
X164572568Y-44455455D01*
X164556799Y-44504911D01*
X164536737Y-44552176D01*
X164512610Y-44597025D01*
X164484649Y-44639231D01*
X164453084Y-44678568D01*
X164418145Y-44714809D01*
X164380062Y-44747729D01*
X164339066Y-44777101D01*
X164295385Y-44802698D01*
X164249251Y-44824295D01*
X164200894Y-44841664D01*
X164150542Y-44854580D01*
X164120380Y-44859962D01*
X164102321Y-44862098D01*
X164081099Y-44863685D01*
X164058304Y-44864679D01*
X164035524Y-44865036D01*
X164014346Y-44864714D01*
X163996359Y-44863668D01*
X163994000Y-44863442D01*
X163942271Y-44855651D01*
X163891894Y-44843022D01*
X163843121Y-44825676D01*
X163796206Y-44803733D01*
X163751400Y-44777316D01*
X163708957Y-44746545D01*
X163669128Y-44711542D01*
X163661225Y-44703770D01*
X163626598Y-44666182D01*
X163596553Y-44627270D01*
X163570631Y-44586336D01*
X163548373Y-44542678D01*
X163535476Y-44512056D01*
X163519007Y-44462957D01*
X163507486Y-44413175D01*
X163500875Y-44362987D01*
X163499133Y-44312675D01*
X163502220Y-44262516D01*
X163510098Y-44212789D01*
X163522727Y-44163774D01*
X163540066Y-44115749D01*
X163562078Y-44068994D01*
X163588721Y-44023787D01*
X163608775Y-43995000D01*
X163620338Y-43980536D01*
X163634931Y-43963991D01*
X163651555Y-43946368D01*
X163669206Y-43928669D01*
X163686882Y-43911895D01*
X163703582Y-43897049D01*
X163718303Y-43885132D01*
X163719680Y-43884101D01*
X163764503Y-43853778D01*
X163810598Y-43828369D01*
X163858001Y-43807862D01*
X163906746Y-43792244D01*
X163956869Y-43781503D01*
X164008405Y-43775625D01*
X164023210Y-43774844D01*
X164074640Y-43775298D01*
G37*
X164074640Y-43775298D02*
X164125281Y-43780636D01*
X164174845Y-43790687D01*
X164223044Y-43805280D01*
X164269593Y-43824244D01*
X164314203Y-43847408D01*
X164356588Y-43874600D01*
X164396461Y-43905651D01*
X164433535Y-43940389D01*
X164467523Y-43978642D01*
X164498137Y-44020241D01*
X164525092Y-44065013D01*
X164531847Y-44077904D01*
X164553134Y-44125263D01*
X164569830Y-44174528D01*
X164582031Y-44225996D01*
X164584949Y-44242650D01*
X164587472Y-44263613D01*
X164589019Y-44288079D01*
X164589600Y-44314565D01*
X164589226Y-44341592D01*
X164587908Y-44367679D01*
X164585655Y-44391343D01*
X164583813Y-44404036D01*
X164572568Y-44455455D01*
X164556799Y-44504911D01*
X164536737Y-44552176D01*
X164512610Y-44597025D01*
X164484649Y-44639231D01*
X164453084Y-44678568D01*
X164418145Y-44714809D01*
X164380062Y-44747729D01*
X164339066Y-44777101D01*
X164295385Y-44802698D01*
X164249251Y-44824295D01*
X164200894Y-44841664D01*
X164150542Y-44854580D01*
X164120380Y-44859962D01*
X164102321Y-44862098D01*
X164081099Y-44863685D01*
X164058304Y-44864679D01*
X164035524Y-44865036D01*
X164014346Y-44864714D01*
X163996359Y-44863668D01*
X163994000Y-44863442D01*
X163942271Y-44855651D01*
X163891894Y-44843022D01*
X163843121Y-44825676D01*
X163796206Y-44803733D01*
X163751400Y-44777316D01*
X163708957Y-44746545D01*
X163669128Y-44711542D01*
X163661225Y-44703770D01*
X163626598Y-44666182D01*
X163596553Y-44627270D01*
X163570631Y-44586336D01*
X163548373Y-44542678D01*
X163535476Y-44512056D01*
X163519007Y-44462957D01*
X163507486Y-44413175D01*
X163500875Y-44362987D01*
X163499133Y-44312675D01*
X163502220Y-44262516D01*
X163510098Y-44212789D01*
X163522727Y-44163774D01*
X163540066Y-44115749D01*
X163562078Y-44068994D01*
X163588721Y-44023787D01*
X163608775Y-43995000D01*
X163620338Y-43980536D01*
X163634931Y-43963991D01*
X163651555Y-43946368D01*
X163669206Y-43928669D01*
X163686882Y-43911895D01*
X163703582Y-43897049D01*
X163718303Y-43885132D01*
X163719680Y-43884101D01*
X163764503Y-43853778D01*
X163810598Y-43828369D01*
X163858001Y-43807862D01*
X163906746Y-43792244D01*
X163956869Y-43781503D01*
X164008405Y-43775625D01*
X164023210Y-43774844D01*
X164074640Y-43775298D01*
G36*
X161978863Y-33224426D02*
G01*
X161999325Y-33226411D01*
X162048327Y-33235239D01*
X162094859Y-33248498D01*
X162139023Y-33266238D01*
X162180923Y-33288509D01*
X162220662Y-33315363D01*
X162258344Y-33346850D01*
X162272659Y-33360550D01*
X162284419Y-33372026D01*
X162294879Y-33381626D01*
X162304835Y-33389862D01*
X162315087Y-33397248D01*
X162326430Y-33404300D01*
X162339663Y-33411532D01*
X162355583Y-33419457D01*
X162374989Y-33428591D01*
X162386180Y-33433740D01*
X162455152Y-33463390D01*
X162524441Y-33489217D01*
X162594738Y-33511407D01*
X162666737Y-33530146D01*
X162741128Y-33545618D01*
X162818603Y-33558010D01*
X162875130Y-33564961D01*
X162889494Y-33566180D01*
X162908056Y-33567223D01*
X162930025Y-33568086D01*
X162954607Y-33568765D01*
X162981012Y-33569256D01*
X163008445Y-33569556D01*
X163036116Y-33569660D01*
X163063232Y-33569565D01*
X163089001Y-33569267D01*
X163112630Y-33568763D01*
X163133327Y-33568048D01*
X163150301Y-33567118D01*
X163159610Y-33566331D01*
X163229472Y-33557998D01*
X163295373Y-33547870D01*
X163358178Y-33535739D01*
X163418752Y-33521394D01*
X163477961Y-33504625D01*
X163536670Y-33485221D01*
X163595745Y-33462972D01*
X163611730Y-33456508D01*
X163624645Y-33450952D01*
X163640525Y-33443705D01*
X163658669Y-33435125D01*
X163678376Y-33425565D01*
X163698948Y-33415382D01*
X163719683Y-33404931D01*
X163739881Y-33394567D01*
X163758842Y-33384646D01*
X163775867Y-33375523D01*
X163790254Y-33367553D01*
X163801305Y-33361093D01*
X163807310Y-33357223D01*
X163842384Y-33335606D01*
X163880526Y-33317528D01*
X163920977Y-33303187D01*
X163962978Y-33292779D01*
X164005773Y-33286502D01*
X164048601Y-33284553D01*
X164080905Y-33286105D01*
X164127696Y-33292571D01*
X164171703Y-33303253D01*
X164213075Y-33318219D01*
X164251959Y-33337536D01*
X164288504Y-33361272D01*
X164322857Y-33389495D01*
X164337025Y-33403059D01*
X164367275Y-33436841D01*
X164393273Y-33473310D01*
X164414924Y-33512233D01*
X164432135Y-33553380D01*
X164444812Y-33596519D01*
X164452861Y-33641420D01*
X164456189Y-33687850D01*
X164456280Y-33697008D01*
X164453882Y-33742783D01*
X164446823Y-33787130D01*
X164435299Y-33829771D01*
X164419509Y-33870425D01*
X164399650Y-33908814D01*
X164375919Y-33944659D01*
X164348515Y-33977681D01*
X164317636Y-34007600D01*
X164283478Y-34034138D01*
X164246241Y-34057015D01*
X164206121Y-34075953D01*
X164181233Y-34085147D01*
X164161511Y-34091449D01*
X164144013Y-34096322D01*
X164127562Y-34099941D01*
X164110978Y-34102476D01*
X164093087Y-34104101D01*
X164072709Y-34104988D01*
X164048667Y-34105309D01*
X164043530Y-34105320D01*
X164023776Y-34105283D01*
X164008148Y-34105089D01*
X163995691Y-34104676D01*
X163985450Y-34103979D01*
X163976472Y-34102934D01*
X163967802Y-34101479D01*
X163959077Y-34099678D01*
X163924671Y-34090659D01*
X163890781Y-34078927D01*
X163858546Y-34064972D01*
X163829108Y-34049286D01*
X163804770Y-34033227D01*
X163792423Y-34024266D01*
X163780795Y-34016305D01*
X163768907Y-34008758D01*
X163755783Y-34001038D01*
X163740445Y-33992556D01*
X163721914Y-33982727D01*
X163712804Y-33977982D01*
X163653150Y-33948788D01*
X163592937Y-33922897D01*
X163531618Y-33900158D01*
X163468647Y-33880420D01*
X163403478Y-33863533D01*
X163335564Y-33849346D01*
X163264360Y-33837708D01*
X163189319Y-33828469D01*
X163160880Y-33825665D01*
X163142632Y-33824301D01*
X163120544Y-33823175D01*
X163095518Y-33822291D01*
X163068454Y-33821653D01*
X163040255Y-33821267D01*
X163011822Y-33821137D01*
X162984055Y-33821267D01*
X162957857Y-33821662D01*
X162934129Y-33822327D01*
X162913772Y-33823266D01*
X162899260Y-33824333D01*
X162838863Y-33830600D01*
X162782722Y-33837788D01*
X162730072Y-33846050D01*
X162680148Y-33855538D01*
X162632183Y-33866406D01*
X162585413Y-33878805D01*
X162539072Y-33892889D01*
X162514662Y-33901007D01*
X162481980Y-33912578D01*
X162451703Y-33924197D01*
X162422128Y-33936572D01*
X162391547Y-33950414D01*
X162362050Y-33964569D01*
X162311250Y-33989476D01*
X162293173Y-34009778D01*
X162258355Y-34045170D01*
X162220737Y-34076361D01*
X162180516Y-34103250D01*
X162137886Y-34125740D01*
X162093046Y-34143731D01*
X162046192Y-34157122D01*
X161997519Y-34165816D01*
X161981050Y-34167641D01*
X161960662Y-34169209D01*
X161941699Y-34169811D01*
X161922205Y-34169444D01*
X161900225Y-34168107D01*
X161893420Y-34167564D01*
X161845980Y-34161112D01*
X161799705Y-34149855D01*
X161754950Y-34134003D01*
X161712072Y-34113767D01*
X161671426Y-34089356D01*
X161633367Y-34060982D01*
X161598253Y-34028853D01*
X161566439Y-33993181D01*
X161542153Y-33960074D01*
X161517561Y-33918725D01*
X161497623Y-33875371D01*
X161482363Y-33830101D01*
X161471804Y-33782999D01*
X161465972Y-33734151D01*
X161464889Y-33683645D01*
X161464952Y-33681330D01*
X161466517Y-33649987D01*
X161469416Y-33621989D01*
X161473925Y-33595711D01*
X161480321Y-33569527D01*
X161488446Y-33543112D01*
X161506205Y-33497615D01*
X161528147Y-33454826D01*
X161554030Y-33414954D01*
X161583614Y-33378209D01*
X161616656Y-33344801D01*
X161652918Y-33314938D01*
X161692156Y-33288831D01*
X161734131Y-33266689D01*
X161778600Y-33248722D01*
X161825325Y-33235139D01*
X161848158Y-33230299D01*
X161870985Y-33226946D01*
X161897130Y-33224640D01*
X161924933Y-33223422D01*
X161952731Y-33223337D01*
X161978863Y-33224426D01*
G37*
X161978863Y-33224426D02*
X161999325Y-33226411D01*
X162048327Y-33235239D01*
X162094859Y-33248498D01*
X162139023Y-33266238D01*
X162180923Y-33288509D01*
X162220662Y-33315363D01*
X162258344Y-33346850D01*
X162272659Y-33360550D01*
X162284419Y-33372026D01*
X162294879Y-33381626D01*
X162304835Y-33389862D01*
X162315087Y-33397248D01*
X162326430Y-33404300D01*
X162339663Y-33411532D01*
X162355583Y-33419457D01*
X162374989Y-33428591D01*
X162386180Y-33433740D01*
X162455152Y-33463390D01*
X162524441Y-33489217D01*
X162594738Y-33511407D01*
X162666737Y-33530146D01*
X162741128Y-33545618D01*
X162818603Y-33558010D01*
X162875130Y-33564961D01*
X162889494Y-33566180D01*
X162908056Y-33567223D01*
X162930025Y-33568086D01*
X162954607Y-33568765D01*
X162981012Y-33569256D01*
X163008445Y-33569556D01*
X163036116Y-33569660D01*
X163063232Y-33569565D01*
X163089001Y-33569267D01*
X163112630Y-33568763D01*
X163133327Y-33568048D01*
X163150301Y-33567118D01*
X163159610Y-33566331D01*
X163229472Y-33557998D01*
X163295373Y-33547870D01*
X163358178Y-33535739D01*
X163418752Y-33521394D01*
X163477961Y-33504625D01*
X163536670Y-33485221D01*
X163595745Y-33462972D01*
X163611730Y-33456508D01*
X163624645Y-33450952D01*
X163640525Y-33443705D01*
X163658669Y-33435125D01*
X163678376Y-33425565D01*
X163698948Y-33415382D01*
X163719683Y-33404931D01*
X163739881Y-33394567D01*
X163758842Y-33384646D01*
X163775867Y-33375523D01*
X163790254Y-33367553D01*
X163801305Y-33361093D01*
X163807310Y-33357223D01*
X163842384Y-33335606D01*
X163880526Y-33317528D01*
X163920977Y-33303187D01*
X163962978Y-33292779D01*
X164005773Y-33286502D01*
X164048601Y-33284553D01*
X164080905Y-33286105D01*
X164127696Y-33292571D01*
X164171703Y-33303253D01*
X164213075Y-33318219D01*
X164251959Y-33337536D01*
X164288504Y-33361272D01*
X164322857Y-33389495D01*
X164337025Y-33403059D01*
X164367275Y-33436841D01*
X164393273Y-33473310D01*
X164414924Y-33512233D01*
X164432135Y-33553380D01*
X164444812Y-33596519D01*
X164452861Y-33641420D01*
X164456189Y-33687850D01*
X164456280Y-33697008D01*
X164453882Y-33742783D01*
X164446823Y-33787130D01*
X164435299Y-33829771D01*
X164419509Y-33870425D01*
X164399650Y-33908814D01*
X164375919Y-33944659D01*
X164348515Y-33977681D01*
X164317636Y-34007600D01*
X164283478Y-34034138D01*
X164246241Y-34057015D01*
X164206121Y-34075953D01*
X164181233Y-34085147D01*
X164161511Y-34091449D01*
X164144013Y-34096322D01*
X164127562Y-34099941D01*
X164110978Y-34102476D01*
X164093087Y-34104101D01*
X164072709Y-34104988D01*
X164048667Y-34105309D01*
X164043530Y-34105320D01*
X164023776Y-34105283D01*
X164008148Y-34105089D01*
X163995691Y-34104676D01*
X163985450Y-34103979D01*
X163976472Y-34102934D01*
X163967802Y-34101479D01*
X163959077Y-34099678D01*
X163924671Y-34090659D01*
X163890781Y-34078927D01*
X163858546Y-34064972D01*
X163829108Y-34049286D01*
X163804770Y-34033227D01*
X163792423Y-34024266D01*
X163780795Y-34016305D01*
X163768907Y-34008758D01*
X163755783Y-34001038D01*
X163740445Y-33992556D01*
X163721914Y-33982727D01*
X163712804Y-33977982D01*
X163653150Y-33948788D01*
X163592937Y-33922897D01*
X163531618Y-33900158D01*
X163468647Y-33880420D01*
X163403478Y-33863533D01*
X163335564Y-33849346D01*
X163264360Y-33837708D01*
X163189319Y-33828469D01*
X163160880Y-33825665D01*
X163142632Y-33824301D01*
X163120544Y-33823175D01*
X163095518Y-33822291D01*
X163068454Y-33821653D01*
X163040255Y-33821267D01*
X163011822Y-33821137D01*
X162984055Y-33821267D01*
X162957857Y-33821662D01*
X162934129Y-33822327D01*
X162913772Y-33823266D01*
X162899260Y-33824333D01*
X162838863Y-33830600D01*
X162782722Y-33837788D01*
X162730072Y-33846050D01*
X162680148Y-33855538D01*
X162632183Y-33866406D01*
X162585413Y-33878805D01*
X162539072Y-33892889D01*
X162514662Y-33901007D01*
X162481980Y-33912578D01*
X162451703Y-33924197D01*
X162422128Y-33936572D01*
X162391547Y-33950414D01*
X162362050Y-33964569D01*
X162311250Y-33989476D01*
X162293173Y-34009778D01*
X162258355Y-34045170D01*
X162220737Y-34076361D01*
X162180516Y-34103250D01*
X162137886Y-34125740D01*
X162093046Y-34143731D01*
X162046192Y-34157122D01*
X161997519Y-34165816D01*
X161981050Y-34167641D01*
X161960662Y-34169209D01*
X161941699Y-34169811D01*
X161922205Y-34169444D01*
X161900225Y-34168107D01*
X161893420Y-34167564D01*
X161845980Y-34161112D01*
X161799705Y-34149855D01*
X161754950Y-34134003D01*
X161712072Y-34113767D01*
X161671426Y-34089356D01*
X161633367Y-34060982D01*
X161598253Y-34028853D01*
X161566439Y-33993181D01*
X161542153Y-33960074D01*
X161517561Y-33918725D01*
X161497623Y-33875371D01*
X161482363Y-33830101D01*
X161471804Y-33782999D01*
X161465972Y-33734151D01*
X161464889Y-33683645D01*
X161464952Y-33681330D01*
X161466517Y-33649987D01*
X161469416Y-33621989D01*
X161473925Y-33595711D01*
X161480321Y-33569527D01*
X161488446Y-33543112D01*
X161506205Y-33497615D01*
X161528147Y-33454826D01*
X161554030Y-33414954D01*
X161583614Y-33378209D01*
X161616656Y-33344801D01*
X161652918Y-33314938D01*
X161692156Y-33288831D01*
X161734131Y-33266689D01*
X161778600Y-33248722D01*
X161825325Y-33235139D01*
X161848158Y-33230299D01*
X161870985Y-33226946D01*
X161897130Y-33224640D01*
X161924933Y-33223422D01*
X161952731Y-33223337D01*
X161978863Y-33224426D01*
D12*
%TO.C,J10*%
X160280000Y-92910000D02*
X162940000Y-92910000D01*
X160280000Y-87770000D02*
X160280000Y-92910000D01*
X160280000Y-87770000D02*
X162940000Y-87770000D01*
X162940000Y-87770000D02*
X162940000Y-92910000D01*
X160280000Y-86500000D02*
X160280000Y-85170000D01*
X160280000Y-85170000D02*
X161610000Y-85170000D01*
%TO.C,J7*%
X203328500Y-34738750D02*
X201828500Y-34738750D01*
X193828500Y-34738750D02*
X193828500Y-27478750D01*
X203328500Y-34738750D02*
X203328500Y-27478750D01*
X195328500Y-34738750D02*
X193828500Y-34738750D01*
%TD*%
M02*
