%TF.GenerationSoftware,KiCad,Pcbnew,(6.0.7)*%
%TF.CreationDate,2023-01-05T19:34:40-06:00*%
%TF.ProjectId,OpenRectangle,4f70656e-5265-4637-9461-6e676c652e6b,rev?*%
%TF.SameCoordinates,Original*%
%TF.FileFunction,Soldermask,Bot*%
%TF.FilePolarity,Negative*%
%FSLAX46Y46*%
G04 Gerber Fmt 4.6, Leading zero omitted, Abs format (unit mm)*
G04 Created by KiCad (PCBNEW (6.0.7)) date 2023-01-05 19:34:40*
%MOMM*%
%LPD*%
G01*
G04 APERTURE LIST*
G04 Aperture macros list*
%AMRoundRect*
0 Rectangle with rounded corners*
0 $1 Rounding radius*
0 $2 $3 $4 $5 $6 $7 $8 $9 X,Y pos of 4 corners*
0 Add a 4 corners polygon primitive as box body*
4,1,4,$2,$3,$4,$5,$6,$7,$8,$9,$2,$3,0*
0 Add four circle primitives for the rounded corners*
1,1,$1+$1,$2,$3*
1,1,$1+$1,$4,$5*
1,1,$1+$1,$6,$7*
1,1,$1+$1,$8,$9*
0 Add four rect primitives between the rounded corners*
20,1,$1+$1,$2,$3,$4,$5,0*
20,1,$1+$1,$4,$5,$6,$7,0*
20,1,$1+$1,$6,$7,$8,$9,0*
20,1,$1+$1,$8,$9,$2,$3,0*%
G04 Aperture macros list end*
%ADD10C,0.300000*%
%ADD11C,2.200000*%
%ADD12R,1.700000X1.700000*%
%ADD13O,1.700000X1.700000*%
%ADD14C,2.100000*%
%ADD15C,1.500000*%
%ADD16O,3.327000X1.727000*%
%ADD17O,1.727000X3.327000*%
%ADD18RoundRect,0.063500X-0.400000X-0.400000X0.400000X-0.400000X0.400000X0.400000X-0.400000X0.400000X0*%
%ADD19R,2.200000X2.200000*%
%ADD20O,2.200000X2.200000*%
%ADD21C,0.650000*%
%ADD22O,0.950000X0.650000*%
%ADD23O,0.800000X1.400000*%
%ADD24C,3.987800*%
%ADD25C,1.750000*%
%ADD26RoundRect,0.250000X1.025000X1.000000X-1.025000X1.000000X-1.025000X-1.000000X1.025000X-1.000000X0*%
%ADD27C,3.300000*%
G04 APERTURE END LIST*
D10*
X158026071Y-38831428D02*
X158026071Y-39117142D01*
X158097500Y-39260000D01*
X158240357Y-39402857D01*
X158526071Y-39474285D01*
X159026071Y-39474285D01*
X159311785Y-39402857D01*
X159454642Y-39260000D01*
X159526071Y-39117142D01*
X159526071Y-38831428D01*
X159454642Y-38688571D01*
X159311785Y-38545714D01*
X159026071Y-38474285D01*
X158526071Y-38474285D01*
X158240357Y-38545714D01*
X158097500Y-38688571D01*
X158026071Y-38831428D01*
X158526071Y-40117142D02*
X160026071Y-40117142D01*
X158597500Y-40117142D02*
X158526071Y-40260000D01*
X158526071Y-40545714D01*
X158597500Y-40688571D01*
X158668928Y-40760000D01*
X158811785Y-40831428D01*
X159240357Y-40831428D01*
X159383214Y-40760000D01*
X159454642Y-40688571D01*
X159526071Y-40545714D01*
X159526071Y-40260000D01*
X159454642Y-40117142D01*
X159454642Y-42045714D02*
X159526071Y-41902857D01*
X159526071Y-41617142D01*
X159454642Y-41474285D01*
X159311785Y-41402857D01*
X158740357Y-41402857D01*
X158597500Y-41474285D01*
X158526071Y-41617142D01*
X158526071Y-41902857D01*
X158597500Y-42045714D01*
X158740357Y-42117142D01*
X158883214Y-42117142D01*
X159026071Y-41402857D01*
X158526071Y-42760000D02*
X159526071Y-42760000D01*
X158668928Y-42760000D02*
X158597500Y-42831428D01*
X158526071Y-42974285D01*
X158526071Y-43188571D01*
X158597500Y-43331428D01*
X158740357Y-43402857D01*
X159526071Y-43402857D01*
X159526071Y-44974285D02*
X158811785Y-44474285D01*
X159526071Y-44117142D02*
X158026071Y-44117142D01*
X158026071Y-44688571D01*
X158097500Y-44831428D01*
X158168928Y-44902857D01*
X158311785Y-44974285D01*
X158526071Y-44974285D01*
X158668928Y-44902857D01*
X158740357Y-44831428D01*
X158811785Y-44688571D01*
X158811785Y-44117142D01*
X159454642Y-46188571D02*
X159526071Y-46045714D01*
X159526071Y-45760000D01*
X159454642Y-45617142D01*
X159311785Y-45545714D01*
X158740357Y-45545714D01*
X158597500Y-45617142D01*
X158526071Y-45760000D01*
X158526071Y-46045714D01*
X158597500Y-46188571D01*
X158740357Y-46260000D01*
X158883214Y-46260000D01*
X159026071Y-45545714D01*
X159454642Y-47545714D02*
X159526071Y-47402857D01*
X159526071Y-47117142D01*
X159454642Y-46974285D01*
X159383214Y-46902857D01*
X159240357Y-46831428D01*
X158811785Y-46831428D01*
X158668928Y-46902857D01*
X158597500Y-46974285D01*
X158526071Y-47117142D01*
X158526071Y-47402857D01*
X158597500Y-47545714D01*
X158526071Y-47974285D02*
X158526071Y-48545714D01*
X158026071Y-48188571D02*
X159311785Y-48188571D01*
X159454642Y-48260000D01*
X159526071Y-48402857D01*
X159526071Y-48545714D01*
X159526071Y-49688571D02*
X158740357Y-49688571D01*
X158597500Y-49617142D01*
X158526071Y-49474285D01*
X158526071Y-49188571D01*
X158597500Y-49045714D01*
X159454642Y-49688571D02*
X159526071Y-49545714D01*
X159526071Y-49188571D01*
X159454642Y-49045714D01*
X159311785Y-48974285D01*
X159168928Y-48974285D01*
X159026071Y-49045714D01*
X158954642Y-49188571D01*
X158954642Y-49545714D01*
X158883214Y-49688571D01*
X158526071Y-50402857D02*
X159526071Y-50402857D01*
X158668928Y-50402857D02*
X158597500Y-50474285D01*
X158526071Y-50617142D01*
X158526071Y-50831428D01*
X158597500Y-50974285D01*
X158740357Y-51045714D01*
X159526071Y-51045714D01*
X158526071Y-52402857D02*
X159740357Y-52402857D01*
X159883214Y-52331428D01*
X159954642Y-52260000D01*
X160026071Y-52117142D01*
X160026071Y-51902857D01*
X159954642Y-51760000D01*
X159454642Y-52402857D02*
X159526071Y-52260000D01*
X159526071Y-51974285D01*
X159454642Y-51831428D01*
X159383214Y-51760000D01*
X159240357Y-51688571D01*
X158811785Y-51688571D01*
X158668928Y-51760000D01*
X158597500Y-51831428D01*
X158526071Y-51974285D01*
X158526071Y-52260000D01*
X158597500Y-52402857D01*
X159526071Y-53331428D02*
X159454642Y-53188571D01*
X159311785Y-53117142D01*
X158026071Y-53117142D01*
X159454642Y-54474285D02*
X159526071Y-54331428D01*
X159526071Y-54045714D01*
X159454642Y-53902857D01*
X159311785Y-53831428D01*
X158740357Y-53831428D01*
X158597500Y-53902857D01*
X158526071Y-54045714D01*
X158526071Y-54331428D01*
X158597500Y-54474285D01*
X158740357Y-54545714D01*
X158883214Y-54545714D01*
X159026071Y-53831428D01*
X164356071Y-35581428D02*
X162856071Y-35581428D01*
X162856071Y-35938571D01*
X162927500Y-36152857D01*
X163070357Y-36295714D01*
X163213214Y-36367142D01*
X163498928Y-36438571D01*
X163713214Y-36438571D01*
X163998928Y-36367142D01*
X164141785Y-36295714D01*
X164284642Y-36152857D01*
X164356071Y-35938571D01*
X164356071Y-35581428D01*
X164284642Y-37652857D02*
X164356071Y-37510000D01*
X164356071Y-37224285D01*
X164284642Y-37081428D01*
X164141785Y-37010000D01*
X163570357Y-37010000D01*
X163427500Y-37081428D01*
X163356071Y-37224285D01*
X163356071Y-37510000D01*
X163427500Y-37652857D01*
X163570357Y-37724285D01*
X163713214Y-37724285D01*
X163856071Y-37010000D01*
X163356071Y-38224285D02*
X164356071Y-38581428D01*
X163356071Y-38938571D01*
X164284642Y-40081428D02*
X164356071Y-39938571D01*
X164356071Y-39652857D01*
X164284642Y-39510000D01*
X164141785Y-39438571D01*
X163570357Y-39438571D01*
X163427500Y-39510000D01*
X163356071Y-39652857D01*
X163356071Y-39938571D01*
X163427500Y-40081428D01*
X163570357Y-40152857D01*
X163713214Y-40152857D01*
X163856071Y-39438571D01*
X164356071Y-41010000D02*
X164284642Y-40867142D01*
X164141785Y-40795714D01*
X162856071Y-40795714D01*
X164356071Y-41795714D02*
X164284642Y-41652857D01*
X164213214Y-41581428D01*
X164070357Y-41510000D01*
X163641785Y-41510000D01*
X163498928Y-41581428D01*
X163427500Y-41652857D01*
X163356071Y-41795714D01*
X163356071Y-42010000D01*
X163427500Y-42152857D01*
X163498928Y-42224285D01*
X163641785Y-42295714D01*
X164070357Y-42295714D01*
X164213214Y-42224285D01*
X164284642Y-42152857D01*
X164356071Y-42010000D01*
X164356071Y-41795714D01*
X163356071Y-42938571D02*
X164856071Y-42938571D01*
X163427500Y-42938571D02*
X163356071Y-43081428D01*
X163356071Y-43367142D01*
X163427500Y-43510000D01*
X163498928Y-43581428D01*
X163641785Y-43652857D01*
X164070357Y-43652857D01*
X164213214Y-43581428D01*
X164284642Y-43510000D01*
X164356071Y-43367142D01*
X164356071Y-43081428D01*
X164284642Y-42938571D01*
X164284642Y-44867142D02*
X164356071Y-44724285D01*
X164356071Y-44438571D01*
X164284642Y-44295714D01*
X164141785Y-44224285D01*
X163570357Y-44224285D01*
X163427500Y-44295714D01*
X163356071Y-44438571D01*
X163356071Y-44724285D01*
X163427500Y-44867142D01*
X163570357Y-44938571D01*
X163713214Y-44938571D01*
X163856071Y-44224285D01*
X164356071Y-46224285D02*
X162856071Y-46224285D01*
X164284642Y-46224285D02*
X164356071Y-46081428D01*
X164356071Y-45795714D01*
X164284642Y-45652857D01*
X164213214Y-45581428D01*
X164070357Y-45510000D01*
X163641785Y-45510000D01*
X163498928Y-45581428D01*
X163427500Y-45652857D01*
X163356071Y-45795714D01*
X163356071Y-46081428D01*
X163427500Y-46224285D01*
X164356071Y-48081428D02*
X162856071Y-48081428D01*
X163427500Y-48081428D02*
X163356071Y-48224285D01*
X163356071Y-48510000D01*
X163427500Y-48652857D01*
X163498928Y-48724285D01*
X163641785Y-48795714D01*
X164070357Y-48795714D01*
X164213214Y-48724285D01*
X164284642Y-48652857D01*
X164356071Y-48510000D01*
X164356071Y-48224285D01*
X164284642Y-48081428D01*
X163356071Y-49295714D02*
X164356071Y-49652857D01*
X163356071Y-50010000D02*
X164356071Y-49652857D01*
X164713214Y-49510000D01*
X164784642Y-49438571D01*
X164856071Y-49295714D01*
X164498928Y-52724285D02*
X164427500Y-52581428D01*
X164284642Y-52438571D01*
X164070357Y-52224285D01*
X163998928Y-52081428D01*
X163998928Y-51938571D01*
X164356071Y-52010000D02*
X164284642Y-51867142D01*
X164141785Y-51724285D01*
X163856071Y-51652857D01*
X163356071Y-51652857D01*
X163070357Y-51724285D01*
X162927500Y-51867142D01*
X162856071Y-52010000D01*
X162856071Y-52295714D01*
X162927500Y-52438571D01*
X163070357Y-52581428D01*
X163356071Y-52652857D01*
X163856071Y-52652857D01*
X164141785Y-52581428D01*
X164284642Y-52438571D01*
X164356071Y-52295714D01*
X164356071Y-52010000D01*
X163356071Y-53938571D02*
X164356071Y-53938571D01*
X163356071Y-53295714D02*
X164141785Y-53295714D01*
X164284642Y-53367142D01*
X164356071Y-53510000D01*
X164356071Y-53724285D01*
X164284642Y-53867142D01*
X164213214Y-53938571D01*
X164356071Y-55295714D02*
X163570357Y-55295714D01*
X163427500Y-55224285D01*
X163356071Y-55081428D01*
X163356071Y-54795714D01*
X163427500Y-54652857D01*
X164284642Y-55295714D02*
X164356071Y-55152857D01*
X164356071Y-54795714D01*
X164284642Y-54652857D01*
X164141785Y-54581428D01*
X163998928Y-54581428D01*
X163856071Y-54652857D01*
X163784642Y-54795714D01*
X163784642Y-55152857D01*
X163713214Y-55295714D01*
X164356071Y-56010000D02*
X163356071Y-56010000D01*
X163641785Y-56010000D02*
X163498928Y-56081428D01*
X163427500Y-56152857D01*
X163356071Y-56295714D01*
X163356071Y-56438571D01*
X164356071Y-56938571D02*
X162856071Y-56938571D01*
X163784642Y-57081428D02*
X164356071Y-57510000D01*
X163356071Y-57510000D02*
X163927500Y-56938571D01*
X165771071Y-40902857D02*
X167271071Y-40902857D01*
X166699642Y-40902857D02*
X166771071Y-40760000D01*
X166771071Y-40474285D01*
X166699642Y-40331428D01*
X166628214Y-40260000D01*
X166485357Y-40188571D01*
X166056785Y-40188571D01*
X165913928Y-40260000D01*
X165842500Y-40331428D01*
X165771071Y-40474285D01*
X165771071Y-40760000D01*
X165842500Y-40902857D01*
X165771071Y-42260000D02*
X166771071Y-42260000D01*
X165771071Y-41617142D02*
X166556785Y-41617142D01*
X166699642Y-41688571D01*
X166771071Y-41831428D01*
X166771071Y-42045714D01*
X166699642Y-42188571D01*
X166628214Y-42260000D01*
X166771071Y-43617142D02*
X165985357Y-43617142D01*
X165842500Y-43545714D01*
X165771071Y-43402857D01*
X165771071Y-43117142D01*
X165842500Y-42974285D01*
X166699642Y-43617142D02*
X166771071Y-43474285D01*
X166771071Y-43117142D01*
X166699642Y-42974285D01*
X166556785Y-42902857D01*
X166413928Y-42902857D01*
X166271071Y-42974285D01*
X166199642Y-43117142D01*
X166199642Y-43474285D01*
X166128214Y-43617142D01*
X166771071Y-44331428D02*
X165771071Y-44331428D01*
X166056785Y-44331428D02*
X165913928Y-44402857D01*
X165842500Y-44474285D01*
X165771071Y-44617142D01*
X165771071Y-44760000D01*
X166771071Y-45260000D02*
X165271071Y-45260000D01*
X166199642Y-45402857D02*
X166771071Y-45831428D01*
X165771071Y-45831428D02*
X166342500Y-45260000D01*
X166628214Y-46474285D02*
X166699642Y-46545714D01*
X166771071Y-46474285D01*
X166699642Y-46402857D01*
X166628214Y-46474285D01*
X166771071Y-46474285D01*
X165771071Y-47045714D02*
X166771071Y-47331428D01*
X166056785Y-47617142D01*
X166771071Y-47902857D01*
X165771071Y-48188571D01*
X166771071Y-48974285D02*
X166699642Y-48831428D01*
X166628214Y-48760000D01*
X166485357Y-48688571D01*
X166056785Y-48688571D01*
X165913928Y-48760000D01*
X165842500Y-48831428D01*
X165771071Y-48974285D01*
X165771071Y-49188571D01*
X165842500Y-49331428D01*
X165913928Y-49402857D01*
X166056785Y-49474285D01*
X166485357Y-49474285D01*
X166628214Y-49402857D01*
X166699642Y-49331428D01*
X166771071Y-49188571D01*
X166771071Y-48974285D01*
X166771071Y-50117142D02*
X165771071Y-50117142D01*
X166056785Y-50117142D02*
X165913928Y-50188571D01*
X165842500Y-50260000D01*
X165771071Y-50402857D01*
X165771071Y-50545714D01*
X166771071Y-51045714D02*
X165271071Y-51045714D01*
X166199642Y-51188571D02*
X166771071Y-51617142D01*
X165771071Y-51617142D02*
X166342500Y-51045714D01*
X166699642Y-52188571D02*
X166771071Y-52331428D01*
X166771071Y-52617142D01*
X166699642Y-52760000D01*
X166556785Y-52831428D01*
X166485357Y-52831428D01*
X166342500Y-52760000D01*
X166271071Y-52617142D01*
X166271071Y-52402857D01*
X166199642Y-52260000D01*
X166056785Y-52188571D01*
X165985357Y-52188571D01*
X165842500Y-52260000D01*
X165771071Y-52402857D01*
X165771071Y-52617142D01*
X165842500Y-52760000D01*
D11*
%TO.C,H16*%
X203879700Y-59330000D03*
%TD*%
%TO.C,H15*%
X159240100Y-29196900D03*
%TD*%
%TO.C,H14*%
X194683100Y-124609900D03*
%TD*%
%TO.C,H13*%
X159240000Y-124609900D03*
%TD*%
%TO.C,H12*%
X159240000Y-99450000D03*
%TD*%
D12*
%TO.C,J9*%
X161610000Y-70670000D03*
D13*
X161610000Y-73210000D03*
X161610000Y-75750000D03*
X161610000Y-78290000D03*
X161610000Y-80830000D03*
%TD*%
D14*
%TO.C,J8*%
X182706250Y-66193750D03*
D15*
X174281250Y-65693750D03*
X179431250Y-68723750D03*
D14*
X182706250Y-113193750D03*
D15*
X174581250Y-68723750D03*
D14*
X171306250Y-66193750D03*
D15*
X179731250Y-65693750D03*
D14*
X171306250Y-113193750D03*
D16*
X186696250Y-75723750D03*
X186696250Y-73183750D03*
X186696250Y-78263750D03*
X186696250Y-83343750D03*
X167316250Y-70643750D03*
X167316250Y-83343750D03*
X167316250Y-96043750D03*
X167316250Y-108743750D03*
D17*
X177006250Y-114393750D03*
D16*
X186696250Y-108743750D03*
X186696250Y-96043750D03*
X186696250Y-70643750D03*
X167316250Y-65563750D03*
X167316250Y-68103750D03*
X167316250Y-73183750D03*
X167316250Y-75723750D03*
X167316250Y-78263750D03*
X167316250Y-80803750D03*
X167316250Y-85883750D03*
X167316250Y-88423750D03*
X167316250Y-90963750D03*
X167316250Y-93503750D03*
X167316250Y-98583750D03*
X167316250Y-101123750D03*
X167316250Y-103663750D03*
X167316250Y-106203750D03*
X167316250Y-111283750D03*
X167316250Y-113823750D03*
X186696250Y-113823750D03*
X186696250Y-111283750D03*
X186696250Y-106203750D03*
X186696250Y-103663750D03*
X186696250Y-101123750D03*
X186696250Y-98583750D03*
X186696250Y-93503750D03*
X186696250Y-88423750D03*
X186696250Y-85883750D03*
X186696250Y-80803750D03*
X186696250Y-90963750D03*
D17*
X174466250Y-114393750D03*
X179546250Y-114393750D03*
D18*
X178006250Y-65393750D03*
X176006250Y-65393750D03*
D16*
X186696250Y-65563750D03*
X186696250Y-68103750D03*
%TD*%
D19*
%TO.C,D1*%
X193675000Y-51593750D03*
D20*
X203835000Y-51593750D03*
%TD*%
D12*
%TO.C,J6*%
X180806250Y-53510000D03*
D13*
X178266250Y-53510000D03*
X175726250Y-53510000D03*
X173186250Y-53510000D03*
%TD*%
D12*
%TO.C,J12*%
X192390000Y-110190000D03*
D13*
X192390000Y-107650000D03*
X192390000Y-105110000D03*
X192390000Y-102570000D03*
X192390000Y-100030000D03*
X192390000Y-97490000D03*
X192390000Y-94950000D03*
X192390000Y-92410000D03*
X192390000Y-89870000D03*
%TD*%
D12*
%TO.C,J11*%
X170600000Y-122230000D03*
D13*
X173140000Y-122230000D03*
X175680000Y-122230000D03*
X178220000Y-122230000D03*
X180760000Y-122230000D03*
X183300000Y-122230000D03*
%TD*%
D12*
%TO.C,J5*%
X176212500Y-30162500D03*
D13*
X178752500Y-30162500D03*
X181292500Y-30162500D03*
X183832500Y-30162500D03*
X186372500Y-30162500D03*
X188912500Y-30162500D03*
%TD*%
D12*
%TO.C,J10*%
X161610000Y-86500000D03*
D13*
X161610000Y-89040000D03*
X161610000Y-91580000D03*
%TD*%
D21*
%TO.C,J7*%
X202178500Y-33728750D03*
D22*
X194978500Y-33728750D03*
D21*
X195778500Y-33078750D03*
X196178500Y-32378750D03*
X196978500Y-32378750D03*
X197378500Y-33078750D03*
X197778500Y-32378750D03*
X198178500Y-33078750D03*
X198978500Y-33078750D03*
X199378500Y-32378750D03*
X199778500Y-33078750D03*
X200178500Y-32378750D03*
X200978500Y-32378750D03*
X201378500Y-33078750D03*
D23*
X194088500Y-26528750D03*
X203068500Y-26528750D03*
X202708500Y-32478750D03*
X194448500Y-32478750D03*
%TD*%
D24*
%TO.C,SW5*%
X198578500Y-74326866D03*
D25*
X203658500Y-74326866D03*
X193498500Y-74326866D03*
D26*
X191218500Y-71786866D03*
D27*
X194768500Y-71786866D03*
D26*
X204668500Y-69246866D03*
D27*
X201118500Y-69246866D03*
%TD*%
M02*
