%TF.GenerationSoftware,KiCad,Pcbnew,(6.0.7)*%
%TF.CreationDate,2023-01-05T19:34:40-06:00*%
%TF.ProjectId,OpenRectangle,4f70656e-5265-4637-9461-6e676c652e6b,rev?*%
%TF.SameCoordinates,Original*%
%TF.FileFunction,Legend,Bot*%
%TF.FilePolarity,Positive*%
%FSLAX46Y46*%
G04 Gerber Fmt 4.6, Leading zero omitted, Abs format (unit mm)*
G04 Created by KiCad (PCBNEW (6.0.7)) date 2023-01-05 19:34:40*
%MOMM*%
%LPD*%
G01*
G04 APERTURE LIST*
%ADD10C,0.200000*%
%ADD11C,0.150000*%
G04 APERTURE END LIST*
D10*
X170200000Y-124599523D02*
X170161904Y-124523333D01*
X170161904Y-124409047D01*
X170200000Y-124294761D01*
X170276190Y-124218571D01*
X170352380Y-124180476D01*
X170504761Y-124142380D01*
X170619047Y-124142380D01*
X170771428Y-124180476D01*
X170847619Y-124218571D01*
X170923809Y-124294761D01*
X170961904Y-124409047D01*
X170961904Y-124485238D01*
X170923809Y-124599523D01*
X170885714Y-124637619D01*
X170619047Y-124637619D01*
X170619047Y-124485238D01*
X170961904Y-124980476D02*
X170161904Y-124980476D01*
X170961904Y-125437619D01*
X170161904Y-125437619D01*
X170961904Y-125818571D02*
X170161904Y-125818571D01*
X170161904Y-126009047D01*
X170200000Y-126123333D01*
X170276190Y-126199523D01*
X170352380Y-126237619D01*
X170504761Y-126275714D01*
X170619047Y-126275714D01*
X170771428Y-126237619D01*
X170847619Y-126199523D01*
X170923809Y-126123333D01*
X170961904Y-126009047D01*
X170961904Y-125818571D01*
X173461714Y-124637619D02*
X173499809Y-124599523D01*
X173537904Y-124485238D01*
X173537904Y-124409047D01*
X173499809Y-124294761D01*
X173423619Y-124218571D01*
X173347428Y-124180476D01*
X173195047Y-124142380D01*
X173080761Y-124142380D01*
X172928380Y-124180476D01*
X172852190Y-124218571D01*
X172776000Y-124294761D01*
X172737904Y-124409047D01*
X172737904Y-124485238D01*
X172776000Y-124599523D01*
X172814095Y-124637619D01*
X172737904Y-124980476D02*
X173385523Y-124980476D01*
X173461714Y-125018571D01*
X173499809Y-125056666D01*
X173537904Y-125132857D01*
X173537904Y-125285238D01*
X173499809Y-125361428D01*
X173461714Y-125399523D01*
X173385523Y-125437619D01*
X172737904Y-125437619D01*
X173537904Y-125818571D02*
X172737904Y-125818571D01*
X172737904Y-126123333D01*
X172776000Y-126199523D01*
X172814095Y-126237619D01*
X172890285Y-126275714D01*
X173004571Y-126275714D01*
X173080761Y-126237619D01*
X173118857Y-126199523D01*
X173156952Y-126123333D01*
X173156952Y-125818571D01*
X176037714Y-124637619D02*
X176075809Y-124599523D01*
X176113904Y-124485238D01*
X176113904Y-124409047D01*
X176075809Y-124294761D01*
X175999619Y-124218571D01*
X175923428Y-124180476D01*
X175771047Y-124142380D01*
X175656761Y-124142380D01*
X175504380Y-124180476D01*
X175428190Y-124218571D01*
X175352000Y-124294761D01*
X175313904Y-124409047D01*
X175313904Y-124485238D01*
X175352000Y-124599523D01*
X175390095Y-124637619D01*
X176113904Y-125361428D02*
X176113904Y-124980476D01*
X175313904Y-124980476D01*
X175694857Y-125628095D02*
X175694857Y-125894761D01*
X176113904Y-126009047D02*
X176113904Y-125628095D01*
X175313904Y-125628095D01*
X175313904Y-126009047D01*
X175694857Y-126618571D02*
X175694857Y-126351904D01*
X176113904Y-126351904D02*
X175313904Y-126351904D01*
X175313904Y-126732857D01*
X175313904Y-126923333D02*
X175313904Y-127380476D01*
X176113904Y-127151904D02*
X175313904Y-127151904D01*
X178461333Y-124142380D02*
X178461333Y-124523333D01*
X178689904Y-124066190D02*
X177889904Y-124332857D01*
X178689904Y-124599523D01*
X181189714Y-124637619D02*
X181227809Y-124599523D01*
X181265904Y-124485238D01*
X181265904Y-124409047D01*
X181227809Y-124294761D01*
X181151619Y-124218571D01*
X181075428Y-124180476D01*
X180923047Y-124142380D01*
X180808761Y-124142380D01*
X180656380Y-124180476D01*
X180580190Y-124218571D01*
X180504000Y-124294761D01*
X180465904Y-124409047D01*
X180465904Y-124485238D01*
X180504000Y-124599523D01*
X180542095Y-124637619D01*
X181265904Y-124980476D02*
X180465904Y-124980476D01*
X180465904Y-125170952D01*
X180504000Y-125285238D01*
X180580190Y-125361428D01*
X180656380Y-125399523D01*
X180808761Y-125437619D01*
X180923047Y-125437619D01*
X181075428Y-125399523D01*
X181151619Y-125361428D01*
X181227809Y-125285238D01*
X181265904Y-125170952D01*
X181265904Y-124980476D01*
X180465904Y-125932857D02*
X180465904Y-126085238D01*
X180504000Y-126161428D01*
X180580190Y-126237619D01*
X180732571Y-126275714D01*
X180999238Y-126275714D01*
X181151619Y-126237619D01*
X181227809Y-126161428D01*
X181265904Y-126085238D01*
X181265904Y-125932857D01*
X181227809Y-125856666D01*
X181151619Y-125780476D01*
X180999238Y-125742380D01*
X180732571Y-125742380D01*
X180580190Y-125780476D01*
X180504000Y-125856666D01*
X180465904Y-125932857D01*
X180465904Y-126542380D02*
X181265904Y-126732857D01*
X180694476Y-126885238D01*
X181265904Y-127037619D01*
X180465904Y-127228095D01*
X181265904Y-127532857D02*
X180465904Y-127532857D01*
X181265904Y-127990000D01*
X180465904Y-127990000D01*
X183765714Y-124637619D02*
X183803809Y-124599523D01*
X183841904Y-124485238D01*
X183841904Y-124409047D01*
X183803809Y-124294761D01*
X183727619Y-124218571D01*
X183651428Y-124180476D01*
X183499047Y-124142380D01*
X183384761Y-124142380D01*
X183232380Y-124180476D01*
X183156190Y-124218571D01*
X183080000Y-124294761D01*
X183041904Y-124409047D01*
X183041904Y-124485238D01*
X183080000Y-124599523D01*
X183118095Y-124637619D01*
X183841904Y-125437619D02*
X183460952Y-125170952D01*
X183841904Y-124980476D02*
X183041904Y-124980476D01*
X183041904Y-125285238D01*
X183080000Y-125361428D01*
X183118095Y-125399523D01*
X183194285Y-125437619D01*
X183308571Y-125437619D01*
X183384761Y-125399523D01*
X183422857Y-125361428D01*
X183460952Y-125285238D01*
X183460952Y-124980476D01*
X183841904Y-125780476D02*
X183041904Y-125780476D01*
X183080000Y-126580476D02*
X183041904Y-126504285D01*
X183041904Y-126390000D01*
X183080000Y-126275714D01*
X183156190Y-126199523D01*
X183232380Y-126161428D01*
X183384761Y-126123333D01*
X183499047Y-126123333D01*
X183651428Y-126161428D01*
X183727619Y-126199523D01*
X183803809Y-126275714D01*
X183841904Y-126390000D01*
X183841904Y-126466190D01*
X183803809Y-126580476D01*
X183765714Y-126618571D01*
X183499047Y-126618571D01*
X183499047Y-126466190D01*
X183841904Y-126961428D02*
X183041904Y-126961428D01*
X183422857Y-126961428D02*
X183422857Y-127418571D01*
X183841904Y-127418571D02*
X183041904Y-127418571D01*
X183041904Y-127685238D02*
X183041904Y-128142380D01*
X183841904Y-127913809D02*
X183041904Y-127913809D01*
X158650476Y-86164000D02*
X158726666Y-86125904D01*
X158840952Y-86125904D01*
X158955238Y-86164000D01*
X159031428Y-86240190D01*
X159069523Y-86316380D01*
X159107619Y-86468761D01*
X159107619Y-86583047D01*
X159069523Y-86735428D01*
X159031428Y-86811619D01*
X158955238Y-86887809D01*
X158840952Y-86925904D01*
X158764761Y-86925904D01*
X158650476Y-86887809D01*
X158612380Y-86849714D01*
X158612380Y-86583047D01*
X158764761Y-86583047D01*
X158269523Y-86925904D02*
X158269523Y-86125904D01*
X157812380Y-86925904D01*
X157812380Y-86125904D01*
X157431428Y-86925904D02*
X157431428Y-86125904D01*
X157240952Y-86125904D01*
X157126666Y-86164000D01*
X157050476Y-86240190D01*
X157012380Y-86316380D01*
X156974285Y-86468761D01*
X156974285Y-86583047D01*
X157012380Y-86735428D01*
X157050476Y-86811619D01*
X157126666Y-86887809D01*
X157240952Y-86925904D01*
X157431428Y-86925904D01*
X159069523Y-89501904D02*
X159069523Y-88701904D01*
X158802857Y-89273333D01*
X158536190Y-88701904D01*
X158536190Y-89501904D01*
X157736190Y-89501904D02*
X158193333Y-89501904D01*
X157964761Y-89501904D02*
X157964761Y-88701904D01*
X158040952Y-88816190D01*
X158117142Y-88892380D01*
X158193333Y-88930476D01*
X159069523Y-92077904D02*
X159069523Y-91277904D01*
X158802857Y-91849333D01*
X158536190Y-91277904D01*
X158536190Y-92077904D01*
X158193333Y-91354095D02*
X158155238Y-91316000D01*
X158079047Y-91277904D01*
X157888571Y-91277904D01*
X157812380Y-91316000D01*
X157774285Y-91354095D01*
X157736190Y-91430285D01*
X157736190Y-91506476D01*
X157774285Y-91620761D01*
X158231428Y-92077904D01*
X157736190Y-92077904D01*
X158650476Y-70378000D02*
X158726666Y-70339904D01*
X158840952Y-70339904D01*
X158955238Y-70378000D01*
X159031428Y-70454190D01*
X159069523Y-70530380D01*
X159107619Y-70682761D01*
X159107619Y-70797047D01*
X159069523Y-70949428D01*
X159031428Y-71025619D01*
X158955238Y-71101809D01*
X158840952Y-71139904D01*
X158764761Y-71139904D01*
X158650476Y-71101809D01*
X158612380Y-71063714D01*
X158612380Y-70797047D01*
X158764761Y-70797047D01*
X158269523Y-71139904D02*
X158269523Y-70339904D01*
X157812380Y-71139904D01*
X157812380Y-70339904D01*
X157431428Y-71139904D02*
X157431428Y-70339904D01*
X157240952Y-70339904D01*
X157126666Y-70378000D01*
X157050476Y-70454190D01*
X157012380Y-70530380D01*
X156974285Y-70682761D01*
X156974285Y-70797047D01*
X157012380Y-70949428D01*
X157050476Y-71025619D01*
X157126666Y-71101809D01*
X157240952Y-71139904D01*
X157431428Y-71139904D01*
X158612380Y-73715904D02*
X158879047Y-73334952D01*
X159069523Y-73715904D02*
X159069523Y-72915904D01*
X158764761Y-72915904D01*
X158688571Y-72954000D01*
X158650476Y-72992095D01*
X158612380Y-73068285D01*
X158612380Y-73182571D01*
X158650476Y-73258761D01*
X158688571Y-73296857D01*
X158764761Y-73334952D01*
X159069523Y-73334952D01*
X158269523Y-73715904D02*
X158269523Y-72915904D01*
X157469523Y-72954000D02*
X157545714Y-72915904D01*
X157660000Y-72915904D01*
X157774285Y-72954000D01*
X157850476Y-73030190D01*
X157888571Y-73106380D01*
X157926666Y-73258761D01*
X157926666Y-73373047D01*
X157888571Y-73525428D01*
X157850476Y-73601619D01*
X157774285Y-73677809D01*
X157660000Y-73715904D01*
X157583809Y-73715904D01*
X157469523Y-73677809D01*
X157431428Y-73639714D01*
X157431428Y-73373047D01*
X157583809Y-73373047D01*
X157088571Y-73715904D02*
X157088571Y-72915904D01*
X157088571Y-73296857D02*
X156631428Y-73296857D01*
X156631428Y-73715904D02*
X156631428Y-72915904D01*
X156364761Y-72915904D02*
X155907619Y-72915904D01*
X156136190Y-73715904D02*
X156136190Y-72915904D01*
X159069523Y-76291904D02*
X159069523Y-75491904D01*
X158879047Y-75491904D01*
X158764761Y-75530000D01*
X158688571Y-75606190D01*
X158650476Y-75682380D01*
X158612380Y-75834761D01*
X158612380Y-75949047D01*
X158650476Y-76101428D01*
X158688571Y-76177619D01*
X158764761Y-76253809D01*
X158879047Y-76291904D01*
X159069523Y-76291904D01*
X158117142Y-75491904D02*
X157964761Y-75491904D01*
X157888571Y-75530000D01*
X157812380Y-75606190D01*
X157774285Y-75758571D01*
X157774285Y-76025238D01*
X157812380Y-76177619D01*
X157888571Y-76253809D01*
X157964761Y-76291904D01*
X158117142Y-76291904D01*
X158193333Y-76253809D01*
X158269523Y-76177619D01*
X158307619Y-76025238D01*
X158307619Y-75758571D01*
X158269523Y-75606190D01*
X158193333Y-75530000D01*
X158117142Y-75491904D01*
X157507619Y-75491904D02*
X157317142Y-76291904D01*
X157164761Y-75720476D01*
X157012380Y-76291904D01*
X156821904Y-75491904D01*
X156517142Y-76291904D02*
X156517142Y-75491904D01*
X156060000Y-76291904D01*
X156060000Y-75491904D01*
X158688571Y-78867904D02*
X159069523Y-78867904D01*
X159069523Y-78067904D01*
X158421904Y-78448857D02*
X158155238Y-78448857D01*
X158040952Y-78867904D02*
X158421904Y-78867904D01*
X158421904Y-78067904D01*
X158040952Y-78067904D01*
X157431428Y-78448857D02*
X157698095Y-78448857D01*
X157698095Y-78867904D02*
X157698095Y-78067904D01*
X157317142Y-78067904D01*
X157126666Y-78067904D02*
X156669523Y-78067904D01*
X156898095Y-78867904D02*
X156898095Y-78067904D01*
X158688571Y-81443904D02*
X159069523Y-81443904D01*
X159069523Y-80643904D01*
X194502380Y-90187904D02*
X194769047Y-89806952D01*
X194959523Y-90187904D02*
X194959523Y-89387904D01*
X194654761Y-89387904D01*
X194578571Y-89426000D01*
X194540476Y-89464095D01*
X194502380Y-89540285D01*
X194502380Y-89654571D01*
X194540476Y-89730761D01*
X194578571Y-89768857D01*
X194654761Y-89806952D01*
X194959523Y-89806952D01*
X194692857Y-92344857D02*
X194578571Y-92382952D01*
X194540476Y-92421047D01*
X194502380Y-92497238D01*
X194502380Y-92611523D01*
X194540476Y-92687714D01*
X194578571Y-92725809D01*
X194654761Y-92763904D01*
X194959523Y-92763904D01*
X194959523Y-91963904D01*
X194692857Y-91963904D01*
X194616666Y-92002000D01*
X194578571Y-92040095D01*
X194540476Y-92116285D01*
X194540476Y-92192476D01*
X194578571Y-92268666D01*
X194616666Y-92306761D01*
X194692857Y-92344857D01*
X194959523Y-92344857D01*
X194692857Y-94958952D02*
X194692857Y-95339904D01*
X194959523Y-94539904D02*
X194692857Y-94958952D01*
X194426190Y-94539904D01*
X194997619Y-97115904D02*
X194464285Y-97915904D01*
X194464285Y-97115904D02*
X194997619Y-97915904D01*
X195188095Y-100491904D02*
X195569047Y-100491904D01*
X195569047Y-99691904D01*
X194959523Y-100453809D02*
X194845238Y-100491904D01*
X194654761Y-100491904D01*
X194578571Y-100453809D01*
X194540476Y-100415714D01*
X194502380Y-100339523D01*
X194502380Y-100263333D01*
X194540476Y-100187142D01*
X194578571Y-100149047D01*
X194654761Y-100110952D01*
X194807142Y-100072857D01*
X194883333Y-100034761D01*
X194921428Y-99996666D01*
X194959523Y-99920476D01*
X194959523Y-99844285D01*
X194921428Y-99768095D01*
X194883333Y-99730000D01*
X194807142Y-99691904D01*
X194616666Y-99691904D01*
X194502380Y-99730000D01*
X194997619Y-102267904D02*
X194464285Y-102267904D01*
X194997619Y-103067904D01*
X194464285Y-103067904D01*
X195835714Y-105643904D02*
X195835714Y-104843904D01*
X195569047Y-105415333D01*
X195302380Y-104843904D01*
X195302380Y-105643904D01*
X194959523Y-105605809D02*
X194845238Y-105643904D01*
X194654761Y-105643904D01*
X194578571Y-105605809D01*
X194540476Y-105567714D01*
X194502380Y-105491523D01*
X194502380Y-105415333D01*
X194540476Y-105339142D01*
X194578571Y-105301047D01*
X194654761Y-105262952D01*
X194807142Y-105224857D01*
X194883333Y-105186761D01*
X194921428Y-105148666D01*
X194959523Y-105072476D01*
X194959523Y-104996285D01*
X194921428Y-104920095D01*
X194883333Y-104882000D01*
X194807142Y-104843904D01*
X194616666Y-104843904D01*
X194502380Y-104882000D01*
X195797619Y-107419904D02*
X195797619Y-108067523D01*
X195759523Y-108143714D01*
X195721428Y-108181809D01*
X195645238Y-108219904D01*
X195492857Y-108219904D01*
X195416666Y-108181809D01*
X195378571Y-108143714D01*
X195340476Y-108067523D01*
X195340476Y-107419904D01*
X194959523Y-108219904D02*
X194959523Y-107419904D01*
X194654761Y-107419904D01*
X194578571Y-107458000D01*
X194540476Y-107496095D01*
X194502380Y-107572285D01*
X194502380Y-107686571D01*
X194540476Y-107762761D01*
X194578571Y-107800857D01*
X194654761Y-107838952D01*
X194959523Y-107838952D01*
X196178571Y-110034000D02*
X196254761Y-109995904D01*
X196369047Y-109995904D01*
X196483333Y-110034000D01*
X196559523Y-110110190D01*
X196597619Y-110186380D01*
X196635714Y-110338761D01*
X196635714Y-110453047D01*
X196597619Y-110605428D01*
X196559523Y-110681619D01*
X196483333Y-110757809D01*
X196369047Y-110795904D01*
X196292857Y-110795904D01*
X196178571Y-110757809D01*
X196140476Y-110719714D01*
X196140476Y-110453047D01*
X196292857Y-110453047D01*
X195797619Y-110795904D02*
X195797619Y-109995904D01*
X195340476Y-110795904D01*
X195340476Y-109995904D01*
X194959523Y-110795904D02*
X194959523Y-109995904D01*
X194769047Y-109995904D01*
X194654761Y-110034000D01*
X194578571Y-110110190D01*
X194540476Y-110186380D01*
X194502380Y-110338761D01*
X194502380Y-110453047D01*
X194540476Y-110605428D01*
X194578571Y-110681619D01*
X194654761Y-110757809D01*
X194769047Y-110795904D01*
X194959523Y-110795904D01*
D11*
%TO.C,J9*%
X163664761Y-68452380D02*
X164140952Y-68452380D01*
X164140952Y-67452380D01*
X162950476Y-68404761D02*
X163045714Y-68452380D01*
X163236190Y-68452380D01*
X163331428Y-68404761D01*
X163379047Y-68309523D01*
X163379047Y-67928571D01*
X163331428Y-67833333D01*
X163236190Y-67785714D01*
X163045714Y-67785714D01*
X162950476Y-67833333D01*
X162902857Y-67928571D01*
X162902857Y-68023809D01*
X163379047Y-68119047D01*
X162617142Y-67785714D02*
X162236190Y-67785714D01*
X162474285Y-68452380D02*
X162474285Y-67595238D01*
X162426666Y-67500000D01*
X162331428Y-67452380D01*
X162236190Y-67452380D01*
X162045714Y-67785714D02*
X161664761Y-67785714D01*
X161902857Y-67452380D02*
X161902857Y-68309523D01*
X161855238Y-68404761D01*
X161760000Y-68452380D01*
X161664761Y-68452380D01*
X160617142Y-68404761D02*
X160474285Y-68452380D01*
X160236190Y-68452380D01*
X160140952Y-68404761D01*
X160093333Y-68357142D01*
X160045714Y-68261904D01*
X160045714Y-68166666D01*
X160093333Y-68071428D01*
X160140952Y-68023809D01*
X160236190Y-67976190D01*
X160426666Y-67928571D01*
X160521904Y-67880952D01*
X160569523Y-67833333D01*
X160617142Y-67738095D01*
X160617142Y-67642857D01*
X160569523Y-67547619D01*
X160521904Y-67500000D01*
X160426666Y-67452380D01*
X160188571Y-67452380D01*
X160045714Y-67500000D01*
X159760000Y-67785714D02*
X159379047Y-67785714D01*
X159617142Y-67452380D02*
X159617142Y-68309523D01*
X159569523Y-68404761D01*
X159474285Y-68452380D01*
X159379047Y-68452380D01*
X159045714Y-68452380D02*
X159045714Y-67785714D01*
X159045714Y-67452380D02*
X159093333Y-67500000D01*
X159045714Y-67547619D01*
X158998095Y-67500000D01*
X159045714Y-67452380D01*
X159045714Y-67547619D01*
X158140952Y-68404761D02*
X158236190Y-68452380D01*
X158426666Y-68452380D01*
X158521904Y-68404761D01*
X158569523Y-68357142D01*
X158617142Y-68261904D01*
X158617142Y-67976190D01*
X158569523Y-67880952D01*
X158521904Y-67833333D01*
X158426666Y-67785714D01*
X158236190Y-67785714D01*
X158140952Y-67833333D01*
X157712380Y-68452380D02*
X157712380Y-67452380D01*
X157617142Y-68071428D02*
X157331428Y-68452380D01*
X157331428Y-67785714D02*
X157712380Y-68166666D01*
%TO.C,J12*%
X194651904Y-87468571D02*
X194509047Y-87516190D01*
X194461428Y-87563809D01*
X194413809Y-87659047D01*
X194413809Y-87801904D01*
X194461428Y-87897142D01*
X194509047Y-87944761D01*
X194604285Y-87992380D01*
X194985238Y-87992380D01*
X194985238Y-86992380D01*
X194651904Y-86992380D01*
X194556666Y-87040000D01*
X194509047Y-87087619D01*
X194461428Y-87182857D01*
X194461428Y-87278095D01*
X194509047Y-87373333D01*
X194556666Y-87420952D01*
X194651904Y-87468571D01*
X194985238Y-87468571D01*
X193556666Y-87325714D02*
X193556666Y-87992380D01*
X193985238Y-87325714D02*
X193985238Y-87849523D01*
X193937619Y-87944761D01*
X193842380Y-87992380D01*
X193699523Y-87992380D01*
X193604285Y-87944761D01*
X193556666Y-87897142D01*
X193223333Y-87325714D02*
X192842380Y-87325714D01*
X193080476Y-86992380D02*
X193080476Y-87849523D01*
X193032857Y-87944761D01*
X192937619Y-87992380D01*
X192842380Y-87992380D01*
X192651904Y-87325714D02*
X192270952Y-87325714D01*
X192509047Y-86992380D02*
X192509047Y-87849523D01*
X192461428Y-87944761D01*
X192366190Y-87992380D01*
X192270952Y-87992380D01*
X191794761Y-87992380D02*
X191890000Y-87944761D01*
X191937619Y-87897142D01*
X191985238Y-87801904D01*
X191985238Y-87516190D01*
X191937619Y-87420952D01*
X191890000Y-87373333D01*
X191794761Y-87325714D01*
X191651904Y-87325714D01*
X191556666Y-87373333D01*
X191509047Y-87420952D01*
X191461428Y-87516190D01*
X191461428Y-87801904D01*
X191509047Y-87897142D01*
X191556666Y-87944761D01*
X191651904Y-87992380D01*
X191794761Y-87992380D01*
X191032857Y-87325714D02*
X191032857Y-87992380D01*
X191032857Y-87420952D02*
X190985238Y-87373333D01*
X190890000Y-87325714D01*
X190747142Y-87325714D01*
X190651904Y-87373333D01*
X190604285Y-87468571D01*
X190604285Y-87992380D01*
X190175714Y-87944761D02*
X190080476Y-87992380D01*
X189890000Y-87992380D01*
X189794761Y-87944761D01*
X189747142Y-87849523D01*
X189747142Y-87801904D01*
X189794761Y-87706666D01*
X189890000Y-87659047D01*
X190032857Y-87659047D01*
X190128095Y-87611428D01*
X190175714Y-87516190D01*
X190175714Y-87468571D01*
X190128095Y-87373333D01*
X190032857Y-87325714D01*
X189890000Y-87325714D01*
X189794761Y-87373333D01*
%TO.C,J11*%
X179194761Y-119427142D02*
X179242380Y-119474761D01*
X179385238Y-119522380D01*
X179480476Y-119522380D01*
X179623333Y-119474761D01*
X179718571Y-119379523D01*
X179766190Y-119284285D01*
X179813809Y-119093809D01*
X179813809Y-118950952D01*
X179766190Y-118760476D01*
X179718571Y-118665238D01*
X179623333Y-118570000D01*
X179480476Y-118522380D01*
X179385238Y-118522380D01*
X179242380Y-118570000D01*
X179194761Y-118617619D01*
X178051904Y-119474761D02*
X177909047Y-119522380D01*
X177670952Y-119522380D01*
X177575714Y-119474761D01*
X177528095Y-119427142D01*
X177480476Y-119331904D01*
X177480476Y-119236666D01*
X177528095Y-119141428D01*
X177575714Y-119093809D01*
X177670952Y-119046190D01*
X177861428Y-118998571D01*
X177956666Y-118950952D01*
X178004285Y-118903333D01*
X178051904Y-118808095D01*
X178051904Y-118712857D01*
X178004285Y-118617619D01*
X177956666Y-118570000D01*
X177861428Y-118522380D01*
X177623333Y-118522380D01*
X177480476Y-118570000D01*
X177194761Y-118855714D02*
X176813809Y-118855714D01*
X177051904Y-118522380D02*
X177051904Y-119379523D01*
X177004285Y-119474761D01*
X176909047Y-119522380D01*
X176813809Y-119522380D01*
X176480476Y-119522380D02*
X176480476Y-118855714D01*
X176480476Y-118522380D02*
X176528095Y-118570000D01*
X176480476Y-118617619D01*
X176432857Y-118570000D01*
X176480476Y-118522380D01*
X176480476Y-118617619D01*
X175575714Y-119474761D02*
X175670952Y-119522380D01*
X175861428Y-119522380D01*
X175956666Y-119474761D01*
X176004285Y-119427142D01*
X176051904Y-119331904D01*
X176051904Y-119046190D01*
X176004285Y-118950952D01*
X175956666Y-118903333D01*
X175861428Y-118855714D01*
X175670952Y-118855714D01*
X175575714Y-118903333D01*
X175147142Y-119522380D02*
X175147142Y-118522380D01*
X175051904Y-119141428D02*
X174766190Y-119522380D01*
X174766190Y-118855714D02*
X175147142Y-119236666D01*
%TO.C,J10*%
X164762857Y-84312380D02*
X164762857Y-83312380D01*
X164429523Y-84026666D01*
X164096190Y-83312380D01*
X164096190Y-84312380D01*
X163477142Y-84312380D02*
X163572380Y-84264761D01*
X163620000Y-84217142D01*
X163667619Y-84121904D01*
X163667619Y-83836190D01*
X163620000Y-83740952D01*
X163572380Y-83693333D01*
X163477142Y-83645714D01*
X163334285Y-83645714D01*
X163239047Y-83693333D01*
X163191428Y-83740952D01*
X163143809Y-83836190D01*
X163143809Y-84121904D01*
X163191428Y-84217142D01*
X163239047Y-84264761D01*
X163334285Y-84312380D01*
X163477142Y-84312380D01*
X162286666Y-84312380D02*
X162286666Y-83312380D01*
X162286666Y-84264761D02*
X162381904Y-84312380D01*
X162572380Y-84312380D01*
X162667619Y-84264761D01*
X162715238Y-84217142D01*
X162762857Y-84121904D01*
X162762857Y-83836190D01*
X162715238Y-83740952D01*
X162667619Y-83693333D01*
X162572380Y-83645714D01*
X162381904Y-83645714D01*
X162286666Y-83693333D01*
X161810476Y-84312380D02*
X161810476Y-83645714D01*
X161810476Y-83312380D02*
X161858095Y-83360000D01*
X161810476Y-83407619D01*
X161762857Y-83360000D01*
X161810476Y-83312380D01*
X161810476Y-83407619D01*
X161477142Y-83645714D02*
X161096190Y-83645714D01*
X161334285Y-84312380D02*
X161334285Y-83455238D01*
X161286666Y-83360000D01*
X161191428Y-83312380D01*
X161096190Y-83312380D01*
X160762857Y-84312380D02*
X160762857Y-83645714D01*
X160762857Y-83312380D02*
X160810476Y-83360000D01*
X160762857Y-83407619D01*
X160715238Y-83360000D01*
X160762857Y-83312380D01*
X160762857Y-83407619D01*
X159905714Y-84264761D02*
X160000952Y-84312380D01*
X160191428Y-84312380D01*
X160286666Y-84264761D01*
X160334285Y-84169523D01*
X160334285Y-83788571D01*
X160286666Y-83693333D01*
X160191428Y-83645714D01*
X160000952Y-83645714D01*
X159905714Y-83693333D01*
X159858095Y-83788571D01*
X159858095Y-83883809D01*
X160334285Y-83979047D01*
X159429523Y-84312380D02*
X159429523Y-83645714D01*
X159429523Y-83836190D02*
X159381904Y-83740952D01*
X159334285Y-83693333D01*
X159239047Y-83645714D01*
X159143809Y-83645714D01*
X158858095Y-84264761D02*
X158762857Y-84312380D01*
X158572380Y-84312380D01*
X158477142Y-84264761D01*
X158429523Y-84169523D01*
X158429523Y-84121904D01*
X158477142Y-84026666D01*
X158572380Y-83979047D01*
X158715238Y-83979047D01*
X158810476Y-83931428D01*
X158858095Y-83836190D01*
X158858095Y-83788571D01*
X158810476Y-83693333D01*
X158715238Y-83645714D01*
X158572380Y-83645714D01*
X158477142Y-83693333D01*
%TO.C,SW5*%
X204161833Y-72981627D02*
X204018976Y-73029246D01*
X203780880Y-73029246D01*
X203685642Y-72981627D01*
X203638023Y-72934008D01*
X203590404Y-72838770D01*
X203590404Y-72743532D01*
X203638023Y-72648294D01*
X203685642Y-72600675D01*
X203780880Y-72553056D01*
X203971357Y-72505437D01*
X204066595Y-72457818D01*
X204114214Y-72410199D01*
X204161833Y-72314961D01*
X204161833Y-72219723D01*
X204114214Y-72124485D01*
X204066595Y-72076866D01*
X203971357Y-72029246D01*
X203733261Y-72029246D01*
X203590404Y-72076866D01*
X203257071Y-72029246D02*
X203018976Y-73029246D01*
X202828500Y-72314961D01*
X202638023Y-73029246D01*
X202399928Y-72029246D01*
X201542785Y-72029246D02*
X202018976Y-72029246D01*
X202066595Y-72505437D01*
X202018976Y-72457818D01*
X201923738Y-72410199D01*
X201685642Y-72410199D01*
X201590404Y-72457818D01*
X201542785Y-72505437D01*
X201495166Y-72600675D01*
X201495166Y-72838770D01*
X201542785Y-72934008D01*
X201590404Y-72981627D01*
X201685642Y-73029246D01*
X201923738Y-73029246D01*
X202018976Y-72981627D01*
X202066595Y-72934008D01*
X192493324Y-70376646D02*
X192493324Y-69576646D01*
X201893324Y-67576646D02*
X203443324Y-67576646D01*
X192493324Y-73226646D02*
X192493324Y-73466646D01*
X194493324Y-67576646D02*
X200393324Y-67576646D01*
X202943324Y-71626646D02*
X198378500Y-71626646D01*
X203443324Y-70656646D02*
X203443324Y-71126646D01*
X203443324Y-67576646D02*
X203443324Y-67806646D01*
X198378500Y-71626646D02*
G75*
G03*
X196084178Y-73466646I-866J-2349332D01*
G01*
X202943324Y-71626646D02*
G75*
G03*
X203443324Y-71126646I-1J500001D01*
G01*
X194493324Y-67576646D02*
G75*
G03*
X192493324Y-69576646I4J-2000004D01*
G01*
%TD*%
M02*
