%TF.GenerationSoftware,KiCad,Pcbnew,(6.0.7)*%
%TF.CreationDate,2023-01-05T19:36:13-06:00*%
%TF.ProjectId,OpenRectangle,4f70656e-5265-4637-9461-6e676c652e6b,rev?*%
%TF.SameCoordinates,Original*%
%TF.FileFunction,Legend,Bot*%
%TF.FilePolarity,Positive*%
%FSLAX46Y46*%
G04 Gerber Fmt 4.6, Leading zero omitted, Abs format (unit mm)*
G04 Created by KiCad (PCBNEW (6.0.7)) date 2023-01-05 19:36:13*
%MOMM*%
%LPD*%
G01*
G04 APERTURE LIST*
%ADD10C,0.200000*%
%ADD11C,0.150000*%
G04 APERTURE END LIST*
D10*
X268598085Y-107416148D02*
X268674275Y-107378052D01*
X268788561Y-107378052D01*
X268902847Y-107416148D01*
X268979037Y-107492338D01*
X269017132Y-107568528D01*
X269055228Y-107720909D01*
X269055228Y-107835195D01*
X269017132Y-107987576D01*
X268979037Y-108063767D01*
X268902847Y-108139957D01*
X268788561Y-108178052D01*
X268712370Y-108178052D01*
X268598085Y-108139957D01*
X268559989Y-108101862D01*
X268559989Y-107835195D01*
X268712370Y-107835195D01*
X268217132Y-108178052D02*
X268217132Y-107378052D01*
X267759989Y-108178052D01*
X267759989Y-107378052D01*
X267379037Y-108178052D02*
X267379037Y-107378052D01*
X267188561Y-107378052D01*
X267074275Y-107416148D01*
X266998085Y-107492338D01*
X266959989Y-107568528D01*
X266921894Y-107720909D01*
X266921894Y-107835195D01*
X266959989Y-107987576D01*
X266998085Y-108063767D01*
X267074275Y-108139957D01*
X267188561Y-108178052D01*
X267379037Y-108178052D01*
X269017132Y-110754052D02*
X269017132Y-109954052D01*
X268750466Y-110525481D01*
X268483799Y-109954052D01*
X268483799Y-110754052D01*
X267683799Y-110754052D02*
X268140942Y-110754052D01*
X267912370Y-110754052D02*
X267912370Y-109954052D01*
X267988561Y-110068338D01*
X268064751Y-110144528D01*
X268140942Y-110182624D01*
X269017132Y-113330052D02*
X269017132Y-112530052D01*
X268750466Y-113101481D01*
X268483799Y-112530052D01*
X268483799Y-113330052D01*
X268140942Y-112606243D02*
X268102847Y-112568148D01*
X268026656Y-112530052D01*
X267836180Y-112530052D01*
X267759989Y-112568148D01*
X267721894Y-112606243D01*
X267683799Y-112682433D01*
X267683799Y-112758624D01*
X267721894Y-112872909D01*
X268179037Y-113330052D01*
X267683799Y-113330052D01*
D11*
%TO.C,J3*%
X274232489Y-107235540D02*
X273232489Y-107235540D01*
X273946775Y-107568874D01*
X273232489Y-107902207D01*
X274232489Y-107902207D01*
X274232489Y-108521255D02*
X274184870Y-108426017D01*
X274137251Y-108378398D01*
X274042013Y-108330778D01*
X273756299Y-108330778D01*
X273661061Y-108378398D01*
X273613442Y-108426017D01*
X273565823Y-108521255D01*
X273565823Y-108664112D01*
X273613442Y-108759350D01*
X273661061Y-108806969D01*
X273756299Y-108854588D01*
X274042013Y-108854588D01*
X274137251Y-108806969D01*
X274184870Y-108759350D01*
X274232489Y-108664112D01*
X274232489Y-108521255D01*
X274232489Y-109711731D02*
X273232489Y-109711731D01*
X274184870Y-109711731D02*
X274232489Y-109616493D01*
X274232489Y-109426017D01*
X274184870Y-109330778D01*
X274137251Y-109283159D01*
X274042013Y-109235540D01*
X273756299Y-109235540D01*
X273661061Y-109283159D01*
X273613442Y-109330778D01*
X273565823Y-109426017D01*
X273565823Y-109616493D01*
X273613442Y-109711731D01*
X274232489Y-110187921D02*
X273565823Y-110187921D01*
X273232489Y-110187921D02*
X273280109Y-110140302D01*
X273327728Y-110187921D01*
X273280109Y-110235540D01*
X273232489Y-110187921D01*
X273327728Y-110187921D01*
X273565823Y-110521255D02*
X273565823Y-110902207D01*
X274232489Y-110664112D02*
X273375347Y-110664112D01*
X273280109Y-110711731D01*
X273232489Y-110806969D01*
X273232489Y-110902207D01*
X274232489Y-111235540D02*
X273565823Y-111235540D01*
X273232489Y-111235540D02*
X273280109Y-111187921D01*
X273327728Y-111235540D01*
X273280109Y-111283159D01*
X273232489Y-111235540D01*
X273327728Y-111235540D01*
X274184870Y-112092683D02*
X274232489Y-111997445D01*
X274232489Y-111806969D01*
X274184870Y-111711731D01*
X274089632Y-111664112D01*
X273708680Y-111664112D01*
X273613442Y-111711731D01*
X273565823Y-111806969D01*
X273565823Y-111997445D01*
X273613442Y-112092683D01*
X273708680Y-112140302D01*
X273803918Y-112140302D01*
X273899156Y-111664112D01*
X274232489Y-112568874D02*
X273565823Y-112568874D01*
X273756299Y-112568874D02*
X273661061Y-112616493D01*
X273613442Y-112664112D01*
X273565823Y-112759350D01*
X273565823Y-112854588D01*
X274184870Y-113140302D02*
X274232489Y-113235540D01*
X274232489Y-113426017D01*
X274184870Y-113521255D01*
X274089632Y-113568874D01*
X274042013Y-113568874D01*
X273946775Y-113521255D01*
X273899156Y-113426017D01*
X273899156Y-113283159D01*
X273851537Y-113187921D01*
X273756299Y-113140302D01*
X273708680Y-113140302D01*
X273613442Y-113187921D01*
X273565823Y-113283159D01*
X273565823Y-113426017D01*
X273613442Y-113521255D01*
%TO.C,SW15*%
X261395504Y-116146124D02*
X261443123Y-116288981D01*
X261443123Y-116527076D01*
X261395504Y-116622314D01*
X261347885Y-116669933D01*
X261252647Y-116717552D01*
X261157409Y-116717552D01*
X261062171Y-116669933D01*
X261014552Y-116622314D01*
X260966933Y-116527076D01*
X260919314Y-116336600D01*
X260871695Y-116241362D01*
X260824076Y-116193743D01*
X260728838Y-116146124D01*
X260633600Y-116146124D01*
X260538362Y-116193743D01*
X260490743Y-116241362D01*
X260443123Y-116336600D01*
X260443123Y-116574695D01*
X260490743Y-116717552D01*
X260443123Y-117050886D02*
X261443123Y-117288981D01*
X260728838Y-117479457D01*
X261443123Y-117669933D01*
X260443123Y-117908028D01*
X261443123Y-118812790D02*
X261443123Y-118241362D01*
X261443123Y-118527076D02*
X260443123Y-118527076D01*
X260585981Y-118431838D01*
X260681219Y-118336600D01*
X260728838Y-118241362D01*
X260443123Y-119717552D02*
X260443123Y-119241362D01*
X260919314Y-119193743D01*
X260871695Y-119241362D01*
X260824076Y-119336600D01*
X260824076Y-119574695D01*
X260871695Y-119669933D01*
X260919314Y-119717552D01*
X261014552Y-119765171D01*
X261252647Y-119765171D01*
X261347885Y-119717552D01*
X261395504Y-119669933D01*
X261443123Y-119574695D01*
X261443123Y-119336600D01*
X261395504Y-119241362D01*
X261347885Y-119193743D01*
%TO.C,SW14*%
X277164504Y-93458124D02*
X277212123Y-93600981D01*
X277212123Y-93839076D01*
X277164504Y-93934314D01*
X277116885Y-93981933D01*
X277021647Y-94029552D01*
X276926409Y-94029552D01*
X276831171Y-93981933D01*
X276783552Y-93934314D01*
X276735933Y-93839076D01*
X276688314Y-93648600D01*
X276640695Y-93553362D01*
X276593076Y-93505743D01*
X276497838Y-93458124D01*
X276402600Y-93458124D01*
X276307362Y-93505743D01*
X276259743Y-93553362D01*
X276212123Y-93648600D01*
X276212123Y-93886695D01*
X276259743Y-94029552D01*
X276212123Y-94362886D02*
X277212123Y-94600981D01*
X276497838Y-94791457D01*
X277212123Y-94981933D01*
X276212123Y-95220028D01*
X277212123Y-96124790D02*
X277212123Y-95553362D01*
X277212123Y-95839076D02*
X276212123Y-95839076D01*
X276354981Y-95743838D01*
X276450219Y-95648600D01*
X276497838Y-95553362D01*
X276545457Y-96981933D02*
X277212123Y-96981933D01*
X276164504Y-96743838D02*
X276878790Y-96505743D01*
X276878790Y-97124790D01*
%TO.C,SW15*%
X263190963Y-107620472D02*
X263990963Y-107620472D01*
X262910963Y-118570472D02*
X262440963Y-118570472D01*
X265990963Y-117020472D02*
X265990963Y-118570472D01*
X261940963Y-118070472D02*
X261940963Y-113505648D01*
X265990963Y-109620472D02*
X265990963Y-115520472D01*
X260340963Y-107620472D02*
X260100963Y-107620472D01*
X265990963Y-118570472D02*
X265760963Y-118570472D01*
X265990963Y-109620472D02*
G75*
G03*
X263990963Y-107620472I-2000004J-4D01*
G01*
X261940963Y-118070472D02*
G75*
G03*
X262440963Y-118570472I500001J1D01*
G01*
X261940963Y-113505648D02*
G75*
G03*
X260100963Y-111211326I-2349332J866D01*
G01*
%TO.C,SW14*%
X281759963Y-95882472D02*
X281529963Y-95882472D01*
X278959963Y-84932472D02*
X279759963Y-84932472D01*
X276109963Y-84932472D02*
X275869963Y-84932472D01*
X278679963Y-95882472D02*
X278209963Y-95882472D01*
X281759963Y-86932472D02*
X281759963Y-92832472D01*
X277709963Y-95382472D02*
X277709963Y-90817648D01*
X281759963Y-94332472D02*
X281759963Y-95882472D01*
X277709963Y-95382472D02*
G75*
G03*
X278209963Y-95882472I500001J1D01*
G01*
X277709963Y-90817648D02*
G75*
G03*
X275869963Y-88523326I-2349332J866D01*
G01*
X281759963Y-86932472D02*
G75*
G03*
X279759963Y-84932472I-2000004J-4D01*
G01*
%TD*%
M02*
