%TF.GenerationSoftware,KiCad,Pcbnew,(6.0.7)*%
%TF.CreationDate,2023-01-05T19:36:13-06:00*%
%TF.ProjectId,OpenRectangle,4f70656e-5265-4637-9461-6e676c652e6b,rev?*%
%TF.SameCoordinates,Original*%
%TF.FileFunction,Soldermask,Bot*%
%TF.FilePolarity,Negative*%
%FSLAX46Y46*%
G04 Gerber Fmt 4.6, Leading zero omitted, Abs format (unit mm)*
G04 Created by KiCad (PCBNEW (6.0.7)) date 2023-01-05 19:36:13*
%MOMM*%
%LPD*%
G01*
G04 APERTURE LIST*
G04 Aperture macros list*
%AMRoundRect*
0 Rectangle with rounded corners*
0 $1 Rounding radius*
0 $2 $3 $4 $5 $6 $7 $8 $9 X,Y pos of 4 corners*
0 Add a 4 corners polygon primitive as box body*
4,1,4,$2,$3,$4,$5,$6,$7,$8,$9,$2,$3,0*
0 Add four circle primitives for the rounded corners*
1,1,$1+$1,$2,$3*
1,1,$1+$1,$4,$5*
1,1,$1+$1,$6,$7*
1,1,$1+$1,$8,$9*
0 Add four rect primitives between the rounded corners*
20,1,$1+$1,$2,$3,$4,$5,0*
20,1,$1+$1,$4,$5,$6,$7,0*
20,1,$1+$1,$6,$7,$8,$9,0*
20,1,$1+$1,$8,$9,$2,$3,0*%
G04 Aperture macros list end*
%ADD10C,0.300000*%
%ADD11R,1.700000X1.700000*%
%ADD12O,1.700000X1.700000*%
%ADD13C,1.750000*%
%ADD14C,3.987800*%
%ADD15RoundRect,0.250000X1.000000X-1.025000X1.000000X1.025000X-1.000000X1.025000X-1.000000X-1.025000X0*%
%ADD16C,3.300000*%
%ADD17C,2.200000*%
G04 APERTURE END LIST*
D10*
X252641428Y-119607142D02*
X251141428Y-119607142D01*
X251712857Y-119607142D02*
X251641428Y-119750000D01*
X251641428Y-120035714D01*
X251712857Y-120178571D01*
X251784285Y-120250000D01*
X251927142Y-120321428D01*
X252355714Y-120321428D01*
X252498571Y-120250000D01*
X252570000Y-120178571D01*
X252641428Y-120035714D01*
X252641428Y-119750000D01*
X252570000Y-119607142D01*
X252641428Y-118250000D02*
X251641428Y-118250000D01*
X252641428Y-118892857D02*
X251855714Y-118892857D01*
X251712857Y-118821428D01*
X251641428Y-118678571D01*
X251641428Y-118464285D01*
X251712857Y-118321428D01*
X251784285Y-118250000D01*
X251641428Y-116892857D02*
X252427142Y-116892857D01*
X252570000Y-116964285D01*
X252641428Y-117107142D01*
X252641428Y-117392857D01*
X252570000Y-117535714D01*
X251712857Y-116892857D02*
X251641428Y-117035714D01*
X251641428Y-117392857D01*
X251712857Y-117535714D01*
X251855714Y-117607142D01*
X251998571Y-117607142D01*
X252141428Y-117535714D01*
X252212857Y-117392857D01*
X252212857Y-117035714D01*
X252284285Y-116892857D01*
X251641428Y-116178571D02*
X252641428Y-116178571D01*
X252355714Y-116178571D02*
X252498571Y-116107142D01*
X252570000Y-116035714D01*
X252641428Y-115892857D01*
X252641428Y-115750000D01*
X251641428Y-115250000D02*
X253141428Y-115250000D01*
X252212857Y-115107142D02*
X251641428Y-114678571D01*
X252641428Y-114678571D02*
X252070000Y-115250000D01*
X251784285Y-114035714D02*
X251712857Y-113964285D01*
X251641428Y-114035714D01*
X251712857Y-114107142D01*
X251784285Y-114035714D01*
X251641428Y-114035714D01*
X252641428Y-113464285D02*
X251641428Y-113178571D01*
X252355714Y-112892857D01*
X251641428Y-112607142D01*
X252641428Y-112321428D01*
X251641428Y-111535714D02*
X251712857Y-111678571D01*
X251784285Y-111750000D01*
X251927142Y-111821428D01*
X252355714Y-111821428D01*
X252498571Y-111750000D01*
X252570000Y-111678571D01*
X252641428Y-111535714D01*
X252641428Y-111321428D01*
X252570000Y-111178571D01*
X252498571Y-111107142D01*
X252355714Y-111035714D01*
X251927142Y-111035714D01*
X251784285Y-111107142D01*
X251712857Y-111178571D01*
X251641428Y-111321428D01*
X251641428Y-111535714D01*
X251641428Y-110392857D02*
X252641428Y-110392857D01*
X252355714Y-110392857D02*
X252498571Y-110321428D01*
X252570000Y-110250000D01*
X252641428Y-110107142D01*
X252641428Y-109964285D01*
X251641428Y-109464285D02*
X253141428Y-109464285D01*
X252212857Y-109321428D02*
X251641428Y-108892857D01*
X252641428Y-108892857D02*
X252070000Y-109464285D01*
X251712857Y-108321428D02*
X251641428Y-108178571D01*
X251641428Y-107892857D01*
X251712857Y-107750000D01*
X251855714Y-107678571D01*
X251927142Y-107678571D01*
X252070000Y-107750000D01*
X252141428Y-107892857D01*
X252141428Y-108107142D01*
X252212857Y-108250000D01*
X252355714Y-108321428D01*
X252427142Y-108321428D01*
X252570000Y-108250000D01*
X252641428Y-108107142D01*
X252641428Y-107892857D01*
X252570000Y-107750000D01*
D11*
%TO.C,J3*%
X270847609Y-107917148D03*
D12*
X270847609Y-110457148D03*
X270847609Y-112997148D03*
%TD*%
D13*
%TO.C,SW15*%
X259240743Y-118785648D03*
X259240743Y-108625648D03*
D14*
X259240743Y-113705648D03*
D15*
X261780743Y-106345648D03*
D16*
X261780743Y-109895648D03*
D15*
X264320743Y-119795648D03*
D16*
X264320743Y-116245648D03*
%TD*%
D17*
%TO.C,H4*%
X272807609Y-102972148D03*
%TD*%
%TO.C,H5*%
X272807609Y-119392148D03*
%TD*%
D13*
%TO.C,SW14*%
X275009743Y-96097648D03*
D14*
X275009743Y-91017648D03*
D13*
X275009743Y-85937648D03*
D16*
X277549743Y-87207648D03*
D15*
X277549743Y-83657648D03*
D16*
X280089743Y-93557648D03*
D15*
X280089743Y-97107648D03*
%TD*%
M02*
