%TF.GenerationSoftware,KiCad,Pcbnew,(6.0.7)*%
%TF.CreationDate,2023-01-05T19:35:34-06:00*%
%TF.ProjectId,OpenRectangle,4f70656e-5265-4637-9461-6e676c652e6b,rev?*%
%TF.SameCoordinates,Original*%
%TF.FileFunction,Profile,NP*%
%FSLAX46Y46*%
G04 Gerber Fmt 4.6, Leading zero omitted, Abs format (unit mm)*
G04 Created by KiCad (PCBNEW (6.0.7)) date 2023-01-05 19:35:34*
%MOMM*%
%LPD*%
G01*
G04 APERTURE LIST*
%TA.AperFunction,Profile*%
%ADD10C,0.100000*%
%TD*%
G04 APERTURE END LIST*
D10*
X266228835Y-71831303D02*
G75*
G03*
X264758834Y-73341260I40499J-1509957D01*
G01*
X255738834Y-27131260D02*
G75*
G03*
X254228834Y-25621260I-1510000J0D01*
G01*
X266228834Y-71831260D02*
G75*
G03*
X267738834Y-70321260I0J1510000D01*
G01*
X254228834Y-25621260D02*
X210588834Y-25621260D01*
X263248047Y-100183938D02*
X250248834Y-100184260D01*
X264758834Y-81141260D02*
X264758834Y-98671260D01*
X209078834Y-27131260D02*
X209078835Y-105843529D01*
X267738834Y-54291260D02*
X267738834Y-70321260D01*
X207568835Y-107353561D02*
G75*
G03*
X209078835Y-105843529I-1J1510001D01*
G01*
X255738834Y-27131260D02*
X255738834Y-51271260D01*
X250248834Y-100184293D02*
G75*
G03*
X248728834Y-101694260I-10000J-1509967D01*
G01*
X247218834Y-126401260D02*
X203578834Y-126401260D01*
X264758834Y-81141260D02*
X264758834Y-73341260D01*
X255738834Y-51271260D02*
G75*
G03*
X257248834Y-52781260I1510000J0D01*
G01*
X257248834Y-52781260D02*
X266228834Y-52781260D01*
X247218834Y-126401260D02*
G75*
G03*
X248728834Y-124891260I0J1510000D01*
G01*
X267738834Y-54291260D02*
G75*
G03*
X266228834Y-52781260I-1510000J0D01*
G01*
X248728834Y-124891260D02*
X248728834Y-101694260D01*
X263248047Y-100183959D02*
G75*
G03*
X264758834Y-98671260I-1913J1512699D01*
G01*
X210588834Y-25621260D02*
G75*
G03*
X209078834Y-27131260I0J-1510000D01*
G01*
X202068834Y-124891260D02*
G75*
G03*
X203578834Y-126401260I1510000J0D01*
G01*
X203581334Y-107351260D02*
G75*
G03*
X202071334Y-108861260I0J-1510000D01*
G01*
X203581334Y-107351260D02*
X207568835Y-107353529D01*
X202068834Y-124891260D02*
X202071334Y-108861260D01*
M02*
