%TF.GenerationSoftware,KiCad,Pcbnew,(6.0.7)*%
%TF.CreationDate,2023-01-05T19:35:34-06:00*%
%TF.ProjectId,OpenRectangle,4f70656e-5265-4637-9461-6e676c652e6b,rev?*%
%TF.SameCoordinates,Original*%
%TF.FileFunction,Soldermask,Bot*%
%TF.FilePolarity,Negative*%
%FSLAX46Y46*%
G04 Gerber Fmt 4.6, Leading zero omitted, Abs format (unit mm)*
G04 Created by KiCad (PCBNEW (6.0.7)) date 2023-01-05 19:35:34*
%MOMM*%
%LPD*%
G01*
G04 APERTURE LIST*
G04 Aperture macros list*
%AMRoundRect*
0 Rectangle with rounded corners*
0 $1 Rounding radius*
0 $2 $3 $4 $5 $6 $7 $8 $9 X,Y pos of 4 corners*
0 Add a 4 corners polygon primitive as box body*
4,1,4,$2,$3,$4,$5,$6,$7,$8,$9,$2,$3,0*
0 Add four circle primitives for the rounded corners*
1,1,$1+$1,$2,$3*
1,1,$1+$1,$4,$5*
1,1,$1+$1,$6,$7*
1,1,$1+$1,$8,$9*
0 Add four rect primitives between the rounded corners*
20,1,$1+$1,$2,$3,$4,$5,0*
20,1,$1+$1,$4,$5,$6,$7,0*
20,1,$1+$1,$6,$7,$8,$9,0*
20,1,$1+$1,$8,$9,$2,$3,0*%
G04 Aperture macros list end*
%ADD10R,1.700000X1.700000*%
%ADD11O,1.700000X1.700000*%
%ADD12C,1.750000*%
%ADD13C,3.987800*%
%ADD14RoundRect,0.250000X1.000000X-1.025000X1.000000X1.025000X-1.000000X1.025000X-1.000000X-1.025000X0*%
%ADD15C,3.300000*%
%ADD16C,2.200000*%
G04 APERTURE END LIST*
D10*
%TO.C,J2*%
X217968834Y-73801260D03*
D11*
X217968834Y-71261260D03*
X217968834Y-68721260D03*
X217968834Y-66181260D03*
X217968834Y-63641260D03*
X217968834Y-61101260D03*
X217968834Y-58561260D03*
X217968834Y-56021260D03*
X217968834Y-53481260D03*
%TD*%
D12*
%TO.C,SW10*%
X218605968Y-40861760D03*
D13*
X218605968Y-35781760D03*
D12*
X218605968Y-30701760D03*
D14*
X221145968Y-28421760D03*
D15*
X221145968Y-31971760D03*
D14*
X223685968Y-41871760D03*
D15*
X223685968Y-38321760D03*
%TD*%
D12*
%TO.C,SW2*%
X258210968Y-67379760D03*
D13*
X258210968Y-62299760D03*
D12*
X258210968Y-57219760D03*
D15*
X260750968Y-58489760D03*
D14*
X260750968Y-54939760D03*
X263290968Y-68389760D03*
D15*
X263290968Y-64839760D03*
%TD*%
D12*
%TO.C,SW13*%
X211589968Y-121957760D03*
X211589968Y-111797760D03*
D13*
X211589968Y-116877760D03*
D15*
X214129968Y-113067760D03*
D14*
X214129968Y-109517760D03*
D15*
X216669968Y-119417760D03*
D14*
X216669968Y-122967760D03*
%TD*%
D12*
%TO.C,SW11*%
X230600968Y-57219760D03*
X230600968Y-67379760D03*
D13*
X230600968Y-62299760D03*
D14*
X233140968Y-54939760D03*
D15*
X233140968Y-58489760D03*
D14*
X235680968Y-68389760D03*
D15*
X235680968Y-64839760D03*
%TD*%
D12*
%TO.C,SW3*%
X255235968Y-95734760D03*
X255235968Y-85574760D03*
D13*
X255235968Y-90654760D03*
D15*
X257775968Y-86844760D03*
D14*
X257775968Y-83294760D03*
D15*
X260315968Y-93194760D03*
D14*
X260315968Y-96744760D03*
%TD*%
D12*
%TO.C,SW4*%
X239199968Y-121957760D03*
D13*
X239199968Y-116877760D03*
D12*
X239199968Y-111797760D03*
D14*
X241739968Y-109517760D03*
D15*
X241739968Y-113067760D03*
X244279968Y-119417760D03*
D14*
X244279968Y-122967760D03*
%TD*%
D13*
%TO.C,SW12*%
X227625968Y-90654760D03*
D12*
X227625968Y-85574760D03*
X227625968Y-95734760D03*
D15*
X230165968Y-86844760D03*
D14*
X230165968Y-83294760D03*
D15*
X232705968Y-93194760D03*
D14*
X232705968Y-96744760D03*
%TD*%
D12*
%TO.C,SW1*%
X246214968Y-40861760D03*
X246214968Y-30701760D03*
D13*
X246214968Y-35781760D03*
D14*
X248754968Y-28421760D03*
D15*
X248754968Y-31971760D03*
X251294968Y-38321760D03*
D14*
X251294968Y-41871760D03*
%TD*%
D16*
%TO.C,H10*%
X244478834Y-103461260D03*
%TD*%
%TO.C,H8*%
X232668834Y-35441260D03*
%TD*%
%TO.C,H9*%
X258508834Y-76851260D03*
%TD*%
%TO.C,H11*%
X214248834Y-103571260D03*
%TD*%
M02*
