%TF.GenerationSoftware,KiCad,Pcbnew,(6.0.7)*%
%TF.CreationDate,2023-01-05T19:35:34-06:00*%
%TF.ProjectId,OpenRectangle,4f70656e-5265-4637-9461-6e676c652e6b,rev?*%
%TF.SameCoordinates,Original*%
%TF.FileFunction,Legend,Top*%
%TF.FilePolarity,Positive*%
%FSLAX46Y46*%
G04 Gerber Fmt 4.6, Leading zero omitted, Abs format (unit mm)*
G04 Created by KiCad (PCBNEW (6.0.7)) date 2023-01-05 19:35:34*
%MOMM*%
%LPD*%
G01*
G04 APERTURE LIST*
%ADD10C,0.120000*%
%ADD11C,0.010000*%
G04 APERTURE END LIST*
D10*
%TO.C,J2*%
X219298834Y-52151260D02*
X216638834Y-52151260D01*
X216638834Y-72531260D02*
X216638834Y-52151260D01*
X219298834Y-75131260D02*
X217968834Y-75131260D01*
X219298834Y-73801260D02*
X219298834Y-75131260D01*
X219298834Y-72531260D02*
X216638834Y-72531260D01*
X219298834Y-72531260D02*
X219298834Y-52151260D01*
%TO.C,H20*%
G36*
X250360420Y-73623345D02*
G01*
X250383933Y-73624465D01*
X250406134Y-73626334D01*
X250425481Y-73628895D01*
X250432414Y-73630169D01*
X250477450Y-73641838D01*
X250519966Y-73657829D01*
X250559765Y-73677948D01*
X250596653Y-73701999D01*
X250630433Y-73729787D01*
X250660910Y-73761119D01*
X250687888Y-73795798D01*
X250711172Y-73833630D01*
X250730564Y-73874420D01*
X250745870Y-73917974D01*
X250754126Y-73950360D01*
X250756060Y-73959839D01*
X250757518Y-73968682D01*
X250758564Y-73977853D01*
X250759266Y-73988317D01*
X250759690Y-74001039D01*
X250759901Y-74016983D01*
X250759965Y-74035450D01*
X250759931Y-74055131D01*
X250759743Y-74070712D01*
X250759335Y-74083169D01*
X250758639Y-74093482D01*
X250757589Y-74102629D01*
X250756118Y-74111587D01*
X250754158Y-74121335D01*
X250754057Y-74121810D01*
X250741957Y-74167147D01*
X250725634Y-74209885D01*
X250705234Y-74249835D01*
X250680903Y-74286810D01*
X250652789Y-74320620D01*
X250621038Y-74351079D01*
X250585796Y-74377997D01*
X250547211Y-74401186D01*
X250529477Y-74410035D01*
X250487643Y-74426958D01*
X250444451Y-74439200D01*
X250400346Y-74446800D01*
X250355772Y-74449796D01*
X250311177Y-74448225D01*
X250267005Y-74442127D01*
X250223702Y-74431537D01*
X250181713Y-74416496D01*
X250141484Y-74397040D01*
X250104189Y-74373723D01*
X250088589Y-74361669D01*
X250071366Y-74346562D01*
X250053702Y-74329583D01*
X250036780Y-74311914D01*
X250021781Y-74294737D01*
X250010321Y-74279855D01*
X249989649Y-74246905D01*
X249971626Y-74210931D01*
X249956821Y-74173308D01*
X249945802Y-74135405D01*
X249941183Y-74112743D01*
X249939048Y-74097713D01*
X249937211Y-74080311D01*
X249935757Y-74061903D01*
X249934770Y-74043856D01*
X249934336Y-74027535D01*
X249934538Y-74014305D01*
X249934828Y-74010050D01*
X249941102Y-73962514D01*
X249950922Y-73918422D01*
X249964444Y-73877431D01*
X249981824Y-73839199D01*
X250003221Y-73803385D01*
X250028791Y-73769646D01*
X250058690Y-73737641D01*
X250060760Y-73735639D01*
X250095150Y-73705979D01*
X250132022Y-73680749D01*
X250171358Y-73659959D01*
X250213139Y-73643616D01*
X250257345Y-73631730D01*
X250297403Y-73625066D01*
X250315614Y-73623587D01*
X250337133Y-73623033D01*
X250360420Y-73623345D01*
G37*
D11*
X250360420Y-73623345D02*
X250383933Y-73624465D01*
X250406134Y-73626334D01*
X250425481Y-73628895D01*
X250432414Y-73630169D01*
X250477450Y-73641838D01*
X250519966Y-73657829D01*
X250559765Y-73677948D01*
X250596653Y-73701999D01*
X250630433Y-73729787D01*
X250660910Y-73761119D01*
X250687888Y-73795798D01*
X250711172Y-73833630D01*
X250730564Y-73874420D01*
X250745870Y-73917974D01*
X250754126Y-73950360D01*
X250756060Y-73959839D01*
X250757518Y-73968682D01*
X250758564Y-73977853D01*
X250759266Y-73988317D01*
X250759690Y-74001039D01*
X250759901Y-74016983D01*
X250759965Y-74035450D01*
X250759931Y-74055131D01*
X250759743Y-74070712D01*
X250759335Y-74083169D01*
X250758639Y-74093482D01*
X250757589Y-74102629D01*
X250756118Y-74111587D01*
X250754158Y-74121335D01*
X250754057Y-74121810D01*
X250741957Y-74167147D01*
X250725634Y-74209885D01*
X250705234Y-74249835D01*
X250680903Y-74286810D01*
X250652789Y-74320620D01*
X250621038Y-74351079D01*
X250585796Y-74377997D01*
X250547211Y-74401186D01*
X250529477Y-74410035D01*
X250487643Y-74426958D01*
X250444451Y-74439200D01*
X250400346Y-74446800D01*
X250355772Y-74449796D01*
X250311177Y-74448225D01*
X250267005Y-74442127D01*
X250223702Y-74431537D01*
X250181713Y-74416496D01*
X250141484Y-74397040D01*
X250104189Y-74373723D01*
X250088589Y-74361669D01*
X250071366Y-74346562D01*
X250053702Y-74329583D01*
X250036780Y-74311914D01*
X250021781Y-74294737D01*
X250010321Y-74279855D01*
X249989649Y-74246905D01*
X249971626Y-74210931D01*
X249956821Y-74173308D01*
X249945802Y-74135405D01*
X249941183Y-74112743D01*
X249939048Y-74097713D01*
X249937211Y-74080311D01*
X249935757Y-74061903D01*
X249934770Y-74043856D01*
X249934336Y-74027535D01*
X249934538Y-74014305D01*
X249934828Y-74010050D01*
X249941102Y-73962514D01*
X249950922Y-73918422D01*
X249964444Y-73877431D01*
X249981824Y-73839199D01*
X250003221Y-73803385D01*
X250028791Y-73769646D01*
X250058690Y-73737641D01*
X250060760Y-73735639D01*
X250095150Y-73705979D01*
X250132022Y-73680749D01*
X250171358Y-73659959D01*
X250213139Y-73643616D01*
X250257345Y-73631730D01*
X250297403Y-73625066D01*
X250315614Y-73623587D01*
X250337133Y-73623033D01*
X250360420Y-73623345D01*
G36*
X250358754Y-75701212D02*
G01*
X250390097Y-75702777D01*
X250418095Y-75705676D01*
X250444373Y-75710185D01*
X250470557Y-75716581D01*
X250496972Y-75724706D01*
X250542469Y-75742465D01*
X250585258Y-75764407D01*
X250625130Y-75790290D01*
X250661875Y-75819874D01*
X250695283Y-75852916D01*
X250725146Y-75889178D01*
X250751253Y-75928416D01*
X250773395Y-75970391D01*
X250791362Y-76014860D01*
X250804945Y-76061585D01*
X250809785Y-76084418D01*
X250813138Y-76107245D01*
X250815444Y-76133390D01*
X250816662Y-76161193D01*
X250816747Y-76188991D01*
X250815658Y-76215123D01*
X250813673Y-76235585D01*
X250804845Y-76284587D01*
X250791586Y-76331119D01*
X250773846Y-76375283D01*
X250751575Y-76417183D01*
X250724721Y-76456922D01*
X250693234Y-76494604D01*
X250679534Y-76508919D01*
X250668058Y-76520679D01*
X250658458Y-76531139D01*
X250650222Y-76541095D01*
X250642836Y-76551347D01*
X250635784Y-76562690D01*
X250628552Y-76575923D01*
X250620627Y-76591843D01*
X250611493Y-76611249D01*
X250606344Y-76622440D01*
X250576694Y-76691412D01*
X250550867Y-76760701D01*
X250528677Y-76830998D01*
X250509938Y-76902997D01*
X250494466Y-76977388D01*
X250482074Y-77054863D01*
X250475123Y-77111390D01*
X250473904Y-77125754D01*
X250472861Y-77144316D01*
X250471998Y-77166285D01*
X250471319Y-77190867D01*
X250470828Y-77217272D01*
X250470528Y-77244705D01*
X250470424Y-77272376D01*
X250470519Y-77299492D01*
X250470817Y-77325261D01*
X250471321Y-77348890D01*
X250472036Y-77369587D01*
X250472966Y-77386561D01*
X250473753Y-77395870D01*
X250482086Y-77465732D01*
X250492214Y-77531633D01*
X250504345Y-77594438D01*
X250518690Y-77655012D01*
X250535459Y-77714221D01*
X250554863Y-77772930D01*
X250577112Y-77832005D01*
X250583576Y-77847990D01*
X250589132Y-77860905D01*
X250596379Y-77876785D01*
X250604959Y-77894929D01*
X250614519Y-77914636D01*
X250624702Y-77935208D01*
X250635153Y-77955943D01*
X250645517Y-77976141D01*
X250655438Y-77995102D01*
X250664561Y-78012127D01*
X250672531Y-78026514D01*
X250678991Y-78037565D01*
X250682861Y-78043570D01*
X250704478Y-78078644D01*
X250722556Y-78116786D01*
X250736897Y-78157237D01*
X250747305Y-78199238D01*
X250753582Y-78242033D01*
X250755531Y-78284861D01*
X250753979Y-78317165D01*
X250747513Y-78363956D01*
X250736831Y-78407963D01*
X250721865Y-78449335D01*
X250702548Y-78488219D01*
X250678812Y-78524764D01*
X250650589Y-78559117D01*
X250637025Y-78573285D01*
X250603243Y-78603535D01*
X250566774Y-78629533D01*
X250527851Y-78651184D01*
X250486704Y-78668395D01*
X250443565Y-78681072D01*
X250398664Y-78689121D01*
X250352234Y-78692449D01*
X250343076Y-78692540D01*
X250297301Y-78690142D01*
X250252954Y-78683083D01*
X250210313Y-78671559D01*
X250169659Y-78655769D01*
X250131270Y-78635910D01*
X250095425Y-78612179D01*
X250062403Y-78584775D01*
X250032484Y-78553896D01*
X250005946Y-78519738D01*
X249983069Y-78482501D01*
X249964131Y-78442381D01*
X249954937Y-78417493D01*
X249948635Y-78397771D01*
X249943762Y-78380273D01*
X249940143Y-78363822D01*
X249937608Y-78347238D01*
X249935983Y-78329347D01*
X249935096Y-78308969D01*
X249934775Y-78284927D01*
X249934764Y-78279790D01*
X249934801Y-78260036D01*
X249934995Y-78244408D01*
X249935408Y-78231951D01*
X249936105Y-78221710D01*
X249937150Y-78212732D01*
X249938605Y-78204062D01*
X249940406Y-78195337D01*
X249949425Y-78160931D01*
X249961157Y-78127041D01*
X249975112Y-78094806D01*
X249990798Y-78065368D01*
X250006857Y-78041030D01*
X250015818Y-78028683D01*
X250023779Y-78017055D01*
X250031326Y-78005167D01*
X250039046Y-77992043D01*
X250047528Y-77976705D01*
X250057357Y-77958174D01*
X250062102Y-77949064D01*
X250091296Y-77889410D01*
X250117187Y-77829197D01*
X250139926Y-77767878D01*
X250159664Y-77704907D01*
X250176551Y-77639738D01*
X250190738Y-77571824D01*
X250202376Y-77500620D01*
X250211615Y-77425579D01*
X250214419Y-77397140D01*
X250215783Y-77378892D01*
X250216909Y-77356804D01*
X250217793Y-77331778D01*
X250218431Y-77304714D01*
X250218817Y-77276515D01*
X250218947Y-77248082D01*
X250218817Y-77220315D01*
X250218422Y-77194117D01*
X250217757Y-77170389D01*
X250216818Y-77150032D01*
X250215751Y-77135520D01*
X250209484Y-77075123D01*
X250202296Y-77018982D01*
X250194034Y-76966332D01*
X250184546Y-76916408D01*
X250173678Y-76868443D01*
X250161279Y-76821673D01*
X250147195Y-76775332D01*
X250139077Y-76750922D01*
X250127506Y-76718240D01*
X250115887Y-76687963D01*
X250103512Y-76658388D01*
X250089670Y-76627807D01*
X250075515Y-76598310D01*
X250050608Y-76547510D01*
X250030306Y-76529433D01*
X249994914Y-76494615D01*
X249963723Y-76456997D01*
X249936834Y-76416776D01*
X249914344Y-76374146D01*
X249896353Y-76329306D01*
X249882962Y-76282452D01*
X249874268Y-76233779D01*
X249872443Y-76217310D01*
X249870875Y-76196922D01*
X249870273Y-76177959D01*
X249870640Y-76158465D01*
X249871977Y-76136485D01*
X249872520Y-76129680D01*
X249878972Y-76082240D01*
X249890229Y-76035965D01*
X249906081Y-75991210D01*
X249926317Y-75948332D01*
X249950728Y-75907686D01*
X249979102Y-75869627D01*
X250011231Y-75834513D01*
X250046903Y-75802699D01*
X250080010Y-75778413D01*
X250121359Y-75753821D01*
X250164713Y-75733883D01*
X250209983Y-75718623D01*
X250257085Y-75708064D01*
X250305933Y-75702232D01*
X250356439Y-75701149D01*
X250358754Y-75701212D01*
G37*
X250358754Y-75701212D02*
X250390097Y-75702777D01*
X250418095Y-75705676D01*
X250444373Y-75710185D01*
X250470557Y-75716581D01*
X250496972Y-75724706D01*
X250542469Y-75742465D01*
X250585258Y-75764407D01*
X250625130Y-75790290D01*
X250661875Y-75819874D01*
X250695283Y-75852916D01*
X250725146Y-75889178D01*
X250751253Y-75928416D01*
X250773395Y-75970391D01*
X250791362Y-76014860D01*
X250804945Y-76061585D01*
X250809785Y-76084418D01*
X250813138Y-76107245D01*
X250815444Y-76133390D01*
X250816662Y-76161193D01*
X250816747Y-76188991D01*
X250815658Y-76215123D01*
X250813673Y-76235585D01*
X250804845Y-76284587D01*
X250791586Y-76331119D01*
X250773846Y-76375283D01*
X250751575Y-76417183D01*
X250724721Y-76456922D01*
X250693234Y-76494604D01*
X250679534Y-76508919D01*
X250668058Y-76520679D01*
X250658458Y-76531139D01*
X250650222Y-76541095D01*
X250642836Y-76551347D01*
X250635784Y-76562690D01*
X250628552Y-76575923D01*
X250620627Y-76591843D01*
X250611493Y-76611249D01*
X250606344Y-76622440D01*
X250576694Y-76691412D01*
X250550867Y-76760701D01*
X250528677Y-76830998D01*
X250509938Y-76902997D01*
X250494466Y-76977388D01*
X250482074Y-77054863D01*
X250475123Y-77111390D01*
X250473904Y-77125754D01*
X250472861Y-77144316D01*
X250471998Y-77166285D01*
X250471319Y-77190867D01*
X250470828Y-77217272D01*
X250470528Y-77244705D01*
X250470424Y-77272376D01*
X250470519Y-77299492D01*
X250470817Y-77325261D01*
X250471321Y-77348890D01*
X250472036Y-77369587D01*
X250472966Y-77386561D01*
X250473753Y-77395870D01*
X250482086Y-77465732D01*
X250492214Y-77531633D01*
X250504345Y-77594438D01*
X250518690Y-77655012D01*
X250535459Y-77714221D01*
X250554863Y-77772930D01*
X250577112Y-77832005D01*
X250583576Y-77847990D01*
X250589132Y-77860905D01*
X250596379Y-77876785D01*
X250604959Y-77894929D01*
X250614519Y-77914636D01*
X250624702Y-77935208D01*
X250635153Y-77955943D01*
X250645517Y-77976141D01*
X250655438Y-77995102D01*
X250664561Y-78012127D01*
X250672531Y-78026514D01*
X250678991Y-78037565D01*
X250682861Y-78043570D01*
X250704478Y-78078644D01*
X250722556Y-78116786D01*
X250736897Y-78157237D01*
X250747305Y-78199238D01*
X250753582Y-78242033D01*
X250755531Y-78284861D01*
X250753979Y-78317165D01*
X250747513Y-78363956D01*
X250736831Y-78407963D01*
X250721865Y-78449335D01*
X250702548Y-78488219D01*
X250678812Y-78524764D01*
X250650589Y-78559117D01*
X250637025Y-78573285D01*
X250603243Y-78603535D01*
X250566774Y-78629533D01*
X250527851Y-78651184D01*
X250486704Y-78668395D01*
X250443565Y-78681072D01*
X250398664Y-78689121D01*
X250352234Y-78692449D01*
X250343076Y-78692540D01*
X250297301Y-78690142D01*
X250252954Y-78683083D01*
X250210313Y-78671559D01*
X250169659Y-78655769D01*
X250131270Y-78635910D01*
X250095425Y-78612179D01*
X250062403Y-78584775D01*
X250032484Y-78553896D01*
X250005946Y-78519738D01*
X249983069Y-78482501D01*
X249964131Y-78442381D01*
X249954937Y-78417493D01*
X249948635Y-78397771D01*
X249943762Y-78380273D01*
X249940143Y-78363822D01*
X249937608Y-78347238D01*
X249935983Y-78329347D01*
X249935096Y-78308969D01*
X249934775Y-78284927D01*
X249934764Y-78279790D01*
X249934801Y-78260036D01*
X249934995Y-78244408D01*
X249935408Y-78231951D01*
X249936105Y-78221710D01*
X249937150Y-78212732D01*
X249938605Y-78204062D01*
X249940406Y-78195337D01*
X249949425Y-78160931D01*
X249961157Y-78127041D01*
X249975112Y-78094806D01*
X249990798Y-78065368D01*
X250006857Y-78041030D01*
X250015818Y-78028683D01*
X250023779Y-78017055D01*
X250031326Y-78005167D01*
X250039046Y-77992043D01*
X250047528Y-77976705D01*
X250057357Y-77958174D01*
X250062102Y-77949064D01*
X250091296Y-77889410D01*
X250117187Y-77829197D01*
X250139926Y-77767878D01*
X250159664Y-77704907D01*
X250176551Y-77639738D01*
X250190738Y-77571824D01*
X250202376Y-77500620D01*
X250211615Y-77425579D01*
X250214419Y-77397140D01*
X250215783Y-77378892D01*
X250216909Y-77356804D01*
X250217793Y-77331778D01*
X250218431Y-77304714D01*
X250218817Y-77276515D01*
X250218947Y-77248082D01*
X250218817Y-77220315D01*
X250218422Y-77194117D01*
X250217757Y-77170389D01*
X250216818Y-77150032D01*
X250215751Y-77135520D01*
X250209484Y-77075123D01*
X250202296Y-77018982D01*
X250194034Y-76966332D01*
X250184546Y-76916408D01*
X250173678Y-76868443D01*
X250161279Y-76821673D01*
X250147195Y-76775332D01*
X250139077Y-76750922D01*
X250127506Y-76718240D01*
X250115887Y-76687963D01*
X250103512Y-76658388D01*
X250089670Y-76627807D01*
X250075515Y-76598310D01*
X250050608Y-76547510D01*
X250030306Y-76529433D01*
X249994914Y-76494615D01*
X249963723Y-76456997D01*
X249936834Y-76416776D01*
X249914344Y-76374146D01*
X249896353Y-76329306D01*
X249882962Y-76282452D01*
X249874268Y-76233779D01*
X249872443Y-76217310D01*
X249870875Y-76196922D01*
X249870273Y-76177959D01*
X249870640Y-76158465D01*
X249871977Y-76136485D01*
X249872520Y-76129680D01*
X249878972Y-76082240D01*
X249890229Y-76035965D01*
X249906081Y-75991210D01*
X249926317Y-75948332D01*
X249950728Y-75907686D01*
X249979102Y-75869627D01*
X250011231Y-75834513D01*
X250046903Y-75802699D01*
X250080010Y-75778413D01*
X250121359Y-75753821D01*
X250164713Y-75733883D01*
X250209983Y-75718623D01*
X250257085Y-75708064D01*
X250305933Y-75702232D01*
X250356439Y-75701149D01*
X250358754Y-75701212D01*
G36*
X248261015Y-80070635D02*
G01*
X248278994Y-80071173D01*
X248294227Y-80072255D01*
X248307877Y-80074033D01*
X248321108Y-80076656D01*
X248335084Y-80080277D01*
X248350884Y-80085021D01*
X248389353Y-80099617D01*
X248425430Y-80118424D01*
X248458790Y-80141124D01*
X248489103Y-80167400D01*
X248516043Y-80196935D01*
X248539283Y-80229409D01*
X248558494Y-80264506D01*
X248572840Y-80300360D01*
X248578934Y-80319456D01*
X248583519Y-80336032D01*
X248586796Y-80351422D01*
X248588967Y-80366962D01*
X248590232Y-80383984D01*
X248590795Y-80403824D01*
X248590879Y-80419740D01*
X248590594Y-80443704D01*
X248589655Y-80463886D01*
X248587878Y-80481558D01*
X248585080Y-80497996D01*
X248581079Y-80514475D01*
X248575692Y-80532268D01*
X248573983Y-80537441D01*
X248558347Y-80576338D01*
X248538396Y-80612675D01*
X248514293Y-80646183D01*
X248495843Y-80666978D01*
X248465993Y-80694763D01*
X248434007Y-80718241D01*
X248399502Y-80737621D01*
X248362094Y-80753113D01*
X248321400Y-80764924D01*
X248312466Y-80766943D01*
X248302912Y-80768712D01*
X248292462Y-80769991D01*
X248280135Y-80770844D01*
X248264945Y-80771332D01*
X248245912Y-80771519D01*
X248240394Y-80771525D01*
X248217711Y-80771321D01*
X248198813Y-80770585D01*
X248182417Y-80769127D01*
X248167239Y-80766755D01*
X248151998Y-80763281D01*
X248135409Y-80758512D01*
X248120608Y-80753738D01*
X248082658Y-80738505D01*
X248047289Y-80719063D01*
X248014763Y-80695723D01*
X247985343Y-80668794D01*
X247959290Y-80638589D01*
X247936868Y-80605417D01*
X247918339Y-80569589D01*
X247903965Y-80531416D01*
X247894008Y-80491209D01*
X247892715Y-80483838D01*
X247889068Y-80453680D01*
X247887631Y-80422272D01*
X247888522Y-80392352D01*
X247888702Y-80390054D01*
X247894604Y-80347575D01*
X247905033Y-80307115D01*
X247919769Y-80268924D01*
X247938598Y-80233252D01*
X247961302Y-80200349D01*
X247987664Y-80170465D01*
X248017468Y-80143851D01*
X248050496Y-80120755D01*
X248086532Y-80101429D01*
X248125360Y-80086122D01*
X248160673Y-80076396D01*
X248170635Y-80074303D01*
X248179838Y-80072763D01*
X248189356Y-80071693D01*
X248200267Y-80071014D01*
X248213646Y-80070643D01*
X248230569Y-80070501D01*
X248239124Y-80070490D01*
X248261015Y-80070635D01*
G37*
X248261015Y-80070635D02*
X248278994Y-80071173D01*
X248294227Y-80072255D01*
X248307877Y-80074033D01*
X248321108Y-80076656D01*
X248335084Y-80080277D01*
X248350884Y-80085021D01*
X248389353Y-80099617D01*
X248425430Y-80118424D01*
X248458790Y-80141124D01*
X248489103Y-80167400D01*
X248516043Y-80196935D01*
X248539283Y-80229409D01*
X248558494Y-80264506D01*
X248572840Y-80300360D01*
X248578934Y-80319456D01*
X248583519Y-80336032D01*
X248586796Y-80351422D01*
X248588967Y-80366962D01*
X248590232Y-80383984D01*
X248590795Y-80403824D01*
X248590879Y-80419740D01*
X248590594Y-80443704D01*
X248589655Y-80463886D01*
X248587878Y-80481558D01*
X248585080Y-80497996D01*
X248581079Y-80514475D01*
X248575692Y-80532268D01*
X248573983Y-80537441D01*
X248558347Y-80576338D01*
X248538396Y-80612675D01*
X248514293Y-80646183D01*
X248495843Y-80666978D01*
X248465993Y-80694763D01*
X248434007Y-80718241D01*
X248399502Y-80737621D01*
X248362094Y-80753113D01*
X248321400Y-80764924D01*
X248312466Y-80766943D01*
X248302912Y-80768712D01*
X248292462Y-80769991D01*
X248280135Y-80770844D01*
X248264945Y-80771332D01*
X248245912Y-80771519D01*
X248240394Y-80771525D01*
X248217711Y-80771321D01*
X248198813Y-80770585D01*
X248182417Y-80769127D01*
X248167239Y-80766755D01*
X248151998Y-80763281D01*
X248135409Y-80758512D01*
X248120608Y-80753738D01*
X248082658Y-80738505D01*
X248047289Y-80719063D01*
X248014763Y-80695723D01*
X247985343Y-80668794D01*
X247959290Y-80638589D01*
X247936868Y-80605417D01*
X247918339Y-80569589D01*
X247903965Y-80531416D01*
X247894008Y-80491209D01*
X247892715Y-80483838D01*
X247889068Y-80453680D01*
X247887631Y-80422272D01*
X247888522Y-80392352D01*
X247888702Y-80390054D01*
X247894604Y-80347575D01*
X247905033Y-80307115D01*
X247919769Y-80268924D01*
X247938598Y-80233252D01*
X247961302Y-80200349D01*
X247987664Y-80170465D01*
X248017468Y-80143851D01*
X248050496Y-80120755D01*
X248086532Y-80101429D01*
X248125360Y-80086122D01*
X248160673Y-80076396D01*
X248170635Y-80074303D01*
X248179838Y-80072763D01*
X248189356Y-80071693D01*
X248200267Y-80071014D01*
X248213646Y-80070643D01*
X248230569Y-80070501D01*
X248239124Y-80070490D01*
X248261015Y-80070635D01*
G36*
X248264630Y-71565897D02*
G01*
X248285067Y-71567326D01*
X248299117Y-71569173D01*
X248339856Y-71578706D01*
X248379094Y-71592904D01*
X248416440Y-71611476D01*
X248451504Y-71634132D01*
X248483896Y-71660578D01*
X248513225Y-71690524D01*
X248539100Y-71723679D01*
X248561132Y-71759750D01*
X248565372Y-71767943D01*
X248581738Y-71806152D01*
X248593508Y-71846008D01*
X248600639Y-71886951D01*
X248603089Y-71928421D01*
X248600816Y-71969861D01*
X248593776Y-72010709D01*
X248585811Y-72039202D01*
X248570131Y-72079241D01*
X248550262Y-72116582D01*
X248526451Y-72151008D01*
X248498940Y-72182301D01*
X248467976Y-72210246D01*
X248433802Y-72234624D01*
X248396664Y-72255220D01*
X248356806Y-72271816D01*
X248314472Y-72284196D01*
X248307704Y-72285723D01*
X248290724Y-72288417D01*
X248270185Y-72290117D01*
X248247506Y-72290834D01*
X248224109Y-72290580D01*
X248201414Y-72289368D01*
X248180841Y-72287208D01*
X248165671Y-72284545D01*
X248123552Y-72272590D01*
X248083763Y-72256133D01*
X248046430Y-72235248D01*
X248011682Y-72210007D01*
X247979647Y-72180483D01*
X247975081Y-72175687D01*
X247947352Y-72142421D01*
X247923912Y-72106535D01*
X247904905Y-72068307D01*
X247890478Y-72028016D01*
X247883476Y-72000145D01*
X247880968Y-71984966D01*
X247878998Y-71966630D01*
X247877632Y-71946629D01*
X247876933Y-71926452D01*
X247876966Y-71907589D01*
X247877797Y-71891532D01*
X247878486Y-71885340D01*
X247886877Y-71842742D01*
X247899778Y-71802043D01*
X247916943Y-71763536D01*
X247938127Y-71727514D01*
X247963085Y-71694272D01*
X247991572Y-71664103D01*
X248023343Y-71637301D01*
X248058152Y-71614160D01*
X248095753Y-71594973D01*
X248132444Y-71581118D01*
X248146533Y-71577049D01*
X248162429Y-71573093D01*
X248177217Y-71569960D01*
X248180517Y-71569369D01*
X248198519Y-71567128D01*
X248219665Y-71565801D01*
X248242266Y-71565389D01*
X248264630Y-71565897D01*
G37*
X248264630Y-71565897D02*
X248285067Y-71567326D01*
X248299117Y-71569173D01*
X248339856Y-71578706D01*
X248379094Y-71592904D01*
X248416440Y-71611476D01*
X248451504Y-71634132D01*
X248483896Y-71660578D01*
X248513225Y-71690524D01*
X248539100Y-71723679D01*
X248561132Y-71759750D01*
X248565372Y-71767943D01*
X248581738Y-71806152D01*
X248593508Y-71846008D01*
X248600639Y-71886951D01*
X248603089Y-71928421D01*
X248600816Y-71969861D01*
X248593776Y-72010709D01*
X248585811Y-72039202D01*
X248570131Y-72079241D01*
X248550262Y-72116582D01*
X248526451Y-72151008D01*
X248498940Y-72182301D01*
X248467976Y-72210246D01*
X248433802Y-72234624D01*
X248396664Y-72255220D01*
X248356806Y-72271816D01*
X248314472Y-72284196D01*
X248307704Y-72285723D01*
X248290724Y-72288417D01*
X248270185Y-72290117D01*
X248247506Y-72290834D01*
X248224109Y-72290580D01*
X248201414Y-72289368D01*
X248180841Y-72287208D01*
X248165671Y-72284545D01*
X248123552Y-72272590D01*
X248083763Y-72256133D01*
X248046430Y-72235248D01*
X248011682Y-72210007D01*
X247979647Y-72180483D01*
X247975081Y-72175687D01*
X247947352Y-72142421D01*
X247923912Y-72106535D01*
X247904905Y-72068307D01*
X247890478Y-72028016D01*
X247883476Y-72000145D01*
X247880968Y-71984966D01*
X247878998Y-71966630D01*
X247877632Y-71946629D01*
X247876933Y-71926452D01*
X247876966Y-71907589D01*
X247877797Y-71891532D01*
X247878486Y-71885340D01*
X247886877Y-71842742D01*
X247899778Y-71802043D01*
X247916943Y-71763536D01*
X247938127Y-71727514D01*
X247963085Y-71694272D01*
X247991572Y-71664103D01*
X248023343Y-71637301D01*
X248058152Y-71614160D01*
X248095753Y-71594973D01*
X248132444Y-71581118D01*
X248146533Y-71577049D01*
X248162429Y-71573093D01*
X248177217Y-71569960D01*
X248180517Y-71569369D01*
X248198519Y-71567128D01*
X248219665Y-71565801D01*
X248242266Y-71565389D01*
X248264630Y-71565897D01*
G36*
X248275699Y-77745086D02*
G01*
X248315324Y-77749299D01*
X248365663Y-77758970D01*
X248414150Y-77773187D01*
X248460569Y-77791702D01*
X248504703Y-77814264D01*
X248546333Y-77840622D01*
X248585243Y-77870527D01*
X248621214Y-77903729D01*
X248654030Y-77939976D01*
X248683472Y-77979020D01*
X248709323Y-78020609D01*
X248731366Y-78064493D01*
X248749383Y-78110423D01*
X248763157Y-78158147D01*
X248772469Y-78207417D01*
X248777104Y-78257981D01*
X248777604Y-78281060D01*
X248775317Y-78331406D01*
X248768381Y-78380306D01*
X248756688Y-78428215D01*
X248740130Y-78475589D01*
X248721409Y-78517280D01*
X248704460Y-78549340D01*
X248686748Y-78578200D01*
X248667300Y-78605214D01*
X248645147Y-78631736D01*
X248620678Y-78657741D01*
X248588434Y-78688261D01*
X248555660Y-78714702D01*
X248521052Y-78738008D01*
X248483308Y-78759122D01*
X248474074Y-78763753D01*
X248426361Y-78784463D01*
X248377558Y-78800282D01*
X248327946Y-78811210D01*
X248277808Y-78817246D01*
X248227425Y-78818392D01*
X248177081Y-78814646D01*
X248127056Y-78806009D01*
X248077632Y-78792481D01*
X248029092Y-78774062D01*
X248006714Y-78763741D01*
X247960682Y-78738525D01*
X247917805Y-78709483D01*
X247878264Y-78676866D01*
X247842242Y-78640926D01*
X247809921Y-78601916D01*
X247781483Y-78560088D01*
X247757110Y-78515694D01*
X247736984Y-78468985D01*
X247721288Y-78420215D01*
X247710204Y-78369636D01*
X247707092Y-78348874D01*
X247705081Y-78328041D01*
X247703905Y-78303922D01*
X247703560Y-78278204D01*
X247704044Y-78252579D01*
X247705355Y-78228734D01*
X247707274Y-78209940D01*
X247716348Y-78160950D01*
X247730223Y-78112726D01*
X247748630Y-78065761D01*
X247771298Y-78020544D01*
X247797958Y-77977566D01*
X247828337Y-77937320D01*
X247862167Y-77900294D01*
X247893655Y-77871536D01*
X247936001Y-77839236D01*
X247980321Y-77811524D01*
X248026401Y-77788462D01*
X248074026Y-77770113D01*
X248122983Y-77756539D01*
X248173057Y-77747802D01*
X248224034Y-77743963D01*
X248275699Y-77745086D01*
G37*
X248275699Y-77745086D02*
X248315324Y-77749299D01*
X248365663Y-77758970D01*
X248414150Y-77773187D01*
X248460569Y-77791702D01*
X248504703Y-77814264D01*
X248546333Y-77840622D01*
X248585243Y-77870527D01*
X248621214Y-77903729D01*
X248654030Y-77939976D01*
X248683472Y-77979020D01*
X248709323Y-78020609D01*
X248731366Y-78064493D01*
X248749383Y-78110423D01*
X248763157Y-78158147D01*
X248772469Y-78207417D01*
X248777104Y-78257981D01*
X248777604Y-78281060D01*
X248775317Y-78331406D01*
X248768381Y-78380306D01*
X248756688Y-78428215D01*
X248740130Y-78475589D01*
X248721409Y-78517280D01*
X248704460Y-78549340D01*
X248686748Y-78578200D01*
X248667300Y-78605214D01*
X248645147Y-78631736D01*
X248620678Y-78657741D01*
X248588434Y-78688261D01*
X248555660Y-78714702D01*
X248521052Y-78738008D01*
X248483308Y-78759122D01*
X248474074Y-78763753D01*
X248426361Y-78784463D01*
X248377558Y-78800282D01*
X248327946Y-78811210D01*
X248277808Y-78817246D01*
X248227425Y-78818392D01*
X248177081Y-78814646D01*
X248127056Y-78806009D01*
X248077632Y-78792481D01*
X248029092Y-78774062D01*
X248006714Y-78763741D01*
X247960682Y-78738525D01*
X247917805Y-78709483D01*
X247878264Y-78676866D01*
X247842242Y-78640926D01*
X247809921Y-78601916D01*
X247781483Y-78560088D01*
X247757110Y-78515694D01*
X247736984Y-78468985D01*
X247721288Y-78420215D01*
X247710204Y-78369636D01*
X247707092Y-78348874D01*
X247705081Y-78328041D01*
X247703905Y-78303922D01*
X247703560Y-78278204D01*
X247704044Y-78252579D01*
X247705355Y-78228734D01*
X247707274Y-78209940D01*
X247716348Y-78160950D01*
X247730223Y-78112726D01*
X247748630Y-78065761D01*
X247771298Y-78020544D01*
X247797958Y-77977566D01*
X247828337Y-77937320D01*
X247862167Y-77900294D01*
X247893655Y-77871536D01*
X247936001Y-77839236D01*
X247980321Y-77811524D01*
X248026401Y-77788462D01*
X248074026Y-77770113D01*
X248122983Y-77756539D01*
X248173057Y-77747802D01*
X248224034Y-77743963D01*
X248275699Y-77745086D01*
G36*
X248280242Y-73493398D02*
G01*
X248330331Y-73499792D01*
X248342627Y-73502128D01*
X248392369Y-73514672D01*
X248440099Y-73531602D01*
X248485611Y-73552653D01*
X248528700Y-73577558D01*
X248569160Y-73606052D01*
X248606785Y-73637869D01*
X248641370Y-73672743D01*
X248672708Y-73710407D01*
X248700594Y-73750596D01*
X248724822Y-73793043D01*
X248745186Y-73837483D01*
X248761480Y-73883650D01*
X248773499Y-73931276D01*
X248781037Y-73980098D01*
X248783888Y-74029848D01*
X248782604Y-74070868D01*
X248776449Y-74122755D01*
X248765503Y-74173068D01*
X248749747Y-74221849D01*
X248729162Y-74269140D01*
X248703731Y-74314981D01*
X248673434Y-74359413D01*
X248638254Y-74402478D01*
X248629588Y-74412066D01*
X248616229Y-74427829D01*
X248601442Y-74447464D01*
X248585744Y-74470149D01*
X248569651Y-74495061D01*
X248553678Y-74521380D01*
X248538343Y-74548282D01*
X248524160Y-74574947D01*
X248512809Y-74598060D01*
X248485570Y-74661736D01*
X248462269Y-74728061D01*
X248443160Y-74796187D01*
X248428498Y-74865265D01*
X248423408Y-74896510D01*
X248418084Y-74937377D01*
X248414107Y-74978197D01*
X248411536Y-75017915D01*
X248410430Y-75055476D01*
X248410848Y-75089824D01*
X248411687Y-75106060D01*
X248418120Y-75176839D01*
X248427669Y-75244025D01*
X248440468Y-75308136D01*
X248456650Y-75369688D01*
X248476349Y-75429201D01*
X248499698Y-75487192D01*
X248522064Y-75534779D01*
X248547557Y-75583035D01*
X248573564Y-75626862D01*
X248600529Y-75666910D01*
X248628899Y-75703831D01*
X248659122Y-75738274D01*
X248668351Y-75747947D01*
X248705534Y-75789193D01*
X248737940Y-75831546D01*
X248765810Y-75875352D01*
X248786623Y-75915050D01*
X248808320Y-75966453D01*
X248825068Y-76018844D01*
X248836856Y-76072016D01*
X248843672Y-76125759D01*
X248845505Y-76179866D01*
X248842344Y-76234129D01*
X248834177Y-76288339D01*
X248820992Y-76342289D01*
X248811803Y-76371178D01*
X248804458Y-76390456D01*
X248794904Y-76412459D01*
X248783851Y-76435752D01*
X248772007Y-76458901D01*
X248760083Y-76480473D01*
X248748787Y-76499034D01*
X248747818Y-76500520D01*
X248715669Y-76545013D01*
X248679906Y-76586301D01*
X248640853Y-76624159D01*
X248598838Y-76658364D01*
X248554186Y-76688693D01*
X248507224Y-76714921D01*
X248458278Y-76736827D01*
X248407675Y-76754186D01*
X248360488Y-76765837D01*
X248337346Y-76770192D01*
X248316351Y-76773362D01*
X248295871Y-76775502D01*
X248274272Y-76776766D01*
X248249923Y-76777309D01*
X248238723Y-76777359D01*
X248202770Y-76776559D01*
X248169716Y-76773966D01*
X248137623Y-76769343D01*
X248104553Y-76762455D01*
X248092599Y-76759518D01*
X248039953Y-76743584D01*
X247989550Y-76723221D01*
X247941596Y-76698657D01*
X247896300Y-76670118D01*
X247853870Y-76637832D01*
X247814514Y-76602026D01*
X247778441Y-76562925D01*
X247745858Y-76520759D01*
X247716973Y-76475752D01*
X247691995Y-76428132D01*
X247671132Y-76378127D01*
X247654591Y-76325962D01*
X247642582Y-76271866D01*
X247641933Y-76268110D01*
X247639384Y-76249067D01*
X247637445Y-76226381D01*
X247636146Y-76201437D01*
X247635514Y-76175620D01*
X247635581Y-76150316D01*
X247636374Y-76126910D01*
X247637923Y-76106787D01*
X247638437Y-76102394D01*
X247647932Y-76047516D01*
X247662207Y-75994140D01*
X247681134Y-75942534D01*
X247704586Y-75892964D01*
X247732437Y-75845697D01*
X247764558Y-75800999D01*
X247800823Y-75759139D01*
X247803535Y-75756300D01*
X247827499Y-75729528D01*
X247852134Y-75698521D01*
X247876960Y-75663993D01*
X247901499Y-75626656D01*
X247925273Y-75587225D01*
X247947801Y-75546411D01*
X247958723Y-75525160D01*
X247988303Y-75461300D01*
X248013229Y-75396924D01*
X248033696Y-75331380D01*
X248049899Y-75264016D01*
X248062032Y-75194180D01*
X248065597Y-75167020D01*
X248067460Y-75147215D01*
X248068848Y-75123533D01*
X248069761Y-75097103D01*
X248070200Y-75069059D01*
X248070164Y-75040532D01*
X248069655Y-75012655D01*
X248068673Y-74986559D01*
X248067217Y-74963377D01*
X248065516Y-74946040D01*
X248054004Y-74871821D01*
X248037850Y-74799588D01*
X248017010Y-74729226D01*
X247991441Y-74660618D01*
X247961096Y-74593650D01*
X247925932Y-74528206D01*
X247885905Y-74464169D01*
X247872435Y-74444491D01*
X247863043Y-74431340D01*
X247853156Y-74417987D01*
X247843784Y-74405763D01*
X247835934Y-74396003D01*
X247833973Y-74393691D01*
X247809109Y-74363325D01*
X247787705Y-74333480D01*
X247768646Y-74302466D01*
X247750817Y-74268592D01*
X247748995Y-74264850D01*
X247728442Y-74216728D01*
X247712858Y-74167770D01*
X247702242Y-74118193D01*
X247696593Y-74068212D01*
X247695909Y-74018045D01*
X247700189Y-73967906D01*
X247709434Y-73918014D01*
X247723640Y-73868583D01*
X247742808Y-73819831D01*
X247751274Y-73801770D01*
X247776333Y-73756073D01*
X247805065Y-73713499D01*
X247837179Y-73674193D01*
X247872384Y-73638303D01*
X247910388Y-73605978D01*
X247950901Y-73577364D01*
X247993630Y-73552610D01*
X248038285Y-73531862D01*
X248084573Y-73515270D01*
X248132205Y-73502979D01*
X248180888Y-73495139D01*
X248230331Y-73491896D01*
X248280242Y-73493398D01*
G37*
X248280242Y-73493398D02*
X248330331Y-73499792D01*
X248342627Y-73502128D01*
X248392369Y-73514672D01*
X248440099Y-73531602D01*
X248485611Y-73552653D01*
X248528700Y-73577558D01*
X248569160Y-73606052D01*
X248606785Y-73637869D01*
X248641370Y-73672743D01*
X248672708Y-73710407D01*
X248700594Y-73750596D01*
X248724822Y-73793043D01*
X248745186Y-73837483D01*
X248761480Y-73883650D01*
X248773499Y-73931276D01*
X248781037Y-73980098D01*
X248783888Y-74029848D01*
X248782604Y-74070868D01*
X248776449Y-74122755D01*
X248765503Y-74173068D01*
X248749747Y-74221849D01*
X248729162Y-74269140D01*
X248703731Y-74314981D01*
X248673434Y-74359413D01*
X248638254Y-74402478D01*
X248629588Y-74412066D01*
X248616229Y-74427829D01*
X248601442Y-74447464D01*
X248585744Y-74470149D01*
X248569651Y-74495061D01*
X248553678Y-74521380D01*
X248538343Y-74548282D01*
X248524160Y-74574947D01*
X248512809Y-74598060D01*
X248485570Y-74661736D01*
X248462269Y-74728061D01*
X248443160Y-74796187D01*
X248428498Y-74865265D01*
X248423408Y-74896510D01*
X248418084Y-74937377D01*
X248414107Y-74978197D01*
X248411536Y-75017915D01*
X248410430Y-75055476D01*
X248410848Y-75089824D01*
X248411687Y-75106060D01*
X248418120Y-75176839D01*
X248427669Y-75244025D01*
X248440468Y-75308136D01*
X248456650Y-75369688D01*
X248476349Y-75429201D01*
X248499698Y-75487192D01*
X248522064Y-75534779D01*
X248547557Y-75583035D01*
X248573564Y-75626862D01*
X248600529Y-75666910D01*
X248628899Y-75703831D01*
X248659122Y-75738274D01*
X248668351Y-75747947D01*
X248705534Y-75789193D01*
X248737940Y-75831546D01*
X248765810Y-75875352D01*
X248786623Y-75915050D01*
X248808320Y-75966453D01*
X248825068Y-76018844D01*
X248836856Y-76072016D01*
X248843672Y-76125759D01*
X248845505Y-76179866D01*
X248842344Y-76234129D01*
X248834177Y-76288339D01*
X248820992Y-76342289D01*
X248811803Y-76371178D01*
X248804458Y-76390456D01*
X248794904Y-76412459D01*
X248783851Y-76435752D01*
X248772007Y-76458901D01*
X248760083Y-76480473D01*
X248748787Y-76499034D01*
X248747818Y-76500520D01*
X248715669Y-76545013D01*
X248679906Y-76586301D01*
X248640853Y-76624159D01*
X248598838Y-76658364D01*
X248554186Y-76688693D01*
X248507224Y-76714921D01*
X248458278Y-76736827D01*
X248407675Y-76754186D01*
X248360488Y-76765837D01*
X248337346Y-76770192D01*
X248316351Y-76773362D01*
X248295871Y-76775502D01*
X248274272Y-76776766D01*
X248249923Y-76777309D01*
X248238723Y-76777359D01*
X248202770Y-76776559D01*
X248169716Y-76773966D01*
X248137623Y-76769343D01*
X248104553Y-76762455D01*
X248092599Y-76759518D01*
X248039953Y-76743584D01*
X247989550Y-76723221D01*
X247941596Y-76698657D01*
X247896300Y-76670118D01*
X247853870Y-76637832D01*
X247814514Y-76602026D01*
X247778441Y-76562925D01*
X247745858Y-76520759D01*
X247716973Y-76475752D01*
X247691995Y-76428132D01*
X247671132Y-76378127D01*
X247654591Y-76325962D01*
X247642582Y-76271866D01*
X247641933Y-76268110D01*
X247639384Y-76249067D01*
X247637445Y-76226381D01*
X247636146Y-76201437D01*
X247635514Y-76175620D01*
X247635581Y-76150316D01*
X247636374Y-76126910D01*
X247637923Y-76106787D01*
X247638437Y-76102394D01*
X247647932Y-76047516D01*
X247662207Y-75994140D01*
X247681134Y-75942534D01*
X247704586Y-75892964D01*
X247732437Y-75845697D01*
X247764558Y-75800999D01*
X247800823Y-75759139D01*
X247803535Y-75756300D01*
X247827499Y-75729528D01*
X247852134Y-75698521D01*
X247876960Y-75663993D01*
X247901499Y-75626656D01*
X247925273Y-75587225D01*
X247947801Y-75546411D01*
X247958723Y-75525160D01*
X247988303Y-75461300D01*
X248013229Y-75396924D01*
X248033696Y-75331380D01*
X248049899Y-75264016D01*
X248062032Y-75194180D01*
X248065597Y-75167020D01*
X248067460Y-75147215D01*
X248068848Y-75123533D01*
X248069761Y-75097103D01*
X248070200Y-75069059D01*
X248070164Y-75040532D01*
X248069655Y-75012655D01*
X248068673Y-74986559D01*
X248067217Y-74963377D01*
X248065516Y-74946040D01*
X248054004Y-74871821D01*
X248037850Y-74799588D01*
X248017010Y-74729226D01*
X247991441Y-74660618D01*
X247961096Y-74593650D01*
X247925932Y-74528206D01*
X247885905Y-74464169D01*
X247872435Y-74444491D01*
X247863043Y-74431340D01*
X247853156Y-74417987D01*
X247843784Y-74405763D01*
X247835934Y-74396003D01*
X247833973Y-74393691D01*
X247809109Y-74363325D01*
X247787705Y-74333480D01*
X247768646Y-74302466D01*
X247750817Y-74268592D01*
X247748995Y-74264850D01*
X247728442Y-74216728D01*
X247712858Y-74167770D01*
X247702242Y-74118193D01*
X247696593Y-74068212D01*
X247695909Y-74018045D01*
X247700189Y-73967906D01*
X247709434Y-73918014D01*
X247723640Y-73868583D01*
X247742808Y-73819831D01*
X247751274Y-73801770D01*
X247776333Y-73756073D01*
X247805065Y-73713499D01*
X247837179Y-73674193D01*
X247872384Y-73638303D01*
X247910388Y-73605978D01*
X247950901Y-73577364D01*
X247993630Y-73552610D01*
X248038285Y-73531862D01*
X248084573Y-73515270D01*
X248132205Y-73502979D01*
X248180888Y-73495139D01*
X248230331Y-73491896D01*
X248280242Y-73493398D01*
G36*
X246144290Y-79990771D02*
G01*
X246188903Y-79997574D01*
X246232602Y-80009020D01*
X246274980Y-80025013D01*
X246315633Y-80045454D01*
X246354157Y-80070248D01*
X246376034Y-80087134D01*
X246411210Y-80119305D01*
X246442193Y-80154344D01*
X246468979Y-80192242D01*
X246491563Y-80232994D01*
X246509940Y-80276589D01*
X246524105Y-80323021D01*
X246526601Y-80333380D01*
X246528798Y-80343265D01*
X246530459Y-80351926D01*
X246531658Y-80360333D01*
X246532469Y-80369456D01*
X246532968Y-80380265D01*
X246533229Y-80393730D01*
X246533326Y-80410820D01*
X246533337Y-80421010D01*
X246533287Y-80440753D01*
X246533084Y-80456361D01*
X246532665Y-80468780D01*
X246531966Y-80478953D01*
X246530923Y-80487827D01*
X246529474Y-80496345D01*
X246527692Y-80504830D01*
X246515059Y-80551315D01*
X246498502Y-80594683D01*
X246477852Y-80635234D01*
X246452943Y-80673271D01*
X246423605Y-80709094D01*
X246401076Y-80732308D01*
X246378439Y-80753091D01*
X246356691Y-80770570D01*
X246334240Y-80785873D01*
X246309494Y-80800129D01*
X246294478Y-80807858D01*
X246251407Y-80826555D01*
X246207454Y-80840346D01*
X246162920Y-80849264D01*
X246118111Y-80853342D01*
X246073329Y-80852612D01*
X246028878Y-80847110D01*
X245985062Y-80836866D01*
X245942184Y-80821915D01*
X245900548Y-80802290D01*
X245860457Y-80778023D01*
X245832362Y-80757413D01*
X245824884Y-80751037D01*
X245815077Y-80742026D01*
X245804078Y-80731458D01*
X245793025Y-80720409D01*
X245790184Y-80717487D01*
X245760075Y-80682695D01*
X245733894Y-80644818D01*
X245711827Y-80604208D01*
X245694061Y-80561217D01*
X245680780Y-80516195D01*
X245678632Y-80506763D01*
X245676579Y-80496152D01*
X245675038Y-80485198D01*
X245673922Y-80472839D01*
X245673147Y-80458011D01*
X245672627Y-80439649D01*
X245672453Y-80429900D01*
X245672260Y-80413647D01*
X245672195Y-80398698D01*
X245672254Y-80385956D01*
X245672430Y-80376326D01*
X245672720Y-80370712D01*
X245672782Y-80370210D01*
X245679929Y-80331358D01*
X245689438Y-80295636D01*
X245701799Y-80261451D01*
X245715854Y-80230510D01*
X245729912Y-80204121D01*
X245744877Y-80180249D01*
X245761692Y-80157601D01*
X245781303Y-80134882D01*
X245799399Y-80116026D01*
X245834404Y-80084196D01*
X245871440Y-80056997D01*
X245910678Y-80034336D01*
X245952288Y-80016116D01*
X245996440Y-80002244D01*
X246009004Y-79999189D01*
X246053935Y-79991481D01*
X246099165Y-79988707D01*
X246144290Y-79990771D01*
G37*
X246144290Y-79990771D02*
X246188903Y-79997574D01*
X246232602Y-80009020D01*
X246274980Y-80025013D01*
X246315633Y-80045454D01*
X246354157Y-80070248D01*
X246376034Y-80087134D01*
X246411210Y-80119305D01*
X246442193Y-80154344D01*
X246468979Y-80192242D01*
X246491563Y-80232994D01*
X246509940Y-80276589D01*
X246524105Y-80323021D01*
X246526601Y-80333380D01*
X246528798Y-80343265D01*
X246530459Y-80351926D01*
X246531658Y-80360333D01*
X246532469Y-80369456D01*
X246532968Y-80380265D01*
X246533229Y-80393730D01*
X246533326Y-80410820D01*
X246533337Y-80421010D01*
X246533287Y-80440753D01*
X246533084Y-80456361D01*
X246532665Y-80468780D01*
X246531966Y-80478953D01*
X246530923Y-80487827D01*
X246529474Y-80496345D01*
X246527692Y-80504830D01*
X246515059Y-80551315D01*
X246498502Y-80594683D01*
X246477852Y-80635234D01*
X246452943Y-80673271D01*
X246423605Y-80709094D01*
X246401076Y-80732308D01*
X246378439Y-80753091D01*
X246356691Y-80770570D01*
X246334240Y-80785873D01*
X246309494Y-80800129D01*
X246294478Y-80807858D01*
X246251407Y-80826555D01*
X246207454Y-80840346D01*
X246162920Y-80849264D01*
X246118111Y-80853342D01*
X246073329Y-80852612D01*
X246028878Y-80847110D01*
X245985062Y-80836866D01*
X245942184Y-80821915D01*
X245900548Y-80802290D01*
X245860457Y-80778023D01*
X245832362Y-80757413D01*
X245824884Y-80751037D01*
X245815077Y-80742026D01*
X245804078Y-80731458D01*
X245793025Y-80720409D01*
X245790184Y-80717487D01*
X245760075Y-80682695D01*
X245733894Y-80644818D01*
X245711827Y-80604208D01*
X245694061Y-80561217D01*
X245680780Y-80516195D01*
X245678632Y-80506763D01*
X245676579Y-80496152D01*
X245675038Y-80485198D01*
X245673922Y-80472839D01*
X245673147Y-80458011D01*
X245672627Y-80439649D01*
X245672453Y-80429900D01*
X245672260Y-80413647D01*
X245672195Y-80398698D01*
X245672254Y-80385956D01*
X245672430Y-80376326D01*
X245672720Y-80370712D01*
X245672782Y-80370210D01*
X245679929Y-80331358D01*
X245689438Y-80295636D01*
X245701799Y-80261451D01*
X245715854Y-80230510D01*
X245729912Y-80204121D01*
X245744877Y-80180249D01*
X245761692Y-80157601D01*
X245781303Y-80134882D01*
X245799399Y-80116026D01*
X245834404Y-80084196D01*
X245871440Y-80056997D01*
X245910678Y-80034336D01*
X245952288Y-80016116D01*
X245996440Y-80002244D01*
X246009004Y-79999189D01*
X246053935Y-79991481D01*
X246099165Y-79988707D01*
X246144290Y-79990771D01*
G36*
X246135108Y-71465026D02*
G01*
X246182817Y-71470941D01*
X246193154Y-71472877D01*
X246224329Y-71480724D01*
X246257115Y-71491975D01*
X246290050Y-71505991D01*
X246321667Y-71522135D01*
X246350503Y-71539768D01*
X246356984Y-71544248D01*
X246373754Y-71557256D01*
X246392085Y-71573362D01*
X246410798Y-71591387D01*
X246428715Y-71610152D01*
X246444658Y-71628476D01*
X246456648Y-71644040D01*
X246479921Y-71680938D01*
X246499929Y-71721184D01*
X246516321Y-71763964D01*
X246528746Y-71808465D01*
X246530049Y-71814325D01*
X246531976Y-71823838D01*
X246533429Y-71832781D01*
X246534475Y-71842122D01*
X246535181Y-71852827D01*
X246535614Y-71865860D01*
X246535841Y-71882189D01*
X246535920Y-71899310D01*
X246535878Y-71920496D01*
X246535609Y-71937502D01*
X246535067Y-71951225D01*
X246534202Y-71962561D01*
X246532965Y-71972406D01*
X246531523Y-71980590D01*
X246519918Y-72026640D01*
X246503864Y-72070589D01*
X246483550Y-72112161D01*
X246459163Y-72151079D01*
X246430893Y-72187067D01*
X246398928Y-72219849D01*
X246363456Y-72249148D01*
X246335394Y-72268216D01*
X246295033Y-72290451D01*
X246252790Y-72308181D01*
X246209102Y-72321382D01*
X246164404Y-72330027D01*
X246119131Y-72334091D01*
X246073719Y-72333549D01*
X246028604Y-72328373D01*
X245984221Y-72318539D01*
X245941006Y-72304021D01*
X245915809Y-72293046D01*
X245874198Y-72270542D01*
X245835861Y-72244229D01*
X245800962Y-72214319D01*
X245769665Y-72181021D01*
X245742134Y-72144544D01*
X245718534Y-72105099D01*
X245699028Y-72062893D01*
X245683782Y-72018139D01*
X245676054Y-71986940D01*
X245673474Y-71971147D01*
X245671474Y-71951585D01*
X245670081Y-71929535D01*
X245669324Y-71906277D01*
X245669230Y-71883093D01*
X245669827Y-71861264D01*
X245671142Y-71842070D01*
X245672638Y-71830046D01*
X245682428Y-71784499D01*
X245696803Y-71740746D01*
X245715538Y-71699094D01*
X245738408Y-71659849D01*
X245765191Y-71623318D01*
X245795660Y-71589809D01*
X245829591Y-71559629D01*
X245866760Y-71533084D01*
X245906134Y-71510880D01*
X245950326Y-71491695D01*
X245995417Y-71477504D01*
X246041310Y-71468320D01*
X246087907Y-71464157D01*
X246135108Y-71465026D01*
G37*
X246135108Y-71465026D02*
X246182817Y-71470941D01*
X246193154Y-71472877D01*
X246224329Y-71480724D01*
X246257115Y-71491975D01*
X246290050Y-71505991D01*
X246321667Y-71522135D01*
X246350503Y-71539768D01*
X246356984Y-71544248D01*
X246373754Y-71557256D01*
X246392085Y-71573362D01*
X246410798Y-71591387D01*
X246428715Y-71610152D01*
X246444658Y-71628476D01*
X246456648Y-71644040D01*
X246479921Y-71680938D01*
X246499929Y-71721184D01*
X246516321Y-71763964D01*
X246528746Y-71808465D01*
X246530049Y-71814325D01*
X246531976Y-71823838D01*
X246533429Y-71832781D01*
X246534475Y-71842122D01*
X246535181Y-71852827D01*
X246535614Y-71865860D01*
X246535841Y-71882189D01*
X246535920Y-71899310D01*
X246535878Y-71920496D01*
X246535609Y-71937502D01*
X246535067Y-71951225D01*
X246534202Y-71962561D01*
X246532965Y-71972406D01*
X246531523Y-71980590D01*
X246519918Y-72026640D01*
X246503864Y-72070589D01*
X246483550Y-72112161D01*
X246459163Y-72151079D01*
X246430893Y-72187067D01*
X246398928Y-72219849D01*
X246363456Y-72249148D01*
X246335394Y-72268216D01*
X246295033Y-72290451D01*
X246252790Y-72308181D01*
X246209102Y-72321382D01*
X246164404Y-72330027D01*
X246119131Y-72334091D01*
X246073719Y-72333549D01*
X246028604Y-72328373D01*
X245984221Y-72318539D01*
X245941006Y-72304021D01*
X245915809Y-72293046D01*
X245874198Y-72270542D01*
X245835861Y-72244229D01*
X245800962Y-72214319D01*
X245769665Y-72181021D01*
X245742134Y-72144544D01*
X245718534Y-72105099D01*
X245699028Y-72062893D01*
X245683782Y-72018139D01*
X245676054Y-71986940D01*
X245673474Y-71971147D01*
X245671474Y-71951585D01*
X245670081Y-71929535D01*
X245669324Y-71906277D01*
X245669230Y-71883093D01*
X245669827Y-71861264D01*
X245671142Y-71842070D01*
X245672638Y-71830046D01*
X245682428Y-71784499D01*
X245696803Y-71740746D01*
X245715538Y-71699094D01*
X245738408Y-71659849D01*
X245765191Y-71623318D01*
X245795660Y-71589809D01*
X245829591Y-71559629D01*
X245866760Y-71533084D01*
X245906134Y-71510880D01*
X245950326Y-71491695D01*
X245995417Y-71477504D01*
X246041310Y-71468320D01*
X246087907Y-71464157D01*
X246135108Y-71465026D01*
G36*
X244060313Y-79963961D02*
G01*
X244107103Y-79973366D01*
X244133214Y-79980850D01*
X244150951Y-79987310D01*
X244171396Y-79996097D01*
X244193173Y-80006515D01*
X244214909Y-80017870D01*
X244235227Y-80029465D01*
X244252753Y-80040606D01*
X244256404Y-80043145D01*
X244270492Y-80054043D01*
X244286672Y-80068034D01*
X244303980Y-80084154D01*
X244321452Y-80101438D01*
X244338123Y-80118921D01*
X244353028Y-80135639D01*
X244365203Y-80150628D01*
X244368849Y-80155580D01*
X244378728Y-80170652D01*
X244389494Y-80189048D01*
X244400468Y-80209432D01*
X244410975Y-80230469D01*
X244420338Y-80250825D01*
X244427880Y-80269163D01*
X244431291Y-80278770D01*
X244443755Y-80324980D01*
X244451206Y-80371645D01*
X244453645Y-80418506D01*
X244451072Y-80465306D01*
X244443485Y-80511789D01*
X244431714Y-80555173D01*
X244414518Y-80599994D01*
X244393020Y-80642378D01*
X244367502Y-80682081D01*
X244338245Y-80718856D01*
X244305532Y-80752458D01*
X244269643Y-80782642D01*
X244230861Y-80809161D01*
X244189466Y-80831770D01*
X244145741Y-80850225D01*
X244099968Y-80864278D01*
X244069714Y-80870851D01*
X244053662Y-80873054D01*
X244034030Y-80874600D01*
X244012126Y-80875486D01*
X243989257Y-80875712D01*
X243966729Y-80875275D01*
X243945850Y-80874174D01*
X243927927Y-80872408D01*
X243919256Y-80871050D01*
X243871391Y-80859527D01*
X243825617Y-80843453D01*
X243782170Y-80823006D01*
X243741283Y-80798364D01*
X243703192Y-80769704D01*
X243668132Y-80737205D01*
X243636338Y-80701043D01*
X243608044Y-80661398D01*
X243583486Y-80618447D01*
X243582230Y-80615956D01*
X243565439Y-80577593D01*
X243552130Y-80536950D01*
X243542498Y-80495027D01*
X243536733Y-80452824D01*
X243535028Y-80411342D01*
X243536740Y-80379100D01*
X243543957Y-80331728D01*
X243555958Y-80285636D01*
X243572530Y-80241173D01*
X243593464Y-80198686D01*
X243618547Y-80158524D01*
X243647571Y-80121037D01*
X243680322Y-80086573D01*
X243716591Y-80055480D01*
X243744594Y-80035488D01*
X243786463Y-80010829D01*
X243829879Y-79990917D01*
X243874559Y-79975793D01*
X243920224Y-79965496D01*
X243966592Y-79960065D01*
X244013382Y-79959540D01*
X244060313Y-79963961D01*
G37*
X244060313Y-79963961D02*
X244107103Y-79973366D01*
X244133214Y-79980850D01*
X244150951Y-79987310D01*
X244171396Y-79996097D01*
X244193173Y-80006515D01*
X244214909Y-80017870D01*
X244235227Y-80029465D01*
X244252753Y-80040606D01*
X244256404Y-80043145D01*
X244270492Y-80054043D01*
X244286672Y-80068034D01*
X244303980Y-80084154D01*
X244321452Y-80101438D01*
X244338123Y-80118921D01*
X244353028Y-80135639D01*
X244365203Y-80150628D01*
X244368849Y-80155580D01*
X244378728Y-80170652D01*
X244389494Y-80189048D01*
X244400468Y-80209432D01*
X244410975Y-80230469D01*
X244420338Y-80250825D01*
X244427880Y-80269163D01*
X244431291Y-80278770D01*
X244443755Y-80324980D01*
X244451206Y-80371645D01*
X244453645Y-80418506D01*
X244451072Y-80465306D01*
X244443485Y-80511789D01*
X244431714Y-80555173D01*
X244414518Y-80599994D01*
X244393020Y-80642378D01*
X244367502Y-80682081D01*
X244338245Y-80718856D01*
X244305532Y-80752458D01*
X244269643Y-80782642D01*
X244230861Y-80809161D01*
X244189466Y-80831770D01*
X244145741Y-80850225D01*
X244099968Y-80864278D01*
X244069714Y-80870851D01*
X244053662Y-80873054D01*
X244034030Y-80874600D01*
X244012126Y-80875486D01*
X243989257Y-80875712D01*
X243966729Y-80875275D01*
X243945850Y-80874174D01*
X243927927Y-80872408D01*
X243919256Y-80871050D01*
X243871391Y-80859527D01*
X243825617Y-80843453D01*
X243782170Y-80823006D01*
X243741283Y-80798364D01*
X243703192Y-80769704D01*
X243668132Y-80737205D01*
X243636338Y-80701043D01*
X243608044Y-80661398D01*
X243583486Y-80618447D01*
X243582230Y-80615956D01*
X243565439Y-80577593D01*
X243552130Y-80536950D01*
X243542498Y-80495027D01*
X243536733Y-80452824D01*
X243535028Y-80411342D01*
X243536740Y-80379100D01*
X243543957Y-80331728D01*
X243555958Y-80285636D01*
X243572530Y-80241173D01*
X243593464Y-80198686D01*
X243618547Y-80158524D01*
X243647571Y-80121037D01*
X243680322Y-80086573D01*
X243716591Y-80055480D01*
X243744594Y-80035488D01*
X243786463Y-80010829D01*
X243829879Y-79990917D01*
X243874559Y-79975793D01*
X243920224Y-79965496D01*
X243966592Y-79960065D01*
X244013382Y-79959540D01*
X244060313Y-79963961D01*
G36*
X244061625Y-71441030D02*
G01*
X244107898Y-71450161D01*
X244152403Y-71463749D01*
X244194891Y-71481564D01*
X244235115Y-71503374D01*
X244272826Y-71528949D01*
X244307774Y-71558059D01*
X244339711Y-71590472D01*
X244368389Y-71625958D01*
X244393559Y-71664285D01*
X244414971Y-71705224D01*
X244432378Y-71748544D01*
X244445530Y-71794013D01*
X244454180Y-71841401D01*
X244454715Y-71845638D01*
X244456126Y-71862792D01*
X244456742Y-71883337D01*
X244456613Y-71905870D01*
X244455789Y-71928988D01*
X244454321Y-71951287D01*
X244452259Y-71971362D01*
X244449654Y-71987810D01*
X244449603Y-71988062D01*
X244440777Y-72023459D01*
X244428801Y-72059454D01*
X244414255Y-72094646D01*
X244397718Y-72127634D01*
X244379770Y-72157017D01*
X244379700Y-72157120D01*
X244350660Y-72195441D01*
X244318130Y-72230469D01*
X244282505Y-72261870D01*
X244244179Y-72289313D01*
X244203548Y-72312466D01*
X244183881Y-72321721D01*
X244137937Y-72339265D01*
X244091232Y-72351889D01*
X244044055Y-72359597D01*
X243996692Y-72362391D01*
X243949431Y-72360275D01*
X243902560Y-72353253D01*
X243856367Y-72341327D01*
X243811140Y-72324501D01*
X243795240Y-72317288D01*
X243753154Y-72294520D01*
X243714152Y-72267895D01*
X243678412Y-72237722D01*
X243646114Y-72204312D01*
X243617437Y-72167975D01*
X243592562Y-72129021D01*
X243571667Y-72087761D01*
X243554932Y-72044506D01*
X243542537Y-71999565D01*
X243534661Y-71953249D01*
X243531482Y-71905869D01*
X243532732Y-71863306D01*
X243538799Y-71815744D01*
X243549700Y-71769387D01*
X243565271Y-71724589D01*
X243585346Y-71681701D01*
X243609760Y-71641076D01*
X243638349Y-71603066D01*
X243670947Y-71568023D01*
X243671290Y-71567691D01*
X243708031Y-71535632D01*
X243747348Y-71507827D01*
X243788935Y-71484395D01*
X243832489Y-71465451D01*
X243877703Y-71451113D01*
X243924273Y-71441497D01*
X243971893Y-71436720D01*
X244013834Y-71436588D01*
X244061625Y-71441030D01*
G37*
X244061625Y-71441030D02*
X244107898Y-71450161D01*
X244152403Y-71463749D01*
X244194891Y-71481564D01*
X244235115Y-71503374D01*
X244272826Y-71528949D01*
X244307774Y-71558059D01*
X244339711Y-71590472D01*
X244368389Y-71625958D01*
X244393559Y-71664285D01*
X244414971Y-71705224D01*
X244432378Y-71748544D01*
X244445530Y-71794013D01*
X244454180Y-71841401D01*
X244454715Y-71845638D01*
X244456126Y-71862792D01*
X244456742Y-71883337D01*
X244456613Y-71905870D01*
X244455789Y-71928988D01*
X244454321Y-71951287D01*
X244452259Y-71971362D01*
X244449654Y-71987810D01*
X244449603Y-71988062D01*
X244440777Y-72023459D01*
X244428801Y-72059454D01*
X244414255Y-72094646D01*
X244397718Y-72127634D01*
X244379770Y-72157017D01*
X244379700Y-72157120D01*
X244350660Y-72195441D01*
X244318130Y-72230469D01*
X244282505Y-72261870D01*
X244244179Y-72289313D01*
X244203548Y-72312466D01*
X244183881Y-72321721D01*
X244137937Y-72339265D01*
X244091232Y-72351889D01*
X244044055Y-72359597D01*
X243996692Y-72362391D01*
X243949431Y-72360275D01*
X243902560Y-72353253D01*
X243856367Y-72341327D01*
X243811140Y-72324501D01*
X243795240Y-72317288D01*
X243753154Y-72294520D01*
X243714152Y-72267895D01*
X243678412Y-72237722D01*
X243646114Y-72204312D01*
X243617437Y-72167975D01*
X243592562Y-72129021D01*
X243571667Y-72087761D01*
X243554932Y-72044506D01*
X243542537Y-71999565D01*
X243534661Y-71953249D01*
X243531482Y-71905869D01*
X243532732Y-71863306D01*
X243538799Y-71815744D01*
X243549700Y-71769387D01*
X243565271Y-71724589D01*
X243585346Y-71681701D01*
X243609760Y-71641076D01*
X243638349Y-71603066D01*
X243670947Y-71568023D01*
X243671290Y-71567691D01*
X243708031Y-71535632D01*
X243747348Y-71507827D01*
X243788935Y-71484395D01*
X243832489Y-71465451D01*
X243877703Y-71451113D01*
X243924273Y-71441497D01*
X243971893Y-71436720D01*
X244013834Y-71436588D01*
X244061625Y-71441030D01*
G36*
X244028286Y-73372384D02*
G01*
X244086067Y-73377689D01*
X244118182Y-73382797D01*
X244173931Y-73395589D01*
X244228233Y-73413224D01*
X244280888Y-73435620D01*
X244331697Y-73462695D01*
X244364354Y-73483245D01*
X244408143Y-73515284D01*
X244449496Y-73550964D01*
X244487594Y-73589519D01*
X244521618Y-73630184D01*
X244521930Y-73630592D01*
X244531593Y-73642982D01*
X244540236Y-73653293D01*
X244548811Y-73662458D01*
X244558270Y-73671409D01*
X244569563Y-73681080D01*
X244583642Y-73692401D01*
X244590414Y-73697716D01*
X244619896Y-73719449D01*
X244652192Y-73740942D01*
X244686157Y-73761544D01*
X244720650Y-73780608D01*
X244754528Y-73797485D01*
X244786649Y-73811527D01*
X244799964Y-73816653D01*
X244838723Y-73829654D01*
X244879411Y-73841062D01*
X244921085Y-73850715D01*
X244962801Y-73858452D01*
X245003616Y-73864110D01*
X245042586Y-73867530D01*
X245078768Y-73868550D01*
X245099684Y-73867888D01*
X245165343Y-73861833D01*
X245228351Y-73851512D01*
X245288916Y-73836853D01*
X245347248Y-73817789D01*
X245403558Y-73794250D01*
X245458054Y-73766166D01*
X245510945Y-73733467D01*
X245516244Y-73729880D01*
X245538007Y-73714623D01*
X245556123Y-73700935D01*
X245571459Y-73688050D01*
X245584880Y-73675206D01*
X245597253Y-73661637D01*
X245606814Y-73649956D01*
X245643341Y-73607420D01*
X245682985Y-73568572D01*
X245725441Y-73533540D01*
X245770407Y-73502450D01*
X245817578Y-73475428D01*
X245866650Y-73452600D01*
X245917320Y-73434092D01*
X245969283Y-73420031D01*
X246022236Y-73410543D01*
X246075876Y-73405753D01*
X246129897Y-73405789D01*
X246182994Y-73410638D01*
X246238512Y-73420784D01*
X246292598Y-73435722D01*
X246344985Y-73455301D01*
X246395406Y-73479367D01*
X246443594Y-73507770D01*
X246489283Y-73540355D01*
X246532205Y-73576972D01*
X246572094Y-73617467D01*
X246597099Y-73646830D01*
X246621787Y-73680194D01*
X246645392Y-73717114D01*
X246667058Y-73756071D01*
X246685926Y-73795544D01*
X246698415Y-73826430D01*
X246714162Y-73876245D01*
X246725529Y-73928084D01*
X246732462Y-73981307D01*
X246734910Y-74035277D01*
X246732819Y-74089357D01*
X246726137Y-74142909D01*
X246725097Y-74148860D01*
X246713346Y-74200242D01*
X246696706Y-74251266D01*
X246675372Y-74301501D01*
X246649534Y-74350517D01*
X246619384Y-74397882D01*
X246605480Y-74417182D01*
X246593601Y-74431991D01*
X246578605Y-74448979D01*
X246561410Y-74467240D01*
X246542931Y-74485864D01*
X246524085Y-74503943D01*
X246505788Y-74520568D01*
X246488957Y-74534831D01*
X246478904Y-74542652D01*
X246431173Y-74575154D01*
X246382050Y-74602820D01*
X246331246Y-74625774D01*
X246278468Y-74644140D01*
X246223428Y-74658042D01*
X246195694Y-74663237D01*
X246179591Y-74665272D01*
X246159600Y-74666777D01*
X246136884Y-74667752D01*
X246112610Y-74668197D01*
X246087941Y-74668112D01*
X246064040Y-74667497D01*
X246042074Y-74666352D01*
X246023205Y-74664676D01*
X246012814Y-74663247D01*
X245955392Y-74651214D01*
X245900193Y-74634657D01*
X245847339Y-74613645D01*
X245796952Y-74588247D01*
X245749155Y-74558534D01*
X245704069Y-74524573D01*
X245661818Y-74486436D01*
X245622523Y-74444191D01*
X245617817Y-74438617D01*
X245599502Y-74418887D01*
X245576937Y-74398244D01*
X245550777Y-74377115D01*
X245521673Y-74355925D01*
X245490277Y-74335100D01*
X245457242Y-74315066D01*
X245423219Y-74296250D01*
X245388862Y-74279076D01*
X245354821Y-74263972D01*
X245343358Y-74259354D01*
X245284811Y-74239020D01*
X245225905Y-74223746D01*
X245166722Y-74213528D01*
X245107348Y-74208366D01*
X245047866Y-74208257D01*
X244988359Y-74213199D01*
X244928912Y-74223191D01*
X244869608Y-74238231D01*
X244810531Y-74258316D01*
X244777724Y-74271705D01*
X244732166Y-74293412D01*
X244685751Y-74319359D01*
X244639327Y-74349002D01*
X244593742Y-74381797D01*
X244549846Y-74417199D01*
X244546476Y-74420090D01*
X244538940Y-74427283D01*
X244529839Y-74437001D01*
X244520611Y-74447673D01*
X244516081Y-74453280D01*
X244504959Y-74466605D01*
X244490922Y-74482124D01*
X244474989Y-74498816D01*
X244458176Y-74515657D01*
X244441502Y-74531626D01*
X244425985Y-74545701D01*
X244413884Y-74555878D01*
X244381225Y-74580060D01*
X244345264Y-74603368D01*
X244307418Y-74625006D01*
X244269105Y-74644176D01*
X244231743Y-74660082D01*
X244222114Y-74663673D01*
X244168609Y-74680377D01*
X244113646Y-74692513D01*
X244057730Y-74700080D01*
X244001363Y-74703078D01*
X243945050Y-74701507D01*
X243889294Y-74695366D01*
X243834597Y-74684656D01*
X243781465Y-74669376D01*
X243765910Y-74663903D01*
X243712739Y-74641720D01*
X243662195Y-74615310D01*
X243614464Y-74584901D01*
X243569731Y-74550722D01*
X243528179Y-74513000D01*
X243489994Y-74471963D01*
X243455361Y-74427839D01*
X243424464Y-74380856D01*
X243397487Y-74331240D01*
X243374617Y-74279221D01*
X243356037Y-74225025D01*
X243341932Y-74168881D01*
X243335523Y-74133240D01*
X243334413Y-74123689D01*
X243333362Y-74110419D01*
X243332398Y-74094377D01*
X243331551Y-74076507D01*
X243330851Y-74057755D01*
X243330327Y-74039067D01*
X243330009Y-74021389D01*
X243329927Y-74005667D01*
X243330111Y-73992845D01*
X243330589Y-73983871D01*
X243330789Y-73982110D01*
X243331541Y-73976223D01*
X243332667Y-73966892D01*
X243333973Y-73955721D01*
X243334587Y-73950360D01*
X243343073Y-73897752D01*
X243356405Y-73845465D01*
X243374356Y-73793978D01*
X243396695Y-73743772D01*
X243423192Y-73695324D01*
X243453617Y-73649115D01*
X243487740Y-73605624D01*
X243513454Y-73577312D01*
X243555800Y-73536994D01*
X243600885Y-73500854D01*
X243648443Y-73468978D01*
X243698209Y-73441449D01*
X243749917Y-73418355D01*
X243803301Y-73399780D01*
X243858095Y-73385810D01*
X243914035Y-73376531D01*
X243970854Y-73372027D01*
X244028286Y-73372384D01*
G37*
X244028286Y-73372384D02*
X244086067Y-73377689D01*
X244118182Y-73382797D01*
X244173931Y-73395589D01*
X244228233Y-73413224D01*
X244280888Y-73435620D01*
X244331697Y-73462695D01*
X244364354Y-73483245D01*
X244408143Y-73515284D01*
X244449496Y-73550964D01*
X244487594Y-73589519D01*
X244521618Y-73630184D01*
X244521930Y-73630592D01*
X244531593Y-73642982D01*
X244540236Y-73653293D01*
X244548811Y-73662458D01*
X244558270Y-73671409D01*
X244569563Y-73681080D01*
X244583642Y-73692401D01*
X244590414Y-73697716D01*
X244619896Y-73719449D01*
X244652192Y-73740942D01*
X244686157Y-73761544D01*
X244720650Y-73780608D01*
X244754528Y-73797485D01*
X244786649Y-73811527D01*
X244799964Y-73816653D01*
X244838723Y-73829654D01*
X244879411Y-73841062D01*
X244921085Y-73850715D01*
X244962801Y-73858452D01*
X245003616Y-73864110D01*
X245042586Y-73867530D01*
X245078768Y-73868550D01*
X245099684Y-73867888D01*
X245165343Y-73861833D01*
X245228351Y-73851512D01*
X245288916Y-73836853D01*
X245347248Y-73817789D01*
X245403558Y-73794250D01*
X245458054Y-73766166D01*
X245510945Y-73733467D01*
X245516244Y-73729880D01*
X245538007Y-73714623D01*
X245556123Y-73700935D01*
X245571459Y-73688050D01*
X245584880Y-73675206D01*
X245597253Y-73661637D01*
X245606814Y-73649956D01*
X245643341Y-73607420D01*
X245682985Y-73568572D01*
X245725441Y-73533540D01*
X245770407Y-73502450D01*
X245817578Y-73475428D01*
X245866650Y-73452600D01*
X245917320Y-73434092D01*
X245969283Y-73420031D01*
X246022236Y-73410543D01*
X246075876Y-73405753D01*
X246129897Y-73405789D01*
X246182994Y-73410638D01*
X246238512Y-73420784D01*
X246292598Y-73435722D01*
X246344985Y-73455301D01*
X246395406Y-73479367D01*
X246443594Y-73507770D01*
X246489283Y-73540355D01*
X246532205Y-73576972D01*
X246572094Y-73617467D01*
X246597099Y-73646830D01*
X246621787Y-73680194D01*
X246645392Y-73717114D01*
X246667058Y-73756071D01*
X246685926Y-73795544D01*
X246698415Y-73826430D01*
X246714162Y-73876245D01*
X246725529Y-73928084D01*
X246732462Y-73981307D01*
X246734910Y-74035277D01*
X246732819Y-74089357D01*
X246726137Y-74142909D01*
X246725097Y-74148860D01*
X246713346Y-74200242D01*
X246696706Y-74251266D01*
X246675372Y-74301501D01*
X246649534Y-74350517D01*
X246619384Y-74397882D01*
X246605480Y-74417182D01*
X246593601Y-74431991D01*
X246578605Y-74448979D01*
X246561410Y-74467240D01*
X246542931Y-74485864D01*
X246524085Y-74503943D01*
X246505788Y-74520568D01*
X246488957Y-74534831D01*
X246478904Y-74542652D01*
X246431173Y-74575154D01*
X246382050Y-74602820D01*
X246331246Y-74625774D01*
X246278468Y-74644140D01*
X246223428Y-74658042D01*
X246195694Y-74663237D01*
X246179591Y-74665272D01*
X246159600Y-74666777D01*
X246136884Y-74667752D01*
X246112610Y-74668197D01*
X246087941Y-74668112D01*
X246064040Y-74667497D01*
X246042074Y-74666352D01*
X246023205Y-74664676D01*
X246012814Y-74663247D01*
X245955392Y-74651214D01*
X245900193Y-74634657D01*
X245847339Y-74613645D01*
X245796952Y-74588247D01*
X245749155Y-74558534D01*
X245704069Y-74524573D01*
X245661818Y-74486436D01*
X245622523Y-74444191D01*
X245617817Y-74438617D01*
X245599502Y-74418887D01*
X245576937Y-74398244D01*
X245550777Y-74377115D01*
X245521673Y-74355925D01*
X245490277Y-74335100D01*
X245457242Y-74315066D01*
X245423219Y-74296250D01*
X245388862Y-74279076D01*
X245354821Y-74263972D01*
X245343358Y-74259354D01*
X245284811Y-74239020D01*
X245225905Y-74223746D01*
X245166722Y-74213528D01*
X245107348Y-74208366D01*
X245047866Y-74208257D01*
X244988359Y-74213199D01*
X244928912Y-74223191D01*
X244869608Y-74238231D01*
X244810531Y-74258316D01*
X244777724Y-74271705D01*
X244732166Y-74293412D01*
X244685751Y-74319359D01*
X244639327Y-74349002D01*
X244593742Y-74381797D01*
X244549846Y-74417199D01*
X244546476Y-74420090D01*
X244538940Y-74427283D01*
X244529839Y-74437001D01*
X244520611Y-74447673D01*
X244516081Y-74453280D01*
X244504959Y-74466605D01*
X244490922Y-74482124D01*
X244474989Y-74498816D01*
X244458176Y-74515657D01*
X244441502Y-74531626D01*
X244425985Y-74545701D01*
X244413884Y-74555878D01*
X244381225Y-74580060D01*
X244345264Y-74603368D01*
X244307418Y-74625006D01*
X244269105Y-74644176D01*
X244231743Y-74660082D01*
X244222114Y-74663673D01*
X244168609Y-74680377D01*
X244113646Y-74692513D01*
X244057730Y-74700080D01*
X244001363Y-74703078D01*
X243945050Y-74701507D01*
X243889294Y-74695366D01*
X243834597Y-74684656D01*
X243781465Y-74669376D01*
X243765910Y-74663903D01*
X243712739Y-74641720D01*
X243662195Y-74615310D01*
X243614464Y-74584901D01*
X243569731Y-74550722D01*
X243528179Y-74513000D01*
X243489994Y-74471963D01*
X243455361Y-74427839D01*
X243424464Y-74380856D01*
X243397487Y-74331240D01*
X243374617Y-74279221D01*
X243356037Y-74225025D01*
X243341932Y-74168881D01*
X243335523Y-74133240D01*
X243334413Y-74123689D01*
X243333362Y-74110419D01*
X243332398Y-74094377D01*
X243331551Y-74076507D01*
X243330851Y-74057755D01*
X243330327Y-74039067D01*
X243330009Y-74021389D01*
X243329927Y-74005667D01*
X243330111Y-73992845D01*
X243330589Y-73983871D01*
X243330789Y-73982110D01*
X243331541Y-73976223D01*
X243332667Y-73966892D01*
X243333973Y-73955721D01*
X243334587Y-73950360D01*
X243343073Y-73897752D01*
X243356405Y-73845465D01*
X243374356Y-73793978D01*
X243396695Y-73743772D01*
X243423192Y-73695324D01*
X243453617Y-73649115D01*
X243487740Y-73605624D01*
X243513454Y-73577312D01*
X243555800Y-73536994D01*
X243600885Y-73500854D01*
X243648443Y-73468978D01*
X243698209Y-73441449D01*
X243749917Y-73418355D01*
X243803301Y-73399780D01*
X243858095Y-73385810D01*
X243914035Y-73376531D01*
X243970854Y-73372027D01*
X244028286Y-73372384D01*
G36*
X241888326Y-79985244D02*
G01*
X241929811Y-79990105D01*
X241968696Y-79998367D01*
X242006401Y-80010424D01*
X242044347Y-80026671D01*
X242053275Y-80031051D01*
X242093648Y-80054081D01*
X242130867Y-80080998D01*
X242164759Y-80111577D01*
X242195152Y-80145592D01*
X242221875Y-80182819D01*
X242244754Y-80223030D01*
X242263617Y-80266002D01*
X242278293Y-80311509D01*
X242283341Y-80332110D01*
X242285210Y-80341079D01*
X242286626Y-80349569D01*
X242287649Y-80358507D01*
X242288344Y-80368819D01*
X242288773Y-80381433D01*
X242288998Y-80397275D01*
X242289082Y-80417200D01*
X242289063Y-80437062D01*
X242288896Y-80452793D01*
X242288517Y-80465340D01*
X242287864Y-80475651D01*
X242286874Y-80484675D01*
X242285483Y-80493359D01*
X242283630Y-80502650D01*
X242283313Y-80504129D01*
X242272029Y-80546465D01*
X242256769Y-80587780D01*
X242237996Y-80627001D01*
X242216172Y-80663055D01*
X242212287Y-80668660D01*
X242200456Y-80684038D01*
X242185674Y-80701176D01*
X242169050Y-80718940D01*
X242151694Y-80736199D01*
X242134715Y-80751817D01*
X242119222Y-80764663D01*
X242115709Y-80767310D01*
X242076798Y-80792819D01*
X242035729Y-80813862D01*
X241992893Y-80830367D01*
X241948682Y-80842261D01*
X241903489Y-80849473D01*
X241857704Y-80851930D01*
X241811719Y-80849560D01*
X241765927Y-80842290D01*
X241741548Y-80836337D01*
X241697934Y-80821770D01*
X241656550Y-80802798D01*
X241617654Y-80779698D01*
X241581506Y-80752748D01*
X241548365Y-80722224D01*
X241518489Y-80688405D01*
X241492138Y-80651567D01*
X241469571Y-80611989D01*
X241451048Y-80569946D01*
X241436826Y-80525717D01*
X241431825Y-80504830D01*
X241429437Y-80490290D01*
X241427530Y-80471951D01*
X241426138Y-80451072D01*
X241425292Y-80428914D01*
X241425026Y-80406736D01*
X241425373Y-80385801D01*
X241426366Y-80367366D01*
X241427879Y-80353700D01*
X241437485Y-80307679D01*
X241451896Y-80263274D01*
X241471132Y-80220435D01*
X241495212Y-80179114D01*
X241497271Y-80175989D01*
X241511236Y-80156897D01*
X241528464Y-80136391D01*
X241547832Y-80115619D01*
X241568217Y-80095733D01*
X241588497Y-80077881D01*
X241607184Y-80063468D01*
X241645380Y-80039529D01*
X241686124Y-80019649D01*
X241728808Y-80003999D01*
X241772822Y-79992749D01*
X241817555Y-79986067D01*
X241862397Y-79984125D01*
X241888326Y-79985244D01*
G37*
X241888326Y-79985244D02*
X241929811Y-79990105D01*
X241968696Y-79998367D01*
X242006401Y-80010424D01*
X242044347Y-80026671D01*
X242053275Y-80031051D01*
X242093648Y-80054081D01*
X242130867Y-80080998D01*
X242164759Y-80111577D01*
X242195152Y-80145592D01*
X242221875Y-80182819D01*
X242244754Y-80223030D01*
X242263617Y-80266002D01*
X242278293Y-80311509D01*
X242283341Y-80332110D01*
X242285210Y-80341079D01*
X242286626Y-80349569D01*
X242287649Y-80358507D01*
X242288344Y-80368819D01*
X242288773Y-80381433D01*
X242288998Y-80397275D01*
X242289082Y-80417200D01*
X242289063Y-80437062D01*
X242288896Y-80452793D01*
X242288517Y-80465340D01*
X242287864Y-80475651D01*
X242286874Y-80484675D01*
X242285483Y-80493359D01*
X242283630Y-80502650D01*
X242283313Y-80504129D01*
X242272029Y-80546465D01*
X242256769Y-80587780D01*
X242237996Y-80627001D01*
X242216172Y-80663055D01*
X242212287Y-80668660D01*
X242200456Y-80684038D01*
X242185674Y-80701176D01*
X242169050Y-80718940D01*
X242151694Y-80736199D01*
X242134715Y-80751817D01*
X242119222Y-80764663D01*
X242115709Y-80767310D01*
X242076798Y-80792819D01*
X242035729Y-80813862D01*
X241992893Y-80830367D01*
X241948682Y-80842261D01*
X241903489Y-80849473D01*
X241857704Y-80851930D01*
X241811719Y-80849560D01*
X241765927Y-80842290D01*
X241741548Y-80836337D01*
X241697934Y-80821770D01*
X241656550Y-80802798D01*
X241617654Y-80779698D01*
X241581506Y-80752748D01*
X241548365Y-80722224D01*
X241518489Y-80688405D01*
X241492138Y-80651567D01*
X241469571Y-80611989D01*
X241451048Y-80569946D01*
X241436826Y-80525717D01*
X241431825Y-80504830D01*
X241429437Y-80490290D01*
X241427530Y-80471951D01*
X241426138Y-80451072D01*
X241425292Y-80428914D01*
X241425026Y-80406736D01*
X241425373Y-80385801D01*
X241426366Y-80367366D01*
X241427879Y-80353700D01*
X241437485Y-80307679D01*
X241451896Y-80263274D01*
X241471132Y-80220435D01*
X241495212Y-80179114D01*
X241497271Y-80175989D01*
X241511236Y-80156897D01*
X241528464Y-80136391D01*
X241547832Y-80115619D01*
X241568217Y-80095733D01*
X241588497Y-80077881D01*
X241607184Y-80063468D01*
X241645380Y-80039529D01*
X241686124Y-80019649D01*
X241728808Y-80003999D01*
X241772822Y-79992749D01*
X241817555Y-79986067D01*
X241862397Y-79984125D01*
X241888326Y-79985244D01*
G36*
X241893930Y-71462887D02*
G01*
X241940360Y-71469168D01*
X241986575Y-71480273D01*
X241999974Y-71484434D01*
X242043231Y-71501169D01*
X242083836Y-71522113D01*
X242121576Y-71547021D01*
X242156241Y-71575647D01*
X242187618Y-71607745D01*
X242215496Y-71643070D01*
X242239664Y-71681376D01*
X242259909Y-71722417D01*
X242276020Y-71765948D01*
X242287786Y-71811723D01*
X242289497Y-71820570D01*
X242291252Y-71831512D01*
X242292526Y-71843069D01*
X242293378Y-71856255D01*
X242293864Y-71872083D01*
X242294043Y-71891568D01*
X242294042Y-71900580D01*
X242293945Y-71919544D01*
X242293688Y-71934525D01*
X242293184Y-71946619D01*
X242292346Y-71956922D01*
X242291087Y-71966530D01*
X242289321Y-71976540D01*
X242287195Y-71986940D01*
X242279931Y-72017530D01*
X242271583Y-72045045D01*
X242261469Y-72071472D01*
X242248903Y-72098799D01*
X242248325Y-72099970D01*
X242225673Y-72140086D01*
X242199084Y-72177181D01*
X242168861Y-72211007D01*
X242135309Y-72241320D01*
X242098733Y-72267874D01*
X242059436Y-72290423D01*
X242017724Y-72308722D01*
X241973902Y-72322525D01*
X241971652Y-72323095D01*
X241951450Y-72327853D01*
X241933378Y-72331338D01*
X241915925Y-72333725D01*
X241897578Y-72335185D01*
X241876825Y-72335892D01*
X241858644Y-72336032D01*
X241816711Y-72334610D01*
X241777946Y-72330178D01*
X241741256Y-72322489D01*
X241705546Y-72311296D01*
X241669722Y-72296351D01*
X241657931Y-72290674D01*
X241617050Y-72267644D01*
X241579537Y-72240889D01*
X241545542Y-72210611D01*
X241515217Y-72177017D01*
X241488712Y-72140312D01*
X241466177Y-72100700D01*
X241447765Y-72058387D01*
X241433625Y-72013577D01*
X241425174Y-71974240D01*
X241423822Y-71963704D01*
X241422611Y-71949379D01*
X241421589Y-71932557D01*
X241420802Y-71914528D01*
X241420300Y-71896582D01*
X241420129Y-71880010D01*
X241420338Y-71866104D01*
X241420845Y-71857400D01*
X241427529Y-71812254D01*
X241438789Y-71768026D01*
X241454375Y-71725236D01*
X241474034Y-71684403D01*
X241497515Y-71646046D01*
X241524567Y-71610685D01*
X241554938Y-71578840D01*
X241556323Y-71577549D01*
X241592002Y-71547862D01*
X241630237Y-71522416D01*
X241670681Y-71501284D01*
X241712990Y-71484540D01*
X241756815Y-71472255D01*
X241801811Y-71464503D01*
X241847632Y-71461356D01*
X241893930Y-71462887D01*
G37*
X241893930Y-71462887D02*
X241940360Y-71469168D01*
X241986575Y-71480273D01*
X241999974Y-71484434D01*
X242043231Y-71501169D01*
X242083836Y-71522113D01*
X242121576Y-71547021D01*
X242156241Y-71575647D01*
X242187618Y-71607745D01*
X242215496Y-71643070D01*
X242239664Y-71681376D01*
X242259909Y-71722417D01*
X242276020Y-71765948D01*
X242287786Y-71811723D01*
X242289497Y-71820570D01*
X242291252Y-71831512D01*
X242292526Y-71843069D01*
X242293378Y-71856255D01*
X242293864Y-71872083D01*
X242294043Y-71891568D01*
X242294042Y-71900580D01*
X242293945Y-71919544D01*
X242293688Y-71934525D01*
X242293184Y-71946619D01*
X242292346Y-71956922D01*
X242291087Y-71966530D01*
X242289321Y-71976540D01*
X242287195Y-71986940D01*
X242279931Y-72017530D01*
X242271583Y-72045045D01*
X242261469Y-72071472D01*
X242248903Y-72098799D01*
X242248325Y-72099970D01*
X242225673Y-72140086D01*
X242199084Y-72177181D01*
X242168861Y-72211007D01*
X242135309Y-72241320D01*
X242098733Y-72267874D01*
X242059436Y-72290423D01*
X242017724Y-72308722D01*
X241973902Y-72322525D01*
X241971652Y-72323095D01*
X241951450Y-72327853D01*
X241933378Y-72331338D01*
X241915925Y-72333725D01*
X241897578Y-72335185D01*
X241876825Y-72335892D01*
X241858644Y-72336032D01*
X241816711Y-72334610D01*
X241777946Y-72330178D01*
X241741256Y-72322489D01*
X241705546Y-72311296D01*
X241669722Y-72296351D01*
X241657931Y-72290674D01*
X241617050Y-72267644D01*
X241579537Y-72240889D01*
X241545542Y-72210611D01*
X241515217Y-72177017D01*
X241488712Y-72140312D01*
X241466177Y-72100700D01*
X241447765Y-72058387D01*
X241433625Y-72013577D01*
X241425174Y-71974240D01*
X241423822Y-71963704D01*
X241422611Y-71949379D01*
X241421589Y-71932557D01*
X241420802Y-71914528D01*
X241420300Y-71896582D01*
X241420129Y-71880010D01*
X241420338Y-71866104D01*
X241420845Y-71857400D01*
X241427529Y-71812254D01*
X241438789Y-71768026D01*
X241454375Y-71725236D01*
X241474034Y-71684403D01*
X241497515Y-71646046D01*
X241524567Y-71610685D01*
X241554938Y-71578840D01*
X241556323Y-71577549D01*
X241592002Y-71547862D01*
X241630237Y-71522416D01*
X241670681Y-71501284D01*
X241712990Y-71484540D01*
X241756815Y-71472255D01*
X241801811Y-71464503D01*
X241847632Y-71461356D01*
X241893930Y-71462887D01*
G36*
X241868677Y-73403493D02*
G01*
X241892106Y-73404130D01*
X241913841Y-73405290D01*
X241932535Y-73406961D01*
X241938654Y-73407742D01*
X241994570Y-73418169D01*
X242048697Y-73433231D01*
X242100811Y-73452732D01*
X242150687Y-73476472D01*
X242198103Y-73504256D01*
X242242834Y-73535885D01*
X242284657Y-73571161D01*
X242323346Y-73609888D01*
X242358679Y-73651868D01*
X242390431Y-73696903D01*
X242418378Y-73744795D01*
X242442297Y-73795348D01*
X242461963Y-73848363D01*
X242470396Y-73876700D01*
X242481360Y-73925786D01*
X242488132Y-73976896D01*
X242490707Y-74029175D01*
X242489079Y-74081774D01*
X242483245Y-74133838D01*
X242473200Y-74184517D01*
X242472049Y-74189143D01*
X242456153Y-74241637D01*
X242435617Y-74292501D01*
X242410707Y-74341425D01*
X242381686Y-74388098D01*
X242348821Y-74432213D01*
X242312376Y-74473457D01*
X242272618Y-74511522D01*
X242229810Y-74546099D01*
X242184218Y-74576876D01*
X242136107Y-74603545D01*
X242104985Y-74617943D01*
X242053042Y-74637755D01*
X242001028Y-74652613D01*
X241948392Y-74662622D01*
X241894585Y-74667885D01*
X241839056Y-74668507D01*
X241837399Y-74668456D01*
X241780940Y-74664193D01*
X241725888Y-74655071D01*
X241672374Y-74641148D01*
X241620530Y-74622481D01*
X241570490Y-74599129D01*
X241522384Y-74571149D01*
X241476346Y-74538601D01*
X241432508Y-74501542D01*
X241411471Y-74481354D01*
X241372144Y-74438621D01*
X241337364Y-74393632D01*
X241307143Y-74346410D01*
X241281494Y-74296981D01*
X241260428Y-74245368D01*
X241243957Y-74191596D01*
X241232096Y-74135689D01*
X241230102Y-74123080D01*
X241228683Y-74111050D01*
X241227396Y-74095536D01*
X241226290Y-74077768D01*
X241225414Y-74058976D01*
X241224816Y-74040390D01*
X241224545Y-74023239D01*
X241224652Y-74008754D01*
X241225143Y-73998620D01*
X241230746Y-73949440D01*
X241238886Y-73903762D01*
X241249858Y-73860529D01*
X241263954Y-73818688D01*
X241281466Y-73777181D01*
X241293386Y-73752685D01*
X241321460Y-73703029D01*
X241353405Y-73656526D01*
X241388983Y-73613346D01*
X241427954Y-73573655D01*
X241470080Y-73537623D01*
X241515122Y-73505417D01*
X241562840Y-73477206D01*
X241612997Y-73453159D01*
X241665352Y-73433443D01*
X241719667Y-73418227D01*
X241775704Y-73407679D01*
X241784984Y-73406414D01*
X241801708Y-73404840D01*
X241822130Y-73403837D01*
X241844902Y-73403391D01*
X241868677Y-73403493D01*
G37*
X241868677Y-73403493D02*
X241892106Y-73404130D01*
X241913841Y-73405290D01*
X241932535Y-73406961D01*
X241938654Y-73407742D01*
X241994570Y-73418169D01*
X242048697Y-73433231D01*
X242100811Y-73452732D01*
X242150687Y-73476472D01*
X242198103Y-73504256D01*
X242242834Y-73535885D01*
X242284657Y-73571161D01*
X242323346Y-73609888D01*
X242358679Y-73651868D01*
X242390431Y-73696903D01*
X242418378Y-73744795D01*
X242442297Y-73795348D01*
X242461963Y-73848363D01*
X242470396Y-73876700D01*
X242481360Y-73925786D01*
X242488132Y-73976896D01*
X242490707Y-74029175D01*
X242489079Y-74081774D01*
X242483245Y-74133838D01*
X242473200Y-74184517D01*
X242472049Y-74189143D01*
X242456153Y-74241637D01*
X242435617Y-74292501D01*
X242410707Y-74341425D01*
X242381686Y-74388098D01*
X242348821Y-74432213D01*
X242312376Y-74473457D01*
X242272618Y-74511522D01*
X242229810Y-74546099D01*
X242184218Y-74576876D01*
X242136107Y-74603545D01*
X242104985Y-74617943D01*
X242053042Y-74637755D01*
X242001028Y-74652613D01*
X241948392Y-74662622D01*
X241894585Y-74667885D01*
X241839056Y-74668507D01*
X241837399Y-74668456D01*
X241780940Y-74664193D01*
X241725888Y-74655071D01*
X241672374Y-74641148D01*
X241620530Y-74622481D01*
X241570490Y-74599129D01*
X241522384Y-74571149D01*
X241476346Y-74538601D01*
X241432508Y-74501542D01*
X241411471Y-74481354D01*
X241372144Y-74438621D01*
X241337364Y-74393632D01*
X241307143Y-74346410D01*
X241281494Y-74296981D01*
X241260428Y-74245368D01*
X241243957Y-74191596D01*
X241232096Y-74135689D01*
X241230102Y-74123080D01*
X241228683Y-74111050D01*
X241227396Y-74095536D01*
X241226290Y-74077768D01*
X241225414Y-74058976D01*
X241224816Y-74040390D01*
X241224545Y-74023239D01*
X241224652Y-74008754D01*
X241225143Y-73998620D01*
X241230746Y-73949440D01*
X241238886Y-73903762D01*
X241249858Y-73860529D01*
X241263954Y-73818688D01*
X241281466Y-73777181D01*
X241293386Y-73752685D01*
X241321460Y-73703029D01*
X241353405Y-73656526D01*
X241388983Y-73613346D01*
X241427954Y-73573655D01*
X241470080Y-73537623D01*
X241515122Y-73505417D01*
X241562840Y-73477206D01*
X241612997Y-73453159D01*
X241665352Y-73433443D01*
X241719667Y-73418227D01*
X241775704Y-73407679D01*
X241784984Y-73406414D01*
X241801708Y-73404840D01*
X241822130Y-73403837D01*
X241844902Y-73403391D01*
X241868677Y-73403493D01*
G36*
X241843404Y-75460489D02*
G01*
X241867812Y-75460604D01*
X241887888Y-75460900D01*
X241904379Y-75461408D01*
X241918032Y-75462163D01*
X241929594Y-75463197D01*
X241939811Y-75464544D01*
X241941922Y-75464881D01*
X242002917Y-75477230D01*
X242061134Y-75493810D01*
X242116711Y-75514691D01*
X242169784Y-75539941D01*
X242220489Y-75569630D01*
X242268962Y-75603827D01*
X242315339Y-75642601D01*
X242342753Y-75668625D01*
X242384027Y-75713178D01*
X242421206Y-75760621D01*
X242454167Y-75810711D01*
X242482786Y-75863206D01*
X242506940Y-75917866D01*
X242526506Y-75974447D01*
X242541361Y-76032708D01*
X242548611Y-76072530D01*
X242550250Y-76086534D01*
X242551566Y-76104435D01*
X242552554Y-76125224D01*
X242553205Y-76147891D01*
X242553514Y-76171428D01*
X242553474Y-76194826D01*
X242553079Y-76217074D01*
X242552320Y-76237165D01*
X242551193Y-76254088D01*
X242549888Y-76265570D01*
X242538251Y-76326437D01*
X242522050Y-76385254D01*
X242501386Y-76441855D01*
X242476361Y-76496072D01*
X242447076Y-76547742D01*
X242413630Y-76596697D01*
X242376125Y-76642772D01*
X242334662Y-76685801D01*
X242289342Y-76725618D01*
X242253614Y-76752752D01*
X242237706Y-76764228D01*
X242224952Y-76773833D01*
X242214279Y-76782513D01*
X242204611Y-76791214D01*
X242194875Y-76800880D01*
X242183998Y-76812457D01*
X242176704Y-76820463D01*
X242139717Y-76864382D01*
X242107637Y-76909096D01*
X242080312Y-76954954D01*
X242057588Y-77002301D01*
X242039313Y-77051484D01*
X242025335Y-77102851D01*
X242015499Y-77156748D01*
X242010954Y-77196655D01*
X242009853Y-77211571D01*
X242009440Y-77224738D01*
X242009748Y-77237936D01*
X242010807Y-77252946D01*
X242012217Y-77267457D01*
X242020391Y-77323764D01*
X242032936Y-77377585D01*
X242049932Y-77429084D01*
X242071454Y-77478427D01*
X242097582Y-77525779D01*
X242128393Y-77571307D01*
X242163964Y-77615176D01*
X242187397Y-77640534D01*
X242203784Y-77656644D01*
X242219851Y-77670896D01*
X242234438Y-77682271D01*
X242237718Y-77684548D01*
X242277841Y-77713979D01*
X242317211Y-77747519D01*
X242354847Y-77784202D01*
X242389765Y-77823063D01*
X242420983Y-77863135D01*
X242424667Y-77868310D01*
X242433109Y-77878789D01*
X242445101Y-77891509D01*
X242459981Y-77905863D01*
X242477090Y-77921246D01*
X242495768Y-77937053D01*
X242515355Y-77952678D01*
X242522854Y-77958407D01*
X242572554Y-77993153D01*
X242623272Y-78023077D01*
X242675336Y-78048304D01*
X242729077Y-78068956D01*
X242784822Y-78085157D01*
X242842902Y-78097030D01*
X242903644Y-78104699D01*
X242916099Y-78105735D01*
X242958516Y-78107008D01*
X243003474Y-78104696D01*
X243050092Y-78098965D01*
X243097486Y-78089982D01*
X243144773Y-78077913D01*
X243191070Y-78062924D01*
X243233806Y-78045924D01*
X243266502Y-78030304D01*
X243299930Y-78011912D01*
X243333327Y-77991304D01*
X243365928Y-77969039D01*
X243396971Y-77945674D01*
X243425691Y-77921766D01*
X243451325Y-77897874D01*
X243473109Y-77874554D01*
X243480131Y-77866068D01*
X243501655Y-77840507D01*
X243525306Y-77814997D01*
X243549498Y-77791194D01*
X243566602Y-77775836D01*
X243613317Y-77738850D01*
X243661620Y-77706663D01*
X243711681Y-77679196D01*
X243763669Y-77656371D01*
X243817755Y-77638108D01*
X243874106Y-77624329D01*
X243903860Y-77618989D01*
X243920851Y-77616944D01*
X243941704Y-77615458D01*
X243965229Y-77614530D01*
X243990240Y-77614159D01*
X244015548Y-77614345D01*
X244039965Y-77615087D01*
X244062303Y-77616385D01*
X244081375Y-77618238D01*
X244087494Y-77619083D01*
X244145320Y-77630475D01*
X244201476Y-77646647D01*
X244255794Y-77667526D01*
X244308111Y-77693040D01*
X244358261Y-77723118D01*
X244406078Y-77757687D01*
X244407009Y-77758423D01*
X244425912Y-77774330D01*
X244446406Y-77793185D01*
X244467235Y-77813731D01*
X244487141Y-77834709D01*
X244504865Y-77854862D01*
X244511304Y-77862712D01*
X244531757Y-77885807D01*
X244556527Y-77909556D01*
X244584976Y-77933479D01*
X244616467Y-77957099D01*
X244650364Y-77979936D01*
X244686030Y-78001513D01*
X244721284Y-78020565D01*
X244768778Y-78042931D01*
X244816528Y-78061682D01*
X244865330Y-78077032D01*
X244915982Y-78089195D01*
X244969280Y-78098384D01*
X245026023Y-78104814D01*
X245039559Y-78105919D01*
X245062392Y-78107250D01*
X245082997Y-78107459D01*
X245104100Y-78106545D01*
X245113219Y-78105870D01*
X245168743Y-78100079D01*
X245220577Y-78091891D01*
X245269627Y-78081076D01*
X245316799Y-78067405D01*
X245362997Y-78050648D01*
X245408690Y-78030778D01*
X245433192Y-78018561D01*
X245458446Y-78004654D01*
X245483813Y-77989506D01*
X245508654Y-77973563D01*
X245532330Y-77957271D01*
X245554200Y-77941077D01*
X245573626Y-77925429D01*
X245589968Y-77910772D01*
X245602585Y-77897554D01*
X245606681Y-77892458D01*
X245614855Y-77882432D01*
X245626110Y-77869872D01*
X245639666Y-77855546D01*
X245654741Y-77840222D01*
X245670557Y-77824666D01*
X245686332Y-77809646D01*
X245701285Y-77795929D01*
X245714637Y-77784283D01*
X245725606Y-77775475D01*
X245725896Y-77775258D01*
X245773574Y-77742692D01*
X245822868Y-77714802D01*
X245873570Y-77691632D01*
X245925472Y-77673227D01*
X245978363Y-77659632D01*
X246032036Y-77650893D01*
X246086281Y-77647053D01*
X246140890Y-77648159D01*
X246195653Y-77654254D01*
X246243954Y-77663816D01*
X246297219Y-77679112D01*
X246348537Y-77698932D01*
X246397673Y-77723027D01*
X246444395Y-77751147D01*
X246488469Y-77783043D01*
X246529661Y-77818466D01*
X246567737Y-77857167D01*
X246602463Y-77898896D01*
X246633606Y-77943405D01*
X246660932Y-77990444D01*
X246684208Y-78039764D01*
X246703199Y-78091116D01*
X246717672Y-78144250D01*
X246723852Y-78175481D01*
X246730520Y-78229340D01*
X246732228Y-78283334D01*
X246729079Y-78337143D01*
X246721172Y-78390449D01*
X246708609Y-78442934D01*
X246691490Y-78494277D01*
X246669917Y-78544162D01*
X246643989Y-78592269D01*
X246613809Y-78638279D01*
X246579476Y-78681874D01*
X246555211Y-78708525D01*
X246513013Y-78748897D01*
X246468566Y-78784714D01*
X246421845Y-78815990D01*
X246372825Y-78842737D01*
X246321482Y-78864969D01*
X246267792Y-78882699D01*
X246211728Y-78895939D01*
X246188829Y-78899949D01*
X246171418Y-78902040D01*
X246150216Y-78903525D01*
X246126478Y-78904407D01*
X246101458Y-78904685D01*
X246076409Y-78904361D01*
X246052585Y-78903435D01*
X246031241Y-78901908D01*
X246014084Y-78899852D01*
X245958164Y-78888623D01*
X245904039Y-78872667D01*
X245851849Y-78852064D01*
X245801735Y-78826889D01*
X245753838Y-78797219D01*
X245708298Y-78763133D01*
X245665256Y-78724707D01*
X245631726Y-78689794D01*
X245600479Y-78657945D01*
X245564843Y-78626950D01*
X245525490Y-78597213D01*
X245483092Y-78569139D01*
X245438321Y-78543135D01*
X245391849Y-78519606D01*
X245344347Y-78498957D01*
X245296487Y-78481594D01*
X245276555Y-78475413D01*
X245238219Y-78465152D01*
X245201155Y-78457446D01*
X245163936Y-78452099D01*
X245125130Y-78448919D01*
X245083310Y-78447708D01*
X245073014Y-78447689D01*
X245040043Y-78448208D01*
X245010630Y-78449690D01*
X244983318Y-78452293D01*
X244956649Y-78456179D01*
X244929167Y-78461508D01*
X244911946Y-78465402D01*
X244852668Y-78481994D01*
X244794261Y-78503539D01*
X244736888Y-78529959D01*
X244680711Y-78561174D01*
X244625893Y-78597108D01*
X244603732Y-78613273D01*
X244575727Y-78634984D01*
X244550587Y-78655823D01*
X244528844Y-78675329D01*
X244511029Y-78693043D01*
X244509134Y-78695076D01*
X244472480Y-78733328D01*
X244437028Y-78767201D01*
X244402225Y-78797079D01*
X244367514Y-78823349D01*
X244332340Y-78846396D01*
X244296146Y-78866607D01*
X244258376Y-78884366D01*
X244218476Y-78900059D01*
X244208855Y-78903446D01*
X244173246Y-78914856D01*
X244139597Y-78923688D01*
X244106420Y-78930203D01*
X244072230Y-78934662D01*
X244035542Y-78937327D01*
X244011294Y-78938182D01*
X243970160Y-78938297D01*
X243932318Y-78936484D01*
X243896289Y-78932560D01*
X243860594Y-78926338D01*
X243823754Y-78917635D01*
X243804889Y-78912423D01*
X243753636Y-78895185D01*
X243703536Y-78873440D01*
X243655099Y-78847540D01*
X243608838Y-78817836D01*
X243565265Y-78784678D01*
X243524892Y-78748416D01*
X243488231Y-78709403D01*
X243463495Y-78678570D01*
X243453736Y-78666425D01*
X243442371Y-78654160D01*
X243428820Y-78641242D01*
X243412503Y-78627138D01*
X243392839Y-78611316D01*
X243376294Y-78598570D01*
X243325223Y-78562560D01*
X243273245Y-78531484D01*
X243220124Y-78505240D01*
X243165626Y-78483727D01*
X243109515Y-78466843D01*
X243051556Y-78454487D01*
X243037204Y-78452162D01*
X243021807Y-78450369D01*
X243002733Y-78449004D01*
X242981190Y-78448076D01*
X242958389Y-78447597D01*
X242935539Y-78447577D01*
X242913849Y-78448027D01*
X242894528Y-78448957D01*
X242878786Y-78450378D01*
X242875914Y-78450759D01*
X242816502Y-78461673D01*
X242758821Y-78477221D01*
X242702728Y-78497466D01*
X242648081Y-78522473D01*
X242594737Y-78552304D01*
X242542555Y-78587022D01*
X242505074Y-78615520D01*
X242484873Y-78632415D01*
X242464034Y-78651121D01*
X242443572Y-78670649D01*
X242424500Y-78690008D01*
X242407833Y-78708209D01*
X242397540Y-78720480D01*
X242384328Y-78736149D01*
X242368174Y-78753888D01*
X242350133Y-78772645D01*
X242331257Y-78791368D01*
X242312601Y-78809008D01*
X242295219Y-78824513D01*
X242283373Y-78834331D01*
X242234778Y-78869737D01*
X242183977Y-78900788D01*
X242131262Y-78927401D01*
X242076922Y-78949497D01*
X242021248Y-78966992D01*
X241964530Y-78979806D01*
X241907059Y-78987858D01*
X241849124Y-78991066D01*
X241791018Y-78989349D01*
X241746801Y-78984683D01*
X241687991Y-78973976D01*
X241630603Y-78958444D01*
X241574850Y-78938197D01*
X241520945Y-78913343D01*
X241469101Y-78883993D01*
X241419531Y-78850255D01*
X241372449Y-78812238D01*
X241328067Y-78770053D01*
X241327689Y-78769664D01*
X241289007Y-78726295D01*
X241253887Y-78679779D01*
X241222553Y-78630569D01*
X241195230Y-78579121D01*
X241172143Y-78525891D01*
X241153517Y-78471333D01*
X241139576Y-78415903D01*
X241132293Y-78373770D01*
X241126910Y-78316802D01*
X241126352Y-78259119D01*
X241130520Y-78201254D01*
X241139314Y-78143741D01*
X241152634Y-78087112D01*
X241170382Y-78031901D01*
X241192458Y-77978640D01*
X241213793Y-77936664D01*
X241241571Y-77890706D01*
X241272830Y-77846521D01*
X241306982Y-77804786D01*
X241343440Y-77766178D01*
X241381615Y-77731375D01*
X241413844Y-77706111D01*
X241444277Y-77681843D01*
X241474870Y-77653381D01*
X241504943Y-77621537D01*
X241533812Y-77587128D01*
X241560795Y-77550967D01*
X241585208Y-77513870D01*
X241606371Y-77476650D01*
X241606772Y-77475880D01*
X241629547Y-77426966D01*
X241647290Y-77377654D01*
X241660024Y-77328061D01*
X241667769Y-77278303D01*
X241670550Y-77228497D01*
X241668386Y-77178759D01*
X241661301Y-77129206D01*
X241649317Y-77079955D01*
X241632456Y-77031122D01*
X241610739Y-76982823D01*
X241584189Y-76935176D01*
X241552828Y-76888297D01*
X241516678Y-76842302D01*
X241478914Y-76800563D01*
X241466789Y-76788421D01*
X241453731Y-76776072D01*
X241440994Y-76764655D01*
X241429832Y-76755311D01*
X241425454Y-76751936D01*
X241390697Y-76724847D01*
X241358840Y-76697023D01*
X241327818Y-76666661D01*
X241327689Y-76666527D01*
X241287966Y-76622059D01*
X241252315Y-76574843D01*
X241220848Y-76525174D01*
X241193676Y-76473351D01*
X241170910Y-76419671D01*
X241152662Y-76364431D01*
X241139043Y-76307930D01*
X241130165Y-76250465D01*
X241126140Y-76192332D01*
X241127079Y-76133831D01*
X241127215Y-76131584D01*
X241133372Y-76072673D01*
X241144299Y-76015084D01*
X241159804Y-75959045D01*
X241179696Y-75904783D01*
X241203784Y-75852525D01*
X241231877Y-75802498D01*
X241263785Y-75754930D01*
X241299315Y-75710047D01*
X241338277Y-75668076D01*
X241380480Y-75629245D01*
X241425733Y-75593780D01*
X241473845Y-75561908D01*
X241524624Y-75533858D01*
X241577880Y-75509855D01*
X241633422Y-75490127D01*
X241677034Y-75478135D01*
X241698421Y-75473126D01*
X241717202Y-75469140D01*
X241734426Y-75466066D01*
X241751137Y-75463792D01*
X241768381Y-75462209D01*
X241787205Y-75461204D01*
X241808656Y-75460668D01*
X241833777Y-75460488D01*
X241843404Y-75460489D01*
G37*
X241843404Y-75460489D02*
X241867812Y-75460604D01*
X241887888Y-75460900D01*
X241904379Y-75461408D01*
X241918032Y-75462163D01*
X241929594Y-75463197D01*
X241939811Y-75464544D01*
X241941922Y-75464881D01*
X242002917Y-75477230D01*
X242061134Y-75493810D01*
X242116711Y-75514691D01*
X242169784Y-75539941D01*
X242220489Y-75569630D01*
X242268962Y-75603827D01*
X242315339Y-75642601D01*
X242342753Y-75668625D01*
X242384027Y-75713178D01*
X242421206Y-75760621D01*
X242454167Y-75810711D01*
X242482786Y-75863206D01*
X242506940Y-75917866D01*
X242526506Y-75974447D01*
X242541361Y-76032708D01*
X242548611Y-76072530D01*
X242550250Y-76086534D01*
X242551566Y-76104435D01*
X242552554Y-76125224D01*
X242553205Y-76147891D01*
X242553514Y-76171428D01*
X242553474Y-76194826D01*
X242553079Y-76217074D01*
X242552320Y-76237165D01*
X242551193Y-76254088D01*
X242549888Y-76265570D01*
X242538251Y-76326437D01*
X242522050Y-76385254D01*
X242501386Y-76441855D01*
X242476361Y-76496072D01*
X242447076Y-76547742D01*
X242413630Y-76596697D01*
X242376125Y-76642772D01*
X242334662Y-76685801D01*
X242289342Y-76725618D01*
X242253614Y-76752752D01*
X242237706Y-76764228D01*
X242224952Y-76773833D01*
X242214279Y-76782513D01*
X242204611Y-76791214D01*
X242194875Y-76800880D01*
X242183998Y-76812457D01*
X242176704Y-76820463D01*
X242139717Y-76864382D01*
X242107637Y-76909096D01*
X242080312Y-76954954D01*
X242057588Y-77002301D01*
X242039313Y-77051484D01*
X242025335Y-77102851D01*
X242015499Y-77156748D01*
X242010954Y-77196655D01*
X242009853Y-77211571D01*
X242009440Y-77224738D01*
X242009748Y-77237936D01*
X242010807Y-77252946D01*
X242012217Y-77267457D01*
X242020391Y-77323764D01*
X242032936Y-77377585D01*
X242049932Y-77429084D01*
X242071454Y-77478427D01*
X242097582Y-77525779D01*
X242128393Y-77571307D01*
X242163964Y-77615176D01*
X242187397Y-77640534D01*
X242203784Y-77656644D01*
X242219851Y-77670896D01*
X242234438Y-77682271D01*
X242237718Y-77684548D01*
X242277841Y-77713979D01*
X242317211Y-77747519D01*
X242354847Y-77784202D01*
X242389765Y-77823063D01*
X242420983Y-77863135D01*
X242424667Y-77868310D01*
X242433109Y-77878789D01*
X242445101Y-77891509D01*
X242459981Y-77905863D01*
X242477090Y-77921246D01*
X242495768Y-77937053D01*
X242515355Y-77952678D01*
X242522854Y-77958407D01*
X242572554Y-77993153D01*
X242623272Y-78023077D01*
X242675336Y-78048304D01*
X242729077Y-78068956D01*
X242784822Y-78085157D01*
X242842902Y-78097030D01*
X242903644Y-78104699D01*
X242916099Y-78105735D01*
X242958516Y-78107008D01*
X243003474Y-78104696D01*
X243050092Y-78098965D01*
X243097486Y-78089982D01*
X243144773Y-78077913D01*
X243191070Y-78062924D01*
X243233806Y-78045924D01*
X243266502Y-78030304D01*
X243299930Y-78011912D01*
X243333327Y-77991304D01*
X243365928Y-77969039D01*
X243396971Y-77945674D01*
X243425691Y-77921766D01*
X243451325Y-77897874D01*
X243473109Y-77874554D01*
X243480131Y-77866068D01*
X243501655Y-77840507D01*
X243525306Y-77814997D01*
X243549498Y-77791194D01*
X243566602Y-77775836D01*
X243613317Y-77738850D01*
X243661620Y-77706663D01*
X243711681Y-77679196D01*
X243763669Y-77656371D01*
X243817755Y-77638108D01*
X243874106Y-77624329D01*
X243903860Y-77618989D01*
X243920851Y-77616944D01*
X243941704Y-77615458D01*
X243965229Y-77614530D01*
X243990240Y-77614159D01*
X244015548Y-77614345D01*
X244039965Y-77615087D01*
X244062303Y-77616385D01*
X244081375Y-77618238D01*
X244087494Y-77619083D01*
X244145320Y-77630475D01*
X244201476Y-77646647D01*
X244255794Y-77667526D01*
X244308111Y-77693040D01*
X244358261Y-77723118D01*
X244406078Y-77757687D01*
X244407009Y-77758423D01*
X244425912Y-77774330D01*
X244446406Y-77793185D01*
X244467235Y-77813731D01*
X244487141Y-77834709D01*
X244504865Y-77854862D01*
X244511304Y-77862712D01*
X244531757Y-77885807D01*
X244556527Y-77909556D01*
X244584976Y-77933479D01*
X244616467Y-77957099D01*
X244650364Y-77979936D01*
X244686030Y-78001513D01*
X244721284Y-78020565D01*
X244768778Y-78042931D01*
X244816528Y-78061682D01*
X244865330Y-78077032D01*
X244915982Y-78089195D01*
X244969280Y-78098384D01*
X245026023Y-78104814D01*
X245039559Y-78105919D01*
X245062392Y-78107250D01*
X245082997Y-78107459D01*
X245104100Y-78106545D01*
X245113219Y-78105870D01*
X245168743Y-78100079D01*
X245220577Y-78091891D01*
X245269627Y-78081076D01*
X245316799Y-78067405D01*
X245362997Y-78050648D01*
X245408690Y-78030778D01*
X245433192Y-78018561D01*
X245458446Y-78004654D01*
X245483813Y-77989506D01*
X245508654Y-77973563D01*
X245532330Y-77957271D01*
X245554200Y-77941077D01*
X245573626Y-77925429D01*
X245589968Y-77910772D01*
X245602585Y-77897554D01*
X245606681Y-77892458D01*
X245614855Y-77882432D01*
X245626110Y-77869872D01*
X245639666Y-77855546D01*
X245654741Y-77840222D01*
X245670557Y-77824666D01*
X245686332Y-77809646D01*
X245701285Y-77795929D01*
X245714637Y-77784283D01*
X245725606Y-77775475D01*
X245725896Y-77775258D01*
X245773574Y-77742692D01*
X245822868Y-77714802D01*
X245873570Y-77691632D01*
X245925472Y-77673227D01*
X245978363Y-77659632D01*
X246032036Y-77650893D01*
X246086281Y-77647053D01*
X246140890Y-77648159D01*
X246195653Y-77654254D01*
X246243954Y-77663816D01*
X246297219Y-77679112D01*
X246348537Y-77698932D01*
X246397673Y-77723027D01*
X246444395Y-77751147D01*
X246488469Y-77783043D01*
X246529661Y-77818466D01*
X246567737Y-77857167D01*
X246602463Y-77898896D01*
X246633606Y-77943405D01*
X246660932Y-77990444D01*
X246684208Y-78039764D01*
X246703199Y-78091116D01*
X246717672Y-78144250D01*
X246723852Y-78175481D01*
X246730520Y-78229340D01*
X246732228Y-78283334D01*
X246729079Y-78337143D01*
X246721172Y-78390449D01*
X246708609Y-78442934D01*
X246691490Y-78494277D01*
X246669917Y-78544162D01*
X246643989Y-78592269D01*
X246613809Y-78638279D01*
X246579476Y-78681874D01*
X246555211Y-78708525D01*
X246513013Y-78748897D01*
X246468566Y-78784714D01*
X246421845Y-78815990D01*
X246372825Y-78842737D01*
X246321482Y-78864969D01*
X246267792Y-78882699D01*
X246211728Y-78895939D01*
X246188829Y-78899949D01*
X246171418Y-78902040D01*
X246150216Y-78903525D01*
X246126478Y-78904407D01*
X246101458Y-78904685D01*
X246076409Y-78904361D01*
X246052585Y-78903435D01*
X246031241Y-78901908D01*
X246014084Y-78899852D01*
X245958164Y-78888623D01*
X245904039Y-78872667D01*
X245851849Y-78852064D01*
X245801735Y-78826889D01*
X245753838Y-78797219D01*
X245708298Y-78763133D01*
X245665256Y-78724707D01*
X245631726Y-78689794D01*
X245600479Y-78657945D01*
X245564843Y-78626950D01*
X245525490Y-78597213D01*
X245483092Y-78569139D01*
X245438321Y-78543135D01*
X245391849Y-78519606D01*
X245344347Y-78498957D01*
X245296487Y-78481594D01*
X245276555Y-78475413D01*
X245238219Y-78465152D01*
X245201155Y-78457446D01*
X245163936Y-78452099D01*
X245125130Y-78448919D01*
X245083310Y-78447708D01*
X245073014Y-78447689D01*
X245040043Y-78448208D01*
X245010630Y-78449690D01*
X244983318Y-78452293D01*
X244956649Y-78456179D01*
X244929167Y-78461508D01*
X244911946Y-78465402D01*
X244852668Y-78481994D01*
X244794261Y-78503539D01*
X244736888Y-78529959D01*
X244680711Y-78561174D01*
X244625893Y-78597108D01*
X244603732Y-78613273D01*
X244575727Y-78634984D01*
X244550587Y-78655823D01*
X244528844Y-78675329D01*
X244511029Y-78693043D01*
X244509134Y-78695076D01*
X244472480Y-78733328D01*
X244437028Y-78767201D01*
X244402225Y-78797079D01*
X244367514Y-78823349D01*
X244332340Y-78846396D01*
X244296146Y-78866607D01*
X244258376Y-78884366D01*
X244218476Y-78900059D01*
X244208855Y-78903446D01*
X244173246Y-78914856D01*
X244139597Y-78923688D01*
X244106420Y-78930203D01*
X244072230Y-78934662D01*
X244035542Y-78937327D01*
X244011294Y-78938182D01*
X243970160Y-78938297D01*
X243932318Y-78936484D01*
X243896289Y-78932560D01*
X243860594Y-78926338D01*
X243823754Y-78917635D01*
X243804889Y-78912423D01*
X243753636Y-78895185D01*
X243703536Y-78873440D01*
X243655099Y-78847540D01*
X243608838Y-78817836D01*
X243565265Y-78784678D01*
X243524892Y-78748416D01*
X243488231Y-78709403D01*
X243463495Y-78678570D01*
X243453736Y-78666425D01*
X243442371Y-78654160D01*
X243428820Y-78641242D01*
X243412503Y-78627138D01*
X243392839Y-78611316D01*
X243376294Y-78598570D01*
X243325223Y-78562560D01*
X243273245Y-78531484D01*
X243220124Y-78505240D01*
X243165626Y-78483727D01*
X243109515Y-78466843D01*
X243051556Y-78454487D01*
X243037204Y-78452162D01*
X243021807Y-78450369D01*
X243002733Y-78449004D01*
X242981190Y-78448076D01*
X242958389Y-78447597D01*
X242935539Y-78447577D01*
X242913849Y-78448027D01*
X242894528Y-78448957D01*
X242878786Y-78450378D01*
X242875914Y-78450759D01*
X242816502Y-78461673D01*
X242758821Y-78477221D01*
X242702728Y-78497466D01*
X242648081Y-78522473D01*
X242594737Y-78552304D01*
X242542555Y-78587022D01*
X242505074Y-78615520D01*
X242484873Y-78632415D01*
X242464034Y-78651121D01*
X242443572Y-78670649D01*
X242424500Y-78690008D01*
X242407833Y-78708209D01*
X242397540Y-78720480D01*
X242384328Y-78736149D01*
X242368174Y-78753888D01*
X242350133Y-78772645D01*
X242331257Y-78791368D01*
X242312601Y-78809008D01*
X242295219Y-78824513D01*
X242283373Y-78834331D01*
X242234778Y-78869737D01*
X242183977Y-78900788D01*
X242131262Y-78927401D01*
X242076922Y-78949497D01*
X242021248Y-78966992D01*
X241964530Y-78979806D01*
X241907059Y-78987858D01*
X241849124Y-78991066D01*
X241791018Y-78989349D01*
X241746801Y-78984683D01*
X241687991Y-78973976D01*
X241630603Y-78958444D01*
X241574850Y-78938197D01*
X241520945Y-78913343D01*
X241469101Y-78883993D01*
X241419531Y-78850255D01*
X241372449Y-78812238D01*
X241328067Y-78770053D01*
X241327689Y-78769664D01*
X241289007Y-78726295D01*
X241253887Y-78679779D01*
X241222553Y-78630569D01*
X241195230Y-78579121D01*
X241172143Y-78525891D01*
X241153517Y-78471333D01*
X241139576Y-78415903D01*
X241132293Y-78373770D01*
X241126910Y-78316802D01*
X241126352Y-78259119D01*
X241130520Y-78201254D01*
X241139314Y-78143741D01*
X241152634Y-78087112D01*
X241170382Y-78031901D01*
X241192458Y-77978640D01*
X241213793Y-77936664D01*
X241241571Y-77890706D01*
X241272830Y-77846521D01*
X241306982Y-77804786D01*
X241343440Y-77766178D01*
X241381615Y-77731375D01*
X241413844Y-77706111D01*
X241444277Y-77681843D01*
X241474870Y-77653381D01*
X241504943Y-77621537D01*
X241533812Y-77587128D01*
X241560795Y-77550967D01*
X241585208Y-77513870D01*
X241606371Y-77476650D01*
X241606772Y-77475880D01*
X241629547Y-77426966D01*
X241647290Y-77377654D01*
X241660024Y-77328061D01*
X241667769Y-77278303D01*
X241670550Y-77228497D01*
X241668386Y-77178759D01*
X241661301Y-77129206D01*
X241649317Y-77079955D01*
X241632456Y-77031122D01*
X241610739Y-76982823D01*
X241584189Y-76935176D01*
X241552828Y-76888297D01*
X241516678Y-76842302D01*
X241478914Y-76800563D01*
X241466789Y-76788421D01*
X241453731Y-76776072D01*
X241440994Y-76764655D01*
X241429832Y-76755311D01*
X241425454Y-76751936D01*
X241390697Y-76724847D01*
X241358840Y-76697023D01*
X241327818Y-76666661D01*
X241327689Y-76666527D01*
X241287966Y-76622059D01*
X241252315Y-76574843D01*
X241220848Y-76525174D01*
X241193676Y-76473351D01*
X241170910Y-76419671D01*
X241152662Y-76364431D01*
X241139043Y-76307930D01*
X241130165Y-76250465D01*
X241126140Y-76192332D01*
X241127079Y-76133831D01*
X241127215Y-76131584D01*
X241133372Y-76072673D01*
X241144299Y-76015084D01*
X241159804Y-75959045D01*
X241179696Y-75904783D01*
X241203784Y-75852525D01*
X241231877Y-75802498D01*
X241263785Y-75754930D01*
X241299315Y-75710047D01*
X241338277Y-75668076D01*
X241380480Y-75629245D01*
X241425733Y-75593780D01*
X241473845Y-75561908D01*
X241524624Y-75533858D01*
X241577880Y-75509855D01*
X241633422Y-75490127D01*
X241677034Y-75478135D01*
X241698421Y-75473126D01*
X241717202Y-75469140D01*
X241734426Y-75466066D01*
X241751137Y-75463792D01*
X241768381Y-75462209D01*
X241787205Y-75461204D01*
X241808656Y-75460668D01*
X241833777Y-75460488D01*
X241843404Y-75460489D01*
G36*
X239774847Y-79999814D02*
G01*
X239795455Y-80000688D01*
X239813538Y-80002335D01*
X239830363Y-80004943D01*
X239847202Y-80008697D01*
X239865322Y-80013782D01*
X239880402Y-80018544D01*
X239922515Y-80034853D01*
X239962001Y-80055266D01*
X239998674Y-80079459D01*
X240032346Y-80107107D01*
X240062831Y-80137886D01*
X240089940Y-80171470D01*
X240113488Y-80207537D01*
X240133287Y-80245760D01*
X240149151Y-80285817D01*
X240160891Y-80327381D01*
X240168322Y-80370129D01*
X240171256Y-80413736D01*
X240169505Y-80457878D01*
X240162884Y-80502230D01*
X240161892Y-80506918D01*
X240149749Y-80550949D01*
X240133043Y-80593068D01*
X240112032Y-80632960D01*
X240086976Y-80670308D01*
X240058133Y-80704795D01*
X240025763Y-80736106D01*
X239990124Y-80763924D01*
X239951477Y-80787933D01*
X239918176Y-80804357D01*
X239876488Y-80819983D01*
X239833212Y-80831054D01*
X239788937Y-80837542D01*
X239744251Y-80839419D01*
X239699743Y-80836657D01*
X239656001Y-80829228D01*
X239618288Y-80818699D01*
X239575852Y-80801935D01*
X239536090Y-80781081D01*
X239499199Y-80756449D01*
X239465375Y-80728356D01*
X239434814Y-80697114D01*
X239407714Y-80663038D01*
X239384269Y-80626443D01*
X239364676Y-80587642D01*
X239349132Y-80546949D01*
X239337833Y-80504680D01*
X239330974Y-80461148D01*
X239328752Y-80416668D01*
X239331364Y-80371553D01*
X239332642Y-80361320D01*
X239341337Y-80316324D01*
X239354784Y-80273035D01*
X239372887Y-80231635D01*
X239395551Y-80192310D01*
X239422679Y-80155245D01*
X239454177Y-80120624D01*
X239460018Y-80114940D01*
X239495418Y-80084440D01*
X239533173Y-80058424D01*
X239573367Y-80036848D01*
X239616085Y-80019667D01*
X239661414Y-80006835D01*
X239668023Y-80005373D01*
X239678189Y-80003320D01*
X239687481Y-80001797D01*
X239696945Y-80000731D01*
X239707629Y-80000048D01*
X239720581Y-79999672D01*
X239736846Y-79999530D01*
X239750444Y-79999529D01*
X239774847Y-79999814D01*
G37*
X239774847Y-79999814D02*
X239795455Y-80000688D01*
X239813538Y-80002335D01*
X239830363Y-80004943D01*
X239847202Y-80008697D01*
X239865322Y-80013782D01*
X239880402Y-80018544D01*
X239922515Y-80034853D01*
X239962001Y-80055266D01*
X239998674Y-80079459D01*
X240032346Y-80107107D01*
X240062831Y-80137886D01*
X240089940Y-80171470D01*
X240113488Y-80207537D01*
X240133287Y-80245760D01*
X240149151Y-80285817D01*
X240160891Y-80327381D01*
X240168322Y-80370129D01*
X240171256Y-80413736D01*
X240169505Y-80457878D01*
X240162884Y-80502230D01*
X240161892Y-80506918D01*
X240149749Y-80550949D01*
X240133043Y-80593068D01*
X240112032Y-80632960D01*
X240086976Y-80670308D01*
X240058133Y-80704795D01*
X240025763Y-80736106D01*
X239990124Y-80763924D01*
X239951477Y-80787933D01*
X239918176Y-80804357D01*
X239876488Y-80819983D01*
X239833212Y-80831054D01*
X239788937Y-80837542D01*
X239744251Y-80839419D01*
X239699743Y-80836657D01*
X239656001Y-80829228D01*
X239618288Y-80818699D01*
X239575852Y-80801935D01*
X239536090Y-80781081D01*
X239499199Y-80756449D01*
X239465375Y-80728356D01*
X239434814Y-80697114D01*
X239407714Y-80663038D01*
X239384269Y-80626443D01*
X239364676Y-80587642D01*
X239349132Y-80546949D01*
X239337833Y-80504680D01*
X239330974Y-80461148D01*
X239328752Y-80416668D01*
X239331364Y-80371553D01*
X239332642Y-80361320D01*
X239341337Y-80316324D01*
X239354784Y-80273035D01*
X239372887Y-80231635D01*
X239395551Y-80192310D01*
X239422679Y-80155245D01*
X239454177Y-80120624D01*
X239460018Y-80114940D01*
X239495418Y-80084440D01*
X239533173Y-80058424D01*
X239573367Y-80036848D01*
X239616085Y-80019667D01*
X239661414Y-80006835D01*
X239668023Y-80005373D01*
X239678189Y-80003320D01*
X239687481Y-80001797D01*
X239696945Y-80000731D01*
X239707629Y-80000048D01*
X239720581Y-79999672D01*
X239736846Y-79999530D01*
X239750444Y-79999529D01*
X239774847Y-79999814D01*
G36*
X239777568Y-77738480D02*
G01*
X239827295Y-77746358D01*
X239876310Y-77758987D01*
X239924335Y-77776326D01*
X239971090Y-77798338D01*
X240016297Y-77824981D01*
X240045084Y-77845035D01*
X240059548Y-77856598D01*
X240076093Y-77871191D01*
X240093716Y-77887815D01*
X240111415Y-77905466D01*
X240128189Y-77923142D01*
X240143035Y-77939842D01*
X240154952Y-77954563D01*
X240155983Y-77955940D01*
X240186306Y-78000763D01*
X240211715Y-78046858D01*
X240232222Y-78094261D01*
X240247840Y-78143006D01*
X240258581Y-78193129D01*
X240264459Y-78244665D01*
X240265240Y-78259470D01*
X240264786Y-78310900D01*
X240259448Y-78361541D01*
X240249397Y-78411105D01*
X240234804Y-78459304D01*
X240215840Y-78505853D01*
X240192676Y-78550463D01*
X240165484Y-78592848D01*
X240134433Y-78632721D01*
X240099695Y-78669795D01*
X240061442Y-78703783D01*
X240019843Y-78734397D01*
X239975071Y-78761352D01*
X239962180Y-78768107D01*
X239914821Y-78789394D01*
X239865556Y-78806090D01*
X239814088Y-78818291D01*
X239797434Y-78821209D01*
X239776471Y-78823732D01*
X239752005Y-78825279D01*
X239725519Y-78825860D01*
X239698492Y-78825486D01*
X239672405Y-78824168D01*
X239648741Y-78821915D01*
X239636048Y-78820073D01*
X239584629Y-78808828D01*
X239535173Y-78793059D01*
X239487908Y-78772997D01*
X239443059Y-78748870D01*
X239400853Y-78720909D01*
X239361516Y-78689344D01*
X239325275Y-78654405D01*
X239292355Y-78616322D01*
X239262983Y-78575326D01*
X239237386Y-78531645D01*
X239215789Y-78485511D01*
X239198420Y-78437154D01*
X239185504Y-78386802D01*
X239180122Y-78356640D01*
X239177986Y-78338581D01*
X239176399Y-78317359D01*
X239175405Y-78294564D01*
X239175048Y-78271784D01*
X239175370Y-78250606D01*
X239176416Y-78232619D01*
X239176642Y-78230260D01*
X239184433Y-78178531D01*
X239197062Y-78128154D01*
X239214408Y-78079381D01*
X239236351Y-78032466D01*
X239262768Y-77987660D01*
X239293539Y-77945217D01*
X239328542Y-77905388D01*
X239336314Y-77897485D01*
X239373902Y-77862858D01*
X239412814Y-77832813D01*
X239453748Y-77806891D01*
X239497406Y-77784633D01*
X239528028Y-77771736D01*
X239577127Y-77755267D01*
X239626909Y-77743746D01*
X239677097Y-77737135D01*
X239727409Y-77735393D01*
X239777568Y-77738480D01*
G37*
X239777568Y-77738480D02*
X239827295Y-77746358D01*
X239876310Y-77758987D01*
X239924335Y-77776326D01*
X239971090Y-77798338D01*
X240016297Y-77824981D01*
X240045084Y-77845035D01*
X240059548Y-77856598D01*
X240076093Y-77871191D01*
X240093716Y-77887815D01*
X240111415Y-77905466D01*
X240128189Y-77923142D01*
X240143035Y-77939842D01*
X240154952Y-77954563D01*
X240155983Y-77955940D01*
X240186306Y-78000763D01*
X240211715Y-78046858D01*
X240232222Y-78094261D01*
X240247840Y-78143006D01*
X240258581Y-78193129D01*
X240264459Y-78244665D01*
X240265240Y-78259470D01*
X240264786Y-78310900D01*
X240259448Y-78361541D01*
X240249397Y-78411105D01*
X240234804Y-78459304D01*
X240215840Y-78505853D01*
X240192676Y-78550463D01*
X240165484Y-78592848D01*
X240134433Y-78632721D01*
X240099695Y-78669795D01*
X240061442Y-78703783D01*
X240019843Y-78734397D01*
X239975071Y-78761352D01*
X239962180Y-78768107D01*
X239914821Y-78789394D01*
X239865556Y-78806090D01*
X239814088Y-78818291D01*
X239797434Y-78821209D01*
X239776471Y-78823732D01*
X239752005Y-78825279D01*
X239725519Y-78825860D01*
X239698492Y-78825486D01*
X239672405Y-78824168D01*
X239648741Y-78821915D01*
X239636048Y-78820073D01*
X239584629Y-78808828D01*
X239535173Y-78793059D01*
X239487908Y-78772997D01*
X239443059Y-78748870D01*
X239400853Y-78720909D01*
X239361516Y-78689344D01*
X239325275Y-78654405D01*
X239292355Y-78616322D01*
X239262983Y-78575326D01*
X239237386Y-78531645D01*
X239215789Y-78485511D01*
X239198420Y-78437154D01*
X239185504Y-78386802D01*
X239180122Y-78356640D01*
X239177986Y-78338581D01*
X239176399Y-78317359D01*
X239175405Y-78294564D01*
X239175048Y-78271784D01*
X239175370Y-78250606D01*
X239176416Y-78232619D01*
X239176642Y-78230260D01*
X239184433Y-78178531D01*
X239197062Y-78128154D01*
X239214408Y-78079381D01*
X239236351Y-78032466D01*
X239262768Y-77987660D01*
X239293539Y-77945217D01*
X239328542Y-77905388D01*
X239336314Y-77897485D01*
X239373902Y-77862858D01*
X239412814Y-77832813D01*
X239453748Y-77806891D01*
X239497406Y-77784633D01*
X239528028Y-77771736D01*
X239577127Y-77755267D01*
X239626909Y-77743746D01*
X239677097Y-77737135D01*
X239727409Y-77735393D01*
X239777568Y-77738480D01*
G36*
X239746457Y-73488915D02*
G01*
X239772892Y-73490253D01*
X239788162Y-73491702D01*
X239839621Y-73500170D01*
X239889350Y-73513259D01*
X239937120Y-73530737D01*
X239982704Y-73552372D01*
X240025875Y-73577934D01*
X240066404Y-73607190D01*
X240104064Y-73639908D01*
X240138627Y-73675857D01*
X240169865Y-73714805D01*
X240197551Y-73756521D01*
X240221457Y-73800772D01*
X240241355Y-73847328D01*
X240257018Y-73895956D01*
X240268217Y-73946425D01*
X240273572Y-73985554D01*
X240276045Y-74035022D01*
X240273648Y-74084864D01*
X240266520Y-74134598D01*
X240254797Y-74183741D01*
X240238617Y-74231809D01*
X240218118Y-74278320D01*
X240193438Y-74322791D01*
X240165944Y-74363110D01*
X240159331Y-74371502D01*
X240150297Y-74382405D01*
X240139871Y-74394602D01*
X240129085Y-74406876D01*
X240125335Y-74411054D01*
X240103016Y-74437672D01*
X240080198Y-74468518D01*
X240057372Y-74502833D01*
X240035023Y-74539861D01*
X240013641Y-74578844D01*
X240000718Y-74604410D01*
X239971033Y-74670722D01*
X239946297Y-74737937D01*
X239926493Y-74805880D01*
X239911607Y-74874377D01*
X239901622Y-74943251D01*
X239896523Y-75012329D01*
X239896294Y-75081435D01*
X239900920Y-75150394D01*
X239910384Y-75219031D01*
X239924672Y-75287171D01*
X239943767Y-75354639D01*
X239967653Y-75421260D01*
X239996316Y-75486859D01*
X240029739Y-75551261D01*
X240067906Y-75614291D01*
X240094783Y-75653783D01*
X240108490Y-75672577D01*
X240124552Y-75693805D01*
X240141922Y-75716129D01*
X240159552Y-75738212D01*
X240176394Y-75758716D01*
X240184629Y-75768469D01*
X240206228Y-75794801D01*
X240225016Y-75820133D01*
X240242356Y-75846359D01*
X240251652Y-75861653D01*
X240277288Y-75909893D01*
X240298411Y-75960167D01*
X240314972Y-76012081D01*
X240326920Y-76065243D01*
X240334206Y-76119258D01*
X240336780Y-76173733D01*
X240334592Y-76228276D01*
X240327592Y-76282493D01*
X240315729Y-76335989D01*
X240313068Y-76345534D01*
X240295840Y-76396384D01*
X240273998Y-76445620D01*
X240247832Y-76492784D01*
X240217631Y-76537417D01*
X240183685Y-76579059D01*
X240146283Y-76617253D01*
X240135254Y-76627246D01*
X240092338Y-76662091D01*
X240047662Y-76692379D01*
X240000957Y-76718231D01*
X239951956Y-76739768D01*
X239900391Y-76757111D01*
X239845994Y-76770383D01*
X239802514Y-76777831D01*
X239789865Y-76779134D01*
X239773360Y-76780098D01*
X239754141Y-76780725D01*
X239733350Y-76781016D01*
X239712131Y-76780970D01*
X239691624Y-76780590D01*
X239672972Y-76779876D01*
X239657317Y-76778827D01*
X239647574Y-76777728D01*
X239590461Y-76766920D01*
X239535895Y-76751818D01*
X239483969Y-76732469D01*
X239434775Y-76708922D01*
X239388405Y-76681226D01*
X239344952Y-76649429D01*
X239304509Y-76613581D01*
X239273820Y-76581381D01*
X239238343Y-76537615D01*
X239207446Y-76491710D01*
X239181090Y-76443585D01*
X239159235Y-76393154D01*
X239141844Y-76340335D01*
X239128877Y-76285044D01*
X239124458Y-76259220D01*
X239123200Y-76248676D01*
X239122024Y-76234621D01*
X239120968Y-76218119D01*
X239120073Y-76200238D01*
X239119380Y-76182043D01*
X239118928Y-76164599D01*
X239118759Y-76148972D01*
X239118912Y-76136229D01*
X239119428Y-76127434D01*
X239119461Y-76127140D01*
X239120211Y-76120637D01*
X239121334Y-76110787D01*
X239122637Y-76099289D01*
X239123221Y-76094120D01*
X239130717Y-76047802D01*
X239142681Y-76000746D01*
X239158757Y-75953819D01*
X239178591Y-75907886D01*
X239201830Y-75863812D01*
X239228120Y-75822464D01*
X239242138Y-75803290D01*
X239248918Y-75794734D01*
X239257727Y-75784020D01*
X239267211Y-75772782D01*
X239272897Y-75766196D01*
X239308393Y-75724393D01*
X239340085Y-75684570D01*
X239368474Y-75646006D01*
X239394058Y-75607981D01*
X239417339Y-75569775D01*
X239438815Y-75530667D01*
X239445536Y-75517552D01*
X239471055Y-75463133D01*
X239492974Y-75408096D01*
X239511493Y-75351733D01*
X239526814Y-75293334D01*
X239539138Y-75232192D01*
X239548664Y-75167598D01*
X239551363Y-75144160D01*
X239555310Y-75088597D01*
X239555629Y-75030438D01*
X239552417Y-74970539D01*
X239545772Y-74909758D01*
X239535791Y-74848953D01*
X239522570Y-74788981D01*
X239506207Y-74730698D01*
X239503606Y-74722520D01*
X239489631Y-74682427D01*
X239473771Y-74642573D01*
X239456360Y-74603568D01*
X239437731Y-74566025D01*
X239418219Y-74530557D01*
X239398157Y-74497775D01*
X239377880Y-74468291D01*
X239357719Y-74442719D01*
X239341431Y-74425018D01*
X239304761Y-74385106D01*
X239272747Y-74343220D01*
X239245310Y-74299228D01*
X239222373Y-74253000D01*
X239203857Y-74204403D01*
X239197241Y-74182770D01*
X239185535Y-74132561D01*
X239178767Y-74082131D01*
X239176823Y-74031779D01*
X239179590Y-73981805D01*
X239186953Y-73932507D01*
X239198797Y-73884185D01*
X239215008Y-73837139D01*
X239235471Y-73791666D01*
X239260073Y-73748066D01*
X239288698Y-73706639D01*
X239321233Y-73667684D01*
X239357564Y-73631499D01*
X239397574Y-73598385D01*
X239429134Y-73576260D01*
X239472630Y-73550843D01*
X239518990Y-73529288D01*
X239567467Y-73511883D01*
X239617317Y-73498916D01*
X239641224Y-73494401D01*
X239664169Y-73491465D01*
X239690451Y-73489551D01*
X239718429Y-73488691D01*
X239746457Y-73488915D01*
G37*
X239746457Y-73488915D02*
X239772892Y-73490253D01*
X239788162Y-73491702D01*
X239839621Y-73500170D01*
X239889350Y-73513259D01*
X239937120Y-73530737D01*
X239982704Y-73552372D01*
X240025875Y-73577934D01*
X240066404Y-73607190D01*
X240104064Y-73639908D01*
X240138627Y-73675857D01*
X240169865Y-73714805D01*
X240197551Y-73756521D01*
X240221457Y-73800772D01*
X240241355Y-73847328D01*
X240257018Y-73895956D01*
X240268217Y-73946425D01*
X240273572Y-73985554D01*
X240276045Y-74035022D01*
X240273648Y-74084864D01*
X240266520Y-74134598D01*
X240254797Y-74183741D01*
X240238617Y-74231809D01*
X240218118Y-74278320D01*
X240193438Y-74322791D01*
X240165944Y-74363110D01*
X240159331Y-74371502D01*
X240150297Y-74382405D01*
X240139871Y-74394602D01*
X240129085Y-74406876D01*
X240125335Y-74411054D01*
X240103016Y-74437672D01*
X240080198Y-74468518D01*
X240057372Y-74502833D01*
X240035023Y-74539861D01*
X240013641Y-74578844D01*
X240000718Y-74604410D01*
X239971033Y-74670722D01*
X239946297Y-74737937D01*
X239926493Y-74805880D01*
X239911607Y-74874377D01*
X239901622Y-74943251D01*
X239896523Y-75012329D01*
X239896294Y-75081435D01*
X239900920Y-75150394D01*
X239910384Y-75219031D01*
X239924672Y-75287171D01*
X239943767Y-75354639D01*
X239967653Y-75421260D01*
X239996316Y-75486859D01*
X240029739Y-75551261D01*
X240067906Y-75614291D01*
X240094783Y-75653783D01*
X240108490Y-75672577D01*
X240124552Y-75693805D01*
X240141922Y-75716129D01*
X240159552Y-75738212D01*
X240176394Y-75758716D01*
X240184629Y-75768469D01*
X240206228Y-75794801D01*
X240225016Y-75820133D01*
X240242356Y-75846359D01*
X240251652Y-75861653D01*
X240277288Y-75909893D01*
X240298411Y-75960167D01*
X240314972Y-76012081D01*
X240326920Y-76065243D01*
X240334206Y-76119258D01*
X240336780Y-76173733D01*
X240334592Y-76228276D01*
X240327592Y-76282493D01*
X240315729Y-76335989D01*
X240313068Y-76345534D01*
X240295840Y-76396384D01*
X240273998Y-76445620D01*
X240247832Y-76492784D01*
X240217631Y-76537417D01*
X240183685Y-76579059D01*
X240146283Y-76617253D01*
X240135254Y-76627246D01*
X240092338Y-76662091D01*
X240047662Y-76692379D01*
X240000957Y-76718231D01*
X239951956Y-76739768D01*
X239900391Y-76757111D01*
X239845994Y-76770383D01*
X239802514Y-76777831D01*
X239789865Y-76779134D01*
X239773360Y-76780098D01*
X239754141Y-76780725D01*
X239733350Y-76781016D01*
X239712131Y-76780970D01*
X239691624Y-76780590D01*
X239672972Y-76779876D01*
X239657317Y-76778827D01*
X239647574Y-76777728D01*
X239590461Y-76766920D01*
X239535895Y-76751818D01*
X239483969Y-76732469D01*
X239434775Y-76708922D01*
X239388405Y-76681226D01*
X239344952Y-76649429D01*
X239304509Y-76613581D01*
X239273820Y-76581381D01*
X239238343Y-76537615D01*
X239207446Y-76491710D01*
X239181090Y-76443585D01*
X239159235Y-76393154D01*
X239141844Y-76340335D01*
X239128877Y-76285044D01*
X239124458Y-76259220D01*
X239123200Y-76248676D01*
X239122024Y-76234621D01*
X239120968Y-76218119D01*
X239120073Y-76200238D01*
X239119380Y-76182043D01*
X239118928Y-76164599D01*
X239118759Y-76148972D01*
X239118912Y-76136229D01*
X239119428Y-76127434D01*
X239119461Y-76127140D01*
X239120211Y-76120637D01*
X239121334Y-76110787D01*
X239122637Y-76099289D01*
X239123221Y-76094120D01*
X239130717Y-76047802D01*
X239142681Y-76000746D01*
X239158757Y-75953819D01*
X239178591Y-75907886D01*
X239201830Y-75863812D01*
X239228120Y-75822464D01*
X239242138Y-75803290D01*
X239248918Y-75794734D01*
X239257727Y-75784020D01*
X239267211Y-75772782D01*
X239272897Y-75766196D01*
X239308393Y-75724393D01*
X239340085Y-75684570D01*
X239368474Y-75646006D01*
X239394058Y-75607981D01*
X239417339Y-75569775D01*
X239438815Y-75530667D01*
X239445536Y-75517552D01*
X239471055Y-75463133D01*
X239492974Y-75408096D01*
X239511493Y-75351733D01*
X239526814Y-75293334D01*
X239539138Y-75232192D01*
X239548664Y-75167598D01*
X239551363Y-75144160D01*
X239555310Y-75088597D01*
X239555629Y-75030438D01*
X239552417Y-74970539D01*
X239545772Y-74909758D01*
X239535791Y-74848953D01*
X239522570Y-74788981D01*
X239506207Y-74730698D01*
X239503606Y-74722520D01*
X239489631Y-74682427D01*
X239473771Y-74642573D01*
X239456360Y-74603568D01*
X239437731Y-74566025D01*
X239418219Y-74530557D01*
X239398157Y-74497775D01*
X239377880Y-74468291D01*
X239357719Y-74442719D01*
X239341431Y-74425018D01*
X239304761Y-74385106D01*
X239272747Y-74343220D01*
X239245310Y-74299228D01*
X239222373Y-74253000D01*
X239203857Y-74204403D01*
X239197241Y-74182770D01*
X239185535Y-74132561D01*
X239178767Y-74082131D01*
X239176823Y-74031779D01*
X239179590Y-73981805D01*
X239186953Y-73932507D01*
X239198797Y-73884185D01*
X239215008Y-73837139D01*
X239235471Y-73791666D01*
X239260073Y-73748066D01*
X239288698Y-73706639D01*
X239321233Y-73667684D01*
X239357564Y-73631499D01*
X239397574Y-73598385D01*
X239429134Y-73576260D01*
X239472630Y-73550843D01*
X239518990Y-73529288D01*
X239567467Y-73511883D01*
X239617317Y-73498916D01*
X239641224Y-73494401D01*
X239664169Y-73491465D01*
X239690451Y-73489551D01*
X239718429Y-73488691D01*
X239746457Y-73488915D01*
G36*
X238439517Y-81460283D02*
G01*
X238457684Y-81461784D01*
X238466474Y-81463274D01*
X238502127Y-81473385D01*
X238535531Y-81487791D01*
X238566337Y-81506212D01*
X238594198Y-81528366D01*
X238618765Y-81553971D01*
X238639690Y-81582746D01*
X238656625Y-81614410D01*
X238658367Y-81618377D01*
X238665033Y-81634618D01*
X238669955Y-81648718D01*
X238673385Y-81662016D01*
X238675576Y-81675848D01*
X238676777Y-81691553D01*
X238677241Y-81710467D01*
X238677276Y-81718950D01*
X238677204Y-81735661D01*
X238676899Y-81748429D01*
X238676255Y-81758391D01*
X238675167Y-81766682D01*
X238673528Y-81774437D01*
X238671332Y-81782450D01*
X238658608Y-81817052D01*
X238641496Y-81849550D01*
X238620351Y-81879421D01*
X238595532Y-81906144D01*
X238574424Y-81924033D01*
X238559957Y-81933781D01*
X238542235Y-81943792D01*
X238522916Y-81953272D01*
X238503657Y-81961427D01*
X238486115Y-81967465D01*
X238480691Y-81968930D01*
X238446590Y-81974802D01*
X238412694Y-81975850D01*
X238379388Y-81972328D01*
X238347057Y-81964490D01*
X238316088Y-81952588D01*
X238286866Y-81936876D01*
X238259777Y-81917608D01*
X238235208Y-81895036D01*
X238213543Y-81869413D01*
X238195170Y-81840994D01*
X238180473Y-81810032D01*
X238169839Y-81776779D01*
X238166805Y-81762867D01*
X238164592Y-81746343D01*
X238163470Y-81727121D01*
X238163441Y-81707102D01*
X238164506Y-81688191D01*
X238166667Y-81672291D01*
X238166733Y-81671960D01*
X238176222Y-81637231D01*
X238190176Y-81604504D01*
X238208250Y-81574144D01*
X238230100Y-81546513D01*
X238255382Y-81521974D01*
X238283754Y-81500891D01*
X238314869Y-81483628D01*
X238348385Y-81470547D01*
X238360763Y-81466987D01*
X238378050Y-81463521D01*
X238398043Y-81461210D01*
X238419085Y-81460111D01*
X238439517Y-81460283D01*
G37*
X238439517Y-81460283D02*
X238457684Y-81461784D01*
X238466474Y-81463274D01*
X238502127Y-81473385D01*
X238535531Y-81487791D01*
X238566337Y-81506212D01*
X238594198Y-81528366D01*
X238618765Y-81553971D01*
X238639690Y-81582746D01*
X238656625Y-81614410D01*
X238658367Y-81618377D01*
X238665033Y-81634618D01*
X238669955Y-81648718D01*
X238673385Y-81662016D01*
X238675576Y-81675848D01*
X238676777Y-81691553D01*
X238677241Y-81710467D01*
X238677276Y-81718950D01*
X238677204Y-81735661D01*
X238676899Y-81748429D01*
X238676255Y-81758391D01*
X238675167Y-81766682D01*
X238673528Y-81774437D01*
X238671332Y-81782450D01*
X238658608Y-81817052D01*
X238641496Y-81849550D01*
X238620351Y-81879421D01*
X238595532Y-81906144D01*
X238574424Y-81924033D01*
X238559957Y-81933781D01*
X238542235Y-81943792D01*
X238522916Y-81953272D01*
X238503657Y-81961427D01*
X238486115Y-81967465D01*
X238480691Y-81968930D01*
X238446590Y-81974802D01*
X238412694Y-81975850D01*
X238379388Y-81972328D01*
X238347057Y-81964490D01*
X238316088Y-81952588D01*
X238286866Y-81936876D01*
X238259777Y-81917608D01*
X238235208Y-81895036D01*
X238213543Y-81869413D01*
X238195170Y-81840994D01*
X238180473Y-81810032D01*
X238169839Y-81776779D01*
X238166805Y-81762867D01*
X238164592Y-81746343D01*
X238163470Y-81727121D01*
X238163441Y-81707102D01*
X238164506Y-81688191D01*
X238166667Y-81672291D01*
X238166733Y-81671960D01*
X238176222Y-81637231D01*
X238190176Y-81604504D01*
X238208250Y-81574144D01*
X238230100Y-81546513D01*
X238255382Y-81521974D01*
X238283754Y-81500891D01*
X238314869Y-81483628D01*
X238348385Y-81470547D01*
X238360763Y-81466987D01*
X238378050Y-81463521D01*
X238398043Y-81461210D01*
X238419085Y-81460111D01*
X238439517Y-81460283D01*
%TD*%
M02*
