%TF.GenerationSoftware,KiCad,Pcbnew,(6.0.7)*%
%TF.CreationDate,2023-01-05T19:35:34-06:00*%
%TF.ProjectId,OpenRectangle,4f70656e-5265-4637-9461-6e676c652e6b,rev?*%
%TF.SameCoordinates,Original*%
%TF.FileFunction,Legend,Bot*%
%TF.FilePolarity,Positive*%
%FSLAX46Y46*%
G04 Gerber Fmt 4.6, Leading zero omitted, Abs format (unit mm)*
G04 Created by KiCad (PCBNEW (6.0.7)) date 2023-01-05 19:35:34*
%MOMM*%
%LPD*%
G01*
G04 APERTURE LIST*
%ADD10C,0.300000*%
%ADD11C,0.150000*%
G04 APERTURE END LIST*
D10*
X220408595Y-54051069D02*
X220941929Y-53289164D01*
X221322881Y-54051069D02*
X221322881Y-52451069D01*
X220713357Y-52451069D01*
X220560976Y-52527260D01*
X220484786Y-52603450D01*
X220408595Y-52755831D01*
X220408595Y-52984402D01*
X220484786Y-53136783D01*
X220560976Y-53212974D01*
X220713357Y-53289164D01*
X221322881Y-53289164D01*
X220789548Y-55788974D02*
X220560976Y-55865164D01*
X220484786Y-55941355D01*
X220408595Y-56093736D01*
X220408595Y-56322307D01*
X220484786Y-56474688D01*
X220560976Y-56550879D01*
X220713357Y-56627069D01*
X221322881Y-56627069D01*
X221322881Y-55027069D01*
X220789548Y-55027069D01*
X220637167Y-55103260D01*
X220560976Y-55179450D01*
X220484786Y-55331831D01*
X220484786Y-55484212D01*
X220560976Y-55636593D01*
X220637167Y-55712783D01*
X220789548Y-55788974D01*
X221322881Y-55788974D01*
X220789548Y-58441164D02*
X220789548Y-59203069D01*
X221322881Y-57603069D02*
X220789548Y-58441164D01*
X220256214Y-57603069D01*
X221399072Y-60179069D02*
X220332405Y-61779069D01*
X220332405Y-60179069D02*
X221399072Y-61779069D01*
X221780024Y-64355069D02*
X222541929Y-64355069D01*
X222541929Y-62755069D01*
X221322881Y-64278879D02*
X221094310Y-64355069D01*
X220713357Y-64355069D01*
X220560976Y-64278879D01*
X220484786Y-64202688D01*
X220408595Y-64050307D01*
X220408595Y-63897926D01*
X220484786Y-63745545D01*
X220560976Y-63669355D01*
X220713357Y-63593164D01*
X221018119Y-63516974D01*
X221170500Y-63440783D01*
X221246691Y-63364593D01*
X221322881Y-63212212D01*
X221322881Y-63059831D01*
X221246691Y-62907450D01*
X221170500Y-62831260D01*
X221018119Y-62755069D01*
X220637167Y-62755069D01*
X220408595Y-62831260D01*
X221399072Y-65331069D02*
X220332405Y-65331069D01*
X221399072Y-66931069D01*
X220332405Y-66931069D01*
X223075262Y-69507069D02*
X223075262Y-67907069D01*
X222541929Y-69049926D01*
X222008595Y-67907069D01*
X222008595Y-69507069D01*
X221322881Y-69430879D02*
X221094310Y-69507069D01*
X220713357Y-69507069D01*
X220560976Y-69430879D01*
X220484786Y-69354688D01*
X220408595Y-69202307D01*
X220408595Y-69049926D01*
X220484786Y-68897545D01*
X220560976Y-68821355D01*
X220713357Y-68745164D01*
X221018119Y-68668974D01*
X221170500Y-68592783D01*
X221246691Y-68516593D01*
X221322881Y-68364212D01*
X221322881Y-68211831D01*
X221246691Y-68059450D01*
X221170500Y-67983260D01*
X221018119Y-67907069D01*
X220637167Y-67907069D01*
X220408595Y-67983260D01*
X222999072Y-70483069D02*
X222999072Y-71778307D01*
X222922881Y-71930688D01*
X222846691Y-72006879D01*
X222694310Y-72083069D01*
X222389548Y-72083069D01*
X222237167Y-72006879D01*
X222160976Y-71930688D01*
X222084786Y-71778307D01*
X222084786Y-70483069D01*
X221322881Y-72083069D02*
X221322881Y-70483069D01*
X220713357Y-70483069D01*
X220560976Y-70559260D01*
X220484786Y-70635450D01*
X220408595Y-70787831D01*
X220408595Y-71016402D01*
X220484786Y-71168783D01*
X220560976Y-71244974D01*
X220713357Y-71321164D01*
X221322881Y-71321164D01*
X223760976Y-73135260D02*
X223913357Y-73059069D01*
X224141929Y-73059069D01*
X224370500Y-73135260D01*
X224522881Y-73287640D01*
X224599072Y-73440021D01*
X224675262Y-73744783D01*
X224675262Y-73973355D01*
X224599072Y-74278117D01*
X224522881Y-74430498D01*
X224370500Y-74582879D01*
X224141929Y-74659069D01*
X223989548Y-74659069D01*
X223760976Y-74582879D01*
X223684786Y-74506688D01*
X223684786Y-73973355D01*
X223989548Y-73973355D01*
X222999072Y-74659069D02*
X222999072Y-73059069D01*
X222084786Y-74659069D01*
X222084786Y-73059069D01*
X221322881Y-74659069D02*
X221322881Y-73059069D01*
X220941929Y-73059069D01*
X220713357Y-73135260D01*
X220560976Y-73287640D01*
X220484786Y-73440021D01*
X220408595Y-73744783D01*
X220408595Y-73973355D01*
X220484786Y-74278117D01*
X220560976Y-74430498D01*
X220713357Y-74582879D01*
X220941929Y-74659069D01*
X221322881Y-74659069D01*
D11*
%TO.C,J2*%
X214127405Y-61449355D02*
X214175024Y-61592212D01*
X214222643Y-61639831D01*
X214317881Y-61687450D01*
X214460738Y-61687450D01*
X214555976Y-61639831D01*
X214603595Y-61592212D01*
X214651214Y-61496974D01*
X214651214Y-61116021D01*
X213651214Y-61116021D01*
X213651214Y-61449355D01*
X213698834Y-61544593D01*
X213746453Y-61592212D01*
X213841691Y-61639831D01*
X213936929Y-61639831D01*
X214032167Y-61592212D01*
X214079786Y-61544593D01*
X214127405Y-61449355D01*
X214127405Y-61116021D01*
X213984548Y-62544593D02*
X214651214Y-62544593D01*
X213984548Y-62116021D02*
X214508357Y-62116021D01*
X214603595Y-62163640D01*
X214651214Y-62258879D01*
X214651214Y-62401736D01*
X214603595Y-62496974D01*
X214555976Y-62544593D01*
X213984548Y-62877926D02*
X213984548Y-63258879D01*
X213651214Y-63020783D02*
X214508357Y-63020783D01*
X214603595Y-63068402D01*
X214651214Y-63163640D01*
X214651214Y-63258879D01*
X213984548Y-63449355D02*
X213984548Y-63830307D01*
X213651214Y-63592212D02*
X214508357Y-63592212D01*
X214603595Y-63639831D01*
X214651214Y-63735069D01*
X214651214Y-63830307D01*
X214651214Y-64306498D02*
X214603595Y-64211260D01*
X214555976Y-64163640D01*
X214460738Y-64116021D01*
X214175024Y-64116021D01*
X214079786Y-64163640D01*
X214032167Y-64211260D01*
X213984548Y-64306498D01*
X213984548Y-64449355D01*
X214032167Y-64544593D01*
X214079786Y-64592212D01*
X214175024Y-64639831D01*
X214460738Y-64639831D01*
X214555976Y-64592212D01*
X214603595Y-64544593D01*
X214651214Y-64449355D01*
X214651214Y-64306498D01*
X213984548Y-65068402D02*
X214651214Y-65068402D01*
X214079786Y-65068402D02*
X214032167Y-65116021D01*
X213984548Y-65211260D01*
X213984548Y-65354117D01*
X214032167Y-65449355D01*
X214127405Y-65496974D01*
X214651214Y-65496974D01*
X214603595Y-65925545D02*
X214651214Y-66020783D01*
X214651214Y-66211260D01*
X214603595Y-66306498D01*
X214508357Y-66354117D01*
X214460738Y-66354117D01*
X214365500Y-66306498D01*
X214317881Y-66211260D01*
X214317881Y-66068402D01*
X214270262Y-65973164D01*
X214175024Y-65925545D01*
X214127405Y-65925545D01*
X214032167Y-65973164D01*
X213984548Y-66068402D01*
X213984548Y-66211260D01*
X214032167Y-66306498D01*
%TO.C,SW10*%
X220760729Y-38222236D02*
X220808348Y-38365093D01*
X220808348Y-38603188D01*
X220760729Y-38698426D01*
X220713110Y-38746045D01*
X220617872Y-38793664D01*
X220522634Y-38793664D01*
X220427396Y-38746045D01*
X220379777Y-38698426D01*
X220332158Y-38603188D01*
X220284539Y-38412712D01*
X220236920Y-38317474D01*
X220189301Y-38269855D01*
X220094063Y-38222236D01*
X219998825Y-38222236D01*
X219903587Y-38269855D01*
X219855968Y-38317474D01*
X219808348Y-38412712D01*
X219808348Y-38650807D01*
X219855968Y-38793664D01*
X219808348Y-39126998D02*
X220808348Y-39365093D01*
X220094063Y-39555569D01*
X220808348Y-39746045D01*
X219808348Y-39984140D01*
X220808348Y-40888902D02*
X220808348Y-40317474D01*
X220808348Y-40603188D02*
X219808348Y-40603188D01*
X219951206Y-40507950D01*
X220046444Y-40412712D01*
X220094063Y-40317474D01*
X219808348Y-41507950D02*
X219808348Y-41603188D01*
X219855968Y-41698426D01*
X219903587Y-41746045D01*
X219998825Y-41793664D01*
X220189301Y-41841283D01*
X220427396Y-41841283D01*
X220617872Y-41793664D01*
X220713110Y-41746045D01*
X220760729Y-41698426D01*
X220808348Y-41603188D01*
X220808348Y-41507950D01*
X220760729Y-41412712D01*
X220713110Y-41365093D01*
X220617872Y-41317474D01*
X220427396Y-41269855D01*
X220189301Y-41269855D01*
X219998825Y-41317474D01*
X219903587Y-41365093D01*
X219855968Y-41412712D01*
X219808348Y-41507950D01*
%TO.C,SW2*%
X260365729Y-65216426D02*
X260413348Y-65359283D01*
X260413348Y-65597379D01*
X260365729Y-65692617D01*
X260318110Y-65740236D01*
X260222872Y-65787855D01*
X260127634Y-65787855D01*
X260032396Y-65740236D01*
X259984777Y-65692617D01*
X259937158Y-65597379D01*
X259889539Y-65406902D01*
X259841920Y-65311664D01*
X259794301Y-65264045D01*
X259699063Y-65216426D01*
X259603825Y-65216426D01*
X259508587Y-65264045D01*
X259460968Y-65311664D01*
X259413348Y-65406902D01*
X259413348Y-65644998D01*
X259460968Y-65787855D01*
X259413348Y-66121188D02*
X260413348Y-66359283D01*
X259699063Y-66549760D01*
X260413348Y-66740236D01*
X259413348Y-66978331D01*
X259508587Y-67311664D02*
X259460968Y-67359283D01*
X259413348Y-67454521D01*
X259413348Y-67692617D01*
X259460968Y-67787855D01*
X259508587Y-67835474D01*
X259603825Y-67883093D01*
X259699063Y-67883093D01*
X259841920Y-67835474D01*
X260413348Y-67264045D01*
X260413348Y-67883093D01*
%TO.C,SW13*%
X213744729Y-119318236D02*
X213792348Y-119461093D01*
X213792348Y-119699188D01*
X213744729Y-119794426D01*
X213697110Y-119842045D01*
X213601872Y-119889664D01*
X213506634Y-119889664D01*
X213411396Y-119842045D01*
X213363777Y-119794426D01*
X213316158Y-119699188D01*
X213268539Y-119508712D01*
X213220920Y-119413474D01*
X213173301Y-119365855D01*
X213078063Y-119318236D01*
X212982825Y-119318236D01*
X212887587Y-119365855D01*
X212839968Y-119413474D01*
X212792348Y-119508712D01*
X212792348Y-119746807D01*
X212839968Y-119889664D01*
X212792348Y-120222998D02*
X213792348Y-120461093D01*
X213078063Y-120651569D01*
X213792348Y-120842045D01*
X212792348Y-121080140D01*
X213792348Y-121984902D02*
X213792348Y-121413474D01*
X213792348Y-121699188D02*
X212792348Y-121699188D01*
X212935206Y-121603950D01*
X213030444Y-121508712D01*
X213078063Y-121413474D01*
X212792348Y-122318236D02*
X212792348Y-122937283D01*
X213173301Y-122603950D01*
X213173301Y-122746807D01*
X213220920Y-122842045D01*
X213268539Y-122889664D01*
X213363777Y-122937283D01*
X213601872Y-122937283D01*
X213697110Y-122889664D01*
X213744729Y-122842045D01*
X213792348Y-122746807D01*
X213792348Y-122461093D01*
X213744729Y-122365855D01*
X213697110Y-122318236D01*
%TO.C,SW11*%
X232755729Y-64740236D02*
X232803348Y-64883093D01*
X232803348Y-65121188D01*
X232755729Y-65216426D01*
X232708110Y-65264045D01*
X232612872Y-65311664D01*
X232517634Y-65311664D01*
X232422396Y-65264045D01*
X232374777Y-65216426D01*
X232327158Y-65121188D01*
X232279539Y-64930712D01*
X232231920Y-64835474D01*
X232184301Y-64787855D01*
X232089063Y-64740236D01*
X231993825Y-64740236D01*
X231898587Y-64787855D01*
X231850968Y-64835474D01*
X231803348Y-64930712D01*
X231803348Y-65168807D01*
X231850968Y-65311664D01*
X231803348Y-65644998D02*
X232803348Y-65883093D01*
X232089063Y-66073569D01*
X232803348Y-66264045D01*
X231803348Y-66502140D01*
X232803348Y-67406902D02*
X232803348Y-66835474D01*
X232803348Y-67121188D02*
X231803348Y-67121188D01*
X231946206Y-67025950D01*
X232041444Y-66930712D01*
X232089063Y-66835474D01*
X232803348Y-68359283D02*
X232803348Y-67787855D01*
X232803348Y-68073569D02*
X231803348Y-68073569D01*
X231946206Y-67978331D01*
X232041444Y-67883093D01*
X232089063Y-67787855D01*
%TO.C,SW3*%
X257390729Y-93571426D02*
X257438348Y-93714283D01*
X257438348Y-93952379D01*
X257390729Y-94047617D01*
X257343110Y-94095236D01*
X257247872Y-94142855D01*
X257152634Y-94142855D01*
X257057396Y-94095236D01*
X257009777Y-94047617D01*
X256962158Y-93952379D01*
X256914539Y-93761902D01*
X256866920Y-93666664D01*
X256819301Y-93619045D01*
X256724063Y-93571426D01*
X256628825Y-93571426D01*
X256533587Y-93619045D01*
X256485968Y-93666664D01*
X256438348Y-93761902D01*
X256438348Y-93999998D01*
X256485968Y-94142855D01*
X256438348Y-94476188D02*
X257438348Y-94714283D01*
X256724063Y-94904760D01*
X257438348Y-95095236D01*
X256438348Y-95333331D01*
X256438348Y-95619045D02*
X256438348Y-96238093D01*
X256819301Y-95904760D01*
X256819301Y-96047617D01*
X256866920Y-96142855D01*
X256914539Y-96190474D01*
X257009777Y-96238093D01*
X257247872Y-96238093D01*
X257343110Y-96190474D01*
X257390729Y-96142855D01*
X257438348Y-96047617D01*
X257438348Y-95761902D01*
X257390729Y-95666664D01*
X257343110Y-95619045D01*
%TO.C,SW4*%
X241354729Y-119794426D02*
X241402348Y-119937283D01*
X241402348Y-120175379D01*
X241354729Y-120270617D01*
X241307110Y-120318236D01*
X241211872Y-120365855D01*
X241116634Y-120365855D01*
X241021396Y-120318236D01*
X240973777Y-120270617D01*
X240926158Y-120175379D01*
X240878539Y-119984902D01*
X240830920Y-119889664D01*
X240783301Y-119842045D01*
X240688063Y-119794426D01*
X240592825Y-119794426D01*
X240497587Y-119842045D01*
X240449968Y-119889664D01*
X240402348Y-119984902D01*
X240402348Y-120222998D01*
X240449968Y-120365855D01*
X240402348Y-120699188D02*
X241402348Y-120937283D01*
X240688063Y-121127760D01*
X241402348Y-121318236D01*
X240402348Y-121556331D01*
X240735682Y-122365855D02*
X241402348Y-122365855D01*
X240354729Y-122127760D02*
X241069015Y-121889664D01*
X241069015Y-122508712D01*
%TO.C,SW12*%
X229780729Y-93095236D02*
X229828348Y-93238093D01*
X229828348Y-93476188D01*
X229780729Y-93571426D01*
X229733110Y-93619045D01*
X229637872Y-93666664D01*
X229542634Y-93666664D01*
X229447396Y-93619045D01*
X229399777Y-93571426D01*
X229352158Y-93476188D01*
X229304539Y-93285712D01*
X229256920Y-93190474D01*
X229209301Y-93142855D01*
X229114063Y-93095236D01*
X229018825Y-93095236D01*
X228923587Y-93142855D01*
X228875968Y-93190474D01*
X228828348Y-93285712D01*
X228828348Y-93523807D01*
X228875968Y-93666664D01*
X228828348Y-93999998D02*
X229828348Y-94238093D01*
X229114063Y-94428569D01*
X229828348Y-94619045D01*
X228828348Y-94857140D01*
X229828348Y-95761902D02*
X229828348Y-95190474D01*
X229828348Y-95476188D02*
X228828348Y-95476188D01*
X228971206Y-95380950D01*
X229066444Y-95285712D01*
X229114063Y-95190474D01*
X228923587Y-96142855D02*
X228875968Y-96190474D01*
X228828348Y-96285712D01*
X228828348Y-96523807D01*
X228875968Y-96619045D01*
X228923587Y-96666664D01*
X229018825Y-96714283D01*
X229114063Y-96714283D01*
X229256920Y-96666664D01*
X229828348Y-96095236D01*
X229828348Y-96714283D01*
%TO.C,SW1*%
X248369729Y-38698426D02*
X248417348Y-38841283D01*
X248417348Y-39079379D01*
X248369729Y-39174617D01*
X248322110Y-39222236D01*
X248226872Y-39269855D01*
X248131634Y-39269855D01*
X248036396Y-39222236D01*
X247988777Y-39174617D01*
X247941158Y-39079379D01*
X247893539Y-38888902D01*
X247845920Y-38793664D01*
X247798301Y-38746045D01*
X247703063Y-38698426D01*
X247607825Y-38698426D01*
X247512587Y-38746045D01*
X247464968Y-38793664D01*
X247417348Y-38888902D01*
X247417348Y-39126998D01*
X247464968Y-39269855D01*
X247417348Y-39603188D02*
X248417348Y-39841283D01*
X247703063Y-40031760D01*
X248417348Y-40222236D01*
X247417348Y-40460331D01*
X248417348Y-41365093D02*
X248417348Y-40793664D01*
X248417348Y-41079379D02*
X247417348Y-41079379D01*
X247560206Y-40984140D01*
X247655444Y-40888902D01*
X247703063Y-40793664D01*
%TO.C,SW10*%
X219706188Y-29696584D02*
X219466188Y-29696584D01*
X222556188Y-29696584D02*
X223356188Y-29696584D01*
X225356188Y-39096584D02*
X225356188Y-40646584D01*
X222276188Y-40646584D02*
X221806188Y-40646584D01*
X221306188Y-40146584D02*
X221306188Y-35581760D01*
X225356188Y-31696584D02*
X225356188Y-37596584D01*
X225356188Y-40646584D02*
X225126188Y-40646584D01*
X221306188Y-35581760D02*
G75*
G03*
X219466188Y-33287438I-2349332J866D01*
G01*
X221306188Y-40146584D02*
G75*
G03*
X221806188Y-40646584I500001J1D01*
G01*
X225356188Y-31696584D02*
G75*
G03*
X223356188Y-29696584I-2000004J-4D01*
G01*
%TO.C,SW2*%
X260911188Y-66664584D02*
X260911188Y-62099760D01*
X264961188Y-67164584D02*
X264731188Y-67164584D01*
X264961188Y-58214584D02*
X264961188Y-64114584D01*
X262161188Y-56214584D02*
X262961188Y-56214584D01*
X264961188Y-65614584D02*
X264961188Y-67164584D01*
X259311188Y-56214584D02*
X259071188Y-56214584D01*
X261881188Y-67164584D02*
X261411188Y-67164584D01*
X264961188Y-58214584D02*
G75*
G03*
X262961188Y-56214584I-2000004J-4D01*
G01*
X260911188Y-62099760D02*
G75*
G03*
X259071188Y-59805438I-2349332J866D01*
G01*
X260911188Y-66664584D02*
G75*
G03*
X261411188Y-67164584I500001J1D01*
G01*
%TO.C,SW13*%
X215540188Y-110792584D02*
X216340188Y-110792584D01*
X212690188Y-110792584D02*
X212450188Y-110792584D01*
X214290188Y-121242584D02*
X214290188Y-116677760D01*
X215260188Y-121742584D02*
X214790188Y-121742584D01*
X218340188Y-121742584D02*
X218110188Y-121742584D01*
X218340188Y-112792584D02*
X218340188Y-118692584D01*
X218340188Y-120192584D02*
X218340188Y-121742584D01*
X218340188Y-112792584D02*
G75*
G03*
X216340188Y-110792584I-2000004J-4D01*
G01*
X214290188Y-121242584D02*
G75*
G03*
X214790188Y-121742584I500001J1D01*
G01*
X214290188Y-116677760D02*
G75*
G03*
X212450188Y-114383438I-2349332J866D01*
G01*
%TO.C,SW11*%
X237351188Y-58214584D02*
X237351188Y-64114584D01*
X237351188Y-65614584D02*
X237351188Y-67164584D01*
X234271188Y-67164584D02*
X233801188Y-67164584D01*
X234551188Y-56214584D02*
X235351188Y-56214584D01*
X233301188Y-66664584D02*
X233301188Y-62099760D01*
X237351188Y-67164584D02*
X237121188Y-67164584D01*
X231701188Y-56214584D02*
X231461188Y-56214584D01*
X237351188Y-58214584D02*
G75*
G03*
X235351188Y-56214584I-2000004J-4D01*
G01*
X233301188Y-62099760D02*
G75*
G03*
X231461188Y-59805438I-2349332J866D01*
G01*
X233301188Y-66664584D02*
G75*
G03*
X233801188Y-67164584I500001J1D01*
G01*
%TO.C,SW3*%
X258906188Y-95519584D02*
X258436188Y-95519584D01*
X257936188Y-95019584D02*
X257936188Y-90454760D01*
X259186188Y-84569584D02*
X259986188Y-84569584D01*
X261986188Y-93969584D02*
X261986188Y-95519584D01*
X261986188Y-86569584D02*
X261986188Y-92469584D01*
X256336188Y-84569584D02*
X256096188Y-84569584D01*
X261986188Y-95519584D02*
X261756188Y-95519584D01*
X257936188Y-90454760D02*
G75*
G03*
X256096188Y-88160438I-2349332J866D01*
G01*
X257936188Y-95019584D02*
G75*
G03*
X258436188Y-95519584I500001J1D01*
G01*
X261986188Y-86569584D02*
G75*
G03*
X259986188Y-84569584I-2000004J-4D01*
G01*
%TO.C,SW4*%
X240300188Y-110792584D02*
X240060188Y-110792584D01*
X242870188Y-121742584D02*
X242400188Y-121742584D01*
X245950188Y-112792584D02*
X245950188Y-118692584D01*
X243150188Y-110792584D02*
X243950188Y-110792584D01*
X245950188Y-120192584D02*
X245950188Y-121742584D01*
X241900188Y-121242584D02*
X241900188Y-116677760D01*
X245950188Y-121742584D02*
X245720188Y-121742584D01*
X245950188Y-112792584D02*
G75*
G03*
X243950188Y-110792584I-2000004J-4D01*
G01*
X241900188Y-116677760D02*
G75*
G03*
X240060188Y-114383438I-2349332J866D01*
G01*
X241900188Y-121242584D02*
G75*
G03*
X242400188Y-121742584I500001J1D01*
G01*
%TO.C,SW12*%
X234376188Y-86569584D02*
X234376188Y-92469584D01*
X231296188Y-95519584D02*
X230826188Y-95519584D01*
X230326188Y-95019584D02*
X230326188Y-90454760D01*
X234376188Y-95519584D02*
X234146188Y-95519584D01*
X234376188Y-93969584D02*
X234376188Y-95519584D01*
X231576188Y-84569584D02*
X232376188Y-84569584D01*
X228726188Y-84569584D02*
X228486188Y-84569584D01*
X230326188Y-90454760D02*
G75*
G03*
X228486188Y-88160438I-2349332J866D01*
G01*
X234376188Y-86569584D02*
G75*
G03*
X232376188Y-84569584I-2000004J-4D01*
G01*
X230326188Y-95019584D02*
G75*
G03*
X230826188Y-95519584I500001J1D01*
G01*
%TO.C,SW1*%
X249885188Y-40646584D02*
X249415188Y-40646584D01*
X252965188Y-40646584D02*
X252735188Y-40646584D01*
X247315188Y-29696584D02*
X247075188Y-29696584D01*
X252965188Y-31696584D02*
X252965188Y-37596584D01*
X250165188Y-29696584D02*
X250965188Y-29696584D01*
X248915188Y-40146584D02*
X248915188Y-35581760D01*
X252965188Y-39096584D02*
X252965188Y-40646584D01*
X248915188Y-40146584D02*
G75*
G03*
X249415188Y-40646584I500001J1D01*
G01*
X248915188Y-35581760D02*
G75*
G03*
X247075188Y-33287438I-2349332J866D01*
G01*
X252965188Y-31696584D02*
G75*
G03*
X250965188Y-29696584I-2000004J-4D01*
G01*
%TD*%
M02*
