G04 #@! TF.GenerationSoftware,KiCad,Pcbnew,(6.0.7)*
G04 #@! TF.CreationDate,2023-01-12T02:14:33-06:00*
G04 #@! TF.ProjectId,OpenRectangle,4f70656e-5265-4637-9461-6e676c652e6b,rev?*
G04 #@! TF.SameCoordinates,Original*
G04 #@! TF.FileFunction,Legend,Top*
G04 #@! TF.FilePolarity,Positive*
%FSLAX46Y46*%
G04 Gerber Fmt 4.6, Leading zero omitted, Abs format (unit mm)*
G04 Created by KiCad (PCBNEW (6.0.7)) date 2023-01-12 02:14:33*
%MOMM*%
%LPD*%
G01*
G04 APERTURE LIST*
%ADD10C,0.150000*%
%ADD11C,0.120000*%
%ADD12C,0.200000*%
G04 APERTURE END LIST*
D10*
G04 #@! TO.C,SW21*
X180430476Y-26994761D02*
X180573333Y-27042380D01*
X180811428Y-27042380D01*
X180906666Y-26994761D01*
X180954285Y-26947142D01*
X181001904Y-26851904D01*
X181001904Y-26756666D01*
X180954285Y-26661428D01*
X180906666Y-26613809D01*
X180811428Y-26566190D01*
X180620952Y-26518571D01*
X180525714Y-26470952D01*
X180478095Y-26423333D01*
X180430476Y-26328095D01*
X180430476Y-26232857D01*
X180478095Y-26137619D01*
X180525714Y-26090000D01*
X180620952Y-26042380D01*
X180859047Y-26042380D01*
X181001904Y-26090000D01*
X181335238Y-26042380D02*
X181573333Y-27042380D01*
X181763809Y-26328095D01*
X181954285Y-27042380D01*
X182192380Y-26042380D01*
X182525714Y-26137619D02*
X182573333Y-26090000D01*
X182668571Y-26042380D01*
X182906666Y-26042380D01*
X183001904Y-26090000D01*
X183049523Y-26137619D01*
X183097142Y-26232857D01*
X183097142Y-26328095D01*
X183049523Y-26470952D01*
X182478095Y-27042380D01*
X183097142Y-27042380D01*
X184049523Y-27042380D02*
X183478095Y-27042380D01*
X183763809Y-27042380D02*
X183763809Y-26042380D01*
X183668571Y-26185238D01*
X183573333Y-26280476D01*
X183478095Y-26328095D01*
G04 #@! TO.C,C10*
X192541892Y-51838875D02*
X192589511Y-51886494D01*
X192637130Y-52029351D01*
X192637130Y-52124589D01*
X192589511Y-52267446D01*
X192494273Y-52362684D01*
X192399035Y-52410303D01*
X192208559Y-52457922D01*
X192065702Y-52457922D01*
X191875226Y-52410303D01*
X191779988Y-52362684D01*
X191684750Y-52267446D01*
X191637130Y-52124589D01*
X191637130Y-52029351D01*
X191684750Y-51886494D01*
X191732369Y-51838875D01*
X192637130Y-50886494D02*
X192637130Y-51457922D01*
X192637130Y-51172208D02*
X191637130Y-51172208D01*
X191779988Y-51267446D01*
X191875226Y-51362684D01*
X191922845Y-51457922D01*
X191637130Y-50267446D02*
X191637130Y-50172208D01*
X191684750Y-50076970D01*
X191732369Y-50029351D01*
X191827607Y-49981732D01*
X192018083Y-49934113D01*
X192256178Y-49934113D01*
X192446654Y-49981732D01*
X192541892Y-50029351D01*
X192589511Y-50076970D01*
X192637130Y-50172208D01*
X192637130Y-50267446D01*
X192589511Y-50362684D01*
X192541892Y-50410303D01*
X192446654Y-50457922D01*
X192256178Y-50505541D01*
X192018083Y-50505541D01*
X191827607Y-50457922D01*
X191732369Y-50410303D01*
X191684750Y-50362684D01*
X191637130Y-50267446D01*
G04 #@! TO.C,U1*
X202922380Y-41751904D02*
X203731904Y-41751904D01*
X203827142Y-41704285D01*
X203874761Y-41656666D01*
X203922380Y-41561428D01*
X203922380Y-41370952D01*
X203874761Y-41275714D01*
X203827142Y-41228095D01*
X203731904Y-41180476D01*
X202922380Y-41180476D01*
X203922380Y-40180476D02*
X203922380Y-40751904D01*
X203922380Y-40466190D02*
X202922380Y-40466190D01*
X203065238Y-40561428D01*
X203160476Y-40656666D01*
X203208095Y-40751904D01*
G04 #@! TO.C,C1*
X208263333Y-37637142D02*
X208215714Y-37684761D01*
X208072857Y-37732380D01*
X207977619Y-37732380D01*
X207834761Y-37684761D01*
X207739523Y-37589523D01*
X207691904Y-37494285D01*
X207644285Y-37303809D01*
X207644285Y-37160952D01*
X207691904Y-36970476D01*
X207739523Y-36875238D01*
X207834761Y-36780000D01*
X207977619Y-36732380D01*
X208072857Y-36732380D01*
X208215714Y-36780000D01*
X208263333Y-36827619D01*
X209215714Y-37732380D02*
X208644285Y-37732380D01*
X208930000Y-37732380D02*
X208930000Y-36732380D01*
X208834761Y-36875238D01*
X208739523Y-36970476D01*
X208644285Y-37018095D01*
G04 #@! TO.C,C8*
X207076633Y-56860961D02*
X207143976Y-56860961D01*
X207278663Y-56928305D01*
X207346007Y-56995649D01*
X207413350Y-57130336D01*
X207413350Y-57265023D01*
X207379679Y-57366038D01*
X207278663Y-57534397D01*
X207177648Y-57635412D01*
X207009289Y-57736427D01*
X206908274Y-57770099D01*
X206773587Y-57770099D01*
X206638900Y-57702755D01*
X206571556Y-57635412D01*
X206504213Y-57500725D01*
X206504213Y-57433381D01*
X206335854Y-56793618D02*
X206369526Y-56894633D01*
X206369526Y-56961977D01*
X206335854Y-57062992D01*
X206302182Y-57096664D01*
X206201167Y-57130336D01*
X206133824Y-57130336D01*
X206032808Y-57096664D01*
X205898121Y-56961977D01*
X205864450Y-56860961D01*
X205864450Y-56793618D01*
X205898121Y-56692603D01*
X205931793Y-56658931D01*
X206032808Y-56625259D01*
X206100152Y-56625259D01*
X206201167Y-56658931D01*
X206335854Y-56793618D01*
X206436869Y-56827290D01*
X206504213Y-56827290D01*
X206605228Y-56793618D01*
X206739915Y-56658931D01*
X206773587Y-56557916D01*
X206773587Y-56490572D01*
X206739915Y-56389557D01*
X206605228Y-56254870D01*
X206504213Y-56221198D01*
X206436869Y-56221198D01*
X206335854Y-56254870D01*
X206201167Y-56389557D01*
X206167495Y-56490572D01*
X206167495Y-56557916D01*
X206201167Y-56658931D01*
G04 #@! TO.C,Y1*
X195817809Y-68465440D02*
X195817809Y-68941630D01*
X195484476Y-67941630D02*
X195817809Y-68465440D01*
X196151142Y-67941630D01*
X197008285Y-68941630D02*
X196436857Y-68941630D01*
X196722571Y-68941630D02*
X196722571Y-67941630D01*
X196627333Y-68084488D01*
X196532095Y-68179726D01*
X196436857Y-68227345D01*
G04 #@! TO.C,C12*
X192946963Y-58565368D02*
X192946963Y-58632712D01*
X192879619Y-58767399D01*
X192812276Y-58834742D01*
X192677589Y-58902086D01*
X192542902Y-58902086D01*
X192441887Y-58868414D01*
X192273528Y-58767399D01*
X192172513Y-58666384D01*
X192071497Y-58498025D01*
X192037826Y-58397010D01*
X192037826Y-58262323D01*
X192105169Y-58127636D01*
X192172513Y-58060292D01*
X192307200Y-57992949D01*
X192374543Y-57992949D01*
X193687742Y-57959277D02*
X193283681Y-58363338D01*
X193485711Y-58161307D02*
X192778604Y-57454200D01*
X192812276Y-57622559D01*
X192812276Y-57757246D01*
X192778604Y-57858262D01*
X193317352Y-57050139D02*
X193317352Y-56982796D01*
X193351024Y-56881781D01*
X193519383Y-56713422D01*
X193620398Y-56679750D01*
X193687742Y-56679750D01*
X193788757Y-56713422D01*
X193856100Y-56780765D01*
X193923444Y-56915452D01*
X193923444Y-57723574D01*
X194361177Y-57285842D01*
G04 #@! TO.C,C16*
X198764892Y-66697875D02*
X198812511Y-66745494D01*
X198860130Y-66888351D01*
X198860130Y-66983589D01*
X198812511Y-67126446D01*
X198717273Y-67221684D01*
X198622035Y-67269303D01*
X198431559Y-67316922D01*
X198288702Y-67316922D01*
X198098226Y-67269303D01*
X198002988Y-67221684D01*
X197907750Y-67126446D01*
X197860130Y-66983589D01*
X197860130Y-66888351D01*
X197907750Y-66745494D01*
X197955369Y-66697875D01*
X198860130Y-65745494D02*
X198860130Y-66316922D01*
X198860130Y-66031208D02*
X197860130Y-66031208D01*
X198002988Y-66126446D01*
X198098226Y-66221684D01*
X198145845Y-66316922D01*
X197860130Y-64888351D02*
X197860130Y-65078827D01*
X197907750Y-65174065D01*
X197955369Y-65221684D01*
X198098226Y-65316922D01*
X198288702Y-65364541D01*
X198669654Y-65364541D01*
X198764892Y-65316922D01*
X198812511Y-65269303D01*
X198860130Y-65174065D01*
X198860130Y-64983589D01*
X198812511Y-64888351D01*
X198764892Y-64840732D01*
X198669654Y-64793113D01*
X198431559Y-64793113D01*
X198336321Y-64840732D01*
X198288702Y-64888351D01*
X198241083Y-64983589D01*
X198241083Y-65174065D01*
X198288702Y-65269303D01*
X198336321Y-65316922D01*
X198431559Y-65364541D01*
G04 #@! TO.C,F1*
X204154820Y-38433332D02*
X204154820Y-38766665D01*
X204678629Y-38766665D02*
X203678629Y-38766665D01*
X203678629Y-38290475D01*
X204678629Y-37385713D02*
X204678629Y-37957141D01*
X204678629Y-37671427D02*
X203678629Y-37671427D01*
X203821487Y-37766665D01*
X203916725Y-37861903D01*
X203964344Y-37957141D01*
G04 #@! TO.C,D1*
X213651904Y-34560476D02*
X212851904Y-34560476D01*
X212851904Y-34370000D01*
X212890000Y-34255714D01*
X212966190Y-34179523D01*
X213042380Y-34141428D01*
X213194761Y-34103333D01*
X213309047Y-34103333D01*
X213461428Y-34141428D01*
X213537619Y-34179523D01*
X213613809Y-34255714D01*
X213651904Y-34370000D01*
X213651904Y-34560476D01*
X213651904Y-33341428D02*
X213651904Y-33798571D01*
X213651904Y-33570000D02*
X212851904Y-33570000D01*
X212966190Y-33646190D01*
X213042380Y-33722380D01*
X213080476Y-33798571D01*
G04 #@! TO.C,C6*
X206173333Y-45017142D02*
X206125714Y-45064761D01*
X205982857Y-45112380D01*
X205887619Y-45112380D01*
X205744761Y-45064761D01*
X205649523Y-44969523D01*
X205601904Y-44874285D01*
X205554285Y-44683809D01*
X205554285Y-44540952D01*
X205601904Y-44350476D01*
X205649523Y-44255238D01*
X205744761Y-44160000D01*
X205887619Y-44112380D01*
X205982857Y-44112380D01*
X206125714Y-44160000D01*
X206173333Y-44207619D01*
X207030476Y-44112380D02*
X206840000Y-44112380D01*
X206744761Y-44160000D01*
X206697142Y-44207619D01*
X206601904Y-44350476D01*
X206554285Y-44540952D01*
X206554285Y-44921904D01*
X206601904Y-45017142D01*
X206649523Y-45064761D01*
X206744761Y-45112380D01*
X206935238Y-45112380D01*
X207030476Y-45064761D01*
X207078095Y-45017142D01*
X207125714Y-44921904D01*
X207125714Y-44683809D01*
X207078095Y-44588571D01*
X207030476Y-44540952D01*
X206935238Y-44493333D01*
X206744761Y-44493333D01*
X206649523Y-44540952D01*
X206601904Y-44588571D01*
X206554285Y-44683809D01*
G04 #@! TO.C,C2*
X206173333Y-43897142D02*
X206125714Y-43944761D01*
X205982857Y-43992380D01*
X205887619Y-43992380D01*
X205744761Y-43944761D01*
X205649523Y-43849523D01*
X205601904Y-43754285D01*
X205554285Y-43563809D01*
X205554285Y-43420952D01*
X205601904Y-43230476D01*
X205649523Y-43135238D01*
X205744761Y-43040000D01*
X205887619Y-42992380D01*
X205982857Y-42992380D01*
X206125714Y-43040000D01*
X206173333Y-43087619D01*
X206554285Y-43087619D02*
X206601904Y-43040000D01*
X206697142Y-42992380D01*
X206935238Y-42992380D01*
X207030476Y-43040000D01*
X207078095Y-43087619D01*
X207125714Y-43182857D01*
X207125714Y-43278095D01*
X207078095Y-43420952D01*
X206506666Y-43992380D01*
X207125714Y-43992380D01*
G04 #@! TO.C,C3*
X200542892Y-48822684D02*
X200590511Y-48870303D01*
X200638130Y-49013160D01*
X200638130Y-49108398D01*
X200590511Y-49251256D01*
X200495273Y-49346494D01*
X200400035Y-49394113D01*
X200209559Y-49441732D01*
X200066702Y-49441732D01*
X199876226Y-49394113D01*
X199780988Y-49346494D01*
X199685750Y-49251256D01*
X199638130Y-49108398D01*
X199638130Y-49013160D01*
X199685750Y-48870303D01*
X199733369Y-48822684D01*
X199638130Y-48489351D02*
X199638130Y-47870303D01*
X200019083Y-48203637D01*
X200019083Y-48060779D01*
X200066702Y-47965541D01*
X200114321Y-47917922D01*
X200209559Y-47870303D01*
X200447654Y-47870303D01*
X200542892Y-47917922D01*
X200590511Y-47965541D01*
X200638130Y-48060779D01*
X200638130Y-48346494D01*
X200590511Y-48441732D01*
X200542892Y-48489351D01*
G04 #@! TO.C,R6*
X196719380Y-62649916D02*
X196243190Y-62983250D01*
X196719380Y-63221345D02*
X195719380Y-63221345D01*
X195719380Y-62840392D01*
X195767000Y-62745154D01*
X195814619Y-62697535D01*
X195909857Y-62649916D01*
X196052714Y-62649916D01*
X196147952Y-62697535D01*
X196195571Y-62745154D01*
X196243190Y-62840392D01*
X196243190Y-63221345D01*
X195719380Y-61792773D02*
X195719380Y-61983250D01*
X195767000Y-62078488D01*
X195814619Y-62126107D01*
X195957476Y-62221345D01*
X196147952Y-62268964D01*
X196528904Y-62268964D01*
X196624142Y-62221345D01*
X196671761Y-62173726D01*
X196719380Y-62078488D01*
X196719380Y-61888011D01*
X196671761Y-61792773D01*
X196624142Y-61745154D01*
X196528904Y-61697535D01*
X196290809Y-61697535D01*
X196195571Y-61745154D01*
X196147952Y-61792773D01*
X196100333Y-61888011D01*
X196100333Y-62078488D01*
X196147952Y-62173726D01*
X196195571Y-62221345D01*
X196290809Y-62268964D01*
G04 #@! TO.C,C5*
X202510142Y-62649916D02*
X202557761Y-62697535D01*
X202605380Y-62840392D01*
X202605380Y-62935630D01*
X202557761Y-63078488D01*
X202462523Y-63173726D01*
X202367285Y-63221345D01*
X202176809Y-63268964D01*
X202033952Y-63268964D01*
X201843476Y-63221345D01*
X201748238Y-63173726D01*
X201653000Y-63078488D01*
X201605380Y-62935630D01*
X201605380Y-62840392D01*
X201653000Y-62697535D01*
X201700619Y-62649916D01*
X201605380Y-61745154D02*
X201605380Y-62221345D01*
X202081571Y-62268964D01*
X202033952Y-62221345D01*
X201986333Y-62126107D01*
X201986333Y-61888011D01*
X202033952Y-61792773D01*
X202081571Y-61745154D01*
X202176809Y-61697535D01*
X202414904Y-61697535D01*
X202510142Y-61745154D01*
X202557761Y-61792773D01*
X202605380Y-61888011D01*
X202605380Y-62126107D01*
X202557761Y-62221345D01*
X202510142Y-62268964D01*
G04 #@! TO.C,C13*
X204414142Y-49107392D02*
X204366523Y-49155011D01*
X204223666Y-49202630D01*
X204128428Y-49202630D01*
X203985571Y-49155011D01*
X203890333Y-49059773D01*
X203842714Y-48964535D01*
X203795095Y-48774059D01*
X203795095Y-48631202D01*
X203842714Y-48440726D01*
X203890333Y-48345488D01*
X203985571Y-48250250D01*
X204128428Y-48202630D01*
X204223666Y-48202630D01*
X204366523Y-48250250D01*
X204414142Y-48297869D01*
X205366523Y-49202630D02*
X204795095Y-49202630D01*
X205080809Y-49202630D02*
X205080809Y-48202630D01*
X204985571Y-48345488D01*
X204890333Y-48440726D01*
X204795095Y-48488345D01*
X205699857Y-48202630D02*
X206318904Y-48202630D01*
X205985571Y-48583583D01*
X206128428Y-48583583D01*
X206223666Y-48631202D01*
X206271285Y-48678821D01*
X206318904Y-48774059D01*
X206318904Y-49012154D01*
X206271285Y-49107392D01*
X206223666Y-49155011D01*
X206128428Y-49202630D01*
X205842714Y-49202630D01*
X205747476Y-49155011D01*
X205699857Y-49107392D01*
G04 #@! TO.C,C9*
X201558892Y-48822684D02*
X201606511Y-48870303D01*
X201654130Y-49013160D01*
X201654130Y-49108398D01*
X201606511Y-49251256D01*
X201511273Y-49346494D01*
X201416035Y-49394113D01*
X201225559Y-49441732D01*
X201082702Y-49441732D01*
X200892226Y-49394113D01*
X200796988Y-49346494D01*
X200701750Y-49251256D01*
X200654130Y-49108398D01*
X200654130Y-49013160D01*
X200701750Y-48870303D01*
X200749369Y-48822684D01*
X201654130Y-48346494D02*
X201654130Y-48156018D01*
X201606511Y-48060779D01*
X201558892Y-48013160D01*
X201416035Y-47917922D01*
X201225559Y-47870303D01*
X200844607Y-47870303D01*
X200749369Y-47917922D01*
X200701750Y-47965541D01*
X200654130Y-48060779D01*
X200654130Y-48251256D01*
X200701750Y-48346494D01*
X200749369Y-48394113D01*
X200844607Y-48441732D01*
X201082702Y-48441732D01*
X201177940Y-48394113D01*
X201225559Y-48346494D01*
X201273178Y-48251256D01*
X201273178Y-48060779D01*
X201225559Y-47965541D01*
X201177940Y-47917922D01*
X201082702Y-47870303D01*
G04 #@! TO.C,C17*
X191687142Y-43027142D02*
X191639523Y-43074761D01*
X191496666Y-43122380D01*
X191401428Y-43122380D01*
X191258571Y-43074761D01*
X191163333Y-42979523D01*
X191115714Y-42884285D01*
X191068095Y-42693809D01*
X191068095Y-42550952D01*
X191115714Y-42360476D01*
X191163333Y-42265238D01*
X191258571Y-42170000D01*
X191401428Y-42122380D01*
X191496666Y-42122380D01*
X191639523Y-42170000D01*
X191687142Y-42217619D01*
X192639523Y-43122380D02*
X192068095Y-43122380D01*
X192353809Y-43122380D02*
X192353809Y-42122380D01*
X192258571Y-42265238D01*
X192163333Y-42360476D01*
X192068095Y-42408095D01*
X192972857Y-42122380D02*
X193639523Y-42122380D01*
X193210952Y-43122380D01*
G04 #@! TO.C,C15*
X194382142Y-66951875D02*
X194429761Y-66999494D01*
X194477380Y-67142351D01*
X194477380Y-67237589D01*
X194429761Y-67380446D01*
X194334523Y-67475684D01*
X194239285Y-67523303D01*
X194048809Y-67570922D01*
X193905952Y-67570922D01*
X193715476Y-67523303D01*
X193620238Y-67475684D01*
X193525000Y-67380446D01*
X193477380Y-67237589D01*
X193477380Y-67142351D01*
X193525000Y-66999494D01*
X193572619Y-66951875D01*
X194477380Y-65999494D02*
X194477380Y-66570922D01*
X194477380Y-66285208D02*
X193477380Y-66285208D01*
X193620238Y-66380446D01*
X193715476Y-66475684D01*
X193763095Y-66570922D01*
X193477380Y-65094732D02*
X193477380Y-65570922D01*
X193953571Y-65618541D01*
X193905952Y-65570922D01*
X193858333Y-65475684D01*
X193858333Y-65237589D01*
X193905952Y-65142351D01*
X193953571Y-65094732D01*
X194048809Y-65047113D01*
X194286904Y-65047113D01*
X194382142Y-65094732D01*
X194429761Y-65142351D01*
X194477380Y-65237589D01*
X194477380Y-65475684D01*
X194429761Y-65570922D01*
X194382142Y-65618541D01*
G04 #@! TO.C,R5*
X202422380Y-43306666D02*
X201946190Y-43640000D01*
X202422380Y-43878095D02*
X201422380Y-43878095D01*
X201422380Y-43497142D01*
X201470000Y-43401904D01*
X201517619Y-43354285D01*
X201612857Y-43306666D01*
X201755714Y-43306666D01*
X201850952Y-43354285D01*
X201898571Y-43401904D01*
X201946190Y-43497142D01*
X201946190Y-43878095D01*
X201422380Y-42401904D02*
X201422380Y-42878095D01*
X201898571Y-42925714D01*
X201850952Y-42878095D01*
X201803333Y-42782857D01*
X201803333Y-42544761D01*
X201850952Y-42449523D01*
X201898571Y-42401904D01*
X201993809Y-42354285D01*
X202231904Y-42354285D01*
X202327142Y-42401904D01*
X202374761Y-42449523D01*
X202422380Y-42544761D01*
X202422380Y-42782857D01*
X202374761Y-42878095D01*
X202327142Y-42925714D01*
G04 #@! TO.C,R7*
X193472380Y-33446666D02*
X192996190Y-33780000D01*
X193472380Y-34018095D02*
X192472380Y-34018095D01*
X192472380Y-33637142D01*
X192520000Y-33541904D01*
X192567619Y-33494285D01*
X192662857Y-33446666D01*
X192805714Y-33446666D01*
X192900952Y-33494285D01*
X192948571Y-33541904D01*
X192996190Y-33637142D01*
X192996190Y-34018095D01*
X192472380Y-33113333D02*
X192472380Y-32446666D01*
X193472380Y-32875238D01*
G04 #@! TO.C,R4*
X200892380Y-43306666D02*
X200416190Y-43640000D01*
X200892380Y-43878095D02*
X199892380Y-43878095D01*
X199892380Y-43497142D01*
X199940000Y-43401904D01*
X199987619Y-43354285D01*
X200082857Y-43306666D01*
X200225714Y-43306666D01*
X200320952Y-43354285D01*
X200368571Y-43401904D01*
X200416190Y-43497142D01*
X200416190Y-43878095D01*
X200225714Y-42449523D02*
X200892380Y-42449523D01*
X199844761Y-42687619D02*
X200559047Y-42925714D01*
X200559047Y-42306666D01*
G04 #@! TO.C,C7*
X197777142Y-47028916D02*
X197824761Y-47076535D01*
X197872380Y-47219392D01*
X197872380Y-47314630D01*
X197824761Y-47457488D01*
X197729523Y-47552726D01*
X197634285Y-47600345D01*
X197443809Y-47647964D01*
X197300952Y-47647964D01*
X197110476Y-47600345D01*
X197015238Y-47552726D01*
X196920000Y-47457488D01*
X196872380Y-47314630D01*
X196872380Y-47219392D01*
X196920000Y-47076535D01*
X196967619Y-47028916D01*
X196872380Y-46695583D02*
X196872380Y-46028916D01*
X197872380Y-46457488D01*
G04 #@! TO.C,J3*
X208556666Y-66592380D02*
X208556666Y-67306666D01*
X208509047Y-67449523D01*
X208413809Y-67544761D01*
X208270952Y-67592380D01*
X208175714Y-67592380D01*
X208937619Y-66592380D02*
X209556666Y-66592380D01*
X209223333Y-66973333D01*
X209366190Y-66973333D01*
X209461428Y-67020952D01*
X209509047Y-67068571D01*
X209556666Y-67163809D01*
X209556666Y-67401904D01*
X209509047Y-67497142D01*
X209461428Y-67544761D01*
X209366190Y-67592380D01*
X209080476Y-67592380D01*
X208985238Y-67544761D01*
X208937619Y-67497142D01*
G04 #@! TO.C,C11*
X200986142Y-63126107D02*
X201033761Y-63173726D01*
X201081380Y-63316583D01*
X201081380Y-63411821D01*
X201033761Y-63554678D01*
X200938523Y-63649916D01*
X200843285Y-63697535D01*
X200652809Y-63745154D01*
X200509952Y-63745154D01*
X200319476Y-63697535D01*
X200224238Y-63649916D01*
X200129000Y-63554678D01*
X200081380Y-63411821D01*
X200081380Y-63316583D01*
X200129000Y-63173726D01*
X200176619Y-63126107D01*
X201081380Y-62173726D02*
X201081380Y-62745154D01*
X201081380Y-62459440D02*
X200081380Y-62459440D01*
X200224238Y-62554678D01*
X200319476Y-62649916D01*
X200367095Y-62745154D01*
X201081380Y-61221345D02*
X201081380Y-61792773D01*
X201081380Y-61507059D02*
X200081380Y-61507059D01*
X200224238Y-61602297D01*
X200319476Y-61697535D01*
X200367095Y-61792773D01*
G04 #@! TO.C,U3*
X197818095Y-49527380D02*
X197818095Y-50336904D01*
X197865714Y-50432142D01*
X197913333Y-50479761D01*
X198008571Y-50527380D01*
X198199047Y-50527380D01*
X198294285Y-50479761D01*
X198341904Y-50432142D01*
X198389523Y-50336904D01*
X198389523Y-49527380D01*
X198770476Y-49527380D02*
X199389523Y-49527380D01*
X199056190Y-49908333D01*
X199199047Y-49908333D01*
X199294285Y-49955952D01*
X199341904Y-50003571D01*
X199389523Y-50098809D01*
X199389523Y-50336904D01*
X199341904Y-50432142D01*
X199294285Y-50479761D01*
X199199047Y-50527380D01*
X198913333Y-50527380D01*
X198818095Y-50479761D01*
X198770476Y-50432142D01*
G04 #@! TO.C,C4*
X196253142Y-47028916D02*
X196300761Y-47076535D01*
X196348380Y-47219392D01*
X196348380Y-47314630D01*
X196300761Y-47457488D01*
X196205523Y-47552726D01*
X196110285Y-47600345D01*
X195919809Y-47647964D01*
X195776952Y-47647964D01*
X195586476Y-47600345D01*
X195491238Y-47552726D01*
X195396000Y-47457488D01*
X195348380Y-47314630D01*
X195348380Y-47219392D01*
X195396000Y-47076535D01*
X195443619Y-47028916D01*
X195681714Y-46171773D02*
X196348380Y-46171773D01*
X195300761Y-46409869D02*
X196015047Y-46647964D01*
X196015047Y-46028916D01*
G04 #@! TO.C,R3*
X209796974Y-67219880D02*
X209463641Y-66743690D01*
X209225545Y-67219880D02*
X209225545Y-66219880D01*
X209606498Y-66219880D01*
X209701736Y-66267500D01*
X209749355Y-66315119D01*
X209796974Y-66410357D01*
X209796974Y-66553214D01*
X209749355Y-66648452D01*
X209701736Y-66696071D01*
X209606498Y-66743690D01*
X209225545Y-66743690D01*
X210130307Y-66219880D02*
X210749355Y-66219880D01*
X210416021Y-66600833D01*
X210558879Y-66600833D01*
X210654117Y-66648452D01*
X210701736Y-66696071D01*
X210749355Y-66791309D01*
X210749355Y-67029404D01*
X210701736Y-67124642D01*
X210654117Y-67172261D01*
X210558879Y-67219880D01*
X210273164Y-67219880D01*
X210177926Y-67172261D01*
X210130307Y-67124642D01*
G04 #@! TO.C,U2*
X200392380Y-39401904D02*
X201201904Y-39401904D01*
X201297142Y-39354285D01*
X201344761Y-39306666D01*
X201392380Y-39211428D01*
X201392380Y-39020952D01*
X201344761Y-38925714D01*
X201297142Y-38878095D01*
X201201904Y-38830476D01*
X200392380Y-38830476D01*
X200487619Y-38401904D02*
X200440000Y-38354285D01*
X200392380Y-38259047D01*
X200392380Y-38020952D01*
X200440000Y-37925714D01*
X200487619Y-37878095D01*
X200582857Y-37830476D01*
X200678095Y-37830476D01*
X200820952Y-37878095D01*
X201392380Y-38449523D01*
X201392380Y-37830476D01*
G04 #@! TO.C,C14*
X204414142Y-50631392D02*
X204366523Y-50679011D01*
X204223666Y-50726630D01*
X204128428Y-50726630D01*
X203985571Y-50679011D01*
X203890333Y-50583773D01*
X203842714Y-50488535D01*
X203795095Y-50298059D01*
X203795095Y-50155202D01*
X203842714Y-49964726D01*
X203890333Y-49869488D01*
X203985571Y-49774250D01*
X204128428Y-49726630D01*
X204223666Y-49726630D01*
X204366523Y-49774250D01*
X204414142Y-49821869D01*
X205366523Y-50726630D02*
X204795095Y-50726630D01*
X205080809Y-50726630D02*
X205080809Y-49726630D01*
X204985571Y-49869488D01*
X204890333Y-49964726D01*
X204795095Y-50012345D01*
X206223666Y-50059964D02*
X206223666Y-50726630D01*
X205985571Y-49679011D02*
X205747476Y-50393297D01*
X206366523Y-50393297D01*
G04 #@! TO.C,J1*
X198170166Y-34552380D02*
X198170166Y-35266666D01*
X198122547Y-35409523D01*
X198027309Y-35504761D01*
X197884452Y-35552380D01*
X197789214Y-35552380D01*
X199170166Y-35552380D02*
X198598738Y-35552380D01*
X198884452Y-35552380D02*
X198884452Y-34552380D01*
X198789214Y-34695238D01*
X198693976Y-34790476D01*
X198598738Y-34838095D01*
G04 #@! TO.C,U4*
X192957380Y-39701904D02*
X193766904Y-39701904D01*
X193862142Y-39654285D01*
X193909761Y-39606666D01*
X193957380Y-39511428D01*
X193957380Y-39320952D01*
X193909761Y-39225714D01*
X193862142Y-39178095D01*
X193766904Y-39130476D01*
X192957380Y-39130476D01*
X193290714Y-38225714D02*
X193957380Y-38225714D01*
X192909761Y-38463809D02*
X193624047Y-38701904D01*
X193624047Y-38082857D01*
D11*
G04 #@! TO.C,SW21*
X180790000Y-32910000D02*
X180300000Y-32420000D01*
X180790000Y-32910000D02*
X183690000Y-32910000D01*
X183690000Y-27470000D02*
X184180000Y-27960000D01*
X179520000Y-31230000D02*
X179520000Y-29150000D01*
X180790000Y-27470000D02*
X180300000Y-27960000D01*
X184960000Y-31230000D02*
X184960000Y-29150000D01*
X183690000Y-32910000D02*
X184180000Y-32420000D01*
X180790000Y-27470000D02*
X183690000Y-27470000D01*
G04 #@! TO.C,C10*
X192984750Y-51303854D02*
X192984750Y-51088182D01*
X193704750Y-51303854D02*
X193704750Y-51088182D01*
G04 #@! TO.C,U1*
X204310000Y-40990000D02*
X204310000Y-42665000D01*
X207430000Y-40990000D02*
X207430000Y-41640000D01*
X204310000Y-40990000D02*
X204310000Y-40340000D01*
X207430000Y-40990000D02*
X207430000Y-40340000D01*
G04 #@! TO.C,C1*
X208322164Y-38080000D02*
X208537836Y-38080000D01*
X208322164Y-38800000D02*
X208537836Y-38800000D01*
G04 #@! TO.C,C8*
X205555190Y-57994200D02*
X205707693Y-58146703D01*
X206064307Y-57485083D02*
X206216810Y-57637586D01*
G04 #@! TO.C,Y1*
X198294000Y-64389250D02*
X194294000Y-64389250D01*
X198294000Y-67689250D02*
X198294000Y-64389250D01*
G04 #@! TO.C,C12*
X192659560Y-57216325D02*
X192507057Y-57368828D01*
X192150443Y-56707208D02*
X191997940Y-56859711D01*
G04 #@! TO.C,C16*
X199207750Y-66162854D02*
X199207750Y-65947182D01*
X199927750Y-66162854D02*
X199927750Y-65947182D01*
G04 #@! TO.C,F1*
X201496249Y-37497935D02*
X201496249Y-38702063D01*
X203316249Y-37497935D02*
X203316249Y-38702063D01*
G04 #@! TO.C,D1*
X210790000Y-35820000D02*
X212190000Y-35820000D01*
X212490000Y-35570000D02*
X212490000Y-31920000D01*
X210490000Y-35570000D02*
X210490000Y-31920000D01*
X210490000Y-35570000D02*
G75*
G03*
X210790000Y-35820000I289561J42473D01*
G01*
X212190000Y-35820001D02*
G75*
G03*
X212490000Y-35570000I10462J292446D01*
G01*
G04 #@! TO.C,C6*
X206447836Y-43860000D02*
X206232164Y-43860000D01*
X206447836Y-43140000D02*
X206232164Y-43140000D01*
G04 #@! TO.C,C2*
X206232164Y-45060000D02*
X206447836Y-45060000D01*
X206232164Y-44340000D02*
X206447836Y-44340000D01*
G04 #@! TO.C,C3*
X201705750Y-48763854D02*
X201705750Y-48548182D01*
X200985750Y-48763854D02*
X200985750Y-48548182D01*
G04 #@! TO.C,R6*
X197057000Y-62636891D02*
X197057000Y-62329609D01*
X197817000Y-62636891D02*
X197817000Y-62329609D01*
G04 #@! TO.C,C5*
X201353000Y-62375414D02*
X201353000Y-62591086D01*
X200633000Y-62375414D02*
X200633000Y-62591086D01*
G04 #@! TO.C,C13*
X204949164Y-50270250D02*
X205164836Y-50270250D01*
X204949164Y-49550250D02*
X205164836Y-49550250D01*
G04 #@! TO.C,C9*
X202001750Y-48763854D02*
X202001750Y-48548182D01*
X202721750Y-48763854D02*
X202721750Y-48548182D01*
G04 #@! TO.C,C17*
X192222164Y-44190000D02*
X192437836Y-44190000D01*
X192222164Y-43470000D02*
X192437836Y-43470000D01*
G04 #@! TO.C,C15*
X192505000Y-66201182D02*
X192505000Y-66416854D01*
X193225000Y-66201182D02*
X193225000Y-66416854D01*
G04 #@! TO.C,R5*
X201062500Y-42902742D02*
X201062500Y-43377258D01*
X200017500Y-42902742D02*
X200017500Y-43377258D01*
G04 #@! TO.C,R7*
X192230000Y-33126359D02*
X192230000Y-33433641D01*
X191470000Y-33126359D02*
X191470000Y-33433641D01*
G04 #@! TO.C,R4*
X199532500Y-42902742D02*
X199532500Y-43377258D01*
X198487500Y-42902742D02*
X198487500Y-43377258D01*
G04 #@! TO.C,C7*
X198940000Y-46970086D02*
X198940000Y-46754414D01*
X198220000Y-46970086D02*
X198220000Y-46754414D01*
D12*
G04 #@! TO.C,J3*
X210866732Y-68149822D02*
X211916877Y-68782797D01*
X210092392Y-71745500D02*
X206570500Y-71745500D01*
X211916877Y-70897203D02*
X210866732Y-71530178D01*
X205270500Y-70445499D02*
X205270500Y-69234501D01*
X212509500Y-69831951D02*
X212509500Y-69848049D01*
X206570500Y-67934500D02*
X210092392Y-67934500D01*
X205270500Y-70445499D02*
G75*
G03*
X206570499Y-71745500I1300000J-1D01*
G01*
X206570500Y-67934500D02*
G75*
G03*
X205270500Y-69234502I0J-1300000D01*
G01*
X211916877Y-70897203D02*
G75*
G03*
X212509500Y-69848049I-632373J1049152D01*
G01*
X210866732Y-68149822D02*
G75*
G03*
X210092392Y-67934500I-774342J-1284686D01*
G01*
X212509500Y-69831951D02*
G75*
G03*
X211916877Y-68782797I-1225000J0D01*
G01*
X210092392Y-71745500D02*
G75*
G03*
X210866732Y-71530178I-2J1500008D01*
G01*
D11*
G04 #@! TO.C,C11*
X199109000Y-62375414D02*
X199109000Y-62591086D01*
X199829000Y-62375414D02*
X199829000Y-62591086D01*
G04 #@! TO.C,U3*
X202190000Y-51285000D02*
X202190000Y-51935000D01*
X201540000Y-58505000D02*
X202190000Y-58505000D01*
X201540000Y-51285000D02*
X202190000Y-51285000D01*
X202190000Y-58505000D02*
X202190000Y-57855000D01*
X195620000Y-51285000D02*
X194970000Y-51285000D01*
X194970000Y-58505000D02*
X194970000Y-57855000D01*
X195620000Y-58505000D02*
X194970000Y-58505000D01*
G04 #@! TO.C,C4*
X196696000Y-46970086D02*
X196696000Y-46754414D01*
X197416000Y-46970086D02*
X197416000Y-46754414D01*
G04 #@! TO.C,R3*
X209963641Y-64800000D02*
X209656359Y-64800000D01*
X209963641Y-65560000D02*
X209656359Y-65560000D01*
G04 #@! TO.C,U2*
X196980000Y-38640000D02*
X196980000Y-39440000D01*
X200100000Y-38640000D02*
X200100000Y-39440000D01*
X200100000Y-38640000D02*
X200100000Y-36840000D01*
X196980000Y-38640000D02*
X196980000Y-37840000D01*
G04 #@! TO.C,C14*
X204949164Y-51074250D02*
X205164836Y-51074250D01*
X204949164Y-51794250D02*
X205164836Y-51794250D01*
G04 #@! TO.C,J1*
X203268500Y-33420000D02*
X201628500Y-33420000D01*
X195328500Y-33420000D02*
X193888500Y-33420000D01*
X193888500Y-33420000D02*
X193888500Y-27520000D01*
X203268500Y-33420000D02*
X203268500Y-27520000D01*
G04 #@! TO.C,U4*
X187220000Y-41665000D02*
X187480000Y-41665000D01*
X192670000Y-36215000D02*
X192410000Y-36215000D01*
X192670000Y-38940000D02*
X192670000Y-36215000D01*
X187220000Y-38940000D02*
X187220000Y-36215000D01*
X192670000Y-41665000D02*
X192410000Y-41665000D01*
X192410000Y-36215000D02*
X192410000Y-34540000D01*
X187220000Y-38940000D02*
X187220000Y-41665000D01*
X192670000Y-38940000D02*
X192670000Y-41665000D01*
X187220000Y-36215000D02*
X187480000Y-36215000D01*
G04 #@! TD*
M02*
