M48
; DRILL file {KiCad (6.0.7)} date Thu Jan 12 02:14:33 2023
; FORMAT={-:-/ absolute / metric / decimal}
; #@! TF.CreationDate,2023-01-12T02:14:33-06:00
; #@! TF.GenerationSoftware,Kicad,Pcbnew,(6.0.7)
; #@! TF.FileFunction,MixedPlating,1,2
FMAT,2
METRIC
; #@! TA.AperFunction,Plated,PTH,ViaDrill
T1C0.300
; #@! TA.AperFunction,Plated,PTH,ViaDrill
T2C0.350
; #@! TA.AperFunction,Plated,PTH,ComponentDrill
T3C0.350
; #@! TA.AperFunction,Plated,PTH,ComponentDrill
T4C0.400
; #@! TA.AperFunction,Plated,PTH,ComponentDrill
T5C0.500
; #@! TA.AperFunction,Plated,PTH,ComponentDrill
T6C3.000
; #@! TA.AperFunction,NonPlated,NPTH,ComponentDrill
T7C0.650
; #@! TA.AperFunction,NonPlated,NPTH,ComponentDrill
T8C0.991
; #@! TA.AperFunction,NonPlated,NPTH,ComponentDrill
T9C1.750
; #@! TA.AperFunction,NonPlated,NPTH,ComponentDrill
T10C3.988
%
G90
G05
T1
X188.04Y-36.75
X191.313Y-58.054
X192.202Y-44.719
X192.865Y-64.912
X193.345Y-49.926
X193.73Y-43.83
X197.79Y-45.735
X197.945Y-48.767
X198.806Y-48.275
X198.901Y-45.243
X198.933Y-61.102
X199.568Y-67.579
X200.203Y-63.896
X200.806Y-45.243
X201.854Y-61.991
X202.362Y-47.259
X205.07Y-44.71
X205.537Y-48.783
X206.902Y-58.832
X206.902Y-58.832
X207.68Y-43.55
T2
X199.187Y-56.994
X199.187Y-56.994
X199.314Y-52.757
T3
X197.305Y-53.62
X197.305Y-54.895
X197.305Y-56.17
X198.58Y-53.62
X198.58Y-54.895
X198.58Y-56.17
X199.855Y-53.62
X199.855Y-54.895
X199.855Y-56.17
T4
X195.778Y-31.71
X196.178Y-31.01
X196.978Y-31.01
X197.379Y-31.71
X197.778Y-31.01
X198.178Y-31.71
X198.978Y-31.71
X199.379Y-31.01
X199.778Y-31.71
X200.178Y-31.01
X200.978Y-31.01
X201.379Y-31.71
T6
X34.832Y-79.036
X41.182Y-76.496
X60.112Y-62.733
X66.462Y-60.193
X88.468Y-60.007
X94.818Y-57.467
X115.04Y-71.77
X121.39Y-69.23
X121.99Y-138.931
X128.34Y-136.391
X144.678Y-154.7
X151.028Y-152.16
X194.768Y-91.787
X201.118Y-89.247
X244.138Y-123.543
X244.138Y-154.728
X250.488Y-121.003
X250.488Y-152.188
X266.825Y-107.773
X266.825Y-138.958
X273.175Y-105.233
X273.175Y-136.418
X273.824Y-43.805
X273.824Y-71.414
X280.174Y-41.265
X280.174Y-68.874
X289.482Y-123.543
X295.832Y-121.003
X300.342Y-31.809
X300.342Y-59.419
X306.692Y-29.269
X306.692Y-56.879
X328.697Y-34.784
X328.697Y-62.394
X335.047Y-32.244
X335.047Y-59.854
X354.92Y-50.82
X354.92Y-78.43
X361.27Y-48.28
X361.27Y-75.89
T7
X194.828Y-32.36
X202.178Y-32.36
T8
X206.35Y-68.824
X206.35Y-70.856
X211.43Y-69.84
T9
X33.562Y-81.576
X43.722Y-81.576
X58.842Y-65.273
X69.002Y-65.273
X87.198Y-62.547
X97.358Y-62.547
X113.77Y-74.31
X120.72Y-141.471
X123.93Y-74.31
X130.88Y-141.471
X143.408Y-157.24
X153.568Y-157.24
X193.498Y-94.327
X203.659Y-94.327
X242.868Y-126.083
X242.868Y-157.268
X253.028Y-126.083
X253.028Y-157.268
X265.555Y-110.313
X265.555Y-141.498
X272.554Y-46.345
X272.554Y-73.954
X275.715Y-110.313
X275.715Y-141.498
X282.714Y-46.345
X282.714Y-73.954
X288.212Y-126.083
X298.373Y-126.083
X299.072Y-34.349
X299.072Y-61.959
X309.232Y-34.349
X309.232Y-61.959
X327.427Y-37.324
X327.427Y-64.934
X337.587Y-37.324
X337.587Y-64.934
X353.65Y-53.36
X353.65Y-80.97
X363.81Y-53.36
X363.81Y-80.97
T10
X38.642Y-81.576
X63.922Y-65.273
X92.278Y-62.547
X118.85Y-74.31
X125.8Y-141.471
X148.488Y-157.24
X198.578Y-94.327
X247.948Y-126.083
X247.948Y-157.268
X270.635Y-110.313
X270.635Y-141.498
X277.634Y-46.345
X277.634Y-73.954
X293.292Y-126.083
X304.152Y-34.349
X304.152Y-61.959
X332.507Y-37.324
X332.507Y-64.934
X358.73Y-53.36
X358.73Y-80.97
T5
X194.088Y-27.02G85X194.088Y-26.42
G05
X194.373Y-31.41G85X194.373Y-30.81
G05
X202.633Y-31.41G85X202.633Y-30.81
G05
X203.069Y-27.02G85X203.069Y-26.42
G05
T0
M30
