G04 #@! TF.GenerationSoftware,KiCad,Pcbnew,(6.0.7)*
G04 #@! TF.CreationDate,2023-01-16T00:23:34-06:00*
G04 #@! TF.ProjectId,OpenRectangle,4f70656e-5265-4637-9461-6e676c652e6b,rev?*
G04 #@! TF.SameCoordinates,Original*
G04 #@! TF.FileFunction,Soldermask,Top*
G04 #@! TF.FilePolarity,Negative*
%FSLAX46Y46*%
G04 Gerber Fmt 4.6, Leading zero omitted, Abs format (unit mm)*
G04 Created by KiCad (PCBNEW (6.0.7)) date 2023-01-16 00:23:34*
%MOMM*%
%LPD*%
G01*
G04 APERTURE LIST*
G04 Aperture macros list*
%AMRoundRect*
0 Rectangle with rounded corners*
0 $1 Rounding radius*
0 $2 $3 $4 $5 $6 $7 $8 $9 X,Y pos of 4 corners*
0 Add a 4 corners polygon primitive as box body*
4,1,4,$2,$3,$4,$5,$6,$7,$8,$9,$2,$3,0*
0 Add four circle primitives for the rounded corners*
1,1,$1+$1,$2,$3*
1,1,$1+$1,$4,$5*
1,1,$1+$1,$6,$7*
1,1,$1+$1,$8,$9*
0 Add four rect primitives between the rounded corners*
20,1,$1+$1,$2,$3,$4,$5,0*
20,1,$1+$1,$4,$5,$6,$7,0*
20,1,$1+$1,$6,$7,$8,$9,0*
20,1,$1+$1,$8,$9,$2,$3,0*%
G04 Aperture macros list end*
%ADD10C,0.010000*%
%ADD11C,1.750000*%
%ADD12C,3.987800*%
%ADD13C,3.800000*%
%ADD14R,1.100000X1.800000*%
%ADD15RoundRect,0.140000X0.170000X-0.140000X0.170000X0.140000X-0.170000X0.140000X-0.170000X-0.140000X0*%
%ADD16RoundRect,0.150000X0.150000X-0.587500X0.150000X0.587500X-0.150000X0.587500X-0.150000X-0.587500X0*%
%ADD17RoundRect,0.140000X0.140000X0.170000X-0.140000X0.170000X-0.140000X-0.170000X0.140000X-0.170000X0*%
%ADD18RoundRect,0.140000X-0.219203X-0.021213X-0.021213X-0.219203X0.219203X0.021213X0.021213X0.219203X0*%
%ADD19R,1.400000X1.200000*%
%ADD20RoundRect,0.140000X-0.021213X0.219203X-0.219203X0.021213X0.021213X-0.219203X0.219203X-0.021213X0*%
%ADD21RoundRect,0.250000X-0.625000X0.375000X-0.625000X-0.375000X0.625000X-0.375000X0.625000X0.375000X0*%
%ADD22RoundRect,0.225000X0.375000X-0.225000X0.375000X0.225000X-0.375000X0.225000X-0.375000X-0.225000X0*%
%ADD23RoundRect,0.140000X-0.140000X-0.170000X0.140000X-0.170000X0.140000X0.170000X-0.140000X0.170000X0*%
%ADD24RoundRect,0.135000X0.185000X-0.135000X0.185000X0.135000X-0.185000X0.135000X-0.185000X-0.135000X0*%
%ADD25RoundRect,0.140000X-0.170000X0.140000X-0.170000X-0.140000X0.170000X-0.140000X0.170000X0.140000X0*%
%ADD26RoundRect,0.200000X-0.275000X0.200000X-0.275000X-0.200000X0.275000X-0.200000X0.275000X0.200000X0*%
%ADD27RoundRect,0.135000X-0.185000X0.135000X-0.185000X-0.135000X0.185000X-0.135000X0.185000X0.135000X0*%
%ADD28C,0.990600*%
%ADD29C,0.787400*%
%ADD30RoundRect,0.050000X-0.387500X-0.050000X0.387500X-0.050000X0.387500X0.050000X-0.387500X0.050000X0*%
%ADD31RoundRect,0.050000X-0.050000X-0.387500X0.050000X-0.387500X0.050000X0.387500X-0.050000X0.387500X0*%
%ADD32RoundRect,0.144000X-1.456000X-1.456000X1.456000X-1.456000X1.456000X1.456000X-1.456000X1.456000X0*%
%ADD33RoundRect,0.135000X0.135000X0.185000X-0.135000X0.185000X-0.135000X-0.185000X0.135000X-0.185000X0*%
%ADD34RoundRect,0.150000X-0.150000X0.512500X-0.150000X-0.512500X0.150000X-0.512500X0.150000X0.512500X0*%
%ADD35C,0.650000*%
%ADD36R,0.300000X0.900000*%
%ADD37R,0.300000X0.700000*%
%ADD38O,0.800000X1.400000*%
%ADD39RoundRect,0.150000X-0.650000X-0.150000X0.650000X-0.150000X0.650000X0.150000X-0.650000X0.150000X0*%
%ADD40C,3.300000*%
G04 APERTURE END LIST*
G04 #@! TO.C,H11*
G36*
X198222910Y-73717740D02*
G01*
X198277120Y-73725907D01*
X198331070Y-73739092D01*
X198359959Y-73748281D01*
X198379237Y-73755626D01*
X198401240Y-73765180D01*
X198424533Y-73776233D01*
X198447682Y-73788077D01*
X198469254Y-73800001D01*
X198487815Y-73811297D01*
X198489301Y-73812266D01*
X198533794Y-73844415D01*
X198575082Y-73880178D01*
X198612940Y-73919231D01*
X198647145Y-73961246D01*
X198677474Y-74005898D01*
X198703702Y-74052860D01*
X198725608Y-74101806D01*
X198742967Y-74152409D01*
X198754618Y-74199596D01*
X198758973Y-74222738D01*
X198762143Y-74243733D01*
X198764283Y-74264213D01*
X198765547Y-74285812D01*
X198766090Y-74310161D01*
X198766140Y-74321361D01*
X198765340Y-74357314D01*
X198762747Y-74390368D01*
X198758124Y-74422461D01*
X198751236Y-74455531D01*
X198748299Y-74467485D01*
X198732365Y-74520131D01*
X198712002Y-74570534D01*
X198687438Y-74618488D01*
X198658899Y-74663784D01*
X198626613Y-74706214D01*
X198590807Y-74745570D01*
X198551706Y-74781643D01*
X198509540Y-74814226D01*
X198464533Y-74843111D01*
X198416913Y-74868089D01*
X198366908Y-74888952D01*
X198314743Y-74905493D01*
X198260647Y-74917502D01*
X198256891Y-74918151D01*
X198237848Y-74920700D01*
X198215162Y-74922639D01*
X198190218Y-74923938D01*
X198164401Y-74924570D01*
X198139097Y-74924503D01*
X198115691Y-74923710D01*
X198095568Y-74922161D01*
X198091175Y-74921647D01*
X198036297Y-74912152D01*
X197982921Y-74897877D01*
X197931315Y-74878950D01*
X197881745Y-74855498D01*
X197834478Y-74827647D01*
X197789780Y-74795526D01*
X197747920Y-74759261D01*
X197745081Y-74756549D01*
X197718309Y-74732585D01*
X197687302Y-74707950D01*
X197652774Y-74683124D01*
X197615437Y-74658585D01*
X197576006Y-74634811D01*
X197535192Y-74612283D01*
X197513941Y-74601361D01*
X197450081Y-74571781D01*
X197385705Y-74546855D01*
X197320161Y-74526388D01*
X197252797Y-74510185D01*
X197182961Y-74498052D01*
X197155801Y-74494487D01*
X197135996Y-74492624D01*
X197112314Y-74491236D01*
X197085884Y-74490323D01*
X197057840Y-74489884D01*
X197029313Y-74489920D01*
X197001436Y-74490429D01*
X196975340Y-74491411D01*
X196952158Y-74492867D01*
X196934821Y-74494568D01*
X196860602Y-74506080D01*
X196788369Y-74522234D01*
X196718007Y-74543074D01*
X196649399Y-74568643D01*
X196582431Y-74598988D01*
X196516987Y-74634152D01*
X196452950Y-74674179D01*
X196433272Y-74687649D01*
X196420121Y-74697041D01*
X196406768Y-74706928D01*
X196394544Y-74716300D01*
X196384784Y-74724150D01*
X196382472Y-74726111D01*
X196352106Y-74750975D01*
X196322261Y-74772379D01*
X196291247Y-74791438D01*
X196257373Y-74809267D01*
X196253631Y-74811089D01*
X196205509Y-74831642D01*
X196156551Y-74847226D01*
X196106974Y-74857842D01*
X196056993Y-74863491D01*
X196006826Y-74864175D01*
X195956687Y-74859895D01*
X195906795Y-74850650D01*
X195857364Y-74836444D01*
X195808612Y-74817276D01*
X195790551Y-74808810D01*
X195744854Y-74783751D01*
X195702280Y-74755019D01*
X195662974Y-74722905D01*
X195627084Y-74687700D01*
X195594759Y-74649696D01*
X195566145Y-74609183D01*
X195541391Y-74566454D01*
X195520643Y-74521799D01*
X195504051Y-74475511D01*
X195491760Y-74427879D01*
X195483920Y-74379196D01*
X195480677Y-74329753D01*
X195482179Y-74279842D01*
X195488573Y-74229753D01*
X195490909Y-74217457D01*
X195503453Y-74167715D01*
X195520383Y-74119985D01*
X195541434Y-74074473D01*
X195566339Y-74031384D01*
X195594833Y-73990924D01*
X195626650Y-73953299D01*
X195661524Y-73918714D01*
X195699188Y-73887376D01*
X195739377Y-73859490D01*
X195781824Y-73835262D01*
X195826264Y-73814898D01*
X195872431Y-73798604D01*
X195920057Y-73786585D01*
X195968879Y-73779047D01*
X196018629Y-73776196D01*
X196059649Y-73777480D01*
X196111536Y-73783635D01*
X196161849Y-73794581D01*
X196210630Y-73810337D01*
X196257921Y-73830922D01*
X196303762Y-73856353D01*
X196348194Y-73886650D01*
X196391259Y-73921830D01*
X196400847Y-73930496D01*
X196416610Y-73943855D01*
X196436245Y-73958642D01*
X196458930Y-73974340D01*
X196483842Y-73990433D01*
X196510161Y-74006406D01*
X196537063Y-74021741D01*
X196563728Y-74035924D01*
X196586841Y-74047275D01*
X196650517Y-74074514D01*
X196716842Y-74097815D01*
X196784968Y-74116924D01*
X196854046Y-74131586D01*
X196885291Y-74136676D01*
X196926158Y-74142000D01*
X196966978Y-74145977D01*
X197006696Y-74148548D01*
X197044257Y-74149654D01*
X197078605Y-74149236D01*
X197094841Y-74148397D01*
X197165620Y-74141964D01*
X197232806Y-74132415D01*
X197296917Y-74119616D01*
X197358469Y-74103434D01*
X197417982Y-74083735D01*
X197475973Y-74060386D01*
X197523560Y-74038020D01*
X197571816Y-74012527D01*
X197615643Y-73986520D01*
X197655691Y-73959555D01*
X197692612Y-73931185D01*
X197727055Y-73900962D01*
X197736728Y-73891733D01*
X197777974Y-73854550D01*
X197820327Y-73822144D01*
X197864133Y-73794274D01*
X197903831Y-73773461D01*
X197955234Y-73751764D01*
X198007625Y-73735016D01*
X198060797Y-73723228D01*
X198114540Y-73716412D01*
X198168647Y-73714579D01*
X198222910Y-73717740D01*
G37*
D10*
X198222910Y-73717740D02*
X198277120Y-73725907D01*
X198331070Y-73739092D01*
X198359959Y-73748281D01*
X198379237Y-73755626D01*
X198401240Y-73765180D01*
X198424533Y-73776233D01*
X198447682Y-73788077D01*
X198469254Y-73800001D01*
X198487815Y-73811297D01*
X198489301Y-73812266D01*
X198533794Y-73844415D01*
X198575082Y-73880178D01*
X198612940Y-73919231D01*
X198647145Y-73961246D01*
X198677474Y-74005898D01*
X198703702Y-74052860D01*
X198725608Y-74101806D01*
X198742967Y-74152409D01*
X198754618Y-74199596D01*
X198758973Y-74222738D01*
X198762143Y-74243733D01*
X198764283Y-74264213D01*
X198765547Y-74285812D01*
X198766090Y-74310161D01*
X198766140Y-74321361D01*
X198765340Y-74357314D01*
X198762747Y-74390368D01*
X198758124Y-74422461D01*
X198751236Y-74455531D01*
X198748299Y-74467485D01*
X198732365Y-74520131D01*
X198712002Y-74570534D01*
X198687438Y-74618488D01*
X198658899Y-74663784D01*
X198626613Y-74706214D01*
X198590807Y-74745570D01*
X198551706Y-74781643D01*
X198509540Y-74814226D01*
X198464533Y-74843111D01*
X198416913Y-74868089D01*
X198366908Y-74888952D01*
X198314743Y-74905493D01*
X198260647Y-74917502D01*
X198256891Y-74918151D01*
X198237848Y-74920700D01*
X198215162Y-74922639D01*
X198190218Y-74923938D01*
X198164401Y-74924570D01*
X198139097Y-74924503D01*
X198115691Y-74923710D01*
X198095568Y-74922161D01*
X198091175Y-74921647D01*
X198036297Y-74912152D01*
X197982921Y-74897877D01*
X197931315Y-74878950D01*
X197881745Y-74855498D01*
X197834478Y-74827647D01*
X197789780Y-74795526D01*
X197747920Y-74759261D01*
X197745081Y-74756549D01*
X197718309Y-74732585D01*
X197687302Y-74707950D01*
X197652774Y-74683124D01*
X197615437Y-74658585D01*
X197576006Y-74634811D01*
X197535192Y-74612283D01*
X197513941Y-74601361D01*
X197450081Y-74571781D01*
X197385705Y-74546855D01*
X197320161Y-74526388D01*
X197252797Y-74510185D01*
X197182961Y-74498052D01*
X197155801Y-74494487D01*
X197135996Y-74492624D01*
X197112314Y-74491236D01*
X197085884Y-74490323D01*
X197057840Y-74489884D01*
X197029313Y-74489920D01*
X197001436Y-74490429D01*
X196975340Y-74491411D01*
X196952158Y-74492867D01*
X196934821Y-74494568D01*
X196860602Y-74506080D01*
X196788369Y-74522234D01*
X196718007Y-74543074D01*
X196649399Y-74568643D01*
X196582431Y-74598988D01*
X196516987Y-74634152D01*
X196452950Y-74674179D01*
X196433272Y-74687649D01*
X196420121Y-74697041D01*
X196406768Y-74706928D01*
X196394544Y-74716300D01*
X196384784Y-74724150D01*
X196382472Y-74726111D01*
X196352106Y-74750975D01*
X196322261Y-74772379D01*
X196291247Y-74791438D01*
X196257373Y-74809267D01*
X196253631Y-74811089D01*
X196205509Y-74831642D01*
X196156551Y-74847226D01*
X196106974Y-74857842D01*
X196056993Y-74863491D01*
X196006826Y-74864175D01*
X195956687Y-74859895D01*
X195906795Y-74850650D01*
X195857364Y-74836444D01*
X195808612Y-74817276D01*
X195790551Y-74808810D01*
X195744854Y-74783751D01*
X195702280Y-74755019D01*
X195662974Y-74722905D01*
X195627084Y-74687700D01*
X195594759Y-74649696D01*
X195566145Y-74609183D01*
X195541391Y-74566454D01*
X195520643Y-74521799D01*
X195504051Y-74475511D01*
X195491760Y-74427879D01*
X195483920Y-74379196D01*
X195480677Y-74329753D01*
X195482179Y-74279842D01*
X195488573Y-74229753D01*
X195490909Y-74217457D01*
X195503453Y-74167715D01*
X195520383Y-74119985D01*
X195541434Y-74074473D01*
X195566339Y-74031384D01*
X195594833Y-73990924D01*
X195626650Y-73953299D01*
X195661524Y-73918714D01*
X195699188Y-73887376D01*
X195739377Y-73859490D01*
X195781824Y-73835262D01*
X195826264Y-73814898D01*
X195872431Y-73798604D01*
X195920057Y-73786585D01*
X195968879Y-73779047D01*
X196018629Y-73776196D01*
X196059649Y-73777480D01*
X196111536Y-73783635D01*
X196161849Y-73794581D01*
X196210630Y-73810337D01*
X196257921Y-73830922D01*
X196303762Y-73856353D01*
X196348194Y-73886650D01*
X196391259Y-73921830D01*
X196400847Y-73930496D01*
X196416610Y-73943855D01*
X196436245Y-73958642D01*
X196458930Y-73974340D01*
X196483842Y-73990433D01*
X196510161Y-74006406D01*
X196537063Y-74021741D01*
X196563728Y-74035924D01*
X196586841Y-74047275D01*
X196650517Y-74074514D01*
X196716842Y-74097815D01*
X196784968Y-74116924D01*
X196854046Y-74131586D01*
X196885291Y-74136676D01*
X196926158Y-74142000D01*
X196966978Y-74145977D01*
X197006696Y-74148548D01*
X197044257Y-74149654D01*
X197078605Y-74149236D01*
X197094841Y-74148397D01*
X197165620Y-74141964D01*
X197232806Y-74132415D01*
X197296917Y-74119616D01*
X197358469Y-74103434D01*
X197417982Y-74083735D01*
X197475973Y-74060386D01*
X197523560Y-74038020D01*
X197571816Y-74012527D01*
X197615643Y-73986520D01*
X197655691Y-73959555D01*
X197692612Y-73931185D01*
X197727055Y-73900962D01*
X197736728Y-73891733D01*
X197777974Y-73854550D01*
X197820327Y-73822144D01*
X197864133Y-73794274D01*
X197903831Y-73773461D01*
X197955234Y-73751764D01*
X198007625Y-73735016D01*
X198060797Y-73723228D01*
X198114540Y-73716412D01*
X198168647Y-73714579D01*
X198222910Y-73717740D01*
G36*
X193894651Y-78103471D02*
G01*
X193917769Y-78104295D01*
X193940068Y-78105763D01*
X193960143Y-78107825D01*
X193976591Y-78110430D01*
X193976843Y-78110481D01*
X194012240Y-78119307D01*
X194048235Y-78131283D01*
X194083427Y-78145829D01*
X194116415Y-78162366D01*
X194145798Y-78180314D01*
X194145901Y-78180384D01*
X194184222Y-78209424D01*
X194219250Y-78241954D01*
X194250651Y-78277579D01*
X194278094Y-78315905D01*
X194301247Y-78356536D01*
X194310502Y-78376203D01*
X194328046Y-78422147D01*
X194340670Y-78468852D01*
X194348378Y-78516029D01*
X194351172Y-78563392D01*
X194349056Y-78610653D01*
X194342034Y-78657524D01*
X194330108Y-78703717D01*
X194313282Y-78748944D01*
X194306069Y-78764844D01*
X194283301Y-78806930D01*
X194256676Y-78845932D01*
X194226503Y-78881672D01*
X194193093Y-78913970D01*
X194156756Y-78942647D01*
X194117802Y-78967522D01*
X194076542Y-78988417D01*
X194033287Y-79005152D01*
X193988346Y-79017547D01*
X193942030Y-79025423D01*
X193894650Y-79028602D01*
X193852087Y-79027352D01*
X193804525Y-79021285D01*
X193758168Y-79010384D01*
X193713370Y-78994813D01*
X193670482Y-78974738D01*
X193629857Y-78950324D01*
X193591847Y-78921735D01*
X193556804Y-78889137D01*
X193556472Y-78888794D01*
X193524413Y-78852053D01*
X193496608Y-78812736D01*
X193473176Y-78771149D01*
X193454232Y-78727595D01*
X193439894Y-78682381D01*
X193430278Y-78635811D01*
X193425501Y-78588191D01*
X193425369Y-78546250D01*
X193429811Y-78498459D01*
X193438942Y-78452186D01*
X193452530Y-78407681D01*
X193470345Y-78365193D01*
X193492155Y-78324969D01*
X193517730Y-78287258D01*
X193546840Y-78252310D01*
X193579253Y-78220373D01*
X193614739Y-78191695D01*
X193653066Y-78166525D01*
X193694005Y-78145113D01*
X193737325Y-78127706D01*
X193782794Y-78114554D01*
X193830182Y-78105904D01*
X193834419Y-78105369D01*
X193851573Y-78103958D01*
X193872118Y-78103342D01*
X193894651Y-78103471D01*
G37*
X193894651Y-78103471D02*
X193917769Y-78104295D01*
X193940068Y-78105763D01*
X193960143Y-78107825D01*
X193976591Y-78110430D01*
X193976843Y-78110481D01*
X194012240Y-78119307D01*
X194048235Y-78131283D01*
X194083427Y-78145829D01*
X194116415Y-78162366D01*
X194145798Y-78180314D01*
X194145901Y-78180384D01*
X194184222Y-78209424D01*
X194219250Y-78241954D01*
X194250651Y-78277579D01*
X194278094Y-78315905D01*
X194301247Y-78356536D01*
X194310502Y-78376203D01*
X194328046Y-78422147D01*
X194340670Y-78468852D01*
X194348378Y-78516029D01*
X194351172Y-78563392D01*
X194349056Y-78610653D01*
X194342034Y-78657524D01*
X194330108Y-78703717D01*
X194313282Y-78748944D01*
X194306069Y-78764844D01*
X194283301Y-78806930D01*
X194256676Y-78845932D01*
X194226503Y-78881672D01*
X194193093Y-78913970D01*
X194156756Y-78942647D01*
X194117802Y-78967522D01*
X194076542Y-78988417D01*
X194033287Y-79005152D01*
X193988346Y-79017547D01*
X193942030Y-79025423D01*
X193894650Y-79028602D01*
X193852087Y-79027352D01*
X193804525Y-79021285D01*
X193758168Y-79010384D01*
X193713370Y-78994813D01*
X193670482Y-78974738D01*
X193629857Y-78950324D01*
X193591847Y-78921735D01*
X193556804Y-78889137D01*
X193556472Y-78888794D01*
X193524413Y-78852053D01*
X193496608Y-78812736D01*
X193473176Y-78771149D01*
X193454232Y-78727595D01*
X193439894Y-78682381D01*
X193430278Y-78635811D01*
X193425501Y-78588191D01*
X193425369Y-78546250D01*
X193429811Y-78498459D01*
X193438942Y-78452186D01*
X193452530Y-78407681D01*
X193470345Y-78365193D01*
X193492155Y-78324969D01*
X193517730Y-78287258D01*
X193546840Y-78252310D01*
X193579253Y-78220373D01*
X193614739Y-78191695D01*
X193653066Y-78166525D01*
X193694005Y-78145113D01*
X193737325Y-78127706D01*
X193782794Y-78114554D01*
X193830182Y-78105904D01*
X193834419Y-78105369D01*
X193851573Y-78103958D01*
X193872118Y-78103342D01*
X193894651Y-78103471D01*
G36*
X202429534Y-76026797D02*
G01*
X202445142Y-76027000D01*
X202457561Y-76027419D01*
X202467734Y-76028118D01*
X202476608Y-76029161D01*
X202485126Y-76030610D01*
X202493611Y-76032392D01*
X202540096Y-76045025D01*
X202583464Y-76061582D01*
X202624015Y-76082232D01*
X202662052Y-76107141D01*
X202697875Y-76136479D01*
X202721089Y-76159008D01*
X202741872Y-76181645D01*
X202759351Y-76203393D01*
X202774654Y-76225844D01*
X202788910Y-76250590D01*
X202796639Y-76265606D01*
X202815336Y-76308677D01*
X202829127Y-76352630D01*
X202838045Y-76397164D01*
X202842123Y-76441973D01*
X202841393Y-76486755D01*
X202835891Y-76531206D01*
X202825647Y-76575022D01*
X202810696Y-76617900D01*
X202791071Y-76659536D01*
X202766804Y-76699627D01*
X202746194Y-76727722D01*
X202739818Y-76735200D01*
X202730807Y-76745007D01*
X202720239Y-76756006D01*
X202709190Y-76767059D01*
X202706268Y-76769900D01*
X202671476Y-76800009D01*
X202633599Y-76826190D01*
X202592989Y-76848257D01*
X202549998Y-76866023D01*
X202504976Y-76879304D01*
X202495544Y-76881452D01*
X202484933Y-76883505D01*
X202473979Y-76885046D01*
X202461620Y-76886162D01*
X202446792Y-76886937D01*
X202428430Y-76887457D01*
X202418681Y-76887631D01*
X202402428Y-76887824D01*
X202387479Y-76887889D01*
X202374737Y-76887830D01*
X202365107Y-76887654D01*
X202359493Y-76887364D01*
X202358991Y-76887302D01*
X202320139Y-76880155D01*
X202284417Y-76870646D01*
X202250232Y-76858285D01*
X202219291Y-76844230D01*
X202192902Y-76830172D01*
X202169030Y-76815207D01*
X202146382Y-76798392D01*
X202123663Y-76778781D01*
X202104807Y-76760685D01*
X202072977Y-76725680D01*
X202045778Y-76688644D01*
X202023117Y-76649406D01*
X202004897Y-76607796D01*
X201991025Y-76563644D01*
X201987970Y-76551080D01*
X201980262Y-76506149D01*
X201977488Y-76460919D01*
X201979552Y-76415794D01*
X201986355Y-76371181D01*
X201997801Y-76327482D01*
X202013794Y-76285104D01*
X202034235Y-76244451D01*
X202059029Y-76205927D01*
X202075915Y-76184050D01*
X202108086Y-76148874D01*
X202143125Y-76117891D01*
X202181023Y-76091105D01*
X202221775Y-76068521D01*
X202265370Y-76050144D01*
X202311802Y-76035979D01*
X202322161Y-76033483D01*
X202332046Y-76031286D01*
X202340707Y-76029625D01*
X202349114Y-76028426D01*
X202358237Y-76027615D01*
X202369046Y-76027116D01*
X202382511Y-76026855D01*
X202399601Y-76026758D01*
X202409791Y-76026747D01*
X202429534Y-76026797D01*
G37*
X202429534Y-76026797D02*
X202445142Y-76027000D01*
X202457561Y-76027419D01*
X202467734Y-76028118D01*
X202476608Y-76029161D01*
X202485126Y-76030610D01*
X202493611Y-76032392D01*
X202540096Y-76045025D01*
X202583464Y-76061582D01*
X202624015Y-76082232D01*
X202662052Y-76107141D01*
X202697875Y-76136479D01*
X202721089Y-76159008D01*
X202741872Y-76181645D01*
X202759351Y-76203393D01*
X202774654Y-76225844D01*
X202788910Y-76250590D01*
X202796639Y-76265606D01*
X202815336Y-76308677D01*
X202829127Y-76352630D01*
X202838045Y-76397164D01*
X202842123Y-76441973D01*
X202841393Y-76486755D01*
X202835891Y-76531206D01*
X202825647Y-76575022D01*
X202810696Y-76617900D01*
X202791071Y-76659536D01*
X202766804Y-76699627D01*
X202746194Y-76727722D01*
X202739818Y-76735200D01*
X202730807Y-76745007D01*
X202720239Y-76756006D01*
X202709190Y-76767059D01*
X202706268Y-76769900D01*
X202671476Y-76800009D01*
X202633599Y-76826190D01*
X202592989Y-76848257D01*
X202549998Y-76866023D01*
X202504976Y-76879304D01*
X202495544Y-76881452D01*
X202484933Y-76883505D01*
X202473979Y-76885046D01*
X202461620Y-76886162D01*
X202446792Y-76886937D01*
X202428430Y-76887457D01*
X202418681Y-76887631D01*
X202402428Y-76887824D01*
X202387479Y-76887889D01*
X202374737Y-76887830D01*
X202365107Y-76887654D01*
X202359493Y-76887364D01*
X202358991Y-76887302D01*
X202320139Y-76880155D01*
X202284417Y-76870646D01*
X202250232Y-76858285D01*
X202219291Y-76844230D01*
X202192902Y-76830172D01*
X202169030Y-76815207D01*
X202146382Y-76798392D01*
X202123663Y-76778781D01*
X202104807Y-76760685D01*
X202072977Y-76725680D01*
X202045778Y-76688644D01*
X202023117Y-76649406D01*
X202004897Y-76607796D01*
X201991025Y-76563644D01*
X201987970Y-76551080D01*
X201980262Y-76506149D01*
X201977488Y-76460919D01*
X201979552Y-76415794D01*
X201986355Y-76371181D01*
X201997801Y-76327482D01*
X202013794Y-76285104D01*
X202034235Y-76244451D01*
X202059029Y-76205927D01*
X202075915Y-76184050D01*
X202108086Y-76148874D01*
X202143125Y-76117891D01*
X202181023Y-76091105D01*
X202221775Y-76068521D01*
X202265370Y-76050144D01*
X202311802Y-76035979D01*
X202322161Y-76033483D01*
X202332046Y-76031286D01*
X202340707Y-76029625D01*
X202349114Y-76028426D01*
X202358237Y-76027615D01*
X202369046Y-76027116D01*
X202382511Y-76026855D01*
X202399601Y-76026758D01*
X202409791Y-76026747D01*
X202429534Y-76026797D01*
G36*
X202425843Y-80271021D02*
G01*
X202441574Y-80271188D01*
X202454121Y-80271567D01*
X202464432Y-80272220D01*
X202473456Y-80273210D01*
X202482140Y-80274601D01*
X202491431Y-80276454D01*
X202492910Y-80276771D01*
X202535246Y-80288055D01*
X202576561Y-80303315D01*
X202615782Y-80322088D01*
X202651836Y-80343912D01*
X202657441Y-80347797D01*
X202672819Y-80359628D01*
X202689957Y-80374410D01*
X202707721Y-80391034D01*
X202724980Y-80408390D01*
X202740598Y-80425369D01*
X202753444Y-80440862D01*
X202756091Y-80444375D01*
X202781600Y-80483286D01*
X202802643Y-80524355D01*
X202819148Y-80567191D01*
X202831042Y-80611402D01*
X202838254Y-80656595D01*
X202840711Y-80702380D01*
X202838341Y-80748365D01*
X202831071Y-80794157D01*
X202825118Y-80818536D01*
X202810551Y-80862150D01*
X202791579Y-80903534D01*
X202768479Y-80942430D01*
X202741529Y-80978578D01*
X202711005Y-81011719D01*
X202677186Y-81041595D01*
X202640348Y-81067946D01*
X202600770Y-81090513D01*
X202558727Y-81109036D01*
X202514498Y-81123258D01*
X202493611Y-81128259D01*
X202479071Y-81130647D01*
X202460732Y-81132554D01*
X202439853Y-81133946D01*
X202417695Y-81134792D01*
X202395517Y-81135058D01*
X202374582Y-81134711D01*
X202356147Y-81133718D01*
X202342481Y-81132205D01*
X202296460Y-81122599D01*
X202252055Y-81108188D01*
X202209216Y-81088952D01*
X202167895Y-81064872D01*
X202164770Y-81062813D01*
X202145678Y-81048848D01*
X202125172Y-81031620D01*
X202104400Y-81012252D01*
X202084514Y-80991867D01*
X202066662Y-80971587D01*
X202052249Y-80952900D01*
X202028310Y-80914704D01*
X202008430Y-80873960D01*
X201992780Y-80831276D01*
X201981530Y-80787262D01*
X201974848Y-80742529D01*
X201972906Y-80697687D01*
X201974025Y-80671758D01*
X201978886Y-80630273D01*
X201987148Y-80591388D01*
X201999205Y-80553683D01*
X202015452Y-80515737D01*
X202019832Y-80506809D01*
X202042862Y-80466436D01*
X202069779Y-80429217D01*
X202100358Y-80395325D01*
X202134373Y-80364932D01*
X202171600Y-80338209D01*
X202211811Y-80315330D01*
X202254783Y-80296467D01*
X202300290Y-80281791D01*
X202320891Y-80276743D01*
X202329860Y-80274874D01*
X202338350Y-80273458D01*
X202347288Y-80272435D01*
X202357600Y-80271740D01*
X202370214Y-80271311D01*
X202386056Y-80271086D01*
X202405981Y-80271002D01*
X202425843Y-80271021D01*
G37*
X202425843Y-80271021D02*
X202441574Y-80271188D01*
X202454121Y-80271567D01*
X202464432Y-80272220D01*
X202473456Y-80273210D01*
X202482140Y-80274601D01*
X202491431Y-80276454D01*
X202492910Y-80276771D01*
X202535246Y-80288055D01*
X202576561Y-80303315D01*
X202615782Y-80322088D01*
X202651836Y-80343912D01*
X202657441Y-80347797D01*
X202672819Y-80359628D01*
X202689957Y-80374410D01*
X202707721Y-80391034D01*
X202724980Y-80408390D01*
X202740598Y-80425369D01*
X202753444Y-80440862D01*
X202756091Y-80444375D01*
X202781600Y-80483286D01*
X202802643Y-80524355D01*
X202819148Y-80567191D01*
X202831042Y-80611402D01*
X202838254Y-80656595D01*
X202840711Y-80702380D01*
X202838341Y-80748365D01*
X202831071Y-80794157D01*
X202825118Y-80818536D01*
X202810551Y-80862150D01*
X202791579Y-80903534D01*
X202768479Y-80942430D01*
X202741529Y-80978578D01*
X202711005Y-81011719D01*
X202677186Y-81041595D01*
X202640348Y-81067946D01*
X202600770Y-81090513D01*
X202558727Y-81109036D01*
X202514498Y-81123258D01*
X202493611Y-81128259D01*
X202479071Y-81130647D01*
X202460732Y-81132554D01*
X202439853Y-81133946D01*
X202417695Y-81134792D01*
X202395517Y-81135058D01*
X202374582Y-81134711D01*
X202356147Y-81133718D01*
X202342481Y-81132205D01*
X202296460Y-81122599D01*
X202252055Y-81108188D01*
X202209216Y-81088952D01*
X202167895Y-81064872D01*
X202164770Y-81062813D01*
X202145678Y-81048848D01*
X202125172Y-81031620D01*
X202104400Y-81012252D01*
X202084514Y-80991867D01*
X202066662Y-80971587D01*
X202052249Y-80952900D01*
X202028310Y-80914704D01*
X202008430Y-80873960D01*
X201992780Y-80831276D01*
X201981530Y-80787262D01*
X201974848Y-80742529D01*
X201972906Y-80697687D01*
X201974025Y-80671758D01*
X201978886Y-80630273D01*
X201987148Y-80591388D01*
X201999205Y-80553683D01*
X202015452Y-80515737D01*
X202019832Y-80506809D01*
X202042862Y-80466436D01*
X202069779Y-80429217D01*
X202100358Y-80395325D01*
X202134373Y-80364932D01*
X202171600Y-80338209D01*
X202211811Y-80315330D01*
X202254783Y-80296467D01*
X202300290Y-80281791D01*
X202320891Y-80276743D01*
X202329860Y-80274874D01*
X202338350Y-80273458D01*
X202347288Y-80272435D01*
X202357600Y-80271740D01*
X202370214Y-80271311D01*
X202386056Y-80271086D01*
X202405981Y-80271002D01*
X202425843Y-80271021D01*
G36*
X198203904Y-71744426D02*
G01*
X198224366Y-71746411D01*
X198273368Y-71755239D01*
X198319900Y-71768498D01*
X198364064Y-71786238D01*
X198405964Y-71808509D01*
X198445703Y-71835363D01*
X198483385Y-71866850D01*
X198497700Y-71880550D01*
X198509460Y-71892026D01*
X198519920Y-71901626D01*
X198529876Y-71909862D01*
X198540128Y-71917248D01*
X198551471Y-71924300D01*
X198564704Y-71931532D01*
X198580624Y-71939457D01*
X198600030Y-71948591D01*
X198611221Y-71953740D01*
X198680193Y-71983390D01*
X198749482Y-72009217D01*
X198819779Y-72031407D01*
X198891778Y-72050146D01*
X198966169Y-72065618D01*
X199043644Y-72078010D01*
X199100171Y-72084961D01*
X199114535Y-72086180D01*
X199133097Y-72087223D01*
X199155066Y-72088086D01*
X199179648Y-72088765D01*
X199206053Y-72089256D01*
X199233486Y-72089556D01*
X199261157Y-72089660D01*
X199288273Y-72089565D01*
X199314042Y-72089267D01*
X199337671Y-72088763D01*
X199358368Y-72088048D01*
X199375342Y-72087118D01*
X199384651Y-72086331D01*
X199454513Y-72077998D01*
X199520414Y-72067870D01*
X199583219Y-72055739D01*
X199643793Y-72041394D01*
X199703002Y-72024625D01*
X199761711Y-72005221D01*
X199820786Y-71982972D01*
X199836771Y-71976508D01*
X199849686Y-71970952D01*
X199865566Y-71963705D01*
X199883710Y-71955125D01*
X199903417Y-71945565D01*
X199923989Y-71935382D01*
X199944724Y-71924931D01*
X199964922Y-71914567D01*
X199983883Y-71904646D01*
X200000908Y-71895523D01*
X200015295Y-71887553D01*
X200026346Y-71881093D01*
X200032351Y-71877223D01*
X200067425Y-71855606D01*
X200105567Y-71837528D01*
X200146018Y-71823187D01*
X200188019Y-71812779D01*
X200230814Y-71806502D01*
X200273642Y-71804553D01*
X200305946Y-71806105D01*
X200352737Y-71812571D01*
X200396744Y-71823253D01*
X200438116Y-71838219D01*
X200477000Y-71857536D01*
X200513545Y-71881272D01*
X200547898Y-71909495D01*
X200562066Y-71923059D01*
X200592316Y-71956841D01*
X200618314Y-71993310D01*
X200639965Y-72032233D01*
X200657176Y-72073380D01*
X200669853Y-72116519D01*
X200677902Y-72161420D01*
X200681230Y-72207850D01*
X200681321Y-72217008D01*
X200678923Y-72262783D01*
X200671864Y-72307130D01*
X200660340Y-72349771D01*
X200644550Y-72390425D01*
X200624691Y-72428814D01*
X200600960Y-72464659D01*
X200573556Y-72497681D01*
X200542677Y-72527600D01*
X200508519Y-72554138D01*
X200471282Y-72577015D01*
X200431162Y-72595953D01*
X200406274Y-72605147D01*
X200386552Y-72611449D01*
X200369054Y-72616322D01*
X200352603Y-72619941D01*
X200336019Y-72622476D01*
X200318128Y-72624101D01*
X200297750Y-72624988D01*
X200273708Y-72625309D01*
X200268571Y-72625320D01*
X200248817Y-72625283D01*
X200233189Y-72625089D01*
X200220732Y-72624676D01*
X200210491Y-72623979D01*
X200201513Y-72622934D01*
X200192843Y-72621479D01*
X200184118Y-72619678D01*
X200149712Y-72610659D01*
X200115822Y-72598927D01*
X200083587Y-72584972D01*
X200054149Y-72569286D01*
X200029811Y-72553227D01*
X200017464Y-72544266D01*
X200005836Y-72536305D01*
X199993948Y-72528758D01*
X199980824Y-72521038D01*
X199965486Y-72512556D01*
X199946955Y-72502727D01*
X199937845Y-72497982D01*
X199878191Y-72468788D01*
X199817978Y-72442897D01*
X199756659Y-72420158D01*
X199693688Y-72400420D01*
X199628519Y-72383533D01*
X199560605Y-72369346D01*
X199489401Y-72357708D01*
X199414360Y-72348469D01*
X199385921Y-72345665D01*
X199367673Y-72344301D01*
X199345585Y-72343175D01*
X199320559Y-72342291D01*
X199293495Y-72341653D01*
X199265296Y-72341267D01*
X199236863Y-72341137D01*
X199209096Y-72341267D01*
X199182898Y-72341662D01*
X199159170Y-72342327D01*
X199138813Y-72343266D01*
X199124301Y-72344333D01*
X199063904Y-72350600D01*
X199007763Y-72357788D01*
X198955113Y-72366050D01*
X198905189Y-72375538D01*
X198857224Y-72386406D01*
X198810454Y-72398805D01*
X198764113Y-72412889D01*
X198739703Y-72421007D01*
X198707021Y-72432578D01*
X198676744Y-72444197D01*
X198647169Y-72456572D01*
X198616588Y-72470414D01*
X198587091Y-72484569D01*
X198536291Y-72509476D01*
X198518214Y-72529778D01*
X198483396Y-72565170D01*
X198445778Y-72596361D01*
X198405557Y-72623250D01*
X198362927Y-72645740D01*
X198318087Y-72663731D01*
X198271233Y-72677122D01*
X198222560Y-72685816D01*
X198206091Y-72687641D01*
X198185703Y-72689209D01*
X198166740Y-72689811D01*
X198147246Y-72689444D01*
X198125266Y-72688107D01*
X198118461Y-72687564D01*
X198071021Y-72681112D01*
X198024746Y-72669855D01*
X197979991Y-72654003D01*
X197937113Y-72633767D01*
X197896467Y-72609356D01*
X197858408Y-72580982D01*
X197823294Y-72548853D01*
X197791480Y-72513181D01*
X197767194Y-72480074D01*
X197742602Y-72438725D01*
X197722664Y-72395371D01*
X197707404Y-72350101D01*
X197696845Y-72302999D01*
X197691013Y-72254151D01*
X197689930Y-72203645D01*
X197689993Y-72201330D01*
X197691558Y-72169987D01*
X197694457Y-72141989D01*
X197698966Y-72115711D01*
X197705362Y-72089527D01*
X197713487Y-72063112D01*
X197731246Y-72017615D01*
X197753188Y-71974826D01*
X197779071Y-71934954D01*
X197808655Y-71898209D01*
X197841697Y-71864801D01*
X197877959Y-71834938D01*
X197917197Y-71808831D01*
X197959172Y-71786689D01*
X198003641Y-71768722D01*
X198050366Y-71755139D01*
X198073199Y-71750299D01*
X198096026Y-71746946D01*
X198122171Y-71744640D01*
X198149974Y-71743422D01*
X198177772Y-71743337D01*
X198203904Y-71744426D01*
G37*
X198203904Y-71744426D02*
X198224366Y-71746411D01*
X198273368Y-71755239D01*
X198319900Y-71768498D01*
X198364064Y-71786238D01*
X198405964Y-71808509D01*
X198445703Y-71835363D01*
X198483385Y-71866850D01*
X198497700Y-71880550D01*
X198509460Y-71892026D01*
X198519920Y-71901626D01*
X198529876Y-71909862D01*
X198540128Y-71917248D01*
X198551471Y-71924300D01*
X198564704Y-71931532D01*
X198580624Y-71939457D01*
X198600030Y-71948591D01*
X198611221Y-71953740D01*
X198680193Y-71983390D01*
X198749482Y-72009217D01*
X198819779Y-72031407D01*
X198891778Y-72050146D01*
X198966169Y-72065618D01*
X199043644Y-72078010D01*
X199100171Y-72084961D01*
X199114535Y-72086180D01*
X199133097Y-72087223D01*
X199155066Y-72088086D01*
X199179648Y-72088765D01*
X199206053Y-72089256D01*
X199233486Y-72089556D01*
X199261157Y-72089660D01*
X199288273Y-72089565D01*
X199314042Y-72089267D01*
X199337671Y-72088763D01*
X199358368Y-72088048D01*
X199375342Y-72087118D01*
X199384651Y-72086331D01*
X199454513Y-72077998D01*
X199520414Y-72067870D01*
X199583219Y-72055739D01*
X199643793Y-72041394D01*
X199703002Y-72024625D01*
X199761711Y-72005221D01*
X199820786Y-71982972D01*
X199836771Y-71976508D01*
X199849686Y-71970952D01*
X199865566Y-71963705D01*
X199883710Y-71955125D01*
X199903417Y-71945565D01*
X199923989Y-71935382D01*
X199944724Y-71924931D01*
X199964922Y-71914567D01*
X199983883Y-71904646D01*
X200000908Y-71895523D01*
X200015295Y-71887553D01*
X200026346Y-71881093D01*
X200032351Y-71877223D01*
X200067425Y-71855606D01*
X200105567Y-71837528D01*
X200146018Y-71823187D01*
X200188019Y-71812779D01*
X200230814Y-71806502D01*
X200273642Y-71804553D01*
X200305946Y-71806105D01*
X200352737Y-71812571D01*
X200396744Y-71823253D01*
X200438116Y-71838219D01*
X200477000Y-71857536D01*
X200513545Y-71881272D01*
X200547898Y-71909495D01*
X200562066Y-71923059D01*
X200592316Y-71956841D01*
X200618314Y-71993310D01*
X200639965Y-72032233D01*
X200657176Y-72073380D01*
X200669853Y-72116519D01*
X200677902Y-72161420D01*
X200681230Y-72207850D01*
X200681321Y-72217008D01*
X200678923Y-72262783D01*
X200671864Y-72307130D01*
X200660340Y-72349771D01*
X200644550Y-72390425D01*
X200624691Y-72428814D01*
X200600960Y-72464659D01*
X200573556Y-72497681D01*
X200542677Y-72527600D01*
X200508519Y-72554138D01*
X200471282Y-72577015D01*
X200431162Y-72595953D01*
X200406274Y-72605147D01*
X200386552Y-72611449D01*
X200369054Y-72616322D01*
X200352603Y-72619941D01*
X200336019Y-72622476D01*
X200318128Y-72624101D01*
X200297750Y-72624988D01*
X200273708Y-72625309D01*
X200268571Y-72625320D01*
X200248817Y-72625283D01*
X200233189Y-72625089D01*
X200220732Y-72624676D01*
X200210491Y-72623979D01*
X200201513Y-72622934D01*
X200192843Y-72621479D01*
X200184118Y-72619678D01*
X200149712Y-72610659D01*
X200115822Y-72598927D01*
X200083587Y-72584972D01*
X200054149Y-72569286D01*
X200029811Y-72553227D01*
X200017464Y-72544266D01*
X200005836Y-72536305D01*
X199993948Y-72528758D01*
X199980824Y-72521038D01*
X199965486Y-72512556D01*
X199946955Y-72502727D01*
X199937845Y-72497982D01*
X199878191Y-72468788D01*
X199817978Y-72442897D01*
X199756659Y-72420158D01*
X199693688Y-72400420D01*
X199628519Y-72383533D01*
X199560605Y-72369346D01*
X199489401Y-72357708D01*
X199414360Y-72348469D01*
X199385921Y-72345665D01*
X199367673Y-72344301D01*
X199345585Y-72343175D01*
X199320559Y-72342291D01*
X199293495Y-72341653D01*
X199265296Y-72341267D01*
X199236863Y-72341137D01*
X199209096Y-72341267D01*
X199182898Y-72341662D01*
X199159170Y-72342327D01*
X199138813Y-72343266D01*
X199124301Y-72344333D01*
X199063904Y-72350600D01*
X199007763Y-72357788D01*
X198955113Y-72366050D01*
X198905189Y-72375538D01*
X198857224Y-72386406D01*
X198810454Y-72398805D01*
X198764113Y-72412889D01*
X198739703Y-72421007D01*
X198707021Y-72432578D01*
X198676744Y-72444197D01*
X198647169Y-72456572D01*
X198616588Y-72470414D01*
X198587091Y-72484569D01*
X198536291Y-72509476D01*
X198518214Y-72529778D01*
X198483396Y-72565170D01*
X198445778Y-72596361D01*
X198405557Y-72623250D01*
X198362927Y-72645740D01*
X198318087Y-72663731D01*
X198271233Y-72677122D01*
X198222560Y-72685816D01*
X198206091Y-72687641D01*
X198185703Y-72689209D01*
X198166740Y-72689811D01*
X198147246Y-72689444D01*
X198125266Y-72688107D01*
X198118461Y-72687564D01*
X198071021Y-72681112D01*
X198024746Y-72669855D01*
X197979991Y-72654003D01*
X197937113Y-72633767D01*
X197896467Y-72609356D01*
X197858408Y-72580982D01*
X197823294Y-72548853D01*
X197791480Y-72513181D01*
X197767194Y-72480074D01*
X197742602Y-72438725D01*
X197722664Y-72395371D01*
X197707404Y-72350101D01*
X197696845Y-72302999D01*
X197691013Y-72254151D01*
X197689930Y-72203645D01*
X197689993Y-72201330D01*
X197691558Y-72169987D01*
X197694457Y-72141989D01*
X197698966Y-72115711D01*
X197705362Y-72089527D01*
X197713487Y-72063112D01*
X197731246Y-72017615D01*
X197753188Y-71974826D01*
X197779071Y-71934954D01*
X197808655Y-71898209D01*
X197841697Y-71864801D01*
X197877959Y-71834938D01*
X197917197Y-71808831D01*
X197959172Y-71786689D01*
X198003641Y-71768722D01*
X198050366Y-71755139D01*
X198073199Y-71750299D01*
X198096026Y-71746946D01*
X198122171Y-71744640D01*
X198149974Y-71743422D01*
X198177772Y-71743337D01*
X198203904Y-71744426D01*
G36*
X200299681Y-82295298D02*
G01*
X200350322Y-82300636D01*
X200399886Y-82310687D01*
X200448085Y-82325280D01*
X200494634Y-82344244D01*
X200539244Y-82367408D01*
X200581629Y-82394600D01*
X200621502Y-82425651D01*
X200658576Y-82460389D01*
X200692564Y-82498642D01*
X200723178Y-82540241D01*
X200750133Y-82585013D01*
X200756888Y-82597904D01*
X200778175Y-82645263D01*
X200794871Y-82694528D01*
X200807072Y-82745996D01*
X200809990Y-82762650D01*
X200812513Y-82783613D01*
X200814060Y-82808079D01*
X200814641Y-82834565D01*
X200814267Y-82861592D01*
X200812949Y-82887679D01*
X200810696Y-82911343D01*
X200808854Y-82924036D01*
X200797609Y-82975455D01*
X200781840Y-83024911D01*
X200761778Y-83072176D01*
X200737651Y-83117025D01*
X200709690Y-83159231D01*
X200678125Y-83198568D01*
X200643186Y-83234809D01*
X200605103Y-83267729D01*
X200564107Y-83297101D01*
X200520426Y-83322698D01*
X200474292Y-83344295D01*
X200425935Y-83361664D01*
X200375583Y-83374580D01*
X200345421Y-83379962D01*
X200327362Y-83382098D01*
X200306140Y-83383685D01*
X200283345Y-83384679D01*
X200260565Y-83385036D01*
X200239387Y-83384714D01*
X200221400Y-83383668D01*
X200219041Y-83383442D01*
X200167312Y-83375651D01*
X200116935Y-83363022D01*
X200068162Y-83345676D01*
X200021247Y-83323733D01*
X199976441Y-83297316D01*
X199933998Y-83266545D01*
X199894169Y-83231542D01*
X199886266Y-83223770D01*
X199851639Y-83186182D01*
X199821594Y-83147270D01*
X199795672Y-83106336D01*
X199773414Y-83062678D01*
X199760517Y-83032056D01*
X199744048Y-82982957D01*
X199732527Y-82933175D01*
X199725916Y-82882987D01*
X199724174Y-82832675D01*
X199727261Y-82782516D01*
X199735139Y-82732789D01*
X199747768Y-82683774D01*
X199765107Y-82635749D01*
X199787119Y-82588994D01*
X199813762Y-82543787D01*
X199833816Y-82515000D01*
X199845379Y-82500536D01*
X199859972Y-82483991D01*
X199876596Y-82466368D01*
X199894247Y-82448669D01*
X199911923Y-82431895D01*
X199928623Y-82417049D01*
X199943344Y-82405132D01*
X199944721Y-82404101D01*
X199989544Y-82373778D01*
X200035639Y-82348369D01*
X200083042Y-82327862D01*
X200131787Y-82312244D01*
X200181910Y-82301503D01*
X200233446Y-82295625D01*
X200248251Y-82294844D01*
X200299681Y-82295298D01*
G37*
X200299681Y-82295298D02*
X200350322Y-82300636D01*
X200399886Y-82310687D01*
X200448085Y-82325280D01*
X200494634Y-82344244D01*
X200539244Y-82367408D01*
X200581629Y-82394600D01*
X200621502Y-82425651D01*
X200658576Y-82460389D01*
X200692564Y-82498642D01*
X200723178Y-82540241D01*
X200750133Y-82585013D01*
X200756888Y-82597904D01*
X200778175Y-82645263D01*
X200794871Y-82694528D01*
X200807072Y-82745996D01*
X200809990Y-82762650D01*
X200812513Y-82783613D01*
X200814060Y-82808079D01*
X200814641Y-82834565D01*
X200814267Y-82861592D01*
X200812949Y-82887679D01*
X200810696Y-82911343D01*
X200808854Y-82924036D01*
X200797609Y-82975455D01*
X200781840Y-83024911D01*
X200761778Y-83072176D01*
X200737651Y-83117025D01*
X200709690Y-83159231D01*
X200678125Y-83198568D01*
X200643186Y-83234809D01*
X200605103Y-83267729D01*
X200564107Y-83297101D01*
X200520426Y-83322698D01*
X200474292Y-83344295D01*
X200425935Y-83361664D01*
X200375583Y-83374580D01*
X200345421Y-83379962D01*
X200327362Y-83382098D01*
X200306140Y-83383685D01*
X200283345Y-83384679D01*
X200260565Y-83385036D01*
X200239387Y-83384714D01*
X200221400Y-83383668D01*
X200219041Y-83383442D01*
X200167312Y-83375651D01*
X200116935Y-83363022D01*
X200068162Y-83345676D01*
X200021247Y-83323733D01*
X199976441Y-83297316D01*
X199933998Y-83266545D01*
X199894169Y-83231542D01*
X199886266Y-83223770D01*
X199851639Y-83186182D01*
X199821594Y-83147270D01*
X199795672Y-83106336D01*
X199773414Y-83062678D01*
X199760517Y-83032056D01*
X199744048Y-82982957D01*
X199732527Y-82933175D01*
X199725916Y-82882987D01*
X199724174Y-82832675D01*
X199727261Y-82782516D01*
X199735139Y-82732789D01*
X199747768Y-82683774D01*
X199765107Y-82635749D01*
X199787119Y-82588994D01*
X199813762Y-82543787D01*
X199833816Y-82515000D01*
X199845379Y-82500536D01*
X199859972Y-82483991D01*
X199876596Y-82466368D01*
X199894247Y-82448669D01*
X199911923Y-82431895D01*
X199928623Y-82417049D01*
X199943344Y-82405132D01*
X199944721Y-82404101D01*
X199989544Y-82373778D01*
X200035639Y-82348369D01*
X200083042Y-82327862D01*
X200131787Y-82312244D01*
X200181910Y-82301503D01*
X200233446Y-82295625D01*
X200248251Y-82294844D01*
X200299681Y-82295298D01*
G36*
X200325924Y-75831005D02*
G01*
X200379230Y-75838912D01*
X200431715Y-75851475D01*
X200483058Y-75868594D01*
X200532943Y-75890167D01*
X200581050Y-75916095D01*
X200627060Y-75946275D01*
X200670655Y-75980608D01*
X200697306Y-76004873D01*
X200737678Y-76047071D01*
X200773495Y-76091518D01*
X200804771Y-76138239D01*
X200831518Y-76187259D01*
X200853750Y-76238602D01*
X200871480Y-76292292D01*
X200884720Y-76348356D01*
X200888730Y-76371255D01*
X200890821Y-76388666D01*
X200892306Y-76409868D01*
X200893188Y-76433606D01*
X200893466Y-76458626D01*
X200893142Y-76483675D01*
X200892216Y-76507499D01*
X200890689Y-76528843D01*
X200888633Y-76546000D01*
X200877404Y-76601920D01*
X200861448Y-76656045D01*
X200840845Y-76708235D01*
X200815670Y-76758349D01*
X200786000Y-76806246D01*
X200751914Y-76851786D01*
X200713488Y-76894828D01*
X200678575Y-76928358D01*
X200646726Y-76959605D01*
X200615731Y-76995241D01*
X200585994Y-77034594D01*
X200557920Y-77076992D01*
X200531916Y-77121763D01*
X200508387Y-77168235D01*
X200487738Y-77215737D01*
X200470375Y-77263597D01*
X200464194Y-77283529D01*
X200453933Y-77321865D01*
X200446227Y-77358929D01*
X200440880Y-77396148D01*
X200437700Y-77434954D01*
X200436489Y-77476774D01*
X200436470Y-77487070D01*
X200436989Y-77520041D01*
X200438471Y-77549454D01*
X200441074Y-77576766D01*
X200444960Y-77603435D01*
X200450289Y-77630917D01*
X200454183Y-77648138D01*
X200470775Y-77707416D01*
X200492320Y-77765823D01*
X200518740Y-77823196D01*
X200549955Y-77879373D01*
X200585889Y-77934191D01*
X200602054Y-77956352D01*
X200623765Y-77984357D01*
X200644604Y-78009497D01*
X200664110Y-78031240D01*
X200681824Y-78049055D01*
X200683857Y-78050950D01*
X200722109Y-78087604D01*
X200755982Y-78123056D01*
X200785860Y-78157859D01*
X200812130Y-78192570D01*
X200835177Y-78227744D01*
X200855388Y-78263938D01*
X200873147Y-78301708D01*
X200888840Y-78341608D01*
X200892227Y-78351229D01*
X200903637Y-78386838D01*
X200912469Y-78420487D01*
X200918984Y-78453664D01*
X200923443Y-78487854D01*
X200926108Y-78524542D01*
X200926963Y-78548790D01*
X200927078Y-78589924D01*
X200925265Y-78627766D01*
X200921341Y-78663795D01*
X200915119Y-78699490D01*
X200906416Y-78736330D01*
X200901204Y-78755195D01*
X200883966Y-78806448D01*
X200862221Y-78856548D01*
X200836321Y-78904985D01*
X200806617Y-78951246D01*
X200773459Y-78994819D01*
X200737197Y-79035192D01*
X200698184Y-79071853D01*
X200667351Y-79096589D01*
X200655206Y-79106348D01*
X200642941Y-79117713D01*
X200630023Y-79131264D01*
X200615919Y-79147581D01*
X200600097Y-79167245D01*
X200587351Y-79183790D01*
X200551341Y-79234861D01*
X200520265Y-79286839D01*
X200494021Y-79339960D01*
X200472508Y-79394458D01*
X200455624Y-79450569D01*
X200443268Y-79508528D01*
X200440943Y-79522880D01*
X200439150Y-79538277D01*
X200437785Y-79557351D01*
X200436857Y-79578894D01*
X200436378Y-79601695D01*
X200436358Y-79624545D01*
X200436808Y-79646235D01*
X200437738Y-79665556D01*
X200439159Y-79681298D01*
X200439540Y-79684170D01*
X200450454Y-79743582D01*
X200466002Y-79801263D01*
X200486247Y-79857356D01*
X200511254Y-79912003D01*
X200541085Y-79965347D01*
X200575803Y-80017529D01*
X200604301Y-80055010D01*
X200621196Y-80075211D01*
X200639902Y-80096050D01*
X200659430Y-80116512D01*
X200678789Y-80135584D01*
X200696990Y-80152251D01*
X200709261Y-80162544D01*
X200724930Y-80175756D01*
X200742669Y-80191910D01*
X200761426Y-80209951D01*
X200780149Y-80228827D01*
X200797789Y-80247483D01*
X200813294Y-80264865D01*
X200823112Y-80276711D01*
X200858518Y-80325306D01*
X200889569Y-80376107D01*
X200916182Y-80428822D01*
X200938278Y-80483162D01*
X200955773Y-80538836D01*
X200968587Y-80595554D01*
X200976639Y-80653025D01*
X200979847Y-80710960D01*
X200978130Y-80769066D01*
X200973464Y-80813283D01*
X200962757Y-80872093D01*
X200947225Y-80929481D01*
X200926978Y-80985234D01*
X200902124Y-81039139D01*
X200872774Y-81090983D01*
X200839036Y-81140553D01*
X200801019Y-81187635D01*
X200758834Y-81232017D01*
X200758445Y-81232395D01*
X200715076Y-81271077D01*
X200668560Y-81306197D01*
X200619350Y-81337531D01*
X200567902Y-81364854D01*
X200514672Y-81387941D01*
X200460114Y-81406567D01*
X200404684Y-81420508D01*
X200362551Y-81427791D01*
X200305583Y-81433174D01*
X200247900Y-81433732D01*
X200190035Y-81429564D01*
X200132522Y-81420770D01*
X200075893Y-81407450D01*
X200020682Y-81389702D01*
X199967421Y-81367626D01*
X199925445Y-81346291D01*
X199879487Y-81318513D01*
X199835302Y-81287254D01*
X199793567Y-81253102D01*
X199754959Y-81216644D01*
X199720156Y-81178469D01*
X199694892Y-81146240D01*
X199670624Y-81115807D01*
X199642162Y-81085214D01*
X199610318Y-81055141D01*
X199575909Y-81026272D01*
X199539748Y-80999289D01*
X199502651Y-80974876D01*
X199465431Y-80953713D01*
X199464661Y-80953312D01*
X199415747Y-80930537D01*
X199366435Y-80912794D01*
X199316842Y-80900060D01*
X199267084Y-80892315D01*
X199217278Y-80889534D01*
X199167540Y-80891698D01*
X199117987Y-80898783D01*
X199068736Y-80910767D01*
X199019903Y-80927628D01*
X198971604Y-80949345D01*
X198923957Y-80975895D01*
X198877078Y-81007256D01*
X198831083Y-81043406D01*
X198789344Y-81081170D01*
X198777202Y-81093295D01*
X198764853Y-81106353D01*
X198753436Y-81119090D01*
X198744092Y-81130252D01*
X198740717Y-81134630D01*
X198713628Y-81169387D01*
X198685804Y-81201244D01*
X198655442Y-81232266D01*
X198655308Y-81232395D01*
X198610840Y-81272118D01*
X198563624Y-81307769D01*
X198513955Y-81339236D01*
X198462132Y-81366408D01*
X198408452Y-81389174D01*
X198353212Y-81407422D01*
X198296711Y-81421041D01*
X198239246Y-81429919D01*
X198181113Y-81433944D01*
X198122612Y-81433005D01*
X198120365Y-81432869D01*
X198061454Y-81426712D01*
X198003865Y-81415785D01*
X197947826Y-81400280D01*
X197893564Y-81380388D01*
X197841306Y-81356300D01*
X197791279Y-81328207D01*
X197743711Y-81296299D01*
X197698828Y-81260769D01*
X197656857Y-81221807D01*
X197618026Y-81179604D01*
X197582561Y-81134351D01*
X197550689Y-81086239D01*
X197522639Y-81035460D01*
X197498636Y-80982204D01*
X197478908Y-80926662D01*
X197466916Y-80883050D01*
X197461907Y-80861663D01*
X197457921Y-80842882D01*
X197454847Y-80825658D01*
X197452573Y-80808947D01*
X197450990Y-80791703D01*
X197449985Y-80772879D01*
X197449449Y-80751428D01*
X197449269Y-80726307D01*
X197449270Y-80716680D01*
X197449385Y-80692272D01*
X197449681Y-80672196D01*
X197450189Y-80655705D01*
X197450944Y-80642052D01*
X197451978Y-80630490D01*
X197453325Y-80620273D01*
X197453662Y-80618162D01*
X197466011Y-80557167D01*
X197482591Y-80498950D01*
X197503472Y-80443373D01*
X197528722Y-80390300D01*
X197558411Y-80339595D01*
X197592608Y-80291122D01*
X197631382Y-80244745D01*
X197657406Y-80217331D01*
X197701959Y-80176057D01*
X197749402Y-80138878D01*
X197799492Y-80105917D01*
X197851987Y-80077298D01*
X197906647Y-80053144D01*
X197963228Y-80033578D01*
X198021489Y-80018723D01*
X198061311Y-80011473D01*
X198075315Y-80009834D01*
X198093216Y-80008518D01*
X198114005Y-80007530D01*
X198136672Y-80006879D01*
X198160209Y-80006570D01*
X198183607Y-80006610D01*
X198205855Y-80007005D01*
X198225946Y-80007764D01*
X198242869Y-80008891D01*
X198254351Y-80010196D01*
X198315218Y-80021833D01*
X198374035Y-80038034D01*
X198430636Y-80058698D01*
X198484853Y-80083723D01*
X198536523Y-80113008D01*
X198585478Y-80146454D01*
X198631553Y-80183959D01*
X198674582Y-80225422D01*
X198714399Y-80270742D01*
X198741533Y-80306470D01*
X198753009Y-80322378D01*
X198762614Y-80335132D01*
X198771294Y-80345805D01*
X198779995Y-80355473D01*
X198789661Y-80365209D01*
X198801238Y-80376086D01*
X198809244Y-80383380D01*
X198853163Y-80420367D01*
X198897877Y-80452447D01*
X198943735Y-80479772D01*
X198991082Y-80502496D01*
X199040265Y-80520771D01*
X199091632Y-80534749D01*
X199145529Y-80544585D01*
X199185436Y-80549130D01*
X199200352Y-80550231D01*
X199213519Y-80550644D01*
X199226717Y-80550336D01*
X199241727Y-80549277D01*
X199256238Y-80547867D01*
X199312545Y-80539693D01*
X199366366Y-80527148D01*
X199417865Y-80510152D01*
X199467208Y-80488630D01*
X199514560Y-80462502D01*
X199560088Y-80431691D01*
X199603957Y-80396120D01*
X199629315Y-80372687D01*
X199645425Y-80356300D01*
X199659677Y-80340233D01*
X199671052Y-80325646D01*
X199673329Y-80322366D01*
X199702760Y-80282243D01*
X199736300Y-80242873D01*
X199772983Y-80205237D01*
X199811844Y-80170319D01*
X199851916Y-80139101D01*
X199857091Y-80135417D01*
X199867570Y-80126975D01*
X199880290Y-80114983D01*
X199894644Y-80100103D01*
X199910027Y-80082994D01*
X199925834Y-80064316D01*
X199941459Y-80044729D01*
X199947188Y-80037230D01*
X199981934Y-79987530D01*
X200011858Y-79936812D01*
X200037085Y-79884748D01*
X200057737Y-79831007D01*
X200073938Y-79775262D01*
X200085811Y-79717182D01*
X200093480Y-79656440D01*
X200094516Y-79643985D01*
X200095789Y-79601568D01*
X200093477Y-79556610D01*
X200087746Y-79509992D01*
X200078763Y-79462598D01*
X200066694Y-79415311D01*
X200051705Y-79369014D01*
X200034705Y-79326278D01*
X200019085Y-79293582D01*
X200000693Y-79260154D01*
X199980085Y-79226757D01*
X199957820Y-79194156D01*
X199934455Y-79163113D01*
X199910547Y-79134393D01*
X199886655Y-79108759D01*
X199863335Y-79086975D01*
X199854849Y-79079953D01*
X199829288Y-79058429D01*
X199803778Y-79034778D01*
X199779975Y-79010586D01*
X199764617Y-78993482D01*
X199727631Y-78946767D01*
X199695444Y-78898464D01*
X199667977Y-78848403D01*
X199645152Y-78796415D01*
X199626889Y-78742329D01*
X199613110Y-78685978D01*
X199607770Y-78656224D01*
X199605725Y-78639233D01*
X199604239Y-78618380D01*
X199603311Y-78594855D01*
X199602940Y-78569844D01*
X199603126Y-78544536D01*
X199603868Y-78520119D01*
X199605166Y-78497781D01*
X199607019Y-78478709D01*
X199607864Y-78472590D01*
X199619256Y-78414764D01*
X199635428Y-78358608D01*
X199656307Y-78304290D01*
X199681821Y-78251973D01*
X199711899Y-78201823D01*
X199746468Y-78154006D01*
X199747204Y-78153075D01*
X199763111Y-78134172D01*
X199781966Y-78113678D01*
X199802512Y-78092849D01*
X199823490Y-78072943D01*
X199843643Y-78055219D01*
X199851493Y-78048780D01*
X199874588Y-78028327D01*
X199898337Y-78003557D01*
X199922260Y-77975108D01*
X199945880Y-77943617D01*
X199968717Y-77909720D01*
X199990294Y-77874054D01*
X200009346Y-77838800D01*
X200031712Y-77791306D01*
X200050463Y-77743556D01*
X200065813Y-77694754D01*
X200077976Y-77644102D01*
X200087165Y-77590804D01*
X200093595Y-77534061D01*
X200094700Y-77520525D01*
X200096031Y-77497692D01*
X200096240Y-77477087D01*
X200095326Y-77455984D01*
X200094651Y-77446865D01*
X200088860Y-77391341D01*
X200080672Y-77339507D01*
X200069857Y-77290457D01*
X200056186Y-77243285D01*
X200039429Y-77197087D01*
X200019559Y-77151394D01*
X200007342Y-77126892D01*
X199993435Y-77101638D01*
X199978287Y-77076271D01*
X199962344Y-77051430D01*
X199946052Y-77027754D01*
X199929858Y-77005884D01*
X199914210Y-76986458D01*
X199899553Y-76970116D01*
X199886335Y-76957499D01*
X199881239Y-76953403D01*
X199871213Y-76945229D01*
X199858653Y-76933974D01*
X199844327Y-76920418D01*
X199829003Y-76905343D01*
X199813447Y-76889527D01*
X199798427Y-76873752D01*
X199784710Y-76858799D01*
X199773064Y-76845447D01*
X199764256Y-76834478D01*
X199764039Y-76834188D01*
X199731473Y-76786510D01*
X199703583Y-76737216D01*
X199680413Y-76686514D01*
X199662008Y-76634612D01*
X199648413Y-76581721D01*
X199639674Y-76528048D01*
X199635834Y-76473803D01*
X199636940Y-76419194D01*
X199643035Y-76364431D01*
X199652597Y-76316130D01*
X199667893Y-76262865D01*
X199687713Y-76211547D01*
X199711808Y-76162411D01*
X199739928Y-76115689D01*
X199771824Y-76071615D01*
X199807247Y-76030423D01*
X199845948Y-75992347D01*
X199887677Y-75957621D01*
X199932186Y-75926478D01*
X199979225Y-75899152D01*
X200028545Y-75875876D01*
X200079897Y-75856885D01*
X200133031Y-75842412D01*
X200164262Y-75836232D01*
X200218121Y-75829564D01*
X200272115Y-75827856D01*
X200325924Y-75831005D01*
G37*
X200325924Y-75831005D02*
X200379230Y-75838912D01*
X200431715Y-75851475D01*
X200483058Y-75868594D01*
X200532943Y-75890167D01*
X200581050Y-75916095D01*
X200627060Y-75946275D01*
X200670655Y-75980608D01*
X200697306Y-76004873D01*
X200737678Y-76047071D01*
X200773495Y-76091518D01*
X200804771Y-76138239D01*
X200831518Y-76187259D01*
X200853750Y-76238602D01*
X200871480Y-76292292D01*
X200884720Y-76348356D01*
X200888730Y-76371255D01*
X200890821Y-76388666D01*
X200892306Y-76409868D01*
X200893188Y-76433606D01*
X200893466Y-76458626D01*
X200893142Y-76483675D01*
X200892216Y-76507499D01*
X200890689Y-76528843D01*
X200888633Y-76546000D01*
X200877404Y-76601920D01*
X200861448Y-76656045D01*
X200840845Y-76708235D01*
X200815670Y-76758349D01*
X200786000Y-76806246D01*
X200751914Y-76851786D01*
X200713488Y-76894828D01*
X200678575Y-76928358D01*
X200646726Y-76959605D01*
X200615731Y-76995241D01*
X200585994Y-77034594D01*
X200557920Y-77076992D01*
X200531916Y-77121763D01*
X200508387Y-77168235D01*
X200487738Y-77215737D01*
X200470375Y-77263597D01*
X200464194Y-77283529D01*
X200453933Y-77321865D01*
X200446227Y-77358929D01*
X200440880Y-77396148D01*
X200437700Y-77434954D01*
X200436489Y-77476774D01*
X200436470Y-77487070D01*
X200436989Y-77520041D01*
X200438471Y-77549454D01*
X200441074Y-77576766D01*
X200444960Y-77603435D01*
X200450289Y-77630917D01*
X200454183Y-77648138D01*
X200470775Y-77707416D01*
X200492320Y-77765823D01*
X200518740Y-77823196D01*
X200549955Y-77879373D01*
X200585889Y-77934191D01*
X200602054Y-77956352D01*
X200623765Y-77984357D01*
X200644604Y-78009497D01*
X200664110Y-78031240D01*
X200681824Y-78049055D01*
X200683857Y-78050950D01*
X200722109Y-78087604D01*
X200755982Y-78123056D01*
X200785860Y-78157859D01*
X200812130Y-78192570D01*
X200835177Y-78227744D01*
X200855388Y-78263938D01*
X200873147Y-78301708D01*
X200888840Y-78341608D01*
X200892227Y-78351229D01*
X200903637Y-78386838D01*
X200912469Y-78420487D01*
X200918984Y-78453664D01*
X200923443Y-78487854D01*
X200926108Y-78524542D01*
X200926963Y-78548790D01*
X200927078Y-78589924D01*
X200925265Y-78627766D01*
X200921341Y-78663795D01*
X200915119Y-78699490D01*
X200906416Y-78736330D01*
X200901204Y-78755195D01*
X200883966Y-78806448D01*
X200862221Y-78856548D01*
X200836321Y-78904985D01*
X200806617Y-78951246D01*
X200773459Y-78994819D01*
X200737197Y-79035192D01*
X200698184Y-79071853D01*
X200667351Y-79096589D01*
X200655206Y-79106348D01*
X200642941Y-79117713D01*
X200630023Y-79131264D01*
X200615919Y-79147581D01*
X200600097Y-79167245D01*
X200587351Y-79183790D01*
X200551341Y-79234861D01*
X200520265Y-79286839D01*
X200494021Y-79339960D01*
X200472508Y-79394458D01*
X200455624Y-79450569D01*
X200443268Y-79508528D01*
X200440943Y-79522880D01*
X200439150Y-79538277D01*
X200437785Y-79557351D01*
X200436857Y-79578894D01*
X200436378Y-79601695D01*
X200436358Y-79624545D01*
X200436808Y-79646235D01*
X200437738Y-79665556D01*
X200439159Y-79681298D01*
X200439540Y-79684170D01*
X200450454Y-79743582D01*
X200466002Y-79801263D01*
X200486247Y-79857356D01*
X200511254Y-79912003D01*
X200541085Y-79965347D01*
X200575803Y-80017529D01*
X200604301Y-80055010D01*
X200621196Y-80075211D01*
X200639902Y-80096050D01*
X200659430Y-80116512D01*
X200678789Y-80135584D01*
X200696990Y-80152251D01*
X200709261Y-80162544D01*
X200724930Y-80175756D01*
X200742669Y-80191910D01*
X200761426Y-80209951D01*
X200780149Y-80228827D01*
X200797789Y-80247483D01*
X200813294Y-80264865D01*
X200823112Y-80276711D01*
X200858518Y-80325306D01*
X200889569Y-80376107D01*
X200916182Y-80428822D01*
X200938278Y-80483162D01*
X200955773Y-80538836D01*
X200968587Y-80595554D01*
X200976639Y-80653025D01*
X200979847Y-80710960D01*
X200978130Y-80769066D01*
X200973464Y-80813283D01*
X200962757Y-80872093D01*
X200947225Y-80929481D01*
X200926978Y-80985234D01*
X200902124Y-81039139D01*
X200872774Y-81090983D01*
X200839036Y-81140553D01*
X200801019Y-81187635D01*
X200758834Y-81232017D01*
X200758445Y-81232395D01*
X200715076Y-81271077D01*
X200668560Y-81306197D01*
X200619350Y-81337531D01*
X200567902Y-81364854D01*
X200514672Y-81387941D01*
X200460114Y-81406567D01*
X200404684Y-81420508D01*
X200362551Y-81427791D01*
X200305583Y-81433174D01*
X200247900Y-81433732D01*
X200190035Y-81429564D01*
X200132522Y-81420770D01*
X200075893Y-81407450D01*
X200020682Y-81389702D01*
X199967421Y-81367626D01*
X199925445Y-81346291D01*
X199879487Y-81318513D01*
X199835302Y-81287254D01*
X199793567Y-81253102D01*
X199754959Y-81216644D01*
X199720156Y-81178469D01*
X199694892Y-81146240D01*
X199670624Y-81115807D01*
X199642162Y-81085214D01*
X199610318Y-81055141D01*
X199575909Y-81026272D01*
X199539748Y-80999289D01*
X199502651Y-80974876D01*
X199465431Y-80953713D01*
X199464661Y-80953312D01*
X199415747Y-80930537D01*
X199366435Y-80912794D01*
X199316842Y-80900060D01*
X199267084Y-80892315D01*
X199217278Y-80889534D01*
X199167540Y-80891698D01*
X199117987Y-80898783D01*
X199068736Y-80910767D01*
X199019903Y-80927628D01*
X198971604Y-80949345D01*
X198923957Y-80975895D01*
X198877078Y-81007256D01*
X198831083Y-81043406D01*
X198789344Y-81081170D01*
X198777202Y-81093295D01*
X198764853Y-81106353D01*
X198753436Y-81119090D01*
X198744092Y-81130252D01*
X198740717Y-81134630D01*
X198713628Y-81169387D01*
X198685804Y-81201244D01*
X198655442Y-81232266D01*
X198655308Y-81232395D01*
X198610840Y-81272118D01*
X198563624Y-81307769D01*
X198513955Y-81339236D01*
X198462132Y-81366408D01*
X198408452Y-81389174D01*
X198353212Y-81407422D01*
X198296711Y-81421041D01*
X198239246Y-81429919D01*
X198181113Y-81433944D01*
X198122612Y-81433005D01*
X198120365Y-81432869D01*
X198061454Y-81426712D01*
X198003865Y-81415785D01*
X197947826Y-81400280D01*
X197893564Y-81380388D01*
X197841306Y-81356300D01*
X197791279Y-81328207D01*
X197743711Y-81296299D01*
X197698828Y-81260769D01*
X197656857Y-81221807D01*
X197618026Y-81179604D01*
X197582561Y-81134351D01*
X197550689Y-81086239D01*
X197522639Y-81035460D01*
X197498636Y-80982204D01*
X197478908Y-80926662D01*
X197466916Y-80883050D01*
X197461907Y-80861663D01*
X197457921Y-80842882D01*
X197454847Y-80825658D01*
X197452573Y-80808947D01*
X197450990Y-80791703D01*
X197449985Y-80772879D01*
X197449449Y-80751428D01*
X197449269Y-80726307D01*
X197449270Y-80716680D01*
X197449385Y-80692272D01*
X197449681Y-80672196D01*
X197450189Y-80655705D01*
X197450944Y-80642052D01*
X197451978Y-80630490D01*
X197453325Y-80620273D01*
X197453662Y-80618162D01*
X197466011Y-80557167D01*
X197482591Y-80498950D01*
X197503472Y-80443373D01*
X197528722Y-80390300D01*
X197558411Y-80339595D01*
X197592608Y-80291122D01*
X197631382Y-80244745D01*
X197657406Y-80217331D01*
X197701959Y-80176057D01*
X197749402Y-80138878D01*
X197799492Y-80105917D01*
X197851987Y-80077298D01*
X197906647Y-80053144D01*
X197963228Y-80033578D01*
X198021489Y-80018723D01*
X198061311Y-80011473D01*
X198075315Y-80009834D01*
X198093216Y-80008518D01*
X198114005Y-80007530D01*
X198136672Y-80006879D01*
X198160209Y-80006570D01*
X198183607Y-80006610D01*
X198205855Y-80007005D01*
X198225946Y-80007764D01*
X198242869Y-80008891D01*
X198254351Y-80010196D01*
X198315218Y-80021833D01*
X198374035Y-80038034D01*
X198430636Y-80058698D01*
X198484853Y-80083723D01*
X198536523Y-80113008D01*
X198585478Y-80146454D01*
X198631553Y-80183959D01*
X198674582Y-80225422D01*
X198714399Y-80270742D01*
X198741533Y-80306470D01*
X198753009Y-80322378D01*
X198762614Y-80335132D01*
X198771294Y-80345805D01*
X198779995Y-80355473D01*
X198789661Y-80365209D01*
X198801238Y-80376086D01*
X198809244Y-80383380D01*
X198853163Y-80420367D01*
X198897877Y-80452447D01*
X198943735Y-80479772D01*
X198991082Y-80502496D01*
X199040265Y-80520771D01*
X199091632Y-80534749D01*
X199145529Y-80544585D01*
X199185436Y-80549130D01*
X199200352Y-80550231D01*
X199213519Y-80550644D01*
X199226717Y-80550336D01*
X199241727Y-80549277D01*
X199256238Y-80547867D01*
X199312545Y-80539693D01*
X199366366Y-80527148D01*
X199417865Y-80510152D01*
X199467208Y-80488630D01*
X199514560Y-80462502D01*
X199560088Y-80431691D01*
X199603957Y-80396120D01*
X199629315Y-80372687D01*
X199645425Y-80356300D01*
X199659677Y-80340233D01*
X199671052Y-80325646D01*
X199673329Y-80322366D01*
X199702760Y-80282243D01*
X199736300Y-80242873D01*
X199772983Y-80205237D01*
X199811844Y-80170319D01*
X199851916Y-80139101D01*
X199857091Y-80135417D01*
X199867570Y-80126975D01*
X199880290Y-80114983D01*
X199894644Y-80100103D01*
X199910027Y-80082994D01*
X199925834Y-80064316D01*
X199941459Y-80044729D01*
X199947188Y-80037230D01*
X199981934Y-79987530D01*
X200011858Y-79936812D01*
X200037085Y-79884748D01*
X200057737Y-79831007D01*
X200073938Y-79775262D01*
X200085811Y-79717182D01*
X200093480Y-79656440D01*
X200094516Y-79643985D01*
X200095789Y-79601568D01*
X200093477Y-79556610D01*
X200087746Y-79509992D01*
X200078763Y-79462598D01*
X200066694Y-79415311D01*
X200051705Y-79369014D01*
X200034705Y-79326278D01*
X200019085Y-79293582D01*
X200000693Y-79260154D01*
X199980085Y-79226757D01*
X199957820Y-79194156D01*
X199934455Y-79163113D01*
X199910547Y-79134393D01*
X199886655Y-79108759D01*
X199863335Y-79086975D01*
X199854849Y-79079953D01*
X199829288Y-79058429D01*
X199803778Y-79034778D01*
X199779975Y-79010586D01*
X199764617Y-78993482D01*
X199727631Y-78946767D01*
X199695444Y-78898464D01*
X199667977Y-78848403D01*
X199645152Y-78796415D01*
X199626889Y-78742329D01*
X199613110Y-78685978D01*
X199607770Y-78656224D01*
X199605725Y-78639233D01*
X199604239Y-78618380D01*
X199603311Y-78594855D01*
X199602940Y-78569844D01*
X199603126Y-78544536D01*
X199603868Y-78520119D01*
X199605166Y-78497781D01*
X199607019Y-78478709D01*
X199607864Y-78472590D01*
X199619256Y-78414764D01*
X199635428Y-78358608D01*
X199656307Y-78304290D01*
X199681821Y-78251973D01*
X199711899Y-78201823D01*
X199746468Y-78154006D01*
X199747204Y-78153075D01*
X199763111Y-78134172D01*
X199781966Y-78113678D01*
X199802512Y-78092849D01*
X199823490Y-78072943D01*
X199843643Y-78055219D01*
X199851493Y-78048780D01*
X199874588Y-78028327D01*
X199898337Y-78003557D01*
X199922260Y-77975108D01*
X199945880Y-77943617D01*
X199968717Y-77909720D01*
X199990294Y-77874054D01*
X200009346Y-77838800D01*
X200031712Y-77791306D01*
X200050463Y-77743556D01*
X200065813Y-77694754D01*
X200077976Y-77644102D01*
X200087165Y-77590804D01*
X200093595Y-77534061D01*
X200094700Y-77520525D01*
X200096031Y-77497692D01*
X200096240Y-77477087D01*
X200095326Y-77455984D01*
X200094651Y-77446865D01*
X200088860Y-77391341D01*
X200080672Y-77339507D01*
X200069857Y-77290457D01*
X200056186Y-77243285D01*
X200039429Y-77197087D01*
X200019559Y-77151394D01*
X200007342Y-77126892D01*
X199993435Y-77101638D01*
X199978287Y-77076271D01*
X199962344Y-77051430D01*
X199946052Y-77027754D01*
X199929858Y-77005884D01*
X199914210Y-76986458D01*
X199899553Y-76970116D01*
X199886335Y-76957499D01*
X199881239Y-76953403D01*
X199871213Y-76945229D01*
X199858653Y-76933974D01*
X199844327Y-76920418D01*
X199829003Y-76905343D01*
X199813447Y-76889527D01*
X199798427Y-76873752D01*
X199784710Y-76858799D01*
X199773064Y-76845447D01*
X199764256Y-76834478D01*
X199764039Y-76834188D01*
X199731473Y-76786510D01*
X199703583Y-76737216D01*
X199680413Y-76686514D01*
X199662008Y-76634612D01*
X199648413Y-76581721D01*
X199639674Y-76528048D01*
X199635834Y-76473803D01*
X199636940Y-76419194D01*
X199643035Y-76364431D01*
X199652597Y-76316130D01*
X199667893Y-76262865D01*
X199687713Y-76211547D01*
X199711808Y-76162411D01*
X199739928Y-76115689D01*
X199771824Y-76071615D01*
X199807247Y-76030423D01*
X199845948Y-75992347D01*
X199887677Y-75957621D01*
X199932186Y-75926478D01*
X199979225Y-75899152D01*
X200028545Y-75875876D01*
X200079897Y-75856885D01*
X200133031Y-75842412D01*
X200164262Y-75836232D01*
X200218121Y-75829564D01*
X200272115Y-75827856D01*
X200325924Y-75831005D01*
G36*
X196078138Y-75827265D02*
G01*
X196131690Y-75833947D01*
X196137641Y-75834987D01*
X196189023Y-75846738D01*
X196240047Y-75863378D01*
X196290282Y-75884712D01*
X196339298Y-75910550D01*
X196386663Y-75940700D01*
X196405963Y-75954604D01*
X196420772Y-75966483D01*
X196437760Y-75981479D01*
X196456021Y-75998674D01*
X196474645Y-76017153D01*
X196492724Y-76035999D01*
X196509349Y-76054296D01*
X196523612Y-76071127D01*
X196531433Y-76081180D01*
X196563935Y-76128911D01*
X196591601Y-76178034D01*
X196614555Y-76228838D01*
X196632921Y-76281616D01*
X196646823Y-76336656D01*
X196652018Y-76364390D01*
X196654053Y-76380493D01*
X196655558Y-76400484D01*
X196656533Y-76423200D01*
X196656978Y-76447474D01*
X196656893Y-76472143D01*
X196656278Y-76496044D01*
X196655133Y-76518010D01*
X196653457Y-76536879D01*
X196652028Y-76547270D01*
X196639995Y-76604692D01*
X196623438Y-76659891D01*
X196602426Y-76712745D01*
X196577028Y-76763132D01*
X196547315Y-76810929D01*
X196513354Y-76856015D01*
X196475217Y-76898266D01*
X196432972Y-76937561D01*
X196427398Y-76942267D01*
X196407668Y-76960582D01*
X196387025Y-76983147D01*
X196365896Y-77009307D01*
X196344706Y-77038411D01*
X196323881Y-77069807D01*
X196303847Y-77102842D01*
X196285031Y-77136865D01*
X196267857Y-77171222D01*
X196252753Y-77205263D01*
X196248135Y-77216726D01*
X196227801Y-77275273D01*
X196212527Y-77334179D01*
X196202309Y-77393362D01*
X196197147Y-77452736D01*
X196197038Y-77512218D01*
X196201980Y-77571725D01*
X196211972Y-77631172D01*
X196227012Y-77690476D01*
X196247097Y-77749553D01*
X196260486Y-77782360D01*
X196282193Y-77827918D01*
X196308140Y-77874333D01*
X196337783Y-77920757D01*
X196370578Y-77966342D01*
X196405980Y-78010238D01*
X196408871Y-78013608D01*
X196416064Y-78021144D01*
X196425782Y-78030245D01*
X196436454Y-78039473D01*
X196442061Y-78044003D01*
X196455386Y-78055125D01*
X196470905Y-78069162D01*
X196487597Y-78085095D01*
X196504438Y-78101908D01*
X196520407Y-78118582D01*
X196534482Y-78134099D01*
X196544659Y-78146200D01*
X196568841Y-78178859D01*
X196592149Y-78214820D01*
X196613787Y-78252666D01*
X196632957Y-78290979D01*
X196648863Y-78328341D01*
X196652454Y-78337970D01*
X196669158Y-78391475D01*
X196681294Y-78446438D01*
X196688861Y-78502354D01*
X196691859Y-78558721D01*
X196690288Y-78615034D01*
X196684147Y-78670790D01*
X196673437Y-78725487D01*
X196658157Y-78778619D01*
X196652684Y-78794174D01*
X196630501Y-78847345D01*
X196604091Y-78897889D01*
X196573682Y-78945620D01*
X196539503Y-78990353D01*
X196501781Y-79031905D01*
X196460744Y-79070090D01*
X196416620Y-79104723D01*
X196369637Y-79135620D01*
X196320021Y-79162597D01*
X196268002Y-79185467D01*
X196213806Y-79204047D01*
X196157662Y-79218152D01*
X196122021Y-79224561D01*
X196112470Y-79225671D01*
X196099200Y-79226722D01*
X196083158Y-79227686D01*
X196065288Y-79228533D01*
X196046536Y-79229233D01*
X196027848Y-79229757D01*
X196010170Y-79230075D01*
X195994448Y-79230157D01*
X195981626Y-79229973D01*
X195972652Y-79229495D01*
X195970891Y-79229295D01*
X195965004Y-79228543D01*
X195955673Y-79227417D01*
X195944502Y-79226111D01*
X195939141Y-79225497D01*
X195886533Y-79217011D01*
X195834246Y-79203679D01*
X195782759Y-79185728D01*
X195732553Y-79163389D01*
X195684105Y-79136892D01*
X195637896Y-79106467D01*
X195594405Y-79072344D01*
X195566093Y-79046630D01*
X195525775Y-79004284D01*
X195489635Y-78959199D01*
X195457759Y-78911641D01*
X195430230Y-78861875D01*
X195407136Y-78810167D01*
X195388561Y-78756783D01*
X195374591Y-78701989D01*
X195365312Y-78646049D01*
X195360808Y-78589230D01*
X195361165Y-78531798D01*
X195366470Y-78474017D01*
X195371578Y-78441902D01*
X195384370Y-78386153D01*
X195402005Y-78331851D01*
X195424401Y-78279196D01*
X195451476Y-78228387D01*
X195472026Y-78195730D01*
X195504065Y-78151941D01*
X195539745Y-78110588D01*
X195578300Y-78072490D01*
X195618965Y-78038466D01*
X195619373Y-78038154D01*
X195631763Y-78028491D01*
X195642074Y-78019848D01*
X195651239Y-78011273D01*
X195660190Y-78001814D01*
X195669861Y-77990521D01*
X195681182Y-77976442D01*
X195686497Y-77969670D01*
X195708230Y-77940188D01*
X195729723Y-77907892D01*
X195750325Y-77873927D01*
X195769389Y-77839434D01*
X195786266Y-77805556D01*
X195800308Y-77773435D01*
X195805434Y-77760120D01*
X195818435Y-77721361D01*
X195829843Y-77680673D01*
X195839496Y-77638999D01*
X195847233Y-77597283D01*
X195852891Y-77556468D01*
X195856311Y-77517498D01*
X195857331Y-77481316D01*
X195856669Y-77460400D01*
X195850614Y-77394741D01*
X195840293Y-77331733D01*
X195825634Y-77271168D01*
X195806570Y-77212836D01*
X195783031Y-77156526D01*
X195754947Y-77102030D01*
X195722248Y-77049139D01*
X195718661Y-77043840D01*
X195703404Y-77022077D01*
X195689716Y-77003961D01*
X195676831Y-76988625D01*
X195663987Y-76975204D01*
X195650418Y-76962831D01*
X195638737Y-76953270D01*
X195596201Y-76916743D01*
X195557353Y-76877099D01*
X195522321Y-76834643D01*
X195491231Y-76789677D01*
X195464209Y-76742506D01*
X195441381Y-76693434D01*
X195422873Y-76642764D01*
X195408812Y-76590801D01*
X195399324Y-76537848D01*
X195394534Y-76484208D01*
X195394570Y-76430187D01*
X195399419Y-76377090D01*
X195409565Y-76321572D01*
X195424503Y-76267486D01*
X195444082Y-76215099D01*
X195468148Y-76164678D01*
X195496551Y-76116490D01*
X195529136Y-76070801D01*
X195565753Y-76027879D01*
X195606248Y-75987990D01*
X195635611Y-75962985D01*
X195668975Y-75938297D01*
X195705895Y-75914692D01*
X195744852Y-75893026D01*
X195784325Y-75874158D01*
X195815211Y-75861669D01*
X195865026Y-75845922D01*
X195916865Y-75834555D01*
X195970088Y-75827622D01*
X196024058Y-75825174D01*
X196078138Y-75827265D01*
G37*
X196078138Y-75827265D02*
X196131690Y-75833947D01*
X196137641Y-75834987D01*
X196189023Y-75846738D01*
X196240047Y-75863378D01*
X196290282Y-75884712D01*
X196339298Y-75910550D01*
X196386663Y-75940700D01*
X196405963Y-75954604D01*
X196420772Y-75966483D01*
X196437760Y-75981479D01*
X196456021Y-75998674D01*
X196474645Y-76017153D01*
X196492724Y-76035999D01*
X196509349Y-76054296D01*
X196523612Y-76071127D01*
X196531433Y-76081180D01*
X196563935Y-76128911D01*
X196591601Y-76178034D01*
X196614555Y-76228838D01*
X196632921Y-76281616D01*
X196646823Y-76336656D01*
X196652018Y-76364390D01*
X196654053Y-76380493D01*
X196655558Y-76400484D01*
X196656533Y-76423200D01*
X196656978Y-76447474D01*
X196656893Y-76472143D01*
X196656278Y-76496044D01*
X196655133Y-76518010D01*
X196653457Y-76536879D01*
X196652028Y-76547270D01*
X196639995Y-76604692D01*
X196623438Y-76659891D01*
X196602426Y-76712745D01*
X196577028Y-76763132D01*
X196547315Y-76810929D01*
X196513354Y-76856015D01*
X196475217Y-76898266D01*
X196432972Y-76937561D01*
X196427398Y-76942267D01*
X196407668Y-76960582D01*
X196387025Y-76983147D01*
X196365896Y-77009307D01*
X196344706Y-77038411D01*
X196323881Y-77069807D01*
X196303847Y-77102842D01*
X196285031Y-77136865D01*
X196267857Y-77171222D01*
X196252753Y-77205263D01*
X196248135Y-77216726D01*
X196227801Y-77275273D01*
X196212527Y-77334179D01*
X196202309Y-77393362D01*
X196197147Y-77452736D01*
X196197038Y-77512218D01*
X196201980Y-77571725D01*
X196211972Y-77631172D01*
X196227012Y-77690476D01*
X196247097Y-77749553D01*
X196260486Y-77782360D01*
X196282193Y-77827918D01*
X196308140Y-77874333D01*
X196337783Y-77920757D01*
X196370578Y-77966342D01*
X196405980Y-78010238D01*
X196408871Y-78013608D01*
X196416064Y-78021144D01*
X196425782Y-78030245D01*
X196436454Y-78039473D01*
X196442061Y-78044003D01*
X196455386Y-78055125D01*
X196470905Y-78069162D01*
X196487597Y-78085095D01*
X196504438Y-78101908D01*
X196520407Y-78118582D01*
X196534482Y-78134099D01*
X196544659Y-78146200D01*
X196568841Y-78178859D01*
X196592149Y-78214820D01*
X196613787Y-78252666D01*
X196632957Y-78290979D01*
X196648863Y-78328341D01*
X196652454Y-78337970D01*
X196669158Y-78391475D01*
X196681294Y-78446438D01*
X196688861Y-78502354D01*
X196691859Y-78558721D01*
X196690288Y-78615034D01*
X196684147Y-78670790D01*
X196673437Y-78725487D01*
X196658157Y-78778619D01*
X196652684Y-78794174D01*
X196630501Y-78847345D01*
X196604091Y-78897889D01*
X196573682Y-78945620D01*
X196539503Y-78990353D01*
X196501781Y-79031905D01*
X196460744Y-79070090D01*
X196416620Y-79104723D01*
X196369637Y-79135620D01*
X196320021Y-79162597D01*
X196268002Y-79185467D01*
X196213806Y-79204047D01*
X196157662Y-79218152D01*
X196122021Y-79224561D01*
X196112470Y-79225671D01*
X196099200Y-79226722D01*
X196083158Y-79227686D01*
X196065288Y-79228533D01*
X196046536Y-79229233D01*
X196027848Y-79229757D01*
X196010170Y-79230075D01*
X195994448Y-79230157D01*
X195981626Y-79229973D01*
X195972652Y-79229495D01*
X195970891Y-79229295D01*
X195965004Y-79228543D01*
X195955673Y-79227417D01*
X195944502Y-79226111D01*
X195939141Y-79225497D01*
X195886533Y-79217011D01*
X195834246Y-79203679D01*
X195782759Y-79185728D01*
X195732553Y-79163389D01*
X195684105Y-79136892D01*
X195637896Y-79106467D01*
X195594405Y-79072344D01*
X195566093Y-79046630D01*
X195525775Y-79004284D01*
X195489635Y-78959199D01*
X195457759Y-78911641D01*
X195430230Y-78861875D01*
X195407136Y-78810167D01*
X195388561Y-78756783D01*
X195374591Y-78701989D01*
X195365312Y-78646049D01*
X195360808Y-78589230D01*
X195361165Y-78531798D01*
X195366470Y-78474017D01*
X195371578Y-78441902D01*
X195384370Y-78386153D01*
X195402005Y-78331851D01*
X195424401Y-78279196D01*
X195451476Y-78228387D01*
X195472026Y-78195730D01*
X195504065Y-78151941D01*
X195539745Y-78110588D01*
X195578300Y-78072490D01*
X195618965Y-78038466D01*
X195619373Y-78038154D01*
X195631763Y-78028491D01*
X195642074Y-78019848D01*
X195651239Y-78011273D01*
X195660190Y-78001814D01*
X195669861Y-77990521D01*
X195681182Y-77976442D01*
X195686497Y-77969670D01*
X195708230Y-77940188D01*
X195729723Y-77907892D01*
X195750325Y-77873927D01*
X195769389Y-77839434D01*
X195786266Y-77805556D01*
X195800308Y-77773435D01*
X195805434Y-77760120D01*
X195818435Y-77721361D01*
X195829843Y-77680673D01*
X195839496Y-77638999D01*
X195847233Y-77597283D01*
X195852891Y-77556468D01*
X195856311Y-77517498D01*
X195857331Y-77481316D01*
X195856669Y-77460400D01*
X195850614Y-77394741D01*
X195840293Y-77331733D01*
X195825634Y-77271168D01*
X195806570Y-77212836D01*
X195783031Y-77156526D01*
X195754947Y-77102030D01*
X195722248Y-77049139D01*
X195718661Y-77043840D01*
X195703404Y-77022077D01*
X195689716Y-77003961D01*
X195676831Y-76988625D01*
X195663987Y-76975204D01*
X195650418Y-76962831D01*
X195638737Y-76953270D01*
X195596201Y-76916743D01*
X195557353Y-76877099D01*
X195522321Y-76834643D01*
X195491231Y-76789677D01*
X195464209Y-76742506D01*
X195441381Y-76693434D01*
X195422873Y-76642764D01*
X195408812Y-76590801D01*
X195399324Y-76537848D01*
X195394534Y-76484208D01*
X195394570Y-76430187D01*
X195399419Y-76377090D01*
X195409565Y-76321572D01*
X195424503Y-76267486D01*
X195444082Y-76215099D01*
X195468148Y-76164678D01*
X195496551Y-76116490D01*
X195529136Y-76070801D01*
X195565753Y-76027879D01*
X195606248Y-75987990D01*
X195635611Y-75962985D01*
X195668975Y-75938297D01*
X195705895Y-75914692D01*
X195744852Y-75893026D01*
X195784325Y-75874158D01*
X195815211Y-75861669D01*
X195865026Y-75845922D01*
X195916865Y-75834555D01*
X195970088Y-75827622D01*
X196024058Y-75825174D01*
X196078138Y-75827265D01*
G36*
X202432485Y-73969490D02*
G01*
X202452667Y-73970429D01*
X202470339Y-73972206D01*
X202486777Y-73975004D01*
X202503256Y-73979005D01*
X202521049Y-73984392D01*
X202526222Y-73986101D01*
X202565119Y-74001737D01*
X202601456Y-74021688D01*
X202634964Y-74045791D01*
X202655759Y-74064241D01*
X202683544Y-74094091D01*
X202707022Y-74126077D01*
X202726402Y-74160582D01*
X202741894Y-74197990D01*
X202753705Y-74238684D01*
X202755724Y-74247618D01*
X202757493Y-74257172D01*
X202758772Y-74267622D01*
X202759625Y-74279949D01*
X202760113Y-74295139D01*
X202760300Y-74314172D01*
X202760306Y-74319690D01*
X202760102Y-74342373D01*
X202759366Y-74361271D01*
X202757908Y-74377667D01*
X202755536Y-74392845D01*
X202752062Y-74408086D01*
X202747293Y-74424675D01*
X202742519Y-74439476D01*
X202727286Y-74477426D01*
X202707844Y-74512795D01*
X202684504Y-74545321D01*
X202657575Y-74574741D01*
X202627370Y-74600794D01*
X202594198Y-74623216D01*
X202558370Y-74641745D01*
X202520197Y-74656119D01*
X202479990Y-74666076D01*
X202472619Y-74667369D01*
X202442461Y-74671016D01*
X202411053Y-74672453D01*
X202381133Y-74671562D01*
X202378835Y-74671382D01*
X202336356Y-74665480D01*
X202295896Y-74655051D01*
X202257705Y-74640315D01*
X202222033Y-74621486D01*
X202189130Y-74598782D01*
X202159246Y-74572420D01*
X202132632Y-74542616D01*
X202109536Y-74509588D01*
X202090210Y-74473552D01*
X202074903Y-74434724D01*
X202065177Y-74399411D01*
X202063084Y-74389449D01*
X202061544Y-74380246D01*
X202060474Y-74370728D01*
X202059795Y-74359817D01*
X202059424Y-74346438D01*
X202059282Y-74329515D01*
X202059271Y-74320960D01*
X202059416Y-74299069D01*
X202059954Y-74281090D01*
X202061036Y-74265857D01*
X202062814Y-74252207D01*
X202065437Y-74238976D01*
X202069058Y-74225000D01*
X202073802Y-74209200D01*
X202088398Y-74170731D01*
X202107205Y-74134654D01*
X202129905Y-74101294D01*
X202156181Y-74070981D01*
X202185716Y-74044041D01*
X202218190Y-74020801D01*
X202253287Y-74001590D01*
X202289141Y-73987244D01*
X202308237Y-73981150D01*
X202324813Y-73976565D01*
X202340203Y-73973288D01*
X202355743Y-73971117D01*
X202372765Y-73969852D01*
X202392605Y-73969289D01*
X202408521Y-73969205D01*
X202432485Y-73969490D01*
G37*
X202432485Y-73969490D02*
X202452667Y-73970429D01*
X202470339Y-73972206D01*
X202486777Y-73975004D01*
X202503256Y-73979005D01*
X202521049Y-73984392D01*
X202526222Y-73986101D01*
X202565119Y-74001737D01*
X202601456Y-74021688D01*
X202634964Y-74045791D01*
X202655759Y-74064241D01*
X202683544Y-74094091D01*
X202707022Y-74126077D01*
X202726402Y-74160582D01*
X202741894Y-74197990D01*
X202753705Y-74238684D01*
X202755724Y-74247618D01*
X202757493Y-74257172D01*
X202758772Y-74267622D01*
X202759625Y-74279949D01*
X202760113Y-74295139D01*
X202760300Y-74314172D01*
X202760306Y-74319690D01*
X202760102Y-74342373D01*
X202759366Y-74361271D01*
X202757908Y-74377667D01*
X202755536Y-74392845D01*
X202752062Y-74408086D01*
X202747293Y-74424675D01*
X202742519Y-74439476D01*
X202727286Y-74477426D01*
X202707844Y-74512795D01*
X202684504Y-74545321D01*
X202657575Y-74574741D01*
X202627370Y-74600794D01*
X202594198Y-74623216D01*
X202558370Y-74641745D01*
X202520197Y-74656119D01*
X202479990Y-74666076D01*
X202472619Y-74667369D01*
X202442461Y-74671016D01*
X202411053Y-74672453D01*
X202381133Y-74671562D01*
X202378835Y-74671382D01*
X202336356Y-74665480D01*
X202295896Y-74655051D01*
X202257705Y-74640315D01*
X202222033Y-74621486D01*
X202189130Y-74598782D01*
X202159246Y-74572420D01*
X202132632Y-74542616D01*
X202109536Y-74509588D01*
X202090210Y-74473552D01*
X202074903Y-74434724D01*
X202065177Y-74399411D01*
X202063084Y-74389449D01*
X202061544Y-74380246D01*
X202060474Y-74370728D01*
X202059795Y-74359817D01*
X202059424Y-74346438D01*
X202059282Y-74329515D01*
X202059271Y-74320960D01*
X202059416Y-74299069D01*
X202059954Y-74281090D01*
X202061036Y-74265857D01*
X202062814Y-74252207D01*
X202065437Y-74238976D01*
X202069058Y-74225000D01*
X202073802Y-74209200D01*
X202088398Y-74170731D01*
X202107205Y-74134654D01*
X202129905Y-74101294D01*
X202156181Y-74070981D01*
X202185716Y-74044041D01*
X202218190Y-74020801D01*
X202253287Y-74001590D01*
X202289141Y-73987244D01*
X202308237Y-73981150D01*
X202324813Y-73976565D01*
X202340203Y-73973288D01*
X202355743Y-73971117D01*
X202372765Y-73969852D01*
X202392605Y-73969289D01*
X202408521Y-73969205D01*
X202432485Y-73969490D01*
G36*
X200320187Y-73784767D02*
G01*
X200369087Y-73791703D01*
X200416996Y-73803396D01*
X200464370Y-73819954D01*
X200506061Y-73838675D01*
X200538121Y-73855624D01*
X200566981Y-73873336D01*
X200593995Y-73892784D01*
X200620517Y-73914937D01*
X200646522Y-73939406D01*
X200677042Y-73971650D01*
X200703483Y-74004424D01*
X200726789Y-74039032D01*
X200747903Y-74076776D01*
X200752534Y-74086010D01*
X200773244Y-74133723D01*
X200789063Y-74182526D01*
X200799991Y-74232138D01*
X200806027Y-74282276D01*
X200807173Y-74332659D01*
X200803427Y-74383003D01*
X200794790Y-74433028D01*
X200781262Y-74482452D01*
X200762843Y-74530992D01*
X200752522Y-74553370D01*
X200727306Y-74599402D01*
X200698264Y-74642279D01*
X200665647Y-74681820D01*
X200629707Y-74717842D01*
X200590697Y-74750163D01*
X200548869Y-74778601D01*
X200504475Y-74802974D01*
X200457766Y-74823100D01*
X200408996Y-74838796D01*
X200358417Y-74849880D01*
X200337655Y-74852992D01*
X200316822Y-74855003D01*
X200292703Y-74856179D01*
X200266985Y-74856524D01*
X200241360Y-74856040D01*
X200217515Y-74854729D01*
X200198721Y-74852810D01*
X200149731Y-74843736D01*
X200101507Y-74829861D01*
X200054542Y-74811454D01*
X200009325Y-74788786D01*
X199966347Y-74762126D01*
X199926101Y-74731747D01*
X199889075Y-74697917D01*
X199860317Y-74666429D01*
X199828017Y-74624083D01*
X199800305Y-74579763D01*
X199777243Y-74533683D01*
X199758894Y-74486058D01*
X199745320Y-74437101D01*
X199736583Y-74387027D01*
X199732744Y-74336050D01*
X199733867Y-74284385D01*
X199738080Y-74244760D01*
X199747751Y-74194421D01*
X199761968Y-74145934D01*
X199780483Y-74099515D01*
X199803045Y-74055381D01*
X199829403Y-74013751D01*
X199859308Y-73974841D01*
X199892510Y-73938870D01*
X199928757Y-73906054D01*
X199967801Y-73876612D01*
X200009390Y-73850761D01*
X200053274Y-73828718D01*
X200099204Y-73810701D01*
X200146928Y-73796927D01*
X200196198Y-73787615D01*
X200246762Y-73782980D01*
X200269841Y-73782480D01*
X200320187Y-73784767D01*
G37*
X200320187Y-73784767D02*
X200369087Y-73791703D01*
X200416996Y-73803396D01*
X200464370Y-73819954D01*
X200506061Y-73838675D01*
X200538121Y-73855624D01*
X200566981Y-73873336D01*
X200593995Y-73892784D01*
X200620517Y-73914937D01*
X200646522Y-73939406D01*
X200677042Y-73971650D01*
X200703483Y-74004424D01*
X200726789Y-74039032D01*
X200747903Y-74076776D01*
X200752534Y-74086010D01*
X200773244Y-74133723D01*
X200789063Y-74182526D01*
X200799991Y-74232138D01*
X200806027Y-74282276D01*
X200807173Y-74332659D01*
X200803427Y-74383003D01*
X200794790Y-74433028D01*
X200781262Y-74482452D01*
X200762843Y-74530992D01*
X200752522Y-74553370D01*
X200727306Y-74599402D01*
X200698264Y-74642279D01*
X200665647Y-74681820D01*
X200629707Y-74717842D01*
X200590697Y-74750163D01*
X200548869Y-74778601D01*
X200504475Y-74802974D01*
X200457766Y-74823100D01*
X200408996Y-74838796D01*
X200358417Y-74849880D01*
X200337655Y-74852992D01*
X200316822Y-74855003D01*
X200292703Y-74856179D01*
X200266985Y-74856524D01*
X200241360Y-74856040D01*
X200217515Y-74854729D01*
X200198721Y-74852810D01*
X200149731Y-74843736D01*
X200101507Y-74829861D01*
X200054542Y-74811454D01*
X200009325Y-74788786D01*
X199966347Y-74762126D01*
X199926101Y-74731747D01*
X199889075Y-74697917D01*
X199860317Y-74666429D01*
X199828017Y-74624083D01*
X199800305Y-74579763D01*
X199777243Y-74533683D01*
X199758894Y-74486058D01*
X199745320Y-74437101D01*
X199736583Y-74387027D01*
X199732744Y-74336050D01*
X199733867Y-74284385D01*
X199738080Y-74244760D01*
X199747751Y-74194421D01*
X199761968Y-74145934D01*
X199780483Y-74099515D01*
X199803045Y-74055381D01*
X199829403Y-74013751D01*
X199859308Y-73974841D01*
X199892510Y-73938870D01*
X199928757Y-73906054D01*
X199967801Y-73876612D01*
X200009390Y-73850761D01*
X200053274Y-73828718D01*
X200099204Y-73810701D01*
X200146928Y-73796927D01*
X200196198Y-73787615D01*
X200246762Y-73782980D01*
X200269841Y-73782480D01*
X200320187Y-73784767D01*
G36*
X196043912Y-71800153D02*
G01*
X196059493Y-71800341D01*
X196071950Y-71800749D01*
X196082263Y-71801445D01*
X196091410Y-71802495D01*
X196100368Y-71803966D01*
X196110116Y-71805926D01*
X196110591Y-71806027D01*
X196155928Y-71818127D01*
X196198666Y-71834450D01*
X196238616Y-71854850D01*
X196275591Y-71879181D01*
X196309401Y-71907295D01*
X196339860Y-71939046D01*
X196366778Y-71974288D01*
X196389967Y-72012873D01*
X196398816Y-72030607D01*
X196415739Y-72072441D01*
X196427981Y-72115633D01*
X196435581Y-72159738D01*
X196438577Y-72204312D01*
X196437006Y-72248907D01*
X196430908Y-72293079D01*
X196420318Y-72336382D01*
X196405277Y-72378371D01*
X196385821Y-72418600D01*
X196362504Y-72455895D01*
X196350450Y-72471495D01*
X196335343Y-72488718D01*
X196318364Y-72506382D01*
X196300695Y-72523304D01*
X196283518Y-72538303D01*
X196268636Y-72549763D01*
X196235686Y-72570435D01*
X196199712Y-72588458D01*
X196162089Y-72603263D01*
X196124186Y-72614282D01*
X196101524Y-72618901D01*
X196086494Y-72621036D01*
X196069092Y-72622873D01*
X196050684Y-72624327D01*
X196032637Y-72625314D01*
X196016316Y-72625748D01*
X196003086Y-72625546D01*
X195998831Y-72625256D01*
X195951295Y-72618982D01*
X195907203Y-72609162D01*
X195866212Y-72595640D01*
X195827980Y-72578260D01*
X195792166Y-72556863D01*
X195758427Y-72531293D01*
X195726422Y-72501394D01*
X195724420Y-72499324D01*
X195694760Y-72464934D01*
X195669530Y-72428062D01*
X195648740Y-72388726D01*
X195632397Y-72346945D01*
X195620511Y-72302739D01*
X195613847Y-72262681D01*
X195612368Y-72244470D01*
X195611814Y-72222951D01*
X195612126Y-72199664D01*
X195613246Y-72176151D01*
X195615115Y-72153950D01*
X195617676Y-72134603D01*
X195618950Y-72127670D01*
X195630619Y-72082634D01*
X195646610Y-72040118D01*
X195666729Y-72000319D01*
X195690780Y-71963431D01*
X195718568Y-71929651D01*
X195749900Y-71899174D01*
X195784579Y-71872196D01*
X195822411Y-71848912D01*
X195863201Y-71829520D01*
X195906755Y-71814214D01*
X195939141Y-71805958D01*
X195948620Y-71804024D01*
X195957463Y-71802566D01*
X195966634Y-71801520D01*
X195977098Y-71800818D01*
X195989820Y-71800394D01*
X196005764Y-71800183D01*
X196024231Y-71800119D01*
X196043912Y-71800153D01*
G37*
X196043912Y-71800153D02*
X196059493Y-71800341D01*
X196071950Y-71800749D01*
X196082263Y-71801445D01*
X196091410Y-71802495D01*
X196100368Y-71803966D01*
X196110116Y-71805926D01*
X196110591Y-71806027D01*
X196155928Y-71818127D01*
X196198666Y-71834450D01*
X196238616Y-71854850D01*
X196275591Y-71879181D01*
X196309401Y-71907295D01*
X196339860Y-71939046D01*
X196366778Y-71974288D01*
X196389967Y-72012873D01*
X196398816Y-72030607D01*
X196415739Y-72072441D01*
X196427981Y-72115633D01*
X196435581Y-72159738D01*
X196438577Y-72204312D01*
X196437006Y-72248907D01*
X196430908Y-72293079D01*
X196420318Y-72336382D01*
X196405277Y-72378371D01*
X196385821Y-72418600D01*
X196362504Y-72455895D01*
X196350450Y-72471495D01*
X196335343Y-72488718D01*
X196318364Y-72506382D01*
X196300695Y-72523304D01*
X196283518Y-72538303D01*
X196268636Y-72549763D01*
X196235686Y-72570435D01*
X196199712Y-72588458D01*
X196162089Y-72603263D01*
X196124186Y-72614282D01*
X196101524Y-72618901D01*
X196086494Y-72621036D01*
X196069092Y-72622873D01*
X196050684Y-72624327D01*
X196032637Y-72625314D01*
X196016316Y-72625748D01*
X196003086Y-72625546D01*
X195998831Y-72625256D01*
X195951295Y-72618982D01*
X195907203Y-72609162D01*
X195866212Y-72595640D01*
X195827980Y-72578260D01*
X195792166Y-72556863D01*
X195758427Y-72531293D01*
X195726422Y-72501394D01*
X195724420Y-72499324D01*
X195694760Y-72464934D01*
X195669530Y-72428062D01*
X195648740Y-72388726D01*
X195632397Y-72346945D01*
X195620511Y-72302739D01*
X195613847Y-72262681D01*
X195612368Y-72244470D01*
X195611814Y-72222951D01*
X195612126Y-72199664D01*
X195613246Y-72176151D01*
X195615115Y-72153950D01*
X195617676Y-72134603D01*
X195618950Y-72127670D01*
X195630619Y-72082634D01*
X195646610Y-72040118D01*
X195666729Y-72000319D01*
X195690780Y-71963431D01*
X195718568Y-71929651D01*
X195749900Y-71899174D01*
X195784579Y-71872196D01*
X195822411Y-71848912D01*
X195863201Y-71829520D01*
X195906755Y-71814214D01*
X195939141Y-71805958D01*
X195948620Y-71804024D01*
X195957463Y-71802566D01*
X195966634Y-71801520D01*
X195977098Y-71800818D01*
X195989820Y-71800394D01*
X196005764Y-71800183D01*
X196024231Y-71800119D01*
X196043912Y-71800153D01*
G36*
X193958642Y-73959268D02*
G01*
X193999490Y-73966308D01*
X194027983Y-73974273D01*
X194068022Y-73989953D01*
X194105363Y-74009822D01*
X194139789Y-74033633D01*
X194171082Y-74061144D01*
X194199027Y-74092108D01*
X194223405Y-74126282D01*
X194244001Y-74163420D01*
X194260597Y-74203278D01*
X194272977Y-74245612D01*
X194274504Y-74252380D01*
X194277198Y-74269360D01*
X194278898Y-74289899D01*
X194279615Y-74312578D01*
X194279361Y-74335975D01*
X194278149Y-74358670D01*
X194275989Y-74379243D01*
X194273326Y-74394413D01*
X194261371Y-74436532D01*
X194244914Y-74476321D01*
X194224029Y-74513654D01*
X194198788Y-74548402D01*
X194169264Y-74580437D01*
X194164468Y-74585003D01*
X194131202Y-74612732D01*
X194095316Y-74636172D01*
X194057088Y-74655179D01*
X194016797Y-74669606D01*
X193988926Y-74676608D01*
X193973747Y-74679116D01*
X193955411Y-74681086D01*
X193935410Y-74682452D01*
X193915233Y-74683151D01*
X193896370Y-74683118D01*
X193880313Y-74682287D01*
X193874121Y-74681598D01*
X193831523Y-74673207D01*
X193790824Y-74660306D01*
X193752317Y-74643141D01*
X193716295Y-74621957D01*
X193683053Y-74596999D01*
X193652884Y-74568512D01*
X193626082Y-74536741D01*
X193602941Y-74501932D01*
X193583754Y-74464331D01*
X193569899Y-74427640D01*
X193565830Y-74413551D01*
X193561874Y-74397655D01*
X193558741Y-74382867D01*
X193558150Y-74379567D01*
X193555909Y-74361565D01*
X193554582Y-74340419D01*
X193554170Y-74317818D01*
X193554678Y-74295454D01*
X193556107Y-74275017D01*
X193557954Y-74260967D01*
X193567487Y-74220228D01*
X193581685Y-74180990D01*
X193600257Y-74143644D01*
X193622913Y-74108580D01*
X193649359Y-74076188D01*
X193679305Y-74046859D01*
X193712460Y-74020984D01*
X193748531Y-73998952D01*
X193756724Y-73994712D01*
X193794933Y-73978346D01*
X193834789Y-73966576D01*
X193875732Y-73959445D01*
X193917202Y-73956995D01*
X193958642Y-73959268D01*
G37*
X193958642Y-73959268D02*
X193999490Y-73966308D01*
X194027983Y-73974273D01*
X194068022Y-73989953D01*
X194105363Y-74009822D01*
X194139789Y-74033633D01*
X194171082Y-74061144D01*
X194199027Y-74092108D01*
X194223405Y-74126282D01*
X194244001Y-74163420D01*
X194260597Y-74203278D01*
X194272977Y-74245612D01*
X194274504Y-74252380D01*
X194277198Y-74269360D01*
X194278898Y-74289899D01*
X194279615Y-74312578D01*
X194279361Y-74335975D01*
X194278149Y-74358670D01*
X194275989Y-74379243D01*
X194273326Y-74394413D01*
X194261371Y-74436532D01*
X194244914Y-74476321D01*
X194224029Y-74513654D01*
X194198788Y-74548402D01*
X194169264Y-74580437D01*
X194164468Y-74585003D01*
X194131202Y-74612732D01*
X194095316Y-74636172D01*
X194057088Y-74655179D01*
X194016797Y-74669606D01*
X193988926Y-74676608D01*
X193973747Y-74679116D01*
X193955411Y-74681086D01*
X193935410Y-74682452D01*
X193915233Y-74683151D01*
X193896370Y-74683118D01*
X193880313Y-74682287D01*
X193874121Y-74681598D01*
X193831523Y-74673207D01*
X193790824Y-74660306D01*
X193752317Y-74643141D01*
X193716295Y-74621957D01*
X193683053Y-74596999D01*
X193652884Y-74568512D01*
X193626082Y-74536741D01*
X193602941Y-74501932D01*
X193583754Y-74464331D01*
X193569899Y-74427640D01*
X193565830Y-74413551D01*
X193561874Y-74397655D01*
X193558741Y-74382867D01*
X193558150Y-74379567D01*
X193555909Y-74361565D01*
X193554582Y-74340419D01*
X193554170Y-74317818D01*
X193554678Y-74295454D01*
X193556107Y-74275017D01*
X193557954Y-74260967D01*
X193567487Y-74220228D01*
X193581685Y-74180990D01*
X193600257Y-74143644D01*
X193622913Y-74108580D01*
X193649359Y-74076188D01*
X193679305Y-74046859D01*
X193712460Y-74020984D01*
X193748531Y-73998952D01*
X193756724Y-73994712D01*
X193794933Y-73978346D01*
X193834789Y-73966576D01*
X193875732Y-73959445D01*
X193917202Y-73956995D01*
X193958642Y-73959268D01*
G36*
X202446659Y-82390579D02*
G01*
X202491011Y-82397200D01*
X202495699Y-82398192D01*
X202539730Y-82410335D01*
X202581849Y-82427041D01*
X202621741Y-82448052D01*
X202659089Y-82473108D01*
X202693576Y-82501951D01*
X202724887Y-82534321D01*
X202752705Y-82569960D01*
X202776714Y-82608607D01*
X202793138Y-82641908D01*
X202808764Y-82683596D01*
X202819835Y-82726872D01*
X202826323Y-82771147D01*
X202828200Y-82815833D01*
X202825438Y-82860341D01*
X202818009Y-82904083D01*
X202807480Y-82941796D01*
X202790716Y-82984232D01*
X202769862Y-83023994D01*
X202745230Y-83060885D01*
X202717137Y-83094709D01*
X202685895Y-83125270D01*
X202651819Y-83152370D01*
X202615224Y-83175815D01*
X202576423Y-83195408D01*
X202535730Y-83210952D01*
X202493461Y-83222251D01*
X202449929Y-83229110D01*
X202405449Y-83231332D01*
X202360334Y-83228720D01*
X202350101Y-83227442D01*
X202305105Y-83218747D01*
X202261816Y-83205300D01*
X202220416Y-83187197D01*
X202181091Y-83164533D01*
X202144026Y-83137405D01*
X202109405Y-83105907D01*
X202103721Y-83100066D01*
X202073221Y-83064666D01*
X202047205Y-83026911D01*
X202025629Y-82986717D01*
X202008448Y-82943999D01*
X201995616Y-82898670D01*
X201994154Y-82892061D01*
X201992101Y-82881895D01*
X201990578Y-82872603D01*
X201989512Y-82863139D01*
X201988829Y-82852455D01*
X201988453Y-82839503D01*
X201988311Y-82823238D01*
X201988310Y-82809640D01*
X201988595Y-82785237D01*
X201989469Y-82764629D01*
X201991116Y-82746546D01*
X201993724Y-82729721D01*
X201997478Y-82712882D01*
X202002563Y-82694762D01*
X202007325Y-82679682D01*
X202023634Y-82637569D01*
X202044047Y-82598083D01*
X202068240Y-82561410D01*
X202095888Y-82527738D01*
X202126667Y-82497253D01*
X202160251Y-82470144D01*
X202196318Y-82446596D01*
X202234541Y-82426797D01*
X202274598Y-82410933D01*
X202316162Y-82399193D01*
X202358910Y-82391762D01*
X202402517Y-82388828D01*
X202446659Y-82390579D01*
G37*
X202446659Y-82390579D02*
X202491011Y-82397200D01*
X202495699Y-82398192D01*
X202539730Y-82410335D01*
X202581849Y-82427041D01*
X202621741Y-82448052D01*
X202659089Y-82473108D01*
X202693576Y-82501951D01*
X202724887Y-82534321D01*
X202752705Y-82569960D01*
X202776714Y-82608607D01*
X202793138Y-82641908D01*
X202808764Y-82683596D01*
X202819835Y-82726872D01*
X202826323Y-82771147D01*
X202828200Y-82815833D01*
X202825438Y-82860341D01*
X202818009Y-82904083D01*
X202807480Y-82941796D01*
X202790716Y-82984232D01*
X202769862Y-83023994D01*
X202745230Y-83060885D01*
X202717137Y-83094709D01*
X202685895Y-83125270D01*
X202651819Y-83152370D01*
X202615224Y-83175815D01*
X202576423Y-83195408D01*
X202535730Y-83210952D01*
X202493461Y-83222251D01*
X202449929Y-83229110D01*
X202405449Y-83231332D01*
X202360334Y-83228720D01*
X202350101Y-83227442D01*
X202305105Y-83218747D01*
X202261816Y-83205300D01*
X202220416Y-83187197D01*
X202181091Y-83164533D01*
X202144026Y-83137405D01*
X202109405Y-83105907D01*
X202103721Y-83100066D01*
X202073221Y-83064666D01*
X202047205Y-83026911D01*
X202025629Y-82986717D01*
X202008448Y-82943999D01*
X201995616Y-82898670D01*
X201994154Y-82892061D01*
X201992101Y-82881895D01*
X201990578Y-82872603D01*
X201989512Y-82863139D01*
X201988829Y-82852455D01*
X201988453Y-82839503D01*
X201988311Y-82823238D01*
X201988310Y-82809640D01*
X201988595Y-82785237D01*
X201989469Y-82764629D01*
X201991116Y-82746546D01*
X201993724Y-82729721D01*
X201997478Y-82712882D01*
X202002563Y-82694762D01*
X202007325Y-82679682D01*
X202023634Y-82637569D01*
X202044047Y-82598083D01*
X202068240Y-82561410D01*
X202095888Y-82527738D01*
X202126667Y-82497253D01*
X202160251Y-82470144D01*
X202196318Y-82446596D01*
X202234541Y-82426797D01*
X202274598Y-82410933D01*
X202316162Y-82399193D01*
X202358910Y-82391762D01*
X202402517Y-82388828D01*
X202446659Y-82390579D01*
G36*
X203724442Y-83882880D02*
G01*
X203737210Y-83883185D01*
X203747172Y-83883829D01*
X203755463Y-83884917D01*
X203763218Y-83886556D01*
X203771231Y-83888752D01*
X203805833Y-83901476D01*
X203838331Y-83918588D01*
X203868202Y-83939733D01*
X203894925Y-83964552D01*
X203912814Y-83985660D01*
X203922562Y-84000127D01*
X203932573Y-84017849D01*
X203942053Y-84037168D01*
X203950208Y-84056427D01*
X203956246Y-84073969D01*
X203957711Y-84079393D01*
X203963583Y-84113494D01*
X203964631Y-84147390D01*
X203961109Y-84180696D01*
X203953271Y-84213027D01*
X203941369Y-84243996D01*
X203925657Y-84273218D01*
X203906389Y-84300307D01*
X203883817Y-84324876D01*
X203858194Y-84346541D01*
X203829775Y-84364914D01*
X203798813Y-84379611D01*
X203765560Y-84390245D01*
X203751648Y-84393279D01*
X203735124Y-84395492D01*
X203715902Y-84396614D01*
X203695883Y-84396643D01*
X203676972Y-84395578D01*
X203661072Y-84393417D01*
X203660741Y-84393351D01*
X203626012Y-84383862D01*
X203593285Y-84369908D01*
X203562925Y-84351834D01*
X203535294Y-84329984D01*
X203510755Y-84304702D01*
X203489672Y-84276330D01*
X203472409Y-84245215D01*
X203459328Y-84211699D01*
X203455768Y-84199321D01*
X203452302Y-84182034D01*
X203449991Y-84162041D01*
X203448892Y-84140999D01*
X203449064Y-84120567D01*
X203450565Y-84102400D01*
X203452055Y-84093610D01*
X203462166Y-84057957D01*
X203476572Y-84024553D01*
X203494993Y-83993747D01*
X203517147Y-83965886D01*
X203542752Y-83941319D01*
X203571527Y-83920394D01*
X203603191Y-83903459D01*
X203607158Y-83901717D01*
X203623399Y-83895051D01*
X203637499Y-83890129D01*
X203650797Y-83886699D01*
X203664629Y-83884508D01*
X203680334Y-83883307D01*
X203699248Y-83882843D01*
X203707731Y-83882808D01*
X203724442Y-83882880D01*
G37*
X203724442Y-83882880D02*
X203737210Y-83883185D01*
X203747172Y-83883829D01*
X203755463Y-83884917D01*
X203763218Y-83886556D01*
X203771231Y-83888752D01*
X203805833Y-83901476D01*
X203838331Y-83918588D01*
X203868202Y-83939733D01*
X203894925Y-83964552D01*
X203912814Y-83985660D01*
X203922562Y-84000127D01*
X203932573Y-84017849D01*
X203942053Y-84037168D01*
X203950208Y-84056427D01*
X203956246Y-84073969D01*
X203957711Y-84079393D01*
X203963583Y-84113494D01*
X203964631Y-84147390D01*
X203961109Y-84180696D01*
X203953271Y-84213027D01*
X203941369Y-84243996D01*
X203925657Y-84273218D01*
X203906389Y-84300307D01*
X203883817Y-84324876D01*
X203858194Y-84346541D01*
X203829775Y-84364914D01*
X203798813Y-84379611D01*
X203765560Y-84390245D01*
X203751648Y-84393279D01*
X203735124Y-84395492D01*
X203715902Y-84396614D01*
X203695883Y-84396643D01*
X203676972Y-84395578D01*
X203661072Y-84393417D01*
X203660741Y-84393351D01*
X203626012Y-84383862D01*
X203593285Y-84369908D01*
X203562925Y-84351834D01*
X203535294Y-84329984D01*
X203510755Y-84304702D01*
X203489672Y-84276330D01*
X203472409Y-84245215D01*
X203459328Y-84211699D01*
X203455768Y-84199321D01*
X203452302Y-84182034D01*
X203449991Y-84162041D01*
X203448892Y-84140999D01*
X203449064Y-84120567D01*
X203450565Y-84102400D01*
X203452055Y-84093610D01*
X203462166Y-84057957D01*
X203476572Y-84024553D01*
X203494993Y-83993747D01*
X203517147Y-83965886D01*
X203542752Y-83941319D01*
X203571527Y-83920394D01*
X203603191Y-83903459D01*
X203607158Y-83901717D01*
X203623399Y-83895051D01*
X203637499Y-83890129D01*
X203650797Y-83886699D01*
X203664629Y-83884508D01*
X203680334Y-83883307D01*
X203699248Y-83882843D01*
X203707731Y-83882808D01*
X203724442Y-83882880D01*
G36*
X198217057Y-82225492D02*
G01*
X198271274Y-82232492D01*
X198324770Y-82244355D01*
X198334315Y-82247016D01*
X198385165Y-82264244D01*
X198434401Y-82286086D01*
X198481565Y-82312252D01*
X198526198Y-82342453D01*
X198567840Y-82376399D01*
X198606034Y-82413801D01*
X198616027Y-82424830D01*
X198650872Y-82467746D01*
X198681160Y-82512422D01*
X198707012Y-82559127D01*
X198728549Y-82608128D01*
X198745892Y-82659693D01*
X198759164Y-82714090D01*
X198766612Y-82757570D01*
X198767915Y-82770219D01*
X198768879Y-82786724D01*
X198769506Y-82805943D01*
X198769797Y-82826734D01*
X198769751Y-82847953D01*
X198769371Y-82868460D01*
X198768657Y-82887112D01*
X198767608Y-82902767D01*
X198766509Y-82912510D01*
X198755701Y-82969623D01*
X198740599Y-83024189D01*
X198721250Y-83076115D01*
X198697703Y-83125309D01*
X198670007Y-83171679D01*
X198638210Y-83215132D01*
X198602362Y-83255575D01*
X198570162Y-83286264D01*
X198526396Y-83321741D01*
X198480491Y-83352638D01*
X198432366Y-83378994D01*
X198381935Y-83400849D01*
X198329116Y-83418240D01*
X198273825Y-83431207D01*
X198248001Y-83435626D01*
X198237457Y-83436884D01*
X198223402Y-83438060D01*
X198206900Y-83439116D01*
X198189019Y-83440011D01*
X198170824Y-83440704D01*
X198153380Y-83441156D01*
X198137753Y-83441325D01*
X198125010Y-83441172D01*
X198116215Y-83440656D01*
X198115921Y-83440623D01*
X198109418Y-83439873D01*
X198099568Y-83438750D01*
X198088070Y-83437447D01*
X198082901Y-83436863D01*
X198036583Y-83429367D01*
X197989527Y-83417403D01*
X197942600Y-83401327D01*
X197896667Y-83381493D01*
X197852593Y-83358254D01*
X197811245Y-83331964D01*
X197792071Y-83317946D01*
X197783515Y-83311166D01*
X197772801Y-83302357D01*
X197761563Y-83292873D01*
X197754977Y-83287187D01*
X197713174Y-83251691D01*
X197673351Y-83219999D01*
X197634787Y-83191610D01*
X197596762Y-83166026D01*
X197558556Y-83142745D01*
X197519448Y-83121269D01*
X197506333Y-83114548D01*
X197451914Y-83089029D01*
X197396877Y-83067110D01*
X197340514Y-83048591D01*
X197282115Y-83033270D01*
X197220973Y-83020946D01*
X197156379Y-83011420D01*
X197132941Y-83008721D01*
X197077378Y-83004774D01*
X197019219Y-83004455D01*
X196959320Y-83007667D01*
X196898539Y-83014312D01*
X196837734Y-83024293D01*
X196777762Y-83037514D01*
X196719479Y-83053877D01*
X196711301Y-83056478D01*
X196671208Y-83070453D01*
X196631354Y-83086313D01*
X196592349Y-83103724D01*
X196554806Y-83122353D01*
X196519338Y-83141865D01*
X196486556Y-83161927D01*
X196457072Y-83182204D01*
X196431500Y-83202365D01*
X196413799Y-83218653D01*
X196373887Y-83255323D01*
X196332001Y-83287337D01*
X196288009Y-83314774D01*
X196241781Y-83337711D01*
X196193184Y-83356227D01*
X196171551Y-83362843D01*
X196121342Y-83374549D01*
X196070912Y-83381317D01*
X196020560Y-83383261D01*
X195970586Y-83380494D01*
X195921288Y-83373131D01*
X195872966Y-83361287D01*
X195825920Y-83345076D01*
X195780447Y-83324613D01*
X195736847Y-83300011D01*
X195695420Y-83271386D01*
X195656465Y-83238851D01*
X195620280Y-83202520D01*
X195587166Y-83162510D01*
X195565041Y-83130950D01*
X195539624Y-83087454D01*
X195518069Y-83041094D01*
X195500664Y-82992617D01*
X195487697Y-82942767D01*
X195483182Y-82918860D01*
X195480246Y-82895915D01*
X195478332Y-82869633D01*
X195477472Y-82841655D01*
X195477696Y-82813627D01*
X195479034Y-82787192D01*
X195480483Y-82771922D01*
X195488951Y-82720463D01*
X195502040Y-82670734D01*
X195519518Y-82622964D01*
X195541153Y-82577380D01*
X195566715Y-82534209D01*
X195595971Y-82493680D01*
X195628689Y-82456020D01*
X195664638Y-82421457D01*
X195703586Y-82390219D01*
X195745302Y-82362533D01*
X195789553Y-82338627D01*
X195836109Y-82318729D01*
X195884737Y-82303066D01*
X195935206Y-82291867D01*
X195974335Y-82286512D01*
X196023803Y-82284039D01*
X196073645Y-82286436D01*
X196123379Y-82293564D01*
X196172522Y-82305287D01*
X196220590Y-82321467D01*
X196267101Y-82341966D01*
X196311572Y-82366646D01*
X196351891Y-82394140D01*
X196360283Y-82400753D01*
X196371186Y-82409787D01*
X196383383Y-82420213D01*
X196395657Y-82430999D01*
X196399835Y-82434749D01*
X196426453Y-82457068D01*
X196457299Y-82479886D01*
X196491614Y-82502712D01*
X196528642Y-82525061D01*
X196567625Y-82546443D01*
X196593191Y-82559366D01*
X196659503Y-82589051D01*
X196726718Y-82613787D01*
X196794661Y-82633591D01*
X196863158Y-82648477D01*
X196932032Y-82658462D01*
X197001110Y-82663561D01*
X197070216Y-82663790D01*
X197139175Y-82659164D01*
X197207812Y-82649700D01*
X197275952Y-82635412D01*
X197343420Y-82616317D01*
X197410041Y-82592431D01*
X197475640Y-82563768D01*
X197540042Y-82530345D01*
X197603072Y-82492178D01*
X197642564Y-82465301D01*
X197661358Y-82451594D01*
X197682586Y-82435532D01*
X197704910Y-82418162D01*
X197726993Y-82400532D01*
X197747497Y-82383690D01*
X197757250Y-82375455D01*
X197783582Y-82353856D01*
X197808914Y-82335068D01*
X197835140Y-82317728D01*
X197850434Y-82308432D01*
X197898674Y-82282796D01*
X197948948Y-82261673D01*
X198000862Y-82245112D01*
X198054024Y-82233164D01*
X198108039Y-82225878D01*
X198162514Y-82223304D01*
X198217057Y-82225492D01*
G37*
X198217057Y-82225492D02*
X198271274Y-82232492D01*
X198324770Y-82244355D01*
X198334315Y-82247016D01*
X198385165Y-82264244D01*
X198434401Y-82286086D01*
X198481565Y-82312252D01*
X198526198Y-82342453D01*
X198567840Y-82376399D01*
X198606034Y-82413801D01*
X198616027Y-82424830D01*
X198650872Y-82467746D01*
X198681160Y-82512422D01*
X198707012Y-82559127D01*
X198728549Y-82608128D01*
X198745892Y-82659693D01*
X198759164Y-82714090D01*
X198766612Y-82757570D01*
X198767915Y-82770219D01*
X198768879Y-82786724D01*
X198769506Y-82805943D01*
X198769797Y-82826734D01*
X198769751Y-82847953D01*
X198769371Y-82868460D01*
X198768657Y-82887112D01*
X198767608Y-82902767D01*
X198766509Y-82912510D01*
X198755701Y-82969623D01*
X198740599Y-83024189D01*
X198721250Y-83076115D01*
X198697703Y-83125309D01*
X198670007Y-83171679D01*
X198638210Y-83215132D01*
X198602362Y-83255575D01*
X198570162Y-83286264D01*
X198526396Y-83321741D01*
X198480491Y-83352638D01*
X198432366Y-83378994D01*
X198381935Y-83400849D01*
X198329116Y-83418240D01*
X198273825Y-83431207D01*
X198248001Y-83435626D01*
X198237457Y-83436884D01*
X198223402Y-83438060D01*
X198206900Y-83439116D01*
X198189019Y-83440011D01*
X198170824Y-83440704D01*
X198153380Y-83441156D01*
X198137753Y-83441325D01*
X198125010Y-83441172D01*
X198116215Y-83440656D01*
X198115921Y-83440623D01*
X198109418Y-83439873D01*
X198099568Y-83438750D01*
X198088070Y-83437447D01*
X198082901Y-83436863D01*
X198036583Y-83429367D01*
X197989527Y-83417403D01*
X197942600Y-83401327D01*
X197896667Y-83381493D01*
X197852593Y-83358254D01*
X197811245Y-83331964D01*
X197792071Y-83317946D01*
X197783515Y-83311166D01*
X197772801Y-83302357D01*
X197761563Y-83292873D01*
X197754977Y-83287187D01*
X197713174Y-83251691D01*
X197673351Y-83219999D01*
X197634787Y-83191610D01*
X197596762Y-83166026D01*
X197558556Y-83142745D01*
X197519448Y-83121269D01*
X197506333Y-83114548D01*
X197451914Y-83089029D01*
X197396877Y-83067110D01*
X197340514Y-83048591D01*
X197282115Y-83033270D01*
X197220973Y-83020946D01*
X197156379Y-83011420D01*
X197132941Y-83008721D01*
X197077378Y-83004774D01*
X197019219Y-83004455D01*
X196959320Y-83007667D01*
X196898539Y-83014312D01*
X196837734Y-83024293D01*
X196777762Y-83037514D01*
X196719479Y-83053877D01*
X196711301Y-83056478D01*
X196671208Y-83070453D01*
X196631354Y-83086313D01*
X196592349Y-83103724D01*
X196554806Y-83122353D01*
X196519338Y-83141865D01*
X196486556Y-83161927D01*
X196457072Y-83182204D01*
X196431500Y-83202365D01*
X196413799Y-83218653D01*
X196373887Y-83255323D01*
X196332001Y-83287337D01*
X196288009Y-83314774D01*
X196241781Y-83337711D01*
X196193184Y-83356227D01*
X196171551Y-83362843D01*
X196121342Y-83374549D01*
X196070912Y-83381317D01*
X196020560Y-83383261D01*
X195970586Y-83380494D01*
X195921288Y-83373131D01*
X195872966Y-83361287D01*
X195825920Y-83345076D01*
X195780447Y-83324613D01*
X195736847Y-83300011D01*
X195695420Y-83271386D01*
X195656465Y-83238851D01*
X195620280Y-83202520D01*
X195587166Y-83162510D01*
X195565041Y-83130950D01*
X195539624Y-83087454D01*
X195518069Y-83041094D01*
X195500664Y-82992617D01*
X195487697Y-82942767D01*
X195483182Y-82918860D01*
X195480246Y-82895915D01*
X195478332Y-82869633D01*
X195477472Y-82841655D01*
X195477696Y-82813627D01*
X195479034Y-82787192D01*
X195480483Y-82771922D01*
X195488951Y-82720463D01*
X195502040Y-82670734D01*
X195519518Y-82622964D01*
X195541153Y-82577380D01*
X195566715Y-82534209D01*
X195595971Y-82493680D01*
X195628689Y-82456020D01*
X195664638Y-82421457D01*
X195703586Y-82390219D01*
X195745302Y-82362533D01*
X195789553Y-82338627D01*
X195836109Y-82318729D01*
X195884737Y-82303066D01*
X195935206Y-82291867D01*
X195974335Y-82286512D01*
X196023803Y-82284039D01*
X196073645Y-82286436D01*
X196123379Y-82293564D01*
X196172522Y-82305287D01*
X196220590Y-82321467D01*
X196267101Y-82341966D01*
X196311572Y-82366646D01*
X196351891Y-82394140D01*
X196360283Y-82400753D01*
X196371186Y-82409787D01*
X196383383Y-82420213D01*
X196395657Y-82430999D01*
X196399835Y-82434749D01*
X196426453Y-82457068D01*
X196457299Y-82479886D01*
X196491614Y-82502712D01*
X196528642Y-82525061D01*
X196567625Y-82546443D01*
X196593191Y-82559366D01*
X196659503Y-82589051D01*
X196726718Y-82613787D01*
X196794661Y-82633591D01*
X196863158Y-82648477D01*
X196932032Y-82658462D01*
X197001110Y-82663561D01*
X197070216Y-82663790D01*
X197139175Y-82659164D01*
X197207812Y-82649700D01*
X197275952Y-82635412D01*
X197343420Y-82616317D01*
X197410041Y-82592431D01*
X197475640Y-82563768D01*
X197540042Y-82530345D01*
X197603072Y-82492178D01*
X197642564Y-82465301D01*
X197661358Y-82451594D01*
X197682586Y-82435532D01*
X197704910Y-82418162D01*
X197726993Y-82400532D01*
X197747497Y-82383690D01*
X197757250Y-82375455D01*
X197783582Y-82353856D01*
X197808914Y-82335068D01*
X197835140Y-82317728D01*
X197850434Y-82308432D01*
X197898674Y-82282796D01*
X197948948Y-82261673D01*
X198000862Y-82245112D01*
X198054024Y-82233164D01*
X198108039Y-82225878D01*
X198162514Y-82223304D01*
X198217057Y-82225492D01*
G36*
X193909277Y-76024206D02*
G01*
X193926283Y-76024475D01*
X193940006Y-76025017D01*
X193951342Y-76025882D01*
X193961187Y-76027119D01*
X193969371Y-76028561D01*
X194015421Y-76040166D01*
X194059370Y-76056220D01*
X194100942Y-76076534D01*
X194139860Y-76100921D01*
X194175848Y-76129191D01*
X194208630Y-76161156D01*
X194237929Y-76196628D01*
X194256997Y-76224690D01*
X194279232Y-76265051D01*
X194296962Y-76307294D01*
X194310163Y-76350982D01*
X194318808Y-76395680D01*
X194322872Y-76440953D01*
X194322330Y-76486365D01*
X194317154Y-76531480D01*
X194307320Y-76575863D01*
X194292802Y-76619078D01*
X194281827Y-76644275D01*
X194259323Y-76685886D01*
X194233010Y-76724223D01*
X194203100Y-76759122D01*
X194169802Y-76790419D01*
X194133325Y-76817950D01*
X194093880Y-76841550D01*
X194051674Y-76861056D01*
X194006920Y-76876302D01*
X193975721Y-76884030D01*
X193959928Y-76886610D01*
X193940366Y-76888610D01*
X193918316Y-76890003D01*
X193895058Y-76890760D01*
X193871874Y-76890854D01*
X193850045Y-76890257D01*
X193830851Y-76888942D01*
X193818827Y-76887446D01*
X193773280Y-76877656D01*
X193729527Y-76863281D01*
X193687875Y-76844546D01*
X193648630Y-76821676D01*
X193612099Y-76794893D01*
X193578590Y-76764424D01*
X193548410Y-76730493D01*
X193521865Y-76693324D01*
X193499661Y-76653950D01*
X193480476Y-76609758D01*
X193466285Y-76564667D01*
X193457101Y-76518774D01*
X193452938Y-76472177D01*
X193453807Y-76424976D01*
X193459722Y-76377267D01*
X193461658Y-76366930D01*
X193469505Y-76335755D01*
X193480756Y-76302969D01*
X193494772Y-76270034D01*
X193510916Y-76238417D01*
X193528549Y-76209581D01*
X193533029Y-76203100D01*
X193546037Y-76186330D01*
X193562143Y-76167999D01*
X193580168Y-76149286D01*
X193598933Y-76131369D01*
X193617257Y-76115426D01*
X193632821Y-76103436D01*
X193669719Y-76080163D01*
X193709965Y-76060155D01*
X193752745Y-76043763D01*
X193797246Y-76031338D01*
X193803106Y-76030035D01*
X193812619Y-76028108D01*
X193821562Y-76026655D01*
X193830903Y-76025609D01*
X193841608Y-76024903D01*
X193854641Y-76024470D01*
X193870970Y-76024243D01*
X193888091Y-76024164D01*
X193909277Y-76024206D01*
G37*
X193909277Y-76024206D02*
X193926283Y-76024475D01*
X193940006Y-76025017D01*
X193951342Y-76025882D01*
X193961187Y-76027119D01*
X193969371Y-76028561D01*
X194015421Y-76040166D01*
X194059370Y-76056220D01*
X194100942Y-76076534D01*
X194139860Y-76100921D01*
X194175848Y-76129191D01*
X194208630Y-76161156D01*
X194237929Y-76196628D01*
X194256997Y-76224690D01*
X194279232Y-76265051D01*
X194296962Y-76307294D01*
X194310163Y-76350982D01*
X194318808Y-76395680D01*
X194322872Y-76440953D01*
X194322330Y-76486365D01*
X194317154Y-76531480D01*
X194307320Y-76575863D01*
X194292802Y-76619078D01*
X194281827Y-76644275D01*
X194259323Y-76685886D01*
X194233010Y-76724223D01*
X194203100Y-76759122D01*
X194169802Y-76790419D01*
X194133325Y-76817950D01*
X194093880Y-76841550D01*
X194051674Y-76861056D01*
X194006920Y-76876302D01*
X193975721Y-76884030D01*
X193959928Y-76886610D01*
X193940366Y-76888610D01*
X193918316Y-76890003D01*
X193895058Y-76890760D01*
X193871874Y-76890854D01*
X193850045Y-76890257D01*
X193830851Y-76888942D01*
X193818827Y-76887446D01*
X193773280Y-76877656D01*
X193729527Y-76863281D01*
X193687875Y-76844546D01*
X193648630Y-76821676D01*
X193612099Y-76794893D01*
X193578590Y-76764424D01*
X193548410Y-76730493D01*
X193521865Y-76693324D01*
X193499661Y-76653950D01*
X193480476Y-76609758D01*
X193466285Y-76564667D01*
X193457101Y-76518774D01*
X193452938Y-76472177D01*
X193453807Y-76424976D01*
X193459722Y-76377267D01*
X193461658Y-76366930D01*
X193469505Y-76335755D01*
X193480756Y-76302969D01*
X193494772Y-76270034D01*
X193510916Y-76238417D01*
X193528549Y-76209581D01*
X193533029Y-76203100D01*
X193546037Y-76186330D01*
X193562143Y-76167999D01*
X193580168Y-76149286D01*
X193598933Y-76131369D01*
X193617257Y-76115426D01*
X193632821Y-76103436D01*
X193669719Y-76080163D01*
X193709965Y-76060155D01*
X193752745Y-76043763D01*
X193797246Y-76031338D01*
X193803106Y-76030035D01*
X193812619Y-76028108D01*
X193821562Y-76026655D01*
X193830903Y-76025609D01*
X193841608Y-76024903D01*
X193854641Y-76024470D01*
X193870970Y-76024243D01*
X193888091Y-76024164D01*
X193909277Y-76024206D01*
G36*
X193889361Y-80266042D02*
G01*
X193908325Y-80266139D01*
X193923306Y-80266396D01*
X193935400Y-80266900D01*
X193945703Y-80267738D01*
X193955311Y-80268997D01*
X193965321Y-80270763D01*
X193975721Y-80272889D01*
X194006311Y-80280153D01*
X194033826Y-80288501D01*
X194060253Y-80298615D01*
X194087580Y-80311181D01*
X194088751Y-80311759D01*
X194128867Y-80334411D01*
X194165962Y-80361000D01*
X194199788Y-80391223D01*
X194230101Y-80424775D01*
X194256655Y-80461351D01*
X194279204Y-80500648D01*
X194297503Y-80542360D01*
X194311306Y-80586182D01*
X194311876Y-80588432D01*
X194316634Y-80608634D01*
X194320119Y-80626706D01*
X194322506Y-80644159D01*
X194323966Y-80662506D01*
X194324673Y-80683259D01*
X194324813Y-80701440D01*
X194323391Y-80743373D01*
X194318959Y-80782138D01*
X194311270Y-80818828D01*
X194300077Y-80854538D01*
X194285132Y-80890362D01*
X194279455Y-80902153D01*
X194256425Y-80943034D01*
X194229670Y-80980547D01*
X194199392Y-81014542D01*
X194165798Y-81044867D01*
X194129093Y-81071372D01*
X194089481Y-81093907D01*
X194047168Y-81112319D01*
X194002358Y-81126459D01*
X193963021Y-81134910D01*
X193952485Y-81136262D01*
X193938160Y-81137473D01*
X193921338Y-81138495D01*
X193903309Y-81139282D01*
X193885363Y-81139784D01*
X193868791Y-81139955D01*
X193854885Y-81139746D01*
X193846181Y-81139239D01*
X193801035Y-81132555D01*
X193756807Y-81121295D01*
X193714017Y-81105709D01*
X193673184Y-81086050D01*
X193634827Y-81062569D01*
X193599466Y-81035517D01*
X193567621Y-81005146D01*
X193566330Y-81003761D01*
X193536643Y-80968082D01*
X193511197Y-80929847D01*
X193490065Y-80889403D01*
X193473321Y-80847094D01*
X193461036Y-80803269D01*
X193453284Y-80758273D01*
X193450137Y-80712452D01*
X193451668Y-80666154D01*
X193457949Y-80619724D01*
X193469054Y-80573509D01*
X193473215Y-80560110D01*
X193489950Y-80516853D01*
X193510894Y-80476248D01*
X193535802Y-80438508D01*
X193564428Y-80403843D01*
X193596526Y-80372466D01*
X193631851Y-80344588D01*
X193670157Y-80320420D01*
X193711198Y-80300175D01*
X193754729Y-80284064D01*
X193800504Y-80272298D01*
X193809351Y-80270587D01*
X193820293Y-80268832D01*
X193831850Y-80267558D01*
X193845036Y-80266706D01*
X193860864Y-80266220D01*
X193880349Y-80266041D01*
X193889361Y-80266042D01*
G37*
X193889361Y-80266042D02*
X193908325Y-80266139D01*
X193923306Y-80266396D01*
X193935400Y-80266900D01*
X193945703Y-80267738D01*
X193955311Y-80268997D01*
X193965321Y-80270763D01*
X193975721Y-80272889D01*
X194006311Y-80280153D01*
X194033826Y-80288501D01*
X194060253Y-80298615D01*
X194087580Y-80311181D01*
X194088751Y-80311759D01*
X194128867Y-80334411D01*
X194165962Y-80361000D01*
X194199788Y-80391223D01*
X194230101Y-80424775D01*
X194256655Y-80461351D01*
X194279204Y-80500648D01*
X194297503Y-80542360D01*
X194311306Y-80586182D01*
X194311876Y-80588432D01*
X194316634Y-80608634D01*
X194320119Y-80626706D01*
X194322506Y-80644159D01*
X194323966Y-80662506D01*
X194324673Y-80683259D01*
X194324813Y-80701440D01*
X194323391Y-80743373D01*
X194318959Y-80782138D01*
X194311270Y-80818828D01*
X194300077Y-80854538D01*
X194285132Y-80890362D01*
X194279455Y-80902153D01*
X194256425Y-80943034D01*
X194229670Y-80980547D01*
X194199392Y-81014542D01*
X194165798Y-81044867D01*
X194129093Y-81071372D01*
X194089481Y-81093907D01*
X194047168Y-81112319D01*
X194002358Y-81126459D01*
X193963021Y-81134910D01*
X193952485Y-81136262D01*
X193938160Y-81137473D01*
X193921338Y-81138495D01*
X193903309Y-81139282D01*
X193885363Y-81139784D01*
X193868791Y-81139955D01*
X193854885Y-81139746D01*
X193846181Y-81139239D01*
X193801035Y-81132555D01*
X193756807Y-81121295D01*
X193714017Y-81105709D01*
X193673184Y-81086050D01*
X193634827Y-81062569D01*
X193599466Y-81035517D01*
X193567621Y-81005146D01*
X193566330Y-81003761D01*
X193536643Y-80968082D01*
X193511197Y-80929847D01*
X193490065Y-80889403D01*
X193473321Y-80847094D01*
X193461036Y-80803269D01*
X193453284Y-80758273D01*
X193450137Y-80712452D01*
X193451668Y-80666154D01*
X193457949Y-80619724D01*
X193469054Y-80573509D01*
X193473215Y-80560110D01*
X193489950Y-80516853D01*
X193510894Y-80476248D01*
X193535802Y-80438508D01*
X193564428Y-80403843D01*
X193596526Y-80372466D01*
X193631851Y-80344588D01*
X193670157Y-80320420D01*
X193711198Y-80300175D01*
X193754729Y-80284064D01*
X193800504Y-80272298D01*
X193809351Y-80270587D01*
X193820293Y-80268832D01*
X193831850Y-80267558D01*
X193845036Y-80266706D01*
X193860864Y-80266220D01*
X193880349Y-80266041D01*
X193889361Y-80266042D01*
G36*
X202454087Y-78109012D02*
G01*
X202500570Y-78116599D01*
X202543954Y-78128370D01*
X202588775Y-78145566D01*
X202631159Y-78167064D01*
X202670862Y-78192582D01*
X202707637Y-78221839D01*
X202741239Y-78254552D01*
X202771423Y-78290441D01*
X202797942Y-78329223D01*
X202820551Y-78370618D01*
X202839006Y-78414343D01*
X202853059Y-78460116D01*
X202859632Y-78490370D01*
X202861835Y-78506422D01*
X202863381Y-78526054D01*
X202864267Y-78547958D01*
X202864493Y-78570827D01*
X202864056Y-78593355D01*
X202862955Y-78614234D01*
X202861189Y-78632157D01*
X202859831Y-78640828D01*
X202848308Y-78688693D01*
X202832234Y-78734467D01*
X202811787Y-78777914D01*
X202787145Y-78818801D01*
X202758485Y-78856892D01*
X202725986Y-78891952D01*
X202689824Y-78923746D01*
X202650179Y-78952040D01*
X202607228Y-78976598D01*
X202604737Y-78977854D01*
X202566374Y-78994645D01*
X202525731Y-79007954D01*
X202483808Y-79017586D01*
X202441605Y-79023351D01*
X202400123Y-79025056D01*
X202367881Y-79023344D01*
X202320509Y-79016127D01*
X202274417Y-79004126D01*
X202229954Y-78987554D01*
X202187467Y-78966620D01*
X202147305Y-78941537D01*
X202109818Y-78912513D01*
X202075354Y-78879762D01*
X202044261Y-78843493D01*
X202024269Y-78815490D01*
X201999610Y-78773621D01*
X201979698Y-78730205D01*
X201964574Y-78685525D01*
X201954277Y-78639860D01*
X201948846Y-78593492D01*
X201948321Y-78546702D01*
X201952742Y-78499771D01*
X201962147Y-78452981D01*
X201969631Y-78426870D01*
X201976091Y-78409133D01*
X201984878Y-78388688D01*
X201995296Y-78366911D01*
X202006651Y-78345175D01*
X202018246Y-78324857D01*
X202029387Y-78307331D01*
X202031926Y-78303680D01*
X202042824Y-78289592D01*
X202056815Y-78273412D01*
X202072935Y-78256104D01*
X202090219Y-78238632D01*
X202107702Y-78221961D01*
X202124420Y-78207056D01*
X202139409Y-78194881D01*
X202144361Y-78191235D01*
X202159433Y-78181356D01*
X202177829Y-78170590D01*
X202198213Y-78159616D01*
X202219250Y-78149109D01*
X202239606Y-78139746D01*
X202257944Y-78132204D01*
X202267551Y-78128793D01*
X202313761Y-78116329D01*
X202360426Y-78108878D01*
X202407287Y-78106439D01*
X202454087Y-78109012D01*
G37*
X202454087Y-78109012D02*
X202500570Y-78116599D01*
X202543954Y-78128370D01*
X202588775Y-78145566D01*
X202631159Y-78167064D01*
X202670862Y-78192582D01*
X202707637Y-78221839D01*
X202741239Y-78254552D01*
X202771423Y-78290441D01*
X202797942Y-78329223D01*
X202820551Y-78370618D01*
X202839006Y-78414343D01*
X202853059Y-78460116D01*
X202859632Y-78490370D01*
X202861835Y-78506422D01*
X202863381Y-78526054D01*
X202864267Y-78547958D01*
X202864493Y-78570827D01*
X202864056Y-78593355D01*
X202862955Y-78614234D01*
X202861189Y-78632157D01*
X202859831Y-78640828D01*
X202848308Y-78688693D01*
X202832234Y-78734467D01*
X202811787Y-78777914D01*
X202787145Y-78818801D01*
X202758485Y-78856892D01*
X202725986Y-78891952D01*
X202689824Y-78923746D01*
X202650179Y-78952040D01*
X202607228Y-78976598D01*
X202604737Y-78977854D01*
X202566374Y-78994645D01*
X202525731Y-79007954D01*
X202483808Y-79017586D01*
X202441605Y-79023351D01*
X202400123Y-79025056D01*
X202367881Y-79023344D01*
X202320509Y-79016127D01*
X202274417Y-79004126D01*
X202229954Y-78987554D01*
X202187467Y-78966620D01*
X202147305Y-78941537D01*
X202109818Y-78912513D01*
X202075354Y-78879762D01*
X202044261Y-78843493D01*
X202024269Y-78815490D01*
X201999610Y-78773621D01*
X201979698Y-78730205D01*
X201964574Y-78685525D01*
X201954277Y-78639860D01*
X201948846Y-78593492D01*
X201948321Y-78546702D01*
X201952742Y-78499771D01*
X201962147Y-78452981D01*
X201969631Y-78426870D01*
X201976091Y-78409133D01*
X201984878Y-78388688D01*
X201995296Y-78366911D01*
X202006651Y-78345175D01*
X202018246Y-78324857D01*
X202029387Y-78307331D01*
X202031926Y-78303680D01*
X202042824Y-78289592D01*
X202056815Y-78273412D01*
X202072935Y-78256104D01*
X202090219Y-78238632D01*
X202107702Y-78221961D01*
X202124420Y-78207056D01*
X202139409Y-78194881D01*
X202144361Y-78191235D01*
X202159433Y-78181356D01*
X202177829Y-78170590D01*
X202198213Y-78159616D01*
X202219250Y-78149109D01*
X202239606Y-78139746D01*
X202257944Y-78132204D01*
X202267551Y-78128793D01*
X202313761Y-78116329D01*
X202360426Y-78108878D01*
X202407287Y-78106439D01*
X202454087Y-78109012D01*
G36*
X196070555Y-80071005D02*
G01*
X196122619Y-80076839D01*
X196173298Y-80086884D01*
X196177924Y-80088035D01*
X196230418Y-80103931D01*
X196281282Y-80124467D01*
X196330206Y-80149377D01*
X196376879Y-80178398D01*
X196420994Y-80211263D01*
X196462238Y-80247708D01*
X196500303Y-80287466D01*
X196534880Y-80330274D01*
X196565657Y-80375866D01*
X196592326Y-80423977D01*
X196606724Y-80455099D01*
X196626536Y-80507042D01*
X196641394Y-80559056D01*
X196651403Y-80611692D01*
X196656666Y-80665499D01*
X196657288Y-80721028D01*
X196657237Y-80722685D01*
X196652974Y-80779144D01*
X196643852Y-80834196D01*
X196629929Y-80887710D01*
X196611262Y-80939554D01*
X196587910Y-80989594D01*
X196559930Y-81037700D01*
X196527382Y-81083738D01*
X196490323Y-81127576D01*
X196470135Y-81148613D01*
X196427402Y-81187940D01*
X196382413Y-81222720D01*
X196335191Y-81252941D01*
X196285762Y-81278590D01*
X196234149Y-81299656D01*
X196180377Y-81316127D01*
X196124470Y-81327988D01*
X196111861Y-81329982D01*
X196099831Y-81331401D01*
X196084317Y-81332688D01*
X196066549Y-81333794D01*
X196047757Y-81334670D01*
X196029171Y-81335268D01*
X196012020Y-81335539D01*
X195997535Y-81335432D01*
X195987401Y-81334941D01*
X195938221Y-81329338D01*
X195892543Y-81321198D01*
X195849310Y-81310226D01*
X195807469Y-81296130D01*
X195765962Y-81278618D01*
X195741466Y-81266698D01*
X195691810Y-81238624D01*
X195645307Y-81206679D01*
X195602127Y-81171101D01*
X195562436Y-81132130D01*
X195526404Y-81090004D01*
X195494198Y-81044962D01*
X195465987Y-80997244D01*
X195441940Y-80947087D01*
X195422224Y-80894732D01*
X195407008Y-80840417D01*
X195396460Y-80784380D01*
X195395195Y-80775100D01*
X195393621Y-80758376D01*
X195392618Y-80737954D01*
X195392172Y-80715182D01*
X195392274Y-80691407D01*
X195392911Y-80667978D01*
X195394071Y-80646243D01*
X195395742Y-80627549D01*
X195396523Y-80621430D01*
X195406950Y-80565514D01*
X195422012Y-80511387D01*
X195441513Y-80459273D01*
X195465253Y-80409397D01*
X195493037Y-80361981D01*
X195524666Y-80317250D01*
X195559942Y-80275427D01*
X195598669Y-80236738D01*
X195640649Y-80201405D01*
X195685684Y-80169653D01*
X195733576Y-80141706D01*
X195784129Y-80117787D01*
X195837144Y-80098121D01*
X195865481Y-80089688D01*
X195914567Y-80078724D01*
X195965677Y-80071952D01*
X196017956Y-80069377D01*
X196070555Y-80071005D01*
G37*
X196070555Y-80071005D02*
X196122619Y-80076839D01*
X196173298Y-80086884D01*
X196177924Y-80088035D01*
X196230418Y-80103931D01*
X196281282Y-80124467D01*
X196330206Y-80149377D01*
X196376879Y-80178398D01*
X196420994Y-80211263D01*
X196462238Y-80247708D01*
X196500303Y-80287466D01*
X196534880Y-80330274D01*
X196565657Y-80375866D01*
X196592326Y-80423977D01*
X196606724Y-80455099D01*
X196626536Y-80507042D01*
X196641394Y-80559056D01*
X196651403Y-80611692D01*
X196656666Y-80665499D01*
X196657288Y-80721028D01*
X196657237Y-80722685D01*
X196652974Y-80779144D01*
X196643852Y-80834196D01*
X196629929Y-80887710D01*
X196611262Y-80939554D01*
X196587910Y-80989594D01*
X196559930Y-81037700D01*
X196527382Y-81083738D01*
X196490323Y-81127576D01*
X196470135Y-81148613D01*
X196427402Y-81187940D01*
X196382413Y-81222720D01*
X196335191Y-81252941D01*
X196285762Y-81278590D01*
X196234149Y-81299656D01*
X196180377Y-81316127D01*
X196124470Y-81327988D01*
X196111861Y-81329982D01*
X196099831Y-81331401D01*
X196084317Y-81332688D01*
X196066549Y-81333794D01*
X196047757Y-81334670D01*
X196029171Y-81335268D01*
X196012020Y-81335539D01*
X195997535Y-81335432D01*
X195987401Y-81334941D01*
X195938221Y-81329338D01*
X195892543Y-81321198D01*
X195849310Y-81310226D01*
X195807469Y-81296130D01*
X195765962Y-81278618D01*
X195741466Y-81266698D01*
X195691810Y-81238624D01*
X195645307Y-81206679D01*
X195602127Y-81171101D01*
X195562436Y-81132130D01*
X195526404Y-81090004D01*
X195494198Y-81044962D01*
X195465987Y-80997244D01*
X195441940Y-80947087D01*
X195422224Y-80894732D01*
X195407008Y-80840417D01*
X195396460Y-80784380D01*
X195395195Y-80775100D01*
X195393621Y-80758376D01*
X195392618Y-80737954D01*
X195392172Y-80715182D01*
X195392274Y-80691407D01*
X195392911Y-80667978D01*
X195394071Y-80646243D01*
X195395742Y-80627549D01*
X195396523Y-80621430D01*
X195406950Y-80565514D01*
X195422012Y-80511387D01*
X195441513Y-80459273D01*
X195465253Y-80409397D01*
X195493037Y-80361981D01*
X195524666Y-80317250D01*
X195559942Y-80275427D01*
X195598669Y-80236738D01*
X195640649Y-80201405D01*
X195685684Y-80169653D01*
X195733576Y-80141706D01*
X195784129Y-80117787D01*
X195837144Y-80098121D01*
X195865481Y-80089688D01*
X195914567Y-80078724D01*
X195965677Y-80071952D01*
X196017956Y-80069377D01*
X196070555Y-80071005D01*
G04 #@! TD*
D11*
G04 #@! TO.C,SW20*
X272554000Y-73954000D03*
D12*
X277634000Y-73954000D03*
D11*
X282714000Y-73954000D03*
G04 #@! TD*
D13*
G04 #@! TO.C,H5*
X279275000Y-96760000D03*
G04 #@! TD*
G04 #@! TO.C,H4*
X337465000Y-51080000D03*
G04 #@! TD*
D11*
G04 #@! TO.C,SW30*
X153568499Y-157240001D03*
D12*
X148488499Y-157240001D03*
D11*
X143408499Y-157240001D03*
G04 #@! TD*
D14*
G04 #@! TO.C,SW41*
X189460000Y-37600000D03*
X189460000Y-31400000D03*
X185760000Y-37600000D03*
X185760000Y-31400000D03*
G04 #@! TD*
D13*
G04 #@! TO.C,H7*
X118115000Y-96760000D03*
G04 #@! TD*
D15*
G04 #@! TO.C,C10*
X193344750Y-51676018D03*
X193344750Y-50716018D03*
G04 #@! TD*
D12*
G04 #@! TO.C,SW8*
X92278000Y-62547000D03*
D11*
X97358000Y-62547000D03*
X87198000Y-62547000D03*
G04 #@! TD*
D16*
G04 #@! TO.C,U1*
X204560000Y-39217500D03*
X206460000Y-39217500D03*
X205510000Y-37342500D03*
G04 #@! TD*
D17*
G04 #@! TO.C,C2*
X206480000Y-35830000D03*
X205520000Y-35830000D03*
G04 #@! TD*
D18*
G04 #@! TO.C,C8*
X205546589Y-57476482D03*
X206225411Y-58155304D03*
G04 #@! TD*
D13*
G04 #@! TO.C,H8*
X57395000Y-143800000D03*
G04 #@! TD*
D19*
G04 #@! TO.C,Y1*
X197394000Y-65189250D03*
X195194000Y-65189250D03*
X195194000Y-66889250D03*
X197394000Y-66889250D03*
G04 #@! TD*
D20*
G04 #@! TO.C,C12*
X192668161Y-56698607D03*
X191989339Y-57377429D03*
G04 #@! TD*
D15*
G04 #@! TO.C,C16*
X199567750Y-66535018D03*
X199567750Y-65575018D03*
G04 #@! TD*
D21*
G04 #@! TO.C,F1*
X202550000Y-35440000D03*
X202550000Y-38240000D03*
G04 #@! TD*
D22*
G04 #@! TO.C,D1*
X208830000Y-39130000D03*
X208830000Y-35830000D03*
G04 #@! TD*
D12*
G04 #@! TO.C,SW24*
X332507000Y-64934000D03*
D11*
X337587000Y-64934000D03*
X327427000Y-64934000D03*
G04 #@! TD*
G04 #@! TO.C,SW2*
X193498500Y-94326866D03*
D12*
X198578500Y-94326866D03*
D11*
X203658500Y-94326866D03*
G04 #@! TD*
G04 #@! TO.C,SW40*
X288212500Y-126082866D03*
X298372500Y-126082866D03*
D12*
X293292500Y-126082866D03*
G04 #@! TD*
D11*
G04 #@! TO.C,SW6*
X69002000Y-65273000D03*
X58842000Y-65273000D03*
D12*
X63922000Y-65273000D03*
G04 #@! TD*
D17*
G04 #@! TO.C,C6*
X206400000Y-45425000D03*
X205440000Y-45425000D03*
G04 #@! TD*
D11*
G04 #@! TO.C,SW36*
X242868500Y-157267866D03*
X253028500Y-157267866D03*
D12*
X247948500Y-157267866D03*
G04 #@! TD*
D23*
G04 #@! TO.C,C1*
X205440000Y-46625000D03*
X206400000Y-46625000D03*
G04 #@! TD*
D12*
G04 #@! TO.C,SW37*
X270635500Y-141497866D03*
D11*
X275715500Y-141497866D03*
X265555500Y-141497866D03*
G04 #@! TD*
D15*
G04 #@! TO.C,C3*
X201345750Y-49136018D03*
X201345750Y-48176018D03*
G04 #@! TD*
D24*
G04 #@! TO.C,R4*
X197437000Y-62993250D03*
X197437000Y-61973250D03*
G04 #@! TD*
D25*
G04 #@! TO.C,C5*
X200993000Y-62003250D03*
X200993000Y-62963250D03*
G04 #@! TD*
D23*
G04 #@! TO.C,C13*
X204577000Y-49910250D03*
X205537000Y-49910250D03*
G04 #@! TD*
D11*
G04 #@! TO.C,SW4*
X43722000Y-81576000D03*
D12*
X38642000Y-81576000D03*
D11*
X33562000Y-81576000D03*
G04 #@! TD*
D12*
G04 #@! TO.C,SW14*
X304152000Y-34349000D03*
D11*
X299072000Y-34349000D03*
X309232000Y-34349000D03*
G04 #@! TD*
D15*
G04 #@! TO.C,C9*
X202361750Y-49136018D03*
X202361750Y-48176018D03*
G04 #@! TD*
D23*
G04 #@! TO.C,C17*
X194620000Y-41640000D03*
X195580000Y-41640000D03*
G04 #@! TD*
D11*
G04 #@! TO.C,SW31*
X242868500Y-126082866D03*
X253028500Y-126082866D03*
D12*
X247948500Y-126082866D03*
G04 #@! TD*
D25*
G04 #@! TO.C,C15*
X192865000Y-65829018D03*
X192865000Y-66789018D03*
G04 #@! TD*
D12*
G04 #@! TO.C,SW15*
X332507000Y-37324000D03*
D11*
X327427000Y-37324000D03*
X337587000Y-37324000D03*
G04 #@! TD*
G04 #@! TO.C,SW21*
X309232000Y-61959000D03*
X299072000Y-61959000D03*
D12*
X304152000Y-61959000D03*
G04 #@! TD*
G04 #@! TO.C,SW9*
X118850000Y-74310000D03*
D11*
X123930000Y-74310000D03*
X113770000Y-74310000D03*
G04 #@! TD*
D26*
G04 #@! TO.C,R3*
X200540000Y-42315000D03*
X200540000Y-43965000D03*
G04 #@! TD*
D27*
G04 #@! TO.C,R5*
X185850000Y-39210000D03*
X185850000Y-40230000D03*
G04 #@! TD*
D13*
G04 #@! TO.C,H2*
X159240000Y-60710000D03*
G04 #@! TD*
G04 #@! TO.C,H1*
X238150000Y-60710000D03*
G04 #@! TD*
D12*
G04 #@! TO.C,SW27*
X125800499Y-141471001D03*
D11*
X130880499Y-141471001D03*
X120720499Y-141471001D03*
G04 #@! TD*
D12*
G04 #@! TO.C,SW18*
X358730000Y-53360000D03*
D11*
X363810000Y-53360000D03*
X353650000Y-53360000D03*
G04 #@! TD*
D13*
G04 #@! TO.C,H3*
X59925000Y-51080000D03*
G04 #@! TD*
D26*
G04 #@! TO.C,R2*
X199010000Y-42315000D03*
X199010000Y-43965000D03*
G04 #@! TD*
D15*
G04 #@! TO.C,C7*
X198580000Y-47342250D03*
X198580000Y-46382250D03*
G04 #@! TD*
D28*
G04 #@! TO.C,J2*
X204834000Y-68660000D03*
X206866000Y-68660000D03*
X205850000Y-63580000D03*
D29*
X205215000Y-64850000D03*
X206485000Y-64850000D03*
X205215000Y-66120000D03*
X206485000Y-66120000D03*
X205215000Y-67390000D03*
X206485000Y-67390000D03*
G04 #@! TD*
D22*
G04 #@! TO.C,D2*
X206450000Y-44230000D03*
X206450000Y-40930000D03*
G04 #@! TD*
D13*
G04 #@! TO.C,H6*
X339995000Y-143800000D03*
G04 #@! TD*
D25*
G04 #@! TO.C,C11*
X199469000Y-62003250D03*
X199469000Y-62963250D03*
G04 #@! TD*
D11*
G04 #@! TO.C,SW25*
X363810000Y-80970000D03*
X353650000Y-80970000D03*
D12*
X358730000Y-80970000D03*
G04 #@! TD*
D30*
G04 #@! TO.C,U3*
X195142500Y-52295000D03*
X195142500Y-52695000D03*
X195142500Y-53095000D03*
X195142500Y-53495000D03*
X195142500Y-53895000D03*
X195142500Y-54295000D03*
X195142500Y-54695000D03*
X195142500Y-55095000D03*
X195142500Y-55495000D03*
X195142500Y-55895000D03*
X195142500Y-56295000D03*
X195142500Y-56695000D03*
X195142500Y-57095000D03*
X195142500Y-57495000D03*
D31*
X195980000Y-58332500D03*
X196380000Y-58332500D03*
X196780000Y-58332500D03*
X197180000Y-58332500D03*
X197580000Y-58332500D03*
X197980000Y-58332500D03*
X198380000Y-58332500D03*
X198780000Y-58332500D03*
X199180000Y-58332500D03*
X199580000Y-58332500D03*
X199980000Y-58332500D03*
X200380000Y-58332500D03*
X200780000Y-58332500D03*
X201180000Y-58332500D03*
D30*
X202017500Y-57495000D03*
X202017500Y-57095000D03*
X202017500Y-56695000D03*
X202017500Y-56295000D03*
X202017500Y-55895000D03*
X202017500Y-55495000D03*
X202017500Y-55095000D03*
X202017500Y-54695000D03*
X202017500Y-54295000D03*
X202017500Y-53895000D03*
X202017500Y-53495000D03*
X202017500Y-53095000D03*
X202017500Y-52695000D03*
X202017500Y-52295000D03*
D31*
X201180000Y-51457500D03*
X200780000Y-51457500D03*
X200380000Y-51457500D03*
X199980000Y-51457500D03*
X199580000Y-51457500D03*
X199180000Y-51457500D03*
X198780000Y-51457500D03*
X198380000Y-51457500D03*
X197980000Y-51457500D03*
X197580000Y-51457500D03*
X197180000Y-51457500D03*
X196780000Y-51457500D03*
X196380000Y-51457500D03*
X195980000Y-51457500D03*
D32*
X198580000Y-54895000D03*
G04 #@! TD*
D15*
G04 #@! TO.C,C4*
X197056000Y-47342250D03*
X197056000Y-46382250D03*
G04 #@! TD*
D13*
G04 #@! TO.C,H10*
X220290000Y-34240000D03*
G04 #@! TD*
G04 #@! TO.C,H9*
X177100000Y-34240000D03*
G04 #@! TD*
D11*
G04 #@! TO.C,SW33*
X275715500Y-110312866D03*
X265555500Y-110312866D03*
D12*
X270635500Y-110312866D03*
G04 #@! TD*
D33*
G04 #@! TO.C,R1*
X205010000Y-61930000D03*
X203990000Y-61930000D03*
G04 #@! TD*
D34*
G04 #@! TO.C,U2*
X199530000Y-36212500D03*
X198580000Y-36212500D03*
X197630000Y-36212500D03*
X197630000Y-38487500D03*
X198580000Y-38487500D03*
X199530000Y-38487500D03*
G04 #@! TD*
D11*
G04 #@! TO.C,SW12*
X282714000Y-46345000D03*
D12*
X277634000Y-46345000D03*
D11*
X272554000Y-46345000D03*
G04 #@! TD*
D23*
G04 #@! TO.C,C14*
X204577000Y-51434250D03*
X205537000Y-51434250D03*
G04 #@! TD*
D35*
G04 #@! TO.C,J1*
X202178500Y-32360000D03*
X194828500Y-32360000D03*
D36*
X201328500Y-32920000D03*
X200828500Y-32920000D03*
X200328500Y-32920000D03*
X199828500Y-32920000D03*
X199328500Y-32920000D03*
D37*
X198828500Y-32920000D03*
X198328500Y-32920000D03*
D36*
X197828500Y-32920000D03*
X197328500Y-32920000D03*
X196828500Y-32920000D03*
X196328500Y-32920000D03*
X195828500Y-32920000D03*
D35*
X195778500Y-31710000D03*
X196178500Y-31010000D03*
X196978500Y-31010000D03*
X197378500Y-31710000D03*
X197778500Y-31010000D03*
X198178500Y-31710000D03*
X198978500Y-31710000D03*
X199378500Y-31010000D03*
X199778500Y-31710000D03*
X200178500Y-31010000D03*
X200978500Y-31010000D03*
X201378500Y-31710000D03*
D38*
X203068500Y-26720000D03*
X194088500Y-26720000D03*
X194373500Y-31110000D03*
X202633500Y-31110000D03*
G04 #@! TD*
D39*
G04 #@! TO.C,U4*
X185850000Y-41645000D03*
X185850000Y-42915000D03*
X185850000Y-44185000D03*
X185850000Y-45455000D03*
X193050000Y-45455000D03*
X193050000Y-44185000D03*
X193050000Y-42915000D03*
X193050000Y-41645000D03*
G04 #@! TD*
D11*
G04 #@! TO.C,SW13*
X309232000Y-34349000D03*
D12*
X304152000Y-34349000D03*
D11*
X299072000Y-34349000D03*
D40*
X300342000Y-31809000D03*
X306692000Y-29269000D03*
G04 #@! TD*
D12*
G04 #@! TO.C,SW35*
X247948500Y-157267866D03*
D11*
X253028500Y-157267866D03*
X242868500Y-157267866D03*
D40*
X244138500Y-154727866D03*
X250488500Y-152187866D03*
G04 #@! TD*
D11*
G04 #@! TO.C,SW19*
X282714000Y-73954000D03*
D12*
X277634000Y-73954000D03*
D11*
X272554000Y-73954000D03*
D40*
X273824000Y-71414000D03*
X280174000Y-68874000D03*
G04 #@! TD*
D11*
G04 #@! TO.C,SW26*
X363810000Y-80970000D03*
X353650000Y-80970000D03*
D12*
X358730000Y-80970000D03*
D40*
X354920000Y-78430000D03*
X361270000Y-75890000D03*
G04 #@! TD*
D11*
G04 #@! TO.C,SW28*
X130880499Y-141471001D03*
D12*
X125800499Y-141471001D03*
D11*
X120720499Y-141471001D03*
D40*
X121990499Y-138931001D03*
X128340499Y-136391001D03*
G04 #@! TD*
D11*
G04 #@! TO.C,SW32*
X242868500Y-126082866D03*
X253028500Y-126082866D03*
D12*
X247948500Y-126082866D03*
D40*
X244138500Y-123542866D03*
X250488500Y-121002866D03*
G04 #@! TD*
D11*
G04 #@! TO.C,SW22*
X299072000Y-61959000D03*
X309232000Y-61959000D03*
D12*
X304152000Y-61959000D03*
D40*
X300342000Y-59419000D03*
X306692000Y-56879000D03*
G04 #@! TD*
D12*
G04 #@! TO.C,SW34*
X270635500Y-110312866D03*
D11*
X275715500Y-110312866D03*
X265555500Y-110312866D03*
D40*
X266825500Y-107772866D03*
X273175500Y-105232866D03*
G04 #@! TD*
D11*
G04 #@! TO.C,SW16*
X337587000Y-37324000D03*
X327427000Y-37324000D03*
D12*
X332507000Y-37324000D03*
D40*
X328697000Y-34784000D03*
X335047000Y-32244000D03*
G04 #@! TD*
D11*
G04 #@! TO.C,SW38*
X265555500Y-141497866D03*
X275715500Y-141497866D03*
D12*
X270635500Y-141497866D03*
D40*
X266825500Y-138957866D03*
X273175500Y-136417866D03*
G04 #@! TD*
D11*
G04 #@! TO.C,SW3*
X33562000Y-81576000D03*
X43722000Y-81576000D03*
D12*
X38642000Y-81576000D03*
D40*
X34832000Y-79036000D03*
X41182000Y-76496000D03*
G04 #@! TD*
D11*
G04 #@! TO.C,SW5*
X69002000Y-65273000D03*
X58842000Y-65273000D03*
D12*
X63922000Y-65273000D03*
D40*
X60112000Y-62733000D03*
X66462000Y-60193000D03*
G04 #@! TD*
D11*
G04 #@! TO.C,SW29*
X153568499Y-157240001D03*
X143408499Y-157240001D03*
D12*
X148488499Y-157240001D03*
D40*
X144678499Y-154700001D03*
X151028499Y-152160001D03*
G04 #@! TD*
D12*
G04 #@! TO.C,SW7*
X92278000Y-62547000D03*
D11*
X97358000Y-62547000D03*
X87198000Y-62547000D03*
D40*
X88468000Y-60007000D03*
X94818000Y-57467000D03*
G04 #@! TD*
D11*
G04 #@! TO.C,SW11*
X282714000Y-46345000D03*
X272554000Y-46345000D03*
D12*
X277634000Y-46345000D03*
D40*
X273824000Y-43805000D03*
X280174000Y-41265000D03*
G04 #@! TD*
D11*
G04 #@! TO.C,SW17*
X363810000Y-53360000D03*
D12*
X358730000Y-53360000D03*
D11*
X353650000Y-53360000D03*
D40*
X354920000Y-50820000D03*
X361270000Y-48280000D03*
G04 #@! TD*
D11*
G04 #@! TO.C,SW39*
X288212500Y-126082866D03*
D12*
X293292500Y-126082866D03*
D11*
X298372500Y-126082866D03*
D40*
X289482500Y-123542866D03*
X295832500Y-121002866D03*
G04 #@! TD*
D12*
G04 #@! TO.C,SW23*
X332507000Y-64934000D03*
D11*
X327427000Y-64934000D03*
X337587000Y-64934000D03*
D40*
X328697000Y-62394000D03*
X335047000Y-59854000D03*
G04 #@! TD*
D11*
G04 #@! TO.C,SW10*
X113770000Y-74310000D03*
D12*
X118850000Y-74310000D03*
D11*
X123930000Y-74310000D03*
D40*
X115040000Y-71770000D03*
X121390000Y-69230000D03*
G04 #@! TD*
D12*
G04 #@! TO.C,SW1*
X198578500Y-94326866D03*
D11*
X203658500Y-94326866D03*
X193498500Y-94326866D03*
D40*
X194768500Y-91786866D03*
X201118500Y-89246866D03*
G04 #@! TD*
M02*
