G04 #@! TF.GenerationSoftware,KiCad,Pcbnew,(6.0.7)*
G04 #@! TF.CreationDate,2023-01-12T02:14:33-06:00*
G04 #@! TF.ProjectId,OpenRectangle,4f70656e-5265-4637-9461-6e676c652e6b,rev?*
G04 #@! TF.SameCoordinates,Original*
G04 #@! TF.FileFunction,Legend,Bot*
G04 #@! TF.FilePolarity,Positive*
%FSLAX46Y46*%
G04 Gerber Fmt 4.6, Leading zero omitted, Abs format (unit mm)*
G04 Created by KiCad (PCBNEW (6.0.7)) date 2023-01-12 02:14:33*
%MOMM*%
%LPD*%
G01*
G04 APERTURE LIST*
%ADD10C,0.150000*%
G04 APERTURE END LIST*
D10*
G04 #@! TO.C,SW2*
X309735333Y-33003761D02*
X309592476Y-33051380D01*
X309354380Y-33051380D01*
X309259142Y-33003761D01*
X309211523Y-32956142D01*
X309163904Y-32860904D01*
X309163904Y-32765666D01*
X309211523Y-32670428D01*
X309259142Y-32622809D01*
X309354380Y-32575190D01*
X309544857Y-32527571D01*
X309640095Y-32479952D01*
X309687714Y-32432333D01*
X309735333Y-32337095D01*
X309735333Y-32241857D01*
X309687714Y-32146619D01*
X309640095Y-32099000D01*
X309544857Y-32051380D01*
X309306761Y-32051380D01*
X309163904Y-32099000D01*
X308830571Y-32051380D02*
X308592476Y-33051380D01*
X308402000Y-32337095D01*
X308211523Y-33051380D01*
X307973428Y-32051380D01*
X307640095Y-32146619D02*
X307592476Y-32099000D01*
X307497238Y-32051380D01*
X307259142Y-32051380D01*
X307163904Y-32099000D01*
X307116285Y-32146619D01*
X307068666Y-32241857D01*
X307068666Y-32337095D01*
X307116285Y-32479952D01*
X307687714Y-33051380D01*
X307068666Y-33051380D01*
G04 #@! TO.C,SW18*
X254008023Y-155922627D02*
X253865166Y-155970246D01*
X253627071Y-155970246D01*
X253531833Y-155922627D01*
X253484214Y-155875008D01*
X253436595Y-155779770D01*
X253436595Y-155684532D01*
X253484214Y-155589294D01*
X253531833Y-155541675D01*
X253627071Y-155494056D01*
X253817547Y-155446437D01*
X253912785Y-155398818D01*
X253960404Y-155351199D01*
X254008023Y-155255961D01*
X254008023Y-155160723D01*
X253960404Y-155065485D01*
X253912785Y-155017866D01*
X253817547Y-154970246D01*
X253579452Y-154970246D01*
X253436595Y-155017866D01*
X253103261Y-154970246D02*
X252865166Y-155970246D01*
X252674690Y-155255961D01*
X252484214Y-155970246D01*
X252246119Y-154970246D01*
X251341357Y-155970246D02*
X251912785Y-155970246D01*
X251627071Y-155970246D02*
X251627071Y-154970246D01*
X251722309Y-155113104D01*
X251817547Y-155208342D01*
X251912785Y-155255961D01*
X250769928Y-155398818D02*
X250865166Y-155351199D01*
X250912785Y-155303580D01*
X250960404Y-155208342D01*
X250960404Y-155160723D01*
X250912785Y-155065485D01*
X250865166Y-155017866D01*
X250769928Y-154970246D01*
X250579452Y-154970246D01*
X250484214Y-155017866D01*
X250436595Y-155065485D01*
X250388976Y-155160723D01*
X250388976Y-155208342D01*
X250436595Y-155303580D01*
X250484214Y-155351199D01*
X250579452Y-155398818D01*
X250769928Y-155398818D01*
X250865166Y-155446437D01*
X250912785Y-155494056D01*
X250960404Y-155589294D01*
X250960404Y-155779770D01*
X250912785Y-155875008D01*
X250865166Y-155922627D01*
X250769928Y-155970246D01*
X250579452Y-155970246D01*
X250484214Y-155922627D01*
X250436595Y-155875008D01*
X250388976Y-155779770D01*
X250388976Y-155589294D01*
X250436595Y-155494056D01*
X250484214Y-155446437D01*
X250579452Y-155398818D01*
G04 #@! TO.C,SW10*
X283693523Y-72608761D02*
X283550666Y-72656380D01*
X283312571Y-72656380D01*
X283217333Y-72608761D01*
X283169714Y-72561142D01*
X283122095Y-72465904D01*
X283122095Y-72370666D01*
X283169714Y-72275428D01*
X283217333Y-72227809D01*
X283312571Y-72180190D01*
X283503047Y-72132571D01*
X283598285Y-72084952D01*
X283645904Y-72037333D01*
X283693523Y-71942095D01*
X283693523Y-71846857D01*
X283645904Y-71751619D01*
X283598285Y-71704000D01*
X283503047Y-71656380D01*
X283264952Y-71656380D01*
X283122095Y-71704000D01*
X282788761Y-71656380D02*
X282550666Y-72656380D01*
X282360190Y-71942095D01*
X282169714Y-72656380D01*
X281931619Y-71656380D01*
X281026857Y-72656380D02*
X281598285Y-72656380D01*
X281312571Y-72656380D02*
X281312571Y-71656380D01*
X281407809Y-71799238D01*
X281503047Y-71894476D01*
X281598285Y-71942095D01*
X280407809Y-71656380D02*
X280312571Y-71656380D01*
X280217333Y-71704000D01*
X280169714Y-71751619D01*
X280122095Y-71846857D01*
X280074476Y-72037333D01*
X280074476Y-72275428D01*
X280122095Y-72465904D01*
X280169714Y-72561142D01*
X280217333Y-72608761D01*
X280312571Y-72656380D01*
X280407809Y-72656380D01*
X280503047Y-72608761D01*
X280550666Y-72561142D01*
X280598285Y-72465904D01*
X280645904Y-72275428D01*
X280645904Y-72037333D01*
X280598285Y-71846857D01*
X280550666Y-71751619D01*
X280503047Y-71704000D01*
X280407809Y-71656380D01*
G04 #@! TO.C,SW13*
X364789523Y-79624761D02*
X364646666Y-79672380D01*
X364408571Y-79672380D01*
X364313333Y-79624761D01*
X364265714Y-79577142D01*
X364218095Y-79481904D01*
X364218095Y-79386666D01*
X364265714Y-79291428D01*
X364313333Y-79243809D01*
X364408571Y-79196190D01*
X364599047Y-79148571D01*
X364694285Y-79100952D01*
X364741904Y-79053333D01*
X364789523Y-78958095D01*
X364789523Y-78862857D01*
X364741904Y-78767619D01*
X364694285Y-78720000D01*
X364599047Y-78672380D01*
X364360952Y-78672380D01*
X364218095Y-78720000D01*
X363884761Y-78672380D02*
X363646666Y-79672380D01*
X363456190Y-78958095D01*
X363265714Y-79672380D01*
X363027619Y-78672380D01*
X362122857Y-79672380D02*
X362694285Y-79672380D01*
X362408571Y-79672380D02*
X362408571Y-78672380D01*
X362503809Y-78815238D01*
X362599047Y-78910476D01*
X362694285Y-78958095D01*
X361789523Y-78672380D02*
X361170476Y-78672380D01*
X361503809Y-79053333D01*
X361360952Y-79053333D01*
X361265714Y-79100952D01*
X361218095Y-79148571D01*
X361170476Y-79243809D01*
X361170476Y-79481904D01*
X361218095Y-79577142D01*
X361265714Y-79624761D01*
X361360952Y-79672380D01*
X361646666Y-79672380D01*
X361741904Y-79624761D01*
X361789523Y-79577142D01*
G04 #@! TO.C,SW14*
X131860022Y-140125762D02*
X131717165Y-140173381D01*
X131479070Y-140173381D01*
X131383832Y-140125762D01*
X131336213Y-140078143D01*
X131288594Y-139982905D01*
X131288594Y-139887667D01*
X131336213Y-139792429D01*
X131383832Y-139744810D01*
X131479070Y-139697191D01*
X131669546Y-139649572D01*
X131764784Y-139601953D01*
X131812403Y-139554334D01*
X131860022Y-139459096D01*
X131860022Y-139363858D01*
X131812403Y-139268620D01*
X131764784Y-139221001D01*
X131669546Y-139173381D01*
X131431451Y-139173381D01*
X131288594Y-139221001D01*
X130955260Y-139173381D02*
X130717165Y-140173381D01*
X130526689Y-139459096D01*
X130336213Y-140173381D01*
X130098118Y-139173381D01*
X129193356Y-140173381D02*
X129764784Y-140173381D01*
X129479070Y-140173381D02*
X129479070Y-139173381D01*
X129574308Y-139316239D01*
X129669546Y-139411477D01*
X129764784Y-139459096D01*
X128336213Y-139506715D02*
X128336213Y-140173381D01*
X128574308Y-139125762D02*
X128812403Y-139840048D01*
X128193356Y-139840048D01*
G04 #@! TO.C,SW16*
X254008023Y-124737627D02*
X253865166Y-124785246D01*
X253627071Y-124785246D01*
X253531833Y-124737627D01*
X253484214Y-124690008D01*
X253436595Y-124594770D01*
X253436595Y-124499532D01*
X253484214Y-124404294D01*
X253531833Y-124356675D01*
X253627071Y-124309056D01*
X253817547Y-124261437D01*
X253912785Y-124213818D01*
X253960404Y-124166199D01*
X254008023Y-124070961D01*
X254008023Y-123975723D01*
X253960404Y-123880485D01*
X253912785Y-123832866D01*
X253817547Y-123785246D01*
X253579452Y-123785246D01*
X253436595Y-123832866D01*
X253103261Y-123785246D02*
X252865166Y-124785246D01*
X252674690Y-124070961D01*
X252484214Y-124785246D01*
X252246119Y-123785246D01*
X251341357Y-124785246D02*
X251912785Y-124785246D01*
X251627071Y-124785246D02*
X251627071Y-123785246D01*
X251722309Y-123928104D01*
X251817547Y-124023342D01*
X251912785Y-124070961D01*
X250484214Y-123785246D02*
X250674690Y-123785246D01*
X250769928Y-123832866D01*
X250817547Y-123880485D01*
X250912785Y-124023342D01*
X250960404Y-124213818D01*
X250960404Y-124594770D01*
X250912785Y-124690008D01*
X250865166Y-124737627D01*
X250769928Y-124785246D01*
X250579452Y-124785246D01*
X250484214Y-124737627D01*
X250436595Y-124690008D01*
X250388976Y-124594770D01*
X250388976Y-124356675D01*
X250436595Y-124261437D01*
X250484214Y-124213818D01*
X250579452Y-124166199D01*
X250769928Y-124166199D01*
X250865166Y-124213818D01*
X250912785Y-124261437D01*
X250960404Y-124356675D01*
G04 #@! TO.C,SW11*
X310211523Y-60613761D02*
X310068666Y-60661380D01*
X309830571Y-60661380D01*
X309735333Y-60613761D01*
X309687714Y-60566142D01*
X309640095Y-60470904D01*
X309640095Y-60375666D01*
X309687714Y-60280428D01*
X309735333Y-60232809D01*
X309830571Y-60185190D01*
X310021047Y-60137571D01*
X310116285Y-60089952D01*
X310163904Y-60042333D01*
X310211523Y-59947095D01*
X310211523Y-59851857D01*
X310163904Y-59756619D01*
X310116285Y-59709000D01*
X310021047Y-59661380D01*
X309782952Y-59661380D01*
X309640095Y-59709000D01*
X309306761Y-59661380D02*
X309068666Y-60661380D01*
X308878190Y-59947095D01*
X308687714Y-60661380D01*
X308449619Y-59661380D01*
X307544857Y-60661380D02*
X308116285Y-60661380D01*
X307830571Y-60661380D02*
X307830571Y-59661380D01*
X307925809Y-59804238D01*
X308021047Y-59899476D01*
X308116285Y-59947095D01*
X306592476Y-60661380D02*
X307163904Y-60661380D01*
X306878190Y-60661380D02*
X306878190Y-59661380D01*
X306973428Y-59804238D01*
X307068666Y-59899476D01*
X307163904Y-59947095D01*
G04 #@! TO.C,SW17*
X276695023Y-108967627D02*
X276552166Y-109015246D01*
X276314071Y-109015246D01*
X276218833Y-108967627D01*
X276171214Y-108920008D01*
X276123595Y-108824770D01*
X276123595Y-108729532D01*
X276171214Y-108634294D01*
X276218833Y-108586675D01*
X276314071Y-108539056D01*
X276504547Y-108491437D01*
X276599785Y-108443818D01*
X276647404Y-108396199D01*
X276695023Y-108300961D01*
X276695023Y-108205723D01*
X276647404Y-108110485D01*
X276599785Y-108062866D01*
X276504547Y-108015246D01*
X276266452Y-108015246D01*
X276123595Y-108062866D01*
X275790261Y-108015246D02*
X275552166Y-109015246D01*
X275361690Y-108300961D01*
X275171214Y-109015246D01*
X274933119Y-108015246D01*
X274028357Y-109015246D02*
X274599785Y-109015246D01*
X274314071Y-109015246D02*
X274314071Y-108015246D01*
X274409309Y-108158104D01*
X274504547Y-108253342D01*
X274599785Y-108300961D01*
X273695023Y-108015246D02*
X273028357Y-108015246D01*
X273456928Y-109015246D01*
G04 #@! TO.C,SW3*
X338090333Y-35978761D02*
X337947476Y-36026380D01*
X337709380Y-36026380D01*
X337614142Y-35978761D01*
X337566523Y-35931142D01*
X337518904Y-35835904D01*
X337518904Y-35740666D01*
X337566523Y-35645428D01*
X337614142Y-35597809D01*
X337709380Y-35550190D01*
X337899857Y-35502571D01*
X337995095Y-35454952D01*
X338042714Y-35407333D01*
X338090333Y-35312095D01*
X338090333Y-35216857D01*
X338042714Y-35121619D01*
X337995095Y-35074000D01*
X337899857Y-35026380D01*
X337661761Y-35026380D01*
X337518904Y-35074000D01*
X337185571Y-35026380D02*
X336947476Y-36026380D01*
X336757000Y-35312095D01*
X336566523Y-36026380D01*
X336328428Y-35026380D01*
X336042714Y-35026380D02*
X335423666Y-35026380D01*
X335757000Y-35407333D01*
X335614142Y-35407333D01*
X335518904Y-35454952D01*
X335471285Y-35502571D01*
X335423666Y-35597809D01*
X335423666Y-35835904D01*
X335471285Y-35931142D01*
X335518904Y-35978761D01*
X335614142Y-36026380D01*
X335899857Y-36026380D01*
X335995095Y-35978761D01*
X336042714Y-35931142D01*
G04 #@! TO.C,SW19*
X276695023Y-140152627D02*
X276552166Y-140200246D01*
X276314071Y-140200246D01*
X276218833Y-140152627D01*
X276171214Y-140105008D01*
X276123595Y-140009770D01*
X276123595Y-139914532D01*
X276171214Y-139819294D01*
X276218833Y-139771675D01*
X276314071Y-139724056D01*
X276504547Y-139676437D01*
X276599785Y-139628818D01*
X276647404Y-139581199D01*
X276695023Y-139485961D01*
X276695023Y-139390723D01*
X276647404Y-139295485D01*
X276599785Y-139247866D01*
X276504547Y-139200246D01*
X276266452Y-139200246D01*
X276123595Y-139247866D01*
X275790261Y-139200246D02*
X275552166Y-140200246D01*
X275361690Y-139485961D01*
X275171214Y-140200246D01*
X274933119Y-139200246D01*
X274028357Y-140200246D02*
X274599785Y-140200246D01*
X274314071Y-140200246D02*
X274314071Y-139200246D01*
X274409309Y-139343104D01*
X274504547Y-139438342D01*
X274599785Y-139485961D01*
X273552166Y-140200246D02*
X273361690Y-140200246D01*
X273266452Y-140152627D01*
X273218833Y-140105008D01*
X273123595Y-139962151D01*
X273075976Y-139771675D01*
X273075976Y-139390723D01*
X273123595Y-139295485D01*
X273171214Y-139247866D01*
X273266452Y-139200246D01*
X273456928Y-139200246D01*
X273552166Y-139247866D01*
X273599785Y-139295485D01*
X273647404Y-139390723D01*
X273647404Y-139628818D01*
X273599785Y-139724056D01*
X273552166Y-139771675D01*
X273456928Y-139819294D01*
X273266452Y-139819294D01*
X273171214Y-139771675D01*
X273123595Y-139724056D01*
X273075976Y-139628818D01*
G04 #@! TO.C,SW6*
X44225333Y-80230761D02*
X44082476Y-80278380D01*
X43844380Y-80278380D01*
X43749142Y-80230761D01*
X43701523Y-80183142D01*
X43653904Y-80087904D01*
X43653904Y-79992666D01*
X43701523Y-79897428D01*
X43749142Y-79849809D01*
X43844380Y-79802190D01*
X44034857Y-79754571D01*
X44130095Y-79706952D01*
X44177714Y-79659333D01*
X44225333Y-79564095D01*
X44225333Y-79468857D01*
X44177714Y-79373619D01*
X44130095Y-79326000D01*
X44034857Y-79278380D01*
X43796761Y-79278380D01*
X43653904Y-79326000D01*
X43320571Y-79278380D02*
X43082476Y-80278380D01*
X42892000Y-79564095D01*
X42701523Y-80278380D01*
X42463428Y-79278380D01*
X41653904Y-79278380D02*
X41844380Y-79278380D01*
X41939619Y-79326000D01*
X41987238Y-79373619D01*
X42082476Y-79516476D01*
X42130095Y-79706952D01*
X42130095Y-80087904D01*
X42082476Y-80183142D01*
X42034857Y-80230761D01*
X41939619Y-80278380D01*
X41749142Y-80278380D01*
X41653904Y-80230761D01*
X41606285Y-80183142D01*
X41558666Y-80087904D01*
X41558666Y-79849809D01*
X41606285Y-79754571D01*
X41653904Y-79706952D01*
X41749142Y-79659333D01*
X41939619Y-79659333D01*
X42034857Y-79706952D01*
X42082476Y-79754571D01*
X42130095Y-79849809D01*
G04 #@! TO.C,SW7*
X69505333Y-63927761D02*
X69362476Y-63975380D01*
X69124380Y-63975380D01*
X69029142Y-63927761D01*
X68981523Y-63880142D01*
X68933904Y-63784904D01*
X68933904Y-63689666D01*
X68981523Y-63594428D01*
X69029142Y-63546809D01*
X69124380Y-63499190D01*
X69314857Y-63451571D01*
X69410095Y-63403952D01*
X69457714Y-63356333D01*
X69505333Y-63261095D01*
X69505333Y-63165857D01*
X69457714Y-63070619D01*
X69410095Y-63023000D01*
X69314857Y-62975380D01*
X69076761Y-62975380D01*
X68933904Y-63023000D01*
X68600571Y-62975380D02*
X68362476Y-63975380D01*
X68172000Y-63261095D01*
X67981523Y-63975380D01*
X67743428Y-62975380D01*
X67457714Y-62975380D02*
X66791047Y-62975380D01*
X67219619Y-63975380D01*
G04 #@! TO.C,SW15*
X154548022Y-155894762D02*
X154405165Y-155942381D01*
X154167070Y-155942381D01*
X154071832Y-155894762D01*
X154024213Y-155847143D01*
X153976594Y-155751905D01*
X153976594Y-155656667D01*
X154024213Y-155561429D01*
X154071832Y-155513810D01*
X154167070Y-155466191D01*
X154357546Y-155418572D01*
X154452784Y-155370953D01*
X154500403Y-155323334D01*
X154548022Y-155228096D01*
X154548022Y-155132858D01*
X154500403Y-155037620D01*
X154452784Y-154990001D01*
X154357546Y-154942381D01*
X154119451Y-154942381D01*
X153976594Y-154990001D01*
X153643260Y-154942381D02*
X153405165Y-155942381D01*
X153214689Y-155228096D01*
X153024213Y-155942381D01*
X152786118Y-154942381D01*
X151881356Y-155942381D02*
X152452784Y-155942381D01*
X152167070Y-155942381D02*
X152167070Y-154942381D01*
X152262308Y-155085239D01*
X152357546Y-155180477D01*
X152452784Y-155228096D01*
X150976594Y-154942381D02*
X151452784Y-154942381D01*
X151500403Y-155418572D01*
X151452784Y-155370953D01*
X151357546Y-155323334D01*
X151119451Y-155323334D01*
X151024213Y-155370953D01*
X150976594Y-155418572D01*
X150928975Y-155513810D01*
X150928975Y-155751905D01*
X150976594Y-155847143D01*
X151024213Y-155894762D01*
X151119451Y-155942381D01*
X151357546Y-155942381D01*
X151452784Y-155894762D01*
X151500403Y-155847143D01*
G04 #@! TO.C,SW8*
X97861333Y-61201761D02*
X97718476Y-61249380D01*
X97480380Y-61249380D01*
X97385142Y-61201761D01*
X97337523Y-61154142D01*
X97289904Y-61058904D01*
X97289904Y-60963666D01*
X97337523Y-60868428D01*
X97385142Y-60820809D01*
X97480380Y-60773190D01*
X97670857Y-60725571D01*
X97766095Y-60677952D01*
X97813714Y-60630333D01*
X97861333Y-60535095D01*
X97861333Y-60439857D01*
X97813714Y-60344619D01*
X97766095Y-60297000D01*
X97670857Y-60249380D01*
X97432761Y-60249380D01*
X97289904Y-60297000D01*
X96956571Y-60249380D02*
X96718476Y-61249380D01*
X96528000Y-60535095D01*
X96337523Y-61249380D01*
X96099428Y-60249380D01*
X95575619Y-60677952D02*
X95670857Y-60630333D01*
X95718476Y-60582714D01*
X95766095Y-60487476D01*
X95766095Y-60439857D01*
X95718476Y-60344619D01*
X95670857Y-60297000D01*
X95575619Y-60249380D01*
X95385142Y-60249380D01*
X95289904Y-60297000D01*
X95242285Y-60344619D01*
X95194666Y-60439857D01*
X95194666Y-60487476D01*
X95242285Y-60582714D01*
X95289904Y-60630333D01*
X95385142Y-60677952D01*
X95575619Y-60677952D01*
X95670857Y-60725571D01*
X95718476Y-60773190D01*
X95766095Y-60868428D01*
X95766095Y-61058904D01*
X95718476Y-61154142D01*
X95670857Y-61201761D01*
X95575619Y-61249380D01*
X95385142Y-61249380D01*
X95289904Y-61201761D01*
X95242285Y-61154142D01*
X95194666Y-61058904D01*
X95194666Y-60868428D01*
X95242285Y-60773190D01*
X95289904Y-60725571D01*
X95385142Y-60677952D01*
G04 #@! TO.C,SW1*
X283217333Y-44999761D02*
X283074476Y-45047380D01*
X282836380Y-45047380D01*
X282741142Y-44999761D01*
X282693523Y-44952142D01*
X282645904Y-44856904D01*
X282645904Y-44761666D01*
X282693523Y-44666428D01*
X282741142Y-44618809D01*
X282836380Y-44571190D01*
X283026857Y-44523571D01*
X283122095Y-44475952D01*
X283169714Y-44428333D01*
X283217333Y-44333095D01*
X283217333Y-44237857D01*
X283169714Y-44142619D01*
X283122095Y-44095000D01*
X283026857Y-44047380D01*
X282788761Y-44047380D01*
X282645904Y-44095000D01*
X282312571Y-44047380D02*
X282074476Y-45047380D01*
X281884000Y-44333095D01*
X281693523Y-45047380D01*
X281455428Y-44047380D01*
X280550666Y-45047380D02*
X281122095Y-45047380D01*
X280836380Y-45047380D02*
X280836380Y-44047380D01*
X280931619Y-44190238D01*
X281026857Y-44285476D01*
X281122095Y-44333095D01*
G04 #@! TO.C,SW4*
X364313333Y-52014761D02*
X364170476Y-52062380D01*
X363932380Y-52062380D01*
X363837142Y-52014761D01*
X363789523Y-51967142D01*
X363741904Y-51871904D01*
X363741904Y-51776666D01*
X363789523Y-51681428D01*
X363837142Y-51633809D01*
X363932380Y-51586190D01*
X364122857Y-51538571D01*
X364218095Y-51490952D01*
X364265714Y-51443333D01*
X364313333Y-51348095D01*
X364313333Y-51252857D01*
X364265714Y-51157619D01*
X364218095Y-51110000D01*
X364122857Y-51062380D01*
X363884761Y-51062380D01*
X363741904Y-51110000D01*
X363408571Y-51062380D02*
X363170476Y-52062380D01*
X362980000Y-51348095D01*
X362789523Y-52062380D01*
X362551428Y-51062380D01*
X361741904Y-51395714D02*
X361741904Y-52062380D01*
X361980000Y-51014761D02*
X362218095Y-51729047D01*
X361599047Y-51729047D01*
G04 #@! TO.C,SW20*
X299352023Y-124737627D02*
X299209166Y-124785246D01*
X298971071Y-124785246D01*
X298875833Y-124737627D01*
X298828214Y-124690008D01*
X298780595Y-124594770D01*
X298780595Y-124499532D01*
X298828214Y-124404294D01*
X298875833Y-124356675D01*
X298971071Y-124309056D01*
X299161547Y-124261437D01*
X299256785Y-124213818D01*
X299304404Y-124166199D01*
X299352023Y-124070961D01*
X299352023Y-123975723D01*
X299304404Y-123880485D01*
X299256785Y-123832866D01*
X299161547Y-123785246D01*
X298923452Y-123785246D01*
X298780595Y-123832866D01*
X298447261Y-123785246D02*
X298209166Y-124785246D01*
X298018690Y-124070961D01*
X297828214Y-124785246D01*
X297590119Y-123785246D01*
X297256785Y-123880485D02*
X297209166Y-123832866D01*
X297113928Y-123785246D01*
X296875833Y-123785246D01*
X296780595Y-123832866D01*
X296732976Y-123880485D01*
X296685357Y-123975723D01*
X296685357Y-124070961D01*
X296732976Y-124213818D01*
X297304404Y-124785246D01*
X296685357Y-124785246D01*
X296066309Y-123785246D02*
X295971071Y-123785246D01*
X295875833Y-123832866D01*
X295828214Y-123880485D01*
X295780595Y-123975723D01*
X295732976Y-124166199D01*
X295732976Y-124404294D01*
X295780595Y-124594770D01*
X295828214Y-124690008D01*
X295875833Y-124737627D01*
X295971071Y-124785246D01*
X296066309Y-124785246D01*
X296161547Y-124737627D01*
X296209166Y-124690008D01*
X296256785Y-124594770D01*
X296304404Y-124404294D01*
X296304404Y-124166199D01*
X296256785Y-123975723D01*
X296209166Y-123880485D01*
X296161547Y-123832866D01*
X296066309Y-123785246D01*
G04 #@! TO.C,SW12*
X338566523Y-63588761D02*
X338423666Y-63636380D01*
X338185571Y-63636380D01*
X338090333Y-63588761D01*
X338042714Y-63541142D01*
X337995095Y-63445904D01*
X337995095Y-63350666D01*
X338042714Y-63255428D01*
X338090333Y-63207809D01*
X338185571Y-63160190D01*
X338376047Y-63112571D01*
X338471285Y-63064952D01*
X338518904Y-63017333D01*
X338566523Y-62922095D01*
X338566523Y-62826857D01*
X338518904Y-62731619D01*
X338471285Y-62684000D01*
X338376047Y-62636380D01*
X338137952Y-62636380D01*
X337995095Y-62684000D01*
X337661761Y-62636380D02*
X337423666Y-63636380D01*
X337233190Y-62922095D01*
X337042714Y-63636380D01*
X336804619Y-62636380D01*
X335899857Y-63636380D02*
X336471285Y-63636380D01*
X336185571Y-63636380D02*
X336185571Y-62636380D01*
X336280809Y-62779238D01*
X336376047Y-62874476D01*
X336471285Y-62922095D01*
X335518904Y-62731619D02*
X335471285Y-62684000D01*
X335376047Y-62636380D01*
X335137952Y-62636380D01*
X335042714Y-62684000D01*
X334995095Y-62731619D01*
X334947476Y-62826857D01*
X334947476Y-62922095D01*
X334995095Y-63064952D01*
X335566523Y-63636380D01*
X334947476Y-63636380D01*
G04 #@! TO.C,SW9*
X124433333Y-72964761D02*
X124290476Y-73012380D01*
X124052380Y-73012380D01*
X123957142Y-72964761D01*
X123909523Y-72917142D01*
X123861904Y-72821904D01*
X123861904Y-72726666D01*
X123909523Y-72631428D01*
X123957142Y-72583809D01*
X124052380Y-72536190D01*
X124242857Y-72488571D01*
X124338095Y-72440952D01*
X124385714Y-72393333D01*
X124433333Y-72298095D01*
X124433333Y-72202857D01*
X124385714Y-72107619D01*
X124338095Y-72060000D01*
X124242857Y-72012380D01*
X124004761Y-72012380D01*
X123861904Y-72060000D01*
X123528571Y-72012380D02*
X123290476Y-73012380D01*
X123100000Y-72298095D01*
X122909523Y-73012380D01*
X122671428Y-72012380D01*
X122242857Y-73012380D02*
X122052380Y-73012380D01*
X121957142Y-72964761D01*
X121909523Y-72917142D01*
X121814285Y-72774285D01*
X121766666Y-72583809D01*
X121766666Y-72202857D01*
X121814285Y-72107619D01*
X121861904Y-72060000D01*
X121957142Y-72012380D01*
X122147619Y-72012380D01*
X122242857Y-72060000D01*
X122290476Y-72107619D01*
X122338095Y-72202857D01*
X122338095Y-72440952D01*
X122290476Y-72536190D01*
X122242857Y-72583809D01*
X122147619Y-72631428D01*
X121957142Y-72631428D01*
X121861904Y-72583809D01*
X121814285Y-72536190D01*
X121766666Y-72440952D01*
G04 #@! TO.C,SW5*
X204161833Y-92981627D02*
X204018976Y-93029246D01*
X203780880Y-93029246D01*
X203685642Y-92981627D01*
X203638023Y-92934008D01*
X203590404Y-92838770D01*
X203590404Y-92743532D01*
X203638023Y-92648294D01*
X203685642Y-92600675D01*
X203780880Y-92553056D01*
X203971357Y-92505437D01*
X204066595Y-92457818D01*
X204114214Y-92410199D01*
X204161833Y-92314961D01*
X204161833Y-92219723D01*
X204114214Y-92124485D01*
X204066595Y-92076866D01*
X203971357Y-92029246D01*
X203733261Y-92029246D01*
X203590404Y-92076866D01*
X203257071Y-92029246D02*
X203018976Y-93029246D01*
X202828500Y-92314961D01*
X202638023Y-93029246D01*
X202399928Y-92029246D01*
X201542785Y-92029246D02*
X202018976Y-92029246D01*
X202066595Y-92505437D01*
X202018976Y-92457818D01*
X201923738Y-92410199D01*
X201685642Y-92410199D01*
X201590404Y-92457818D01*
X201542785Y-92505437D01*
X201495166Y-92600675D01*
X201495166Y-92838770D01*
X201542785Y-92934008D01*
X201590404Y-92981627D01*
X201685642Y-93029246D01*
X201923738Y-93029246D01*
X202018976Y-92981627D01*
X202066595Y-92934008D01*
G04 #@! TO.C,SW2*
X308516824Y-31648780D02*
X303952000Y-31648780D01*
X309016824Y-27598780D02*
X309016824Y-27828780D01*
X300066824Y-27598780D02*
X305966824Y-27598780D01*
X298066824Y-30398780D02*
X298066824Y-29598780D01*
X307466824Y-27598780D02*
X309016824Y-27598780D01*
X298066824Y-33248780D02*
X298066824Y-33488780D01*
X309016824Y-30678780D02*
X309016824Y-31148780D01*
X300066824Y-27598780D02*
G75*
G03*
X298066824Y-29598780I5J-2000005D01*
G01*
X303952000Y-31648780D02*
G75*
G03*
X301657678Y-33488780I-866J-2349332D01*
G01*
X308516824Y-31648780D02*
G75*
G03*
X309016824Y-31148780I-1J500001D01*
G01*
G04 #@! TO.C,SW18*
X241863324Y-153317646D02*
X241863324Y-152517646D01*
X252813324Y-153597646D02*
X252813324Y-154067646D01*
X252813324Y-150517646D02*
X252813324Y-150747646D01*
X251263324Y-150517646D02*
X252813324Y-150517646D01*
X252313324Y-154567646D02*
X247748500Y-154567646D01*
X241863324Y-156167646D02*
X241863324Y-156407646D01*
X243863324Y-150517646D02*
X249763324Y-150517646D01*
X247748500Y-154567646D02*
G75*
G03*
X245454178Y-156407646I-866J-2349332D01*
G01*
X252313324Y-154567646D02*
G75*
G03*
X252813324Y-154067646I-1J500001D01*
G01*
X243863324Y-150517646D02*
G75*
G03*
X241863324Y-152517646I5J-2000005D01*
G01*
G04 #@! TO.C,SW10*
X271548824Y-72853780D02*
X271548824Y-73093780D01*
X271548824Y-70003780D02*
X271548824Y-69203780D01*
X280948824Y-67203780D02*
X282498824Y-67203780D01*
X282498824Y-70283780D02*
X282498824Y-70753780D01*
X281998824Y-71253780D02*
X277434000Y-71253780D01*
X273548824Y-67203780D02*
X279448824Y-67203780D01*
X282498824Y-67203780D02*
X282498824Y-67433780D01*
X277434000Y-71253780D02*
G75*
G03*
X275139678Y-73093780I-866J-2349332D01*
G01*
X281998824Y-71253780D02*
G75*
G03*
X282498824Y-70753780I-1J500001D01*
G01*
X273548824Y-67203780D02*
G75*
G03*
X271548824Y-69203780I5J-2000005D01*
G01*
G04 #@! TO.C,SW13*
X352644824Y-77019780D02*
X352644824Y-76219780D01*
X352644824Y-79869780D02*
X352644824Y-80109780D01*
X363094824Y-78269780D02*
X358530000Y-78269780D01*
X363594824Y-77299780D02*
X363594824Y-77769780D01*
X363594824Y-74219780D02*
X363594824Y-74449780D01*
X354644824Y-74219780D02*
X360544824Y-74219780D01*
X362044824Y-74219780D02*
X363594824Y-74219780D01*
X354644824Y-74219780D02*
G75*
G03*
X352644824Y-76219780I5J-2000005D01*
G01*
X363094824Y-78269780D02*
G75*
G03*
X363594824Y-77769780I-1J500001D01*
G01*
X358530000Y-78269780D02*
G75*
G03*
X356235678Y-80109780I-866J-2349332D01*
G01*
G04 #@! TO.C,SW14*
X130665323Y-134720781D02*
X130665323Y-134950781D01*
X119715323Y-137520781D02*
X119715323Y-136720781D01*
X119715323Y-140370781D02*
X119715323Y-140610781D01*
X130665323Y-137800781D02*
X130665323Y-138270781D01*
X121715323Y-134720781D02*
X127615323Y-134720781D01*
X130165323Y-138770781D02*
X125600499Y-138770781D01*
X129115323Y-134720781D02*
X130665323Y-134720781D01*
X130165323Y-138770781D02*
G75*
G03*
X130665323Y-138270781I-1J500001D01*
G01*
X125600499Y-138770781D02*
G75*
G03*
X123306177Y-140610781I-866J-2349332D01*
G01*
X121715323Y-134720781D02*
G75*
G03*
X119715323Y-136720781I5J-2000005D01*
G01*
G04 #@! TO.C,SW16*
X241863324Y-122132646D02*
X241863324Y-121332646D01*
X252313324Y-123382646D02*
X247748500Y-123382646D01*
X251263324Y-119332646D02*
X252813324Y-119332646D01*
X252813324Y-119332646D02*
X252813324Y-119562646D01*
X252813324Y-122412646D02*
X252813324Y-122882646D01*
X241863324Y-124982646D02*
X241863324Y-125222646D01*
X243863324Y-119332646D02*
X249763324Y-119332646D01*
X252313324Y-123382646D02*
G75*
G03*
X252813324Y-122882646I-1J500001D01*
G01*
X243863324Y-119332646D02*
G75*
G03*
X241863324Y-121332646I5J-2000005D01*
G01*
X247748500Y-123382646D02*
G75*
G03*
X245454178Y-125222646I-866J-2349332D01*
G01*
G04 #@! TO.C,SW11*
X300066824Y-55208780D02*
X305966824Y-55208780D01*
X307466824Y-55208780D02*
X309016824Y-55208780D01*
X309016824Y-58288780D02*
X309016824Y-58758780D01*
X298066824Y-58008780D02*
X298066824Y-57208780D01*
X308516824Y-59258780D02*
X303952000Y-59258780D01*
X309016824Y-55208780D02*
X309016824Y-55438780D01*
X298066824Y-60858780D02*
X298066824Y-61098780D01*
X300066824Y-55208780D02*
G75*
G03*
X298066824Y-57208780I5J-2000005D01*
G01*
X303952000Y-59258780D02*
G75*
G03*
X301657678Y-61098780I-866J-2349332D01*
G01*
X308516824Y-59258780D02*
G75*
G03*
X309016824Y-58758780I-1J500001D01*
G01*
G04 #@! TO.C,SW17*
X266550324Y-103562646D02*
X272450324Y-103562646D01*
X275500324Y-103562646D02*
X275500324Y-103792646D01*
X264550324Y-106362646D02*
X264550324Y-105562646D01*
X275500324Y-106642646D02*
X275500324Y-107112646D01*
X275000324Y-107612646D02*
X270435500Y-107612646D01*
X264550324Y-109212646D02*
X264550324Y-109452646D01*
X273950324Y-103562646D02*
X275500324Y-103562646D01*
X266550324Y-103562646D02*
G75*
G03*
X264550324Y-105562646I5J-2000005D01*
G01*
X270435500Y-107612646D02*
G75*
G03*
X268141178Y-109452646I-866J-2349332D01*
G01*
X275000324Y-107612646D02*
G75*
G03*
X275500324Y-107112646I-1J500001D01*
G01*
G04 #@! TO.C,SW3*
X337371824Y-33653780D02*
X337371824Y-34123780D01*
X336871824Y-34623780D02*
X332307000Y-34623780D01*
X326421824Y-33373780D02*
X326421824Y-32573780D01*
X335821824Y-30573780D02*
X337371824Y-30573780D01*
X328421824Y-30573780D02*
X334321824Y-30573780D01*
X326421824Y-36223780D02*
X326421824Y-36463780D01*
X337371824Y-30573780D02*
X337371824Y-30803780D01*
X332307000Y-34623780D02*
G75*
G03*
X330012678Y-36463780I-866J-2349332D01*
G01*
X336871824Y-34623780D02*
G75*
G03*
X337371824Y-34123780I-1J500001D01*
G01*
X328421824Y-30573780D02*
G75*
G03*
X326421824Y-32573780I5J-2000005D01*
G01*
G04 #@! TO.C,SW19*
X266550324Y-134747646D02*
X272450324Y-134747646D01*
X273950324Y-134747646D02*
X275500324Y-134747646D01*
X275500324Y-137827646D02*
X275500324Y-138297646D01*
X264550324Y-137547646D02*
X264550324Y-136747646D01*
X264550324Y-140397646D02*
X264550324Y-140637646D01*
X275000324Y-138797646D02*
X270435500Y-138797646D01*
X275500324Y-134747646D02*
X275500324Y-134977646D01*
X275000324Y-138797646D02*
G75*
G03*
X275500324Y-138297646I-1J500001D01*
G01*
X266550324Y-134747646D02*
G75*
G03*
X264550324Y-136747646I5J-2000005D01*
G01*
X270435500Y-138797646D02*
G75*
G03*
X268141178Y-140637646I-866J-2349332D01*
G01*
G04 #@! TO.C,SW6*
X43506824Y-74825780D02*
X43506824Y-75055780D01*
X32556824Y-80475780D02*
X32556824Y-80715780D01*
X43506824Y-77905780D02*
X43506824Y-78375780D01*
X43006824Y-78875780D02*
X38442000Y-78875780D01*
X34556824Y-74825780D02*
X40456824Y-74825780D01*
X32556824Y-77625780D02*
X32556824Y-76825780D01*
X41956824Y-74825780D02*
X43506824Y-74825780D01*
X34556824Y-74825780D02*
G75*
G03*
X32556824Y-76825780I5J-2000005D01*
G01*
X43006824Y-78875780D02*
G75*
G03*
X43506824Y-78375780I-1J500001D01*
G01*
X38442000Y-78875780D02*
G75*
G03*
X36147678Y-80715780I-866J-2349332D01*
G01*
G04 #@! TO.C,SW7*
X67236824Y-58522780D02*
X68786824Y-58522780D01*
X59836824Y-58522780D02*
X65736824Y-58522780D01*
X57836824Y-61322780D02*
X57836824Y-60522780D01*
X57836824Y-64172780D02*
X57836824Y-64412780D01*
X68286824Y-62572780D02*
X63722000Y-62572780D01*
X68786824Y-58522780D02*
X68786824Y-58752780D01*
X68786824Y-61602780D02*
X68786824Y-62072780D01*
X68286824Y-62572780D02*
G75*
G03*
X68786824Y-62072780I-1J500001D01*
G01*
X63722000Y-62572780D02*
G75*
G03*
X61427678Y-64412780I-866J-2349332D01*
G01*
X59836824Y-58522780D02*
G75*
G03*
X57836824Y-60522780I5J-2000005D01*
G01*
G04 #@! TO.C,SW15*
X142403323Y-153289781D02*
X142403323Y-152489781D01*
X153353323Y-153569781D02*
X153353323Y-154039781D01*
X151803323Y-150489781D02*
X153353323Y-150489781D01*
X152853323Y-154539781D02*
X148288499Y-154539781D01*
X144403323Y-150489781D02*
X150303323Y-150489781D01*
X142403323Y-156139781D02*
X142403323Y-156379781D01*
X153353323Y-150489781D02*
X153353323Y-150719781D01*
X144403323Y-150489781D02*
G75*
G03*
X142403323Y-152489781I5J-2000005D01*
G01*
X152853323Y-154539781D02*
G75*
G03*
X153353323Y-154039781I-1J500001D01*
G01*
X148288499Y-154539781D02*
G75*
G03*
X145994177Y-156379781I-866J-2349332D01*
G01*
G04 #@! TO.C,SW8*
X97142824Y-58876780D02*
X97142824Y-59346780D01*
X96642824Y-59846780D02*
X92078000Y-59846780D01*
X95592824Y-55796780D02*
X97142824Y-55796780D01*
X97142824Y-55796780D02*
X97142824Y-56026780D01*
X86192824Y-61446780D02*
X86192824Y-61686780D01*
X86192824Y-58596780D02*
X86192824Y-57796780D01*
X88192824Y-55796780D02*
X94092824Y-55796780D01*
X92078000Y-59846780D02*
G75*
G03*
X89783678Y-61686780I-866J-2349332D01*
G01*
X96642824Y-59846780D02*
G75*
G03*
X97142824Y-59346780I-1J500001D01*
G01*
X88192824Y-55796780D02*
G75*
G03*
X86192824Y-57796780I5J-2000005D01*
G01*
G04 #@! TO.C,SW1*
X282498824Y-42674780D02*
X282498824Y-43144780D01*
X282498824Y-39594780D02*
X282498824Y-39824780D01*
X271548824Y-45244780D02*
X271548824Y-45484780D01*
X273548824Y-39594780D02*
X279448824Y-39594780D01*
X271548824Y-42394780D02*
X271548824Y-41594780D01*
X281998824Y-43644780D02*
X277434000Y-43644780D01*
X280948824Y-39594780D02*
X282498824Y-39594780D01*
X281998824Y-43644780D02*
G75*
G03*
X282498824Y-43144780I-1J500001D01*
G01*
X277434000Y-43644780D02*
G75*
G03*
X275139678Y-45484780I-866J-2349332D01*
G01*
X273548824Y-39594780D02*
G75*
G03*
X271548824Y-41594780I5J-2000005D01*
G01*
G04 #@! TO.C,SW4*
X352644824Y-52259780D02*
X352644824Y-52499780D01*
X363594824Y-49689780D02*
X363594824Y-50159780D01*
X354644824Y-46609780D02*
X360544824Y-46609780D01*
X352644824Y-49409780D02*
X352644824Y-48609780D01*
X362044824Y-46609780D02*
X363594824Y-46609780D01*
X363094824Y-50659780D02*
X358530000Y-50659780D01*
X363594824Y-46609780D02*
X363594824Y-46839780D01*
X354644824Y-46609780D02*
G75*
G03*
X352644824Y-48609780I5J-2000005D01*
G01*
X358530000Y-50659780D02*
G75*
G03*
X356235678Y-52499780I-866J-2349332D01*
G01*
X363094824Y-50659780D02*
G75*
G03*
X363594824Y-50159780I-1J500001D01*
G01*
G04 #@! TO.C,SW20*
X298157324Y-122412646D02*
X298157324Y-122882646D01*
X298157324Y-119332646D02*
X298157324Y-119562646D01*
X289207324Y-119332646D02*
X295107324Y-119332646D01*
X287207324Y-122132646D02*
X287207324Y-121332646D01*
X297657324Y-123382646D02*
X293092500Y-123382646D01*
X296607324Y-119332646D02*
X298157324Y-119332646D01*
X287207324Y-124982646D02*
X287207324Y-125222646D01*
X289207324Y-119332646D02*
G75*
G03*
X287207324Y-121332646I5J-2000005D01*
G01*
X297657324Y-123382646D02*
G75*
G03*
X298157324Y-122882646I-1J500001D01*
G01*
X293092500Y-123382646D02*
G75*
G03*
X290798178Y-125222646I-866J-2349332D01*
G01*
G04 #@! TO.C,SW12*
X328421824Y-58183780D02*
X334321824Y-58183780D01*
X337371824Y-61263780D02*
X337371824Y-61733780D01*
X336871824Y-62233780D02*
X332307000Y-62233780D01*
X337371824Y-58183780D02*
X337371824Y-58413780D01*
X335821824Y-58183780D02*
X337371824Y-58183780D01*
X326421824Y-60983780D02*
X326421824Y-60183780D01*
X326421824Y-63833780D02*
X326421824Y-64073780D01*
X332307000Y-62233780D02*
G75*
G03*
X330012678Y-64073780I-866J-2349332D01*
G01*
X328421824Y-58183780D02*
G75*
G03*
X326421824Y-60183780I5J-2000005D01*
G01*
X336871824Y-62233780D02*
G75*
G03*
X337371824Y-61733780I-1J500001D01*
G01*
G04 #@! TO.C,SW9*
X112764824Y-73209780D02*
X112764824Y-73449780D01*
X123714824Y-67559780D02*
X123714824Y-67789780D01*
X123714824Y-70639780D02*
X123714824Y-71109780D01*
X112764824Y-70359780D02*
X112764824Y-69559780D01*
X123214824Y-71609780D02*
X118650000Y-71609780D01*
X122164824Y-67559780D02*
X123714824Y-67559780D01*
X114764824Y-67559780D02*
X120664824Y-67559780D01*
X114764824Y-67559780D02*
G75*
G03*
X112764824Y-69559780I5J-2000005D01*
G01*
X123214824Y-71609780D02*
G75*
G03*
X123714824Y-71109780I-1J500001D01*
G01*
X118650000Y-71609780D02*
G75*
G03*
X116355678Y-73449780I-866J-2349332D01*
G01*
G04 #@! TO.C,SW5*
X192493324Y-90376646D02*
X192493324Y-89576646D01*
X201893324Y-87576646D02*
X203443324Y-87576646D01*
X192493324Y-93226646D02*
X192493324Y-93466646D01*
X194493324Y-87576646D02*
X200393324Y-87576646D01*
X202943324Y-91626646D02*
X198378500Y-91626646D01*
X203443324Y-90656646D02*
X203443324Y-91126646D01*
X203443324Y-87576646D02*
X203443324Y-87806646D01*
X198378500Y-91626646D02*
G75*
G03*
X196084178Y-93466646I-866J-2349332D01*
G01*
X202943324Y-91626646D02*
G75*
G03*
X203443324Y-91126646I-1J500001D01*
G01*
X194493324Y-87576646D02*
G75*
G03*
X192493324Y-89576646I5J-2000005D01*
G01*
G04 #@! TD*
M02*
