G04 #@! TF.GenerationSoftware,KiCad,Pcbnew,(6.0.7)*
G04 #@! TF.CreationDate,2023-01-13T02:25:48-06:00*
G04 #@! TF.ProjectId,OpenRectangle,4f70656e-5265-4637-9461-6e676c652e6b,rev?*
G04 #@! TF.SameCoordinates,Original*
G04 #@! TF.FileFunction,Other,Comment*
%FSLAX46Y46*%
G04 Gerber Fmt 4.6, Leading zero omitted, Abs format (unit mm)*
G04 Created by KiCad (PCBNEW (6.0.7)) date 2023-01-13 02:25:48*
%MOMM*%
%LPD*%
G01*
G04 APERTURE LIST*
%ADD10C,0.100000*%
%ADD11C,0.150000*%
%ADD12C,0.030000*%
%ADD13C,0.070000*%
G04 APERTURE END LIST*
D10*
X325513500Y-44322866D02*
X339513500Y-44322866D01*
X118673500Y-41928866D02*
G75*
G03*
X118673500Y-41928866I-3500000J0D01*
G01*
X176923500Y-51928866D02*
G75*
G03*
X176923500Y-51928866I-7750000J0D01*
G01*
X240938500Y-133062866D02*
X254938500Y-133062866D01*
X173996134Y-123745862D02*
G75*
G03*
X173996134Y-123745862I-1500000J0D01*
G01*
X341673534Y-140428866D02*
G75*
G03*
X333673503Y-132428866I-8000034J-34D01*
G01*
X140396446Y-168739635D02*
X135475773Y-163818962D01*
X132805500Y-148477866D02*
X132805500Y-134477866D01*
X88702964Y-74878792D02*
X87173499Y-73928865D01*
X115908718Y-150308906D02*
X106304608Y-141928866D01*
X191578500Y-67326866D02*
X191578500Y-81326866D01*
X270640500Y-39343866D02*
X270640500Y-53343866D01*
X50173498Y-76928865D02*
X50173498Y-85928865D01*
X367667800Y-29778324D02*
X367713776Y-47912903D01*
X339513500Y-71932866D02*
X339513500Y-57932866D01*
X106304608Y-141928866D02*
X106304608Y-74878792D01*
X221173501Y-115928866D02*
X221173501Y-86928865D01*
X277625500Y-117292866D02*
X277625500Y-103292866D01*
X191173500Y-86928865D02*
X191173500Y-115928866D01*
X365736500Y-73968866D02*
X351736500Y-73968866D01*
X70918500Y-72289866D02*
X70918500Y-58289866D01*
X325513500Y-57932866D02*
X325513500Y-71932866D01*
X322923534Y-150928866D02*
G75*
G03*
X326173500Y-154178866I3249966J-34D01*
G01*
X225290238Y-38224765D02*
G75*
G03*
X225290238Y-38224765I-1500000J0D01*
G01*
X330923500Y-132428900D02*
G75*
G03*
X322923500Y-140428866I0J-8000000D01*
G01*
X240938500Y-164247866D02*
X254938500Y-164247866D01*
X191578500Y-81326866D02*
X205578500Y-81326866D01*
X270640500Y-53343866D02*
X284640500Y-53343866D01*
X141493500Y-164246866D02*
X155493500Y-164246866D01*
X33173498Y-112928865D02*
X28173498Y-107928865D01*
X240938500Y-119062866D02*
X240938500Y-133062866D01*
X205578500Y-67326866D02*
X191578500Y-67326866D01*
X263625500Y-103292866D02*
X263625500Y-117292866D01*
D11*
X190860000Y-88285000D02*
X190860000Y-108315000D01*
D10*
X76104764Y-74878792D02*
X71173499Y-76928865D01*
X284640500Y-80952866D02*
X284640500Y-66952866D01*
X286282500Y-133062866D02*
X300282500Y-133062866D01*
X364020105Y-168739635D02*
X140396446Y-168739635D01*
X28173498Y-63718031D02*
X74218180Y-24528329D01*
X28173500Y-78204101D02*
G75*
G03*
X28173498Y-84981632I10465000J-3388769D01*
G01*
X333673503Y-154178903D02*
G75*
G03*
X341673503Y-146178866I-3J8000003D01*
G01*
X367741305Y-58759258D02*
G75*
G03*
X367713776Y-47912903I-9004805J5400358D01*
G01*
X270640500Y-66952866D02*
X270640500Y-80952866D01*
X118805500Y-148477866D02*
X132805500Y-148477866D01*
X191173500Y-115928866D02*
X221173501Y-115928866D01*
X49173498Y-92121746D02*
X49173498Y-107928865D01*
X311158500Y-68957866D02*
X311158500Y-54957866D01*
X111846500Y-67326866D02*
X111846500Y-81326866D01*
X189673500Y-152928866D02*
G75*
G03*
X189673500Y-152928866I-3500000J0D01*
G01*
X311158500Y-41347866D02*
X311158500Y-27347866D01*
X81438656Y-35609145D02*
G75*
G03*
X81438656Y-35609145I-1500000J0D01*
G01*
X85274500Y-55563866D02*
X85274500Y-69563866D01*
X28173498Y-107928865D02*
X28173498Y-84981632D01*
X99274500Y-69563866D02*
X99274500Y-55563866D01*
X297158500Y-68957866D02*
X311158500Y-68957866D01*
X44173498Y-112928865D02*
X33173498Y-112928865D01*
X135475773Y-163818962D02*
X122673499Y-152428866D01*
X237673500Y-63928866D02*
G75*
G03*
X237673500Y-63928866I-3500000J0D01*
G01*
X341673503Y-146178866D02*
X341673503Y-140428866D01*
X263625500Y-117292866D02*
X277625500Y-117292866D01*
X307708268Y-23936375D02*
X361688997Y-23799520D01*
X40051918Y-101092807D02*
G75*
G03*
X40051918Y-101092807I-1500000J0D01*
G01*
X237423500Y-118928866D02*
G75*
G03*
X237423500Y-118928866I-5250000J0D01*
G01*
X365736500Y-46358866D02*
X351736500Y-46358866D01*
X263625500Y-134477866D02*
X263625500Y-148477866D01*
X205578500Y-81326866D02*
X205578500Y-67326866D01*
X351736500Y-73968866D02*
X351736500Y-87968866D01*
X351736500Y-60358866D02*
X365736500Y-60358866D01*
X191578500Y-81326866D02*
X205578500Y-81326866D01*
X71173499Y-76928865D02*
X50173498Y-76928865D01*
X155493500Y-150246866D02*
X141493500Y-150246866D01*
X31638500Y-74592866D02*
X31638500Y-88592866D01*
X141493500Y-150246866D02*
X141493500Y-164246866D01*
X262173501Y-29051817D02*
X267173485Y-24039140D01*
X50173498Y-85928865D02*
X49173498Y-92121746D01*
X325513500Y-30322866D02*
X325513500Y-44322866D01*
X307673502Y-153928866D02*
G75*
G03*
X307673502Y-153928866I-1500000J0D01*
G01*
X267173485Y-24039140D02*
X300555987Y-23954508D01*
X367810973Y-86251284D02*
X368009960Y-164739651D01*
X28173498Y-78204100D02*
X28173498Y-63718031D01*
X240938500Y-150247866D02*
X240938500Y-164247866D01*
X326173500Y-154178866D02*
X333673503Y-154178866D01*
X311158500Y-27347866D02*
X297158500Y-27347866D01*
X74218180Y-24528329D02*
X219057856Y-24161125D01*
X205578500Y-67326866D02*
X191578500Y-67326866D01*
X45638500Y-88592866D02*
X45638500Y-74592866D01*
X31638500Y-88592866D02*
X45638500Y-88592866D01*
X70918500Y-58289866D02*
X56918500Y-58289866D01*
X56918500Y-72289866D02*
X70918500Y-72289866D01*
X191578500Y-67326866D02*
X191578500Y-81326866D01*
X254938500Y-119062866D02*
X240938500Y-119062866D01*
X119517015Y-150994132D02*
X115908718Y-150308906D01*
X277625500Y-103292866D02*
X263625500Y-103292866D01*
X125846500Y-81326866D02*
X125846500Y-67326866D01*
X367811002Y-86251301D02*
G75*
G03*
X367784072Y-75640505I-9074502J5282401D01*
G01*
X300282500Y-133062866D02*
X300282500Y-119062866D01*
X351736500Y-87968866D02*
X365736500Y-87968866D01*
X45638500Y-74592866D02*
X31638500Y-74592866D01*
X339513500Y-30322866D02*
X325513500Y-30322866D01*
X325513500Y-71932866D02*
X339513500Y-71932866D01*
X311158500Y-54957866D02*
X297158500Y-54957866D01*
X221173501Y-86928865D02*
X191173500Y-86928865D01*
X300282500Y-119062866D02*
X286282500Y-119062866D01*
X254938500Y-150247866D02*
X240938500Y-150247866D01*
X297158500Y-54957866D02*
X297158500Y-68957866D01*
X122673499Y-152428866D02*
X119517015Y-150994132D01*
X297158500Y-41347866D02*
X311158500Y-41347866D01*
X118805500Y-134477866D02*
X118805500Y-148477866D01*
X365736500Y-60358866D02*
X365736500Y-46358866D01*
X339513500Y-44322866D02*
X339513500Y-30322866D01*
X205578500Y-81326866D02*
X205578500Y-67326866D01*
X106304608Y-74878792D02*
X88702964Y-74878792D01*
X365736500Y-87968866D02*
X365736500Y-73968866D01*
X351736500Y-46358866D02*
X351736500Y-60358866D01*
X277625500Y-148477866D02*
X277625500Y-134477866D01*
X321673500Y-46928866D02*
G75*
G03*
X321673500Y-46928866I-3500000J0D01*
G01*
X132805500Y-134477866D02*
X118805500Y-134477866D01*
X56918500Y-58289866D02*
X56918500Y-72289866D01*
X368009960Y-164739651D02*
X364020105Y-168739635D01*
X155493500Y-164246866D02*
X155493500Y-150246866D01*
X286282500Y-119062866D02*
X286282500Y-133062866D01*
X322923500Y-140428866D02*
X322923500Y-150928866D01*
X339513500Y-57932866D02*
X325513500Y-57932866D01*
X219057856Y-24161125D02*
X224057840Y-29148449D01*
X87173499Y-73928865D02*
X77173499Y-73928865D01*
X254938500Y-164247866D02*
X254938500Y-150247866D01*
X361688997Y-23799520D02*
X367667800Y-29778324D01*
X284640500Y-53343866D02*
X284640500Y-39343866D01*
X284640500Y-66952866D02*
X270640500Y-66952866D01*
X77173499Y-73928865D02*
X76104764Y-74878792D01*
X85274500Y-69563866D02*
X99274500Y-69563866D01*
X263625500Y-148477866D02*
X277625500Y-148477866D01*
X284640500Y-39343866D02*
X270640500Y-39343866D01*
X111846500Y-81326866D02*
X125846500Y-81326866D01*
X125846500Y-67326866D02*
X111846500Y-67326866D01*
X270640500Y-80952866D02*
X284640500Y-80952866D01*
X277625500Y-134477866D02*
X263625500Y-134477866D01*
X49173498Y-107928865D02*
X44173498Y-112928865D01*
X357673500Y-31928866D02*
G75*
G03*
X357673500Y-31928866I-1500000J0D01*
G01*
X254938500Y-133062866D02*
X254938500Y-119062866D01*
X307708268Y-23936375D02*
G75*
G03*
X300555987Y-23954508I-3549768J-10411525D01*
G01*
X224057840Y-29148449D02*
X262173501Y-29051817D01*
X367741274Y-58759240D02*
X367784072Y-75640505D01*
X333673503Y-132428866D02*
X330923500Y-132428866D01*
X99274500Y-55563866D02*
X85274500Y-55563866D01*
X297158500Y-27347866D02*
X297158500Y-41347866D01*
D12*
G04 #@! TO.C,SW41*
X177215714Y-34710476D02*
X177215714Y-34510476D01*
X177330000Y-34710476D02*
X177244285Y-34596190D01*
X177330000Y-34510476D02*
X177215714Y-34624761D01*
X177415714Y-34605714D02*
X177482380Y-34605714D01*
X177510952Y-34710476D02*
X177415714Y-34710476D01*
X177415714Y-34510476D01*
X177510952Y-34510476D01*
X177596666Y-34605714D02*
X177663333Y-34605714D01*
X177691904Y-34710476D02*
X177596666Y-34710476D01*
X177596666Y-34510476D01*
X177691904Y-34510476D01*
X177777619Y-34710476D02*
X177777619Y-34510476D01*
X177853809Y-34510476D01*
X177872857Y-34520000D01*
X177882380Y-34529523D01*
X177891904Y-34548571D01*
X177891904Y-34577142D01*
X177882380Y-34596190D01*
X177872857Y-34605714D01*
X177853809Y-34615238D01*
X177777619Y-34615238D01*
X177977619Y-34634285D02*
X178130000Y-34634285D01*
X178263333Y-34510476D02*
X178301428Y-34510476D01*
X178320476Y-34520000D01*
X178339523Y-34539047D01*
X178349047Y-34577142D01*
X178349047Y-34643809D01*
X178339523Y-34681904D01*
X178320476Y-34700952D01*
X178301428Y-34710476D01*
X178263333Y-34710476D01*
X178244285Y-34700952D01*
X178225238Y-34681904D01*
X178215714Y-34643809D01*
X178215714Y-34577142D01*
X178225238Y-34539047D01*
X178244285Y-34520000D01*
X178263333Y-34510476D01*
X178434761Y-34510476D02*
X178434761Y-34672380D01*
X178444285Y-34691428D01*
X178453809Y-34700952D01*
X178472857Y-34710476D01*
X178510952Y-34710476D01*
X178530000Y-34700952D01*
X178539523Y-34691428D01*
X178549047Y-34672380D01*
X178549047Y-34510476D01*
X178615714Y-34510476D02*
X178730000Y-34510476D01*
X178672857Y-34710476D02*
X178672857Y-34510476D01*
X178930000Y-34510476D02*
X179063333Y-34510476D01*
X178930000Y-34710476D01*
X179063333Y-34710476D01*
X179177619Y-34510476D02*
X179215714Y-34510476D01*
X179234761Y-34520000D01*
X179253809Y-34539047D01*
X179263333Y-34577142D01*
X179263333Y-34643809D01*
X179253809Y-34681904D01*
X179234761Y-34700952D01*
X179215714Y-34710476D01*
X179177619Y-34710476D01*
X179158571Y-34700952D01*
X179139523Y-34681904D01*
X179130000Y-34643809D01*
X179130000Y-34577142D01*
X179139523Y-34539047D01*
X179158571Y-34520000D01*
X179177619Y-34510476D01*
X179349047Y-34710476D02*
X179349047Y-34510476D01*
X179463333Y-34710476D01*
X179463333Y-34510476D01*
X179558571Y-34605714D02*
X179625238Y-34605714D01*
X179653809Y-34710476D02*
X179558571Y-34710476D01*
X179558571Y-34510476D01*
X179653809Y-34510476D01*
X182215714Y-34710476D02*
X182215714Y-34510476D01*
X182330000Y-34710476D02*
X182244285Y-34596190D01*
X182330000Y-34510476D02*
X182215714Y-34624761D01*
X182415714Y-34605714D02*
X182482380Y-34605714D01*
X182510952Y-34710476D02*
X182415714Y-34710476D01*
X182415714Y-34510476D01*
X182510952Y-34510476D01*
X182596666Y-34605714D02*
X182663333Y-34605714D01*
X182691904Y-34710476D02*
X182596666Y-34710476D01*
X182596666Y-34510476D01*
X182691904Y-34510476D01*
X182777619Y-34710476D02*
X182777619Y-34510476D01*
X182853809Y-34510476D01*
X182872857Y-34520000D01*
X182882380Y-34529523D01*
X182891904Y-34548571D01*
X182891904Y-34577142D01*
X182882380Y-34596190D01*
X182872857Y-34605714D01*
X182853809Y-34615238D01*
X182777619Y-34615238D01*
X182977619Y-34634285D02*
X183130000Y-34634285D01*
X183263333Y-34510476D02*
X183301428Y-34510476D01*
X183320476Y-34520000D01*
X183339523Y-34539047D01*
X183349047Y-34577142D01*
X183349047Y-34643809D01*
X183339523Y-34681904D01*
X183320476Y-34700952D01*
X183301428Y-34710476D01*
X183263333Y-34710476D01*
X183244285Y-34700952D01*
X183225238Y-34681904D01*
X183215714Y-34643809D01*
X183215714Y-34577142D01*
X183225238Y-34539047D01*
X183244285Y-34520000D01*
X183263333Y-34510476D01*
X183434761Y-34510476D02*
X183434761Y-34672380D01*
X183444285Y-34691428D01*
X183453809Y-34700952D01*
X183472857Y-34710476D01*
X183510952Y-34710476D01*
X183530000Y-34700952D01*
X183539523Y-34691428D01*
X183549047Y-34672380D01*
X183549047Y-34510476D01*
X183615714Y-34510476D02*
X183730000Y-34510476D01*
X183672857Y-34710476D02*
X183672857Y-34510476D01*
X183930000Y-34510476D02*
X184063333Y-34510476D01*
X183930000Y-34710476D01*
X184063333Y-34710476D01*
X184177619Y-34510476D02*
X184215714Y-34510476D01*
X184234761Y-34520000D01*
X184253809Y-34539047D01*
X184263333Y-34577142D01*
X184263333Y-34643809D01*
X184253809Y-34681904D01*
X184234761Y-34700952D01*
X184215714Y-34710476D01*
X184177619Y-34710476D01*
X184158571Y-34700952D01*
X184139523Y-34681904D01*
X184130000Y-34643809D01*
X184130000Y-34577142D01*
X184139523Y-34539047D01*
X184158571Y-34520000D01*
X184177619Y-34510476D01*
X184349047Y-34710476D02*
X184349047Y-34510476D01*
X184463333Y-34710476D01*
X184463333Y-34510476D01*
X184558571Y-34605714D02*
X184625238Y-34605714D01*
X184653809Y-34710476D02*
X184558571Y-34710476D01*
X184558571Y-34510476D01*
X184653809Y-34510476D01*
X177349047Y-35110476D02*
X177349047Y-34910476D01*
X177463333Y-35110476D01*
X177463333Y-34910476D01*
X177587142Y-35110476D02*
X177568095Y-35100952D01*
X177558571Y-35091428D01*
X177549047Y-35072380D01*
X177549047Y-35015238D01*
X177558571Y-34996190D01*
X177568095Y-34986666D01*
X177587142Y-34977142D01*
X177615714Y-34977142D01*
X177634761Y-34986666D01*
X177644285Y-34996190D01*
X177653809Y-35015238D01*
X177653809Y-35072380D01*
X177644285Y-35091428D01*
X177634761Y-35100952D01*
X177615714Y-35110476D01*
X177587142Y-35110476D01*
X177958571Y-35005714D02*
X177891904Y-35005714D01*
X177891904Y-35110476D02*
X177891904Y-34910476D01*
X177987142Y-34910476D01*
X178063333Y-35091428D02*
X178072857Y-35100952D01*
X178063333Y-35110476D01*
X178053809Y-35100952D01*
X178063333Y-35091428D01*
X178063333Y-35110476D01*
X178272857Y-35091428D02*
X178263333Y-35100952D01*
X178234761Y-35110476D01*
X178215714Y-35110476D01*
X178187142Y-35100952D01*
X178168095Y-35081904D01*
X178158571Y-35062857D01*
X178149047Y-35024761D01*
X178149047Y-34996190D01*
X178158571Y-34958095D01*
X178168095Y-34939047D01*
X178187142Y-34920000D01*
X178215714Y-34910476D01*
X178234761Y-34910476D01*
X178263333Y-34920000D01*
X178272857Y-34929523D01*
X178444285Y-34977142D02*
X178444285Y-35110476D01*
X178358571Y-34977142D02*
X178358571Y-35081904D01*
X178368095Y-35100952D01*
X178387142Y-35110476D01*
X178415714Y-35110476D01*
X178434761Y-35100952D01*
X178444285Y-35091428D01*
X178663333Y-34977142D02*
X178739523Y-34977142D01*
X178691904Y-34910476D02*
X178691904Y-35081904D01*
X178701428Y-35100952D01*
X178720476Y-35110476D01*
X178739523Y-35110476D01*
X178806190Y-35110476D02*
X178806190Y-34977142D01*
X178806190Y-35015238D02*
X178815714Y-34996190D01*
X178825238Y-34986666D01*
X178844285Y-34977142D01*
X178863333Y-34977142D01*
X179015714Y-35110476D02*
X179015714Y-35005714D01*
X179006190Y-34986666D01*
X178987142Y-34977142D01*
X178949047Y-34977142D01*
X178930000Y-34986666D01*
X179015714Y-35100952D02*
X178996666Y-35110476D01*
X178949047Y-35110476D01*
X178930000Y-35100952D01*
X178920476Y-35081904D01*
X178920476Y-35062857D01*
X178930000Y-35043809D01*
X178949047Y-35034285D01*
X178996666Y-35034285D01*
X179015714Y-35024761D01*
X179196666Y-35100952D02*
X179177619Y-35110476D01*
X179139523Y-35110476D01*
X179120476Y-35100952D01*
X179110952Y-35091428D01*
X179101428Y-35072380D01*
X179101428Y-35015238D01*
X179110952Y-34996190D01*
X179120476Y-34986666D01*
X179139523Y-34977142D01*
X179177619Y-34977142D01*
X179196666Y-34986666D01*
X179282380Y-35110476D02*
X179282380Y-34910476D01*
X179301428Y-35034285D02*
X179358571Y-35110476D01*
X179358571Y-34977142D02*
X179282380Y-35053333D01*
X179434761Y-35100952D02*
X179453809Y-35110476D01*
X179491904Y-35110476D01*
X179510952Y-35100952D01*
X179520476Y-35081904D01*
X179520476Y-35072380D01*
X179510952Y-35053333D01*
X179491904Y-35043809D01*
X179463333Y-35043809D01*
X179444285Y-35034285D01*
X179434761Y-35015238D01*
X179434761Y-35005714D01*
X179444285Y-34986666D01*
X179463333Y-34977142D01*
X179491904Y-34977142D01*
X179510952Y-34986666D01*
X182349047Y-35110476D02*
X182349047Y-34910476D01*
X182463333Y-35110476D01*
X182463333Y-34910476D01*
X182587142Y-35110476D02*
X182568095Y-35100952D01*
X182558571Y-35091428D01*
X182549047Y-35072380D01*
X182549047Y-35015238D01*
X182558571Y-34996190D01*
X182568095Y-34986666D01*
X182587142Y-34977142D01*
X182615714Y-34977142D01*
X182634761Y-34986666D01*
X182644285Y-34996190D01*
X182653809Y-35015238D01*
X182653809Y-35072380D01*
X182644285Y-35091428D01*
X182634761Y-35100952D01*
X182615714Y-35110476D01*
X182587142Y-35110476D01*
X182958571Y-35005714D02*
X182891904Y-35005714D01*
X182891904Y-35110476D02*
X182891904Y-34910476D01*
X182987142Y-34910476D01*
X183063333Y-35091428D02*
X183072857Y-35100952D01*
X183063333Y-35110476D01*
X183053809Y-35100952D01*
X183063333Y-35091428D01*
X183063333Y-35110476D01*
X183272857Y-35091428D02*
X183263333Y-35100952D01*
X183234761Y-35110476D01*
X183215714Y-35110476D01*
X183187142Y-35100952D01*
X183168095Y-35081904D01*
X183158571Y-35062857D01*
X183149047Y-35024761D01*
X183149047Y-34996190D01*
X183158571Y-34958095D01*
X183168095Y-34939047D01*
X183187142Y-34920000D01*
X183215714Y-34910476D01*
X183234761Y-34910476D01*
X183263333Y-34920000D01*
X183272857Y-34929523D01*
X183444285Y-34977142D02*
X183444285Y-35110476D01*
X183358571Y-34977142D02*
X183358571Y-35081904D01*
X183368095Y-35100952D01*
X183387142Y-35110476D01*
X183415714Y-35110476D01*
X183434761Y-35100952D01*
X183444285Y-35091428D01*
X183663333Y-34977142D02*
X183739523Y-34977142D01*
X183691904Y-34910476D02*
X183691904Y-35081904D01*
X183701428Y-35100952D01*
X183720476Y-35110476D01*
X183739523Y-35110476D01*
X183806190Y-35110476D02*
X183806190Y-34977142D01*
X183806190Y-35015238D02*
X183815714Y-34996190D01*
X183825238Y-34986666D01*
X183844285Y-34977142D01*
X183863333Y-34977142D01*
X184015714Y-35110476D02*
X184015714Y-35005714D01*
X184006190Y-34986666D01*
X183987142Y-34977142D01*
X183949047Y-34977142D01*
X183930000Y-34986666D01*
X184015714Y-35100952D02*
X183996666Y-35110476D01*
X183949047Y-35110476D01*
X183930000Y-35100952D01*
X183920476Y-35081904D01*
X183920476Y-35062857D01*
X183930000Y-35043809D01*
X183949047Y-35034285D01*
X183996666Y-35034285D01*
X184015714Y-35024761D01*
X184196666Y-35100952D02*
X184177619Y-35110476D01*
X184139523Y-35110476D01*
X184120476Y-35100952D01*
X184110952Y-35091428D01*
X184101428Y-35072380D01*
X184101428Y-35015238D01*
X184110952Y-34996190D01*
X184120476Y-34986666D01*
X184139523Y-34977142D01*
X184177619Y-34977142D01*
X184196666Y-34986666D01*
X184282380Y-35110476D02*
X184282380Y-34910476D01*
X184301428Y-35034285D02*
X184358571Y-35110476D01*
X184358571Y-34977142D02*
X184282380Y-35053333D01*
X184434761Y-35100952D02*
X184453809Y-35110476D01*
X184491904Y-35110476D01*
X184510952Y-35100952D01*
X184520476Y-35081904D01*
X184520476Y-35072380D01*
X184510952Y-35053333D01*
X184491904Y-35043809D01*
X184463333Y-35043809D01*
X184444285Y-35034285D01*
X184434761Y-35015238D01*
X184434761Y-35005714D01*
X184444285Y-34986666D01*
X184463333Y-34977142D01*
X184491904Y-34977142D01*
X184510952Y-34986666D01*
D13*
G04 #@! TO.C,J2*
X206030952Y-67358095D02*
X205630952Y-67358095D01*
X206030952Y-67129523D02*
X205802380Y-67300952D01*
X205630952Y-67129523D02*
X205859523Y-67358095D01*
X205821428Y-66958095D02*
X205821428Y-66824761D01*
X206030952Y-66767619D02*
X206030952Y-66958095D01*
X205630952Y-66958095D01*
X205630952Y-66767619D01*
X205821428Y-66596190D02*
X205821428Y-66462857D01*
X206030952Y-66405714D02*
X206030952Y-66596190D01*
X205630952Y-66596190D01*
X205630952Y-66405714D01*
X206030952Y-66234285D02*
X205630952Y-66234285D01*
X205630952Y-66081904D01*
X205650000Y-66043809D01*
X205669047Y-66024761D01*
X205707142Y-66005714D01*
X205764285Y-66005714D01*
X205802380Y-66024761D01*
X205821428Y-66043809D01*
X205840476Y-66081904D01*
X205840476Y-66234285D01*
X205630952Y-65758095D02*
X205630952Y-65681904D01*
X205650000Y-65643809D01*
X205688095Y-65605714D01*
X205764285Y-65586666D01*
X205897619Y-65586666D01*
X205973809Y-65605714D01*
X206011904Y-65643809D01*
X206030952Y-65681904D01*
X206030952Y-65758095D01*
X206011904Y-65796190D01*
X205973809Y-65834285D01*
X205897619Y-65853333D01*
X205764285Y-65853333D01*
X205688095Y-65834285D01*
X205650000Y-65796190D01*
X205630952Y-65758095D01*
X205630952Y-65415238D02*
X205954761Y-65415238D01*
X205992857Y-65396190D01*
X206011904Y-65377142D01*
X206030952Y-65339047D01*
X206030952Y-65262857D01*
X206011904Y-65224761D01*
X205992857Y-65205714D01*
X205954761Y-65186666D01*
X205630952Y-65186666D01*
X205630952Y-65053333D02*
X205630952Y-64824761D01*
X206030952Y-64939047D02*
X205630952Y-64939047D01*
G04 #@! TD*
M02*
