G04 #@! TF.GenerationSoftware,KiCad,Pcbnew,(6.0.7)*
G04 #@! TF.CreationDate,2023-01-12T02:14:33-06:00*
G04 #@! TF.ProjectId,OpenRectangle,4f70656e-5265-4637-9461-6e676c652e6b,rev?*
G04 #@! TF.SameCoordinates,Original*
G04 #@! TF.FileFunction,Other,Comment*
%FSLAX46Y46*%
G04 Gerber Fmt 4.6, Leading zero omitted, Abs format (unit mm)*
G04 Created by KiCad (PCBNEW (6.0.7)) date 2023-01-12 02:14:33*
%MOMM*%
%LPD*%
G01*
G04 APERTURE LIST*
%ADD10C,0.100000*%
%ADD11C,0.150000*%
%ADD12C,0.030000*%
%ADD13C,0.070000*%
G04 APERTURE END LIST*
D10*
X325513500Y-44322866D02*
X339513500Y-44322866D01*
X118673500Y-41928866D02*
G75*
G03*
X118673500Y-41928866I-3500000J0D01*
G01*
X176923500Y-51928866D02*
G75*
G03*
X176923500Y-51928866I-7750000J0D01*
G01*
X240938500Y-133062866D02*
X254938500Y-133062866D01*
X173996134Y-123745862D02*
G75*
G03*
X173996134Y-123745862I-1500000J0D01*
G01*
X341673534Y-140428866D02*
G75*
G03*
X333673503Y-132428866I-8000034J-34D01*
G01*
X140396446Y-168739635D02*
X135475773Y-163818962D01*
X132805500Y-148477866D02*
X132805500Y-134477866D01*
X88702964Y-74878792D02*
X87173499Y-73928865D01*
X115908718Y-150308906D02*
X106304608Y-141928866D01*
X191578500Y-67326866D02*
X191578500Y-81326866D01*
X270640500Y-39343866D02*
X270640500Y-53343866D01*
X50173498Y-76928865D02*
X50173498Y-85928865D01*
X367667800Y-29778324D02*
X367713776Y-47912903D01*
X339513500Y-71932866D02*
X339513500Y-57932866D01*
X106304608Y-141928866D02*
X106304608Y-74878792D01*
X221173501Y-115928866D02*
X221173501Y-86928865D01*
X277625500Y-117292866D02*
X277625500Y-103292866D01*
X191173500Y-86928865D02*
X191173500Y-115928866D01*
X365736500Y-73968866D02*
X351736500Y-73968866D01*
X70918500Y-72289866D02*
X70918500Y-58289866D01*
X325513500Y-57932866D02*
X325513500Y-71932866D01*
X322923534Y-150928866D02*
G75*
G03*
X326173500Y-154178866I3249966J-34D01*
G01*
X225290238Y-38224765D02*
G75*
G03*
X225290238Y-38224765I-1500000J0D01*
G01*
X330923500Y-132428900D02*
G75*
G03*
X322923500Y-140428866I0J-8000000D01*
G01*
X240938500Y-164247866D02*
X254938500Y-164247866D01*
X191578500Y-81326866D02*
X205578500Y-81326866D01*
X270640500Y-53343866D02*
X284640500Y-53343866D01*
X141493500Y-164246866D02*
X155493500Y-164246866D01*
X33173498Y-112928865D02*
X28173498Y-107928865D01*
X240938500Y-119062866D02*
X240938500Y-133062866D01*
X205578500Y-67326866D02*
X191578500Y-67326866D01*
X263625500Y-103292866D02*
X263625500Y-117292866D01*
D11*
X190860000Y-88285000D02*
X190860000Y-108315000D01*
D10*
X76104764Y-74878792D02*
X71173499Y-76928865D01*
X284640500Y-80952866D02*
X284640500Y-66952866D01*
X286282500Y-133062866D02*
X300282500Y-133062866D01*
X364020105Y-168739635D02*
X140396446Y-168739635D01*
X28173498Y-63718031D02*
X74218180Y-24528329D01*
X28173500Y-78204101D02*
G75*
G03*
X28173498Y-84981632I10465000J-3388769D01*
G01*
X333673503Y-154178903D02*
G75*
G03*
X341673503Y-146178866I-3J8000003D01*
G01*
X367741305Y-58759258D02*
G75*
G03*
X367713776Y-47912903I-9004805J5400358D01*
G01*
X270640500Y-66952866D02*
X270640500Y-80952866D01*
X118805500Y-148477866D02*
X132805500Y-148477866D01*
X191173500Y-115928866D02*
X221173501Y-115928866D01*
X49173498Y-92121746D02*
X49173498Y-107928865D01*
X311158500Y-68957866D02*
X311158500Y-54957866D01*
X111846500Y-67326866D02*
X111846500Y-81326866D01*
X189673500Y-152928866D02*
G75*
G03*
X189673500Y-152928866I-3500000J0D01*
G01*
X311158500Y-41347866D02*
X311158500Y-27347866D01*
X81438656Y-35609145D02*
G75*
G03*
X81438656Y-35609145I-1500000J0D01*
G01*
X85274500Y-55563866D02*
X85274500Y-69563866D01*
X28173498Y-107928865D02*
X28173498Y-84981632D01*
X99274500Y-69563866D02*
X99274500Y-55563866D01*
X297158500Y-68957866D02*
X311158500Y-68957866D01*
X44173498Y-112928865D02*
X33173498Y-112928865D01*
X135475773Y-163818962D02*
X122673499Y-152428866D01*
X237673500Y-63928866D02*
G75*
G03*
X237673500Y-63928866I-3500000J0D01*
G01*
X341673503Y-146178866D02*
X341673503Y-140428866D01*
X263625500Y-117292866D02*
X277625500Y-117292866D01*
X307708268Y-23936375D02*
X361688997Y-23799520D01*
X40051918Y-101092807D02*
G75*
G03*
X40051918Y-101092807I-1500000J0D01*
G01*
X237423500Y-118928866D02*
G75*
G03*
X237423500Y-118928866I-5250000J0D01*
G01*
X365736500Y-46358866D02*
X351736500Y-46358866D01*
X263625500Y-134477866D02*
X263625500Y-148477866D01*
X205578500Y-81326866D02*
X205578500Y-67326866D01*
X351736500Y-73968866D02*
X351736500Y-87968866D01*
X351736500Y-60358866D02*
X365736500Y-60358866D01*
X191578500Y-81326866D02*
X205578500Y-81326866D01*
X71173499Y-76928865D02*
X50173498Y-76928865D01*
X155493500Y-150246866D02*
X141493500Y-150246866D01*
X31638500Y-74592866D02*
X31638500Y-88592866D01*
X141493500Y-150246866D02*
X141493500Y-164246866D01*
X262173501Y-29051817D02*
X267173485Y-24039140D01*
X50173498Y-85928865D02*
X49173498Y-92121746D01*
X325513500Y-30322866D02*
X325513500Y-44322866D01*
X307673502Y-153928866D02*
G75*
G03*
X307673502Y-153928866I-1500000J0D01*
G01*
X267173485Y-24039140D02*
X300555987Y-23954508D01*
X367810973Y-86251284D02*
X368009960Y-164739651D01*
X28173498Y-78204100D02*
X28173498Y-63718031D01*
X240938500Y-150247866D02*
X240938500Y-164247866D01*
X326173500Y-154178866D02*
X333673503Y-154178866D01*
X311158500Y-27347866D02*
X297158500Y-27347866D01*
X74218180Y-24528329D02*
X219057856Y-24161125D01*
X205578500Y-67326866D02*
X191578500Y-67326866D01*
X45638500Y-88592866D02*
X45638500Y-74592866D01*
X31638500Y-88592866D02*
X45638500Y-88592866D01*
X70918500Y-58289866D02*
X56918500Y-58289866D01*
X56918500Y-72289866D02*
X70918500Y-72289866D01*
X191578500Y-67326866D02*
X191578500Y-81326866D01*
X254938500Y-119062866D02*
X240938500Y-119062866D01*
X119517015Y-150994132D02*
X115908718Y-150308906D01*
X277625500Y-103292866D02*
X263625500Y-103292866D01*
X125846500Y-81326866D02*
X125846500Y-67326866D01*
X367811002Y-86251301D02*
G75*
G03*
X367784072Y-75640505I-9074502J5282401D01*
G01*
X300282500Y-133062866D02*
X300282500Y-119062866D01*
X351736500Y-87968866D02*
X365736500Y-87968866D01*
X45638500Y-74592866D02*
X31638500Y-74592866D01*
X339513500Y-30322866D02*
X325513500Y-30322866D01*
X325513500Y-71932866D02*
X339513500Y-71932866D01*
X311158500Y-54957866D02*
X297158500Y-54957866D01*
X221173501Y-86928865D02*
X191173500Y-86928865D01*
X300282500Y-119062866D02*
X286282500Y-119062866D01*
X254938500Y-150247866D02*
X240938500Y-150247866D01*
X297158500Y-54957866D02*
X297158500Y-68957866D01*
X122673499Y-152428866D02*
X119517015Y-150994132D01*
X297158500Y-41347866D02*
X311158500Y-41347866D01*
X118805500Y-134477866D02*
X118805500Y-148477866D01*
X365736500Y-60358866D02*
X365736500Y-46358866D01*
X339513500Y-44322866D02*
X339513500Y-30322866D01*
X205578500Y-81326866D02*
X205578500Y-67326866D01*
X106304608Y-74878792D02*
X88702964Y-74878792D01*
X365736500Y-87968866D02*
X365736500Y-73968866D01*
X351736500Y-46358866D02*
X351736500Y-60358866D01*
X277625500Y-148477866D02*
X277625500Y-134477866D01*
X321673500Y-46928866D02*
G75*
G03*
X321673500Y-46928866I-3500000J0D01*
G01*
X132805500Y-134477866D02*
X118805500Y-134477866D01*
X56918500Y-58289866D02*
X56918500Y-72289866D01*
X368009960Y-164739651D02*
X364020105Y-168739635D01*
X155493500Y-164246866D02*
X155493500Y-150246866D01*
X286282500Y-119062866D02*
X286282500Y-133062866D01*
X322923500Y-140428866D02*
X322923500Y-150928866D01*
X339513500Y-57932866D02*
X325513500Y-57932866D01*
X219057856Y-24161125D02*
X224057840Y-29148449D01*
X87173499Y-73928865D02*
X77173499Y-73928865D01*
X254938500Y-164247866D02*
X254938500Y-150247866D01*
X361688997Y-23799520D02*
X367667800Y-29778324D01*
X284640500Y-53343866D02*
X284640500Y-39343866D01*
X284640500Y-66952866D02*
X270640500Y-66952866D01*
X77173499Y-73928865D02*
X76104764Y-74878792D01*
X85274500Y-69563866D02*
X99274500Y-69563866D01*
X263625500Y-148477866D02*
X277625500Y-148477866D01*
X284640500Y-39343866D02*
X270640500Y-39343866D01*
X111846500Y-81326866D02*
X125846500Y-81326866D01*
X125846500Y-67326866D02*
X111846500Y-67326866D01*
X270640500Y-80952866D02*
X284640500Y-80952866D01*
X277625500Y-134477866D02*
X263625500Y-134477866D01*
X49173498Y-107928865D02*
X44173498Y-112928865D01*
X357673500Y-31928866D02*
G75*
G03*
X357673500Y-31928866I-1500000J0D01*
G01*
X254938500Y-133062866D02*
X254938500Y-119062866D01*
X307708268Y-23936375D02*
G75*
G03*
X300555987Y-23954508I-3549768J-10411525D01*
G01*
X224057840Y-29148449D02*
X262173501Y-29051817D01*
X367741274Y-58759240D02*
X367784072Y-75640505D01*
X333673503Y-132428866D02*
X330923500Y-132428866D01*
X99274500Y-55563866D02*
X85274500Y-55563866D01*
X297158500Y-27347866D02*
X297158500Y-41347866D01*
D12*
G04 #@! TO.C,SW21*
X178525714Y-30080476D02*
X178525714Y-29880476D01*
X178640000Y-30080476D02*
X178554285Y-29966190D01*
X178640000Y-29880476D02*
X178525714Y-29994761D01*
X178725714Y-29975714D02*
X178792380Y-29975714D01*
X178820952Y-30080476D02*
X178725714Y-30080476D01*
X178725714Y-29880476D01*
X178820952Y-29880476D01*
X178906666Y-29975714D02*
X178973333Y-29975714D01*
X179001904Y-30080476D02*
X178906666Y-30080476D01*
X178906666Y-29880476D01*
X179001904Y-29880476D01*
X179087619Y-30080476D02*
X179087619Y-29880476D01*
X179163809Y-29880476D01*
X179182857Y-29890000D01*
X179192380Y-29899523D01*
X179201904Y-29918571D01*
X179201904Y-29947142D01*
X179192380Y-29966190D01*
X179182857Y-29975714D01*
X179163809Y-29985238D01*
X179087619Y-29985238D01*
X179287619Y-30004285D02*
X179440000Y-30004285D01*
X179573333Y-29880476D02*
X179611428Y-29880476D01*
X179630476Y-29890000D01*
X179649523Y-29909047D01*
X179659047Y-29947142D01*
X179659047Y-30013809D01*
X179649523Y-30051904D01*
X179630476Y-30070952D01*
X179611428Y-30080476D01*
X179573333Y-30080476D01*
X179554285Y-30070952D01*
X179535238Y-30051904D01*
X179525714Y-30013809D01*
X179525714Y-29947142D01*
X179535238Y-29909047D01*
X179554285Y-29890000D01*
X179573333Y-29880476D01*
X179744761Y-29880476D02*
X179744761Y-30042380D01*
X179754285Y-30061428D01*
X179763809Y-30070952D01*
X179782857Y-30080476D01*
X179820952Y-30080476D01*
X179840000Y-30070952D01*
X179849523Y-30061428D01*
X179859047Y-30042380D01*
X179859047Y-29880476D01*
X179925714Y-29880476D02*
X180040000Y-29880476D01*
X179982857Y-30080476D02*
X179982857Y-29880476D01*
X180240000Y-29880476D02*
X180373333Y-29880476D01*
X180240000Y-30080476D01*
X180373333Y-30080476D01*
X180487619Y-29880476D02*
X180525714Y-29880476D01*
X180544761Y-29890000D01*
X180563809Y-29909047D01*
X180573333Y-29947142D01*
X180573333Y-30013809D01*
X180563809Y-30051904D01*
X180544761Y-30070952D01*
X180525714Y-30080476D01*
X180487619Y-30080476D01*
X180468571Y-30070952D01*
X180449523Y-30051904D01*
X180440000Y-30013809D01*
X180440000Y-29947142D01*
X180449523Y-29909047D01*
X180468571Y-29890000D01*
X180487619Y-29880476D01*
X180659047Y-30080476D02*
X180659047Y-29880476D01*
X180773333Y-30080476D01*
X180773333Y-29880476D01*
X180868571Y-29975714D02*
X180935238Y-29975714D01*
X180963809Y-30080476D02*
X180868571Y-30080476D01*
X180868571Y-29880476D01*
X180963809Y-29880476D01*
X183525714Y-30080476D02*
X183525714Y-29880476D01*
X183640000Y-30080476D02*
X183554285Y-29966190D01*
X183640000Y-29880476D02*
X183525714Y-29994761D01*
X183725714Y-29975714D02*
X183792380Y-29975714D01*
X183820952Y-30080476D02*
X183725714Y-30080476D01*
X183725714Y-29880476D01*
X183820952Y-29880476D01*
X183906666Y-29975714D02*
X183973333Y-29975714D01*
X184001904Y-30080476D02*
X183906666Y-30080476D01*
X183906666Y-29880476D01*
X184001904Y-29880476D01*
X184087619Y-30080476D02*
X184087619Y-29880476D01*
X184163809Y-29880476D01*
X184182857Y-29890000D01*
X184192380Y-29899523D01*
X184201904Y-29918571D01*
X184201904Y-29947142D01*
X184192380Y-29966190D01*
X184182857Y-29975714D01*
X184163809Y-29985238D01*
X184087619Y-29985238D01*
X184287619Y-30004285D02*
X184440000Y-30004285D01*
X184573333Y-29880476D02*
X184611428Y-29880476D01*
X184630476Y-29890000D01*
X184649523Y-29909047D01*
X184659047Y-29947142D01*
X184659047Y-30013809D01*
X184649523Y-30051904D01*
X184630476Y-30070952D01*
X184611428Y-30080476D01*
X184573333Y-30080476D01*
X184554285Y-30070952D01*
X184535238Y-30051904D01*
X184525714Y-30013809D01*
X184525714Y-29947142D01*
X184535238Y-29909047D01*
X184554285Y-29890000D01*
X184573333Y-29880476D01*
X184744761Y-29880476D02*
X184744761Y-30042380D01*
X184754285Y-30061428D01*
X184763809Y-30070952D01*
X184782857Y-30080476D01*
X184820952Y-30080476D01*
X184840000Y-30070952D01*
X184849523Y-30061428D01*
X184859047Y-30042380D01*
X184859047Y-29880476D01*
X184925714Y-29880476D02*
X185040000Y-29880476D01*
X184982857Y-30080476D02*
X184982857Y-29880476D01*
X185240000Y-29880476D02*
X185373333Y-29880476D01*
X185240000Y-30080476D01*
X185373333Y-30080476D01*
X185487619Y-29880476D02*
X185525714Y-29880476D01*
X185544761Y-29890000D01*
X185563809Y-29909047D01*
X185573333Y-29947142D01*
X185573333Y-30013809D01*
X185563809Y-30051904D01*
X185544761Y-30070952D01*
X185525714Y-30080476D01*
X185487619Y-30080476D01*
X185468571Y-30070952D01*
X185449523Y-30051904D01*
X185440000Y-30013809D01*
X185440000Y-29947142D01*
X185449523Y-29909047D01*
X185468571Y-29890000D01*
X185487619Y-29880476D01*
X185659047Y-30080476D02*
X185659047Y-29880476D01*
X185773333Y-30080476D01*
X185773333Y-29880476D01*
X185868571Y-29975714D02*
X185935238Y-29975714D01*
X185963809Y-30080476D02*
X185868571Y-30080476D01*
X185868571Y-29880476D01*
X185963809Y-29880476D01*
X178659047Y-30480476D02*
X178659047Y-30280476D01*
X178773333Y-30480476D01*
X178773333Y-30280476D01*
X178897142Y-30480476D02*
X178878095Y-30470952D01*
X178868571Y-30461428D01*
X178859047Y-30442380D01*
X178859047Y-30385238D01*
X178868571Y-30366190D01*
X178878095Y-30356666D01*
X178897142Y-30347142D01*
X178925714Y-30347142D01*
X178944761Y-30356666D01*
X178954285Y-30366190D01*
X178963809Y-30385238D01*
X178963809Y-30442380D01*
X178954285Y-30461428D01*
X178944761Y-30470952D01*
X178925714Y-30480476D01*
X178897142Y-30480476D01*
X179268571Y-30375714D02*
X179201904Y-30375714D01*
X179201904Y-30480476D02*
X179201904Y-30280476D01*
X179297142Y-30280476D01*
X179373333Y-30461428D02*
X179382857Y-30470952D01*
X179373333Y-30480476D01*
X179363809Y-30470952D01*
X179373333Y-30461428D01*
X179373333Y-30480476D01*
X179582857Y-30461428D02*
X179573333Y-30470952D01*
X179544761Y-30480476D01*
X179525714Y-30480476D01*
X179497142Y-30470952D01*
X179478095Y-30451904D01*
X179468571Y-30432857D01*
X179459047Y-30394761D01*
X179459047Y-30366190D01*
X179468571Y-30328095D01*
X179478095Y-30309047D01*
X179497142Y-30290000D01*
X179525714Y-30280476D01*
X179544761Y-30280476D01*
X179573333Y-30290000D01*
X179582857Y-30299523D01*
X179754285Y-30347142D02*
X179754285Y-30480476D01*
X179668571Y-30347142D02*
X179668571Y-30451904D01*
X179678095Y-30470952D01*
X179697142Y-30480476D01*
X179725714Y-30480476D01*
X179744761Y-30470952D01*
X179754285Y-30461428D01*
X179973333Y-30347142D02*
X180049523Y-30347142D01*
X180001904Y-30280476D02*
X180001904Y-30451904D01*
X180011428Y-30470952D01*
X180030476Y-30480476D01*
X180049523Y-30480476D01*
X180116190Y-30480476D02*
X180116190Y-30347142D01*
X180116190Y-30385238D02*
X180125714Y-30366190D01*
X180135238Y-30356666D01*
X180154285Y-30347142D01*
X180173333Y-30347142D01*
X180325714Y-30480476D02*
X180325714Y-30375714D01*
X180316190Y-30356666D01*
X180297142Y-30347142D01*
X180259047Y-30347142D01*
X180240000Y-30356666D01*
X180325714Y-30470952D02*
X180306666Y-30480476D01*
X180259047Y-30480476D01*
X180240000Y-30470952D01*
X180230476Y-30451904D01*
X180230476Y-30432857D01*
X180240000Y-30413809D01*
X180259047Y-30404285D01*
X180306666Y-30404285D01*
X180325714Y-30394761D01*
X180506666Y-30470952D02*
X180487619Y-30480476D01*
X180449523Y-30480476D01*
X180430476Y-30470952D01*
X180420952Y-30461428D01*
X180411428Y-30442380D01*
X180411428Y-30385238D01*
X180420952Y-30366190D01*
X180430476Y-30356666D01*
X180449523Y-30347142D01*
X180487619Y-30347142D01*
X180506666Y-30356666D01*
X180592380Y-30480476D02*
X180592380Y-30280476D01*
X180611428Y-30404285D02*
X180668571Y-30480476D01*
X180668571Y-30347142D02*
X180592380Y-30423333D01*
X180744761Y-30470952D02*
X180763809Y-30480476D01*
X180801904Y-30480476D01*
X180820952Y-30470952D01*
X180830476Y-30451904D01*
X180830476Y-30442380D01*
X180820952Y-30423333D01*
X180801904Y-30413809D01*
X180773333Y-30413809D01*
X180754285Y-30404285D01*
X180744761Y-30385238D01*
X180744761Y-30375714D01*
X180754285Y-30356666D01*
X180773333Y-30347142D01*
X180801904Y-30347142D01*
X180820952Y-30356666D01*
X183659047Y-30480476D02*
X183659047Y-30280476D01*
X183773333Y-30480476D01*
X183773333Y-30280476D01*
X183897142Y-30480476D02*
X183878095Y-30470952D01*
X183868571Y-30461428D01*
X183859047Y-30442380D01*
X183859047Y-30385238D01*
X183868571Y-30366190D01*
X183878095Y-30356666D01*
X183897142Y-30347142D01*
X183925714Y-30347142D01*
X183944761Y-30356666D01*
X183954285Y-30366190D01*
X183963809Y-30385238D01*
X183963809Y-30442380D01*
X183954285Y-30461428D01*
X183944761Y-30470952D01*
X183925714Y-30480476D01*
X183897142Y-30480476D01*
X184268571Y-30375714D02*
X184201904Y-30375714D01*
X184201904Y-30480476D02*
X184201904Y-30280476D01*
X184297142Y-30280476D01*
X184373333Y-30461428D02*
X184382857Y-30470952D01*
X184373333Y-30480476D01*
X184363809Y-30470952D01*
X184373333Y-30461428D01*
X184373333Y-30480476D01*
X184582857Y-30461428D02*
X184573333Y-30470952D01*
X184544761Y-30480476D01*
X184525714Y-30480476D01*
X184497142Y-30470952D01*
X184478095Y-30451904D01*
X184468571Y-30432857D01*
X184459047Y-30394761D01*
X184459047Y-30366190D01*
X184468571Y-30328095D01*
X184478095Y-30309047D01*
X184497142Y-30290000D01*
X184525714Y-30280476D01*
X184544761Y-30280476D01*
X184573333Y-30290000D01*
X184582857Y-30299523D01*
X184754285Y-30347142D02*
X184754285Y-30480476D01*
X184668571Y-30347142D02*
X184668571Y-30451904D01*
X184678095Y-30470952D01*
X184697142Y-30480476D01*
X184725714Y-30480476D01*
X184744761Y-30470952D01*
X184754285Y-30461428D01*
X184973333Y-30347142D02*
X185049523Y-30347142D01*
X185001904Y-30280476D02*
X185001904Y-30451904D01*
X185011428Y-30470952D01*
X185030476Y-30480476D01*
X185049523Y-30480476D01*
X185116190Y-30480476D02*
X185116190Y-30347142D01*
X185116190Y-30385238D02*
X185125714Y-30366190D01*
X185135238Y-30356666D01*
X185154285Y-30347142D01*
X185173333Y-30347142D01*
X185325714Y-30480476D02*
X185325714Y-30375714D01*
X185316190Y-30356666D01*
X185297142Y-30347142D01*
X185259047Y-30347142D01*
X185240000Y-30356666D01*
X185325714Y-30470952D02*
X185306666Y-30480476D01*
X185259047Y-30480476D01*
X185240000Y-30470952D01*
X185230476Y-30451904D01*
X185230476Y-30432857D01*
X185240000Y-30413809D01*
X185259047Y-30404285D01*
X185306666Y-30404285D01*
X185325714Y-30394761D01*
X185506666Y-30470952D02*
X185487619Y-30480476D01*
X185449523Y-30480476D01*
X185430476Y-30470952D01*
X185420952Y-30461428D01*
X185411428Y-30442380D01*
X185411428Y-30385238D01*
X185420952Y-30366190D01*
X185430476Y-30356666D01*
X185449523Y-30347142D01*
X185487619Y-30347142D01*
X185506666Y-30356666D01*
X185592380Y-30480476D02*
X185592380Y-30280476D01*
X185611428Y-30404285D02*
X185668571Y-30480476D01*
X185668571Y-30347142D02*
X185592380Y-30423333D01*
X185744761Y-30470952D02*
X185763809Y-30480476D01*
X185801904Y-30480476D01*
X185820952Y-30470952D01*
X185830476Y-30451904D01*
X185830476Y-30442380D01*
X185820952Y-30423333D01*
X185801904Y-30413809D01*
X185773333Y-30413809D01*
X185754285Y-30404285D01*
X185744761Y-30385238D01*
X185744761Y-30375714D01*
X185754285Y-30356666D01*
X185773333Y-30347142D01*
X185801904Y-30347142D01*
X185820952Y-30356666D01*
D13*
G04 #@! TO.C,J3*
X207651904Y-70020952D02*
X207651904Y-69620952D01*
X207880476Y-70020952D02*
X207709047Y-69792380D01*
X207880476Y-69620952D02*
X207651904Y-69849523D01*
X208051904Y-69811428D02*
X208185238Y-69811428D01*
X208242380Y-70020952D02*
X208051904Y-70020952D01*
X208051904Y-69620952D01*
X208242380Y-69620952D01*
X208413809Y-69811428D02*
X208547142Y-69811428D01*
X208604285Y-70020952D02*
X208413809Y-70020952D01*
X208413809Y-69620952D01*
X208604285Y-69620952D01*
X208775714Y-70020952D02*
X208775714Y-69620952D01*
X208928095Y-69620952D01*
X208966190Y-69640000D01*
X208985238Y-69659047D01*
X209004285Y-69697142D01*
X209004285Y-69754285D01*
X208985238Y-69792380D01*
X208966190Y-69811428D01*
X208928095Y-69830476D01*
X208775714Y-69830476D01*
X209251904Y-69620952D02*
X209328095Y-69620952D01*
X209366190Y-69640000D01*
X209404285Y-69678095D01*
X209423333Y-69754285D01*
X209423333Y-69887619D01*
X209404285Y-69963809D01*
X209366190Y-70001904D01*
X209328095Y-70020952D01*
X209251904Y-70020952D01*
X209213809Y-70001904D01*
X209175714Y-69963809D01*
X209156666Y-69887619D01*
X209156666Y-69754285D01*
X209175714Y-69678095D01*
X209213809Y-69640000D01*
X209251904Y-69620952D01*
X209594761Y-69620952D02*
X209594761Y-69944761D01*
X209613809Y-69982857D01*
X209632857Y-70001904D01*
X209670952Y-70020952D01*
X209747142Y-70020952D01*
X209785238Y-70001904D01*
X209804285Y-69982857D01*
X209823333Y-69944761D01*
X209823333Y-69620952D01*
X209956666Y-69620952D02*
X210185238Y-69620952D01*
X210070952Y-70020952D02*
X210070952Y-69620952D01*
G04 #@! TD*
M02*
