G04 #@! TF.GenerationSoftware,KiCad,Pcbnew,(6.0.7)*
G04 #@! TF.CreationDate,2023-01-16T00:23:35-06:00*
G04 #@! TF.ProjectId,OpenRectangle,4f70656e-5265-4637-9461-6e676c652e6b,rev?*
G04 #@! TF.SameCoordinates,Original*
G04 #@! TF.FileFunction,Other,Comment*
%FSLAX46Y46*%
G04 Gerber Fmt 4.6, Leading zero omitted, Abs format (unit mm)*
G04 Created by KiCad (PCBNEW (6.0.7)) date 2023-01-16 00:23:35*
%MOMM*%
%LPD*%
G01*
G04 APERTURE LIST*
%ADD10C,0.100000*%
%ADD11C,0.150000*%
%ADD12C,0.030000*%
%ADD13C,0.070000*%
G04 APERTURE END LIST*
D10*
X325513500Y-44322866D02*
X339513500Y-44322866D01*
X118673500Y-41928866D02*
G75*
G03*
X118673500Y-41928866I-3500000J0D01*
G01*
X176923500Y-51928866D02*
G75*
G03*
X176923500Y-51928866I-7750000J0D01*
G01*
X240938500Y-133062866D02*
X254938500Y-133062866D01*
X173996134Y-123745862D02*
G75*
G03*
X173996134Y-123745862I-1500000J0D01*
G01*
X341673534Y-140428866D02*
G75*
G03*
X333673503Y-132428866I-8000034J-34D01*
G01*
X140396446Y-168739635D02*
X135475773Y-163818962D01*
X132805500Y-148477866D02*
X132805500Y-134477866D01*
X88702964Y-74878792D02*
X87173499Y-73928865D01*
X115908718Y-150308906D02*
X106304608Y-141928866D01*
X191578500Y-67326866D02*
X191578500Y-81326866D01*
X270640500Y-39343866D02*
X270640500Y-53343866D01*
X50173498Y-76928865D02*
X50173498Y-85928865D01*
X367667800Y-29778324D02*
X367713776Y-47912903D01*
X339513500Y-71932866D02*
X339513500Y-57932866D01*
X106304608Y-141928866D02*
X106304608Y-74878792D01*
X221173501Y-115928866D02*
X221173501Y-86928865D01*
X277625500Y-117292866D02*
X277625500Y-103292866D01*
X191173500Y-86928865D02*
X191173500Y-115928866D01*
X365736500Y-73968866D02*
X351736500Y-73968866D01*
X70918500Y-72289866D02*
X70918500Y-58289866D01*
X325513500Y-57932866D02*
X325513500Y-71932866D01*
X322923534Y-150928866D02*
G75*
G03*
X326173500Y-154178866I3249966J-34D01*
G01*
X225290238Y-38224765D02*
G75*
G03*
X225290238Y-38224765I-1500000J0D01*
G01*
X330923500Y-132428900D02*
G75*
G03*
X322923500Y-140428866I0J-8000000D01*
G01*
X240938500Y-164247866D02*
X254938500Y-164247866D01*
X191578500Y-81326866D02*
X205578500Y-81326866D01*
X270640500Y-53343866D02*
X284640500Y-53343866D01*
X141493500Y-164246866D02*
X155493500Y-164246866D01*
X33173498Y-112928865D02*
X28173498Y-107928865D01*
X240938500Y-119062866D02*
X240938500Y-133062866D01*
X205578500Y-67326866D02*
X191578500Y-67326866D01*
X263625500Y-103292866D02*
X263625500Y-117292866D01*
D11*
X190860000Y-88285000D02*
X190860000Y-108315000D01*
D10*
X76104764Y-74878792D02*
X71173499Y-76928865D01*
X284640500Y-80952866D02*
X284640500Y-66952866D01*
X286282500Y-133062866D02*
X300282500Y-133062866D01*
X364020105Y-168739635D02*
X140396446Y-168739635D01*
X28173498Y-63718031D02*
X74218180Y-24528329D01*
X28173500Y-78204101D02*
G75*
G03*
X28173498Y-84981632I10465000J-3388769D01*
G01*
X333673503Y-154178903D02*
G75*
G03*
X341673503Y-146178866I-3J8000003D01*
G01*
X367741305Y-58759258D02*
G75*
G03*
X367713776Y-47912903I-9004805J5400358D01*
G01*
X270640500Y-66952866D02*
X270640500Y-80952866D01*
X118805500Y-148477866D02*
X132805500Y-148477866D01*
X191173500Y-115928866D02*
X221173501Y-115928866D01*
X49173498Y-92121746D02*
X49173498Y-107928865D01*
X311158500Y-68957866D02*
X311158500Y-54957866D01*
X111846500Y-67326866D02*
X111846500Y-81326866D01*
X189673500Y-152928866D02*
G75*
G03*
X189673500Y-152928866I-3500000J0D01*
G01*
X311158500Y-41347866D02*
X311158500Y-27347866D01*
X81438656Y-35609145D02*
G75*
G03*
X81438656Y-35609145I-1500000J0D01*
G01*
X85274500Y-55563866D02*
X85274500Y-69563866D01*
X28173498Y-107928865D02*
X28173498Y-84981632D01*
X99274500Y-69563866D02*
X99274500Y-55563866D01*
X297158500Y-68957866D02*
X311158500Y-68957866D01*
X44173498Y-112928865D02*
X33173498Y-112928865D01*
X135475773Y-163818962D02*
X122673499Y-152428866D01*
X237673500Y-63928866D02*
G75*
G03*
X237673500Y-63928866I-3500000J0D01*
G01*
X341673503Y-146178866D02*
X341673503Y-140428866D01*
X263625500Y-117292866D02*
X277625500Y-117292866D01*
X307708268Y-23936375D02*
X361688997Y-23799520D01*
X40051918Y-101092807D02*
G75*
G03*
X40051918Y-101092807I-1500000J0D01*
G01*
X237423500Y-118928866D02*
G75*
G03*
X237423500Y-118928866I-5250000J0D01*
G01*
X365736500Y-46358866D02*
X351736500Y-46358866D01*
X263625500Y-134477866D02*
X263625500Y-148477866D01*
X205578500Y-81326866D02*
X205578500Y-67326866D01*
X351736500Y-73968866D02*
X351736500Y-87968866D01*
X351736500Y-60358866D02*
X365736500Y-60358866D01*
X191578500Y-81326866D02*
X205578500Y-81326866D01*
X71173499Y-76928865D02*
X50173498Y-76928865D01*
X155493500Y-150246866D02*
X141493500Y-150246866D01*
X31638500Y-74592866D02*
X31638500Y-88592866D01*
X141493500Y-150246866D02*
X141493500Y-164246866D01*
X262173501Y-29051817D02*
X267173485Y-24039140D01*
X50173498Y-85928865D02*
X49173498Y-92121746D01*
X325513500Y-30322866D02*
X325513500Y-44322866D01*
X307673502Y-153928866D02*
G75*
G03*
X307673502Y-153928866I-1500000J0D01*
G01*
X267173485Y-24039140D02*
X300555987Y-23954508D01*
X367810973Y-86251284D02*
X368009960Y-164739651D01*
X28173498Y-78204100D02*
X28173498Y-63718031D01*
X240938500Y-150247866D02*
X240938500Y-164247866D01*
X326173500Y-154178866D02*
X333673503Y-154178866D01*
X311158500Y-27347866D02*
X297158500Y-27347866D01*
X74218180Y-24528329D02*
X219057856Y-24161125D01*
X205578500Y-67326866D02*
X191578500Y-67326866D01*
X45638500Y-88592866D02*
X45638500Y-74592866D01*
X31638500Y-88592866D02*
X45638500Y-88592866D01*
X70918500Y-58289866D02*
X56918500Y-58289866D01*
X56918500Y-72289866D02*
X70918500Y-72289866D01*
X191578500Y-67326866D02*
X191578500Y-81326866D01*
X254938500Y-119062866D02*
X240938500Y-119062866D01*
X119517015Y-150994132D02*
X115908718Y-150308906D01*
X277625500Y-103292866D02*
X263625500Y-103292866D01*
X125846500Y-81326866D02*
X125846500Y-67326866D01*
X367811002Y-86251301D02*
G75*
G03*
X367784072Y-75640505I-9074502J5282401D01*
G01*
X300282500Y-133062866D02*
X300282500Y-119062866D01*
X351736500Y-87968866D02*
X365736500Y-87968866D01*
X45638500Y-74592866D02*
X31638500Y-74592866D01*
X339513500Y-30322866D02*
X325513500Y-30322866D01*
X325513500Y-71932866D02*
X339513500Y-71932866D01*
X311158500Y-54957866D02*
X297158500Y-54957866D01*
X221173501Y-86928865D02*
X191173500Y-86928865D01*
X300282500Y-119062866D02*
X286282500Y-119062866D01*
X254938500Y-150247866D02*
X240938500Y-150247866D01*
X297158500Y-54957866D02*
X297158500Y-68957866D01*
X122673499Y-152428866D02*
X119517015Y-150994132D01*
X297158500Y-41347866D02*
X311158500Y-41347866D01*
X118805500Y-134477866D02*
X118805500Y-148477866D01*
X365736500Y-60358866D02*
X365736500Y-46358866D01*
X339513500Y-44322866D02*
X339513500Y-30322866D01*
X205578500Y-81326866D02*
X205578500Y-67326866D01*
X106304608Y-74878792D02*
X88702964Y-74878792D01*
X365736500Y-87968866D02*
X365736500Y-73968866D01*
X351736500Y-46358866D02*
X351736500Y-60358866D01*
X277625500Y-148477866D02*
X277625500Y-134477866D01*
X321673500Y-46928866D02*
G75*
G03*
X321673500Y-46928866I-3500000J0D01*
G01*
X132805500Y-134477866D02*
X118805500Y-134477866D01*
X56918500Y-58289866D02*
X56918500Y-72289866D01*
X368009960Y-164739651D02*
X364020105Y-168739635D01*
X155493500Y-164246866D02*
X155493500Y-150246866D01*
X286282500Y-119062866D02*
X286282500Y-133062866D01*
X322923500Y-140428866D02*
X322923500Y-150928866D01*
X339513500Y-57932866D02*
X325513500Y-57932866D01*
X219057856Y-24161125D02*
X224057840Y-29148449D01*
X87173499Y-73928865D02*
X77173499Y-73928865D01*
X254938500Y-164247866D02*
X254938500Y-150247866D01*
X361688997Y-23799520D02*
X367667800Y-29778324D01*
X284640500Y-53343866D02*
X284640500Y-39343866D01*
X284640500Y-66952866D02*
X270640500Y-66952866D01*
X77173499Y-73928865D02*
X76104764Y-74878792D01*
X85274500Y-69563866D02*
X99274500Y-69563866D01*
X263625500Y-148477866D02*
X277625500Y-148477866D01*
X284640500Y-39343866D02*
X270640500Y-39343866D01*
X111846500Y-81326866D02*
X125846500Y-81326866D01*
X125846500Y-67326866D02*
X111846500Y-67326866D01*
X270640500Y-80952866D02*
X284640500Y-80952866D01*
X277625500Y-134477866D02*
X263625500Y-134477866D01*
X49173498Y-107928865D02*
X44173498Y-112928865D01*
X357673500Y-31928866D02*
G75*
G03*
X357673500Y-31928866I-1500000J0D01*
G01*
X254938500Y-133062866D02*
X254938500Y-119062866D01*
X307708268Y-23936375D02*
G75*
G03*
X300555987Y-23954508I-3549768J-10411525D01*
G01*
X224057840Y-29148449D02*
X262173501Y-29051817D01*
X367741274Y-58759240D02*
X367784072Y-75640505D01*
X333673503Y-132428866D02*
X330923500Y-132428866D01*
X99274500Y-55563866D02*
X85274500Y-55563866D01*
X297158500Y-27347866D02*
X297158500Y-41347866D01*
D12*
G04 #@! TO.C,SW41*
X187900476Y-33214285D02*
X187700476Y-33214285D01*
X187900476Y-33100000D02*
X187786190Y-33185714D01*
X187700476Y-33100000D02*
X187814761Y-33214285D01*
X187795714Y-33014285D02*
X187795714Y-32947619D01*
X187900476Y-32919047D02*
X187900476Y-33014285D01*
X187700476Y-33014285D01*
X187700476Y-32919047D01*
X187795714Y-32833333D02*
X187795714Y-32766666D01*
X187900476Y-32738095D02*
X187900476Y-32833333D01*
X187700476Y-32833333D01*
X187700476Y-32738095D01*
X187900476Y-32652380D02*
X187700476Y-32652380D01*
X187700476Y-32576190D01*
X187710000Y-32557142D01*
X187719523Y-32547619D01*
X187738571Y-32538095D01*
X187767142Y-32538095D01*
X187786190Y-32547619D01*
X187795714Y-32557142D01*
X187805238Y-32576190D01*
X187805238Y-32652380D01*
X187824285Y-32452380D02*
X187824285Y-32300000D01*
X187700476Y-32166666D02*
X187700476Y-32128571D01*
X187710000Y-32109523D01*
X187729047Y-32090476D01*
X187767142Y-32080952D01*
X187833809Y-32080952D01*
X187871904Y-32090476D01*
X187890952Y-32109523D01*
X187900476Y-32128571D01*
X187900476Y-32166666D01*
X187890952Y-32185714D01*
X187871904Y-32204761D01*
X187833809Y-32214285D01*
X187767142Y-32214285D01*
X187729047Y-32204761D01*
X187710000Y-32185714D01*
X187700476Y-32166666D01*
X187700476Y-31995238D02*
X187862380Y-31995238D01*
X187881428Y-31985714D01*
X187890952Y-31976190D01*
X187900476Y-31957142D01*
X187900476Y-31919047D01*
X187890952Y-31900000D01*
X187881428Y-31890476D01*
X187862380Y-31880952D01*
X187700476Y-31880952D01*
X187700476Y-31814285D02*
X187700476Y-31700000D01*
X187900476Y-31757142D02*
X187700476Y-31757142D01*
X187700476Y-31500000D02*
X187700476Y-31366666D01*
X187900476Y-31500000D01*
X187900476Y-31366666D01*
X187700476Y-31252380D02*
X187700476Y-31214285D01*
X187710000Y-31195238D01*
X187729047Y-31176190D01*
X187767142Y-31166666D01*
X187833809Y-31166666D01*
X187871904Y-31176190D01*
X187890952Y-31195238D01*
X187900476Y-31214285D01*
X187900476Y-31252380D01*
X187890952Y-31271428D01*
X187871904Y-31290476D01*
X187833809Y-31300000D01*
X187767142Y-31300000D01*
X187729047Y-31290476D01*
X187710000Y-31271428D01*
X187700476Y-31252380D01*
X187900476Y-31080952D02*
X187700476Y-31080952D01*
X187900476Y-30966666D01*
X187700476Y-30966666D01*
X187795714Y-30871428D02*
X187795714Y-30804761D01*
X187900476Y-30776190D02*
X187900476Y-30871428D01*
X187700476Y-30871428D01*
X187700476Y-30776190D01*
X187900476Y-38214285D02*
X187700476Y-38214285D01*
X187900476Y-38100000D02*
X187786190Y-38185714D01*
X187700476Y-38100000D02*
X187814761Y-38214285D01*
X187795714Y-38014285D02*
X187795714Y-37947619D01*
X187900476Y-37919047D02*
X187900476Y-38014285D01*
X187700476Y-38014285D01*
X187700476Y-37919047D01*
X187795714Y-37833333D02*
X187795714Y-37766666D01*
X187900476Y-37738095D02*
X187900476Y-37833333D01*
X187700476Y-37833333D01*
X187700476Y-37738095D01*
X187900476Y-37652380D02*
X187700476Y-37652380D01*
X187700476Y-37576190D01*
X187710000Y-37557142D01*
X187719523Y-37547619D01*
X187738571Y-37538095D01*
X187767142Y-37538095D01*
X187786190Y-37547619D01*
X187795714Y-37557142D01*
X187805238Y-37576190D01*
X187805238Y-37652380D01*
X187824285Y-37452380D02*
X187824285Y-37300000D01*
X187700476Y-37166666D02*
X187700476Y-37128571D01*
X187710000Y-37109523D01*
X187729047Y-37090476D01*
X187767142Y-37080952D01*
X187833809Y-37080952D01*
X187871904Y-37090476D01*
X187890952Y-37109523D01*
X187900476Y-37128571D01*
X187900476Y-37166666D01*
X187890952Y-37185714D01*
X187871904Y-37204761D01*
X187833809Y-37214285D01*
X187767142Y-37214285D01*
X187729047Y-37204761D01*
X187710000Y-37185714D01*
X187700476Y-37166666D01*
X187700476Y-36995238D02*
X187862380Y-36995238D01*
X187881428Y-36985714D01*
X187890952Y-36976190D01*
X187900476Y-36957142D01*
X187900476Y-36919047D01*
X187890952Y-36900000D01*
X187881428Y-36890476D01*
X187862380Y-36880952D01*
X187700476Y-36880952D01*
X187700476Y-36814285D02*
X187700476Y-36700000D01*
X187900476Y-36757142D02*
X187700476Y-36757142D01*
X187700476Y-36500000D02*
X187700476Y-36366666D01*
X187900476Y-36500000D01*
X187900476Y-36366666D01*
X187700476Y-36252380D02*
X187700476Y-36214285D01*
X187710000Y-36195238D01*
X187729047Y-36176190D01*
X187767142Y-36166666D01*
X187833809Y-36166666D01*
X187871904Y-36176190D01*
X187890952Y-36195238D01*
X187900476Y-36214285D01*
X187900476Y-36252380D01*
X187890952Y-36271428D01*
X187871904Y-36290476D01*
X187833809Y-36300000D01*
X187767142Y-36300000D01*
X187729047Y-36290476D01*
X187710000Y-36271428D01*
X187700476Y-36252380D01*
X187900476Y-36080952D02*
X187700476Y-36080952D01*
X187900476Y-35966666D01*
X187700476Y-35966666D01*
X187795714Y-35871428D02*
X187795714Y-35804761D01*
X187900476Y-35776190D02*
X187900476Y-35871428D01*
X187700476Y-35871428D01*
X187700476Y-35776190D01*
X187500476Y-33080952D02*
X187300476Y-33080952D01*
X187500476Y-32966666D01*
X187300476Y-32966666D01*
X187500476Y-32842857D02*
X187490952Y-32861904D01*
X187481428Y-32871428D01*
X187462380Y-32880952D01*
X187405238Y-32880952D01*
X187386190Y-32871428D01*
X187376666Y-32861904D01*
X187367142Y-32842857D01*
X187367142Y-32814285D01*
X187376666Y-32795238D01*
X187386190Y-32785714D01*
X187405238Y-32776190D01*
X187462380Y-32776190D01*
X187481428Y-32785714D01*
X187490952Y-32795238D01*
X187500476Y-32814285D01*
X187500476Y-32842857D01*
X187395714Y-32471428D02*
X187395714Y-32538095D01*
X187500476Y-32538095D02*
X187300476Y-32538095D01*
X187300476Y-32442857D01*
X187481428Y-32366666D02*
X187490952Y-32357142D01*
X187500476Y-32366666D01*
X187490952Y-32376190D01*
X187481428Y-32366666D01*
X187500476Y-32366666D01*
X187481428Y-32157142D02*
X187490952Y-32166666D01*
X187500476Y-32195238D01*
X187500476Y-32214285D01*
X187490952Y-32242857D01*
X187471904Y-32261904D01*
X187452857Y-32271428D01*
X187414761Y-32280952D01*
X187386190Y-32280952D01*
X187348095Y-32271428D01*
X187329047Y-32261904D01*
X187310000Y-32242857D01*
X187300476Y-32214285D01*
X187300476Y-32195238D01*
X187310000Y-32166666D01*
X187319523Y-32157142D01*
X187367142Y-31985714D02*
X187500476Y-31985714D01*
X187367142Y-32071428D02*
X187471904Y-32071428D01*
X187490952Y-32061904D01*
X187500476Y-32042857D01*
X187500476Y-32014285D01*
X187490952Y-31995238D01*
X187481428Y-31985714D01*
X187367142Y-31766666D02*
X187367142Y-31690476D01*
X187300476Y-31738095D02*
X187471904Y-31738095D01*
X187490952Y-31728571D01*
X187500476Y-31709523D01*
X187500476Y-31690476D01*
X187500476Y-31623809D02*
X187367142Y-31623809D01*
X187405238Y-31623809D02*
X187386190Y-31614285D01*
X187376666Y-31604761D01*
X187367142Y-31585714D01*
X187367142Y-31566666D01*
X187500476Y-31414285D02*
X187395714Y-31414285D01*
X187376666Y-31423809D01*
X187367142Y-31442857D01*
X187367142Y-31480952D01*
X187376666Y-31500000D01*
X187490952Y-31414285D02*
X187500476Y-31433333D01*
X187500476Y-31480952D01*
X187490952Y-31500000D01*
X187471904Y-31509523D01*
X187452857Y-31509523D01*
X187433809Y-31500000D01*
X187424285Y-31480952D01*
X187424285Y-31433333D01*
X187414761Y-31414285D01*
X187490952Y-31233333D02*
X187500476Y-31252380D01*
X187500476Y-31290476D01*
X187490952Y-31309523D01*
X187481428Y-31319047D01*
X187462380Y-31328571D01*
X187405238Y-31328571D01*
X187386190Y-31319047D01*
X187376666Y-31309523D01*
X187367142Y-31290476D01*
X187367142Y-31252380D01*
X187376666Y-31233333D01*
X187500476Y-31147619D02*
X187300476Y-31147619D01*
X187424285Y-31128571D02*
X187500476Y-31071428D01*
X187367142Y-31071428D02*
X187443333Y-31147619D01*
X187490952Y-30995238D02*
X187500476Y-30976190D01*
X187500476Y-30938095D01*
X187490952Y-30919047D01*
X187471904Y-30909523D01*
X187462380Y-30909523D01*
X187443333Y-30919047D01*
X187433809Y-30938095D01*
X187433809Y-30966666D01*
X187424285Y-30985714D01*
X187405238Y-30995238D01*
X187395714Y-30995238D01*
X187376666Y-30985714D01*
X187367142Y-30966666D01*
X187367142Y-30938095D01*
X187376666Y-30919047D01*
X187500476Y-38080952D02*
X187300476Y-38080952D01*
X187500476Y-37966666D01*
X187300476Y-37966666D01*
X187500476Y-37842857D02*
X187490952Y-37861904D01*
X187481428Y-37871428D01*
X187462380Y-37880952D01*
X187405238Y-37880952D01*
X187386190Y-37871428D01*
X187376666Y-37861904D01*
X187367142Y-37842857D01*
X187367142Y-37814285D01*
X187376666Y-37795238D01*
X187386190Y-37785714D01*
X187405238Y-37776190D01*
X187462380Y-37776190D01*
X187481428Y-37785714D01*
X187490952Y-37795238D01*
X187500476Y-37814285D01*
X187500476Y-37842857D01*
X187395714Y-37471428D02*
X187395714Y-37538095D01*
X187500476Y-37538095D02*
X187300476Y-37538095D01*
X187300476Y-37442857D01*
X187481428Y-37366666D02*
X187490952Y-37357142D01*
X187500476Y-37366666D01*
X187490952Y-37376190D01*
X187481428Y-37366666D01*
X187500476Y-37366666D01*
X187481428Y-37157142D02*
X187490952Y-37166666D01*
X187500476Y-37195238D01*
X187500476Y-37214285D01*
X187490952Y-37242857D01*
X187471904Y-37261904D01*
X187452857Y-37271428D01*
X187414761Y-37280952D01*
X187386190Y-37280952D01*
X187348095Y-37271428D01*
X187329047Y-37261904D01*
X187310000Y-37242857D01*
X187300476Y-37214285D01*
X187300476Y-37195238D01*
X187310000Y-37166666D01*
X187319523Y-37157142D01*
X187367142Y-36985714D02*
X187500476Y-36985714D01*
X187367142Y-37071428D02*
X187471904Y-37071428D01*
X187490952Y-37061904D01*
X187500476Y-37042857D01*
X187500476Y-37014285D01*
X187490952Y-36995238D01*
X187481428Y-36985714D01*
X187367142Y-36766666D02*
X187367142Y-36690476D01*
X187300476Y-36738095D02*
X187471904Y-36738095D01*
X187490952Y-36728571D01*
X187500476Y-36709523D01*
X187500476Y-36690476D01*
X187500476Y-36623809D02*
X187367142Y-36623809D01*
X187405238Y-36623809D02*
X187386190Y-36614285D01*
X187376666Y-36604761D01*
X187367142Y-36585714D01*
X187367142Y-36566666D01*
X187500476Y-36414285D02*
X187395714Y-36414285D01*
X187376666Y-36423809D01*
X187367142Y-36442857D01*
X187367142Y-36480952D01*
X187376666Y-36500000D01*
X187490952Y-36414285D02*
X187500476Y-36433333D01*
X187500476Y-36480952D01*
X187490952Y-36500000D01*
X187471904Y-36509523D01*
X187452857Y-36509523D01*
X187433809Y-36500000D01*
X187424285Y-36480952D01*
X187424285Y-36433333D01*
X187414761Y-36414285D01*
X187490952Y-36233333D02*
X187500476Y-36252380D01*
X187500476Y-36290476D01*
X187490952Y-36309523D01*
X187481428Y-36319047D01*
X187462380Y-36328571D01*
X187405238Y-36328571D01*
X187386190Y-36319047D01*
X187376666Y-36309523D01*
X187367142Y-36290476D01*
X187367142Y-36252380D01*
X187376666Y-36233333D01*
X187500476Y-36147619D02*
X187300476Y-36147619D01*
X187424285Y-36128571D02*
X187500476Y-36071428D01*
X187367142Y-36071428D02*
X187443333Y-36147619D01*
X187490952Y-35995238D02*
X187500476Y-35976190D01*
X187500476Y-35938095D01*
X187490952Y-35919047D01*
X187471904Y-35909523D01*
X187462380Y-35909523D01*
X187443333Y-35919047D01*
X187433809Y-35938095D01*
X187433809Y-35966666D01*
X187424285Y-35985714D01*
X187405238Y-35995238D01*
X187395714Y-35995238D01*
X187376666Y-35985714D01*
X187367142Y-35966666D01*
X187367142Y-35938095D01*
X187376666Y-35919047D01*
D13*
G04 #@! TO.C,J2*
X206030952Y-67358095D02*
X205630952Y-67358095D01*
X206030952Y-67129523D02*
X205802380Y-67300952D01*
X205630952Y-67129523D02*
X205859523Y-67358095D01*
X205821428Y-66958095D02*
X205821428Y-66824761D01*
X206030952Y-66767619D02*
X206030952Y-66958095D01*
X205630952Y-66958095D01*
X205630952Y-66767619D01*
X205821428Y-66596190D02*
X205821428Y-66462857D01*
X206030952Y-66405714D02*
X206030952Y-66596190D01*
X205630952Y-66596190D01*
X205630952Y-66405714D01*
X206030952Y-66234285D02*
X205630952Y-66234285D01*
X205630952Y-66081904D01*
X205650000Y-66043809D01*
X205669047Y-66024761D01*
X205707142Y-66005714D01*
X205764285Y-66005714D01*
X205802380Y-66024761D01*
X205821428Y-66043809D01*
X205840476Y-66081904D01*
X205840476Y-66234285D01*
X205630952Y-65758095D02*
X205630952Y-65681904D01*
X205650000Y-65643809D01*
X205688095Y-65605714D01*
X205764285Y-65586666D01*
X205897619Y-65586666D01*
X205973809Y-65605714D01*
X206011904Y-65643809D01*
X206030952Y-65681904D01*
X206030952Y-65758095D01*
X206011904Y-65796190D01*
X205973809Y-65834285D01*
X205897619Y-65853333D01*
X205764285Y-65853333D01*
X205688095Y-65834285D01*
X205650000Y-65796190D01*
X205630952Y-65758095D01*
X205630952Y-65415238D02*
X205954761Y-65415238D01*
X205992857Y-65396190D01*
X206011904Y-65377142D01*
X206030952Y-65339047D01*
X206030952Y-65262857D01*
X206011904Y-65224761D01*
X205992857Y-65205714D01*
X205954761Y-65186666D01*
X205630952Y-65186666D01*
X205630952Y-65053333D02*
X205630952Y-64824761D01*
X206030952Y-64939047D02*
X205630952Y-64939047D01*
D11*
G04 #@! TO.C,H5*
X281175000Y-96760000D02*
G75*
G03*
X281175000Y-96760000I-1900000J0D01*
G01*
G04 #@! TO.C,H4*
X339365000Y-51080000D02*
G75*
G03*
X339365000Y-51080000I-1900000J0D01*
G01*
G04 #@! TO.C,H7*
X120015000Y-96760000D02*
G75*
G03*
X120015000Y-96760000I-1900000J0D01*
G01*
G04 #@! TO.C,H8*
X59295000Y-143800000D02*
G75*
G03*
X59295000Y-143800000I-1900000J0D01*
G01*
G04 #@! TO.C,H2*
X161140000Y-60710000D02*
G75*
G03*
X161140000Y-60710000I-1900000J0D01*
G01*
G04 #@! TO.C,H1*
X240050000Y-60710000D02*
G75*
G03*
X240050000Y-60710000I-1900000J0D01*
G01*
G04 #@! TO.C,H3*
X61825000Y-51080000D02*
G75*
G03*
X61825000Y-51080000I-1900000J0D01*
G01*
G04 #@! TO.C,H6*
X341895000Y-143800000D02*
G75*
G03*
X341895000Y-143800000I-1900000J0D01*
G01*
G04 #@! TO.C,H10*
X222190000Y-34240000D02*
G75*
G03*
X222190000Y-34240000I-1900000J0D01*
G01*
G04 #@! TO.C,H9*
X179000000Y-34240000D02*
G75*
G03*
X179000000Y-34240000I-1900000J0D01*
G01*
G04 #@! TD*
M02*
