G04 #@! TF.GenerationSoftware,KiCad,Pcbnew,(6.0.7)*
G04 #@! TF.CreationDate,2023-01-25T00:46:19-06:00*
G04 #@! TF.ProjectId,OpenRectangle,4f70656e-5265-4637-9461-6e676c652e6b,rev?*
G04 #@! TF.SameCoordinates,Original*
G04 #@! TF.FileFunction,Legend,Top*
G04 #@! TF.FilePolarity,Positive*
%FSLAX46Y46*%
G04 Gerber Fmt 4.6, Leading zero omitted, Abs format (unit mm)*
G04 Created by KiCad (PCBNEW (6.0.7)) date 2023-01-25 00:46:19*
%MOMM*%
%LPD*%
G01*
G04 APERTURE LIST*
%ADD10C,0.150000*%
%ADD11C,0.120000*%
%ADD12C,0.200000*%
G04 APERTURE END LIST*
D10*
G04 #@! TO.C,SW41*
X191022857Y-35385238D02*
X191060952Y-35270952D01*
X191099047Y-35232857D01*
X191175238Y-35194761D01*
X191289523Y-35194761D01*
X191365714Y-35232857D01*
X191403809Y-35270952D01*
X191441904Y-35347142D01*
X191441904Y-35651904D01*
X190641904Y-35651904D01*
X190641904Y-35385238D01*
X190680000Y-35309047D01*
X190718095Y-35270952D01*
X190794285Y-35232857D01*
X190870476Y-35232857D01*
X190946666Y-35270952D01*
X190984761Y-35309047D01*
X191022857Y-35385238D01*
X191022857Y-35651904D01*
X191441904Y-34737619D02*
X191403809Y-34813809D01*
X191365714Y-34851904D01*
X191289523Y-34890000D01*
X191060952Y-34890000D01*
X190984761Y-34851904D01*
X190946666Y-34813809D01*
X190908571Y-34737619D01*
X190908571Y-34623333D01*
X190946666Y-34547142D01*
X190984761Y-34509047D01*
X191060952Y-34470952D01*
X191289523Y-34470952D01*
X191365714Y-34509047D01*
X191403809Y-34547142D01*
X191441904Y-34623333D01*
X191441904Y-34737619D01*
X191441904Y-34013809D02*
X191403809Y-34090000D01*
X191365714Y-34128095D01*
X191289523Y-34166190D01*
X191060952Y-34166190D01*
X190984761Y-34128095D01*
X190946666Y-34090000D01*
X190908571Y-34013809D01*
X190908571Y-33899523D01*
X190946666Y-33823333D01*
X190984761Y-33785238D01*
X191060952Y-33747142D01*
X191289523Y-33747142D01*
X191365714Y-33785238D01*
X191403809Y-33823333D01*
X191441904Y-33899523D01*
X191441904Y-34013809D01*
X190908571Y-33518571D02*
X190908571Y-33213809D01*
X190641904Y-33404285D02*
X191327619Y-33404285D01*
X191403809Y-33366190D01*
X191441904Y-33290000D01*
X191441904Y-33213809D01*
G04 #@! TO.C,C10*
X192399035Y-51581732D02*
X192427607Y-51610303D01*
X192456178Y-51696018D01*
X192456178Y-51753160D01*
X192427607Y-51838875D01*
X192370464Y-51896018D01*
X192313321Y-51924589D01*
X192199035Y-51953160D01*
X192113321Y-51953160D01*
X191999035Y-51924589D01*
X191941892Y-51896018D01*
X191884750Y-51838875D01*
X191856178Y-51753160D01*
X191856178Y-51696018D01*
X191884750Y-51610303D01*
X191913321Y-51581732D01*
X192456178Y-51010303D02*
X192456178Y-51353160D01*
X192456178Y-51181732D02*
X191856178Y-51181732D01*
X191941892Y-51238875D01*
X191999035Y-51296018D01*
X192027607Y-51353160D01*
X191856178Y-50638875D02*
X191856178Y-50581732D01*
X191884750Y-50524589D01*
X191913321Y-50496018D01*
X191970464Y-50467446D01*
X192084750Y-50438875D01*
X192227607Y-50438875D01*
X192341892Y-50467446D01*
X192399035Y-50496018D01*
X192427607Y-50524589D01*
X192456178Y-50581732D01*
X192456178Y-50638875D01*
X192427607Y-50696018D01*
X192399035Y-50724589D01*
X192341892Y-50753160D01*
X192227607Y-50781732D01*
X192084750Y-50781732D01*
X191970464Y-50753160D01*
X191913321Y-50724589D01*
X191884750Y-50696018D01*
X191856178Y-50638875D01*
G04 #@! TO.C,U1*
X202781428Y-38737142D02*
X203267142Y-38737142D01*
X203324285Y-38708571D01*
X203352857Y-38680000D01*
X203381428Y-38622857D01*
X203381428Y-38508571D01*
X203352857Y-38451428D01*
X203324285Y-38422857D01*
X203267142Y-38394285D01*
X202781428Y-38394285D01*
X203381428Y-37794285D02*
X203381428Y-38137142D01*
X203381428Y-37965714D02*
X202781428Y-37965714D01*
X202867142Y-38022857D01*
X202924285Y-38080000D01*
X202952857Y-38137142D01*
G04 #@! TO.C,C2*
X205340000Y-35114285D02*
X205311428Y-35142857D01*
X205225714Y-35171428D01*
X205168571Y-35171428D01*
X205082857Y-35142857D01*
X205025714Y-35085714D01*
X204997142Y-35028571D01*
X204968571Y-34914285D01*
X204968571Y-34828571D01*
X204997142Y-34714285D01*
X205025714Y-34657142D01*
X205082857Y-34600000D01*
X205168571Y-34571428D01*
X205225714Y-34571428D01*
X205311428Y-34600000D01*
X205340000Y-34628571D01*
X205568571Y-34628571D02*
X205597142Y-34600000D01*
X205654285Y-34571428D01*
X205797142Y-34571428D01*
X205854285Y-34600000D01*
X205882857Y-34628571D01*
X205911428Y-34685714D01*
X205911428Y-34742857D01*
X205882857Y-34828571D01*
X205540000Y-35171428D01*
X205911428Y-35171428D01*
G04 #@! TO.C,C8*
X206484010Y-57076461D02*
X206443604Y-57076461D01*
X206362792Y-57036055D01*
X206322386Y-56995648D01*
X206281979Y-56914836D01*
X206281979Y-56834024D01*
X206302182Y-56773415D01*
X206362792Y-56672400D01*
X206423401Y-56611791D01*
X206524416Y-56551181D01*
X206585025Y-56530978D01*
X206665837Y-56530978D01*
X206746650Y-56571384D01*
X206787056Y-56611791D01*
X206827462Y-56692603D01*
X206827462Y-56733009D01*
X206928477Y-57116867D02*
X206908274Y-57056258D01*
X206908274Y-57015852D01*
X206928477Y-56955242D01*
X206948680Y-56935039D01*
X207009289Y-56914836D01*
X207049695Y-56914836D01*
X207110305Y-56935039D01*
X207191117Y-57015852D01*
X207211320Y-57076461D01*
X207211320Y-57116867D01*
X207191117Y-57177476D01*
X207170914Y-57197679D01*
X207110305Y-57217882D01*
X207069898Y-57217882D01*
X207009289Y-57197679D01*
X206928477Y-57116867D01*
X206867868Y-57096664D01*
X206827462Y-57096664D01*
X206766853Y-57116867D01*
X206686040Y-57197679D01*
X206665837Y-57258288D01*
X206665837Y-57298694D01*
X206686040Y-57359303D01*
X206766853Y-57440116D01*
X206827462Y-57460319D01*
X206867868Y-57460319D01*
X206928477Y-57440116D01*
X207009289Y-57359303D01*
X207029492Y-57298694D01*
X207029492Y-57258288D01*
X207009289Y-57197679D01*
G04 #@! TO.C,Y1*
X196008285Y-68474964D02*
X196008285Y-68760678D01*
X195808285Y-68160678D02*
X196008285Y-68474964D01*
X196208285Y-68160678D01*
X196722571Y-68760678D02*
X196379714Y-68760678D01*
X196551142Y-68760678D02*
X196551142Y-68160678D01*
X196494000Y-68246392D01*
X196436857Y-68303535D01*
X196379714Y-68332107D01*
G04 #@! TO.C,C12*
X193027775Y-58282526D02*
X193027775Y-58322932D01*
X192987369Y-58403744D01*
X192946963Y-58444150D01*
X192866151Y-58484556D01*
X192785339Y-58484556D01*
X192724729Y-58464353D01*
X192623714Y-58403744D01*
X192563105Y-58343135D01*
X192502496Y-58242119D01*
X192482293Y-58181510D01*
X192482293Y-58100698D01*
X192522699Y-58019886D01*
X192563105Y-57979480D01*
X192643917Y-57939074D01*
X192684323Y-57939074D01*
X193472242Y-57918871D02*
X193229806Y-58161307D01*
X193351024Y-58040089D02*
X192926760Y-57615825D01*
X192946963Y-57716840D01*
X192946963Y-57797652D01*
X192926760Y-57858262D01*
X193250009Y-57373388D02*
X193250009Y-57332982D01*
X193270212Y-57272373D01*
X193371227Y-57171358D01*
X193431836Y-57151155D01*
X193472242Y-57151155D01*
X193532851Y-57171358D01*
X193573258Y-57211764D01*
X193613664Y-57292576D01*
X193613664Y-57777449D01*
X193876303Y-57514810D01*
G04 #@! TO.C,C16*
X199774285Y-68625714D02*
X199802857Y-68654285D01*
X199831428Y-68740000D01*
X199831428Y-68797142D01*
X199802857Y-68882857D01*
X199745714Y-68940000D01*
X199688571Y-68968571D01*
X199574285Y-68997142D01*
X199488571Y-68997142D01*
X199374285Y-68968571D01*
X199317142Y-68940000D01*
X199260000Y-68882857D01*
X199231428Y-68797142D01*
X199231428Y-68740000D01*
X199260000Y-68654285D01*
X199288571Y-68625714D01*
X199831428Y-68054285D02*
X199831428Y-68397142D01*
X199831428Y-68225714D02*
X199231428Y-68225714D01*
X199317142Y-68282857D01*
X199374285Y-68340000D01*
X199402857Y-68397142D01*
X199231428Y-67540000D02*
X199231428Y-67654285D01*
X199260000Y-67711428D01*
X199288571Y-67740000D01*
X199374285Y-67797142D01*
X199488571Y-67825714D01*
X199717142Y-67825714D01*
X199774285Y-67797142D01*
X199802857Y-67768571D01*
X199831428Y-67711428D01*
X199831428Y-67597142D01*
X199802857Y-67540000D01*
X199774285Y-67511428D01*
X199717142Y-67482857D01*
X199574285Y-67482857D01*
X199517142Y-67511428D01*
X199488571Y-67540000D01*
X199460000Y-67597142D01*
X199460000Y-67711428D01*
X199488571Y-67768571D01*
X199517142Y-67797142D01*
X199574285Y-67825714D01*
G04 #@! TO.C,F1*
X204327142Y-37040000D02*
X204327142Y-37240000D01*
X204641428Y-37240000D02*
X204041428Y-37240000D01*
X204041428Y-36954285D01*
X204641428Y-36411428D02*
X204641428Y-36754285D01*
X204641428Y-36582857D02*
X204041428Y-36582857D01*
X204127142Y-36640000D01*
X204184285Y-36697142D01*
X204212857Y-36754285D01*
G04 #@! TO.C,D1*
X210901428Y-38322857D02*
X210301428Y-38322857D01*
X210301428Y-38180000D01*
X210330000Y-38094285D01*
X210387142Y-38037142D01*
X210444285Y-38008571D01*
X210558571Y-37980000D01*
X210644285Y-37980000D01*
X210758571Y-38008571D01*
X210815714Y-38037142D01*
X210872857Y-38094285D01*
X210901428Y-38180000D01*
X210901428Y-38322857D01*
X210901428Y-37408571D02*
X210901428Y-37751428D01*
X210901428Y-37580000D02*
X210301428Y-37580000D01*
X210387142Y-37637142D01*
X210444285Y-37694285D01*
X210472857Y-37751428D01*
G04 #@! TO.C,C6*
X204190000Y-45639285D02*
X204161428Y-45667857D01*
X204075714Y-45696428D01*
X204018571Y-45696428D01*
X203932857Y-45667857D01*
X203875714Y-45610714D01*
X203847142Y-45553571D01*
X203818571Y-45439285D01*
X203818571Y-45353571D01*
X203847142Y-45239285D01*
X203875714Y-45182142D01*
X203932857Y-45125000D01*
X204018571Y-45096428D01*
X204075714Y-45096428D01*
X204161428Y-45125000D01*
X204190000Y-45153571D01*
X204704285Y-45096428D02*
X204590000Y-45096428D01*
X204532857Y-45125000D01*
X204504285Y-45153571D01*
X204447142Y-45239285D01*
X204418571Y-45353571D01*
X204418571Y-45582142D01*
X204447142Y-45639285D01*
X204475714Y-45667857D01*
X204532857Y-45696428D01*
X204647142Y-45696428D01*
X204704285Y-45667857D01*
X204732857Y-45639285D01*
X204761428Y-45582142D01*
X204761428Y-45439285D01*
X204732857Y-45382142D01*
X204704285Y-45353571D01*
X204647142Y-45325000D01*
X204532857Y-45325000D01*
X204475714Y-45353571D01*
X204447142Y-45382142D01*
X204418571Y-45439285D01*
G04 #@! TO.C,C1*
X207430000Y-46839285D02*
X207401428Y-46867857D01*
X207315714Y-46896428D01*
X207258571Y-46896428D01*
X207172857Y-46867857D01*
X207115714Y-46810714D01*
X207087142Y-46753571D01*
X207058571Y-46639285D01*
X207058571Y-46553571D01*
X207087142Y-46439285D01*
X207115714Y-46382142D01*
X207172857Y-46325000D01*
X207258571Y-46296428D01*
X207315714Y-46296428D01*
X207401428Y-46325000D01*
X207430000Y-46353571D01*
X208001428Y-46896428D02*
X207658571Y-46896428D01*
X207830000Y-46896428D02*
X207830000Y-46296428D01*
X207772857Y-46382142D01*
X207715714Y-46439285D01*
X207658571Y-46467857D01*
G04 #@! TO.C,C3*
X201564285Y-47080000D02*
X201592857Y-47108571D01*
X201621428Y-47194285D01*
X201621428Y-47251428D01*
X201592857Y-47337142D01*
X201535714Y-47394285D01*
X201478571Y-47422857D01*
X201364285Y-47451428D01*
X201278571Y-47451428D01*
X201164285Y-47422857D01*
X201107142Y-47394285D01*
X201050000Y-47337142D01*
X201021428Y-47251428D01*
X201021428Y-47194285D01*
X201050000Y-47108571D01*
X201078571Y-47080000D01*
X201021428Y-46880000D02*
X201021428Y-46508571D01*
X201250000Y-46708571D01*
X201250000Y-46622857D01*
X201278571Y-46565714D01*
X201307142Y-46537142D01*
X201364285Y-46508571D01*
X201507142Y-46508571D01*
X201564285Y-46537142D01*
X201592857Y-46565714D01*
X201621428Y-46622857D01*
X201621428Y-46794285D01*
X201592857Y-46851428D01*
X201564285Y-46880000D01*
G04 #@! TO.C,R4*
X197711428Y-60900000D02*
X197425714Y-61100000D01*
X197711428Y-61242857D02*
X197111428Y-61242857D01*
X197111428Y-61014285D01*
X197140000Y-60957142D01*
X197168571Y-60928571D01*
X197225714Y-60900000D01*
X197311428Y-60900000D01*
X197368571Y-60928571D01*
X197397142Y-60957142D01*
X197425714Y-61014285D01*
X197425714Y-61242857D01*
X197311428Y-60385714D02*
X197711428Y-60385714D01*
X197082857Y-60528571D02*
X197511428Y-60671428D01*
X197511428Y-60300000D01*
G04 #@! TO.C,C5*
X201194285Y-60900000D02*
X201222857Y-60928571D01*
X201251428Y-61014285D01*
X201251428Y-61071428D01*
X201222857Y-61157142D01*
X201165714Y-61214285D01*
X201108571Y-61242857D01*
X200994285Y-61271428D01*
X200908571Y-61271428D01*
X200794285Y-61242857D01*
X200737142Y-61214285D01*
X200680000Y-61157142D01*
X200651428Y-61071428D01*
X200651428Y-61014285D01*
X200680000Y-60928571D01*
X200708571Y-60900000D01*
X200651428Y-60357142D02*
X200651428Y-60642857D01*
X200937142Y-60671428D01*
X200908571Y-60642857D01*
X200880000Y-60585714D01*
X200880000Y-60442857D01*
X200908571Y-60385714D01*
X200937142Y-60357142D01*
X200994285Y-60328571D01*
X201137142Y-60328571D01*
X201194285Y-60357142D01*
X201222857Y-60385714D01*
X201251428Y-60442857D01*
X201251428Y-60585714D01*
X201222857Y-60642857D01*
X201194285Y-60671428D01*
G04 #@! TO.C,C13*
X206554285Y-50134285D02*
X206525714Y-50162857D01*
X206440000Y-50191428D01*
X206382857Y-50191428D01*
X206297142Y-50162857D01*
X206240000Y-50105714D01*
X206211428Y-50048571D01*
X206182857Y-49934285D01*
X206182857Y-49848571D01*
X206211428Y-49734285D01*
X206240000Y-49677142D01*
X206297142Y-49620000D01*
X206382857Y-49591428D01*
X206440000Y-49591428D01*
X206525714Y-49620000D01*
X206554285Y-49648571D01*
X207125714Y-50191428D02*
X206782857Y-50191428D01*
X206954285Y-50191428D02*
X206954285Y-49591428D01*
X206897142Y-49677142D01*
X206840000Y-49734285D01*
X206782857Y-49762857D01*
X207325714Y-49591428D02*
X207697142Y-49591428D01*
X207497142Y-49820000D01*
X207582857Y-49820000D01*
X207640000Y-49848571D01*
X207668571Y-49877142D01*
X207697142Y-49934285D01*
X207697142Y-50077142D01*
X207668571Y-50134285D01*
X207640000Y-50162857D01*
X207582857Y-50191428D01*
X207411428Y-50191428D01*
X207354285Y-50162857D01*
X207325714Y-50134285D01*
G04 #@! TO.C,C9*
X202564285Y-47080000D02*
X202592857Y-47108571D01*
X202621428Y-47194285D01*
X202621428Y-47251428D01*
X202592857Y-47337142D01*
X202535714Y-47394285D01*
X202478571Y-47422857D01*
X202364285Y-47451428D01*
X202278571Y-47451428D01*
X202164285Y-47422857D01*
X202107142Y-47394285D01*
X202050000Y-47337142D01*
X202021428Y-47251428D01*
X202021428Y-47194285D01*
X202050000Y-47108571D01*
X202078571Y-47080000D01*
X202621428Y-46794285D02*
X202621428Y-46680000D01*
X202592857Y-46622857D01*
X202564285Y-46594285D01*
X202478571Y-46537142D01*
X202364285Y-46508571D01*
X202135714Y-46508571D01*
X202078571Y-46537142D01*
X202050000Y-46565714D01*
X202021428Y-46622857D01*
X202021428Y-46737142D01*
X202050000Y-46794285D01*
X202078571Y-46822857D01*
X202135714Y-46851428D01*
X202278571Y-46851428D01*
X202335714Y-46822857D01*
X202364285Y-46794285D01*
X202392857Y-46737142D01*
X202392857Y-46622857D01*
X202364285Y-46565714D01*
X202335714Y-46537142D01*
X202278571Y-46508571D01*
G04 #@! TO.C,C17*
X194714285Y-40894285D02*
X194685714Y-40922857D01*
X194600000Y-40951428D01*
X194542857Y-40951428D01*
X194457142Y-40922857D01*
X194400000Y-40865714D01*
X194371428Y-40808571D01*
X194342857Y-40694285D01*
X194342857Y-40608571D01*
X194371428Y-40494285D01*
X194400000Y-40437142D01*
X194457142Y-40380000D01*
X194542857Y-40351428D01*
X194600000Y-40351428D01*
X194685714Y-40380000D01*
X194714285Y-40408571D01*
X195285714Y-40951428D02*
X194942857Y-40951428D01*
X195114285Y-40951428D02*
X195114285Y-40351428D01*
X195057142Y-40437142D01*
X195000000Y-40494285D01*
X194942857Y-40522857D01*
X195485714Y-40351428D02*
X195885714Y-40351428D01*
X195628571Y-40951428D01*
G04 #@! TO.C,C15*
X193084285Y-68635714D02*
X193112857Y-68664285D01*
X193141428Y-68750000D01*
X193141428Y-68807142D01*
X193112857Y-68892857D01*
X193055714Y-68950000D01*
X192998571Y-68978571D01*
X192884285Y-69007142D01*
X192798571Y-69007142D01*
X192684285Y-68978571D01*
X192627142Y-68950000D01*
X192570000Y-68892857D01*
X192541428Y-68807142D01*
X192541428Y-68750000D01*
X192570000Y-68664285D01*
X192598571Y-68635714D01*
X193141428Y-68064285D02*
X193141428Y-68407142D01*
X193141428Y-68235714D02*
X192541428Y-68235714D01*
X192627142Y-68292857D01*
X192684285Y-68350000D01*
X192712857Y-68407142D01*
X192541428Y-67521428D02*
X192541428Y-67807142D01*
X192827142Y-67835714D01*
X192798571Y-67807142D01*
X192770000Y-67750000D01*
X192770000Y-67607142D01*
X192798571Y-67550000D01*
X192827142Y-67521428D01*
X192884285Y-67492857D01*
X193027142Y-67492857D01*
X193084285Y-67521428D01*
X193112857Y-67550000D01*
X193141428Y-67607142D01*
X193141428Y-67750000D01*
X193112857Y-67807142D01*
X193084285Y-67835714D01*
G04 #@! TO.C,R3*
X202041428Y-43240000D02*
X201755714Y-43440000D01*
X202041428Y-43582857D02*
X201441428Y-43582857D01*
X201441428Y-43354285D01*
X201470000Y-43297142D01*
X201498571Y-43268571D01*
X201555714Y-43240000D01*
X201641428Y-43240000D01*
X201698571Y-43268571D01*
X201727142Y-43297142D01*
X201755714Y-43354285D01*
X201755714Y-43582857D01*
X201441428Y-43040000D02*
X201441428Y-42668571D01*
X201670000Y-42868571D01*
X201670000Y-42782857D01*
X201698571Y-42725714D01*
X201727142Y-42697142D01*
X201784285Y-42668571D01*
X201927142Y-42668571D01*
X201984285Y-42697142D01*
X202012857Y-42725714D01*
X202041428Y-42782857D01*
X202041428Y-42954285D01*
X202012857Y-43011428D01*
X201984285Y-43040000D01*
G04 #@! TO.C,R5*
X187291428Y-39820000D02*
X187005714Y-40020000D01*
X187291428Y-40162857D02*
X186691428Y-40162857D01*
X186691428Y-39934285D01*
X186720000Y-39877142D01*
X186748571Y-39848571D01*
X186805714Y-39820000D01*
X186891428Y-39820000D01*
X186948571Y-39848571D01*
X186977142Y-39877142D01*
X187005714Y-39934285D01*
X187005714Y-40162857D01*
X186691428Y-39277142D02*
X186691428Y-39562857D01*
X186977142Y-39591428D01*
X186948571Y-39562857D01*
X186920000Y-39505714D01*
X186920000Y-39362857D01*
X186948571Y-39305714D01*
X186977142Y-39277142D01*
X187034285Y-39248571D01*
X187177142Y-39248571D01*
X187234285Y-39277142D01*
X187262857Y-39305714D01*
X187291428Y-39362857D01*
X187291428Y-39505714D01*
X187262857Y-39562857D01*
X187234285Y-39591428D01*
G04 #@! TO.C,R2*
X198141428Y-43240000D02*
X197855714Y-43440000D01*
X198141428Y-43582857D02*
X197541428Y-43582857D01*
X197541428Y-43354285D01*
X197570000Y-43297142D01*
X197598571Y-43268571D01*
X197655714Y-43240000D01*
X197741428Y-43240000D01*
X197798571Y-43268571D01*
X197827142Y-43297142D01*
X197855714Y-43354285D01*
X197855714Y-43582857D01*
X197598571Y-43011428D02*
X197570000Y-42982857D01*
X197541428Y-42925714D01*
X197541428Y-42782857D01*
X197570000Y-42725714D01*
X197598571Y-42697142D01*
X197655714Y-42668571D01*
X197712857Y-42668571D01*
X197798571Y-42697142D01*
X198141428Y-43040000D01*
X198141428Y-42668571D01*
G04 #@! TO.C,C7*
X198794285Y-45400000D02*
X198822857Y-45428571D01*
X198851428Y-45514285D01*
X198851428Y-45571428D01*
X198822857Y-45657142D01*
X198765714Y-45714285D01*
X198708571Y-45742857D01*
X198594285Y-45771428D01*
X198508571Y-45771428D01*
X198394285Y-45742857D01*
X198337142Y-45714285D01*
X198280000Y-45657142D01*
X198251428Y-45571428D01*
X198251428Y-45514285D01*
X198280000Y-45428571D01*
X198308571Y-45400000D01*
X198251428Y-45200000D02*
X198251428Y-44800000D01*
X198851428Y-45057142D01*
G04 #@! TO.C,J2*
X202821428Y-66320000D02*
X203250000Y-66320000D01*
X203335714Y-66348571D01*
X203392857Y-66405714D01*
X203421428Y-66491428D01*
X203421428Y-66548571D01*
X202878571Y-66062857D02*
X202850000Y-66034285D01*
X202821428Y-65977142D01*
X202821428Y-65834285D01*
X202850000Y-65777142D01*
X202878571Y-65748571D01*
X202935714Y-65720000D01*
X202992857Y-65720000D01*
X203078571Y-65748571D01*
X203421428Y-66091428D01*
X203421428Y-65720000D01*
G04 #@! TO.C,D2*
X208611904Y-43570476D02*
X207811904Y-43570476D01*
X207811904Y-43380000D01*
X207850000Y-43265714D01*
X207926190Y-43189523D01*
X208002380Y-43151428D01*
X208154761Y-43113333D01*
X208269047Y-43113333D01*
X208421428Y-43151428D01*
X208497619Y-43189523D01*
X208573809Y-43265714D01*
X208611904Y-43380000D01*
X208611904Y-43570476D01*
X207888095Y-42808571D02*
X207850000Y-42770476D01*
X207811904Y-42694285D01*
X207811904Y-42503809D01*
X207850000Y-42427619D01*
X207888095Y-42389523D01*
X207964285Y-42351428D01*
X208040476Y-42351428D01*
X208154761Y-42389523D01*
X208611904Y-42846666D01*
X208611904Y-42351428D01*
G04 #@! TO.C,C11*
X199694285Y-60900000D02*
X199722857Y-60928571D01*
X199751428Y-61014286D01*
X199751428Y-61071428D01*
X199722857Y-61157143D01*
X199665714Y-61214286D01*
X199608571Y-61242857D01*
X199494285Y-61271428D01*
X199408571Y-61271428D01*
X199294285Y-61242857D01*
X199237142Y-61214286D01*
X199180000Y-61157143D01*
X199151428Y-61071428D01*
X199151428Y-61014286D01*
X199180000Y-60928571D01*
X199208571Y-60900000D01*
X199751428Y-60328571D02*
X199751428Y-60671428D01*
X199751428Y-60500000D02*
X199151428Y-60500000D01*
X199237142Y-60557143D01*
X199294285Y-60614286D01*
X199322857Y-60671428D01*
X199751428Y-59757143D02*
X199751428Y-60100000D01*
X199751428Y-59928571D02*
X199151428Y-59928571D01*
X199237142Y-59985714D01*
X199294285Y-60042857D01*
X199322857Y-60100000D01*
G04 #@! TO.C,U3*
X197818095Y-49527380D02*
X197818095Y-50336904D01*
X197865714Y-50432142D01*
X197913333Y-50479761D01*
X198008571Y-50527380D01*
X198199047Y-50527380D01*
X198294285Y-50479761D01*
X198341904Y-50432142D01*
X198389523Y-50336904D01*
X198389523Y-49527380D01*
X198770476Y-49527380D02*
X199389523Y-49527380D01*
X199056190Y-49908333D01*
X199199047Y-49908333D01*
X199294285Y-49955952D01*
X199341904Y-50003571D01*
X199389523Y-50098809D01*
X199389523Y-50336904D01*
X199341904Y-50432142D01*
X199294285Y-50479761D01*
X199199047Y-50527380D01*
X198913333Y-50527380D01*
X198818095Y-50479761D01*
X198770476Y-50432142D01*
G04 #@! TO.C,C4*
X197274285Y-45390000D02*
X197302857Y-45418571D01*
X197331428Y-45504285D01*
X197331428Y-45561428D01*
X197302857Y-45647142D01*
X197245714Y-45704285D01*
X197188571Y-45732857D01*
X197074285Y-45761428D01*
X196988571Y-45761428D01*
X196874285Y-45732857D01*
X196817142Y-45704285D01*
X196760000Y-45647142D01*
X196731428Y-45561428D01*
X196731428Y-45504285D01*
X196760000Y-45418571D01*
X196788571Y-45390000D01*
X196931428Y-44875714D02*
X197331428Y-44875714D01*
X196702857Y-45018571D02*
X197131428Y-45161428D01*
X197131428Y-44790000D01*
G04 #@! TO.C,R1*
X204400000Y-61271428D02*
X204200000Y-60985714D01*
X204057142Y-61271428D02*
X204057142Y-60671428D01*
X204285714Y-60671428D01*
X204342857Y-60700000D01*
X204371428Y-60728571D01*
X204400000Y-60785714D01*
X204400000Y-60871428D01*
X204371428Y-60928571D01*
X204342857Y-60957142D01*
X204285714Y-60985714D01*
X204057142Y-60985714D01*
X204971428Y-61271428D02*
X204628571Y-61271428D01*
X204800000Y-61271428D02*
X204800000Y-60671428D01*
X204742857Y-60757142D01*
X204685714Y-60814285D01*
X204628571Y-60842857D01*
G04 #@! TO.C,U2*
X200651428Y-37807142D02*
X201137142Y-37807142D01*
X201194285Y-37778571D01*
X201222857Y-37750000D01*
X201251428Y-37692857D01*
X201251428Y-37578571D01*
X201222857Y-37521428D01*
X201194285Y-37492857D01*
X201137142Y-37464285D01*
X200651428Y-37464285D01*
X200708571Y-37207142D02*
X200680000Y-37178571D01*
X200651428Y-37121428D01*
X200651428Y-36978571D01*
X200680000Y-36921428D01*
X200708571Y-36892857D01*
X200765714Y-36864285D01*
X200822857Y-36864285D01*
X200908571Y-36892857D01*
X201251428Y-37235714D01*
X201251428Y-36864285D01*
G04 #@! TO.C,C14*
X206554285Y-51644285D02*
X206525714Y-51672857D01*
X206440000Y-51701428D01*
X206382857Y-51701428D01*
X206297142Y-51672857D01*
X206240000Y-51615714D01*
X206211428Y-51558571D01*
X206182857Y-51444285D01*
X206182857Y-51358571D01*
X206211428Y-51244285D01*
X206240000Y-51187142D01*
X206297142Y-51130000D01*
X206382857Y-51101428D01*
X206440000Y-51101428D01*
X206525714Y-51130000D01*
X206554285Y-51158571D01*
X207125714Y-51701428D02*
X206782857Y-51701428D01*
X206954285Y-51701428D02*
X206954285Y-51101428D01*
X206897142Y-51187142D01*
X206840000Y-51244285D01*
X206782857Y-51272857D01*
X207640000Y-51301428D02*
X207640000Y-51701428D01*
X207497142Y-51072857D02*
X207354285Y-51501428D01*
X207725714Y-51501428D01*
G04 #@! TO.C,U4*
X188992857Y-39661428D02*
X188992857Y-40147142D01*
X189021428Y-40204285D01*
X189050000Y-40232857D01*
X189107142Y-40261428D01*
X189221428Y-40261428D01*
X189278571Y-40232857D01*
X189307142Y-40204285D01*
X189335714Y-40147142D01*
X189335714Y-39661428D01*
X189878571Y-39861428D02*
X189878571Y-40261428D01*
X189735714Y-39632857D02*
X189592857Y-40061428D01*
X189964285Y-40061428D01*
D11*
G04 #@! TO.C,SW41*
X184890000Y-33050000D02*
X185380000Y-32560000D01*
X184890000Y-33050000D02*
X184890000Y-35950000D01*
X190330000Y-35950000D02*
X189840000Y-36440000D01*
X186570000Y-31780000D02*
X188650000Y-31780000D01*
X190330000Y-33050000D02*
X189840000Y-32560000D01*
X186570000Y-37220000D02*
X188650000Y-37220000D01*
X184890000Y-35950000D02*
X185380000Y-36440000D01*
X190330000Y-33050000D02*
X190330000Y-35950000D01*
G04 #@! TO.C,C10*
X192984750Y-51303854D02*
X192984750Y-51088182D01*
X193704750Y-51303854D02*
X193704750Y-51088182D01*
G04 #@! TO.C,U1*
X203950000Y-38280000D02*
X203950000Y-39955000D01*
X207070000Y-38280000D02*
X207070000Y-38930000D01*
X203950000Y-38280000D02*
X203950000Y-37630000D01*
X207070000Y-38280000D02*
X207070000Y-37630000D01*
G04 #@! TO.C,C2*
X206107836Y-36190000D02*
X205892164Y-36190000D01*
X206107836Y-35470000D02*
X205892164Y-35470000D01*
G04 #@! TO.C,C8*
X205555190Y-57994200D02*
X205707693Y-58146703D01*
X206064307Y-57485083D02*
X206216810Y-57637586D01*
G04 #@! TO.C,Y1*
X198294000Y-64389250D02*
X194294000Y-64389250D01*
X198294000Y-67689250D02*
X198294000Y-64389250D01*
G04 #@! TO.C,C12*
X192659560Y-57216325D02*
X192507057Y-57368828D01*
X192150443Y-56707208D02*
X191997940Y-56859711D01*
G04 #@! TO.C,C16*
X199207750Y-66162854D02*
X199207750Y-65947182D01*
X199927750Y-66162854D02*
X199927750Y-65947182D01*
G04 #@! TO.C,F1*
X201640000Y-36237936D02*
X201640000Y-37442064D01*
X203460000Y-36237936D02*
X203460000Y-37442064D01*
G04 #@! TO.C,D1*
X208130000Y-39730000D02*
X209530000Y-39730000D01*
X209830000Y-39480000D02*
X209830000Y-35830000D01*
X207830000Y-39480000D02*
X207830000Y-35830000D01*
X207830000Y-39480000D02*
G75*
G03*
X208130000Y-39730000I289561J42473D01*
G01*
X209530000Y-39730001D02*
G75*
G03*
X209830000Y-39480000I10462J292446D01*
G01*
G04 #@! TO.C,C6*
X206027836Y-45785000D02*
X205812164Y-45785000D01*
X206027836Y-45065000D02*
X205812164Y-45065000D01*
G04 #@! TO.C,C1*
X205812164Y-46985000D02*
X206027836Y-46985000D01*
X205812164Y-46265000D02*
X206027836Y-46265000D01*
G04 #@! TO.C,C3*
X201705750Y-48763854D02*
X201705750Y-48548182D01*
X200985750Y-48763854D02*
X200985750Y-48548182D01*
G04 #@! TO.C,R4*
X197057000Y-62636891D02*
X197057000Y-62329609D01*
X197817000Y-62636891D02*
X197817000Y-62329609D01*
G04 #@! TO.C,C5*
X201353000Y-62375414D02*
X201353000Y-62591086D01*
X200633000Y-62375414D02*
X200633000Y-62591086D01*
G04 #@! TO.C,C13*
X204949164Y-50270250D02*
X205164836Y-50270250D01*
X204949164Y-49550250D02*
X205164836Y-49550250D01*
G04 #@! TO.C,C9*
X202001750Y-48763854D02*
X202001750Y-48548182D01*
X202721750Y-48763854D02*
X202721750Y-48548182D01*
G04 #@! TO.C,C17*
X194992164Y-42000000D02*
X195207836Y-42000000D01*
X194992164Y-41280000D02*
X195207836Y-41280000D01*
G04 #@! TO.C,C15*
X192505000Y-66201182D02*
X192505000Y-66416854D01*
X193225000Y-66201182D02*
X193225000Y-66416854D01*
G04 #@! TO.C,R3*
X201062500Y-42902742D02*
X201062500Y-43377258D01*
X200017500Y-42902742D02*
X200017500Y-43377258D01*
G04 #@! TO.C,R5*
X186230000Y-39566359D02*
X186230000Y-39873641D01*
X185470000Y-39566359D02*
X185470000Y-39873641D01*
G04 #@! TO.C,R2*
X199532500Y-42902742D02*
X199532500Y-43377258D01*
X198487500Y-42902742D02*
X198487500Y-43377258D01*
G04 #@! TO.C,C7*
X198940000Y-46970086D02*
X198940000Y-46754414D01*
X198220000Y-46970086D02*
X198220000Y-46754414D01*
D12*
G04 #@! TO.C,J2*
X204159822Y-64143268D02*
X204792797Y-63093123D01*
X207755500Y-64917608D02*
X207755500Y-68439500D01*
X206907203Y-63093123D02*
X207540178Y-64143268D01*
X206455499Y-69739500D02*
X205244501Y-69739500D01*
X205841951Y-62500500D02*
X205858049Y-62500500D01*
X203944500Y-68439500D02*
X203944500Y-64917608D01*
X206455499Y-69739500D02*
G75*
G03*
X207755500Y-68439501I1J1300000D01*
G01*
X203944500Y-68439500D02*
G75*
G03*
X205244502Y-69739500I1300000J0D01*
G01*
X206907203Y-63093123D02*
G75*
G03*
X205858049Y-62500500I-1049152J-632373D01*
G01*
X204159822Y-64143268D02*
G75*
G03*
X203944500Y-64917608I1284686J-774342D01*
G01*
X205841951Y-62500500D02*
G75*
G03*
X204792797Y-63093123I0J-1225000D01*
G01*
X207755500Y-64917608D02*
G75*
G03*
X207540178Y-64143268I-1500008J-2D01*
G01*
D11*
G04 #@! TO.C,D2*
X207450000Y-44580000D02*
X207450000Y-40930000D01*
X205450000Y-44580000D02*
X205450000Y-40930000D01*
X205750000Y-44830000D02*
X207150000Y-44830000D01*
X207150000Y-44830001D02*
G75*
G03*
X207450000Y-44580000I10462J292446D01*
G01*
X205450000Y-44580000D02*
G75*
G03*
X205750000Y-44830000I289561J42473D01*
G01*
G04 #@! TO.C,C11*
X199109000Y-62375414D02*
X199109000Y-62591086D01*
X199829000Y-62375414D02*
X199829000Y-62591086D01*
G04 #@! TO.C,U3*
X202190000Y-51285000D02*
X202190000Y-51935000D01*
X201540000Y-58505000D02*
X202190000Y-58505000D01*
X201540000Y-51285000D02*
X202190000Y-51285000D01*
X202190000Y-58505000D02*
X202190000Y-57855000D01*
X195620000Y-51285000D02*
X194970000Y-51285000D01*
X194970000Y-58505000D02*
X194970000Y-57855000D01*
X195620000Y-58505000D02*
X194970000Y-58505000D01*
G04 #@! TO.C,C4*
X196696000Y-46970086D02*
X196696000Y-46754414D01*
X197416000Y-46970086D02*
X197416000Y-46754414D01*
G04 #@! TO.C,R1*
X204653641Y-61550000D02*
X204346359Y-61550000D01*
X204653641Y-62310000D02*
X204346359Y-62310000D01*
G04 #@! TO.C,U2*
X197020000Y-37350000D02*
X197020000Y-38150000D01*
X200140000Y-37350000D02*
X200140000Y-38150000D01*
X200140000Y-37350000D02*
X200140000Y-35550000D01*
X197020000Y-37350000D02*
X197020000Y-36550000D01*
G04 #@! TO.C,C14*
X204949164Y-51074250D02*
X205164836Y-51074250D01*
X204949164Y-51794250D02*
X205164836Y-51794250D01*
G04 #@! TO.C,J1*
X203268500Y-33420000D02*
X201628500Y-33420000D01*
X195328500Y-33420000D02*
X193888500Y-33420000D01*
X193888500Y-33420000D02*
X193888500Y-27520000D01*
X203268500Y-33420000D02*
X203268500Y-27520000D01*
G04 #@! TO.C,U4*
X192175000Y-46275000D02*
X192175000Y-46015000D01*
X186725000Y-40825000D02*
X186725000Y-41085000D01*
X189450000Y-40825000D02*
X186725000Y-40825000D01*
X189450000Y-46275000D02*
X186725000Y-46275000D01*
X192175000Y-40825000D02*
X192175000Y-41085000D01*
X186725000Y-41085000D02*
X185050000Y-41085000D01*
X189450000Y-46275000D02*
X192175000Y-46275000D01*
X189450000Y-40825000D02*
X192175000Y-40825000D01*
X186725000Y-46275000D02*
X186725000Y-46015000D01*
G04 #@! TD*
M02*
