G04 #@! TF.GenerationSoftware,KiCad,Pcbnew,(6.0.7)*
G04 #@! TF.CreationDate,2023-01-12T02:14:33-06:00*
G04 #@! TF.ProjectId,OpenRectangle,4f70656e-5265-4637-9461-6e676c652e6b,rev?*
G04 #@! TF.SameCoordinates,Original*
G04 #@! TF.FileFunction,Soldermask,Top*
G04 #@! TF.FilePolarity,Negative*
%FSLAX46Y46*%
G04 Gerber Fmt 4.6, Leading zero omitted, Abs format (unit mm)*
G04 Created by KiCad (PCBNEW (6.0.7)) date 2023-01-12 02:14:33*
%MOMM*%
%LPD*%
G01*
G04 APERTURE LIST*
G04 Aperture macros list*
%AMRoundRect*
0 Rectangle with rounded corners*
0 $1 Rounding radius*
0 $2 $3 $4 $5 $6 $7 $8 $9 X,Y pos of 4 corners*
0 Add a 4 corners polygon primitive as box body*
4,1,4,$2,$3,$4,$5,$6,$7,$8,$9,$2,$3,0*
0 Add four circle primitives for the rounded corners*
1,1,$1+$1,$2,$3*
1,1,$1+$1,$4,$5*
1,1,$1+$1,$6,$7*
1,1,$1+$1,$8,$9*
0 Add four rect primitives between the rounded corners*
20,1,$1+$1,$2,$3,$4,$5,0*
20,1,$1+$1,$4,$5,$6,$7,0*
20,1,$1+$1,$6,$7,$8,$9,0*
20,1,$1+$1,$8,$9,$2,$3,0*%
G04 Aperture macros list end*
%ADD10R,1.800000X1.100000*%
%ADD11RoundRect,0.140000X0.170000X-0.140000X0.170000X0.140000X-0.170000X0.140000X-0.170000X-0.140000X0*%
%ADD12RoundRect,0.150000X0.150000X-0.587500X0.150000X0.587500X-0.150000X0.587500X-0.150000X-0.587500X0*%
%ADD13RoundRect,0.140000X-0.140000X-0.170000X0.140000X-0.170000X0.140000X0.170000X-0.140000X0.170000X0*%
%ADD14RoundRect,0.140000X-0.219203X-0.021213X-0.021213X-0.219203X0.219203X0.021213X0.021213X0.219203X0*%
%ADD15R,1.400000X1.200000*%
%ADD16RoundRect,0.140000X-0.021213X0.219203X-0.219203X0.021213X0.021213X-0.219203X0.219203X-0.021213X0*%
%ADD17RoundRect,0.250000X-0.625000X0.375000X-0.625000X-0.375000X0.625000X-0.375000X0.625000X0.375000X0*%
%ADD18RoundRect,0.225000X0.375000X-0.225000X0.375000X0.225000X-0.375000X0.225000X-0.375000X-0.225000X0*%
%ADD19RoundRect,0.140000X0.140000X0.170000X-0.140000X0.170000X-0.140000X-0.170000X0.140000X-0.170000X0*%
%ADD20RoundRect,0.135000X0.185000X-0.135000X0.185000X0.135000X-0.185000X0.135000X-0.185000X-0.135000X0*%
%ADD21RoundRect,0.140000X-0.170000X0.140000X-0.170000X-0.140000X0.170000X-0.140000X0.170000X0.140000X0*%
%ADD22RoundRect,0.200000X-0.275000X0.200000X-0.275000X-0.200000X0.275000X-0.200000X0.275000X0.200000X0*%
%ADD23RoundRect,0.135000X-0.185000X0.135000X-0.185000X-0.135000X0.185000X-0.135000X0.185000X0.135000X0*%
%ADD24C,0.990600*%
%ADD25C,0.787400*%
%ADD26RoundRect,0.050000X-0.387500X-0.050000X0.387500X-0.050000X0.387500X0.050000X-0.387500X0.050000X0*%
%ADD27RoundRect,0.050000X-0.050000X-0.387500X0.050000X-0.387500X0.050000X0.387500X-0.050000X0.387500X0*%
%ADD28RoundRect,0.144000X-1.456000X-1.456000X1.456000X-1.456000X1.456000X1.456000X-1.456000X1.456000X0*%
%ADD29RoundRect,0.135000X0.135000X0.185000X-0.135000X0.185000X-0.135000X-0.185000X0.135000X-0.185000X0*%
%ADD30RoundRect,0.150000X-0.150000X0.512500X-0.150000X-0.512500X0.150000X-0.512500X0.150000X0.512500X0*%
%ADD31C,0.650000*%
%ADD32R,0.300000X0.900000*%
%ADD33O,0.800000X1.400000*%
%ADD34RoundRect,0.150000X-0.150000X0.650000X-0.150000X-0.650000X0.150000X-0.650000X0.150000X0.650000X0*%
%ADD35C,1.750000*%
%ADD36C,3.987800*%
%ADD37C,3.300000*%
G04 APERTURE END LIST*
D10*
G04 #@! TO.C,SW21*
X185340000Y-28340000D03*
X179140000Y-28340000D03*
X185340000Y-32040000D03*
X179140000Y-32040000D03*
G04 #@! TD*
D11*
G04 #@! TO.C,C10*
X193344750Y-51676018D03*
X193344750Y-50716018D03*
G04 #@! TD*
D12*
G04 #@! TO.C,U1*
X204920000Y-41927500D03*
X206820000Y-41927500D03*
X205870000Y-40052500D03*
G04 #@! TD*
D13*
G04 #@! TO.C,C1*
X207950000Y-38440000D03*
X208910000Y-38440000D03*
G04 #@! TD*
D14*
G04 #@! TO.C,C8*
X205546589Y-57476482D03*
X206225411Y-58155304D03*
G04 #@! TD*
D15*
G04 #@! TO.C,Y1*
X197394000Y-65189250D03*
X195194000Y-65189250D03*
X195194000Y-66889250D03*
X197394000Y-66889250D03*
G04 #@! TD*
D16*
G04 #@! TO.C,C12*
X192668161Y-56698607D03*
X191989339Y-57377429D03*
G04 #@! TD*
D11*
G04 #@! TO.C,C16*
X199567750Y-66535018D03*
X199567750Y-65575018D03*
G04 #@! TD*
D17*
G04 #@! TO.C,F1*
X202406249Y-36699999D03*
X202406249Y-39499999D03*
G04 #@! TD*
D18*
G04 #@! TO.C,D1*
X211490000Y-35220000D03*
X211490000Y-31920000D03*
G04 #@! TD*
D19*
G04 #@! TO.C,C6*
X206820000Y-43500000D03*
X205860000Y-43500000D03*
G04 #@! TD*
D13*
G04 #@! TO.C,C2*
X205860000Y-44700000D03*
X206820000Y-44700000D03*
G04 #@! TD*
D11*
G04 #@! TO.C,C3*
X201345750Y-49136018D03*
X201345750Y-48176018D03*
G04 #@! TD*
D20*
G04 #@! TO.C,R6*
X197437000Y-62993250D03*
X197437000Y-61973250D03*
G04 #@! TD*
D21*
G04 #@! TO.C,C5*
X200993000Y-62003250D03*
X200993000Y-62963250D03*
G04 #@! TD*
D13*
G04 #@! TO.C,C13*
X204577000Y-49910250D03*
X205537000Y-49910250D03*
G04 #@! TD*
D11*
G04 #@! TO.C,C9*
X202361750Y-49136018D03*
X202361750Y-48176018D03*
G04 #@! TD*
D13*
G04 #@! TO.C,C17*
X191850000Y-43830000D03*
X192810000Y-43830000D03*
G04 #@! TD*
D21*
G04 #@! TO.C,C15*
X192865000Y-65829018D03*
X192865000Y-66789018D03*
G04 #@! TD*
D22*
G04 #@! TO.C,R5*
X200540000Y-42315000D03*
X200540000Y-43965000D03*
G04 #@! TD*
D23*
G04 #@! TO.C,R7*
X191850000Y-32770000D03*
X191850000Y-33790000D03*
G04 #@! TD*
D22*
G04 #@! TO.C,R4*
X199010000Y-42315000D03*
X199010000Y-43965000D03*
G04 #@! TD*
D11*
G04 #@! TO.C,C7*
X198580000Y-47342250D03*
X198580000Y-46382250D03*
G04 #@! TD*
D24*
G04 #@! TO.C,J3*
X206350000Y-68824000D03*
X206350000Y-70856000D03*
X211430000Y-69840000D03*
D25*
X210160000Y-69205000D03*
X210160000Y-70475000D03*
X208890000Y-69205000D03*
X208890000Y-70475000D03*
X207620000Y-69205000D03*
X207620000Y-70475000D03*
G04 #@! TD*
D21*
G04 #@! TO.C,C11*
X199469000Y-62003250D03*
X199469000Y-62963250D03*
G04 #@! TD*
D26*
G04 #@! TO.C,U3*
X195142500Y-52295000D03*
X195142500Y-52695000D03*
X195142500Y-53095000D03*
X195142500Y-53495000D03*
X195142500Y-53895000D03*
X195142500Y-54295000D03*
X195142500Y-54695000D03*
X195142500Y-55095000D03*
X195142500Y-55495000D03*
X195142500Y-55895000D03*
X195142500Y-56295000D03*
X195142500Y-56695000D03*
X195142500Y-57095000D03*
X195142500Y-57495000D03*
D27*
X195980000Y-58332500D03*
X196380000Y-58332500D03*
X196780000Y-58332500D03*
X197180000Y-58332500D03*
X197580000Y-58332500D03*
X197980000Y-58332500D03*
X198380000Y-58332500D03*
X198780000Y-58332500D03*
X199180000Y-58332500D03*
X199580000Y-58332500D03*
X199980000Y-58332500D03*
X200380000Y-58332500D03*
X200780000Y-58332500D03*
X201180000Y-58332500D03*
D26*
X202017500Y-57495000D03*
X202017500Y-57095000D03*
X202017500Y-56695000D03*
X202017500Y-56295000D03*
X202017500Y-55895000D03*
X202017500Y-55495000D03*
X202017500Y-55095000D03*
X202017500Y-54695000D03*
X202017500Y-54295000D03*
X202017500Y-53895000D03*
X202017500Y-53495000D03*
X202017500Y-53095000D03*
X202017500Y-52695000D03*
X202017500Y-52295000D03*
D27*
X201180000Y-51457500D03*
X200780000Y-51457500D03*
X200380000Y-51457500D03*
X199980000Y-51457500D03*
X199580000Y-51457500D03*
X199180000Y-51457500D03*
X198780000Y-51457500D03*
X198380000Y-51457500D03*
X197980000Y-51457500D03*
X197580000Y-51457500D03*
X197180000Y-51457500D03*
X196780000Y-51457500D03*
X196380000Y-51457500D03*
X195980000Y-51457500D03*
D28*
X198580000Y-54895000D03*
G04 #@! TD*
D11*
G04 #@! TO.C,C4*
X197056000Y-47342250D03*
X197056000Y-46382250D03*
G04 #@! TD*
D29*
G04 #@! TO.C,R3*
X210320000Y-65180000D03*
X209300000Y-65180000D03*
G04 #@! TD*
D30*
G04 #@! TO.C,U2*
X199490000Y-37502500D03*
X198540000Y-37502500D03*
X197590000Y-37502500D03*
X197590000Y-39777500D03*
X198540000Y-39777500D03*
X199490000Y-39777500D03*
G04 #@! TD*
D13*
G04 #@! TO.C,C14*
X204577000Y-51434250D03*
X205537000Y-51434250D03*
G04 #@! TD*
D31*
G04 #@! TO.C,J1*
X202178500Y-32360000D03*
X194828500Y-32360000D03*
D32*
X201328500Y-32920000D03*
X200828500Y-32920000D03*
X200328500Y-32920000D03*
X199828500Y-32920000D03*
X199328500Y-32920000D03*
X198828500Y-32920000D03*
X198328500Y-32920000D03*
X197828500Y-32920000D03*
X197328500Y-32920000D03*
X196828500Y-32920000D03*
X196328500Y-32920000D03*
X195828500Y-32920000D03*
D31*
X195778500Y-31710000D03*
X196178500Y-31010000D03*
X196978500Y-31010000D03*
X197378500Y-31710000D03*
X197778500Y-31010000D03*
X198178500Y-31710000D03*
X198978500Y-31710000D03*
X199378500Y-31010000D03*
X199778500Y-31710000D03*
X200178500Y-31010000D03*
X200978500Y-31010000D03*
X201378500Y-31710000D03*
D33*
X203068500Y-26720000D03*
X194088500Y-26720000D03*
X194373500Y-31110000D03*
X202633500Y-31110000D03*
G04 #@! TD*
D34*
G04 #@! TO.C,U4*
X191850000Y-35340000D03*
X190580000Y-35340000D03*
X189310000Y-35340000D03*
X188040000Y-35340000D03*
X188040000Y-42540000D03*
X189310000Y-42540000D03*
X190580000Y-42540000D03*
X191850000Y-42540000D03*
G04 #@! TD*
D35*
G04 #@! TO.C,SW2*
X309232000Y-34349000D03*
D36*
X304152000Y-34349000D03*
D35*
X299072000Y-34349000D03*
D37*
X300342000Y-31809000D03*
X306692000Y-29269000D03*
G04 #@! TD*
D36*
G04 #@! TO.C,SW18*
X247948500Y-157267866D03*
D35*
X253028500Y-157267866D03*
X242868500Y-157267866D03*
D37*
X244138500Y-154727866D03*
X250488500Y-152187866D03*
G04 #@! TD*
D35*
G04 #@! TO.C,SW10*
X282714000Y-73954000D03*
D36*
X277634000Y-73954000D03*
D35*
X272554000Y-73954000D03*
D37*
X273824000Y-71414000D03*
X280174000Y-68874000D03*
G04 #@! TD*
D35*
G04 #@! TO.C,SW13*
X363810000Y-80970000D03*
X353650000Y-80970000D03*
D36*
X358730000Y-80970000D03*
D37*
X354920000Y-78430000D03*
X361270000Y-75890000D03*
G04 #@! TD*
D35*
G04 #@! TO.C,SW14*
X130880499Y-141471001D03*
D36*
X125800499Y-141471001D03*
D35*
X120720499Y-141471001D03*
D37*
X121990499Y-138931001D03*
X128340499Y-136391001D03*
G04 #@! TD*
D35*
G04 #@! TO.C,SW16*
X242868500Y-126082866D03*
X253028500Y-126082866D03*
D36*
X247948500Y-126082866D03*
D37*
X244138500Y-123542866D03*
X250488500Y-121002866D03*
G04 #@! TD*
D35*
G04 #@! TO.C,SW11*
X299072000Y-61959000D03*
X309232000Y-61959000D03*
D36*
X304152000Y-61959000D03*
D37*
X300342000Y-59419000D03*
X306692000Y-56879000D03*
G04 #@! TD*
D36*
G04 #@! TO.C,SW17*
X270635500Y-110312866D03*
D35*
X275715500Y-110312866D03*
X265555500Y-110312866D03*
D37*
X266825500Y-107772866D03*
X273175500Y-105232866D03*
G04 #@! TD*
D35*
G04 #@! TO.C,SW3*
X337587000Y-37324000D03*
X327427000Y-37324000D03*
D36*
X332507000Y-37324000D03*
D37*
X328697000Y-34784000D03*
X335047000Y-32244000D03*
G04 #@! TD*
D35*
G04 #@! TO.C,SW19*
X265555500Y-141497866D03*
X275715500Y-141497866D03*
D36*
X270635500Y-141497866D03*
D37*
X266825500Y-138957866D03*
X273175500Y-136417866D03*
G04 #@! TD*
D35*
G04 #@! TO.C,SW6*
X33562000Y-81576000D03*
X43722000Y-81576000D03*
D36*
X38642000Y-81576000D03*
D37*
X34832000Y-79036000D03*
X41182000Y-76496000D03*
G04 #@! TD*
D35*
G04 #@! TO.C,SW7*
X69002000Y-65273000D03*
X58842000Y-65273000D03*
D36*
X63922000Y-65273000D03*
D37*
X60112000Y-62733000D03*
X66462000Y-60193000D03*
G04 #@! TD*
D35*
G04 #@! TO.C,SW15*
X153568499Y-157240001D03*
X143408499Y-157240001D03*
D36*
X148488499Y-157240001D03*
D37*
X144678499Y-154700001D03*
X151028499Y-152160001D03*
G04 #@! TD*
D36*
G04 #@! TO.C,SW8*
X92278000Y-62547000D03*
D35*
X97358000Y-62547000D03*
X87198000Y-62547000D03*
D37*
X88468000Y-60007000D03*
X94818000Y-57467000D03*
G04 #@! TD*
D35*
G04 #@! TO.C,SW1*
X282714000Y-46345000D03*
X272554000Y-46345000D03*
D36*
X277634000Y-46345000D03*
D37*
X273824000Y-43805000D03*
X280174000Y-41265000D03*
G04 #@! TD*
D35*
G04 #@! TO.C,SW4*
X363810000Y-53360000D03*
D36*
X358730000Y-53360000D03*
D35*
X353650000Y-53360000D03*
D37*
X354920000Y-50820000D03*
X361270000Y-48280000D03*
G04 #@! TD*
D35*
G04 #@! TO.C,SW20*
X288212500Y-126082866D03*
D36*
X293292500Y-126082866D03*
D35*
X298372500Y-126082866D03*
D37*
X289482500Y-123542866D03*
X295832500Y-121002866D03*
G04 #@! TD*
D36*
G04 #@! TO.C,SW12*
X332507000Y-64934000D03*
D35*
X327427000Y-64934000D03*
X337587000Y-64934000D03*
D37*
X328697000Y-62394000D03*
X335047000Y-59854000D03*
G04 #@! TD*
D35*
G04 #@! TO.C,SW9*
X113770000Y-74310000D03*
D36*
X118850000Y-74310000D03*
D35*
X123930000Y-74310000D03*
D37*
X115040000Y-71770000D03*
X121390000Y-69230000D03*
G04 #@! TD*
D36*
G04 #@! TO.C,SW5*
X198578500Y-94326866D03*
D35*
X203658500Y-94326866D03*
X193498500Y-94326866D03*
D37*
X194768500Y-91786866D03*
X201118500Y-89246866D03*
G04 #@! TD*
M02*
